<?xml version="1.0" encoding="UTF-8" standalone="no"?>
<!-- Created with Inkscape (http://www.inkscape.org/) -->
<svg id="svg4266" xmlns:rdf="http://www.w3.org/1999/02/22-rdf-syntax-ns#" xmlns="http://www.w3.org/2000/svg" version="1.1" xmlns:cc="http://creativecommons.org/ns#" xmlns:dc="http://purl.org/dc/elements/1.1/" viewBox="0 0 263.1211 462.55858">
 <g id="layer1" transform="translate(-248.44 -266.8)">
  <g id="g4183" transform="matrix(1.25 0 0 -1.25 712.84 654.97)">
   <path id="path4185" d="m-371.52 310.53v-32.567h10.023l32.256-86.217-13.681-62.609 26.314 30.519 27.08-68.194c-16.843-33.141-31.048-55.761-31.048-89.434 0-41.555 25.257-61.544 50.522-61.544 26.838 0 54.733 17.359 54.733 61.544 0 24.201-11.052 54.188-17.892 69.969h12.605c59.544 0 59.586 68.123 59.586 68.123s-9.5899-36.558-59.586-36.558h-20.502l70.062 174.4h10.025v32.567h-92.934c-2.464-6.261-4.4719-13.405-4.4719-20.073 0-10.721 14.405-10.189 17.87-27.847 3.458-17.629-12.68-104.16-15.848-119.11 0.221 1.974 7.3929 65.294 7.9859 78.312 0.491 10.72 0.29687 16.524 0.29687 22.198s-2.3459 6.3921-3.7969 6.3031c-1.462-0.09-3.1406-1.2558-3.4516-6.6188-0.317-5.357-5.1074-94.888-6.9984-100.24l-0.25625 100.56s0.4285 4.5835-3.5125 4.6875c-3.941-0.104-3.7828-4.6875-3.7828-4.6875l-0.25469-100.56c-1.892 5.356-6.6758 94.887-6.9938 100.24-0.317 5.363-1.9956 6.5288-3.4516 6.6188-1.457 0.089-3.7969-0.62912-3.7969-6.3031s-0.19937-11.478 0.29063-22.198c0.601-13.019 7.7665-76.338 7.9875-78.312-3.169 14.945-19.308 101.48-15.85 119.11 3.472 17.658 17.872 17.126 17.872 27.847 0 6.854-1.9321 13.929-4.3281 20.073h-93.072zm105.15-240.1c5.26-11.05 17.892-44.192 17.892-68.917 0-19.466-9.4774-28.937-18.948-28.937-10.002 0-19.998 9.9949-19.998 29.461 0 26.308 17.369 62.079 21.055 68.394z"/>
  </g>
 </g>
</svg>
