<?xml version="1.0" standalone="no"?>
<!DOCTYPE svg PUBLIC "-//W3C//DTD SVG 1.1//EN" "http://www.w3.org/Graphics/SVG/1.1/DTD/svg11.dtd" >
<svg xmlns="http://www.w3.org/2000/svg">
<metadata></metadata>
<defs>
<font id="gfs_didotbold" horiz-adv-x="333" >
<font-face units-per-em="1000" ascent="800" descent="-200" />
<missing-glyph horiz-adv-x="398" />
<glyph unicode="ff" horiz-adv-x="598" d="M23 0v32h59q19 0 22 23v349h-79v38h79v137q0 24 12 43.5t33 34t49.5 22t61.5 7.5q96 0 125 -45q39 64 142 64q130 0 135 -77q1 -32 -20 -45.5t-53 -12.5q-14 1 -25.5 13t-8.5 23q1 3 5 7.5t8.5 9.5t7 10.5t1.5 11.5q-6 29 -44 29t-38 -51v-181h116v-38h-118v-349 q5 -23 23 -23h55v-32h-548zM225 404v-349q5 -23 24 -23h101q19 0 22 23v349h-147zM372 564q-18 -13 -50 -11q-14 1 -26 12.5t-8 23.5q2 7 15 17q8 10 7 22q-6 28 -45 28t-39 -51v-163h146v122z" />
<glyph unicode="fi" horiz-adv-x="580" d="M341 405v-1h-117v-349q3 -23 23 -23h101q21 0 24 23v315q0 10 -4 17q-7 17 -27 18zM454 627q1 -33 -18.5 -48.5t-52.5 -14.5q-8 0 -15 4.5t-12 10.5t-7.5 13t-0.5 13q2 8 12 18t11 21q0 14 -15 21.5t-30 7.5q-101 0 -101 -109v-123h77l64 1q21 4 38.5 8t31.5 9h57v-404 q3 -23 22 -23h55v-32h-548v32h59q17 0 22 23v349h-79v37h79v97q0 61 44 107q55 60 169 60q135 0 138 -78z" />
<glyph unicode="fl" horiz-adv-x="603" d="M384 441v184q0 23 -21.5 37t-51.5 14q-31 0 -55.5 -14t-25.5 -40v-181h154zM362 32q19 0 24 23l-2 349h-155v-349q3 -23 23 -23h110zM584 0h-557v32h59q17 0 22 23v349h-79v37h79v154q0 24 12 44t33 35t49.5 23t61.5 8h243v-650q3 -23 22 -23h55v-32z" />
<glyph unicode="ffi" horiz-adv-x="857" d="M836 0h-816v32h59q17 0 22 23v350l-80 -1v37h80v137q0 24 12 44t33 34t49 22t60 8q104 0 135 -52q54 71 192 71q135 0 138 -78q1 -31 -18.5 -47.5t-53.5 -13.5q-7 0 -14 4t-12 10t-7.5 13t-0.5 12q1 8 11 18t10 21q2 14 -13 22t-30 8q-101 0 -101 -110v-123h77l64 1 q21 4 38 8t31 9h58v-404q3 -23 22 -23h55v-32zM368 441v122q-19 -13 -50 -11q-14 1 -26 13t-8 23q0 3 4 7.5t8.5 9t7 10.5t1.5 12q-5 28 -43 28q-39 0 -39 -51v-163h145zM638 371q-1 5 -2 8.5t-2 7.5q-7 16 -27 18v-1l-117 1v-350q3 -23 22 -23h102q20 0 23 23zM369 405 h-147v-350q3 -23 22 -23h101q20 0 23 23z" />
<glyph unicode="ffl" horiz-adv-x="881" d="M852 0h-826v32h59q19 0 22 23v349h-79v38h79v137q0 24 12 43.5t33 33.5t49.5 22t61.5 8q96 0 125 -45q13 24 43 40q45 25 100 25h243v-651q5 -23 23 -23h55v-32zM652 442v184q0 23 -22 37t-51 14q-32 0 -56 -14.5t-24 -40.5v-180h153zM375 442v122q-20 -14 -50 -11 q-15 1 -27 12.5t-8 23.5q1 3 5.5 7t9 9t7 10.5t1.5 11.5q-6 29 -45 29q-37 0 -37 -51v-163h144zM653 55l-1 349h-154v-349q3 -23 22 -23h111q19 0 22 23zM375 404h-146v-349q5 -23 23 -23h101q19 0 22 23v349z" />
<glyph unicode="&#xd;" horiz-adv-x="398" />
<glyph unicode=" "  horiz-adv-x="398" />
<glyph unicode="&#x09;" horiz-adv-x="398" />
<glyph unicode="&#xa0;" horiz-adv-x="398" />
<glyph unicode="!" horiz-adv-x="327" d="M247 623q0 -5 -0.5 -11t-1.5 -14q-1 -10 -1.5 -16.5t-0.5 -10.5l-60 -387h-40l-59 387q0 4 -0.5 10.5t-1.5 16.5q-1 8 -1.5 14t-0.5 11q0 29 20 55q24 30 63 30q42 0 66 -30q18 -24 18 -55zM237 53q0 -29 -21.5 -50t-50.5 -21q-30 0 -50 21t-20 50q0 28 20 49t50 21 q15 0 28 -5.5t22.5 -15.5t15.5 -22.5t6 -26.5z" />
<glyph unicode="&#x22;" horiz-adv-x="349" d="M313 661q0 -8 -2 -18l-32 -222h-51l-33 222q-1 5 -1 18q0 22 18 37t39 15q12 0 23 -4.5t19.5 -12t14 -17t5.5 -18.5zM144 661q0 -14 -1 -18l-32 -222h-52l-31 222q-2 8 -2 18q0 20 18.5 36t38.5 16q22 0 41.5 -16.5t19.5 -35.5z" />
<glyph unicode="#" horiz-adv-x="686" d="M679 466v-84h-160l-15 -107h144v-83h-158l-33 -192h-94l33 192h-139l-33 -192h-92l31 192h-158v83h172l16 107h-156v84h167l35 223h94l-37 -223h139l37 223h95l-37 -223h149zM426 382h-140l-16 -107h140z" />
<glyph unicode="$" horiz-adv-x="548" d="M291 667q25 2 50.5 -1.5t51.5 -10.5t32 10h27v-177h-36q-5 49 -18 77q-25 54 -107 54v-225l73 -20q61 -17 98 -60.5t40 -100.5q4 -112 -81 -176q-53 -39 -130 -50v-101h-48v98h-8q-105 0 -177 42v146h36q5 -34 19 -59.5t34 -43t44.5 -26t51.5 -8.5v234l-58 19 q-62 18 -98 59.5t-36 101.5q0 105 72 164q25 20 54.5 32.5t65.5 17.5v58h48v-54zM243 612q-39 -13 -59 -44.5t-20 -73.5q0 -15 6 -29.5t16.5 -26.5t25 -20t31.5 -11v205zM291 254v-213q43 11 69.5 41t26.5 78q0 66 -76 88z" />
<glyph unicode="%" horiz-adv-x="998" d="M253 680q52 0 87 -11t67 -25q29 -13 59 -22.5t71 -9.5q22 0 42 8.5t37 21.5t30.5 27.5t23.5 25.5q5 5 8 8.5t5 6.5h76l-442 -758h-89l362 613q-13 -5 -33.5 -10t-40.5 -5q-18 0 -43 5t-45 16q4 -12 6.5 -27t2.5 -29q0 -49 -16.5 -89.5t-45 -69.5t-67.5 -45t-85 -16 q-40 0 -73 14t-56.5 37.5t-36.5 55t-13 67.5q0 46 15 85t43 67t66 43.5t85 15.5zM245 619q-57 0 -90 -42t-33 -109q0 -51 30 -81.5t73 -30.5q28 0 52 11t42 31t28 48t10 63q0 46 -29.5 78t-82.5 32zM759 308q52 0 82 -32t30 -78q0 -35 -10 -63.5t-28 -48.5t-42.5 -31 t-52.5 -11q-43 0 -72.5 30.5t-29.5 81.5q0 68 33 110t90 42zM765 369q-46 0 -84.5 -15.5t-66 -43.5t-42.5 -67t-15 -85q0 -40 14.5 -72.5t39.5 -55t57.5 -35t67.5 -12.5q46 0 85 16t67.5 45t45 69.5t16.5 90.5q0 34 -12 64t-35 52.5t-57.5 35.5t-80.5 13z" />
<glyph unicode="&#x26;" horiz-adv-x="828" d="M802 90q-59 -50 -93 -99l-66 -4q-86 -6 -171 66q-88 -71 -198 -71q-97 0 -161 49q-71 54 -71 147q0 120 155 195q-34 77 -34 131q0 50 51 104l36 38q37 39 107 39q48 0 79 -28t31 -79q0 -60 -54 -114q-30 -30 -105 -79q86 -129 206 -227q33 46 33 90q0 42 -20 80h-90 q12 22 30 66l116 -4q38 -1 86.5 0t108.5 5l2 -9q-16 -34 -20 -68q-34 2 -69 3.5t-72 1.5q4 -15 4 -34q0 -77 -66 -156q70 -48 152 -48q20 0 63 26l16 12zM379 558q0 26 -15 45.5t-42 19.5q-68 0 -68 -80q0 -42 34 -117q91 58 91 132zM430 83q-132 114 -218 253 q-52 -46 -52 -105q0 -71 54 -125q55 -53 125 -53q53 0 91 30z" />
<glyph unicode="'" horiz-adv-x="295" d="M284 634q0 -51 -40 -82q-40 -32 -90 -31h-5l5 32q67 15 67 55q0 22 -20 22q-5 0 -17.5 -5t-19.5 -5q-43 0 -43 41q0 27 24 42q19 12 48 12q38 0 64.5 -22t26.5 -59z" />
<glyph unicode="(" d="M305 -80l-24 -24q-216 148 -216 410q0 258 214 417l26 -22q-67 -76 -91 -188q-16 -76 -16 -214q0 -128 16 -198q24 -102 91 -181z" />
<glyph unicode=")" d="M269 306q0 -260 -216 -410l-24 24q67 79 91 181q15 70 15 198q0 137 -15 214q-24 114 -91 188l25 22q215 -159 215 -417z" />
<glyph unicode="*" horiz-adv-x="403" d="M383 593q0 -27 -25 -40q-6 -2 -23.5 -7t-46.5 -12q-57 -13 -79 -21q21 -11 78 -24q59 -14 71 -19q25 -15 25 -39q0 -11 -9 -21q-11 -20 -35 -20q-13 0 -21 8q-14 6 -55 48q-23 23 -38 36.5t-22 18.5q2 -13 7 -33.5t13 -49.5q9 -29 14 -45.5t6 -21.5q0 -18 -13.5 -32.5 t-28.5 -14.5q-18 1 -30 15t-12 32q0 12 15 71q8 29 12.5 49t6.5 30q-15 -10 -60 -56q-41 -44 -53 -51q-11 -6 -21 -6q-26 0 -36 22q-8 10 -8 21q0 24 24 39q27 7 63.5 17t83.5 24q-10 5 -30 10t-50 12q-54 12 -67 20q-24 13 -24 40q0 16 14 28t30 12q11 0 21 -7 q12 -7 53 -51q43 -44 60 -54q-2 10 -6.5 29.5t-12.5 48.5q-15 58 -15 71q0 20 11 34t29 14q17 0 29 -14t12 -34q0 -9 -17 -69q-17 -59 -18 -80q7 5 21 18.5t35 36.5q45 46 57 53q8 5 18 5q18 0 32.5 -12t14.5 -29z" />
<glyph unicode="+" horiz-adv-x="585" d="M330 221v-221h-74v221h-205v65h205v199h74v-199h204v-65h-204z" />
<glyph unicode="," horiz-adv-x="266" d="M205 3q-3 -48 -37.5 -89.5t-85.5 -64.5l-18 26q79 51 85 94q4 30 -17 30q-5 0 -14.5 -4t-14.5 -4q-43 0 -43 43q0 27 19 43t43 16q38 0 61 -22q25 -25 22 -68z" />
<glyph unicode="-" horiz-adv-x="391" d="M341 233h-291v78h291v-78z" />
<glyph unicode="." horiz-adv-x="262" d="M202 53q0 -29 -21.5 -50t-50.5 -21q-30 0 -50 21t-20 50q0 28 20 49t50 21q15 0 28 -5.5t22.5 -15.5t15.5 -22.5t6 -26.5z" />
<glyph unicode="/" horiz-adv-x="270" d="M308 683l-252 -776h-79l251 776h80z" />
<glyph unicode="0" horiz-adv-x="617" d="M571 343q0 -131 -65 -237q-76 -121 -199 -121q-135 0 -204 119q-57 97 -57 241q0 137 61 240q72 120 202 120q138 0 207 -117q55 -97 55 -245zM433 345q0 98 -24 193q-33 137 -100 137q-66 0 -102 -140q-25 -99 -25 -195q0 -98 25 -191q36 -135 102 -135q57 0 95 140 q29 110 29 191z" />
<glyph unicode="1" horiz-adv-x="532" d="M454 0h-324v31h93v515l-95 -163h-40l170 307h103v-659h93v-31z" />
<glyph unicode="2" horiz-adv-x="613" d="M538 0h-458v16q312 264 312 518q0 139 -96 139q-41 0 -76 -25q-40 -28 -40 -68q0 -19 20 -41t20 -29q0 -49 -69 -49q-35 0 -58 17q-27 16 -27 51q0 77 87 130q75 45 158 45q94 0 159 -54q68 -57 68 -150q0 -88 -53 -164q-40 -53 -124 -120q-109 -87 -133 -112h204 q64 0 64 101h42v-205z" />
<glyph unicode="3" horiz-adv-x="611" d="M559 188q0 -101 -86 -157q-74 -47 -182 -47q-87 0 -150 27q-85 37 -85 114q0 38 24 60.5t61 22.5q25 0 47 -13q26 -14 26 -37q0 -9 -4 -18t-9 -18t-9 -18t-4 -16q0 -25 31 -50q31 -24 59 -24q67 0 106 65q31 53 31 126q0 90 -75 125q-52 22 -157 21v34h15q100 0 146 28 q61 36 61 131q0 54 -24 89q-26 42 -77 42q-29 0 -55 -20q-25 -19 -25 -47q0 -14 9.5 -28.5t9.5 -24.5q0 -20 -29 -34q-22 -8 -46 -8q-73 0 -73 61q0 67 85 104q64 27 143 27q94 0 147 -37q64 -43 64 -133q0 -72 -57 -118q-57 -47 -129 -48q85 0 145 -48q66 -51 66 -133z" />
<glyph unicode="4" horiz-adv-x="590" d="M542 0h-326v31h95v123h-252q0 39 201 491q27 60 70 60q50 0 50 -45q0 -28 -122 -219q-67 -104 -105 -165t-46 -80h204v159l137 35v-194h94v-42h-94v-123h94v-31z" />
<glyph unicode="5" horiz-adv-x="609" d="M548 235q0 -97 -71 -174q-70 -74 -168 -76q-107 2 -159 23q-84 33 -84 121q0 27 22.5 42.5t51.5 15.5q70 0 70 -56q0 -9 -5.5 -23.5t-5.5 -22.5q0 -34 25.5 -53t60.5 -19q66 0 98 78q22 54 22 133q0 76 -31 125q-36 59 -108 59q-71 0 -127 -89h-45l15 379l45 12 q72 -35 169 -35q100 0 149 37l22 -30q-84 -101 -220 -101q-61 0 -124 26l-8 -219q52 70 171 70q105 0 170 -59t65 -164z" />
<glyph unicode="6" horiz-adv-x="626" d="M577 224q0 -111 -72 -175q-73 -65 -181 -64q-137 -2 -206 90q-61 80 -61 224q0 151 73 269q86 137 228 137q58 0 114 -31q69 -36 69 -89q0 -76 -87 -76q-54 0 -54 36q0 9 8.5 24t8.5 30q0 28 -17 50.5t-43 22.5q-83 0 -129 -118q-41 -95 -36 -189v-3q17 32 72 53 q48 19 94 19q89 0 154 -60t65 -150zM438 195q0 74 -23 128q-31 70 -98 70q-63 0 -97 -73q-26 -57 -26 -126q0 -53 33 -113q37 -68 85 -67q66 -1 100 60q26 50 26 121z" />
<glyph unicode="7" horiz-adv-x="491" d="M461 646q0 5 -35 -100q-29 -83 -52 -155.5t-40 -136.5q-8 -38 -21 -94t-32 -130q-17 -45 -70 -45q-28 0 -46.5 14.5t-18.5 39.5q0 9 115 255q121 264 135 297h-258q-35 0 -45.5 -12.5t-13.5 -50.5h-27v162h409v-44z" />
<glyph unicode="8" horiz-adv-x="607" d="M562 188q0 -105 -75 -157q-64 -46 -172 -46q-120 0 -179 32q-78 43 -78 153q0 63 52 108q44 40 113 52q-60 22 -99 66q-46 49 -46 109q0 99 68 152q63 48 166 48q84 0 145 -43q70 -46 70 -128q0 -60 -45 -100q-41 -36 -100 -46q180 -62 180 -200zM422 547q0 54 -28 89 t-80 35q-27 0 -50 -8.5t-40 -24t-26.5 -37t-9.5 -47.5q0 -58 48 -94q2 -1 26 -14t72 -38q46 27 67 57.5t21 81.5zM447 150q0 73 -55 110q-29 13 -57 26l-56 26q-49 -22 -79 -66.5t-30 -96.5q0 -63 41 -96.5t104 -33.5q51 0 91 40q41 41 41 91z" />
<glyph unicode="9" horiz-adv-x="612" d="M567 391q0 -150 -74 -269q-86 -137 -227 -137q-55 0 -113 33q-69 37 -69 87q0 76 84 76q17 0 35 -8q23 -11 23 -27q0 -10 -7.5 -24.5t-7.5 -29.5q0 -28 15.5 -50.5t41.5 -22.5q82 0 129 129q38 106 34 201l-1 5q-32 -99 -139 -99q-109 0 -176 63q-66 63 -66 173 q0 98 79 159q70 55 173 55q137 0 206 -91q60 -80 60 -223zM425 494q0 53 -28 112q-35 72 -83 72q-65 0 -98 -65q-25 -50 -25 -123q0 -190 118 -190q62 0 93 70q23 55 23 124z" />
<glyph unicode=":" horiz-adv-x="245" d="M185 331q0 -25 -19 -43t-44 -18t-43.5 18t-18.5 43t18.5 43.5t43.5 18.5t44 -18.5t19 -43.5zM185 48q0 -25 -19 -43.5t-44 -18.5t-43.5 18.5t-18.5 43.5t18.5 43t43.5 18q12 0 23.5 -5t20.5 -13.5t14 -19.5t5 -23z" />
<glyph unicode=";" horiz-adv-x="286" d="M202 333q0 -12 -5 -23.5t-13.5 -20.5t-19 -14.5t-22.5 -5.5t-23.5 5.5t-20.5 14.5t-14.5 20.5t-5.5 23.5q0 23 20 40.5t44 17.5q12 0 22.5 -5t19 -13t13.5 -18.5t5 -21.5zM226 29q0 -58 -38 -108q-35 -44 -88 -70l-40 15q105 69 105 125q0 9 -5 17q-9 -4 -25 -8 q-24 0 -42 15t-18 38q0 13 6 26t16.5 22.5t24.5 15.5t30 6q31 0 52.5 -27.5t21.5 -66.5z" />
<glyph unicode="&#x3c;" horiz-adv-x="498" d="M438 -39l-309 312v50l309 306l-3 -126l-209 -205l209 -208z" />
<glyph unicode="=" horiz-adv-x="596" d="M56 313v65h484v-65h-484zM56 130v65h484v-65h-484z" />
<glyph unicode="&#x3e;" horiz-adv-x="498" d="M375 273l-306 -312v129l209 208l-209 205v126l306 -306v-50z" />
<glyph unicode="?" horiz-adv-x="464" d="M426 528q-1 -81 -103 -164q-24 -19 -40 -38.5t-26 -43t-15 -51t-6 -63.5h-38q-3 91 -3 87q0 69 28 118q5 11 18.5 31t34.5 51q28 40 35 68t7 52q0 91 -92 91q-48 0 -70 -25q-17 -18 -12 -41q1 -14 8 -24.5t7 -24.5q2 -35 -48 -41q-20 -4 -43 11q-33 19 -30 60q3 44 47 79 q52 38 141 40q87 1 142 -42q62 -49 58 -130zM283 43q0 -28 -19 -46t-45 -18q-28 0 -46.5 18t-18.5 46q0 26 19.5 44t45.5 18t45 -18t19 -44z" />
<glyph unicode="@" horiz-adv-x="748" d="M704 404q0 -111 -68 -185q-30 -31 -70 -55q-47 -26 -83 -26q-66 0 -70 81q-27 -37 -50 -55q-29 -21 -67 -21q-60 0 -93 38.5t-33 101.5q0 82 62 150t143 68q70 0 81 -68h2l15 60h95l-75 -274q-3 -14 -3 -24q0 -25 20 -25q39 0 89 69q54 73 54 164q0 86 -65 151 q-74 71 -190 71q-130 0 -215 -82t-85 -209q0 -132 91 -211q86 -79 220 -79q140 0 226 129h64q-44 -85 -125 -135q-81 -51 -176 -51q-150 0 -250 96q-105 97 -105 245t99 250q99 103 249 103q136 0 227 -85q86 -81 86 -192zM438 403q0 26 -10 45q-14 23 -37 23q-51 0 -91 -87 q-35 -76 -35 -134q0 -77 50 -77q49 0 91 90q32 72 32 140z" />
<glyph unicode="A" horiz-adv-x="798" d="M775 -3h-309v32h80l-67 197h-244l-36 -90q-19 -47 -19 -75q0 -11 5 -23q6 -9 64 -9v-32h-218v32q53 -2 73 11q25 16 55 96l217 572h88l235 -679h76v-32zM464 264l-100 294l-113 -294h213z" />
<glyph unicode="B" horiz-adv-x="761" d="M684 174q-2 -174 -237 -174h-395v31h95v628h-95v31h397q97 0 150.5 -46t53.5 -125q0 -33 -12 -61t-33 -49t-49.5 -35t-61.5 -20q69 -2 120 -41q69 -50 67 -139zM508 520q0 66 -40 105q-34 34 -85 34h-100v-294h86q49 0 88 33q51 42 51 122zM529 176q-2 88 -57 129 q-43 31 -102 31h-87v-305h95q46 0 87 25q65 40 64 120z" />
<glyph unicode="C" horiz-adv-x="629" d="M617 127q-36 -65 -99 -103q-75 -43 -168 -40q-129 6 -225 110q-94 104 -94 250q2 159 97 261q45 48 100.5 72t121.5 27q169 6 238 -66v-161h-38q-6 81 -52 133q-54 63 -148 61q-95 -5 -135 -97q-34 -77 -34 -233q0 -75 9.5 -129.5t27.5 -91.5q40 -80 135 -96 q7 -1 14.5 -1.5t16.5 -0.5q69 0 136 46q31 20 50.5 42.5t30.5 46.5z" />
<glyph unicode="D" horiz-adv-x="858" d="M795 369q0 -175 -127 -278q-118 -97 -289 -94q-159 3 -149 3h-114t-71 -1v37l38 2q35 2 42 16q5 12 5 75l-1 414q0 68 -7 81q-8 16 -40 17l-38 3v37l156 -3h45t75 1t79.5 1.5t57.5 0.5q338 0 338 -312zM645 350q0 151 -73 215q-72 66 -240 66q-34 0 -62 -3v-570 q14 -2 36 -3.5t51 -1.5q148 0 218 72.5t70 224.5z" />
<glyph unicode="E" horiz-adv-x="731" d="M693 240l-12 -240h-630v31h94v628h-94v31h614l2 -202h-42q-5 40 -16 70t-32 50.5t-54 31t-81 10.5l-160 3v-283h118q43 0 62 25q24 31 24 93h37v-279h-37q0 60 -25 91t-61 31h-118v-293l181 2q28 0 67 15q41 15 60 34q61 56 65 151h38z" />
<glyph unicode="F" horiz-adv-x="695" d="M660 488h-42q-5 40 -16 70t-32 50.5t-54 31t-81 10.5l-160 3v-283h118q43 0 62 25q24 31 24 93h37v-279h-37q0 60 -25 91t-61 31h-118v-300h94v-31h-325v31h94v628h-94v31h614z" />
<glyph unicode="G" horiz-adv-x="756" d="M707 238h-41v-193q-104 -43 -113 -44q-31 -8 -75 -12t-101 -4q-131 0 -225 106q-96 106 -95 252q1 160 96 261q92 97 224 98q166 6 238 -66v-160h-38q-7 86 -59 139q-54 56 -141 53q-95 -3 -136 -95q-33 -80 -33 -234q0 -157 33 -230q39 -89 137 -87q124 3 154 43v170 h-110v41h285v-38z" />
<glyph unicode="H" horiz-adv-x="775" d="M765 0h-325v31h94v315h-260v-315h94v-31h-324v31h93v628h-93v31h324v-31h-94v-278h260v278h-94v31h325v-31h-93v-628h93v-31z" />
<glyph unicode="I" horiz-adv-x="418" d="M373 0h-324v31h93v628h-93v31h324v-31h-92v-628h92v-31z" />
<glyph unicode="J" horiz-adv-x="346" d="M337 657h-96v-562q0 -151 -67 -241q-51 -61 -138 -69q-28 -1 -44 18.5t-16 45.5q0 45 43 55q18 2 45 -15q16 -10 25 -8q12 2 16 19q5 13 5 72v685h-96v33h323v-33z" />
<glyph unicode="K" horiz-adv-x="822" d="M794 0h-344v31q72 0 72 27q0 12 -11 31l-147 257l-103 -115v-200h94v-31h-324v31h93v628h-93v31h324v-31h-94v-365l266 294q19 20 19 37q0 10 -8 23q-7 13 -64 11v31h256v-31q-64 0 -86 -14q-27 -15 -82 -77l-101 -114l213 -366q7 -15 16.5 -31t25.5 -22q9 -4 78 -4v-31z " />
<glyph unicode="L" horiz-adv-x="729" d="M686 240l-12 -240h-630v31h94v628h-94v31h326v-31h-95v-621l181 2q28 0 67 15q41 15 60 34q61 56 65 151h38z" />
<glyph unicode="M" horiz-adv-x="961" d="M898 0h-325v31h95v592l-244 -612l-15 -1l-221 608v-500q0 -52 25 -77q10 -10 68 -10v-31h-223v31q54 0 65 9q28 25 28 78v520q-2 21 -30 21h-56v31h243l160 -467l190 467h240v-31h-94v-628h94v-31z" />
<glyph unicode="N" horiz-adv-x="741" d="M716 659q-58 0 -68 -10q-26 -26 -26 -76v-589h-25l-424 654v-520q0 -53 25 -77q10 -10 69 -10v-31h-225v31q55 0 66 9q28 25 28 78v520q-2 21 -30 21h-55v31h258l277 -426v309q0 51 -29 77q-11 9 -66 9v31h225v-31z" />
<glyph unicode="O" horiz-adv-x="747" d="M692 339q0 -149 -94 -252q-93 -103 -224 -103q-130 0 -226 107t-95 254q1 160 96 264q93 97 225 97q143 0 230 -101q88 -100 88 -266zM540 336q0 161 -30 238q-38 99 -136 99q-95 0 -136 -95q-34 -78 -34 -237t34 -231q40 -87 137 -87q93 0 133 88q32 75 32 225z" />
<glyph unicode="P" horiz-adv-x="643" d="M621 495q0 -99 -101 -152q-86 -44 -217 -44h-39v-268h94v-31h-325v31h95v628h-95v31h305q137 0 205 -39q78 -47 78 -156zM483 493q-3 88 -40 127t-118 39h-61v-331h41q74 0 123 35q56 45 55 130z" />
<glyph unicode="Q" horiz-adv-x="730" d="M372 -8q-127 0 -223 107q-92 106 -92 250q2 161 96 260q90 96 230 96q69 0 125 -25.5t98 -78.5q83 -101 83 -258q0 -117 -64 -211t-165 -127q51 1 100.5 -12.5t97.5 -61.5q12 -14 34 -14q20 0 40 11v-24q-7 -13 -17 -26q-27 -28 -65 -31q-80 -8 -149 66q-81 79 -129 79z M539 346q0 78 -8 135.5t-22 95.5q-38 94 -127 94q-102 0 -142 -90q-33 -77 -33 -232q0 -81 7 -138.5t24 -92.5q38 -89 145 -89q156 0 156 317z" />
<glyph unicode="R" horiz-adv-x="716" d="M708 0l-261 -1v33h29q13 3 13 11q0 6 -5 11q-39 48 -86.5 116t-103.5 158h-30v-296h93v-32h-324v32h94v627h-94v31h350q123 0 188 -50q61 -46 61 -127q0 -76 -65 -129q-54 -45 -119 -51l205 -279q14 -19 55 -24v-30zM502 514q-6 145 -130 145h-108v-302h87q33 0 61 11.5 t48 32t31 49.5t11 64z" />
<glyph unicode="S" horiz-adv-x="548" d="M527 225q4 -118 -88 -185q-80 -56 -205 -56q-114 0 -194 44v154h40q21 -144 164 -144q33 0 62 9t50 25.5t33 41t12 56.5q0 68 -83 92l-139 42q-67 20 -106.5 63.5t-39.5 106.5q0 112 79 173q71 54 184 57q27 2 55 -1.5t57 -11.5t35 11h29l1 -187h-41q-5 52 -19 81 q-28 57 -120 57q-66 0 -101.5 -37.5t-35.5 -93.5q0 -69 106 -97l114 -30q67 -17 107.5 -63t43.5 -107z" />
<glyph unicode="T" horiz-adv-x="719" d="M691 488h-42q-6 79 -46 120q-32 32 -137 43l-33 3v-623h95v-31h-325v31h93v623l-33 -3q-104 -11 -135 -43q-42 -42 -48 -120h-42l2 202h649z" />
<glyph unicode="U" horiz-adv-x="807" d="M783 659q-59 0 -69 -10q-25 -25 -25 -76v-298q0 -155 -62 -223q-61 -66 -204 -68q-125 0 -211 70q-87 70 -87 169v436h-92v31h323v-31h-93v-414q-2 -221 190 -219q195 0 195 237v310q0 53 -28 77q-11 9 -67 9v31h230v-31z" />
<glyph unicode="V" horiz-adv-x="769" d="M762 659q-54 2 -72 -11q-26 -17 -56 -95l-215 -569h-92l-233 675h-76v31h309v-31h-80l183 -529l164 423q20 51 20 75q0 13 -6 22t-64 9v31h218v-31z" />
<glyph unicode="W" horiz-adv-x="1039" d="M1047 659q-27 1 -44.5 -2.5t-29 -8.5t-17 -11.5t-8.5 -11.5q-17 -23 -30 -72l-149 -573h-62l-184 534l-219 -534h-40l-171 679h-75v31h307v-31h-77l114 -433l186 464h62l174 -485l91 346q10 36 10 68q0 25 -8 31q-14 9 -60 9v31h230v-31z" />
<glyph unicode="X" horiz-adv-x="809" d="M808 0h-340v31h82l-187 263q-23 -25 -64 -72.5t-101 -117.5q-23 -26 -23 -44q0 -9 8 -14q15 -12 28 -15h32v-31h-240v31q45 0 83 23q13 8 29.5 22t37.5 34l185 216l-242 333h-71v31h329v-31h-75q41 -57 81 -113t80 -113l136 155q27 25 27 45q0 7 -5 12q-15 11 -28 14h-36 v31h234v-31q-52 0 -80 -16q-25 -14 -67 -59l-157 -184l274 -369h70v-31z" />
<glyph unicode="Y" horiz-adv-x="730" d="M713 690v-37q-59 1 -73 -13q-22 -20 -49 -81l-146 -283v-243h92v-33h-322v30l92 1v242l-220 386h-78l2 31h305v-31h-75q48 -85 94 -168t92 -167l110 224q3 3 15 30q14 33 14 50q0 7 -5 12q-13 14 -18 16q-11 4 -51 3l1 31h220z" />
<glyph unicode="Z" horiz-adv-x="710" d="M678 240l-13 -240l-630 1l420 653l-170 -3q-108 -1 -140 -40q-26 -32 -32 -67q-2 -14 -3 -28l-2 -28h-44l2 201l568 1l-415 -652l226 2q28 0 66 15q40 15 60 34q57 53 62 151h45z" />
<glyph unicode="[" horiz-adv-x="387" d="M351 -194h-260v860h260v-37h-140v-787h140v-36z" />
<glyph unicode="\" horiz-adv-x="631" d="M540 0h-90l-371 720h90z" />
<glyph unicode="]" horiz-adv-x="387" d="M298 -194h-260v36h140v787h-140v37h260v-860z" />
<glyph unicode="^" horiz-adv-x="500" d="M450 244h-62l-138 311l-137 -311h-64l177 382h48z" />
<glyph unicode="_" horiz-adv-x="498" d="M498 -235h-498v57h498v-57z" />
<glyph unicode="`" horiz-adv-x="170" d="M173 535h-47l-118 120q-16 15 -16 36q0 24 23 32q18 7 31 7q31 0 50 -40z" />
<glyph unicode="a" horiz-adv-x="515" d="M495 0h-204v81q-58 -65 -61 -65q-32 -27 -79 -27q-51 0 -85 29q-34 31 -34 90q0 75 61 115q44 27 127 42l71 16q3 144 -57 146q-61 3 -63 -53q-1 -6 1.5 -11.5t6 -10t7 -8.5t3.5 -7q6 -18 -23 -29q-13 -5 -24 -5q-26 0 -44 16t-18 42q2 60 68 89q45 21 97 21 q96 0 131 -44q34 -42 36 -166v-194q1 -34 36 -34h47v-33zM291 122v112q-14 -3 -36.5 -10t-53.5 -18q-44 -20 -46 -66q-5 -69 54 -69q20 0 42.5 14t39.5 37z" />
<glyph unicode="b" horiz-adv-x="584" d="M542 291q0 -119 -77 -208q-83 -96 -206 -99q-71 -2 -138 38l-26 -22h-28v638q-1 34 -34 34h-48v33h207v-315q47 89 167 90q81 0 131 -54q52 -55 52 -135zM414 232q0 66 -29 109q-33 48 -98 48q-67 0 -95 -51v-228q38 -62 103 -56q119 12 119 178z" />
<glyph unicode="c" horiz-adv-x="432" d="M149 258q0 -86 36 -140q42 -63 123 -63q40 0 82 19l12 -21q-47 -68 -153 -68q-112 0 -169 67q-53 59 -53 167q-1 111 83 183q73 62 162 65q51 3 83.5 -17t35.5 -58q1 -31 -20.5 -45t-51.5 -12q-7 1 -14.5 4.5t-13 8.5t-8.5 11t-1 12q1 3 5.5 7.5t8.5 9t7 10t2 11.5 q-5 18 -33 18q-43 -3 -78 -41q-45 -48 -45 -128z" />
<glyph unicode="d" horiz-adv-x="622" d="M390 84q-54 -101 -156 -93q-91 6 -140 71q-46 58 -45 146q1 112 70 188q67 76 171 76q20 0 39.5 -5t40.5 -13l20 -7v178q-2 34 -34 34h-47v32h202v-633q4 -22 23 -22h54v-33h-198v81zM390 163v182q-44 63 -110 63q-115 0 -106 -157q11 -170 114 -170q19 0 37.5 6t32.5 17 t23 26t9 33z" />
<glyph unicode="e" horiz-adv-x="478" d="M445 227q0 2 -294 2q0 -75 41 -122q43 -52 120 -52q48 0 107 36l12 -16q-72 -89 -182 -90q-108 0 -166.5 60.5t-58.5 169.5q0 54 14 98t40 79q61 79 168 79q112 -2 158 -70q17 -26 27 -69t14 -105zM318 277q0 139 -85 139q-86 0 -86 -139q52 -2 171 0z" />
<glyph unicode="f" horiz-adv-x="378" d="M389 628q1 -31 -20 -45t-51 -13q-15 1 -27 13.5t-8 23.5q2 7 15 17q9 9 7 21q-6 29 -45 29t-39 -51v-181h117v-38h-118v-349q5 -23 24 -23h54v-32h-276v32h59q19 0 22 23v349h-79v38h79v155q0 24 11.5 43.5t31.5 34t48 22.5t61 8q129 0 134 -77z" />
<glyph unicode="g" horiz-adv-x="552" d="M339 298q0 123 -82 123q-81 0 -81 -107q0 -122 83 -122q80 0 80 106zM429 -123q0 47 -42 70q-22 9 -69 17q-20 4 -53 6.5t-79 4.5q-23 -8 -41 -30t-18 -54q0 -56 51 -84q20 -10 45.5 -15.5t56.5 -5.5q149 0 149 91zM272 471h3l250 -1l-22 -61l-102 17q29 -16 45 -43.5 t17 -68.5q1 -75 -69 -126q-62 -42 -145 -42q-11 0 -22 0.5t-22 1.5q-29 -17 -29 -39q0 -26 46 -30q29 -2 73.5 -5t105.5 -8q139 -10 139 -127q0 -111 -91 -160q-36 -22 -86 -32.5t-113 -10.5q-88 0 -143 30q-72 37 -74 117q-1 73 106 105q-67 15 -67 62q0 71 87 106 q-48 12 -76.5 49t-28.5 85q0 81 66 136q57 45 152 45z" />
<glyph unicode="h" horiz-adv-x="623" d="M291 0h-272v33h57q11 0 18 6t7 17v582q-3 34 -35 34h-48v33h207v-318l1 2q8 25 42 49q51 37 116 33q38 -3 65.5 -12.5t44.5 -27.5q37 -40 37 -148l2 -227q0 -11 6.5 -17t15.5 -6h55v-33h-272v33h45q9 0 17 5.5t8 17.5v209q0 34 -7 57.5t-19 37t-27.5 19.5t-31.5 6 q-66 0 -97 -70q-1 3 -1 -40.5v-143.5v-75q0 -11 6.5 -17t16.5 -6h43v-33z" />
<glyph unicode="i" horiz-adv-x="320" d="M241 628q0 -15 -6 -28t-16 -23t-24 -16t-29 -6t-28.5 6t-24 16t-16.5 23t-6 28q0 33 22 54.5t53 21.5q33 0 54 -21.5t21 -54.5zM307 0h-279v32h58q18 0 23 23v337q-1 35 -34 35h-47v32h202v-404q3 -23 23 -23h54v-32z" />
<glyph unicode="j" horiz-adv-x="237" d="M199 630q0 -29 -22.5 -50.5t-52.5 -21.5q-29 0 -51.5 21.5t-22.5 50.5q0 33 21 54.5t53 21.5q31 0 53 -21.5t22 -54.5zM201 102q0 -56 -2.5 -97t-7.5 -69q-10 -69 -46 -119q-63 -82 -156 -85v27q34 10 50 26t27 51q14 50 14 132v425q-1 34 -33 34h-47v32h200v-62z" />
<glyph unicode="k" horiz-adv-x="630" d="M301 0h-279v32h59q19 0 22 23v69l-1 501q-2 33 -34 33h-47v33h203v-442q16 12 38 31.5t50 46.5q29 27 49.5 46t34.5 30q9 9 9 16q0 9 -16 9h-58v31h242v-31l-46 -1q-35 -2 -82 -52l-98 -93q33 -35 64.5 -70.5t63.5 -70.5q99 -107 112 -107h35v-33h-280v33q16 -3 25 0 q20 1 20 15q0 7 -8 17l-155 168v-179q3 -23 22 -23h55v-32z" />
<glyph unicode="l" horiz-adv-x="320" d="M307 0h-279v32h59q17 0 22 23v69l-1 500q-3 34 -34 34h-47v32h203v-635q5 -23 22 -23h55v-32z" />
<glyph unicode="m" horiz-adv-x="916" d="M886 0h-268v33h46q19 0 22 22l-1 213q0 66 -25 94q-25 23 -64 23q-15 0 -28.5 -6.5t-24.5 -16.5t-17.5 -22t-6.5 -23l-2 -262q4 -22 23 -22h42v-33h-255v33h46q19 0 23 22v213q0 67 -27 94q-23 23 -62 23q-15 0 -29 -6.5t-25 -16.5t-17.5 -22t-6.5 -23l-1 -262 q3 -22 22 -22h43v-33h-268v33h59q19 0 22 22v338q-1 34 -35 34h-46v33h204v-70q10 16 24 30t34 25q46 26 98 26q98 0 127 -81q49 81 157 81q39 0 65.5 -10t43 -32t23.5 -57.5t7 -85.5v-231q3 -22 22 -22h56v-33z" />
<glyph unicode="n" horiz-adv-x="618" d="M516 286l2 -231q3 -23 23 -23h54v-32h-267v32h46q18 0 23 23q-1 32 -1 85.5v128.5q0 66 -27 93q-11 11 -29.5 17.5t-44.5 4.5t-45 -17.5t-32 -49.5l-1 -262q5 -23 23 -23h42v-32h-267v32h59q19 0 22 23v70v86.5t-1 179.5q-1 35 -34 35h-47v33h203v-70q47 83 155 81 q71 -2 107 -40q37 -37 37 -144z" />
<glyph unicode="o" horiz-adv-x="539" d="M509 239q0 -123 -64 -188.5t-188 -65.5q-112 0 -170 68q-53 63 -53 173q0 118 62.5 181.5t181.5 63.5q113 0 172 -60t59 -172zM373 198q0 225 -104 225q-99 0 -99 -173q0 -217 109 -217q94 0 94 165z" />
<glyph unicode="p" horiz-adv-x="598" d="M210 331v-224q36 -54 102 -54q61 0 92 59q24 46 24 116q0 64 -29 107q-33 46 -95 46q-65 0 -94 -50zM287 -255h-278v32h58q20 0 23 23l-1 593q-1 33 -34 33h-47v32h202v-74q59 87 165 86q34 -1 64 -12t53 -34q53 -50 62 -138q9 -125 -65 -212q-72 -91 -190 -89 q-15 1 -37.5 5t-51.5 12v-202q5 -23 23 -23h54v-32z" />
<glyph unicode="q" horiz-adv-x="581" d="M375 347q-35 55 -100 55q-63 0 -93 -59q-25 -48 -25 -115q0 -33 7.5 -59.5t21.5 -47.5q33 -47 96 -47q66 0 93 49h1zM299 -257v32h55q19 0 22 24v259q-32 -35 -73 -54.5t-92 -18.5q-71 2 -118 46q-54 51 -60 138q-10 121 63 208q73 88 192 93q32 1 67.5 -9t73.5 -32 l40 29h29l-1 -659q4 -24 23 -24h58v-32h-279z" />
<glyph unicode="r" horiz-adv-x="456" d="M305 0h-278v32h57q19 0 24 23v336q-1 35 -34 35h-47v32h201v-90q65 103 138 104q37 1 56.5 -20.5t19.5 -51.5q0 -26 -16.5 -48.5t-45.5 -27.5q-21 45 -67 44q-41 -1 -85 -82v-231q5 -23 23 -23h54v-32z" />
<glyph unicode="s" horiz-adv-x="429" d="M406 143q0 -40 -16.5 -71.5t-51.5 -52.5q-53 -34 -123 -34q-20 0 -36.5 3t-43.5 10q-20 6 -31 11t-15 9v-18h-41v164h38q3 -50 37 -88q33 -42 85 -42q19 0 35 4t28 12t18.5 19.5t5.5 26.5q-2 54 -62 78l-87 31q-51 19 -78 46.5t-28 65.5q-1 78 57 120q53 34 145 34 q53 0 81 -22v20h40l2 -140h-44q0 31 -15 57q-22 36 -70 39q-42 3 -68 -15t-26 -49q0 -23 12.5 -34t42.5 -22l82 -32q127 -45 127 -130z" />
<glyph unicode="t" horiz-adv-x="335" d="M321 58q-22 -35 -50.5 -53.5t-63.5 -19.5q-57 -1 -85 21q-37 40 -37 138v220h-64v30q113 16 113 141h73v-106l104 -1v-64h-104v-223q0 -76 60 -76q21 0 46 11z" />
<glyph unicode="u" horiz-adv-x="626" d="M596 0h-203v67q-51 -83 -152 -82q-35 0 -62 9.5t-45.5 31t-28 57t-9.5 88.5l-1 232q-3 24 -23 24h-55v31h200v-271q0 -67 27 -91q23 -23 71 -24q24 0 48 26q20 20 30 43v262q-5 24 -24 24h-42v31l187 1v-392q3 -35 35 -35h47v-32z" />
<glyph unicode="v" horiz-adv-x="569" d="M319 0h-86l-161 409q-16 21 -35 21h-31v29h279v-29q-24 0 -38 0.5t-21.5 -0.5t-10 -5t-2.5 -13q0 -6 2 -10q-2 3 23 -63.5t76 -206.5q18 40 46.5 104t66.5 153q7 14 7 24q0 17 -17 17h-50v29h199v-29h-26q-29 0 -46 -41q-29 -66 -72.5 -162t-102.5 -227z" />
<glyph unicode="w" horiz-adv-x="842" d="M823 426h-26q-37 0 -46 -38q-129 -388 -130 -388h-86l-127 304q-136 -304 -137 -304h-81l-116 407q-15 19 -34 19h-32v33h280v-33h-46q-30 0 -25 -25l59 -249q18 41 53 119t89 198h52l137 -314l76 233q3 9 5 15.5t2 8.5q0 14 -17 14h-49v33h199v-33z" />
<glyph unicode="x" horiz-adv-x="528" d="M518 0h-263v30q29 0 41 2.5t12 16.5q0 4 -1.5 7.5t-3.5 8.5l-60 101l-67 -93q-13 -17 -13 -31q0 -12 17 -12h28v-30h-189v30h25q28 0 63 43l107 137l-107 183q-26 36 -61 36h-16v30h248v-30q-29 0 -37 0.5t-8 -10.5q0 -8 10 -26l52 -86l53 73q16 23 16 37q0 12 -15 12 h-29v30h181v-30h-23q-21 0 -61 -49l-94 -116l120 -197q14 -23 28.5 -30t25.5 -7h21v-30z" />
<glyph unicode="y" horiz-adv-x="575" d="M567 428h-26q-30 0 -46 -41l-170 -387q-16 -38 -28 -65t-20 -41q-20 -41 -36 -66.5t-29 -38.5q-48 -43 -106 -43q-21 0 -38 10q-23 11 -23 36q0 8 3 17q9 25 62 25q5 0 19 -4.5t22 -4.5q9 0 13 4q54 31 89 146l-174 433q-15 20 -34 20h-31v30h278v-30q-24 0 -38 0.5 t-21.5 -0.5t-10 -4.5t-2.5 -12.5q0 -7 1 -10q-1 2 24 -64t76 -206q17 40 44 104t63 152q7 14 7 25q0 16 -17 16h-49v30h198v-30z" />
<glyph unicode="z" horiz-adv-x="479" d="M454 424l-268 -370h150q19 0 31 3t19.5 10.5t12 21t7.5 34.5l5 31h40l2 -154h-437v29q18 23 43.5 56.5t60.5 79.5l170 239h-118q-23 0 -36.5 -1.5t-22 -6.5t-12 -15t-5.5 -27l-2 -25h-39v130h399v-35z" />
<glyph unicode="{" horiz-adv-x="562" d="M418 -171q-114 -4 -158 26q-46 31 -46 127v167q0 55 -19 80q-21 27 -80 40q59 14 80 41q19 23 19 76v183q0 88 52 119q45 26 152 25q-62 -12 -88 -44q-22 -28 -22 -85v-181q0 -60 -19 -88q-22 -34 -86 -46q65 -15 88 -50q17 -29 17 -93v-171q0 -109 110 -126z" />
<glyph unicode="|" horiz-adv-x="255" d="M165 0h-75v705h75v-705z" />
<glyph unicode="}" horiz-adv-x="559" d="M444 269q-62 -14 -82 -41q-17 -23 -17 -79v-167q0 -93 -44 -125q-45 -32 -157 -28q107 17 107 126v171q0 64 18 93q23 35 87 50q-64 12 -86 46q-19 28 -19 88v181q0 57 -23 87t-84 42q105 1 150 -25q51 -32 51 -119v-183q0 -53 19 -76q21 -27 80 -41z" />
<glyph unicode="~" horiz-adv-x="641" d="M589 320q-61 -112 -147 -112q-43 0 -119 36q-77 36 -113 36q-38 0 -68 -32q-8 -9 -19 -25t-24 -39l-47 77q64 120 147 120q41 0 122 -37q82 -36 113 -36q62 0 105 82z" />
<glyph unicode="&#xa1;" horiz-adv-x="327" d="M236 638q0 -28 -20.5 -48.5t-50.5 -20.5q-29 0 -49.5 20.5t-20.5 48.5q0 30 20.5 50t49.5 20q30 0 50.5 -20t20.5 -50zM247 68q0 -32 -19 -54q-23 -30 -65 -30q-38 0 -62 30q-21 25 -21 54q0 10 1.5 28t3.5 24l58 388h40l60 -388q0 -6 2 -24t2 -28z" />
<glyph unicode="&#xa2;" horiz-adv-x="419" d="M377 480q10 -10 10 -24q0 -13 -9.5 -24.5t-22.5 -11.5q-29 0 -39 31q-4 13 -23 22l-38 -323h2q47 -1 96 31q13 8 20 8q13 0 13 -11q0 -9 -10 -18q-49 -43 -125 -45l-1 -14l-14 -101q-32 -5 -33 0l15 118q-74 11 -120 64t-46 133q0 83 59 140q58 58 140 58h15v10l10 85 q16 1 34 0l-12 -98q58 -9 79 -30zM262 485h-10q-51 -1 -86 -51q-34 -49 -33 -118q2 -132 90 -157z" />
<glyph unicode="&#xa3;" horiz-adv-x="615" d="M577 141q0 -130 -74 -151q-30 -8 -60 -8q-44 0 -126 21q-54 13 -96.5 19.5t-73.5 8.5q-12 -23 -40 -45q-17 -12 -38 -12q-34 0 -34 35q0 15 13.5 28t48.5 31q23 23 33 67q10 43 13 145l1 25h-58t-34 -1v44q0 -2 35 -2q23 1 37 1.5t19 0.5v103q0 135 70 199q64 60 172 58 q32 -2 59 -8t47 -16t31 -23.5t11 -30.5q0 -15 -6 -27.5t-15.5 -22t-21 -15t-23.5 -5.5q-7 0 -10 1q-54 14 -50 45q0 4 4 7.5t8 8t7 9.5t3 12q-1 11 -15.5 20.5t-35.5 9.5q-12 0 -23 -4q-38 -11 -57 -51q-26 -60 -26 -133q0 -31 3 -56v-79h141t36 -1v-45q-15 1 -43.5 1h-70.5 h-68q-3 -93 -105 -236q35 5 63 7.5t49 2.5q139 0 201 -3q41 -1 73 29t26 36z" />
<glyph unicode="&#xa4;" horiz-adv-x="500" d="M466 326q0 -77 -46 -132l45 -45q1 -2 -22 -24q-23 -20 -27 -24l-41 52q-55 -40 -125 -40t-125 40l-41 -52q-7 6 -13 12t-12 11q-25 22 -24 25l45 45q-46 55 -46 132q0 78 46 133l-45 45q1 1 7 6.5l18 16.5q25 22 24 24l41 -51q53 38 125 40q67 1 125 -40l41 51 q-1 -1 24 -26q7 -5 13 -10.5t12 -10.5l-45 -45q46 -55 46 -133zM410 325q0 68 -48 118t-111 50q-65 0 -112 -50q-46 -49 -46 -118t47 -119q48 -48 111 -48q64 0 111 48q48 49 48 119z" />
<glyph unicode="&#xa5;" horiz-adv-x="696" d="M696 690v-37q-59 1 -73 -13q-22 -20 -49 -81l-125 -244h99v-34h-118l-2 -5v-65h117v-33h-117v-145h92v-33h-322v30l92 1v147h-122v33h122v62l-5 8h-115v34h95l-195 344h-78l2 31h305v-31h-75q48 -85 94 -168t92 -167l110 224q3 3 15 30q14 33 14 50q0 7 -5 12 q-13 14 -18 16q-11 4 -51 3l1 31h220z" />
<glyph unicode="&#xa6;" horiz-adv-x="217" d="M138 343h-59v257h59v-257zM138 -14h-59v257h59v-257z" />
<glyph unicode="&#xa7;" horiz-adv-x="500" d="M471 265q0 -48 -17 -84q-15 -27 -54 -66q55 -37 55 -111q0 -90 -86 -162q-71 -60 -161 -60q-95 0 -159 45q2 12 5.5 50.5t8.5 104.5h40q-2 -23 0 -43.5t7 -39.5q43 -55 133 -55q50 0 91 33t41 70q0 48 -47 77q-11 7 -33 15.5t-55 19.5l-61 20q-68 23 -103 50 q-46 37 -46 100q0 40 14 70q12 23 45 55l19 19q-47 36 -47 100q0 40 23 88q21 44 52 75q26 26 73 43q41 16 82 16q67 0 133 -32q-5 -25 -9.5 -61.5t-6.5 -86.5h-39q2 51 -6 80q-12 15 -47 24q-27 7 -53 7q-51 0 -88 -22q-44 -26 -44 -71q0 -43 44 -69q11 -7 32 -15t51 -16 l52 -17q40 -11 64.5 -20.5t35.5 -16.5q61 -37 61 -114zM398 198q0 44 -38 73q-22 17 -77 37l-144 47q-35 -40 -35 -74q0 -45 67 -73q11 -5 27 -12t37 -16l133 -49q30 34 30 67z" />
<glyph unicode="&#xa8;" horiz-adv-x="723" d="M541 603q0 -28 -19 -47.5t-47 -19.5q-29 0 -48 19.5t-19 47.5t19 47.5t48 19.5q28 0 47 -19.5t19 -47.5zM326 603q0 -28 -19 -47.5t-47 -19.5q-29 0 -48 19.5t-19 47.5t19 47.5t48 19.5q28 0 47 -19.5t19 -47.5z" />
<glyph unicode="&#xa9;" horiz-adv-x="735" d="M368 -17q-148 0 -252 104t-104 252t104 252t252 104q147 0 251 -104t104 -252t-104 -252t-251 -104zM368 22q131 0 223 93q92 91 92 224q0 132 -92 223q-92 93 -223 93q-133 0 -224 -92q-92 -92 -92 -224t92 -224q91 -93 224 -93zM528 231q-11 -27 -23 -40 q-24 -24 -60 -39t-80 -15q-95 0 -147 72q-40 53 -40 124q0 61 27 112q29 51 73 75q46 24 104 24q18 0 38 -3q4 -1 19 -4t41 -11q12 -3 21 -6t16 -5v-106h-33q-5 17 -9 29.5t-7 19.5q-12 21 -33 36q-22 14 -51 14q-48 0 -84 -41q-35 -43 -35 -116q0 -54 21 -96q20 -42 49 -60 q28 -18 62 -18q24 0 42 7q20 8 32 18q12 12 31 41z" />
<glyph unicode="&#xaa;" d="M249 261q-53 -2 -56 44q-42 -44 -100 -44q-14 0 -24 3q-46 10 -43 64q3 51 63 76q42 19 105 22q2 42 -4 67q-9 41 -39 41q-40 -1 -55 -41q-8 -18 -25 -18q-8 0 -12 4q-18 13 0 39q30 38 91 38q49 0 68 -16q28 -25 28 -94q0 -6 -0.5 -18t-1 -28.5t-1 -36t-0.5 -39.5 q0 -28 21 -28q20 0 30 25q1 9 9 9q6 0 6 -10q0 -22 -19 -39.5t-41 -19.5zM194 345v56q-20 -2 -36 -3q-40 -7 -61.5 -25t-21.5 -44q0 -38 40 -38q5 0 9.5 0.5t9.5 1.5q32 8 60 52z" />
<glyph unicode="&#xab;" horiz-adv-x="430" d="M381 80l-38 -7l-169 152q49 40 169 154l38 -8q-20 -29 -45.5 -65t-57.5 -81q10 -13 35.5 -49t67.5 -96zM221 80l-38 -7l-168 152q25 20 66.5 58.5t101.5 95.5l38 -8q-20 -29 -45.5 -65t-57.5 -81q20 -24 103 -145z" />
<glyph unicode="&#xac;" horiz-adv-x="506" d="M404 193h-375v74h448v-223h-73v149z" />
<glyph unicode="&#xae;" horiz-adv-x="735" d="M361 162h-158v20h7q10 -1 16.5 0t11.5 3q5 3 6 7q3 6 3 23v276q0 24 -3 30q-5 7 -12 8q-3 1 -29 1v22h174q55 0 81 -13q27 -12 40 -37q13 -26 13 -49t-12 -45q-13 -23 -32 -34q-22 -13 -56 -22q8 -3 14 -6l10 -5q9 -6 19 -19q6 -7 10.5 -13.5t9.5 -14.5q2 -3 16 -31 q26 -58 41 -73q8 -8 24 -8v-20h-59q-27 0 -37 9q-5 5 -15.5 25t-26.5 56q-10 23 -17 38t-11 23q-10 15 -19 20q-8 5 -30 5h-9t-14 -1v-117q0 -21 5 -29q3 -5 9 -6q6 -2 30 -3v-20zM317 505v-140q9 -1 15.5 -1.5t11.5 -0.5q56 0 76 25q19 25 19 61t-21 59q-21 21 -55 21 q-14 0 -32 -3q-6 0 -9 -5q-5 -8 -5 -16zM368 -17q-148 0 -252 104t-104 252t104 252t252 104q147 0 251 -104t104 -252t-104 -252t-251 -104zM368 22q131 0 223 93q92 91 92 224q0 132 -92 223q-92 93 -223 93q-133 0 -224 -92q-92 -92 -92 -224t92 -224q91 -93 224 -93z " />
<glyph unicode="&#xaf;" d="M324 535h-308v66h308v-66z" />
<glyph unicode="&#xb0;" horiz-adv-x="348" d="M308 511q0 -60 -38.5 -94t-95.5 -34q-28 0 -52.5 8.5t-42.5 25t-28.5 40.5t-10.5 54q0 58 39 93q39 36 95 36t95 -36q39 -35 39 -93zM253 511q0 42 -22.5 68t-56.5 26t-56 -26t-22 -68t22 -67.5t56 -25.5t56.5 25.5t22.5 67.5z" />
<glyph unicode="&#xb1;" horiz-adv-x="585" d="M330 304v-193h-74v193h-205v65h205v181h74v-181h204v-65h-204zM51 0v65h483v-65h-483z" />
<glyph unicode="&#xb2;" horiz-adv-x="311" d="M266 446h-229v8q156 132 156 259q0 70 -48 70q-21 0 -38 -13q-20 -14 -20 -34q0 -10 10 -20.5t10 -14.5q0 -24 -35 -24q-16 0 -29 8q-13 9 -13 26q0 38 43 65q37 22 79 22q47 0 80 -27q34 -28 34 -75q0 -45 -27 -82q-10 -13 -25 -28t-37 -32q-27 -22 -43.5 -35.5 t-22.5 -20.5h102q32 0 32 51h21v-103z" />
<glyph unicode="&#xb3;" horiz-adv-x="343" d="M295 539q0 -51 -43 -78q-38 -24 -91 -24q-42 0 -75 14q-42 19 -42 57q0 19 12 30t30 11q13 0 24 -6q13 -7 13 -19q0 -8 -6.5 -17.5t-6.5 -17.5q0 -6 4.5 -12.5t11 -12t14.5 -9t15 -3.5q33 0 53 33q15 27 15 63q0 46 -37 62q-27 12 -79 11v17h8q50 0 73 14q30 18 30 65 q0 27 -12 45q-14 21 -38 21q-15 0 -27.5 -10t-12.5 -24q0 -7 4.5 -14t4.5 -12q0 -11 -14 -17q-9 -4 -23 -4q-37 0 -37 30q0 34 43 52q33 14 71 14q48 0 74 -19q32 -23 32 -66q0 -18 -8 -33t-20.5 -26t-29.5 -17.5t-35 -6.5q42 0 72 -24q33 -26 33 -67z" />
<glyph unicode="&#xb4;" d="M424 675q0 -30 -19 -40l-165 -101h-54l128 147q32 38 66 38q19 0 31.5 -13t12.5 -31z" />
<glyph unicode="&#xb5;" horiz-adv-x="636" d="M596 111q3 -40 -20 -81q-26 -48 -65 -48q-37 0 -60 41q-18 30 -23 75q-23 -39 -64 -74q-47 -39 -86 -39q-117 0 -169 124q9 -84 12 -100q10 -58 31 -95q8 -12 17 -24t18 -25q21 -32 21 -53q0 -17 -26 -34q-25 -16 -45 -16q-52 0 -69 53q-9 27 -9 96q0 43 9 129 q5 43 7.5 75.5t2.5 54.5q0 17 -1.5 42t-5.5 58t-5.5 57.5t-1.5 41.5q0 50 10 69q15 27 58 27q70 0 70 -51q0 -35 -17 -114q-16 -74 -16 -116q0 -161 102 -161q77 0 92 115q2 54 5 106.5t5 106.5q10 115 78 115q37 0 51 -20q10 -13 10 -52q0 -115 -63 -259q11 -41 64 -41 q51 0 80 45z" />
<glyph unicode="&#xb6;" horiz-adv-x="615" d="M566 648h-77q-5 -22 -5 -85l-1 -591q0 -13 1.5 -31l3.5 -42h76v-27h-371v27h76q2 25 3.5 43.5t1.5 29.5l1 366q-81 0 -154 50q-83 56 -83 143q0 67 48 108q53 46 150 41q49 -2 91.5 -3.5t80.5 -1.5q43 0 82 1t76 3v-31zM275 375v266q-45 7 -84 -22q-45 -36 -45 -108 q0 -26 10 -48.5t27.5 -40.5t41 -30.5t50.5 -16.5zM413 -28v669h-68l-1 -669q0 -11 1.5 -29.5t3.5 -43.5h59q2 25 3.5 43.5t1.5 29.5z" />
<glyph unicode="&#xb7;" horiz-adv-x="250" d="M125 358q24 0 41 -17t17 -42q0 -24 -17 -41t-41 -17t-41.5 17t-17.5 41q0 25 17 42t42 17z" />
<glyph unicode="&#xb8;" d="M300 -140q0 -46 -50 -69q-35 -16 -89 -16q-40 0 -88 17l16 38q40 -9 66 -9q51 0 51 36q0 35 -41 35q-16 0 -32 -3l-10 8l42 95h41l-28 -63q25 6 43 6q79 0 79 -75z" />
<glyph unicode="&#xb9;" horiz-adv-x="313" d="M245 445h-162v16h47v257l-48 -81h-20l85 153h52v-329h46v-16z" />
<glyph unicode="&#xba;" horiz-adv-x="371" d="M339 409q0 -65 -43 -107q-44 -42 -106 -42q-65 0 -107 42q-42 43 -42 107q0 61 44 105t105 44t105 -44t44 -105zM279 409q0 26 -6.5 48.5t-18 39.5t-28 27t-36.5 10t-36 -10t-28 -27t-18.5 -39.5t-6.5 -48.5q0 -55 23.5 -90.5t65.5 -35.5t65.5 33t23.5 93z" />
<glyph unicode="&#xbb;" horiz-adv-x="430" d="M413 225q-11 -10 -53 -47.5t-115 -104.5l-39 7q20 29 45.5 65.5t57.5 79.5q-11 14 -37 50t-66 96l39 8q29 -27 71 -65t97 -89zM253 225q-11 -10 -53 -47.5t-115 -104.5l-37 7q20 29 45.5 65.5t56.5 79.5q-11 14 -36.5 50t-65.5 96l37 8q29 -27 71 -65t97 -89z" />
<glyph unicode="&#xbc;" horiz-adv-x="828" d="M674 675l-442 -675h-86l443 675h85zM285 299h-189v19h54v301l-56 -96h-24l99 182h62v-387h54v-19zM773 0h-190v20h55v70h-146q0 23 117 286q16 36 40 36q29 0 29 -27q0 -16 -71 -129q-77 -121 -87 -142h118v92l80 21v-113h55v-24h-55v-70h55v-20z" />
<glyph unicode="&#xbd;" horiz-adv-x="835" d="M778 -1h-270v11q10 8 25 21.5t35 33.5q34 42 54 68t27 36q35 57 41 119q9 105 -55 105q-16 0 -29.5 -5.5t-22.5 -14.5t-14 -19.5t-3 -19.5q2 -11 12 -20.5t11 -15.5q2 -9 -5.5 -17t-15.5 -8q-9 -4 -22 -4q-37 0 -45 29q-8 34 31 71q40 40 103 41q33 1 60 -8t45.5 -26.5 t28 -42t7.5 -53.5q-4 -67 -71 -129q-28 -23 -55 -46t-55 -46h119q21 0 29 13.5t10 45.5h25v-119zM674 675l-442 -675h-86l443 675h85zM285 299h-189v19h54v301l-56 -96h-24l99 182h62v-387h54v-19z" />
<glyph unicode="&#xbe;" horiz-adv-x="844" d="M711 675l-442 -675h-86l443 675h85zM789 0h-190v20h55v70h-146q0 23 117 286q16 36 40 36q29 0 29 -27q0 -16 -71 -129q-77 -121 -87 -142h118v92l80 21v-113h55v-24h-55v-70h55v-20zM360 412q0 -60 -50 -92q-44 -27 -105 -27q-50 0 -86 15q-49 22 -49 66q0 23 13.5 36 t35.5 13q15 0 26 -7q16 -7 16 -22q0 -11 -8 -21.5t-8 -19.5q0 -14 18 -29q20 -14 35 -14q38 0 61 38q18 31 18 73q0 53 -43 72q-31 13 -91 12v21h8q58 0 85 15q35 21 35 77q0 31 -14 51q-15 25 -45 25q-16 0 -30.5 -12t-14.5 -27q0 -8 5.5 -16t5.5 -14q0 -13 -17 -21 q-15 -5 -27 -5q-42 0 -42 37q0 38 49 60q37 15 83 15q54 0 84 -21q38 -26 38 -77q0 -21 -9 -38.5t-24 -30t-34.5 -20t-40.5 -8.5q50 0 84 -28q38 -29 38 -76z" />
<glyph unicode="&#xbf;" horiz-adv-x="464" d="M309 408q0 -27 -18.5 -45.5t-45.5 -18.5t-45 18t-18 46q0 27 18 45t45 18t45.5 -18.5t18.5 -44.5zM425 -133q-1 -45 -46 -77q-51 -39 -142 -41q-85 -1 -142 42q-61 48 -58 131q1 81 103 163q24 19 40 38.5t26 43t15 51t6 63.5h38q2 -46 3 -67.5t1 -19.5q0 -68 -29 -118 q-11 -21 -53 -82q-27 -40 -34.5 -67.5t-7.5 -51.5q0 -93 92 -93q48 0 71 27q15 18 12 41q-1 14 -8 24.5t-8 22.5q-2 35 49 43q21 2 44 -13q32 -20 28 -60z" />
<glyph unicode="&#xc0;" horiz-adv-x="798" d="M775 -3h-309v32h80l-67 197h-244l-36 -90q-19 -47 -19 -75q0 -11 5 -23q6 -9 64 -9v-32h-218v32q53 -2 73 11q25 16 55 96l217 572h88l235 -679h76v-32zM464 264l-100 294l-113 -294h213zM440 745h-47l-118 120q-16 15 -16 36q0 24 23 32q18 7 31 7q31 0 50 -40z" />
<glyph unicode="&#xc1;" horiz-adv-x="798" d="M775 -3h-309v32h80l-67 197h-244l-36 -90q-19 -47 -19 -75q0 -11 5 -23q6 -9 64 -9v-32h-218v32q53 -2 73 11q25 16 55 96l217 572h88l235 -679h76v-32zM464 264l-100 294l-113 -294h213zM630 885q0 -30 -19 -40l-165 -101h-54l128 147q32 38 66 38q19 0 31.5 -13 t12.5 -31z" />
<glyph unicode="&#xc2;" horiz-adv-x="798" d="M775 -3h-309v32h80l-67 197h-244l-36 -90q-19 -47 -19 -75q0 -11 5 -23q6 -9 64 -9v-32h-218v32q53 -2 73 11q25 16 55 96l217 572h88l235 -679h76v-32zM464 264l-100 294l-113 -294h213zM573 742h-57l-112 97l-113 -97h-55l122 175h92z" />
<glyph unicode="&#xc3;" horiz-adv-x="798" d="M775 -3h-309v32h80l-67 197h-244l-36 -90q-19 -47 -19 -75q0 -11 5 -23q6 -9 64 -9v-32h-218v32q53 -2 73 11q25 16 55 96l217 572h88l235 -679h76v-32zM464 264l-100 294l-113 -294h213zM598 875q-30 -126 -121 -126q-28 0 -79 24q-50 25 -78 25q-34 0 -47 -48h-40 q2 38 27 77q34 48 92 48q27 0 77 -24q49 -24 74 -24q20 0 34 15q6 7 18 33h43z" />
<glyph unicode="&#xc4;" horiz-adv-x="798" d="M775 -3h-309v32h80l-67 197h-244l-36 -90q-19 -47 -19 -75q0 -11 5 -23q6 -9 64 -9v-32h-218v32q53 -2 73 11q25 16 55 96l217 572h88l235 -679h76v-32zM464 264l-100 294l-113 -294h213zM590 807q0 -28 -19 -47.5t-47 -19.5q-29 0 -48 19.5t-19 47.5t19 47.5t48 19.5 q28 0 47 -19.5t19 -47.5zM375 807q0 -28 -19 -47.5t-47 -19.5q-29 0 -48 19.5t-19 47.5t19 47.5t48 19.5q28 0 47 -19.5t19 -47.5z" />
<glyph unicode="&#xc5;" horiz-adv-x="801" d="M511 841q0 -42 -29 -71t-71 -29q-21 0 -39.5 8t-32 21.5t-21 31.5t-7.5 39t7.5 39t21 31.5t32 21.5t39.5 8t39 -8t31.5 -21.5t21.5 -31.5t8 -39zM776 0h-310v31h80l-67 198h-243l-37 -91q-20 -49 -20 -75q0 -14 6 -23q7 -9 64 -9v-31h-218v31q52 -2 72 12q27 17 56 95 l217 572h88l235 -679h77v-31zM461 841q0 22 -15 36t-35 14q-22 0 -36 -14t-14 -36q0 -21 14 -35.5t36 -14.5q20 0 35 14.5t15 35.5zM464 266l-101 294l-112 -294h213z" />
<glyph unicode="&#xc6;" horiz-adv-x="1113" d="M1103 240l-13 -240h-630v31h94v198h-255l-79 -105q-39 -51 -39 -70q0 -8 3.5 -15.5t19.5 -8.5q-5 1 4.5 1h34.5v-31h-225v31q16 2 35 6t42 11q19 12 66 78l387 533h-88v31h614l2 -202h-42q-9 79 -48 120q-38 40 -135 42l-160 3v-283h117q45 0 63 25q24 31 24 93h38v-279 h-38q0 60 -25 91t-62 31h-117v-293l182 2q27 0 66 15q41 15 60 34q60 55 64 151h40zM554 266v323l-231 -323h231z" />
<glyph unicode="&#xc7;" horiz-adv-x="629" d="M617 127q-36 -65 -99 -103q-75 -43 -168 -40q-129 6 -225 110q-94 104 -94 250q2 159 97 261q45 48 100.5 72t121.5 27q169 6 238 -66v-161h-38q-6 81 -52 133q-54 63 -148 61q-95 -5 -135 -97q-34 -77 -34 -233q0 -75 9.5 -129.5t27.5 -91.5q40 -80 135 -96 q7 -1 14.5 -1.5t16.5 -0.5q69 0 136 46q31 20 50.5 42.5t30.5 46.5zM455 -131q0 -46 -50 -69q-35 -16 -89 -16q-40 0 -88 17l16 38q40 -9 66 -9q51 0 51 36q0 35 -41 35q-16 0 -32 -3l-10 8l42 95h41l-28 -63q25 6 43 6q79 0 79 -75z" />
<glyph unicode="&#xc8;" horiz-adv-x="719" d="M681 240l-12 -240h-630v31h94v628h-94v31h614l2 -202h-42q-5 40 -16 70t-32 50.5t-54 31t-81 10.5l-160 3v-283h118q43 0 62 25q24 31 24 93h37v-279h-37q0 60 -25 91t-61 31h-118v-293l181 2q28 0 67 15q41 15 60 34q61 56 65 151h38zM371 745h-45l-120 120 q-15 15 -15 36q0 24 24 32q18 7 30 7q32 0 51 -40z" />
<glyph unicode="&#xc9;" horiz-adv-x="731" d="M478 884q0 -30 -18 -40l-165 -101h-55l128 147q32 38 67 38q17 0 30 -13.5t13 -30.5zM693 240l-12 -240h-630v31h94v628h-94v31h614l2 -202h-42q-5 40 -16 70t-32 50.5t-54 31t-81 10.5l-160 3v-283h118q43 0 62 25q24 31 24 93h37v-279h-37q0 60 -25 91t-61 31h-118 v-293l181 2q28 0 67 15q41 15 60 34q61 56 65 151h38z" />
<glyph unicode="&#xca;" horiz-adv-x="731" d="M693 240l-12 -240h-630v31h94v628h-94v31h614l2 -202h-42q-5 40 -16 70t-32 50.5t-54 31t-81 10.5l-160 3v-283h118q43 0 62 25q24 31 24 93h37v-279h-37q0 60 -25 91t-61 31h-118v-293l181 2q28 0 67 15q41 15 60 34q61 56 65 151h38zM555 742h-57l-112 97l-113 -97h-55 l122 175h92z" />
<glyph unicode="&#xcb;" horiz-adv-x="731" d="M693 240l-12 -240h-630v31h94v628h-94v31h614l2 -202h-42q-5 40 -16 70t-32 50.5t-54 31t-81 10.5l-160 3v-283h118q43 0 62 25q24 31 24 93h37v-279h-37q0 60 -25 91t-61 31h-118v-293l181 2q28 0 67 15q41 15 60 34q61 56 65 151h38zM550 811q0 -28 -19 -47.5 t-47 -19.5q-29 0 -48 19.5t-19 47.5t19 47.5t48 19.5q28 0 47 -19.5t19 -47.5zM335 811q0 -28 -19 -47.5t-47 -19.5q-29 0 -48 19.5t-19 47.5t19 47.5t48 19.5q28 0 47 -19.5t19 -47.5z" />
<glyph unicode="&#xcc;" horiz-adv-x="418" d="M373 0h-324v31h93v628h-93v31h324v-31h-92v-628h92v-31zM227 744h-47l-118 120q-16 15 -16 36q0 24 23 32q18 7 31 7q31 0 50 -40z" />
<glyph unicode="&#xcd;" horiz-adv-x="418" d="M373 0h-324v31h93v628h-93v31h324v-31h-92v-628h92v-31zM411 891q0 -30 -19 -40l-165 -101h-54l128 147q32 38 66 38q19 0 31.5 -13t12.5 -31z" />
<glyph unicode="&#xce;" horiz-adv-x="418" d="M373 0h-324v31h93v628h-93v31h324v-31h-92v-628h92v-31zM377 745h-57l-112 97l-113 -97h-55l122 175h92z" />
<glyph unicode="&#xcf;" horiz-adv-x="423" d="M383 810q0 -27 -20 -46.5t-48 -19.5q-27 0 -47 19.5t-20 46.5q0 29 20 48.5t47 19.5q28 0 48 -19.5t20 -48.5zM168 810q0 -27 -20 -46.5t-48 -19.5q-27 0 -47 19.5t-20 46.5q0 29 20 48.5t47 19.5q28 0 48 -19.5t20 -48.5zM370 0h-324v31h93v628h-93v31h324v-31h-92v-628 h92v-31z" />
<glyph unicode="&#xd0;" horiz-adv-x="806" d="M120 363v180q0 68 -7 81q-8 16 -40 17l-38 3v37l156 -3h45t75 1t79.5 1.5t57.5 0.5q338 0 338 -312q0 -175 -127 -278q-118 -97 -289 -94q-159 3 -149 3h-114t-71 -1v37l38 2q35 2 42 16q5 12 5 75v199h-85v35h84zM368 328h-107v-270q14 -2 36 -3.5t51 -1.5 q148 0 218 72.5t70 224.5q0 151 -73 215q-72 66 -240 66q-34 0 -62 -3v-265h107v-35z" />
<glyph unicode="&#xd1;" horiz-adv-x="741" d="M716 659q-58 0 -68 -10q-26 -26 -26 -76v-589h-25l-424 654v-520q0 -53 25 -77q10 -10 69 -10v-31h-225v31q55 0 66 9q28 25 28 78v520q-2 21 -30 21h-55v31h258l277 -426v309q0 51 -29 77q-11 9 -66 9v31h225v-31zM582 864q-30 -126 -121 -126q-28 0 -79 24 q-50 25 -78 25q-34 0 -47 -48h-40q2 38 27 77q34 48 92 48q27 0 77 -24q49 -24 74 -24q20 0 34 15q6 7 18 33h43z" />
<glyph unicode="&#xd2;" horiz-adv-x="747" d="M692 339q0 -149 -94 -252q-93 -103 -224 -103q-130 0 -226 107t-95 254q1 160 96 264q93 97 225 97q143 0 230 -101q88 -100 88 -266zM540 336q0 161 -30 238q-38 99 -136 99q-95 0 -136 -95q-34 -78 -34 -237t34 -231q40 -87 137 -87q93 0 133 88q32 75 32 225zM398 744 h-47l-118 120q-16 15 -16 36q0 24 23 32q18 7 31 7q31 0 50 -40z" />
<glyph unicode="&#xd3;" horiz-adv-x="747" d="M692 339q0 -149 -94 -252q-93 -103 -224 -103q-130 0 -226 107t-95 254q1 160 96 264q93 97 225 97q143 0 230 -101q88 -100 88 -266zM540 336q0 161 -30 238q-38 99 -136 99q-95 0 -136 -95q-34 -78 -34 -237t34 -231q40 -87 137 -87q93 0 133 88q32 75 32 225zM579 886 q0 -30 -19 -40l-165 -101h-54l128 147q32 38 66 38q19 0 31.5 -13t12.5 -31z" />
<glyph unicode="&#xd4;" horiz-adv-x="747" d="M692 339q0 -149 -94 -252q-93 -103 -224 -103q-130 0 -226 107t-95 254q1 160 96 264q93 97 225 97q143 0 230 -101q88 -100 88 -266zM540 336q0 161 -30 238q-38 99 -136 99q-95 0 -136 -95q-34 -78 -34 -237t34 -231q40 -87 137 -87q93 0 133 88q32 75 32 225zM545 742 h-57l-112 97l-113 -97h-55l122 175h92z" />
<glyph unicode="&#xd5;" horiz-adv-x="747" d="M692 339q0 -149 -94 -252q-93 -103 -224 -103q-130 0 -226 107t-95 254q1 160 96 264q93 97 225 97q143 0 230 -101q88 -100 88 -266zM540 336q0 161 -30 238q-38 99 -136 99q-95 0 -136 -95q-34 -78 -34 -237t34 -231q40 -87 137 -87q93 0 133 88q32 75 32 225zM552 871 q-30 -126 -121 -126q-28 0 -79 24q-50 25 -78 25q-34 0 -47 -48h-40q2 38 27 77q34 48 92 48q27 0 77 -24q49 -24 74 -24q20 0 34 15q6 7 18 33h43z" />
<glyph unicode="&#xd6;" horiz-adv-x="746" d="M542 816q0 -27 -19.5 -47t-46.5 -20q-29 0 -48.5 20t-19.5 47q0 28 19.5 47.5t48.5 19.5q27 0 46.5 -19.5t19.5 -47.5zM327 816q0 -27 -19.5 -47t-46.5 -20q-29 0 -48.5 20t-19.5 47q0 28 19.5 47.5t48.5 19.5q27 0 46.5 -19.5t19.5 -47.5zM691 339q0 -149 -94 -252 q-93 -103 -224 -103q-130 0 -226 107q-95 107 -95 254q2 161 97 264q91 97 224 97q143 0 230 -101q88 -100 88 -266zM539 336q0 161 -30 238q-38 99 -136 99q-95 0 -136 -95q-34 -78 -34 -237t34 -231q40 -87 139 -87q92 0 131 88q32 75 32 225z" />
<glyph unicode="&#xd7;" horiz-adv-x="499" d="M444 114l-48 -47l-146 140l-147 -140l-48 47l146 141l-145 140l48 46l146 -138l145 138l48 -46l-144 -140z" />
<glyph unicode="&#xd8;" horiz-adv-x="725" d="M546 776l-281 -862h-54l282 862h53zM683 339q0 -149 -94 -252q-93 -103 -224 -103q-130 0 -226 107t-95 254q1 160 96 264q93 97 225 97q143 0 230 -101q88 -100 88 -266zM531 336q0 161 -30 238q-38 99 -136 99q-95 0 -136 -95q-34 -78 -34 -237t34 -231q40 -87 137 -87 q93 0 133 88q32 75 32 225z" />
<glyph unicode="&#xd9;" horiz-adv-x="807" d="M783 659q-59 0 -69 -10q-25 -25 -25 -76v-298q0 -155 -62 -223q-61 -66 -204 -68q-125 0 -211 70q-87 70 -87 169v436h-92v31h323v-31h-93v-414q-2 -221 190 -219q195 0 195 237v310q0 53 -28 77q-11 9 -67 9v31h230v-31zM486 746h-47l-118 120q-16 15 -16 36q0 24 23 32 q18 7 31 7q31 0 50 -40z" />
<glyph unicode="&#xda;" horiz-adv-x="807" d="M783 659q-59 0 -69 -10q-25 -25 -25 -76v-298q0 -155 -62 -223q-61 -66 -204 -68q-125 0 -211 70q-87 70 -87 169v436h-92v31h323v-31h-93v-414q-2 -221 190 -219q195 0 195 237v310q0 53 -28 77q-11 9 -67 9v31h230v-31zM663 884q0 -30 -19 -40l-165 -101h-54l128 147 q32 38 66 38q19 0 31.5 -13t12.5 -31z" />
<glyph unicode="&#xdb;" horiz-adv-x="807" d="M783 659q-59 0 -69 -10q-25 -25 -25 -76v-298q0 -155 -62 -223q-61 -66 -204 -68q-125 0 -211 70q-87 70 -87 169v436h-92v31h323v-31h-93v-414q-2 -221 190 -219q195 0 195 237v310q0 53 -28 77q-11 9 -67 9v31h230v-31zM629 740h-57l-112 97l-113 -97h-55l122 175h92z " />
<glyph unicode="&#xdc;" horiz-adv-x="807" d="M630 815q0 -27 -19.5 -47t-47.5 -20t-47.5 20t-19.5 47q0 28 19.5 48t47.5 20t47.5 -20t19.5 -48zM415 815q0 -27 -19.5 -47t-47.5 -20t-47.5 20t-19.5 47q0 28 19.5 48t47.5 20t47.5 -20t19.5 -48zM783 659q-59 0 -69 -10q-25 -25 -25 -76v-298q0 -155 -62 -223 q-61 -66 -204 -68q-125 0 -211 70q-87 70 -87 169v436h-92v31h323v-31h-93v-414q0 -219 190 -219q195 0 195 237v310q0 53 -28 77q-11 9 -67 9v31h230v-31z" />
<glyph unicode="&#xdd;" horiz-adv-x="730" d="M713 690v-37q-59 1 -73 -13q-22 -20 -49 -81l-146 -283v-243h92v-33h-322v30l92 1v242l-220 386h-78l2 31h305v-31h-75q48 -85 94 -168t92 -167l110 224q3 3 15 30q14 33 14 50q0 7 -5 12q-13 14 -18 16q-11 4 -51 3l1 31h220zM598 886q0 -30 -19 -40l-165 -101h-54 l128 147q32 38 66 38q19 0 31.5 -13t12.5 -31z" />
<glyph unicode="&#xde;" horiz-adv-x="586" d="M370 0h-324v31h93v628h-93v31h324v-31h-92v-56h10q139 0 207 -39q80 -49 76 -156q-6 -160 -233 -190l-23 28q121 31 118 159q-3 87 -40 126.5t-115 39.5v-540h92v-31z" />
<glyph unicode="&#xdf;" horiz-adv-x="619" d="M585 150q1 -7 1 -13.5v-11.5q0 -70 -55 -107q-49 -32 -127 -32q-7 0 -48 7q-22 3 -43 4.5t-42 2.5q-37 1 -250 0l2 30h77q2 23 3 40.5t1 29.5v304h-79v37h79v80q0 87 65 138q61 47 154 47q83 0 138 -43q62 -50 62 -140q0 -46 -15 -98q-42 14 -70 14q-48 0 -57 -35 q-8 -33 41 -71q25 -19 49 -37.5t49 -37.5q57 -51 65 -108zM298 343q-3 130 135 153q5 25 5 42q0 57 -37 91q-38 36 -83 36q-39 0 -65 -26q-29 -32 -29 -91l-3 -173v-275q0 -12 1.5 -29.5t5.5 -40.5h26q-5 0 -8 1h29l5 124h39l5 -69q11 -15 20.5 -25t20 -16t23 -8.5 t28.5 -2.5q22 0 42 22t18 55q-2 38 -47 74q-22 16 -43 31.5t-42 32.5q-45 42 -46 94z" />
<glyph unicode="&#xe0;" horiz-adv-x="515" d="M495 0h-204v81q-58 -65 -61 -65q-32 -27 -79 -27q-51 0 -85 29q-34 31 -34 90q0 75 61 115q44 27 127 42l71 16q3 144 -57 146q-61 3 -63 -53q-1 -6 1.5 -11.5t6 -10t7 -8.5t3.5 -7q6 -18 -23 -29q-13 -5 -24 -5q-26 0 -44 16t-18 42q2 60 68 89q45 21 97 21 q96 0 131 -44q34 -42 36 -166v-194q1 -34 36 -34h47v-33zM291 122v112q-14 -3 -36.5 -10t-53.5 -18q-44 -20 -46 -66q-5 -69 54 -69q20 0 42.5 14t39.5 37zM283 532h-47l-118 120q-16 15 -16 36q0 24 23 32q18 7 31 7q31 0 50 -40z" />
<glyph unicode="&#xe1;" horiz-adv-x="515" d="M443 673q0 -29 -20 -40l-165 -102h-54l129 148q31 37 65 37q18 0 31.5 -13t13.5 -30zM495 0h-204v81q-58 -65 -61 -65q-32 -27 -79 -27q-51 0 -85 29q-34 31 -34 90q0 75 61 115q44 27 127 42l71 16q3 144 -57 146q-61 3 -63 -53q-1 -6 1.5 -11.5t6 -10t7 -8.5t3.5 -7 q6 -18 -23 -29q-13 -5 -24 -5q-26 0 -44 16t-18 42q2 60 68 89q45 21 97 21q96 0 131 -44q34 -42 36 -166v-194q1 -34 36 -34h47v-33zM291 122v112q-14 -3 -36.5 -10t-53.5 -18q-44 -20 -46 -66q-5 -69 54 -69q20 0 42.5 14t39.5 37z" />
<glyph unicode="&#xe2;" horiz-adv-x="515" d="M415 533h-58l-111 97l-114 -97h-55l121 175h93zM495 0h-204v81q-58 -65 -61 -65q-32 -27 -79 -27q-51 0 -85 29q-34 31 -34 90q0 75 61 115q44 27 127 42l71 16q3 144 -57 146q-61 3 -63 -53q-1 -6 1.5 -11.5t6 -10t7 -8.5t3.5 -7q6 -18 -23 -29q-13 -5 -24 -5 q-26 0 -44 16t-18 42q2 60 68 89q45 21 97 21q96 0 131 -44q34 -42 36 -166v-194q1 -34 36 -34h47v-33zM291 122v112q-14 -3 -36.5 -10t-53.5 -18q-44 -20 -46 -66q-5 -69 54 -69q20 0 42.5 14t39.5 37z" />
<glyph unicode="&#xe3;" horiz-adv-x="515" d="M495 0h-204v81q-58 -65 -61 -65q-32 -27 -79 -27q-51 0 -85 29q-34 31 -34 90q0 75 61 115q44 27 127 42l71 16q3 144 -57 146q-61 3 -63 -53q-1 -6 1.5 -11.5t6 -10t7 -8.5t3.5 -7q6 -18 -23 -29q-13 -5 -24 -5q-26 0 -44 16t-18 42q2 60 68 89q45 21 97 21 q96 0 131 -44q34 -42 36 -166v-194q1 -34 36 -34h47v-33zM291 122v112q-14 -3 -36.5 -10t-53.5 -18q-44 -20 -46 -66q-5 -69 54 -69q20 0 42.5 14t39.5 37zM437 652q-30 -126 -121 -126q-28 0 -79 24q-50 25 -78 25q-34 0 -47 -48h-40q2 38 27 77q34 48 92 48q27 0 77 -24 q49 -24 74 -24q20 0 34 15q6 7 18 33h43z" />
<glyph unicode="&#xe4;" horiz-adv-x="515" d="M438 600q0 -27 -20 -47t-48 -20q-27 0 -47 20t-20 47q0 28 20 48t47 20q28 0 48 -20t20 -48zM223 600q0 -27 -20 -47t-48 -20q-27 0 -47 20t-20 47q0 28 20 48t47 20q28 0 48 -20t20 -48zM495 0h-204v81q-58 -65 -61 -65q-32 -27 -79 -27q-51 0 -85 29q-34 31 -34 90 q0 75 61 115q44 27 127 42l71 16q3 144 -57 146q-61 3 -63 -53q-1 -6 1.5 -11.5t6 -10t7 -8.5t3.5 -7q6 -18 -23 -29q-13 -5 -24 -5q-26 0 -44 16t-18 42q2 60 68 89q45 21 97 21q96 0 131 -44q34 -42 36 -166v-194q1 -34 36 -34h47v-33zM291 122v112q-14 -3 -36.5 -10 t-53.5 -18q-44 -20 -46 -66q-5 -69 54 -69q20 0 42.5 14t39.5 37z" />
<glyph unicode="&#xe5;" horiz-adv-x="515" d="M350 630q0 -42 -29 -71t-71 -29t-71 29t-29 71t29 71t71 29t71 -29t29 -71zM300 630q0 20 -14.5 35t-35.5 15t-35.5 -15t-14.5 -35q0 -21 14.5 -35.5t35.5 -14.5t35.5 14.5t14.5 35.5zM495 0h-204v81q-58 -65 -61 -65q-32 -27 -79 -27q-51 0 -85 29q-34 31 -34 90 q0 75 61 115q44 27 127 42l71 16q3 144 -57 146q-61 3 -63 -53q-1 -6 1.5 -11.5t6 -10t7 -8.5t3.5 -7q6 -18 -23 -29q-13 -5 -24 -5q-26 0 -44 16t-18 42q2 60 68 89q45 21 97 21q96 0 131 -44q34 -42 36 -166v-194q1 -34 36 -34h47v-33zM291 122v112q-14 -3 -36.5 -10 t-53.5 -18q-44 -20 -46 -66q-5 -69 54 -69q20 0 42.5 14t39.5 37z" />
<glyph unicode="&#xe6;" horiz-adv-x="759" d="M305 234q-14 -3 -38 -10t-55 -18q-22 -10 -33 -26.5t-13 -39.5q-4 -35 10.5 -52t43.5 -17q20 0 44 19.5t41 42.5v101zM389 424q28 24 62.5 35.5t75.5 11.5q112 -2 158 -70q17 -26 27 -69t14 -105q0 2 -294 2q0 -75 41 -122q43 -52 120 -52q48 0 107 36l12 -16 q-72 -89 -182 -90q-70 0 -120.5 23.5t-77.5 73.5q-46 -52 -84.5 -74.5t-85.5 -22.5q-26 0 -47 9.5t-38 23.5q-34 31 -34 90q0 75 61 115q44 27 127 42l71 16q3 144 -57 146q-61 3 -63 -53q-1 -6 1.5 -11.5t6 -10t7 -8.5t3.5 -7q6 -18 -23 -29q-13 -5 -24 -5q-26 0 -44 16 t-18 42q2 60 68 89q45 21 97 21q49 0 79.5 -13.5t53.5 -33.5zM599 277q0 139 -85 139q-86 0 -86 -139q52 -2 171 0z" />
<glyph unicode="&#xe7;" horiz-adv-x="432" d="M228 -71q25 6 43 6q79 0 79 -75q0 -46 -50 -69q-35 -16 -89 -16q-40 0 -88 17l16 38q40 -9 66 -9q51 0 51 36q0 35 -41 35q-16 0 -32 -3l-10 8l40 90q-84 9 -133 65q-53 59 -53 167q-1 111 83 183q73 62 162 65q51 3 83.5 -17t35.5 -58q1 -31 -20.5 -45t-51.5 -12 q-7 1 -14.5 4.5t-13 8.5t-8.5 11t-1 12q1 3 5.5 7.5t8.5 9t7 10t2 11.5q-5 18 -33 18q-43 -3 -78 -41q-45 -48 -45 -128q0 -86 36 -140q42 -63 123 -63q40 0 82 19l12 -21q-46 -66 -149 -68z" />
<glyph unicode="&#xe8;" horiz-adv-x="478" d="M445 227q0 2 -294 2q0 -75 41 -122q43 -52 120 -52q48 0 107 36l12 -16q-72 -89 -182 -90q-108 0 -166.5 60.5t-58.5 169.5q0 54 14 98t40 79q61 79 168 79q112 -2 158 -70q17 -26 27 -69t14 -105zM318 277q0 139 -85 139q-86 0 -86 -139q52 -2 171 0zM279 535h-47 l-118 120q-16 15 -16 36q0 24 23 32q18 7 31 7q31 0 50 -40z" />
<glyph unicode="&#xe9;" horiz-adv-x="478" d="M401 673q0 -30 -19 -40l-165 -102h-54l128 148q31 37 66 37q19 0 31.5 -13t12.5 -30zM445 227q0 2 -294 2q0 -75 41 -122q43 -52 120 -52q48 0 107 36l12 -16q-72 -89 -182 -90q-108 0 -166.5 60.5t-58.5 169.5q0 54 14 98t40 79q61 79 168 79q112 -2 158 -70 q17 -26 27 -69t14 -105zM318 277q0 139 -85 139q-86 0 -86 -139q52 -2 171 0z" />
<glyph unicode="&#xea;" horiz-adv-x="478" d="M405 531h-57l-112 98l-113 -98h-55l122 175h92zM445 227q0 2 -294 2q0 -75 41 -122q43 -52 120 -52q48 0 107 36l12 -16q-72 -89 -182 -90q-108 0 -166.5 60.5t-58.5 169.5q0 54 14 98t40 79q61 79 168 79q112 -2 158 -70q17 -26 27 -69t14 -105zM318 277q0 139 -85 139 q-86 0 -86 -139q52 -2 171 0z" />
<glyph unicode="&#xeb;" horiz-adv-x="478" d="M423 604q0 -28 -20 -47t-47 -19q-28 0 -47 19t-19 47q0 27 19 47t47 20q27 0 47 -20t20 -47zM208 604q0 -28 -20 -47t-47 -19q-28 0 -47 19t-19 47q0 27 19 47t47 20q27 0 47 -20t20 -47zM445 227q0 2 -294 2q0 -75 41 -122q43 -52 120 -52q48 0 107 36l12 -16 q-72 -89 -182 -90q-108 0 -166.5 60.5t-58.5 169.5q0 54 14 98t40 79q61 79 168 79q112 -2 158 -70q17 -26 27 -69t14 -105zM318 277q0 139 -85 139q-86 0 -86 -139q52 -2 171 0z" />
<glyph unicode="&#xec;" horiz-adv-x="320" d="M193 530h-45l-120 120q-15 15 -15 35q0 24 23 33q18 7 30 7q33 0 52 -40zM307 0h-279v32h58q18 0 23 23v337q-1 35 -34 35h-47v32h202v-404q3 -23 23 -23h54v-32z" />
<glyph unicode="&#xed;" horiz-adv-x="320" d="M297 650l-119 -120h-46l76 155q19 40 50 40q10 0 32 -8q22 -7 22 -32q0 -20 -15 -35zM307 0h-279v32h58q18 0 23 23v337q-1 35 -34 35h-47v32h202v-404q3 -23 23 -23h54v-32z" />
<glyph unicode="&#xee;" horiz-adv-x="320" d="M319 531h-56l-113 98l-112 -98h-56l121 175h93zM307 0h-279v32h58q18 0 23 23v337q-1 35 -34 35h-47v32h202v-404q3 -23 23 -23h54v-32z" />
<glyph unicode="&#xef;" horiz-adv-x="320" d="M329 604q0 -28 -19.5 -47t-46.5 -19q-29 0 -48.5 19t-19.5 47q0 27 19.5 47t48.5 20q27 0 46.5 -20t19.5 -47zM114 604q0 -28 -19.5 -47t-46.5 -19q-29 0 -48.5 19t-19.5 47q0 27 19.5 47t48.5 20q27 0 46.5 -20t19.5 -47zM307 0h-279v32h58q18 0 23 23v337q-1 35 -34 35 h-47v32h202v-404q3 -23 23 -23h54v-32z" />
<glyph unicode="&#xf0;" horiz-adv-x="556" d="M394 196q0 227 -105 227q-100 0 -100 -174q0 -218 110 -218q95 0 95 165zM456 710l22 -34q-30 -14 -60.5 -29t-61.5 -31q20 -16 36.5 -34.5t32.5 -40.5q93 -126 93 -303q0 -123 -64.5 -189.5t-189.5 -66.5q-112 0 -170 69q-54 64 -54 174q0 118 62.5 182t182.5 64 q13 0 54 -7q-7 29 -21.5 57t-39.5 57l-121 -59l-23 32q9 5 37.5 19t77.5 38q-26 26 -54 43t-57 25v15t1 15q52 -6 97 -22t83 -41z" />
<glyph unicode="&#xf1;" horiz-adv-x="618" d="M516 286l2 -231q3 -23 23 -23h54v-32h-267v32h46q18 0 23 23q-1 32 -1 85.5v128.5q0 66 -27 93q-11 11 -29.5 17.5t-44.5 4.5t-45 -17.5t-32 -49.5l-1 -262q5 -23 23 -23h42v-32h-267v32h59q19 0 22 23v70v86.5t-1 179.5q-1 35 -34 35h-47v33h203v-70q47 83 155 81 q71 -2 107 -40q37 -37 37 -144zM492 652q-30 -126 -121 -126q-28 0 -79 24q-50 25 -78 25q-34 0 -47 -48h-40q2 38 27 77q34 48 92 48q27 0 77 -24q49 -24 74 -24q20 0 34 15q6 7 18 33h43z" />
<glyph unicode="&#xf2;" horiz-adv-x="539" d="M509 239q0 -123 -64 -188.5t-188 -65.5q-112 0 -170 68q-53 63 -53 173q0 118 62.5 181.5t181.5 63.5q113 0 172 -60t59 -172zM373 198q0 225 -104 225q-99 0 -99 -173q0 -217 109 -217q94 0 94 165zM297 529h-47l-118 120q-16 15 -16 36q0 24 23 32q18 7 31 7 q31 0 50 -40z" />
<glyph unicode="&#xf3;" horiz-adv-x="539" d="M509 239q0 -123 -64 -188.5t-188 -65.5q-112 0 -170 68q-53 63 -53 173q0 118 62.5 181.5t181.5 63.5q113 0 172 -60t59 -172zM373 198q0 225 -104 225q-99 0 -99 -173q0 -217 109 -217q94 0 94 165zM472 672q0 -30 -19 -40l-165 -101h-54l128 147q32 38 66 38 q19 0 31.5 -13t12.5 -31z" />
<glyph unicode="&#xf4;" horiz-adv-x="539" d="M440 531h-56l-112 98l-113 -98h-55l120 175h94zM509 239q0 -123 -64 -188.5t-188 -65.5q-112 0 -170 68q-53 63 -53 173q0 118 62.5 181.5t181.5 63.5q113 0 172 -60t59 -172zM373 198q0 225 -104 225q-99 0 -99 -173q0 -217 109 -217q94 0 94 165z" />
<glyph unicode="&#xf5;" horiz-adv-x="539" d="M509 239q0 -123 -64 -188.5t-188 -65.5q-112 0 -170 68q-53 63 -53 173q0 118 62.5 181.5t181.5 63.5q113 0 172 -60t59 -172zM373 198q0 225 -104 225q-99 0 -99 -173q0 -217 109 -217q94 0 94 165zM457 658q-30 -126 -121 -126q-28 0 -79 24q-50 25 -78 25 q-34 0 -47 -48h-40q2 38 27 77q34 48 92 48q27 0 77 -24q49 -24 74 -24q20 0 34 15q6 7 18 33h43z" />
<glyph unicode="&#xf6;" horiz-adv-x="539" d="M468 604q0 -28 -20 -47t-48 -19q-27 0 -46.5 19t-19.5 47q0 27 19.5 47t46.5 20q28 0 48 -20t20 -47zM253 604q0 -28 -20 -47t-48 -19q-27 0 -46.5 19t-19.5 47q0 27 19.5 47t46.5 20q28 0 48 -20t20 -47zM509 239q0 -123 -64 -188.5t-188 -65.5q-112 0 -170 68 q-53 63 -53 173q0 118 62.5 181.5t181.5 63.5q113 0 172 -60t59 -172zM373 198q0 225 -104 225q-99 0 -99 -173q0 -217 109 -217q94 0 94 165z" />
<glyph unicode="&#xf7;" horiz-adv-x="594" d="M355 444q0 -23 -17.5 -39.5t-39.5 -16.5q-23 0 -40 17.5t-17 38.5q0 22 17 40.5t40 18.5q22 0 39.5 -17.5t17.5 -41.5zM543 228h-494v55h494v-55zM355 68q0 -24 -17.5 -41t-39.5 -17q-23 0 -40 17.5t-17 40.5q0 21 17 38t40 17q22 0 39.5 -17t17.5 -38z" />
<glyph unicode="&#xf8;" horiz-adv-x="556" d="M518 238q0 -124 -64.5 -190t-189.5 -66q-65 0 -111 24l-42 -60q-6 5 -12.5 11t-13.5 12q9 11 18.5 25t20.5 30q-84 61 -84 201q0 118 62.5 182t182.5 64q78 0 131 -30l50 70l28 -18l-49 -70q73 -60 73 -185zM360 360q-26 63 -84 63q-100 0 -100 -174q0 -82 15 -131z M381 196q0 39 -2.5 69.5t-7.5 52.5l-165 -237q29 -50 80 -50q95 0 95 165z" />
<glyph unicode="&#xf9;" horiz-adv-x="626" d="M596 0h-203v67q-51 -83 -152 -82q-35 0 -62 9.5t-45.5 31t-28 57t-9.5 88.5l-1 232q-3 24 -23 24h-55v31h200v-271q0 -67 27 -91q23 -23 71 -24q24 0 48 26q20 20 30 43v262q-5 24 -24 24h-42v31l187 1v-392q3 -35 35 -35h47v-32zM330 529h-47l-118 120q-16 15 -16 36 q0 24 23 32q18 7 31 7q31 0 50 -40z" />
<glyph unicode="&#xfa;" horiz-adv-x="626" d="M596 0h-203v67q-51 -83 -152 -82q-35 0 -62 9.5t-45.5 31t-28 57t-9.5 88.5l-1 232q-3 24 -23 24h-55v31h200v-271q0 -67 27 -91q23 -23 71 -24q24 0 48 26q20 20 30 43v262q-5 24 -24 24h-42v31l187 1v-392q3 -35 35 -35h47v-32zM500 676q0 -30 -19 -40l-165 -101h-54 l128 147q32 38 66 38q19 0 31.5 -13t12.5 -31z" />
<glyph unicode="&#xfb;" horiz-adv-x="626" d="M445 531h-57l-111 98l-114 -98h-55l121 175h93zM596 0h-203v67q-51 -83 -152 -82q-35 0 -62 9.5t-45.5 31t-28 57t-9.5 88.5l-1 232q-3 24 -23 24h-55v31h200v-271q0 -67 27 -91q23 -23 71 -24q24 0 48 26q20 20 30 43v262q-5 24 -24 24h-42v31l187 1v-392q3 -35 35 -35 h47v-32z" />
<glyph unicode="&#xfc;" horiz-adv-x="626" d="M478 604q0 -28 -19.5 -47t-46.5 -19q-28 0 -48 19t-20 47q0 27 20 47t48 20q27 0 46.5 -20t19.5 -47zM263 604q0 -28 -19.5 -47t-46.5 -19q-28 0 -48 19t-20 47q0 27 20 47t48 20q27 0 46.5 -20t19.5 -47zM596 0h-203v67q-51 -83 -152 -82q-35 0 -62 9.5t-45.5 31t-28 57 t-9.5 88.5l-1 232q-3 24 -23 24h-55v31h200v-271q0 -67 27 -91q23 -23 71 -24q24 0 48 26q20 20 30 43v262q-5 24 -24 24h-42v31l187 1v-392q3 -35 35 -35h47v-32z" />
<glyph unicode="&#xfd;" horiz-adv-x="575" d="M567 428h-26q-30 0 -46 -41l-170 -387q-16 -38 -28 -65t-20 -41q-20 -41 -36 -66.5t-29 -38.5q-48 -43 -106 -43q-21 0 -38 10q-23 11 -23 36q0 8 3 17q9 25 62 25q5 0 19 -4.5t22 -4.5q9 0 13 4q54 31 89 146l-174 433q-15 20 -34 20h-31v30h278v-30q-24 0 -38 0.5 t-21.5 -0.5t-10 -4.5t-2.5 -12.5q0 -7 1 -10q-1 2 24 -64t76 -206q17 40 44 104t63 152q7 14 7 25q0 16 -17 16h-49v30h198v-30zM547 680q0 -30 -19 -40l-165 -101h-54l128 147q32 38 66 38q19 0 31.5 -13t12.5 -31z" />
<glyph unicode="&#xfe;" horiz-adv-x="611" d="M568 285q0 -56 -24 -116q-24 -61 -73 -96q-13 -10 -32.5 -24.5t-45.5 -34.5q-49 -32 -82 -32q-31 0 -88 18v-225h78v-31h-278v31h77v878q-32 -8 -71 -10v35q20 2 48 7t66 13l72 22l8 -6v-331l60 50q49 38 105 38q78 0 129 -53t51 -133zM441 226q0 68 -28 108 q-35 47 -97 47q-64 0 -93 -50v-225q36 -55 101 -55q64 0 94 59q23 48 23 116z" />
<glyph unicode="&#xff;" horiz-adv-x="575" d="M567 428h-26q-30 0 -46 -41l-170 -387q-16 -38 -28 -65t-20 -41q-20 -41 -36 -66.5t-29 -38.5q-48 -43 -106 -43q-21 0 -38 10q-23 11 -23 36q0 8 3 17q9 25 62 25q5 0 19 -4.5t22 -4.5q9 0 13 4q54 31 89 146l-174 433q-15 20 -34 20h-31v30h278v-30q-24 0 -38 0.5 t-21.5 -0.5t-10 -4.5t-2.5 -12.5q0 -7 1 -10q-1 2 24 -64t76 -206q17 40 44 104t63 152q7 14 7 25q0 16 -17 16h-49v30h198v-30zM503 599q0 -28 -19 -47.5t-47 -19.5q-29 0 -48 19.5t-19 47.5t19 47.5t48 19.5q28 0 47 -19.5t19 -47.5zM288 599q0 -28 -19 -47.5t-47 -19.5 q-29 0 -48 19.5t-19 47.5t19 47.5t48 19.5q28 0 47 -19.5t19 -47.5z" />
<glyph unicode="&#x100;" horiz-adv-x="798" d="M775 -3h-309v32h80l-67 197h-244l-36 -90q-19 -47 -19 -75q0 -11 5 -23q6 -9 64 -9v-32h-218v32q53 -2 73 11q25 16 55 96l217 572h88l235 -679h76v-32zM464 264l-100 294l-113 -294h213zM564 745h-308v66h308v-66z" />
<glyph unicode="&#x101;" horiz-adv-x="515" d="M495 0h-204v81q-58 -65 -61 -65q-32 -27 -79 -27q-51 0 -85 29q-34 31 -34 90q0 75 61 115q44 27 127 42l71 16q3 144 -57 146q-61 3 -63 -53q-1 -6 1.5 -11.5t6 -10t7 -8.5t3.5 -7q6 -18 -23 -29q-13 -5 -24 -5q-26 0 -44 16t-18 42q2 60 68 89q45 21 97 21 q96 0 131 -44q34 -42 36 -166v-194q1 -34 36 -34h47v-33zM291 122v112q-14 -3 -36.5 -10t-53.5 -18q-44 -20 -46 -66q-5 -69 54 -69q20 0 42.5 14t39.5 37zM409 534h-308v66h308v-66z" />
<glyph unicode="&#x102;" horiz-adv-x="798" d="M775 -3h-309v32h80l-67 197h-244l-36 -90q-19 -47 -19 -75q0 -11 5 -23q6 -9 64 -9v-32h-218v32q53 -2 73 11q25 16 55 96l217 572h88l235 -679h76v-32zM464 264l-100 294l-113 -294h213zM553 914q0 -66 -40 -109q-40 -46 -105 -46q-70 0 -110.5 43t-40.5 112l2 4h27 q18 -95 123 -95q97 0 115 95h27z" />
<glyph unicode="&#x103;" horiz-adv-x="515" d="M495 0h-204v81q-58 -65 -61 -65q-32 -27 -79 -27q-51 0 -85 29q-34 31 -34 90q0 75 61 115q44 27 127 42l71 16q3 144 -57 146q-61 3 -63 -53q-1 -6 1.5 -11.5t6 -10t7 -8.5t3.5 -7q6 -18 -23 -29q-13 -5 -24 -5q-26 0 -44 16t-18 42q2 60 68 89q45 21 97 21 q96 0 131 -44q34 -42 36 -166v-194q1 -34 36 -34h47v-33zM291 122v112q-14 -3 -36.5 -10t-53.5 -18q-44 -20 -46 -66q-5 -69 54 -69q20 0 42.5 14t39.5 37zM364 671q7 -138 -133 -138q-142 0 -131 137q5 5 16 5q12 1 20 -5q13 -75 96 -77q39 0 62 16.5t36 64.5q4 4 17 4 q13 -1 17 -7z" />
<glyph unicode="&#x104;" horiz-adv-x="798" d="M464 264l-100 294l-113 -294h213zM650 -3q-46 -61 -46 -96t55 -35q35 0 68 21l14 -20q-20 -23 -60 -42q-42 -20 -77 -20q-41 0 -60 24q-18 18 -18 45q0 65 76 123h-136v32h80l-67 197h-244l-36 -90q-19 -47 -19 -75q0 -11 5 -23q6 -9 64 -9v-32h-218v32q53 -2 73 11 q25 16 55 96l217 572h88l235 -679h76v-32h-125z" />
<glyph unicode="&#x105;" horiz-adv-x="515" d="M381 0q-48 -63 -48 -99q0 -35 55 -35q35 0 68 21l15 -20q-19 -22 -58 -42q-45 -20 -79 -20q-40 0 -61 24q-17 19 -17 45q0 33 25 70q23 33 54 56h-44v81q-58 -65 -61 -65q-32 -27 -79 -27q-51 0 -85 29q-34 31 -34 90q0 75 61 115q44 27 127 42l71 16q3 144 -57 146 q-61 3 -63 -53q-1 -6 1.5 -11.5t6 -10t7 -8.5t3.5 -7q6 -18 -23 -29q-13 -5 -24 -5q-26 0 -44 16t-18 42q2 60 68 89q45 21 97 21q96 0 131 -44q34 -42 36 -166v-194q1 -34 36 -34h47v-33h-114zM291 122v112q-14 -3 -36.5 -10t-53.5 -18q-44 -20 -46 -66q-5 -69 54 -69 q20 0 42.5 14t39.5 37z" />
<glyph unicode="&#x106;" horiz-adv-x="629" d="M617 127q-36 -65 -99 -103q-75 -43 -168 -40q-129 6 -225 110q-94 104 -94 250q2 159 97 261q45 48 100.5 72t121.5 27q169 6 238 -66v-161h-38q-6 81 -52 133q-54 63 -148 61q-95 -5 -135 -97q-34 -77 -34 -233q0 -75 9.5 -129.5t27.5 -91.5q40 -80 135 -96 q7 -1 14.5 -1.5t16.5 -0.5q69 0 136 46q31 20 50.5 42.5t30.5 46.5zM523 883q0 -30 -19 -40l-165 -101h-54l128 147q32 38 66 38q19 0 31.5 -13t12.5 -31z" />
<glyph unicode="&#x107;" horiz-adv-x="432" d="M149 258q0 -86 36 -140q42 -63 123 -63q40 0 82 19l12 -21q-47 -68 -153 -68q-112 0 -169 67q-53 59 -53 167q-1 111 83 183q73 62 162 65q51 3 83.5 -17t35.5 -58q1 -31 -20.5 -45t-51.5 -12q-7 1 -14.5 4.5t-13 8.5t-8.5 11t-1 12q1 3 5.5 7.5t8.5 9t7 10t2 11.5 q-5 18 -33 18q-43 -3 -78 -41q-45 -48 -45 -128zM363 675q0 -30 -19 -40l-165 -101h-54l128 147q32 38 66 38q19 0 31.5 -13t12.5 -31z" />
<glyph unicode="&#x108;" horiz-adv-x="629" d="M617 127q-36 -65 -99 -103q-75 -43 -168 -40q-129 6 -225 110q-94 104 -94 250q2 159 97 261q45 48 100.5 72t121.5 27q169 6 238 -66v-161h-38q-6 81 -52 133q-54 63 -148 61q-95 -5 -135 -97q-34 -77 -34 -233q0 -75 9.5 -129.5t27.5 -91.5q40 -80 135 -96 q7 -1 14.5 -1.5t16.5 -0.5q69 0 136 46q31 20 50.5 42.5t30.5 46.5zM539 742h-57l-112 97l-113 -97h-55l122 175h92z" />
<glyph unicode="&#x109;" horiz-adv-x="432" d="M149 258q0 -86 36 -140q42 -63 123 -63q40 0 82 19l12 -21q-47 -68 -153 -68q-112 0 -169 67q-53 59 -53 167q-1 111 83 183q73 62 162 65q51 3 83.5 -17t35.5 -58q1 -31 -20.5 -45t-51.5 -12q-7 1 -14.5 4.5t-13 8.5t-8.5 11t-1 12q1 3 5.5 7.5t8.5 9t7 10t2 11.5 q-5 18 -33 18q-43 -3 -78 -41q-45 -48 -45 -128zM399 535h-57l-112 97l-113 -97h-55l122 175h92z" />
<glyph unicode="&#x10a;" horiz-adv-x="629" d="M617 127q-36 -65 -99 -103q-75 -43 -168 -40q-129 6 -225 110q-94 104 -94 250q2 159 97 261q45 48 100.5 72t121.5 27q169 6 238 -66v-161h-38q-6 81 -52 133q-54 63 -148 61q-95 -5 -135 -97q-34 -77 -34 -233q0 -75 9.5 -129.5t27.5 -91.5q40 -80 135 -96 q7 -1 14.5 -1.5t16.5 -0.5q69 0 136 46q31 20 50.5 42.5t30.5 46.5zM369 741q-24 0 -40.5 15.5t-16.5 38.5t16.5 39t40.5 16q22 0 37.5 -16t15.5 -39t-15.5 -38.5t-37.5 -15.5z" />
<glyph unicode="&#x10b;" horiz-adv-x="432" d="M149 258q0 -86 36 -140q42 -63 123 -63q40 0 82 19l12 -21q-47 -68 -153 -68q-112 0 -169 67q-53 59 -53 167q-1 111 83 183q73 62 162 65q51 3 83.5 -17t35.5 -58q1 -31 -20.5 -45t-51.5 -12q-7 1 -14.5 4.5t-13 8.5t-8.5 11t-1 12q1 3 5.5 7.5t8.5 9t7 10t2 11.5 q-5 18 -33 18q-43 -3 -78 -41q-45 -48 -45 -128zM288 579q0 -49 -45 -49q-46 0 -47 45q-2 21 12 35t35 14q19 0 32 -14t13 -31z" />
<glyph unicode="&#x10c;" horiz-adv-x="629" d="M424 744h-93l-121 175h55l115 -111l110 111h57zM617 127q-36 -65 -99 -103q-75 -43 -168 -40q-129 6 -225 110q-94 104 -94 250q2 159 97 261q45 48 100.5 72t121.5 27q169 6 238 -66v-161h-38q-6 81 -52 133q-54 63 -148 61q-95 -5 -135 -97q-34 -77 -34 -233 q0 -75 9.5 -129.5t27.5 -91.5q40 -80 135 -96q7 -1 14.5 -1.5t16.5 -0.5q69 0 136 46q31 20 50.5 42.5t30.5 46.5z" />
<glyph unicode="&#x10d;" horiz-adv-x="432" d="M149 258q0 -86 36 -140q42 -63 123 -63q40 0 82 19l12 -21q-47 -68 -153 -68q-112 0 -169 67q-53 59 -53 167q-1 111 83 183q73 62 162 65q51 3 83.5 -17t35.5 -58q1 -31 -20.5 -45t-51.5 -12q-7 1 -14.5 4.5t-13 8.5t-8.5 11t-1 12q1 3 5.5 7.5t8.5 9t7 10t2 11.5 q-5 18 -33 18q-43 -3 -78 -41q-45 -48 -45 -128zM319 534h-92l-122 175h55l115 -111l110 111h57z" />
<glyph unicode="&#x10e;" horiz-adv-x="858" d="M795 369q0 -175 -127 -278q-118 -97 -289 -94q-159 3 -149 3h-114t-71 -1v37l38 2q35 2 42 16q5 12 5 75l-1 414q0 68 -7 81q-8 16 -40 17l-38 3v37l156 -3h45t75 1t79.5 1.5t57.5 0.5q338 0 338 -312zM645 350q0 151 -73 215q-72 66 -240 66q-34 0 -62 -3v-570 q14 -2 36 -3.5t51 -1.5q148 0 218 72.5t70 224.5zM410 745h-92l-122 175h55l115 -111l110 111h57z" />
<glyph unicode="&#x10f;" horiz-adv-x="622" d="M390 84q-54 -101 -156 -93q-91 6 -140 71q-46 58 -45 146q1 112 70 188q67 76 171 76q20 0 39.5 -5t40.5 -13l20 -7v178q-2 34 -34 34h-47v32h202v-633q4 -22 23 -22h54v-33h-198v81zM390 163v182q-44 63 -110 63q-115 0 -106 -157q11 -170 114 -170q19 0 37.5 6t32.5 17 t23 26t9 33zM753 655q0 -58 -35 -101q-25 -34 -87 -70l-20 32q80 51 86 95q2 17 -20 24q-11 -3 -40 1q-31 10 -29 58q1 26 20 41t43 15q36 0 59 -25t23 -70z" />
<glyph unicode="&#x110;" horiz-adv-x="858" d="M129 363v180q0 68 -7 81q-8 16 -40 17l-38 3v37l156 -3h45t75 1t79.5 1.5t57.5 0.5q338 0 338 -312q0 -175 -127 -278q-118 -97 -289 -94q-159 3 -149 3h-114t-71 -1v37l38 2q35 2 42 16q5 12 5 75v199h-85v35h84zM377 328h-107v-270q14 -2 36 -3.5t51 -1.5 q148 0 218 72.5t70 224.5q0 151 -73 215q-72 66 -240 66q-34 0 -62 -3v-265h107v-35z" />
<glyph unicode="&#x111;" horiz-adv-x="622" d="M511 538v-480q4 -22 23 -22h54v-33h-198v81q-54 -101 -156 -93q-91 6 -140 71q-46 58 -45 146q1 112 70 188q67 76 171 76q20 0 39.5 -5t40.5 -13l20 -7v91h-143v36h143v51q-2 34 -34 34h-47v32h202v-117h74v-36h-74zM390 163v182q-44 63 -110 63q-115 0 -106 -157 q11 -170 114 -170q19 0 37.5 6t32.5 17t23 26t9 33z" />
<glyph unicode="&#x112;" horiz-adv-x="731" d="M693 240l-12 -240h-630v31h94v628h-94v31h614l2 -202h-42q-5 40 -16 70t-32 50.5t-54 31t-81 10.5l-160 3v-283h118q43 0 62 25q24 31 24 93h37v-279h-37q0 60 -25 91t-61 31h-118v-293l181 2q28 0 67 15q41 15 60 34q61 56 65 151h38zM521 743h-308v66h308v-66z" />
<glyph unicode="&#x113;" horiz-adv-x="478" d="M445 227q0 2 -294 2q0 -75 41 -122q43 -52 120 -52q48 0 107 36l12 -16q-72 -89 -182 -90q-108 0 -166.5 60.5t-58.5 169.5q0 54 14 98t40 79q61 79 168 79q112 -2 158 -70q17 -26 27 -69t14 -105zM318 277q0 139 -85 139q-86 0 -86 -139q52 -2 171 0zM408 530h-308v66 h308v-66z" />
<glyph unicode="&#x114;" horiz-adv-x="731" d="M693 240l-12 -240h-630v31h94v628h-94v31h614l2 -202h-42q-5 40 -16 70t-32 50.5t-54 31t-81 10.5l-160 3v-283h118q43 0 62 25q24 31 24 93h37v-279h-37q0 60 -25 91t-61 31h-118v-293l181 2q28 0 67 15q41 15 60 34q61 56 65 151h38zM508 884q7 -138 -133 -138 q-142 0 -131 137q5 5 16 5q12 1 20 -5q13 -75 96 -77q39 0 62 16.5t36 64.5q4 4 17 4q13 -1 17 -7z" />
<glyph unicode="&#x115;" horiz-adv-x="478" d="M445 227q0 2 -294 2q0 -75 41 -122q43 -52 120 -52q48 0 107 36l12 -16q-72 -89 -182 -90q-108 0 -166.5 60.5t-58.5 169.5q0 54 14 98t40 79q61 79 168 79q112 -2 158 -70q17 -26 27 -69t14 -105zM318 277q0 139 -85 139q-86 0 -86 -139q52 -2 171 0zM374 671 q7 -138 -133 -138q-142 0 -131 137q5 5 16 5q12 1 20 -5q13 -75 96 -77q39 0 62 16.5t36 64.5q4 4 17 4q13 -1 17 -7z" />
<glyph unicode="&#x116;" horiz-adv-x="731" d="M693 240l-12 -240h-630v31h94v628h-94v31h614l2 -202h-42q-5 40 -16 70t-32 50.5t-54 31t-81 10.5l-160 3v-283h118q43 0 62 25q24 31 24 93h37v-279h-37q0 60 -25 91t-61 31h-118v-293l181 2q28 0 67 15q41 15 60 34q61 56 65 151h38zM359 745q-24 0 -40.5 15.5 t-16.5 38.5t16.5 39t40.5 16q22 0 37.5 -16t15.5 -39t-15.5 -38.5t-37.5 -15.5z" />
<glyph unicode="&#x117;" horiz-adv-x="478" d="M445 227q0 2 -294 2q0 -75 41 -122q43 -52 120 -52q48 0 107 36l12 -16q-72 -89 -182 -90q-108 0 -166.5 60.5t-58.5 169.5q0 54 14 98t40 79q61 79 168 79q112 -2 158 -70q17 -26 27 -69t14 -105zM318 277q0 139 -85 139q-86 0 -86 -139q52 -2 171 0zM280 577 q0 -49 -45 -49q-46 0 -47 45q-2 21 12 35t35 14q19 0 32 -14t13 -31z" />
<glyph unicode="&#x118;" horiz-adv-x="731" d="M396 0q-49 -62 -49 -99q0 -35 55 -35q34 0 69 21l15 -20q-19 -22 -61 -42t-78 -20q-39 0 -60 24q-16 17 -16 45q0 33 25 70q23 33 54 56h-299v31h94v628h-94v31h614l2 -202h-42q-5 40 -16 70t-32 50.5t-54 31t-81 10.5l-160 3v-283h118q43 0 62 25q24 31 24 93h37v-279 h-37q0 60 -25 91t-61 31h-118v-293l181 2q28 0 67 15q41 15 60 34q61 56 65 151h38l-12 -240h-285z" />
<glyph unicode="&#x119;" horiz-adv-x="478" d="M253 -15q-18 -26 -28 -47.5t-10 -36.5q0 -35 55 -35q35 0 68 21l15 -20q-19 -22 -61 -42t-77 -20q-39 0 -60 24q-17 19 -17 45q0 57 65 114q-87 13 -133 71.5t-46 155.5q0 54 14 98t40 79q61 79 168 79q112 -2 158 -70q17 -26 27 -69t14 -105q0 2 -294 2q0 -75 41 -122 q43 -52 120 -52q48 0 107 36l12 -16q-71 -87 -178 -90zM318 277q0 139 -85 139q-86 0 -86 -139q52 -2 171 0z" />
<glyph unicode="&#x11a;" horiz-adv-x="731" d="M693 240l-12 -240h-630v31h94v628h-94v31h614l2 -202h-42q-5 40 -16 70t-32 50.5t-54 31t-81 10.5l-160 3v-283h118q43 0 62 25q24 31 24 93h37v-279h-37q0 60 -25 91t-61 31h-118v-293l181 2q28 0 67 15q41 15 60 34q61 56 65 151h38zM398 745h-92l-121 175h55l115 -111 l110 111h57z" />
<glyph unicode="&#x11b;" horiz-adv-x="478" d="M445 227q0 2 -294 2q0 -75 41 -122q43 -52 120 -52q48 0 107 36l12 -16q-72 -89 -182 -90q-108 0 -166.5 60.5t-58.5 169.5q0 54 14 98t40 79q61 79 168 79q112 -2 158 -70q17 -26 27 -69t14 -105zM318 277q0 139 -85 139q-86 0 -86 -139q52 -2 171 0zM282 535h-92 l-122 175h55l115 -111l110 111h57z" />
<glyph unicode="&#x11c;" horiz-adv-x="756" d="M707 238h-41v-193q-104 -43 -113 -44q-31 -8 -75 -12t-101 -4q-131 0 -225 106q-96 106 -95 252q1 160 96 261q92 97 224 98q166 6 238 -66v-160h-38q-7 86 -59 139q-54 56 -141 53q-95 -3 -136 -95q-33 -80 -33 -234q0 -157 33 -230q39 -89 137 -87q124 3 154 43v170 h-110v41h285v-38zM569 734h-57l-112 97l-113 -97h-55l122 175h92z" />
<glyph unicode="&#x11d;" horiz-adv-x="556" d="M334 298q0 123 -82 123q-81 0 -81 -107q0 -122 83 -122q80 0 80 106zM424 -123q0 47 -42 70q-22 9 -69 17q-20 4 -53 6.5t-79 4.5q-23 -8 -41 -30t-18 -54q0 -56 51 -84q20 -10 45.5 -15.5t56.5 -5.5q149 0 149 91zM267 471h3l250 -1l-22 -61l-102 17q29 -16 45 -43.5 t17 -68.5q1 -75 -69 -126q-62 -42 -145 -42q-11 0 -22 0.5t-22 1.5q-29 -17 -29 -39q0 -26 46 -30q29 -2 73.5 -5t105.5 -8q139 -10 139 -127q0 -111 -91 -160q-36 -22 -86 -32.5t-113 -10.5q-88 0 -143 30q-72 37 -74 117q-1 73 106 105q-67 15 -67 62q0 71 87 106 q-48 12 -76.5 49t-28.5 85q0 81 66 136q57 45 152 45zM424 530h-57l-112 97l-113 -97h-55l122 175h92z" />
<glyph unicode="&#x11e;" horiz-adv-x="756" d="M707 238h-41v-193q-104 -43 -113 -44q-31 -8 -75 -12t-101 -4q-131 0 -225 106q-96 106 -95 252q1 160 96 261q92 97 224 98q166 6 238 -66v-160h-38q-7 86 -59 139q-54 56 -141 53q-95 -3 -136 -95q-33 -80 -33 -234q0 -157 33 -230q39 -89 137 -87q124 3 154 43v170 h-110v41h285v-38zM531 884q7 -138 -133 -138q-142 0 -131 137q5 5 16 5q12 1 20 -5q13 -75 96 -77q39 0 62 16.5t36 64.5q4 4 17 4q13 -1 17 -7z" />
<glyph unicode="&#x11f;" horiz-adv-x="556" d="M334 298q0 123 -82 123q-81 0 -81 -107q0 -122 83 -122q80 0 80 106zM424 -123q0 47 -42 70q-22 9 -69 17q-20 4 -53 6.5t-79 4.5q-23 -8 -41 -30t-18 -54q0 -56 51 -84q20 -10 45.5 -15.5t56.5 -5.5q149 0 149 91zM267 471h3l250 -1l-22 -61l-102 17q29 -16 45 -43.5 t17 -68.5q1 -75 -69 -126q-62 -42 -145 -42q-11 0 -22 0.5t-22 1.5q-29 -17 -29 -39q0 -26 46 -30q29 -2 73.5 -5t105.5 -8q139 -10 139 -127q0 -111 -91 -160q-36 -22 -86 -32.5t-113 -10.5q-88 0 -143 30q-72 37 -74 117q-1 73 106 105q-67 15 -67 62q0 71 87 106 q-48 12 -76.5 49t-28.5 85q0 81 66 136q57 45 152 45zM384 676q7 -138 -133 -138q-142 0 -131 137q5 5 16 5q12 1 20 -5q13 -75 96 -77q39 0 62 16.5t36 64.5q4 4 17 4q13 -1 17 -7z" />
<glyph unicode="&#x120;" horiz-adv-x="756" d="M707 238h-41v-193q-104 -43 -113 -44q-31 -8 -75 -12t-101 -4q-131 0 -225 106q-96 106 -95 252q1 160 96 261q92 97 224 98q166 6 238 -66v-160h-38q-7 86 -59 139q-54 56 -141 53q-95 -3 -136 -95q-33 -80 -33 -234q0 -157 33 -230q39 -89 137 -87q124 3 154 43v170 h-110v41h285v-38zM396 745q-24 0 -40.5 15.5t-16.5 38.5t16.5 39t40.5 16q22 0 37.5 -16t15.5 -39t-15.5 -38.5t-37.5 -15.5z" />
<glyph unicode="&#x121;" horiz-adv-x="556" d="M334 298q0 123 -82 123q-81 0 -81 -107q0 -122 83 -122q80 0 80 106zM424 -123q0 47 -42 70q-22 9 -69 17q-20 4 -53 6.5t-79 4.5q-23 -8 -41 -30t-18 -54q0 -56 51 -84q20 -10 45.5 -15.5t56.5 -5.5q149 0 149 91zM267 471h3l250 -1l-22 -61l-102 17q29 -16 45 -43.5 t17 -68.5q1 -75 -69 -126q-62 -42 -145 -42q-11 0 -22 0.5t-22 1.5q-29 -17 -29 -39q0 -26 46 -30q29 -2 73.5 -5t105.5 -8q139 -10 139 -127q0 -111 -91 -160q-36 -22 -86 -32.5t-113 -10.5q-88 0 -143 30q-72 37 -74 117q-1 73 106 105q-67 15 -67 62q0 71 87 106 q-48 12 -76.5 49t-28.5 85q0 81 66 136q57 45 152 45zM295 578q0 -49 -45 -49q-46 0 -47 45q-2 21 12 35t35 14q19 0 32 -14t13 -31z" />
<glyph unicode="&#x122;" horiz-adv-x="756" d="M707 238h-41v-193q-104 -43 -113 -44q-31 -8 -75 -12t-101 -4q-131 0 -225 106q-96 106 -95 252q1 160 96 261q92 97 224 98q166 6 238 -66v-160h-38q-7 86 -59 139q-54 56 -141 53q-95 -3 -136 -95q-33 -80 -33 -234q0 -157 33 -230q39 -89 137 -87q124 3 154 43v170 h-110v41h285v-38zM336 -308l-4 20q86 14 86 64q0 14 -21 16q-65 3 -65 60q0 26 17.5 41t44.5 15q67 0 67 -80q0 -125 -125 -136z" />
<glyph unicode="&#x123;" horiz-adv-x="556" d="M334 298q0 123 -82 123q-81 0 -81 -107q0 -122 83 -122q80 0 80 106zM424 -123q0 47 -42 70q-22 9 -69 17q-20 4 -53 6.5t-79 4.5q-23 -8 -41 -30t-18 -54q0 -56 51 -84q20 -10 45.5 -15.5t56.5 -5.5q149 0 149 91zM267 471h3l250 -1l-22 -61l-102 17q29 -16 45 -43.5 t17 -68.5q1 -75 -69 -126q-62 -42 -145 -42q-11 0 -22 0.5t-22 1.5q-29 -17 -29 -39q0 -26 46 -30q29 -2 73.5 -5t105.5 -8q139 -10 139 -127q0 -111 -91 -160q-36 -22 -86 -32.5t-113 -10.5q-88 0 -143 30q-72 37 -74 117q-1 73 106 105q-67 15 -67 62q0 71 87 106 q-48 12 -76.5 49t-28.5 85q0 81 66 136q57 45 152 45zM311 702q-76 -13 -76 -57q0 -15 16 -15q29 -1 44.5 -17t15.5 -36q0 -22 -16 -36.5t-39 -14.5q-28 0 -45 20q-20 25 -20 56q0 21 8 41.5t23 36.5t36.5 26.5t48.5 12.5z" />
<glyph unicode="&#x124;" horiz-adv-x="775" d="M765 0h-325v31h94v315h-260v-315h94v-31h-324v31h93v628h-93v31h324v-31h-94v-278h260v278h-94v31h325v-31h-93v-628h93v-31zM574 739h-57l-112 97l-113 -97h-55l122 175h92z" />
<glyph unicode="&#x125;" horiz-adv-x="623" d="M291 0h-272v33h57q11 0 18 6t7 17v582q-3 34 -35 34h-48v33h207v-318l1 2q8 25 42 49q51 37 116 33q38 -3 65.5 -12.5t44.5 -27.5q37 -40 37 -148l2 -227q0 -11 6.5 -17t15.5 -6h55v-33h-272v33h45q9 0 17 5.5t8 17.5v209q0 34 -7 57.5t-19 37t-27.5 19.5t-31.5 6 q-66 0 -97 -70q-1 3 -1 -40.5v-143.5v-75q0 -11 6.5 -17t16.5 -6h43v-33zM327 747h-57l-112 97l-113 -97h-55l122 175h92z" />
<glyph unicode="&#x126;" horiz-adv-x="808" d="M275 494v-113h260v113h-260zM766 0h-325v31h94v315h-260v-315h94v-31h-324v31h93v463h-78v37h78v128h-93v31h324v-31h-94v-128h260v128h-94v31h325v-31h-93v-128h76v-37h-76v-463h93v-31z" />
<glyph unicode="&#x127;" horiz-adv-x="623" d="M225 531v-144l1 2q8 25 42 49q51 37 116 33q38 -3 65.5 -12.5t44.5 -27.5q37 -40 37 -148l2 -227q0 -11 6.5 -17t15.5 -6h55v-33h-272v33h45q9 0 17 5.5t8 17.5v209q0 34 -7 57.5t-19 37t-27.5 19.5t-31.5 6h-9t-9 -1q-53 -9 -79 -69q-1 3 -1 -40.5v-143.5v-75 q0 -11 6.5 -17t16.5 -6h43v-33h-272v33h57q11 0 18 6t7 17v475h-71v44h71v63q-3 34 -35 34h-48v33h207v-130h116v-44h-116z" />
<glyph unicode="&#x128;" horiz-adv-x="418" d="M373 0h-324v31h93v628h-93v31h324v-31h-92v-628h92v-31zM392 881q-30 -126 -121 -126q-28 0 -79 24q-50 25 -78 25q-34 0 -47 -48h-40q2 38 27 77q34 48 92 48q27 0 77 -24q49 -24 74 -24q20 0 34 15q6 7 18 33h43z" />
<glyph unicode="&#x129;" horiz-adv-x="338" d="M316 -4h-279v32h58q18 0 23 23v337q-1 35 -34 35h-47v32h202v-404q3 -23 23 -23h54v-32zM339 669q-30 -126 -121 -126q-28 0 -79 24q-50 25 -78 25q-34 0 -47 -48h-40q2 38 27 77q34 48 92 48q27 0 77 -24q49 -24 74 -24q20 0 34 15q6 7 18 33h43z" />
<glyph unicode="&#x12a;" horiz-adv-x="418" d="M373 0h-324v31h93v628h-93v31h324v-31h-92v-628h92v-31zM363 746h-308v66h308v-66z" />
<glyph unicode="&#x12b;" horiz-adv-x="338" d="M307 0h-279v32h58q18 0 23 23v337q-1 35 -34 35h-47v32h202v-404q3 -23 23 -23h54v-32zM308 534h-308v66h308v-66z" />
<glyph unicode="&#x12c;" horiz-adv-x="418" d="M373 0h-324v31h93v628h-93v31h324v-31h-92v-628h92v-31zM342 886q7 -138 -133 -138q-142 0 -131 137q5 5 16 5q12 1 20 -5q13 -75 96 -77q39 0 62 16.5t36 64.5q4 4 17 4q13 -1 17 -7z" />
<glyph unicode="&#x12d;" horiz-adv-x="338" d="M307 0h-279v32h58q18 0 23 23v337q-1 35 -34 35h-47v32h202v-404q3 -23 23 -23h54v-32zM297 676q7 -138 -133 -138q-142 0 -131 137q5 5 16 5q12 1 20 -5q13 -75 96 -77q39 0 62 16.5t36 64.5q4 4 17 4q13 -1 17 -7z" />
<glyph unicode="&#x12e;" horiz-adv-x="418" d="M241 0q-49 -62 -49 -99q0 -35 55 -35q34 0 69 21l15 -20q-19 -22 -61 -42t-78 -20q-39 0 -60 24q-16 17 -16 45q0 33 25 70q11 16 24 30t29 26h-145v31h93v628h-93v31h324v-31h-92v-628h92v-31h-132z" />
<glyph unicode="&#x12f;" horiz-adv-x="320" d="M194 0q-49 -62 -49 -99q0 -35 55 -35q34 0 69 21l15 -20q-19 -22 -61 -42t-78 -20q-39 0 -60 24q-16 17 -16 45q0 33 25 70q23 33 54 56h-120v32h58q10 0 16.5 6t6.5 17v337q-1 35 -34 35h-47v32h202v-404q0 -11 6.5 -17t16.5 -6h54v-32h-113zM241 628q0 -15 -6 -28 t-16 -23t-24 -16t-29 -6t-28.5 6t-24 16t-16.5 23t-6 28q0 33 22 54.5t53 21.5q33 0 54 -21.5t21 -54.5z" />
<glyph unicode="&#x130;" horiz-adv-x="418" d="M373 0h-324v31h93v628h-93v31h324v-31h-92v-628h92v-31zM215 744q-24 0 -40.5 15.5t-16.5 38.5t16.5 39t40.5 16q22 0 37.5 -16t15.5 -39t-15.5 -38.5t-37.5 -15.5z" />
<glyph unicode="&#x131;" horiz-adv-x="320" d="M307 0h-279v32h58q18 0 23 23v337q-1 35 -34 35h-47v32h202v-404q3 -23 23 -23h54v-32z" />
<glyph unicode="&#x132;" horiz-adv-x="418" d="M373 0h-324v31h93v628h-93v31h324v-31h-92v-628h92v-31zM741 657h-96v-562q0 -151 -67 -241q-51 -61 -138 -69q-28 -1 -44 18.5t-16 45.5q0 45 43 55q18 2 45 -15q16 -10 25 -8q12 2 16 19q5 13 5 72v685h-96v33h323v-33z" />
<glyph unicode="&#x133;" horiz-adv-x="320" d="M241 628q0 -15 -6 -28t-16 -23t-24 -16t-29 -6t-28.5 6t-24 16t-16.5 23t-6 28q0 33 22 54.5t53 21.5q33 0 54 -21.5t21 -54.5zM307 0h-279v32h58q18 0 23 23v337q-1 35 -34 35h-47v32h202v-404q3 -23 23 -23h54v-32zM520 630q0 -29 -22.5 -50.5t-52.5 -21.5 q-29 0 -51.5 21.5t-22.5 50.5q0 33 21 54.5t53 21.5q31 0 53 -21.5t22 -54.5zM522 102q0 -56 -2.5 -97t-7.5 -69q-10 -69 -46 -119q-63 -82 -156 -85v27q34 10 50 26t27 51q14 50 14 132v425q-1 34 -33 34h-47v32h200v-62z" />
<glyph unicode="&#x134;" horiz-adv-x="346" d="M337 657h-96v-562q0 -151 -67 -241q-51 -61 -138 -69q-28 -1 -44 18.5t-16 45.5q0 45 43 55q18 2 45 -15q16 -10 25 -8q12 2 16 19q5 13 5 72v685h-96v33h323v-33zM351 737h-57l-112 97l-113 -97h-55l122 175h92z" />
<glyph unicode="&#x135;" horiz-adv-x="237" d="M295 539h-57l-111 97l-114 -97h-55l121 175h93zM201 102q0 -56 -2.5 -97t-7.5 -69q-10 -69 -46 -119q-63 -82 -156 -85v27q34 10 50 26t27 51q14 50 14 132v425q-1 34 -33 34h-47v32h200v-62z" />
<glyph unicode="&#x136;" horiz-adv-x="822" d="M794 0h-344v31q72 0 72 27q0 12 -11 31l-147 257l-103 -115v-200h94v-31h-324v31h93v628h-93v31h324v-31h-94v-365l266 294q19 20 19 37q0 10 -8 23q-7 13 -64 11v31h256v-31q-64 0 -86 -14q-27 -15 -82 -77l-101 -114l213 -366q7 -15 16.5 -31t25.5 -22q9 -4 78 -4v-31z M346 -317l-4 20q86 14 86 64q0 14 -21 16q-65 3 -65 60q0 26 17.5 41t44.5 15q67 0 67 -80q0 -125 -125 -136z" />
<glyph unicode="&#x137;" horiz-adv-x="630" d="M301 0h-279v32h59q19 0 22 23v69l-1 501q-2 33 -34 33h-47v33h203v-442q16 12 38 31.5t50 46.5q29 27 49.5 46t34.5 30q9 9 9 16q0 9 -16 9h-58v31h242v-31l-46 -1q-35 -2 -82 -52l-98 -93q33 -35 64.5 -70.5t63.5 -70.5q99 -107 112 -107h35v-33h-280v33q16 -3 25 0 q20 1 20 15q0 7 -8 17l-155 168v-179q3 -23 22 -23h55v-32zM250 -299l-5 17q78 19 78 58q0 13 -18 15q-59 2 -59 52q0 24 15.5 38t39.5 14q30 0 46 -21t16 -52q0 -110 -113 -121z" />
<glyph unicode="&#x139;" horiz-adv-x="729" d="M686 240l-12 -240h-630v31h94v628h-94v31h326v-31h-95v-621l181 2q28 0 67 15q41 15 60 34q61 56 65 151h38zM414 881q0 -30 -19 -40l-165 -101h-54l128 147q32 38 66 38q19 0 31.5 -13t12.5 -31z" />
<glyph unicode="&#x13a;" horiz-adv-x="320" d="M307 0h-279v32h59q17 0 22 23v69l-1 500q-3 34 -34 34h-47v32h203v-635q5 -23 22 -23h55v-32zM365 886q0 -30 -19 -40l-165 -101h-54l128 147q32 38 66 38q19 0 31.5 -13t12.5 -31z" />
<glyph unicode="&#x13b;" horiz-adv-x="729" d="M686 240l-12 -240h-630v31h94v628h-94v31h326v-31h-95v-621l181 2q28 0 67 15q41 15 60 34q61 56 65 151h38zM297 -317l-4 20q86 14 86 64q0 14 -21 16q-65 3 -65 60q0 26 17.5 41t44.5 15q67 0 67 -80q0 -125 -125 -136z" />
<glyph unicode="&#x13c;" horiz-adv-x="320" d="M307 0h-279v32h59q17 0 22 23v69l-1 500q-3 34 -34 34h-47v32h203v-635q5 -23 22 -23h55v-32zM116 -311l-5 17q78 19 78 58q0 13 -18 15q-59 2 -59 52q0 24 15.5 38t39.5 14q30 0 46 -21t16 -52q0 -110 -113 -121z" />
<glyph unicode="&#x13d;" horiz-adv-x="729" d="M686 240l-12 -240h-630v31h94v628h-94v31h326v-31h-95v-621l181 2q28 0 67 15q41 15 60 34q61 56 65 151h38zM658 649q0 -58 -35 -101q-25 -34 -87 -70l-20 32q80 51 86 95q2 17 -20 24q-11 -3 -40 1q-31 10 -29 58q1 26 20 41t43 15q36 0 59 -25t23 -70z" />
<glyph unicode="&#x13e;" horiz-adv-x="320" d="M307 0h-279v32h59q17 0 22 23v69l-1 500q-3 34 -34 34h-47v32h203v-635q5 -23 22 -23h55v-32zM466 647q0 -58 -35 -101q-25 -34 -87 -70l-20 32q80 51 86 95q2 17 -20 24q-11 -3 -40 1q-31 10 -29 58q1 26 20 41t43 15q36 0 59 -25t23 -70z" />
<glyph unicode="&#x13f;" horiz-adv-x="729" d="M686 240l-12 -240h-630v31h94v628h-94v31h326v-31h-95v-621l181 2q28 0 67 15q41 15 60 34q61 56 65 151h38zM488 318q-24 0 -40.5 15.5t-16.5 38.5t16.5 39t40.5 16q22 0 37.5 -16t15.5 -39t-15.5 -38.5t-37.5 -15.5z" />
<glyph unicode="&#x140;" horiz-adv-x="320" d="M307 0h-279v32h59q17 0 22 23v69l-1 500q-3 34 -34 34h-47v32h203v-635q5 -23 22 -23h55v-32zM382 363q0 -49 -45 -49q-46 0 -47 45q-2 21 12 35t35 14q19 0 32 -14t13 -31z" />
<glyph unicode="&#x141;" horiz-adv-x="720" d="M414 513q5 -8 9 -15t8 -15l-161 -98v-347l181 2q28 0 67 15q41 15 60 34q61 56 65 151h38l-12 -240h-630v31h94v273l-99 -60q0 -3 -10 11q-9 16 -9 18l118 71v315h-94v31h326v-31h-95v-233z" />
<glyph unicode="&#x142;" horiz-adv-x="335" d="M309 0h-278v31h79v314l-71 -41l-18 31l89 50v268q-32 -8 -71 -10v35q20 2 48 7t66 13l71 22l9 -6v-260l90 51l12 -30l-102 -59v-385h76v-31z" />
<glyph unicode="&#x143;" horiz-adv-x="741" d="M716 659q-58 0 -68 -10q-26 -26 -26 -76v-589h-25l-424 654v-520q0 -53 25 -77q10 -10 69 -10v-31h-225v31q55 0 66 9q28 25 28 78v520q-2 21 -30 21h-55v31h258l277 -426v309q0 51 -29 77q-11 9 -66 9v31h225v-31zM621 883q0 -30 -19 -40l-165 -101h-54l128 147 q32 38 66 38q19 0 31.5 -13t12.5 -31z" />
<glyph unicode="&#x144;" horiz-adv-x="618" d="M516 286l2 -231q3 -23 23 -23h54v-32h-267v32h46q18 0 23 23q-1 32 -1 85.5v128.5q0 66 -27 93q-11 11 -29.5 17.5t-44.5 4.5t-45 -17.5t-32 -49.5l-1 -262q5 -23 23 -23h42v-32h-267v32h59q19 0 22 23v70v86.5t-1 179.5q-1 35 -34 35h-47v33h203v-70q47 83 155 81 q71 -2 107 -40q37 -37 37 -144zM484 675q0 -30 -19 -40l-165 -101h-54l128 147q32 38 66 38q19 0 31.5 -13t12.5 -31z" />
<glyph unicode="&#x145;" horiz-adv-x="741" d="M716 659q-58 0 -68 -10q-26 -26 -26 -76v-589h-25l-424 654v-520q0 -53 25 -77q10 -10 69 -10v-31h-225v31q55 0 66 9q28 25 28 78v520q-2 21 -30 21h-55v31h258l277 -426v309q0 51 -29 77q-11 9 -66 9v31h225v-31zM320 -318l-4 20q86 14 86 64q0 14 -21 16q-65 3 -65 60 q0 26 17.5 41t44.5 15q67 0 67 -80q0 -125 -125 -136z" />
<glyph unicode="&#x146;" horiz-adv-x="618" d="M516 286l2 -231q3 -23 23 -23h54v-32h-267v32h46q18 0 23 23q-1 32 -1 85.5v128.5q0 66 -27 93q-11 11 -29.5 17.5t-44.5 4.5t-45 -17.5t-32 -49.5l-1 -262q5 -23 23 -23h42v-32h-267v32h59q19 0 22 23v70v86.5t-1 179.5q-1 35 -34 35h-47v33h203v-70q47 83 155 81 q71 -2 107 -40q37 -37 37 -144zM252 -316l-5 17q78 19 78 58q0 13 -18 15q-59 2 -59 52q0 24 15.5 38t39.5 14q30 0 46 -21t16 -52q0 -110 -113 -121z" />
<glyph unicode="&#x147;" horiz-adv-x="741" d="M716 659q-58 0 -68 -10q-26 -26 -26 -76v-589h-25l-424 654v-520q0 -53 25 -77q10 -10 69 -10v-31h-225v31q55 0 66 9q28 25 28 78v520q-2 21 -30 21h-55v31h258l277 -426v309q0 51 -29 77q-11 9 -66 9v31h225v-31zM445 739h-92l-122 175h55l115 -111l110 111h57z" />
<glyph unicode="&#x148;" horiz-adv-x="618" d="M516 286l2 -231q3 -23 23 -23h54v-32h-267v32h46q18 0 23 23q-1 32 -1 85.5v128.5q0 66 -27 93q-11 11 -29.5 17.5t-44.5 4.5t-45 -17.5t-32 -49.5l-1 -262q5 -23 23 -23h42v-32h-267v32h59q19 0 22 23v70v86.5t-1 179.5q-1 35 -34 35h-47v33h203v-70q47 83 155 81 q71 -2 107 -40q37 -37 37 -144zM327 530h-92l-122 175h55l115 -111l110 111h57z" />
<glyph unicode="&#x149;" horiz-adv-x="618" d="M516 286l2 -231q3 -23 23 -23h54v-32h-267v32h46q18 0 23 23q-1 32 -1 85.5v128.5q0 66 -27 93q-11 11 -29.5 17.5t-44.5 4.5t-45 -17.5t-32 -49.5l-1 -262q5 -23 23 -23h42v-32h-267v32h59q19 0 22 23v70v86.5t-1 179.5q-1 35 -34 35h-47v33h203v-70q47 83 155 81 q71 -2 107 -40q37 -37 37 -144zM244 688q0 -58 -35 -101q-25 -34 -87 -70l-20 32q80 51 86 95q2 17 -20 24q-11 -3 -40 1q-31 10 -29 58q1 26 20 41t43 15q36 0 59 -25t23 -70z" />
<glyph unicode="&#x14a;" horiz-adv-x="738" d="M713 659q-58 0 -68 -10q-26 -26 -26 -76v-568q2 -146 -25 -178q-37 -43 -88 -43q-33 0 -65 20q-15 10 -15 27q0 18 12 31.5t28 11.5q3 -3 24 -7l17.5 -3.5t13.5 -1.5q29 0 46 23t17 105l-414 648v-520q0 -53 25 -77q10 -10 69 -10v-31h-225v31q55 0 66 9q28 25 28 78v520 q-2 21 -30 21h-55v31h258l277 -426v309q0 51 -29 77q-11 9 -66 9v31h225v-31z" />
<glyph unicode="&#x14b;" horiz-adv-x="560" d="M396 270q0 65 -27 92q-11 11 -29.5 17.5t-44.5 4.5t-45 -17.5t-32 -49.5l-1 -262q5 -23 23 -23h42v-32h-267v32h59q19 0 22 23v70v86.5t-1 179.5q-1 35 -34 35h-47v33h203v-70q47 83 155 81q71 -2 107 -40q37 -37 37 -144v-290q0 -60 -15 -106t-41 -79q-15 -19 -34 -33 t-39.5 -23.5t-42 -14t-40.5 -4.5l-10 35q19 0 32 4t20 8q14 8 20 16.5t11 18.5q11 24 15.5 70t4.5 119z" />
<glyph unicode="&#x14c;" horiz-adv-x="747" d="M692 339q0 -149 -94 -252q-93 -103 -224 -103q-130 0 -226 107t-95 254q1 160 96 264q93 97 225 97q143 0 230 -101q88 -100 88 -266zM540 336q0 161 -30 238q-38 99 -136 99q-95 0 -136 -95q-34 -78 -34 -237t34 -231q40 -87 137 -87q93 0 133 88q32 75 32 225zM527 746 h-308v66h308v-66z" />
<glyph unicode="&#x14d;" horiz-adv-x="539" d="M509 239q0 -123 -64 -188.5t-188 -65.5q-112 0 -170 68q-53 63 -53 173q0 118 62.5 181.5t181.5 63.5q113 0 172 -60t59 -172zM373 198q0 225 -104 225q-99 0 -99 -173q0 -217 109 -217q94 0 94 165zM422 531h-308v66h308v-66z" />
<glyph unicode="&#x14e;" horiz-adv-x="747" d="M692 339q0 -149 -94 -252q-93 -103 -224 -103q-130 0 -226 107t-95 254q1 160 96 264q93 97 225 97q143 0 230 -101q88 -100 88 -266zM540 336q0 161 -30 238q-38 99 -136 99q-95 0 -136 -95q-34 -78 -34 -237t34 -231q40 -87 137 -87q93 0 133 88q32 75 32 225zM505 884 q7 -138 -133 -138q-142 0 -131 137q5 5 16 5q12 1 20 -5q13 -75 96 -77q39 0 62 16.5t36 64.5q4 4 17 4q13 -1 17 -7z" />
<glyph unicode="&#x14f;" horiz-adv-x="539" d="M509 239q0 -123 -64 -188.5t-188 -65.5q-112 0 -170 68q-53 63 -53 173q0 118 62.5 181.5t181.5 63.5q113 0 172 -60t59 -172zM373 198q0 225 -104 225q-99 0 -99 -173q0 -217 109 -217q94 0 94 165zM416 674q7 -138 -133 -138q-142 0 -131 137q5 5 16 5q12 1 20 -5 q13 -75 96 -77q39 0 62 16.5t36 64.5q4 4 17 4q13 -1 17 -7z" />
<glyph unicode="&#x150;" horiz-adv-x="747" d="M692 339q0 -149 -94 -252q-93 -103 -224 -103q-130 0 -226 107t-95 254q1 160 96 264q93 97 225 97q143 0 230 -101q88 -100 88 -266zM540 336q0 161 -30 238q-38 99 -136 99q-95 0 -136 -95q-34 -78 -34 -237t34 -231q40 -87 137 -87q93 0 133 88q32 75 32 225zM657 908 q0 -25 -19 -40l-153 -126h-53l115 172q26 38 66 38q19 0 31.5 -13t12.5 -31zM657 908q0 -25 -19 -40l-153 -126h-53l115 172q26 38 66 38q19 0 31.5 -13t12.5 -31zM452 911q0 -24 -19 -40l-153 -127h-54l116 174q25 36 66 36q19 0 31.5 -12.5t12.5 -30.5zM452 911 q0 -24 -19 -40l-153 -127h-54l116 174q25 36 66 36q19 0 31.5 -12.5t12.5 -30.5z" />
<glyph unicode="&#x151;" horiz-adv-x="539" d="M509 239q0 -123 -64 -188.5t-188 -65.5q-112 0 -170 68q-53 63 -53 173q0 118 62.5 181.5t181.5 63.5q113 0 172 -60t59 -172zM373 198q0 225 -104 225q-99 0 -99 -173q0 -217 109 -217q94 0 94 165zM550 700q0 -25 -19 -40l-153 -126h-53l115 172q26 38 66 38 q19 0 31.5 -13t12.5 -31zM550 700q0 -25 -19 -40l-153 -126h-53l115 172q26 38 66 38q19 0 31.5 -13t12.5 -31zM345 703q0 -24 -19 -40l-153 -127h-54l116 174q25 36 66 36q19 0 31.5 -12.5t12.5 -30.5zM345 703q0 -24 -19 -40l-153 -127h-54l116 174q25 36 66 36 q19 0 31.5 -12.5t12.5 -30.5z" />
<glyph unicode="&#x152;" horiz-adv-x="1075" d="M1045 240l-12 -240l-445 -1q-17 0 -44.5 -1.5t-65.5 -5.5q-42 -4 -66.5 -5.5t-33.5 -2.5q-132 -5 -231 105q-98 111 -97 259q1 160 96 261q90 96 235 104q35 1 106 -11q69 -12 96 -12h435l1 -202h-41q-11 80 -49 120q-39 40 -135 42l-160 3v-283h117q44 0 63 25 q24 31 24 93h37v-279h-37q0 60 -24.5 91t-62.5 31h-117v-293l181 2q28 0 67 15t61 34q59 56 63 151h39zM498 95v503q-7 11 -14 19.5t-15 16.5q-37 37 -86 39q-104 5 -147 -89q-35 -79 -35 -236q0 -161 32 -234q40 -91 145 -91q76 0 120 72z" />
<glyph unicode="&#x153;" horiz-adv-x="833" d="M448 43q-32 -28 -76 -43t-101 -15q-112 0 -170 68q-53 63 -53 173q0 118 62.5 181.5t181.5 63.5q108 0 167 -54q57 54 146 54q112 -2 158 -70q17 -26 27 -69t14 -105q0 2 -294 2q0 -75 41 -122q43 -52 120 -52q48 0 107 36l12 -16q-72 -89 -182 -90q-52 0 -91.5 15.5 t-68.5 42.5zM387 198q0 225 -104 225q-99 0 -99 -173q0 -217 109 -217q94 0 94 165zM677 277q0 139 -85 139q-86 0 -86 -139q52 -2 171 0z" />
<glyph unicode="&#x154;" horiz-adv-x="716" d="M708 0l-261 -1v33h29q13 3 13 11q0 6 -5 11q-39 48 -86.5 116t-103.5 158h-30v-296h93v-32h-324v32h94v627h-94v31h350q123 0 188 -50q61 -46 61 -127q0 -76 -65 -129q-54 -45 -119 -51l205 -279q14 -19 55 -24v-30zM502 514q-6 145 -130 145h-108v-302h87q33 0 61 11.5 t48 32t31 49.5t11 64zM436 886q0 -30 -19 -40l-165 -101h-54l128 147q32 38 66 38q19 0 31.5 -13t12.5 -31z" />
<glyph unicode="&#x155;" horiz-adv-x="456" d="M305 0h-278v32h57q19 0 24 23v336q-1 35 -34 35h-47v32h201v-90q65 103 138 104q37 1 56.5 -20.5t19.5 -51.5q0 -26 -16.5 -48.5t-45.5 -27.5q-21 45 -67 44q-41 -1 -85 -82v-231q5 -23 23 -23h54v-32zM385 672q0 -30 -19 -40l-165 -101h-54l128 147q32 38 66 38 q19 0 31.5 -13t12.5 -31z" />
<glyph unicode="&#x156;" horiz-adv-x="716" d="M708 0l-261 -1v33h29q13 3 13 11q0 6 -5 11q-39 48 -86.5 116t-103.5 158h-30v-296h93v-32h-324v32h94v627h-94v31h350q123 0 188 -50q61 -46 61 -127q0 -76 -65 -129q-54 -45 -119 -51l205 -279q14 -19 55 -24v-30zM502 514q-6 145 -130 145h-108v-302h87q33 0 61 11.5 t48 32t31 49.5t11 64zM321 -317l-4 20q86 14 86 64q0 14 -21 16q-65 3 -65 60q0 26 17.5 41t44.5 15q67 0 67 -80q0 -125 -125 -136z" />
<glyph unicode="&#x157;" horiz-adv-x="456" d="M305 0h-278v32h57q19 0 24 23v336q-1 35 -34 35h-47v32h201v-90q65 103 138 104q37 1 56.5 -20.5t19.5 -51.5q0 -26 -16.5 -48.5t-45.5 -27.5q-21 45 -67 44q-41 -1 -85 -82v-231q5 -23 23 -23h54v-32zM120 -300l-5 17q78 19 78 58q0 13 -18 15q-59 2 -59 52 q0 24 15.5 38t39.5 14q30 0 46 -21t16 -52q0 -110 -113 -121z" />
<glyph unicode="&#x158;" horiz-adv-x="716" d="M708 0l-261 -1v33h29q13 3 13 11q0 6 -5 11q-39 48 -86.5 116t-103.5 158h-30v-296h93v-32h-324v32h94v627h-94v31h350q123 0 188 -50q61 -46 61 -127q0 -76 -65 -129q-54 -45 -119 -51l205 -279q14 -19 55 -24v-30zM502 514q-6 145 -130 145h-108v-302h87q33 0 61 11.5 t48 32t31 49.5t11 64zM352 742h-92l-122 175h55l115 -111l110 111h57z" />
<glyph unicode="&#x159;" horiz-adv-x="456" d="M305 0h-278v32h57q19 0 24 23v336q-1 35 -34 35h-47v32h201v-90q65 103 138 104q37 1 56.5 -20.5t19.5 -51.5q0 -26 -16.5 -48.5t-45.5 -27.5q-21 45 -67 44q-41 -1 -85 -82v-231q5 -23 23 -23h54v-32zM274 534h-92l-122 175h55l115 -111l110 111h57z" />
<glyph unicode="&#x15a;" horiz-adv-x="548" d="M527 225q4 -118 -88 -185q-80 -56 -205 -56q-114 0 -194 44v154h40q21 -144 164 -144q33 0 62 9t50 25.5t33 41t12 56.5q0 68 -83 92l-139 42q-67 20 -106.5 63.5t-39.5 106.5q0 112 79 173q71 54 184 57q27 2 55 -1.5t57 -11.5t35 11h29l1 -187h-41q-5 52 -19 81 q-28 57 -120 57q-66 0 -101.5 -37.5t-35.5 -93.5q0 -69 106 -97l114 -30q67 -17 107.5 -63t43.5 -107zM386 886q0 -30 -19 -40l-165 -101h-54l128 147q32 38 66 38q19 0 31.5 -13t12.5 -31z" />
<glyph unicode="&#x15b;" horiz-adv-x="429" d="M406 143q0 -40 -16.5 -71.5t-51.5 -52.5q-53 -34 -123 -34q-20 0 -36.5 3t-43.5 10q-20 6 -31 11t-15 9v-18h-41v164h38q3 -50 37 -88q33 -42 85 -42q19 0 35 4t28 12t18.5 19.5t5.5 26.5q-2 54 -62 78l-87 31q-51 19 -78 46.5t-28 65.5q-1 78 57 120q53 34 145 34 q53 0 81 -22v20h40l2 -140h-44q0 31 -15 57q-22 36 -70 39q-42 3 -68 -15t-26 -49q0 -23 12.5 -34t42.5 -22l82 -32q127 -45 127 -130zM351 672q0 -30 -19 -40l-165 -101h-54l128 147q32 38 66 38q19 0 31.5 -13t12.5 -31z" />
<glyph unicode="&#x15c;" horiz-adv-x="548" d="M527 225q4 -118 -88 -185q-80 -56 -205 -56q-114 0 -194 44v154h40q21 -144 164 -144q33 0 62 9t50 25.5t33 41t12 56.5q0 68 -83 92l-139 42q-67 20 -106.5 63.5t-39.5 106.5q0 112 79 173q71 54 184 57q27 2 55 -1.5t57 -11.5t35 11h29l1 -187h-41q-5 52 -19 81 q-28 57 -120 57q-66 0 -101.5 -37.5t-35.5 -93.5q0 -69 106 -97l114 -30q67 -17 107.5 -63t43.5 -107zM442 739h-57l-112 97l-113 -97h-55l122 175h92z" />
<glyph unicode="&#x15d;" horiz-adv-x="429" d="M406 143q0 -40 -16.5 -71.5t-51.5 -52.5q-53 -34 -123 -34q-20 0 -36.5 3t-43.5 10q-20 6 -31 11t-15 9v-18h-41v164h38q3 -50 37 -88q33 -42 85 -42q19 0 35 4t28 12t18.5 19.5t5.5 26.5q-2 54 -62 78l-87 31q-51 19 -78 46.5t-28 65.5q-1 78 57 120q53 34 145 34 q53 0 81 -22v20h40l2 -140h-44q0 31 -15 57q-22 36 -70 39q-42 3 -68 -15t-26 -49q0 -23 12.5 -34t42.5 -22l82 -32q127 -45 127 -130zM405 533h-57l-112 97l-113 -97h-55l122 175h92z" />
<glyph unicode="&#x15e;" horiz-adv-x="548" d="M246 -16h-12q-114 0 -194 44v154h40q21 -144 164 -144q33 0 62 9t50 25.5t33 41t12 56.5q0 68 -83 92l-139 42q-67 20 -106.5 63.5t-39.5 106.5q0 112 79 173q71 54 184 57q27 2 55 -1.5t57 -11.5t35 11h29l1 -187h-41q-5 52 -19 81q-28 57 -120 57q-66 0 -101.5 -37.5 t-35.5 -93.5q0 -69 106 -97l114 -30q67 -17 107.5 -63t43.5 -107q4 -118 -88 -185q-62 -43 -150 -53l-25 -58q25 6 42 6q79 0 79 -75q0 -47 -49 -69q-36 -16 -90 -16q-41 0 -87 17l15 38q40 -9 66 -9q51 0 51 36q0 35 -41 35q-14 0 -32 -3l-10 8z" />
<glyph unicode="&#x15f;" horiz-adv-x="429" d="M198 -71q25 6 42 6q80 0 80 -75q0 -46 -50 -69q-35 -16 -90 -16q-39 0 -87 17l16 38q40 -9 65 -9q51 0 51 36q0 35 -41 35q-14 0 -33 -3l-10 8l41 91q-9 1 -22 3.5t-26.5 7t-25.5 9.5t-19 10v-18h-41v164h38q3 -50 37 -88q33 -42 85 -42q19 0 35 4t28 12t18.5 19.5 t5.5 26.5q-2 54 -62 78l-87 31q-51 19 -78 46.5t-28 65.5q-1 78 57 120q53 34 145 34q10 0 22 -2t23.5 -5t21 -7t14.5 -8v20h40l2 -140h-44q0 31 -15 57q-22 36 -70 39q-42 3 -68 -15t-26 -49q0 -23 12.5 -34t42.5 -22l82 -32q127 -45 127 -130q0 -40 -16.5 -71.5 t-51.5 -52.5q-50 -32 -116 -34z" />
<glyph unicode="&#x160;" horiz-adv-x="548" d="M527 225q4 -118 -88 -185q-80 -56 -205 -56q-114 0 -194 44v154h40q21 -144 164 -144q33 0 62 9t50 25.5t33 41t12 56.5q0 68 -83 92l-139 42q-67 20 -106.5 63.5t-39.5 106.5q0 112 79 173q71 54 184 57q27 2 55 -1.5t57 -11.5t35 11h29l1 -187h-41q-5 52 -19 81 q-28 57 -120 57q-66 0 -101.5 -37.5t-35.5 -93.5q0 -69 106 -97l114 -30q67 -17 107.5 -63t43.5 -107zM338 742h-92l-122 175h55l115 -111l110 111h57z" />
<glyph unicode="&#x161;" horiz-adv-x="429" d="M406 143q0 -40 -16.5 -71.5t-51.5 -52.5q-53 -34 -123 -34q-20 0 -36.5 3t-43.5 10q-20 6 -31 11t-15 9v-18h-41v164h38q3 -50 37 -88q33 -42 85 -42q19 0 35 4t28 12t18.5 19.5t5.5 26.5q-2 54 -62 78l-87 31q-51 19 -78 46.5t-28 65.5q-1 78 57 120q53 34 145 34 q53 0 81 -22v20h40l2 -140h-44q0 31 -15 57q-22 36 -70 39q-42 3 -68 -15t-26 -49q0 -23 12.5 -34t42.5 -22l82 -32q127 -45 127 -130zM278 529h-92l-122 175h55l115 -111l110 111h57z" />
<glyph unicode="&#x162;" horiz-adv-x="719" d="M691 488h-42q-6 79 -46 120q-32 32 -137 43l-33 3v-623h95v-31h-325v31h93v623l-33 -3q-104 -11 -135 -43q-42 -42 -48 -120h-42l2 202h649zM299 -299l-4 20q86 14 86 64q0 14 -21 16q-65 3 -65 60q0 26 17.5 41t44.5 15q67 0 67 -80q0 -125 -125 -136z" />
<glyph unicode="&#x163;" horiz-adv-x="335" d="M321 58q-22 -35 -50.5 -53.5t-63.5 -19.5q-57 -1 -85 21q-37 40 -37 138v220h-64v30q113 16 113 141h73v-106l104 -1v-64h-104v-223q0 -76 60 -76q21 0 46 11zM125 -308l-5 17q78 19 78 58q0 13 -18 15q-59 2 -59 52q0 24 15.5 38t39.5 14q30 0 46 -21t16 -52 q0 -110 -113 -121z" />
<glyph unicode="&#x164;" horiz-adv-x="719" d="M691 488h-42q-6 79 -46 120q-32 32 -137 43l-33 3v-623h95v-31h-325v31h93v623l-33 -3q-104 -11 -135 -43q-42 -42 -48 -120h-42l2 202h649zM411 740h-92l-122 175h55l115 -111l110 111h57z" />
<glyph unicode="&#x165;" horiz-adv-x="335" d="M321 58q-22 -35 -50.5 -53.5t-63.5 -19.5q-57 -1 -85 21q-37 40 -37 138v220h-64v30q113 16 113 141h73v-106l104 -1v-64h-104v-223q0 -76 60 -76q21 0 46 11zM342 530l-5 17q78 19 78 58q0 13 -18 15q-59 2 -59 52q0 24 15.5 38t39.5 14q30 0 46 -21t16 -52 q0 -110 -113 -121z" />
<glyph unicode="&#x166;" horiz-adv-x="719" d="M691 488h-42q-6 79 -46 120q-32 32 -137 43l-33 3v-190h166v-44h-166v-389h95v-31h-325v31h93v389h-180v44h180v190l-33 -3q-104 -11 -135 -43q-42 -42 -48 -120h-42l2 202h649z" />
<glyph unicode="&#x167;" horiz-adv-x="335" d="M207 265v-124q0 -76 60 -76q21 0 46 11l8 -18q-22 -35 -50.5 -53.5t-63.5 -19.5q-57 -1 -85 21q-37 40 -37 138v121h-64v53h64v46h-64v30q113 16 113 141h73v-106l104 -1v-64h-104v-46h106v-53h-106z" />
<glyph unicode="&#x168;" horiz-adv-x="807" d="M783 659q-59 0 -69 -10q-25 -25 -25 -76v-298q0 -155 -62 -223q-61 -66 -204 -68q-125 0 -211 70q-87 70 -87 169v436h-92v31h323v-31h-93v-414q-2 -221 190 -219q195 0 195 237v310q0 53 -28 77q-11 9 -67 9v31h230v-31zM622 881q-30 -126 -121 -126q-28 0 -79 24 q-50 25 -78 25q-34 0 -47 -48h-40q2 38 27 77q34 48 92 48q27 0 77 -24q49 -24 74 -24q20 0 34 15q6 7 18 33h43z" />
<glyph unicode="&#x169;" horiz-adv-x="626" d="M596 0h-203v67q-51 -83 -152 -82q-35 0 -62 9.5t-45.5 31t-28 57t-9.5 88.5l-1 232q-3 24 -23 24h-55v31h200v-271q0 -67 27 -91q23 -23 71 -24q24 0 48 26q20 20 30 43v262q-5 24 -24 24h-42v31l187 1v-392q3 -35 35 -35h47v-32zM476 661q-30 -126 -121 -126 q-28 0 -79 24q-50 25 -78 25q-34 0 -47 -48h-40q2 38 27 77q34 48 92 48q27 0 77 -24q49 -24 74 -24q20 0 34 15q6 7 18 33h43z" />
<glyph unicode="&#x16a;" horiz-adv-x="807" d="M783 659q-59 0 -69 -10q-25 -25 -25 -76v-298q0 -155 -62 -223q-61 -66 -204 -68q-125 0 -211 70q-87 70 -87 169v436h-92v31h323v-31h-93v-414q-2 -221 190 -219q195 0 195 237v310q0 53 -28 77q-11 9 -67 9v31h230v-31zM602 743h-308v66h308v-66z" />
<glyph unicode="&#x16b;" horiz-adv-x="626" d="M596 0h-203v67q-51 -83 -152 -82q-35 0 -62 9.5t-45.5 31t-28 57t-9.5 88.5l-1 232q-3 24 -23 24h-55v31h200v-271q0 -67 27 -91q23 -23 71 -24q24 0 48 26q20 20 30 43v262q-5 24 -24 24h-42v31l187 1v-392q3 -35 35 -35h47v-32zM452 538h-308v66h308v-66z" />
<glyph unicode="&#x16c;" horiz-adv-x="807" d="M783 659q-59 0 -69 -10q-25 -25 -25 -76v-298q0 -155 -62 -223q-61 -66 -204 -68q-125 0 -211 70q-87 70 -87 169v436h-92v31h323v-31h-93v-414q-2 -221 190 -219q195 0 195 237v310q0 53 -28 77q-11 9 -67 9v31h230v-31zM599 900q0 -66 -40 -109q-40 -46 -105 -46 q-70 0 -110.5 43t-40.5 112l2 4h27q18 -95 123 -95q97 0 115 95h27z" />
<glyph unicode="&#x16d;" horiz-adv-x="626" d="M596 0h-203v67q-51 -83 -152 -82q-35 0 -62 9.5t-45.5 31t-28 57t-9.5 88.5l-1 232q-3 24 -23 24h-55v31h200v-271q0 -67 27 -91q23 -23 71 -24q24 0 48 26q20 20 30 43v262q-5 24 -24 24h-42v31l187 1v-392q3 -35 35 -35h47v-32zM436 676q7 -138 -133 -138 q-142 0 -131 137q5 5 16 5q12 1 20 -5q13 -75 96 -77q39 0 62 16.5t36 64.5q4 4 17 4q13 -1 17 -7z" />
<glyph unicode="&#x16e;" horiz-adv-x="807" d="M783 659q-59 0 -69 -10q-25 -25 -25 -76v-298q0 -155 -62 -223q-61 -66 -204 -68q-125 0 -211 70q-87 70 -87 169v436h-92v31h323v-31h-93v-414q-2 -221 190 -219q195 0 195 237v310q0 53 -28 77q-11 9 -67 9v31h230v-31zM555 838q0 -42 -29 -71t-71 -29t-71 29t-29 71 t29 71t71 29t71 -29t29 -71zM505 838q0 21 -15 35.5t-35 14.5q-21 0 -35.5 -14.5t-14.5 -35.5t14.5 -35.5t35.5 -14.5q20 0 35 14.5t15 35.5z" />
<glyph unicode="&#x16f;" horiz-adv-x="626" d="M596 0h-203v67q-51 -83 -152 -82q-35 0 -62 9.5t-45.5 31t-28 57t-9.5 88.5l-1 232q-3 24 -23 24h-55v31h200v-271q0 -67 27 -91q23 -23 71 -24q24 0 48 26q20 20 30 43v262q-5 24 -24 24h-42v31l187 1v-392q3 -35 35 -35h47v-32zM411 638q0 -42 -29 -71t-71 -29t-71 29 t-29 71t29 71t71 29t71 -29t29 -71zM361 638q0 21 -15 35.5t-35 14.5q-21 0 -35.5 -14.5t-14.5 -35.5t14.5 -35.5t35.5 -14.5q20 0 35 14.5t15 35.5z" />
<glyph unicode="&#x170;" horiz-adv-x="807" d="M783 659q-59 0 -69 -10q-25 -25 -25 -76v-298q0 -155 -62 -223q-61 -66 -204 -68q-125 0 -211 70q-87 70 -87 169v436h-92v31h323v-31h-93v-414q-2 -221 190 -219q195 0 195 237v310q0 53 -28 77q-11 9 -67 9v31h230v-31zM749 909q0 -25 -19 -40l-153 -126h-53l115 172 q26 38 66 38q19 0 31.5 -13t12.5 -31zM749 909q0 -25 -19 -40l-153 -126h-53l115 172q26 38 66 38q19 0 31.5 -13t12.5 -31zM544 912q0 -24 -19 -40l-153 -127h-54l116 174q25 36 66 36q19 0 31.5 -12.5t12.5 -30.5zM544 912q0 -24 -19 -40l-153 -127h-54l116 174 q25 36 66 36q19 0 31.5 -12.5t12.5 -30.5z" />
<glyph unicode="&#x171;" horiz-adv-x="626" d="M596 0h-203v67q-51 -83 -152 -82q-35 0 -62 9.5t-45.5 31t-28 57t-9.5 88.5l-1 232q-3 24 -23 24h-55v31h200v-271q0 -67 27 -91q23 -23 71 -24q24 0 48 26q20 20 30 43v262q-5 24 -24 24h-42v31l187 1v-392q3 -35 35 -35h47v-32zM580 696q0 -25 -19 -40l-153 -126h-53 l115 172q26 38 66 38q19 0 31.5 -13t12.5 -31zM580 696q0 -25 -19 -40l-153 -126h-53l115 172q26 38 66 38q19 0 31.5 -13t12.5 -31zM375 699q0 -24 -19 -40l-153 -127h-54l116 174q25 36 66 36q19 0 31.5 -12.5t12.5 -30.5zM375 699q0 -24 -19 -40l-153 -127h-54l116 174 q25 36 66 36q19 0 31.5 -12.5t12.5 -30.5z" />
<glyph unicode="&#x172;" horiz-adv-x="819" d="M465 -14q-39 -56 -39 -85q0 -35 55 -35q34 0 69 21l15 -20q-19 -22 -61 -42t-78 -20q-38 0 -60 24q-16 17 -16 45q0 53 60 110q-121 3 -203 73t-82 166v436h-92v31h323v-31h-93v-414q0 -219 190 -219q195 0 195 237v310q0 53 -28 77q-11 9 -67 9v31h230v-31 q-59 0 -69 -10q-25 -25 -25 -76v-298q0 -72 -12.5 -124.5t-39.5 -87.5t-69.5 -54t-102.5 -23z" />
<glyph unicode="&#x173;" horiz-adv-x="626" d="M483 0q-48 -63 -48 -99q0 -35 55 -35q34 0 69 21l15 -20q-19 -22 -61 -42t-78 -20q-39 0 -60 24q-16 17 -16 45q0 66 77 126h-43v67q-51 -83 -152 -82q-35 0 -62 9.5t-45.5 31t-28 57t-9.5 88.5l-1 232q-3 24 -23 24h-55v31h200v-271q0 -67 27 -91q23 -23 71 -24 q24 0 48 26q20 20 30 43v262q-5 24 -24 24h-42v31l187 1v-392q3 -35 35 -35h47v-32h-113z" />
<glyph unicode="&#x174;" horiz-adv-x="1039" d="M1047 659q-27 1 -44.5 -2.5t-29 -8.5t-17 -11.5t-8.5 -11.5q-17 -23 -30 -72l-149 -573h-62l-184 534l-219 -534h-40l-171 679h-75v31h307v-31h-77l114 -433l186 464h62l174 -485l91 346q10 36 10 68q0 25 -8 31q-14 9 -60 9v31h230v-31zM745 747h-57l-112 97l-113 -97 h-55l122 175h92z" />
<glyph unicode="&#x175;" horiz-adv-x="842" d="M823 426h-26q-37 0 -46 -38q-129 -388 -130 -388h-86l-127 304q-136 -304 -137 -304h-81l-116 407q-15 19 -34 19h-32v33h280v-33h-46q-30 0 -25 -25l59 -249q18 41 53 119t89 198h52l137 -314l76 233q3 9 5 15.5t2 8.5q0 14 -17 14h-49v33h199v-33zM614 530h-57l-112 97 l-113 -97h-55l122 175h92z" />
<glyph unicode="&#x176;" horiz-adv-x="730" d="M713 690v-37q-59 1 -73 -13q-22 -20 -49 -81l-146 -283v-243h92v-33h-322v30l92 1v242l-220 386h-78l2 31h305v-31h-75q48 -85 94 -168t92 -167l110 224q3 3 15 30q14 33 14 50q0 7 -5 12q-13 14 -18 16q-11 4 -51 3l1 31h220zM576 744h-57l-112 97l-113 -97h-55l122 175 h92z" />
<glyph unicode="&#x177;" horiz-adv-x="575" d="M567 428h-26q-30 0 -46 -41l-170 -387q-16 -38 -28 -65t-20 -41q-20 -41 -36 -66.5t-29 -38.5q-48 -43 -106 -43q-21 0 -38 10q-23 11 -23 36q0 8 3 17q9 25 62 25q5 0 19 -4.5t22 -4.5q9 0 13 4q54 31 89 146l-174 433q-15 20 -34 20h-31v30h278v-30q-24 0 -38 0.5 t-21.5 -0.5t-10 -4.5t-2.5 -12.5q0 -7 1 -10q-1 2 24 -64t76 -206q17 40 44 104t63 152q7 14 7 25q0 16 -17 16h-49v30h198v-30zM496 531h-57l-112 97l-113 -97h-55l122 175h92z" />
<glyph unicode="&#x178;" horiz-adv-x="685" d="M696 690v-37q-59 1 -73 -13q-22 -20 -49 -81l-146 -283v-243h92v-33h-322v30l92 1v242l-220 386h-78l2 31h305v-31h-75q48 -85 94 -168t92 -167l110 224q3 3 15 30q14 33 14 50q0 7 -5 12q-13 14 -18 16q-11 4 -51 3l1 31h220zM566 816q0 -27 -19 -47t-47 -20 q-29 0 -48 20t-19 47q0 28 19 47.5t48 19.5q28 0 47 -19.5t19 -47.5zM351 816q0 -27 -19 -47t-47 -20q-29 0 -48 20t-19 47q0 28 19 47.5t48 19.5q28 0 47 -19.5t19 -47.5z" />
<glyph unicode="&#x179;" horiz-adv-x="710" d="M678 240l-13 -240l-630 1l420 653l-170 -3q-108 -1 -140 -40q-26 -32 -32 -67q-2 -14 -3 -28l-2 -28h-44l2 201l568 1l-415 -652l226 2q28 0 66 15q40 15 60 34q57 53 62 151h45zM597 881q0 -30 -19 -40l-165 -101h-54l128 147q32 38 66 38q19 0 31.5 -13t12.5 -31z" />
<glyph unicode="&#x17a;" horiz-adv-x="479" d="M454 424l-268 -370h150q19 0 31 3t19.5 10.5t12 21t7.5 34.5l5 31h40l2 -154h-437v29q18 23 43.5 56.5t60.5 79.5l170 239h-118q-23 0 -36.5 -1.5t-22 -6.5t-12 -15t-5.5 -27l-2 -25h-39v130h399v-35zM468 676q0 -30 -19 -40l-165 -101h-54l128 147q32 38 66 38 q19 0 31.5 -13t12.5 -31z" />
<glyph unicode="&#x17b;" horiz-adv-x="710" d="M678 240l-13 -240l-630 1l420 653l-170 -3q-108 -1 -140 -40q-26 -32 -32 -67q-2 -14 -3 -28l-2 -28h-44l2 201l568 1l-415 -652l226 2q28 0 66 15q40 15 60 34q57 53 62 151h45zM381 746q-24 0 -40.5 15.5t-16.5 38.5t16.5 39t40.5 16q22 0 37.5 -16t15.5 -39 t-15.5 -38.5t-37.5 -15.5z" />
<glyph unicode="&#x17c;" horiz-adv-x="479" d="M454 424l-268 -370h150q19 0 31 3t19.5 10.5t12 21t7.5 34.5l5 31h40l2 -154h-437v29q18 23 43.5 56.5t60.5 79.5l170 239h-118q-23 0 -36.5 -1.5t-22 -6.5t-12 -15t-5.5 -27l-2 -25h-39v130h399v-35zM324 582q0 -49 -45 -49q-46 0 -47 45q-2 21 12 35t35 14q19 0 32 -14 t13 -31z" />
<glyph unicode="&#x17d;" horiz-adv-x="710" d="M678 240l-13 -240l-630 1l420 653l-170 -3q-108 -1 -140 -40q-26 -32 -32 -67q-2 -14 -3 -28l-2 -28h-44l2 201l568 1l-415 -652l226 2q28 0 66 15q40 15 60 34q57 53 62 151h45zM431 740h-92l-122 175h55l115 -111l110 111h57z" />
<glyph unicode="&#x17e;" horiz-adv-x="479" d="M454 424l-268 -370h150q19 0 31 3t19.5 10.5t12 21t7.5 34.5l5 31h40l2 -154h-437v29q18 23 43.5 56.5t60.5 79.5l170 239h-118q-23 0 -36.5 -1.5t-22 -6.5t-12 -15t-5.5 -27l-2 -25h-39v130h399v-35zM324 534h-92l-122 175h55l115 -111l110 111h57z" />
<glyph unicode="&#x192;" d="M449 718q-9 -32 -16 -63t-12 -62l-15 -3q-38 56 -73 56q-33 0 -48 -38q-11 -30 -35 -154q55 1 123 9l5 -9q-8 -18 -15 -51h-124l-55 -235q-20 -87 -37.5 -148t-33.5 -98q-28 -60 -73 -111q-23 -26 -60 -52q-44 -30 -70 -30t-40 8q25 54 32 108l17 2q16 -43 51 -43 q23 0 36 25q5 8 10 22.5t10 35.5q4 13 10.5 48t17.5 94l71 374h-91l5 25l50 16q41 13 50 19q4 28 24 82q14 29 47 58l56 48q13 11 35.5 27t56.5 36q18 12 42 12q22 0 49 -8z" />
<glyph unicode="&#x1a0;" horiz-adv-x="729" d="M683 339q0 -149 -94 -252q-93 -103 -224 -103q-130 0 -226 107t-95 254q1 160 96 264q93 97 225 97q164 0 251 -128q68 12 68 45q0 18 -18 29.5t-37 21.5q-23 11 -23 32q0 15 11.5 26.5t27.5 11.5q10 0 18 -4q81 -34 76 -100q-4 -70 -106 -87q50 -91 50 -214zM531 336 q0 161 -30 238q-38 99 -136 99q-95 0 -136 -95q-34 -78 -34 -237t34 -231q40 -87 137 -87q93 0 133 88q32 75 32 225z" />
<glyph unicode="&#x1a1;" horiz-adv-x="594" d="M486 370q58 19 58 54q0 16 -44 39q-19 10 -19 28q0 17 12 29.5t27 12.5q7 0 15 -3q83 -41 79 -102q-2 -38 -30.5 -61.5t-83.5 -28.5q15 -44 15 -99q0 -123 -64 -188.5t-188 -65.5q-112 0 -170 68q-53 63 -53 173q0 118 62.5 181.5t181.5 63.5q147 0 202 -101zM379 198 q0 225 -104 225q-99 0 -99 -173q0 -217 109 -217q94 0 94 165z" />
<glyph unicode="&#x1af;" horiz-adv-x="878" d="M905 753q-2 -42 -36 -68t-86 -26q-59 0 -69 -10q-25 -25 -25 -76v-298q0 -156 -62 -224q-61 -67 -204 -67q-145 0 -221.5 62.5t-76.5 176.5v436h-92v31h323v-31h-93v-414q0 -115 41 -165q43 -54 149 -54q193 0 193 237v310q0 54 -26 77q-11 9 -67 9v31h142q80 0 114 8 q41 8 41 37q0 19 -17 31l-38 20q-22 12 -22 33q0 15 11 26t27 11q9 0 18 -3q81 -34 76 -100z" />
<glyph unicode="&#x1b0;" horiz-adv-x="631" d="M514 67q3 -35 35 -35h47v-32h-203v67q-51 -83 -152 -82q-35 0 -62 9.5t-45.5 31t-28 57t-9.5 88.5l-1 232q-3 24 -23 24h-55v31h200v-271q0 -67 27 -91q23 -23 71 -24q24 0 48 26q20 20 30 43v262q-5 24 -24 24h-42v32h149q15 2 30 8t26.5 15.5t19 21t7.5 24.5 q0 14 -44 37q-17 11 -17 30q0 15 11 28t26 13q7 0 15 -3q83 -39 79 -103q-5 -75 -115 -86v-377z" />
<glyph unicode="&#x1b7;" horiz-adv-x="585" d="M554 188q0 -101 -86 -157q-74 -47 -182 -47q-87 0 -150 27q-85 37 -85 114q0 38 24 60.5t61 22.5q25 0 47 -13q26 -14 26 -37q0 -9 -4 -18t-9 -18t-9 -18t-4 -16q0 -25 31 -50q31 -24 59 -24q67 0 106 65q31 53 31 126q0 146 -220 146l1 35l210 205h-208q-26 0 -42 -15 q-21 -18 -15 -48h-40l2 162h423v-46l-258 -244q150 0 226 -62q65 -56 65 -150z" />
<glyph unicode="&#x1f4;" horiz-adv-x="756" d="M707 238h-41v-193q-104 -43 -113 -44q-31 -8 -75 -12t-101 -4q-131 0 -225 106q-96 106 -95 252q1 160 96 261q92 97 224 98q166 6 238 -66v-160h-38q-7 86 -59 139q-54 56 -141 53q-95 -3 -136 -95q-33 -80 -33 -234q0 -157 33 -230q39 -89 137 -87q124 3 154 43v170 h-110v41h285v-38zM602 885q0 -30 -19 -40l-165 -101h-54l128 147q32 38 66 38q19 0 31.5 -13t12.5 -31z" />
<glyph unicode="&#x1f5;" horiz-adv-x="556" d="M334 298q0 123 -82 123q-81 0 -81 -107q0 -122 83 -122q80 0 80 106zM424 -123q0 47 -42 70q-22 9 -69 17q-20 4 -53 6.5t-79 4.5q-23 -8 -41 -30t-18 -54q0 -56 51 -84q20 -10 45.5 -15.5t56.5 -5.5q149 0 149 91zM267 471h3l250 -1l-22 -61l-102 17q29 -16 45 -43.5 t17 -68.5q1 -75 -69 -126q-62 -42 -145 -42q-11 0 -22 0.5t-22 1.5q-29 -17 -29 -39q0 -26 46 -30q29 -2 73.5 -5t105.5 -8q139 -10 139 -127q0 -111 -91 -160q-36 -22 -86 -32.5t-113 -10.5q-88 0 -143 30q-72 37 -74 117q-1 73 106 105q-67 15 -67 62q0 71 87 106 q-48 12 -76.5 49t-28.5 85q0 81 66 136q57 45 152 45zM460 681q0 -30 -19 -40l-165 -101h-54l128 147q32 38 66 38q19 0 31.5 -13t12.5 -31z" />
<glyph unicode="&#x1f7;" horiz-adv-x="328" d="M220 55q5 -23 24 -23h54v-32h-280v32h59q19 0 22 23v349h-79v38h79v155q0 24 12 43.5t33 34t49.5 22.5t61.5 8q129 0 134 -77q1 -31 -20 -45t-51 -13q-15 1 -27 13.5t-8 23.5q2 7 15 17q9 9 7 21q-6 29 -45 29t-39 -51z" />
<glyph unicode="&#x1fa;" horiz-adv-x="793" d="M503 841q0 -42 -29 -71t-71 -29q-21 0 -39.5 8t-32 21.5t-21 31.5t-7.5 39t7.5 39t21 31.5t32 21.5t39.5 8t39 -8t31.5 -21.5t21.5 -31.5t8 -39zM768 0h-310v31h80l-67 198h-243l-37 -91q-20 -49 -20 -75q0 -14 6 -23q7 -9 64 -9v-31h-218v31q52 -2 72 12q27 17 56 95 l217 572h88l235 -679h77v-31zM453 841q0 22 -15 36t-35 14q-22 0 -36 -14t-14 -36q0 -21 14 -35.5t36 -14.5q20 0 35 14.5t15 35.5zM456 266l-101 294l-112 -294h213zM608 1108q0 -30 -19 -40l-165 -102h-54l128 148q31 37 66 37q19 0 31.5 -13t12.5 -30z" />
<glyph unicode="&#x1fb;" horiz-adv-x="515" d="M495 0h-204v81q-58 -65 -61 -65q-32 -27 -79 -27q-51 0 -85 29q-34 31 -34 90q0 75 61 115q44 27 127 42l71 16q3 144 -57 146q-61 3 -63 -53q-1 -6 1.5 -11.5t6 -10t7 -8.5t3.5 -7q6 -18 -23 -29q-13 -5 -24 -5q-26 0 -44 16t-18 42q2 60 68 89q45 21 97 21 q96 0 131 -44q34 -42 36 -166v-194q1 -34 36 -34h47v-33zM291 122v112q-14 -3 -36.5 -10t-53.5 -18q-44 -20 -46 -66q-5 -69 54 -69q20 0 42.5 14t39.5 37zM350 629q0 -42 -29 -71t-71 -29t-71 29t-29 71t29 71t71 29t71 -29t29 -71zM300 629q0 21 -15 35.5t-35 14.5 q-21 0 -35.5 -14.5t-14.5 -35.5t14.5 -35.5t35.5 -14.5q20 0 35 14.5t15 35.5zM465 901q0 -30 -19 -40l-165 -101h-54l128 147q32 38 66 38q19 0 31.5 -13t12.5 -31z" />
<glyph unicode="&#x1fc;" horiz-adv-x="1113" d="M1108 240l-13 -240h-630v31h94v198h-255l-79 -105q-39 -51 -39 -70q0 -8 3.5 -15.5t19.5 -8.5q-5 1 4.5 1h34.5v-31h-225v31q16 2 35 6t42 11q19 12 66 78l387 533h-88v31h614l2 -202h-42q-9 79 -48 120q-38 40 -135 42l-160 3v-283h117q45 0 63 25q24 31 24 93h38v-279 h-38q0 60 -25 91t-62 31h-117v-293l182 2q27 0 66 15q41 15 60 34q60 55 64 151h40zM559 266v323l-231 -323h231zM859 888q0 -30 -19 -40l-165 -101h-54l128 147q32 38 66 38q19 0 31.5 -13t12.5 -31z" />
<glyph unicode="&#x1fd;" horiz-adv-x="778" d="M320 234q-14 -3 -38 -10t-55 -18q-22 -10 -33 -26.5t-13 -39.5q-4 -35 10.5 -52t43.5 -17q20 0 44 19.5t41 42.5v101zM404 424q28 24 62.5 35.5t75.5 11.5q112 -2 158 -70q17 -26 27 -69t14 -105q0 2 -294 2q0 -75 41 -122q43 -52 120 -52q48 0 107 36l12 -16 q-72 -89 -182 -90q-70 0 -120.5 23.5t-77.5 73.5q-46 -52 -84.5 -74.5t-85.5 -22.5q-26 0 -47 9.5t-38 23.5q-34 31 -34 90q0 75 61 115q44 27 127 42l71 16q3 144 -57 146q-61 3 -63 -53q-1 -6 1.5 -11.5t6 -10t7 -8.5t3.5 -7q6 -18 -23 -29q-13 -5 -24 -5q-26 0 -44 16 t-18 42q2 60 68 89q45 21 97 21q49 0 79.5 -13.5t53.5 -33.5zM614 277q0 139 -85 139q-86 0 -86 -139q52 -2 171 0zM618 676q0 -30 -19 -40l-165 -101h-54l128 147q32 38 66 38q19 0 31.5 -13t12.5 -31z" />
<glyph unicode="&#x1fe;" horiz-adv-x="725" d="M546 776l-281 -862h-54l282 862h53zM683 339q0 -149 -94 -252q-93 -103 -224 -103q-130 0 -226 107t-95 254q1 160 96 264q93 97 225 97q143 0 230 -101q88 -100 88 -266zM531 336q0 161 -30 238q-38 99 -136 99q-95 0 -136 -95q-34 -78 -34 -237t34 -231q40 -87 137 -87 q93 0 133 88q32 75 32 225zM585 885q0 -30 -19 -40l-165 -101h-54l128 147q32 38 66 38q19 0 31.5 -13t12.5 -31z" />
<glyph unicode="&#x1ff;" horiz-adv-x="556" d="M518 238q0 -124 -64.5 -190t-189.5 -66q-65 0 -111 24l-42 -60q-6 5 -12.5 11t-13.5 12q9 11 18.5 25t20.5 30q-84 61 -84 201q0 118 62.5 182t182.5 64q78 0 131 -30l50 70l28 -18l-49 -70q73 -60 73 -185zM360 360q-26 63 -84 63q-100 0 -100 -174q0 -82 15 -131z M381 196q0 39 -2.5 69.5t-7.5 52.5l-165 -237q29 -50 80 -50q95 0 95 165zM469 675q0 -30 -19 -40l-165 -101h-54l128 147q32 38 66 38q19 0 31.5 -13t12.5 -31z" />
<glyph unicode="&#x218;" horiz-adv-x="548" d="M527 225q4 -118 -88 -185q-80 -56 -205 -56q-114 0 -194 44v154h40q21 -144 164 -144q33 0 62 9t50 25.5t33 41t12 56.5q0 68 -83 92l-139 42q-67 20 -106.5 63.5t-39.5 106.5q0 112 79 173q71 54 184 57q27 2 55 -1.5t57 -11.5t35 11h29l1 -187h-41q-5 52 -19 81 q-28 57 -120 57q-66 0 -101.5 -37.5t-35.5 -93.5q0 -69 106 -97l114 -30q67 -17 107.5 -63t43.5 -107zM180 -322l-4 20q86 14 86 64q0 14 -21 16q-65 3 -65 60q0 26 17.5 41t44.5 15q67 0 67 -80q0 -125 -125 -136z" />
<glyph unicode="&#x219;" horiz-adv-x="429" d="M406 143q0 -40 -16.5 -71.5t-51.5 -52.5q-53 -34 -123 -34q-20 0 -36.5 3t-43.5 10q-20 6 -31 11t-15 9v-18h-41v164h38q3 -50 37 -88q33 -42 85 -42q19 0 35 4t28 12t18.5 19.5t5.5 26.5q-2 54 -62 78l-87 31q-51 19 -78 46.5t-28 65.5q-1 78 57 120q53 34 145 34 q53 0 81 -22v20h40l2 -140h-44q0 31 -15 57q-22 36 -70 39q-42 3 -68 -15t-26 -49q0 -23 12.5 -34t42.5 -22l82 -32q127 -45 127 -130zM148 -316l-5 17q78 19 78 58q0 13 -18 15q-59 2 -59 52q0 24 15.5 38t39.5 14q30 0 46 -21t16 -52q0 -110 -113 -121z" />
<glyph unicode="&#x292;" horiz-adv-x="585" d="M544 -51q-6 -100 -99 -160q-82 -54 -189 -52q-200 4 -235 132l97 45l10 -5q-1 -5 -1.5 -10t-0.5 -10q0 -49 52 -79q42 -26 83 -24q62 5 104 48q43 43 43 107q0 7 -0.5 13t-1.5 12q-21 147 -226 147l1 35l200 212h-200q-23 0 -41 -15q-19 -19 -15 -47h-40l1 161h434v-46 l-252 -253q141 0 215 -65q65 -56 61 -146z" />
<glyph unicode="&#x2c6;" d="M358 534h-57l-112 97l-113 -97h-55l122 175h92z" />
<glyph unicode="&#x2c7;" d="M235 534h-92l-122 175h55l115 -111l110 111h57z" />
<glyph unicode="&#x2d8;" horiz-adv-x="360" d="M313 671q7 -138 -133 -138q-142 0 -131 137q5 5 16 5q12 1 20 -5q13 -75 96 -77q39 0 62 16.5t36 64.5q4 4 17 4q13 -1 17 -7z" />
<glyph unicode="&#x2d9;" horiz-adv-x="360" d="M220 588q0 -49 -45 -49q-46 0 -47 45q-2 21 12 35t35 14q19 0 32 -14t13 -31z" />
<glyph unicode="&#x2da;" horiz-adv-x="751" d="M429 639q0 -42 -29 -71t-71 -29t-71 29t-29 71t29 71t71 29t71 -29t29 -71zM379 639q0 21 -15 35.5t-35 14.5q-21 0 -35.5 -14.5t-14.5 -35.5t14.5 -35.5t35.5 -14.5q20 0 35 14.5t15 35.5z" />
<glyph unicode="&#x2db;" horiz-adv-x="360" d="M268 -173q-38 -48 -92 -48q-41 0 -63 25q-20 22 -20 53q0 74 110 163h37q-82 -78 -82 -136q0 -57 55 -57q25 0 45 15q10 -1 10 -15z" />
<glyph unicode="&#x2dc;" d="M349 661q-30 -126 -121 -126q-28 0 -79 24q-50 25 -78 25q-34 0 -47 -48h-40q2 38 27 77q34 48 92 48q27 0 77 -24q49 -24 74 -24q20 0 34 15q6 7 18 33h43z" />
<glyph unicode="&#x2dd;" d="M403 700q0 -25 -19 -40l-153 -126h-53l115 172q26 38 66 38q19 0 31.5 -13t12.5 -31zM403 700q0 -25 -19 -40l-153 -126h-53l115 172q26 38 66 38q19 0 31.5 -13t12.5 -31zM198 703q0 -24 -19 -40l-153 -127h-54l116 174q25 36 66 36q19 0 31.5 -12.5t12.5 -30.5z M198 703q0 -24 -19 -40l-153 -127h-54l116 174q25 36 66 36q19 0 31.5 -12.5t12.5 -30.5z" />
<glyph unicode="&#x300;" horiz-adv-x="511" d="M298 465h-25l-140 136q-13 13 -13 32q0 36 40 36q26 0 38 -20z" />
<glyph unicode="&#x301;" horiz-adv-x="511" d="M408 635q0 -21 -13 -34l-134 -136l-20 4l97 182q10 19 36 19q34 0 34 -35z" />
<glyph unicode="&#x303;" horiz-adv-x="0" d="M160 626q-4 -103 -94 -103q-31 0 -86 18q-54 19 -84 19q-17 0 -33.5 -11t-18.5 -29h-18q3 43 25.5 69.5t64.5 26.5q29 0 89 -17q57 -16 89 -16q40 0 49 43h17z" />
<glyph unicode="&#x308;" d="M345 605q0 -27 -20 -47t-47 -20q-28 0 -48 20t-20 47q0 28 20 48t48 20q27 0 47 -20t20 -48zM130 605q0 -27 -20 -47t-47 -20q-28 0 -48 20t-20 47q0 28 20 48t48 20q27 0 47 -20t20 -48z" />
<glyph unicode="&#x309;" horiz-adv-x="0" d="M3 529q1 1 -2.5 -1.5l-10.5 -7.5q-11 5 -18 12.5t-7 17.5q0 8 7.5 20t19.5 28q23 30 23 47q-1 33 -37 34q-29 -2 -41 -26l-20 15q23 48 82 52q36 0 61.5 -13.5t22.5 -50.5q-5 -34 -49 -63q-23 -15 -29 -24.5t-8 -16.5q-1 -5 0 -11.5t6 -11.5z" />
<glyph unicode="&#x312;" d="M225 711q-76 -13 -76 -57q0 -15 16 -15q29 -1 44.5 -17t15.5 -36q0 -22 -16 -36.5t-39 -14.5q-28 0 -45 20q-20 25 -20 56q0 21 8 41.5t23 36.5t36.5 26.5t48.5 12.5z" />
<glyph unicode="&#x313;" horiz-adv-x="163" d="M163 646q0 -51 -40 -82q-39 -31 -91 -30h-4l5 31q67 15 67 55q0 23 -20 23q-5 0 -17.5 -5t-19.5 -5q-43 0 -43 41q0 26 24 41q19 13 48 13q37 0 64 -22t27 -60z" />
<glyph unicode="&#x314;" horiz-adv-x="166" d="M166 674q0 -18 -12.5 -29.5t-29.5 -11.5q-9 0 -21.5 5t-17.5 5q-24 0 -24 -27q0 -35 73 -51l3 -31h-5q-52 -1 -90 29q-42 31 -42 83q0 38 28 62q29 20 67 20q27 0 49 -13.5t22 -40.5z" />
<glyph unicode="&#x323;" horiz-adv-x="0" d="M54 -165q0 -23 -15.5 -38.5t-38.5 -15.5t-38.5 15.5t-15.5 38.5q0 22 15.5 38t38.5 16t38.5 -16t15.5 -38z" />
<glyph unicode="&#x326;" horiz-adv-x="0" d="M-55 -250l-5 17q78 19 78 58q0 13 -18 15q-59 2 -59 52q0 24 15.5 38t39.5 14q30 0 46 -21t16 -52q0 -110 -113 -121z" />
<glyph unicode="&#x342;" horiz-adv-x="500" d="M436 811q0 -87 -83 -87q-14 0 -35.5 2.5t-49.5 7.5q-58 11 -85 11q-17 0 -32 -9q-18 -7 -20 -26h-30q0 55 24.5 78t78.5 23q14 0 34.5 -2t46.5 -6q27 -4 47 -6t34 -2q35 0 40 30h30v-14z" />
<glyph unicode="&#x343;" horiz-adv-x="163" d="M163 646q0 -51 -40 -82q-39 -31 -91 -30h-4l5 31q67 15 67 55q0 23 -20 23q-5 0 -17.5 -5t-19.5 -5q-43 0 -43 41q0 26 24 41q19 13 48 13q37 0 64 -22t27 -60z" />
<glyph unicode="&#x345;" horiz-adv-x="139" d="M139 -205q-26 -38 -72 -38q-67 0 -67 74v81h80v-83q0 -34 23 -34q11 0 27 10z" />
<glyph unicode="&#x374;" horiz-adv-x="189" d="M178 635q0 -21 -13 -34l-132 -136l-22 4l98 182q10 19 36 19q33 0 33 -35z" />
<glyph unicode="&#x375;" horiz-adv-x="188" d="M11 -185q0 21 13 34l133 136l20 -4l-96 -182q-10 -19 -36 -19q-34 0 -34 35z" />
<glyph unicode="&#x37a;" horiz-adv-x="139" d="M139 -205q-26 -38 -72 -38q-67 0 -67 74v81h80v-83q0 -34 23 -34q11 0 27 10z" />
<glyph unicode="&#x37e;" horiz-adv-x="286" d="M202 333q0 -24 -18 -44t-42 -20q-12 0 -23.5 5.5t-20.5 14.5t-14.5 20.5t-5.5 23.5q0 23 20 40.5t44 17.5q12 0 22.5 -5t19 -13t13.5 -18.5t5 -21.5zM226 29q0 -57 -38 -107q-34 -46 -88 -71l-40 15q105 69 105 125q0 9 -5 17q-21 -8 -25 -8q-24 0 -42 15t-18 38 q0 30 23.5 50t53.5 20q17 0 30.5 -8t23.5 -21.5t15 -30t5 -34.5z" />
<glyph unicode="&#x384;" d="M334 674q0 -30 -19 -40l-165 -101h-55l129 148q31 37 66 37q18 0 31 -13.5t13 -30.5z" />
<glyph unicode="&#x385;" horiz-adv-x="588" d="M493 598q0 -27 -19 -47t-45 -20t-45 19.5t-19 47.5q0 26 19 44.5t45 18.5t45 -19t19 -44zM376 690q0 -21 -31 -51l-102 -105h-45l75 155q18 40 50 40q20 0 36.5 -10t16.5 -29zM194 598q0 -27 -19.5 -47t-44.5 -20q-26 0 -46 20t-20 47q0 26 20 44.5t46 18.5 q25 0 44.5 -19t19.5 -44z" />
<glyph unicode="&#x386;" horiz-adv-x="798" d="M775 -3h-309v32h80l-67 197h-244l-36 -90q-19 -47 -19 -75q0 -11 5 -23q6 -9 64 -9v-32h-218v32q53 -2 73 11q25 16 55 96l217 572h88l235 -679h76v-32zM464 264l-100 294l-113 -294h213zM241 664q0 -30 -19 -40l-165 -101h-55l129 148q31 37 66 37q18 0 31 -13.5 t13 -30.5z" />
<glyph unicode="&#x387;" horiz-adv-x="248" d="M124 454q26 0 45 -19t19 -45t-19 -45t-45 -19t-45 19t-19 45t19 45t45 19z" />
<glyph unicode="&#x388;" horiz-adv-x="1019" d="M965 240l-12 -240h-630v31h94v628h-94v31h614l2 -202h-42q-10 91 -63 130q-41 30 -125 35h-155v-283h118q86 0 86 118h37v-279h-37q0 47 -19 81q-24 41 -67 41h-118v-293q154 2 170 3q91 9 139 48q59 47 64 151h38zM239 665q0 -30 -19 -40l-165 -101h-55l129 148 q31 37 66 37q18 0 31 -13.5t13 -30.5z" />
<glyph unicode="&#x389;" horiz-adv-x="1076" d="M1034 0h-325v31h94v315h-260v-315h94v-31h-324v31h93v628h-93v31h324v-31h-94v-278h260v278h-94v31h325v-31h-93v-628h93v-31zM239 664q0 -30 -19 -40l-165 -101h-55l129 148q31 37 66 37q18 0 31 -13.5t13 -30.5z" />
<glyph unicode="&#x38a;" horiz-adv-x="657" d="M612 0h-324v31h93v628h-93v31h324v-31h-92v-628h92v-31zM239 665q0 -30 -19 -40l-165 -101h-55l129 148q31 37 66 37q18 0 31 -13.5t13 -30.5z" />
<glyph unicode="&#x38c;" horiz-adv-x="926" d="M884 339q0 -141 -88 -244q-92 -111 -230 -111q-137 0 -231 114q-90 106 -90 247q0 146 86 250q91 111 235 111q151 0 238 -111q80 -101 80 -256zM732 336q0 142 -21 213q-37 124 -145 124q-106 0 -146 -123q-24 -72 -24 -209q0 -136 24 -205q39 -113 149 -113 q102 0 140 113q23 71 23 200zM239 665q0 -30 -19 -40l-165 -101h-55l129 148q31 37 66 37q18 0 31 -13.5t13 -30.5z" />
<glyph unicode="&#x38e;" horiz-adv-x="938" d="M945 613q0 -15 -6.5 -28t-17 -23.5t-24 -16.5t-28.5 -6q-22 0 -36 14.5t-14 35.5q0 33 36 56q5 3 5 4q0 29 -30 29q-94 0 -134 -172q-27 -111 -27 -242v-233h93v-31h-325v31h94v232q0 183 -37 275q-59 140 -212 147v25q172 0 255 -69q89 -75 98 -242h6q3 109 46 199 q57 113 152 113q46 0 76 -26.5t30 -71.5zM239 661q0 -30 -19 -40l-165 -101h-55l129 148q31 37 66 37q18 0 31 -13.5t13 -30.5z" />
<glyph unicode="&#x38f;" horiz-adv-x="995" d="M933 0h-273v128q125 81 125 296q0 104 -39 167q-47 78 -143 78q-100 0 -149 -79q-41 -67 -41 -172q0 -103 25 -165q30 -79 106 -125v-128h-279v168h38q2 -11 4 -23l4 -24q9 -17 45 -17h152v14q-118 31 -180 109t-62 198q0 125 109 204q101 74 228 74q125 0 223 -74 q107 -81 107 -204q0 -115 -62.5 -195t-174.5 -112v-14h147q35 0 43 17q4 5 8 47h39v-168zM239 661q0 -30 -19 -40l-165 -101h-55l129 148q31 37 66 37q18 0 31 -13.5t13 -30.5z" />
<glyph unicode="&#x390;" horiz-adv-x="334" d="M381 578q0 -25 -19 -45t-46 -20q-26 0 -44.5 19t-18.5 46t18.5 46t44.5 19q27 0 46 -19.5t19 -45.5zM264 679q0 -20 -31 -51l-103 -105h-45l75 156q19 40 50 40q21 0 37.5 -10.5t16.5 -29.5zM74 583q0 -25 -19.5 -45t-44.5 -20q-13 0 -25 5.5t-21 14.5t-14.5 21t-5.5 24 q0 26 20 45.5t46 19.5q25 0 44.5 -19.5t19.5 -45.5zM289 81q0 -40 -32 -68q-31 -28 -72 -28q-38 0 -61 20.5t-35 52.5t-16 70.5t-4 73.5v172q0 61 5 71q11 23 62 23q74 0 74 -28q0 -49 -41 -155q-40 -102 -40 -160q0 -44 51 -44q49 0 74 58q35 -5 35 -58z" />
<glyph unicode="&#x391;" horiz-adv-x="799" d="M776 0h-310v31h80l-67 198h-243q-8 -20 -17 -39.5t-17 -39.5q-23 -61 -23 -87l7 -22q31 -10 63 -10v-31h-218v31h11q53 -1 79 28q16 18 38 79l217 572h88l235 -679h77v-31zM464 266l-101 294l-112 -294h213z" />
<glyph unicode="&#x392;" horiz-adv-x="761" d="M684 174q0 -174 -237 -174h-395v31h95v628h-95v31h397q87 0 143 -41q61 -45 61 -130q0 -65 -45 -110q-46 -45 -111 -55q79 -3 132 -52q55 -49 55 -128zM508 520q0 30 -9 55t-25 44t-39.5 29.5t-51.5 10.5h-100v-294h86q63 0 103 46q36 45 36 109zM529 176q0 73 -43 116.5 t-116 43.5h-87v-305h95q63 0 107 41t44 104z" />
<glyph unicode="&#x393;" horiz-adv-x="680" d="M661 488h-43q-5 91 -59 128q-45 33 -126 37q-38 1 -75 1h-75v-623h95v-31h-325v31h93v628h-93v31h605z" />
<glyph unicode="&#x394;" horiz-adv-x="670" d="M638 0h-605l272 709h88zM461 95l-165 473l-185 -473h350z" />
<glyph unicode="&#x395;" horiz-adv-x="742" d="M688 240l-12 -240h-630v31h94v628h-94v31h614l2 -202h-42q-10 91 -63 130q-41 30 -125 35h-155v-283h118q86 0 86 118h37v-279h-37q0 47 -19 81q-24 41 -67 41h-118v-293q154 2 170 3q91 9 139 48q59 47 64 151h38z" />
<glyph unicode="&#x396;" horiz-adv-x="710" d="M678 240l-13 -240l-630 1l420 653h-35.5t-44.5 1q-56 3 -74 3q-90 0 -130 -30q-52 -37 -63 -140h-44l2 201l568 1l-415 -652h185q102 4 156 43q69 49 73 159h45z" />
<glyph unicode="&#x397;" horiz-adv-x="808" d="M766 0h-325v31h94v315h-260v-315h94v-31h-324v31h93v628h-93v31h324v-31h-94v-278h260v278h-94v31h325v-31h-93v-628h93v-31z" />
<glyph unicode="&#x398;" horiz-adv-x="755" d="M696 339q0 -141 -88 -244q-92 -111 -228 -111q-139 0 -233 114q-90 106 -90 247q0 147 86 251q92 110 237 110q150 0 237 -111q79 -100 79 -256zM545 336q0 145 -22 212q-38 125 -143 125q-107 0 -148 -122q-24 -75 -24 -210q0 -137 24 -206q39 -112 149 -112 q102 0 140 113q24 69 24 200zM483 226h-31l3 68h-152v-68h-31v248h31v-66h149v66h31v-248z" />
<glyph unicode="&#x399;" horiz-adv-x="415" d="M370 0h-324v31h93v628h-93v31h324v-31h-92v-628h92v-31z" />
<glyph unicode="&#x39a;" horiz-adv-x="821" d="M808 0h-344v31q17 0 28 0.5t16 1.5q28 6 28 26t-72 142q-22 37 -43.5 73t-42.5 72l-103 -115v-200h94v-31h-324v31h93v628h-93v31h324v-31h-94v-365l156 165q129 139 129 166q0 38 -72 34v31h256v-31l-26 1q-54 0 -134 -80q-27 -31 -54 -62.5t-55 -63.5l213 -366 q25 -47 45 -54q10 -5 75 -3v-31z" />
<glyph unicode="&#x39b;" horiz-adv-x="791" d="M771 0h-310v31h80l-183 529q-26 -61 -52.5 -121t-52.5 -121q-79 -191 -79 -255l7 -22q17 -10 63 -10v-31h-218v31h11q53 -1 79 28q16 18 38 79l217 572h88l235 -679h77v-31z" />
<glyph unicode="&#x39c;" horiz-adv-x="961" d="M898 0h-325v31h95v592l-244 -612l-15 -1l-221 608v-500q0 -52 25 -77q36 -10 68 -10v-31h-223v31q53 0 71 15q22 18 22 72v520q0 20 -36 22q7 -1 -5.5 -1h-44.5v31h243l160 -467l190 467h240v-31h-94v-628h94v-31z" />
<glyph unicode="&#x39d;" horiz-adv-x="741" d="M716 659q-55 0 -74 -16q-20 -15 -20 -70v-589h-25l-424 654v-520q0 -57 21 -73q19 -14 73 -14v-31h-225v31q27 0 45 3.5t29 13t15.5 26.5t4.5 44v520q0 21 -37 22q7 -1 -5 -1h-43v31h258l277 -426v309q0 27 -5 43.5t-16 26t-29 13t-45 3.5v31h225v-31z" />
<glyph unicode="&#x39e;" horiz-adv-x="720" d="M639 528h-39q4 63 -62 63h-345q-58 0 -58 -48q0 -10 1 -15h-40l2 162h540zM531 223h-27q0 -1 0.5 4.5t1.5 18.5q1 22 0 33q-1 16 -10 16h-262q-8 0 -9 -16q-2 -14 0 -33q1 -13 1 -19t0 -4h-27v242h27q0 2 0 -3t-1 -17q-2 -17 0 -29q3 -13 10 -13h264q5 0 5 62h27v-242z M656 0h-585v188h39v-9q-2 -75 58 -75h386q65 0 64 84h38v-188z" />
<glyph unicode="&#x39f;" horiz-adv-x="747" d="M698 339q0 -141 -88 -244q-92 -111 -230 -111q-137 0 -231 114q-90 106 -90 247q0 146 86 250q91 111 235 111q151 0 238 -111q80 -101 80 -256zM546 336q0 142 -21 213q-37 124 -145 124q-106 0 -146 -123q-24 -72 -24 -209q0 -136 24 -205q39 -113 149 -113 q102 0 140 113q23 71 23 200z" />
<glyph unicode="&#x3a0;" horiz-adv-x="776" d="M741 0h-323v31h93v612h-241v-612h93v-31h-324v31h94v628h-94v31h702v-31h-93v-628h93v-31z" />
<glyph unicode="&#x3a1;" horiz-adv-x="641" d="M621 495q0 -196 -357 -196v-268h94v-31h-325v31h95v628h-95v31h305q129 0 193 -34q90 -45 90 -161zM483 493q0 166 -158 166h-61v-331h41q84 0 131 41.5t47 123.5z" />
<glyph unicode="&#x3a3;" horiz-adv-x="723" d="M663 240l-14 -240h-608l296 320l-293 370h590l12 -202h-40q-9 43 -23.5 74.5t-37 51.5t-54.5 29.5t-77 9.5h-165l202 -262l-260 -287h236q104 0 136 17q42 23 56 119h44z" />
<glyph unicode="&#x3a4;" horiz-adv-x="716" d="M691 488h-42q-7 100 -65 133q-37 22 -151 33v-623h95v-31h-325v31h93v623q-114 -11 -151 -33q-56 -33 -65 -133h-42l2 202h649z" />
<glyph unicode="&#x3a5;" horiz-adv-x="666" d="M669 613q0 -15 -6.5 -28t-17 -23.5t-24 -16.5t-28.5 -6q-22 0 -36 14.5t-14 35.5q0 33 36 56q5 3 5 4q0 29 -30 29q-94 0 -134 -172q-27 -111 -27 -242v-233h93v-31h-325v31h94v232q0 183 -37 275q-59 140 -212 147v25q172 0 255 -69q89 -75 98 -242h6q3 109 46 199 q57 113 152 113q46 0 76 -26.5t30 -71.5z" />
<glyph unicode="&#x3a6;" horiz-adv-x="806" d="M761 361q0 -126 -87 -193q-77 -61 -208 -65v-72h94v-31h-325v31h94v72q-131 5 -208 65q-87 67 -87 193q0 113 94 180q87 62 201 58v60h-94v31h325v-31h-94v-60q115 4 202 -58q93 -68 93 -180zM625 363q0 78 -40 137q-45 69 -119 71v-441q159 25 159 233zM329 130v441 q-74 -2 -119 -71q-40 -59 -40 -137q0 -208 159 -233z" />
<glyph unicode="&#x3a7;" horiz-adv-x="809" d="M808 0h-340v31h82l-187 263q-26 -27 -51.5 -54t-50.5 -55q-85 -97 -85 -126t67 -28v-31h-240v31q59 0 133 62q26 23 56 54t63 73q20 26 41 53t42 53l-242 333h-71v31h329v-31h-75l161 -226q40 45 84 90q79 88 79 108q0 29 -69 28v31h234v-31q-61 0 -123 -49 q-44 -34 -101 -106l-40 -52l-40 -52l274 -369h70v-31z" />
<glyph unicode="&#x3a8;" horiz-adv-x="945" d="M926 604q0 -26 -18 -48t-44 -22q-21 0 -36 13.5t-15 35.5q0 47 37 60v3q0 27 -24 27q-60 0 -68 -113q-5 -85 -10.5 -136.5t-12.5 -69.5q-40 -109 -185 -103v-220h93v-31h-324v31h94v222l-35 -2q-164 -8 -220 77q-43 62 -43 237q0 46 -22 73.5t-67 24.5v33l39 2 q104 3 140 -40q36 -44 36 -149q0 -113 20 -158q33 -63 137 -63h15v371h-94v31h324v-31h-93v-371h15q78 -2 114 46q26 37 34 112q1 8 1 40v88q0 49 28 89t76 40t78 -26.5t30 -72.5z" />
<glyph unicode="&#x3a9;" horiz-adv-x="778" d="M723 0h-273v128q125 81 125 296q0 104 -39 167q-47 78 -143 78q-100 0 -149 -79q-41 -67 -41 -172q0 -103 25 -165q30 -79 106 -125v-128h-279v168h38q2 -11 4 -23l4 -24q9 -17 45 -17h152v14q-118 31 -180 109t-62 198q0 125 109 204q101 74 228 74q125 0 223 -74 q107 -81 107 -204q0 -115 -62.5 -195t-174.5 -112v-14h147q35 0 43 17q4 5 8 47h39v-168z" />
<glyph unicode="&#x3aa;" horiz-adv-x="439" d="M382 0h-324v31h93v628h-93v31h324v-31h-92v-628h92v-31zM394 807q0 -28 -19 -47.5t-47 -19.5q-29 0 -48 19.5t-19 47.5t19 47.5t48 19.5q28 0 47 -19.5t19 -47.5zM179 807q0 -28 -19 -47.5t-47 -19.5q-29 0 -48 19.5t-19 47.5t19 47.5t48 19.5q28 0 47 -19.5t19 -47.5z " />
<glyph unicode="&#x3ab;" horiz-adv-x="666" d="M669 613q0 -15 -6.5 -28t-17 -23.5t-24 -16.5t-28.5 -6q-22 0 -36 14.5t-14 35.5q0 33 36 56q5 3 5 4q0 29 -30 29q-94 0 -134 -172q-27 -111 -27 -242v-233h93v-31h-325v31h94v232q0 183 -37 275q-59 140 -212 147v25q172 0 255 -69q89 -75 98 -242h6q3 109 46 199 q57 113 152 113q46 0 76 -26.5t30 -71.5zM509 807q0 -28 -19 -47.5t-47 -19.5q-29 0 -48 19.5t-19 47.5t19 47.5t48 19.5q28 0 47 -19.5t19 -47.5zM294 807q0 -28 -19 -47.5t-47 -19.5q-29 0 -48 19.5t-19 47.5t19 47.5t48 19.5q28 0 47 -19.5t19 -47.5z" />
<glyph unicode="&#x3ac;" horiz-adv-x="660" d="M427 685q0 -20 -35 -55l-100 -100h-46l76 155q19 40 52 40q20 0 36.5 -10.5t16.5 -29.5zM639 91q0 -38 -17 -70q-19 -37 -56 -37q-75 0 -95 152q-32 -66 -84 -106q-56 -46 -123 -46q-89 0 -154 68q-63 69 -63 159q0 108 67 182q67 75 173 75q126 0 139 -160l49 146h145 l-129 -283q28 -82 90 -82q29 0 55 25q3 -11 3 -23zM402 263q0 44 -27 91q-33 52 -76 52q-64 0 -99 -101q-25 -72 -25 -155q0 -50 15 -84q19 -46 64 -46q72 0 120 150q28 90 28 93z" />
<glyph unicode="&#x3ad;" horiz-adv-x="477" d="M389 685q0 -19 -35 -56l-99 -99h-45l75 155q19 40 50 40q20 0 37 -10.5t17 -29.5zM449 145q0 -78 -69 -124q-62 -39 -142 -39q-77 0 -129 32q-61 39 -61 112q0 40 21.5 72t58.5 41q-67 22 -67 96q0 69 58 103q49 27 121 27q57 0 110 -9q85 -13 85 -43q0 -18 -23 -50 t-39 -32q-13 0 -58 16q-44 16 -70 16q-43 0 -80 -14q-50 -20 -50 -55q0 -29 38 -29q14 0 49 12q34 12 53 12q21 0 40.5 -14t19.5 -35q0 -26 -22.5 -41.5t-48.5 -15.5q-20 0 -51 12q-29 13 -43 13q-18 0 -31 -10q-18 -11 -18 -28q0 -39 54 -57q39 -15 88 -15q107 0 205 60z " />
<glyph unicode="&#x3ae;" horiz-adv-x="545" d="M424 686q0 -21 -35 -56l-99 -100h-46l75 155q19 40 50 40q21 0 38 -10.5t17 -28.5zM514 314q0 -27 -3.5 -67.5t-10.5 -95.5q-7 -54 -10 -95t-3 -69q0 -35 13 -99q13 -65 13 -96q0 -17 -26 -26q-20 -6 -42 -6q-47 0 -63 24q-15 18 -15 67q0 78 41 240q42 160 42 240 q0 63 -46 63q-65 0 -111 -165q-17 -54 -48 -228h-118q8 29 17 59l18 60q20 75 20 120q0 109 -60 109q-8 0 -20 -9t-20 -9q-21 0 -35 23q-12 19 -12 42q0 69 77 69q62 0 85 -65q12 -42 11 -119q24 90 60 132q46 52 130 52q116 0 116 -151z" />
<glyph unicode="&#x3af;" horiz-adv-x="331" d="M276 685q0 -20 -36 -56l-99 -99h-45l75 155q19 40 50 40q21 0 38 -10.5t17 -29.5zM293 80q0 -40 -33 -68q-31 -28 -70 -28q-88 0 -105 89q-6 29 -9 65.5t-4 82.5q1 -102 1 -64v216q0 61 5 71q10 22 63 22q74 0 74 -27q0 -49 -41 -155q-41 -105 -41 -160q0 -44 52 -44 q48 0 73 58q35 -5 35 -58z" />
<glyph unicode="&#x3b0;" horiz-adv-x="583" d="M488 598q0 -27 -19 -47t-45 -20t-45 19.5t-19 47.5q0 26 19 44.5t45 18.5t45 -19t19 -44zM371 690q0 -21 -31 -51l-102 -105h-45l75 155q18 40 50 40q20 0 36.5 -10t16.5 -29zM189 598q0 -27 -19.5 -47t-44.5 -20q-26 0 -46 20t-20 47q0 26 20 44.5t46 18.5 q25 0 44.5 -19t19.5 -44zM541 245q0 -121 -78 -191q-76 -70 -197 -70q-89 0 -150 55q-62 56 -62 142q0 28 14 86q15 55 15 83q0 32 -20 46q-19 13 -19 30q0 14 39 28q31 12 51 12q75 0 75 -106q0 -35 -17 -108q-16 -68 -16 -108q0 -50 19 -84q22 -42 69 -42q69 0 112 106 q37 84 37 164q0 84 -52 155q-3 6 -3 7q0 20 23 20q59 0 113 -86q47 -77 47 -139z" />
<glyph unicode="&#x3b1;" horiz-adv-x="660" d="M639 94q0 -38 -17 -70q-20 -38 -56 -38q-76 0 -95 153q-32 -66 -84 -106q-58 -47 -123 -47q-90 0 -154 69q-63 69 -63 160q0 107 67 180q67 75 173 75q126 0 139 -160l49 146h145l-129 -282q29 -83 90 -83q29 0 55 25q3 -11 3 -22zM402 265q0 46 -27 93q-33 52 -76 52 q-64 0 -99 -101q-25 -74 -25 -156q0 -50 15 -84q19 -45 64 -45q72 0 120 149q7 23 12 40.5t9 28.5q4 13 7 23z" />
<glyph unicode="&#x3b2;" horiz-adv-x="566" d="M538 199q0 -95 -63 -155q-62 -60 -157 -60q-51 0 -101 32q-48 30 -76 79q-1 -32 4 -74.5t16 -95.5q23 -107 23 -130q0 -35 -57 -35q-73 0 -73 49q0 52 9 162q5 54 7.5 94.5t2.5 68.5q0 26 -1.5 63t-3.5 88t-3.5 89t-1.5 64q0 124 44 188q53 77 174 77q208 0 208 -168 q0 -21 -5.5 -42.5t-15.5 -40.5t-24 -35t-32 -26q28 -12 51.5 -32.5t40 -45.5t25.5 -54.5t9 -59.5zM416 234q0 84 -50 136q-38 -26 -95 -26q-55 0 -55 50q0 51 33 51q9 0 25.5 -3.5t23.5 -3.5q40 0 69 48q24 42 24 84q0 39 -23 71q-26 33 -65 33q-105 0 -142 -220 q-9 -53 -14 -129.5t-6 -179.5q55 -85 138 -85q64 0 103 56q34 49 34 118z" />
<glyph unicode="&#x3b3;" horiz-adv-x="561" d="M560 393l-5 -20l-42 -18t-43 -19q-17 -8 -34.5 -26t-36.5 -44q-73 -101 -73 -247q0 -36 13 -98q14 -67 14 -99q0 -27 -18.5 -43.5t-46.5 -16.5q-68 0 -68 62q0 34 16 99q17 68 17 102q0 101 -43 200q-53 128 -137 128q-37 0 -70 -18q-3 25 -3 48q0 24 25 52q25 30 70 30 q109 0 155 -145q8 -26 18 -84.5t23 -150.5q15 143 53 239q58 151 162 151q54 0 54 -82z" />
<glyph unicode="&#x3b4;" horiz-adv-x="586" d="M541 228q0 -108 -82 -178q-78 -66 -186 -66q-95 0 -160 59q-69 61 -69 156q0 102 64 166q64 66 166 66q46 0 85 -13q-35 23 -71 45t-72 45q-98 68 -98 115q0 45 41 68q31 19 82 19q56 0 170 -46q128 -53 128 -93q0 -21 -28 -49q-28 -30 -47 -37q-213 171 -281 171l-17 -6 l-1 -9q0 -42 98 -101q144 -88 181 -120q97 -85 97 -192zM410 270q0 128 -92 128q-73 0 -112 -85q-30 -65 -30 -148q0 -57 18 -97q24 -53 74 -53q64 0 107 100q35 82 35 155z" />
<glyph unicode="&#x3b5;" horiz-adv-x="479" d="M451 150q0 -77 -70 -122q-61 -41 -142 -41q-78 0 -130 33q-61 37 -61 111q0 40 22 72t59 42q-67 21 -67 95q0 68 59 103q46 27 120 27q29 0 56.5 -1.5t53.5 -5.5q85 -15 85 -45q0 -19 -24 -50q-23 -32 -39 -32q-11 0 -56 16t-71 16q-43 0 -80 -14q-49 -19 -49 -55 q0 -28 36 -28q14 0 49 12q34 12 54 12q21 0 40.5 -14.5t19.5 -35.5q0 -25 -22.5 -40.5t-49.5 -15.5q-20 0 -51 12q-30 12 -41 12q-19 0 -34 -10t-15 -27q0 -40 54 -58q40 -14 86 -14q109 0 206 59z" />
<glyph unicode="&#x3b6;" horiz-adv-x="495" d="M480 -48q0 -77 -54 -132q-53 -56 -130 -56q-99 0 -99 72q0 28 18 46t46 18q22 0 58 -15q36 -16 56 -16q56 0 56 53q0 47 -63 58q-6 1 -30 1h-67q-110 0 -165 47.5t-55 157.5q0 94 62 204q53 91 133 171q-38 -18 -84 -18q-50 0 -87 25q-45 28 -45 76q0 72 93 72 q39 0 47 -15q1 -1 1 -47q0 -30 23.5 -46.5t55.5 -16.5q26 0 76 56t89 56q26 0 44 -17.5t18 -42.5q0 -33 -95 -89q-125 -74 -176 -123q-95 -93 -95 -218q0 -84 95 -104q45 -5 88.5 -11t88.5 -12q97 -27 97 -134z" />
<glyph unicode="&#x3b7;" horiz-adv-x="545" d="M514 314q0 -27 -3.5 -67.5t-10.5 -95.5q-7 -54 -10 -95t-3 -69q0 -35 13 -99q13 -65 13 -96q0 -17 -26 -26q-20 -6 -42 -6q-47 0 -63 24q-15 18 -15 67q0 78 41 240q42 160 42 240q0 63 -46 63q-65 0 -111 -165q-17 -54 -48 -228h-118q8 29 17 59l18 60q20 75 20 120 q0 109 -60 109q-8 0 -20 -9t-20 -9q-21 0 -35 23q-12 19 -12 42q0 69 77 69q62 0 85 -65q12 -42 11 -119q24 90 60 132q46 52 130 52q116 0 116 -151z" />
<glyph unicode="&#x3b8;" horiz-adv-x="562" d="M508 393q0 -150 -40 -255q-58 -154 -180 -154q-124 0 -184 122q-45 93 -45 232q0 136 49 237q62 131 182 131q104 0 166 -108q52 -91 52 -205zM374 413q-2 54 -5.5 91.5t-8.5 60.5q-19 115 -70 115t-79 -112q-17 -71 -18 -154zM375 328v43h-186v-43q0 -314 99 -314 q48 0 72 137q15 88 15 177z" />
<glyph unicode="&#x3b9;" horiz-adv-x="332" d="M294 81q0 -40 -32 -68q-31 -28 -72 -28q-38 0 -61 20.5t-35 52.5t-16 70.5t-4 73.5v172q0 61 5 71q11 23 62 23q74 0 74 -28q0 -49 -41 -155q-40 -102 -40 -160q0 -44 51 -44q49 0 74 58q35 -5 35 -58z" />
<glyph unicode="&#x3ba;" horiz-adv-x="577" d="M557 41q0 -26 -36 -44q-27 -13 -59 -13q-55 0 -80 54q-20 42 -20 100q0 49 10 93q-19 -19 -38 -37l-38 -36q-47 -47 -68 -80q-11 -20 -23 -41.5t-29 -33.5q-25 -19 -60 -19q-54 0 -54 49q0 31 45 73q17 16 35 31.5t35 30.5q2 17 3 31.5t1 28.5q0 113 -73 113 q-6 0 -16.5 -4t-17.5 -4q-31 0 -31 58q0 16 7 29.5t18 23t26 15t30 5.5q110 0 110 -134q0 -55 -18 -125q129 129 140 153q28 55 42 72q30 34 75 34q24 0 42 -16.5t18 -38.5q0 -38 -47 -85q-5 -5 -24.5 -21t-54.5 -44v-36q-3 -122 62 -122q5 0 16.5 6t17.5 6q24 0 40 -25 q14 -20 14 -47z" />
<glyph unicode="&#x3bb;" horiz-adv-x="534" d="M540 59q0 -30 -19.5 -53.5t-47.5 -23.5q-99 0 -144 169q-19 70 -35 250q-26 -107 -56 -207t-65 -194h-150q19 37 50.5 103t76.5 163q108 229 108 249q0 36 -27 60.5t-63 24.5q-6 0 -17 -1.5l-22 -3l-22 -3t-17 -1.5q-25 0 -42.5 15t-17.5 39q0 65 65 65q93 0 161 -95 q26 -35 50.5 -86t46.5 -118q14 -49 27.5 -98t27.5 -99q21 -71 56 -98q9 -9 52 -22q24 -8 24 -35z" />
<glyph unicode="&#x3bc;" horiz-adv-x="636" d="M596 111q3 -40 -20 -81q-26 -48 -65 -48q-37 0 -60 41q-18 30 -23 75q-23 -39 -64 -74q-47 -39 -86 -39q-117 0 -169 124q9 -84 12 -100q10 -58 31 -95q8 -12 17 -24t18 -25q21 -32 21 -53q0 -17 -26 -34q-25 -16 -45 -16q-52 0 -69 53q-9 27 -9 96q0 43 9 129 q5 43 7.5 75.5t2.5 54.5q0 17 -1.5 42t-5.5 58t-5.5 57.5t-1.5 41.5q0 50 10 69q15 27 58 27q70 0 70 -51q0 -35 -17 -114q-16 -74 -16 -116q0 -161 102 -161q77 0 92 115q2 54 5 106.5t5 106.5q10 115 78 115q37 0 51 -20q10 -13 10 -52q0 -115 -63 -259q11 -41 64 -41 q51 0 80 45z" />
<glyph unicode="&#x3bd;" horiz-adv-x="505" d="M474 308q0 -90 -98 -215q-101 -132 -181 -119l1 36q2 138 -45 224q-27 50 -86 99q-47 38 -47 60q0 66 72 66q151 0 151 -275q0 -41 -3 -101q57 60 97 152q40 90 40 175q0 37 -7 69q106 -54 106 -171z" />
<glyph unicode="&#x3be;" horiz-adv-x="543" d="M547 -43q0 -85 -55 -139q-56 -54 -140 -54q-33 0 -59 20t-26 51q0 11 5.5 22.5t14 20.5t19.5 15t22 6q22 0 60 -15q37 -15 56 -15q25 0 39.5 16t14.5 40q0 51 -114 56q-177 9 -210 19q-113 33 -113 149q0 82 113 172q-86 38 -86 105q0 72 126 153q-56 1 -97 15 q-59 20 -59 65q0 32 31 51q28 15 63 15q54 0 54 -15q0 -4 -4.5 -19t-4.5 -26q0 -49 54 -62q35 36 110 68q76 32 125 32q23 0 40 -14.5t17 -38.5q0 -84 -200 -84q-33 0 -67 3q-38 -20 -63 -64q-26 -44 -26 -85q0 -54 24 -72q67 52 175 52q80 0 80 -47q0 -35 -64 -53 q-48 -14 -91 -14q-52 0 -95 15q-67 -43 -67 -117q0 -86 124 -86h19.5t27.5 1t26.5 1h15.5q90 0 131 -24q54 -32 54 -119z" />
<glyph unicode="&#x3bf;" horiz-adv-x="568" d="M545 248q0 -112 -79 -188q-80 -75 -190 -75q-99 0 -167 68q-66 67 -66 168q0 111 72 182q73 71 183 71q102 0 172 -61q75 -65 75 -165zM407 280q0 161 -92 161q-72 0 -109 -106q-29 -81 -29 -167q0 -152 96 -152q68 0 105 103q29 81 29 161z" />
<glyph unicode="&#x3c0;" horiz-adv-x="696" d="M654 335h-176q-9 -69 -9 -102q0 -62 14 -90q19 -39 76 -39q53 0 79 39l2 -22q0 -47 -27 -90q-33 -49 -75 -49q-129 0 -129 216q0 36 9 137h-135q-1 -149 -9 -202q-20 -149 -85 -149q-18 0 -34 7t-28 19t-19 28.5t-7 34.5q0 19 43 47q51 36 61 54q28 46 28 162h-48 q-20 0 -39.5 -5.5t-37.5 -15t-32 -23t-23 -29.5l-20 38q22 69 71.5 111t118.5 42h431v-119z" />
<glyph unicode="&#x3c1;" horiz-adv-x="577" d="M552 249q0 -122 -79 -195q-77 -73 -199 -73q-59 0 -112 43q-48 39 -75 95q-2 -93 32 -153q18 -33 63 -76q35 -33 35 -56q0 -30 -28 -49q-29 -21 -57 -21q-56 0 -78 126q-13 68 -13 168q0 179 44 273q62 137 222 137q97 0 169 -60q76 -64 76 -159zM416 275q0 161 -94 161 q-71 0 -110 -106q-28 -78 -28 -165q0 -154 95 -154q67 0 106 103q31 78 31 161z" />
<glyph unicode="&#x3c2;" horiz-adv-x="450" d="M436 416q0 -56 -27 -71q-14 -7 -74 -7q-100 0 -164 -34q-82 -43 -82 -133q0 -71 116 -71h34q11 1 17.5 1h10.5q167 0 167 -154q0 -71 -44 -126q-48 -59 -119 -59q-35 0 -60 13q-34 16 -34 47q0 62 59 62q15 0 46 -14t47 -14q25 0 40 16.5t15 42.5q0 65 -88 72 q-141 13 -165 23q-87 39 -87 178q0 131 107 208q95 70 234 70q30 0 40.5 -9t10.5 -41z" />
<glyph unicode="&#x3c3;" horiz-adv-x="593" d="M588 406q0 -43 -15 -61l-202 8q64 -12 107 -52q46 -45 46 -106q0 -95 -84 -156q-74 -55 -172 -55t-162 66q-63 66 -63 163q0 112 76 178q72 63 187 63h270q12 -15 12 -48zM391 221q0 49 -20 87q-26 45 -68 45q-72 0 -114 -64q-36 -56 -36 -130q0 -55 26 -96 q31 -49 85 -49q57 0 96 79q31 62 31 128z" />
<glyph unicode="&#x3c4;" horiz-adv-x="488" d="M480 335h-195q-10 -61 -14.5 -96t-4.5 -45q0 -90 86 -90q49 0 78 39q3 -9 3 -24q0 -45 -28 -88q-32 -47 -75 -47q-124 0 -124 161q0 16 5.5 63t16.5 128h-76q-79 0 -127 -67l-24 34q11 65 62 108q52 43 117 43h300v-119z" />
<glyph unicode="&#x3c5;" horiz-adv-x="582" d="M540 246q0 -119 -77 -190q-76 -70 -198 -70q-89 0 -150 54q-61 55 -61 143q0 16 3.5 37t10.5 49q15 55 15 84q0 31 -20 45q-19 13 -19 30q0 14 38 28q33 12 51 12q76 0 76 -107q0 -40 -16 -108t-16 -107q0 -49 17 -85q24 -41 70 -41q68 0 113 105q36 85 36 164 q0 83 -53 156q-3 4 -3 6q0 20 25 20q59 0 111 -85q47 -77 47 -140z" />
<glyph unicode="&#x3c6;" horiz-adv-x="695" d="M664 260q0 -121 -90 -197q-83 -71 -206 -79q0 -32 16 -84q17 -57 17 -83t-20 -40.5t-46 -14.5q-30 0 -49 12q-23 15 -23 41q0 27 17 84q19 60 21 83q-124 5 -192 62q-76 61 -76 182q0 89 64 171t152 82l29 -4q8 -18 8 -45q0 -31 -35 -57q-51 -39 -65 -55 q-35 -44 -35 -117q0 -74 38 -123q40 -56 114 -54q1 32 1.5 87.5t0.5 133.5q0 107 23 155q31 69 128 69q48 0 86.5 -15t65.5 -42t41.5 -65.5t14.5 -86.5zM525 255q0 61 -19 99q-26 51 -78 51q-68 0 -68 -151q0 -91 1.5 -148t3.5 -82q74 12 119 86q41 67 41 145z" />
<glyph unicode="&#x3c7;" horiz-adv-x="492" d="M536 -168q0 -33 -33 -52q-28 -19 -62 -19q-62 0 -98 56q-27 42 -39 122q-4 30 -7.5 60t-6.5 60q-25 -48 -61 -119t-84 -168h-135q51 81 108 182.5t122 226.5q-24 77 -44 109q-36 60 -91 60q-10 0 -17.5 -4t-13.5 -8.5t-11.5 -8t-11.5 -3.5q-22 0 -36 21.5t-14 45.5 q0 75 82 75q85 0 131 -82q13 -23 26 -63t26 -97q73 147 105 228h139l-191 -346q40 -223 99 -223q12 0 29 12q18 12 28 12q13 0 24 -7t19.5 -18t13 -24.5t4.5 -27.5z" />
<glyph unicode="&#x3c8;" horiz-adv-x="721" d="M669 251q0 -117 -85 -193q-84 -77 -201 -78q6 -44 12 -84q9 -51 9 -85q0 -54 -56 -54q-60 0 -60 53q0 16 2 37.5t6 47.5q6 35 9 56t4 29q-125 11 -198 94q-68 80 -68 207q0 68 18 115q25 69 82 69q29 0 50 -10q27 -12 27 -37q0 -14 -25 -83q-25 -68 -25 -114 q0 -80 34 -132q36 -60 110 -74q1 20 1.5 49t0.5 67q0 45 -4 110.5t-12 153.5q-15 175 -15 263q0 25 26 37q19 10 48 10q24 0 44 -11q23 -14 23 -36q0 -40 -6.5 -105t-19.5 -157t-19 -160.5t-6 -116.5v-25t1 -24l3 -56q78 10 119 97q30 67 30 158q0 32 -20 97q-19 61 -19 87 q0 17 24 17q73 0 118 -75q38 -62 38 -144z" />
<glyph unicode="&#x3c9;" horiz-adv-x="794" d="M748 224q0 -108 -63 -174q-62 -66 -167 -66q-85 0 -124 89q-53 -89 -163 -89q-76 0 -130 82q-47 73 -47 152q0 85 50 161q56 86 136 86q58 0 58 -42q0 -14 -32 -48q-40 -43 -56 -70q-31 -49 -31 -110q0 -57 25 -100q28 -52 84 -52q25 0 46.5 18t24.5 43q-29 52 -29 121 t66 69q25 0 44 -14.5t19 -39.5q0 -26 -15 -74q-15 -47 -15 -62q0 -22 25 -41q26 -20 49 -20q57 0 87 62q24 49 24 115q0 65 -34 120q-20 32 -62 73q-34 31 -34 38q0 14 31 14q85 0 158 -79q75 -78 75 -162z" />
<glyph unicode="&#x3ca;" horiz-adv-x="334" d="M316 603q0 -28 -19 -47.5t-47 -19.5q-29 0 -48 19.5t-19 47.5t19 47.5t48 19.5q28 0 47 -19.5t19 -47.5zM101 603q0 -28 -19 -47.5t-47 -19.5q-29 0 -48.5 19.5t-19.5 47.5t19.5 47.5t48.5 19.5q28 0 47 -19.5t19 -47.5zM301 81q0 -40 -32 -68q-31 -28 -72 -28 q-38 0 -61 20.5t-35 52.5t-16 70.5t-4 73.5v172q0 61 5 71q11 23 62 23q74 0 74 -28q0 -49 -41 -155q-40 -102 -40 -160q0 -44 51 -44q49 0 74 58q35 -5 35 -58z" />
<glyph unicode="&#x3cb;" horiz-adv-x="582" d="M540 246q0 -119 -77 -190q-76 -70 -198 -70q-89 0 -150 54q-61 55 -61 143q0 16 3.5 37t10.5 49q15 55 15 84q0 31 -20 45q-19 13 -19 30q0 14 38 28q33 12 51 12q76 0 76 -107q0 -40 -16 -108t-16 -107q0 -49 17 -85q24 -41 70 -41q68 0 113 105q36 85 36 164 q0 83 -53 156q-3 4 -3 6q0 20 25 20q59 0 111 -85q47 -77 47 -140zM435 593q0 -28 -19 -47.5t-47 -19.5q-29 0 -48 19.5t-19 47.5t19 47.5t48 19.5q28 0 47 -19.5t19 -47.5zM220 593q0 -28 -19 -47.5t-47 -19.5q-29 0 -48 19.5t-19 47.5t19 47.5t48 19.5q28 0 47 -19.5 t19 -47.5z" />
<glyph unicode="&#x3cc;" horiz-adv-x="567" d="M433 650l-119 -120h-46l76 155q19 40 50 40q11 0 33 -8q21 -8 21 -32q0 -20 -15 -35zM530 166q-34 -101 -121 -148q-62 -33 -134 -33h-13.5t-11.5 1q-99 11 -155 83q-51 64 -51 152q0 64 29 120q58 113 186 130q19 3 40 3q105 0 175 -65q70 -64 70 -161q0 -38 -14 -82z M394 176q12 52 12 104q0 65 -16 104q-19 46 -52 55q-6 1 -12 1.5t-11 0.5q-48 0 -82 -49.5t-48 -136.5q-4 -23 -5.5 -45t-1.5 -42q0 -134 68 -149q13 -3 27 -3q81 0 121 160z" />
<glyph unicode="&#x3cd;" horiz-adv-x="589" d="M423 685q0 -19 -35 -56l-100 -99h-45l75 155q19 40 51 40q20 0 37 -10.5t17 -29.5zM546 245q0 -121 -78 -191q-76 -70 -197 -70q-89 0 -150 55q-62 56 -62 142q0 28 14 86q15 55 15 83q0 32 -20 46q-19 13 -19 30q0 14 39 28q31 12 51 12q75 0 75 -106q0 -35 -17 -108 q-16 -68 -16 -108q0 -50 19 -84q22 -42 69 -42q69 0 112 106q37 84 37 164q0 84 -52 155q-3 6 -3 7q0 20 23 20q59 0 113 -86q47 -77 47 -139z" />
<glyph unicode="&#x3ce;" horiz-adv-x="792" d="M549 685q0 -19 -35 -56l-99 -99h-46l76 155q19 40 50 40q21 0 37.5 -10.5t16.5 -29.5zM746 224q0 -107 -62 -174q-62 -66 -166 -66q-87 0 -125 89q-53 -89 -162 -89q-72 0 -127 76q-50 71 -50 145q0 94 46 170q54 90 140 90q56 0 56 -42q0 -15 -30 -48q-42 -46 -57 -70 q-30 -50 -30 -107q0 -60 24 -103q30 -52 85 -52q25 0 46.5 18t24.5 43q-30 49 -30 121q0 69 67 69q63 0 63 -69q0 -21 -15 -63t-15 -58q0 -22 25 -41q26 -20 49 -20q57 0 87 62q24 49 24 115q0 64 -34 119q-11 17 -26.5 35.5t-35.5 38.5q-34 31 -34 37q0 14 31 14 q83 0 157 -78q74 -79 74 -162z" />
<glyph unicode="&#x3d0;" horiz-adv-x="600" d="M570 199q-5 -101 -82 -161q-64 -49 -145 -52q-144 -6 -233 95q-87 102 -87 272q0 19 1.5 38.5t3.5 39.5q17 134 107 210q80 68 185 68q83 0 139 -45q60 -47 62 -130q1 -21 -4 -42t-15.5 -40t-25 -35.5t-32.5 -26.5q56 -26 92 -78q37 -52 34 -113zM434 234q-3 54 -6 72 q-7 39 -32 64q-35 -27 -93 -27q-24 0 -45 15q-25 16 -25 42q0 4 2 14q7 27 35 27q6 0 30 -3q19 -3 30 0q39 6 68 51q25 40 25 81q0 40 -23 66q-26 30 -67 28q-66 -3 -134 -141q-66 -137 -66 -270q0 -195 153 -204q64 -4 109 57q40 58 39 128z" />
<glyph unicode="&#x3d1;" horiz-adv-x="556" d="M503 393v-32l50 -12v-34l-52 13q-11 -129 -58 -218q-68 -123 -185 -126q-99 -3 -148 37q-40 33 -52 105q-7 35 -10 148q-1 31 -22 45q-20 14 -20 30q0 15 35 29q31 11 48 11q79 0 79 -106q0 -6 -0.5 -18t-1.5 -31q-1 -18 -1.5 -33t-0.5 -26q0 -165 95 -160q67 4 95 139 q16 74 16 174v27q-163 13 -236 79q-59 49 -54 120q3 76 58 116q49 38 120 38q114 0 185 -104q60 -90 60 -211zM369 398q-5 103 -15 156q-21 119 -71 124q-43 3 -65.5 -23.5t-22.5 -69.5q0 -38 16 -74q29 -66 158 -113z" />
<glyph unicode="&#x3d5;" horiz-adv-x="640" d="M603 226q1 -96 -70 -167q-70 -70 -177 -73q5 -26 10.5 -68t12.5 -101q4 -55 -54 -55q-65 0 -60 53q2 15 5.5 36t8.5 49q11 56 12 85q-109 1 -183 68q-72 67 -74 162q-1 93 72 169t188 86q1 17 1 31t-2 25l-3.5 24.5t-1.5 17.5q0 40 35 40q37 0 37 -43q0 -12 -2.5 -39 t-3.5 -56q112 -9 182 -82q66 -70 67 -162zM466 223q2 97 -29.5 154t-83.5 57q-5 -60 -4.5 -162t6.5 -249q49 3 79.5 57.5t31.5 142.5zM298 434q-56 0 -94 -62q-37 -62 -35 -157q1 -77 36 -135q34 -57 88 -57q0 9 1.5 38t3.5 79q3 78 3 143q0 71 -3 151z" />
<glyph unicode="&#x3d6;" horiz-adv-x="915" d="M905 341h-112q41 -58 41 -117q0 -56 -16.5 -100t-46.5 -75.5t-72.5 -48t-95.5 -16.5q-84 0 -123 89q-53 -89 -162 -89q-84 0 -135 70q-45 64 -45 149q0 78 35 140h-19q-20 0 -39.5 -5.5t-37 -15.5t-31.5 -24t-23 -30l-20 40q21 67 68 108q53 44 120 44h714v-119zM699 220 q0 66 -34 121h-344q-53 -64 -53 -163q0 -59 23 -94q29 -41 82 -41q26 0 48 18t24 43q-29 52 -29 121q0 73 67 73q25 0 43.5 -16.5t18.5 -41.5q0 -26 -15 -74q-15 -47 -15 -62q0 -22 25 -41q26 -20 49 -20q57 0 87 62q23 51 23 115z" />
<glyph unicode="&#x3d8;" horiz-adv-x="718" d="M660 434q0 -70 -22 -116.5t-66 -84.5q-30 -26 -67 -43t-85 -24l8 1v-132h92v-35h-320v35h93v133l15 -2q-47 8 -85 25t-67 43q-42 38 -65 85t-23 115q0 70 22 117t66 85q40 35 90 53t118 18q67 0 117.5 -18t90.5 -53q44 -38 66 -85t22 -117zM515 433q0 57 -10.5 98 t-27.5 71h1q-22 34 -49 52t-65 18t-65.5 -18t-48.5 -52h1q-17 -30 -27.5 -69t-10.5 -97q0 -60 10.5 -99t27.5 -69h-1q21 -34 48.5 -52t65.5 -18t65 18t49 52h-1q17 30 27.5 69t10.5 96z" />
<glyph unicode="&#x3d9;" horiz-adv-x="555" d="M319 -152q3 -27 -11 -48.5t-40 -21.5q-31 0 -45 18t-8 54q5 24 11 55t14 83q-45 5 -82.5 24t-67.5 49q-32 33 -45 73t-13 89q0 54 15.5 99t50.5 80q70 72 179 72q105 0 175 -67q34 -33 49 -81.5t15 -102.5q0 -47 -15 -83.5t-49 -73.5q-67 -72 -152 -79q4 -29 9 -64.5 t10 -74.5zM372 198q0 225 -104 225q-99 0 -99 -173q0 -217 109 -217q94 0 94 165z" />
<glyph unicode="&#x3da;" horiz-adv-x="713" d="M210 214q22 -28 43 -39t44 -11q18 0 34.5 6t39.5 24h133v-194h-139v140q-23 -10 -46.5 -12.5t-40.5 -2.5q-48 0 -90 12t-73 41q-48 45 -69 100t-21 115q0 75 25 136t69 98q41 35 97 48.5t128 13.5h352v-123h-286q-21 0 -44 -0.5t-46.5 -3t-44.5 -8t-37 -15.5 q-37 -23 -54 -58.5t-17 -95.5q0 -50 10 -96t33 -75z" />
<glyph unicode="&#x3db;" horiz-adv-x="669" d="M335 338q-100 0 -164 -34q-82 -43 -82 -133q0 -71 116 -71q36 1 47 1h15q167 0 167 -154q0 -71 -44 -126q-48 -59 -119 -59q-35 0 -60 13q-34 16 -34 47q0 62 59 62q15 0 46 -14t47 -14q25 0 40 16.5t15 42.5q0 65 -88 72q-141 13 -165 23q-87 39 -87 178q0 131 107 208 q95 70 234 70h151q30 0 40.5 -9t10.5 -41q0 -56 -27 -71q-14 -7 -74 -7h-151z" />
<glyph unicode="&#x3dc;" horiz-adv-x="697" d="M655 249h-42q-5 40 -16 70t-32 50t-54 30.5t-81 11.5l-160 3v-283h241v-161h-37q0 60 -25 91.5t-61 31.5h-118v-301h94v-31h-325v31h94v628h-94v31h614z" />
<glyph unicode="&#x3de;" horiz-adv-x="808" d="M766 0h-325v31h94v315h-397v313h-93v31h324v-31h-94v-278h398v-350h93v-31z" />
<glyph unicode="&#x3df;" horiz-adv-x="602" d="M329 -133q0 -30 23 -30q6 0 10 2.5t9 5t12 5t20 2.5q18 0 29 -10.5t11 -30.5q0 -40 -28.5 -61t-67.5 -21q-44 0 -70 18.5t-26 67.5q0 16 6.5 34.5t18 43t28.5 57t38 76.5l-273 -28q-37 -4 -37 31q0 13 9 30q42 69 86.5 138t90.5 143q45 73 92 149t98 156q20 31 42.5 50.5 t54.5 19.5q28 0 46.5 -14t18.5 -36q0 -20 -11 -34.5t-21 -27.5q-14 -17 -45.5 -51t-80.5 -92.5t-115.5 -143.5t-150.5 -203q57 5 114.5 11.5t114.5 11.5q28 3 43.5 -10t15.5 -33q0 -3 -1 -11.5t-3 -14.5q-2 -5 -7.5 -15t-13 -22t-14.5 -24t-12 -21q-8 -14 -17 -30.5 t-17.5 -33t-14 -31t-5.5 -23.5z" />
<glyph unicode="&#x3e0;" horiz-adv-x="926" d="M527 173q18 51 42.5 97.5t50.5 90.5q-26 8 -55 12t-52 5q-76 -139 -150.5 -268.5t-146.5 -261.5q-15 -27 -27 -44t-21.5 -26.5t-18.5 -12.5t-19 -3q-21 0 -38.5 9t-17.5 24q0 8 9 24t25 41l330 515q-86 -5 -152 -45t-126 -109q-27 -33 -43 -50.5t-26 -25.5 q-21 -18 -53 -18q-20 0 -30 8t-10 20q0 20 14.5 45.5t39.5 52t58.5 53.5t72 50t80 40t81.5 26q38 8 76 11t73 3q92 0 166 -25.5t126.5 -69t81 -101t28.5 -122.5q0 -38 -9.5 -79.5t-27.5 -81.5t-43 -77t-57 -65t-69 -44.5t-79 -16.5q-53 0 -80 25.5t-27 65.5q0 8 3.5 19.5 t9.5 22t14.5 18t19.5 7.5t15 -2.5t6 -6.5q4 -7 11 -17t17.5 -19t25 -15.5t32.5 -6.5q42 0 74 26.5t53.5 65.5t33 84t11.5 83q0 39 -11.5 77t-32 70t-48 55.5t-59.5 35.5q-23 -36 -42 -68.5t-33 -61.5q-28 -56 -28 -92q0 -26 11 -37.5t22 -11.5q18 0 37 11t39 11t31 -9.5 t11 -26.5q0 -22 -11 -37.5t-28 -25t-37 -14t-38 -4.5q-11 0 -22 1t-23 3q-67 14 -67 81q0 44 27 112z" />
<glyph unicode="&#x3e1;" horiz-adv-x="618" d="M599 -83h-102v48q0 38 -2 69t-6.5 58t-11 53t-15.5 54l-222 -182l-39 47l239 197q-11 22 -21.5 42.5t-34.5 50.5l-248 -202l-40 47l245 201q-58 57 -144 85.5t-213 28.5l-3 29q26 3 49 5t45 2q257 0 396 -166q135 -161 128 -402v-65z" />
<glyph unicode="&#x4d2;" horiz-adv-x="798" d="M775 -3h-309v32h80l-67 197h-244l-36 -90q-19 -47 -19 -75q0 -11 5 -23q6 -9 64 -9v-32h-218v32q53 -2 73 11q25 16 55 96l217 572h88l235 -679h76v-32zM464 264l-100 294l-113 -294h213zM541 784q-24 0 -39.5 15.5t-15.5 38.5t15.5 39t39.5 16q22 0 37.5 -16t15.5 -39 t-15.5 -38.5t-37.5 -15.5zM299 784q-22 0 -38.5 15.5t-16.5 38.5t16.5 39t38.5 16q24 0 39.5 -16t15.5 -39t-15.5 -38.5t-39.5 -15.5z" />
<glyph unicode="&#x4d3;" horiz-adv-x="515" d="M495 0h-204v81q-58 -65 -61 -65q-32 -27 -79 -27q-51 0 -85 29q-34 31 -34 90q0 75 61 115q44 27 127 42l71 16q3 144 -57 146q-61 3 -63 -53q-1 -6 1.5 -11.5t6 -10t7 -8.5t3.5 -7q6 -18 -23 -29q-13 -5 -24 -5q-26 0 -44 16t-18 42q2 60 68 89q45 21 97 21 q96 0 131 -44q34 -42 36 -166v-194q1 -34 36 -34h47v-33zM291 122v112q-14 -3 -36.5 -10t-53.5 -18q-44 -20 -46 -66q-5 -69 54 -69q20 0 42.5 14t39.5 37zM421 603q0 -28 -19 -47.5t-47 -19.5q-29 0 -48 19.5t-19 47.5t19 47.5t48 19.5q28 0 47 -19.5t19 -47.5zM206 603 q0 -28 -19 -47.5t-47 -19.5q-29 0 -48 19.5t-19 47.5t19 47.5t48 19.5q28 0 47 -19.5t19 -47.5z" />
<glyph unicode="&#x4e6;" horiz-adv-x="747" d="M692 339q0 -149 -94 -252q-93 -103 -224 -103q-130 0 -226 107t-95 254q1 160 96 264q93 97 225 97q143 0 230 -101q88 -100 88 -266zM540 336q0 161 -30 238q-38 99 -136 99q-95 0 -136 -95q-34 -78 -34 -237t34 -231q40 -87 137 -87q93 0 133 88q32 75 32 225zM488 745 q-24 0 -39.5 15.5t-15.5 38.5t15.5 39t39.5 16q22 0 37.5 -16t15.5 -39t-15.5 -38.5t-37.5 -15.5zM246 745q-22 0 -38.5 15.5t-16.5 38.5t16.5 39t38.5 16q24 0 39.5 -16t15.5 -39t-15.5 -38.5t-39.5 -15.5z" />
<glyph unicode="&#x4e7;" horiz-adv-x="539" d="M509 239q0 -123 -64 -188.5t-188 -65.5q-112 0 -170 68q-53 63 -53 173q0 118 62.5 181.5t181.5 63.5q113 0 172 -60t59 -172zM373 198q0 225 -104 225q-99 0 -99 -173q0 -217 109 -217q94 0 94 165zM449 604q0 -28 -19 -47.5t-47 -19.5q-29 0 -48 19.5t-19 47.5t19 47.5 t48 19.5q28 0 47 -19.5t19 -47.5zM234 604q0 -28 -19 -47.5t-47 -19.5q-29 0 -48 19.5t-19 47.5t19 47.5t48 19.5q28 0 47 -19.5t19 -47.5z" />
<glyph unicode="&#x1e80;" horiz-adv-x="1039" d="M1047 659q-27 1 -44.5 -2.5t-29 -8.5t-17 -11.5t-8.5 -11.5q-17 -23 -30 -72l-149 -573h-62l-184 534l-219 -534h-40l-171 679h-75v31h307v-31h-77l114 -433l186 464h62l174 -485l91 346q10 36 10 68q0 25 -8 31q-14 9 -60 9v31h230v-31zM605 739h-47l-118 120 q-16 15 -16 36q0 24 23 32q18 7 31 7q31 0 50 -40z" />
<glyph unicode="&#x1e81;" horiz-adv-x="842" d="M235 675q0 19 13 32t32 13q34 0 65 -37l129 -148h-54l-165 100q-20 14 -20 40zM823 426h-26q-37 0 -46 -38q-129 -388 -130 -388h-86l-127 304q-136 -304 -137 -304h-81l-116 407q-15 19 -34 19h-32v33h280v-33h-46q-30 0 -25 -25l59 -249q18 41 53 119t89 198h52 l137 -314l76 233q3 9 5 15.5t2 8.5q0 14 -17 14h-49v33h199v-33z" />
<glyph unicode="&#x1e82;" horiz-adv-x="1039" d="M1047 659q-27 1 -44.5 -2.5t-29 -8.5t-17 -11.5t-8.5 -11.5q-17 -23 -30 -72l-149 -573h-62l-184 534l-219 -534h-40l-171 679h-75v31h307v-31h-77l114 -433l186 464h62l174 -485l91 346q10 36 10 68q0 25 -8 31q-14 9 -60 9v31h230v-31zM796 880q0 -30 -19 -40 l-165 -101h-54l128 147q32 38 66 38q19 0 31.5 -13t12.5 -31z" />
<glyph unicode="&#x1e83;" horiz-adv-x="842" d="M823 426h-26q-37 0 -46 -38q-129 -388 -130 -388h-86l-127 304q-136 -304 -137 -304h-81l-116 407q-15 19 -34 19h-32v33h280v-33h-46q-30 0 -25 -25l59 -249q18 41 53 119t89 198h52l137 -314l76 233q3 9 5 15.5t2 8.5q0 14 -17 14h-49v33h199v-33zM652 672 q0 -30 -19 -40l-165 -101h-54l128 147q32 38 66 38q19 0 31.5 -13t12.5 -31z" />
<glyph unicode="&#x1e84;" horiz-adv-x="1039" d="M1047 659q-27 1 -44.5 -2.5t-29 -8.5t-17 -11.5t-8.5 -11.5q-17 -23 -30 -72l-149 -573h-62l-184 534l-219 -534h-40l-171 679h-75v31h307v-31h-77l114 -433l186 464h62l174 -485l91 346q10 36 10 68q0 25 -8 31q-14 9 -60 9v31h230v-31zM748 808q0 -28 -19 -47.5 t-47 -19.5q-29 0 -48 19.5t-19 47.5t19 47.5t48 19.5q28 0 47 -19.5t19 -47.5zM533 808q0 -28 -19 -47.5t-47 -19.5q-29 0 -48 19.5t-19 47.5t19 47.5t48 19.5q28 0 47 -19.5t19 -47.5z" />
<glyph unicode="&#x1e85;" horiz-adv-x="842" d="M823 426h-26q-37 0 -46 -38q-129 -388 -130 -388h-86l-127 304q-136 -304 -137 -304h-81l-116 407q-15 19 -34 19h-32v33h280v-33h-46q-30 0 -25 -25l59 -249q18 41 53 119t89 198h52l137 -314l76 233q3 9 5 15.5t2 8.5q0 14 -17 14h-49v33h199v-33zM612 599 q0 -28 -19 -47.5t-47 -19.5q-29 0 -48 19.5t-19 47.5t19 47.5t48 19.5q28 0 47 -19.5t19 -47.5zM397 599q0 -28 -19 -47.5t-47 -19.5q-29 0 -48 19.5t-19 47.5t19 47.5t48 19.5q28 0 47 -19.5t19 -47.5z" />
<glyph unicode="&#x1ea0;" horiz-adv-x="798" d="M775 -3h-309v32h80l-67 197h-244l-36 -90q-19 -47 -19 -75q0 -11 5 -23q6 -9 64 -9v-32h-218v32q53 -2 73 11q25 16 55 96l217 572h88l235 -679h76v-32zM464 264l-100 294l-113 -294h213zM439 -205q0 -23 -15.5 -38.5t-38.5 -15.5t-38.5 15.5t-15.5 38.5q0 22 15.5 38 t38.5 16t38.5 -16t15.5 -38z" />
<glyph unicode="&#x1ea1;" horiz-adv-x="515" d="M495 0h-204v81q-58 -65 -61 -65q-32 -27 -79 -27q-51 0 -85 29q-34 31 -34 90q0 75 61 115q44 27 127 42l71 16q3 144 -57 146q-61 3 -63 -53q-1 -6 1.5 -11.5t6 -10t7 -8.5t3.5 -7q6 -18 -23 -29q-13 -5 -24 -5q-26 0 -44 16t-18 42q2 60 68 89q45 21 97 21 q96 0 131 -44q34 -42 36 -166v-194q1 -34 36 -34h47v-33zM291 122v112q-14 -3 -36.5 -10t-53.5 -18q-44 -20 -46 -66q-5 -69 54 -69q20 0 42.5 14t39.5 37zM310 -205q0 -23 -15.5 -38.5t-38.5 -15.5t-38.5 15.5t-15.5 38.5q0 22 15.5 38t38.5 16t38.5 -16t15.5 -38z" />
<glyph unicode="&#x1ea2;" horiz-adv-x="798" d="M775 -3h-309v32h80l-67 197h-244l-36 -90q-19 -47 -19 -75q0 -11 5 -23q6 -9 64 -9v-32h-218v32q53 -2 73 11q25 16 55 96l217 572h88l235 -679h76v-32zM464 264l-100 294l-113 -294h213zM434 759q1 1 -2.5 -1.5l-10.5 -7.5q-11 5 -18 12.5t-7 17.5q0 8 7.5 20t19.5 28 q23 30 23 47q-1 33 -37 34q-29 -2 -41 -26l-20 15q23 48 82 52q36 0 61.5 -13.5t22.5 -50.5q-5 -34 -49 -63q-23 -15 -29 -24.5t-8 -16.5q-1 -5 0 -11.5t6 -11.5z" />
<glyph unicode="&#x1ea3;" horiz-adv-x="515" d="M495 0h-204v81q-58 -65 -61 -65q-32 -27 -79 -27q-51 0 -85 29q-34 31 -34 90q0 75 61 115q44 27 127 42l71 16q3 144 -57 146q-61 3 -63 -53q-1 -6 1.5 -11.5t6 -10t7 -8.5t3.5 -7q6 -18 -23 -29q-13 -5 -24 -5q-26 0 -44 16t-18 42q2 60 68 89q45 21 97 21 q96 0 131 -44q34 -42 36 -166v-194q1 -34 36 -34h47v-33zM291 122v112q-14 -3 -36.5 -10t-53.5 -18q-44 -20 -46 -66q-5 -69 54 -69q20 0 42.5 14t39.5 37zM261 540q1 1 -2.5 -1.5l-10.5 -7.5q-11 5 -18 12.5t-7 17.5q0 8 7.5 20t19.5 28q23 30 23 47q-1 33 -37 34 q-29 -2 -41 -26l-20 15q23 48 82 52q36 0 61.5 -13.5t22.5 -50.5q-5 -34 -49 -63q-23 -15 -29 -24.5t-8 -16.5q-1 -5 0 -11.5t6 -11.5z" />
<glyph unicode="&#x1ea4;" horiz-adv-x="798" d="M775 -3h-309v32h80l-67 197h-244l-36 -90q-19 -47 -19 -75q0 -11 5 -23q6 -9 64 -9v-32h-218v32q53 -2 73 11q25 16 55 96l217 572h88l235 -679h76v-32zM464 264l-100 294l-113 -294h213zM853 880q0 -28 -19 -40l-165 -101h-55l129 149q31 36 66 36q19 0 31.5 -12.5 t12.5 -31.5zM585 740h-57l-112 97l-113 -97h-55l122 175h92z" />
<glyph unicode="&#x1ea5;" horiz-adv-x="515" d="M495 0h-204v81q-58 -65 -61 -65q-32 -27 -79 -27q-51 0 -85 29q-34 31 -34 90q0 75 61 115q44 27 127 42l71 16q3 144 -57 146q-61 3 -63 -53q-1 -6 1.5 -11.5t6 -10t7 -8.5t3.5 -7q6 -18 -23 -29q-13 -5 -24 -5q-26 0 -44 16t-18 42q2 60 68 89q45 21 97 21 q96 0 131 -44q34 -42 36 -166v-194q1 -34 36 -34h47v-33zM291 122v112q-14 -3 -36.5 -10t-53.5 -18q-44 -20 -46 -66q-5 -69 54 -69q20 0 42.5 14t39.5 37zM674 673q0 -28 -19 -40l-165 -101h-55l129 149q31 36 66 36q19 0 31.5 -12.5t12.5 -31.5zM413 534h-57l-112 97 l-113 -97h-55l122 175h92z" />
<glyph unicode="&#x1ea6;" horiz-adv-x="798" d="M775 -3h-309v32h80l-67 197h-244l-36 -90q-19 -47 -19 -75q0 -11 5 -23q6 -9 64 -9v-32h-218v32q53 -2 73 11q25 16 55 96l217 572h88l235 -679h76v-32zM464 264l-100 294l-113 -294h213zM715 744h-46l-119 120q-15 15 -15 36q0 23 24 31q21 8 30 8q31 0 50 -40zM587 748 h-57l-112 97l-113 -97h-55l122 175h92z" />
<glyph unicode="&#x1ea7;" horiz-adv-x="515" d="M495 0h-204v81q-58 -65 -61 -65q-32 -27 -79 -27q-51 0 -85 29q-34 31 -34 90q0 75 61 115q44 27 127 42l71 16q3 144 -57 146q-61 3 -63 -53q-1 -6 1.5 -11.5t6 -10t7 -8.5t3.5 -7q6 -18 -23 -29q-13 -5 -24 -5q-26 0 -44 16t-18 42q2 60 68 89q45 21 97 21 q96 0 131 -44q34 -42 36 -166v-194q1 -34 36 -34h47v-33zM291 122v112q-14 -3 -36.5 -10t-53.5 -18q-44 -20 -46 -66q-5 -69 54 -69q20 0 42.5 14t39.5 37zM549 535h-46l-119 120q-15 15 -15 36q0 23 24 31q21 8 30 8q31 0 50 -40zM426 529h-57l-112 97l-113 -97h-55 l122 175h92z" />
<glyph unicode="&#x1ea8;" horiz-adv-x="798" d="M775 -3h-309v32h80l-67 197h-244l-36 -90q-19 -47 -19 -75q0 -11 5 -23q6 -9 64 -9v-32h-218v32q53 -2 73 11q25 16 55 96l217 572h88l235 -679h76v-32zM464 264l-100 294l-113 -294h213zM650 754q1 1 -2.5 -1.5l-10.5 -7.5q-11 5 -18 12.5t-7 17.5q0 8 7.5 20t19.5 28 q23 30 23 47q-1 33 -37 34q-29 -2 -41 -26l-20 15q23 48 82 52q36 0 61.5 -13.5t22.5 -50.5q-5 -34 -49 -63q-23 -15 -29 -24.5t-8 -16.5q-1 -5 0 -11.5t6 -11.5zM593 744h-57l-112 97l-113 -97h-55l122 175h92z" />
<glyph unicode="&#x1ea9;" horiz-adv-x="515" d="M495 0h-204v81q-58 -65 -61 -65q-32 -27 -79 -27q-51 0 -85 29q-34 31 -34 90q0 75 61 115q44 27 127 42l71 16q3 144 -57 146q-61 3 -63 -53q-1 -6 1.5 -11.5t6 -10t7 -8.5t3.5 -7q6 -18 -23 -29q-13 -5 -24 -5q-26 0 -44 16t-18 42q2 60 68 89q45 21 97 21 q96 0 131 -44q34 -42 36 -166v-194q1 -34 36 -34h47v-33zM291 122v112q-14 -3 -36.5 -10t-53.5 -18q-44 -20 -46 -66q-5 -69 54 -69q20 0 42.5 14t39.5 37zM416 525h-57l-112 97l-113 -97h-55l122 175h92zM486 540q1 1 -2.5 -1.5l-10.5 -7.5q-11 5 -18 12.5t-7 17.5 q0 8 7.5 20t19.5 28q23 30 23 47q-1 33 -37 34q-29 -2 -41 -26l-20 15q23 48 82 52q36 0 61.5 -13.5t22.5 -50.5q-5 -34 -49 -63q-23 -15 -29 -24.5t-8 -16.5q-1 -5 0 -11.5t6 -11.5z" />
<glyph unicode="&#x1eaa;" horiz-adv-x="798" d="M775 -3h-309v32h80l-67 197h-244l-36 -90q-19 -47 -19 -75q0 -11 5 -23q6 -9 64 -9v-32h-218v32q53 -2 73 11q25 16 55 96l217 572h88l235 -679h76v-32zM464 264l-100 294l-113 -294h213zM589 730h-57l-112 97l-113 -97h-55l122 175h92zM579 1059q-1 -54 -19 -84 q-23 -36 -73 -36q-29 0 -81 18q-51 19 -76 19q-18 0 -34 -11t-19 -29h-32q7 114 90 114q29 0 83 -18q57 -17 82 -17q40 0 49 44h30z" />
<glyph unicode="&#x1eab;" horiz-adv-x="515" d="M495 0h-204v81q-58 -65 -61 -65q-32 -27 -79 -27q-51 0 -85 29q-34 31 -34 90q0 75 61 115q44 27 127 42l71 16q3 144 -57 146q-61 3 -63 -53q-1 -6 1.5 -11.5t6 -10t7 -8.5t3.5 -7q6 -18 -23 -29q-13 -5 -24 -5q-26 0 -44 16t-18 42q2 60 68 89q45 21 97 21 q96 0 131 -44q34 -42 36 -166v-194q1 -34 36 -34h47v-33zM291 122v112q-14 -3 -36.5 -10t-53.5 -18q-44 -20 -46 -66q-5 -69 54 -69q20 0 42.5 14t39.5 37zM418 525h-57l-112 97l-113 -97h-55l122 175h92zM419 858q-1 -54 -19 -84q-23 -36 -73 -36q-29 0 -81 18 q-51 19 -76 19q-18 0 -34 -11t-19 -29h-32q7 114 90 114q29 0 83 -18q57 -17 82 -17q40 0 49 44h30z" />
<glyph unicode="&#x1eac;" horiz-adv-x="798" d="M775 -3h-309v32h80l-67 197h-244l-36 -90q-19 -47 -19 -75q0 -11 5 -23q6 -9 64 -9v-32h-218v32q53 -2 73 11q25 16 55 96l217 572h88l235 -679h76v-32zM464 264l-100 294l-113 -294h213zM411 -206q0 -23 -15.5 -38.5t-38.5 -15.5t-38.5 15.5t-15.5 38.5q0 22 15.5 38 t38.5 16t38.5 -16t15.5 -38zM597 749h-57l-112 97l-113 -97h-55l122 175h92z" />
<glyph unicode="&#x1ead;" horiz-adv-x="515" d="M495 0h-204v81q-58 -65 -61 -65q-32 -27 -79 -27q-51 0 -85 29q-34 31 -34 90q0 75 61 115q44 27 127 42l71 16q3 144 -57 146q-61 3 -63 -53q-1 -6 1.5 -11.5t6 -10t7 -8.5t3.5 -7q6 -18 -23 -29q-13 -5 -24 -5q-26 0 -44 16t-18 42q2 60 68 89q45 21 97 21 q96 0 131 -44q34 -42 36 -166v-194q1 -34 36 -34h47v-33zM291 122v112q-14 -3 -36.5 -10t-53.5 -18q-44 -20 -46 -66q-5 -69 54 -69q20 0 42.5 14t39.5 37zM418 530h-57l-112 97l-113 -97h-55l122 175h92zM295 -209q0 -23 -15.5 -38.5t-38.5 -15.5t-38.5 15.5t-15.5 38.5 q0 22 15.5 38t38.5 16t38.5 -16t15.5 -38z" />
<glyph unicode="&#x1eae;" horiz-adv-x="798" d="M775 -3h-309v32h80l-67 197h-244l-36 -90q-19 -47 -19 -75q0 -11 5 -23q6 -9 64 -9v-32h-218v32q53 -2 73 11q25 16 55 96l217 572h88l235 -679h76v-32zM464 264l-100 294l-113 -294h213zM629 1005q0 -28 -19 -40l-165 -101h-55l129 149q31 36 66 36q19 0 31.5 -12.5 t12.5 -31.5zM557 885q7 -138 -133 -138q-142 0 -131 137q5 5 16 5q12 1 20 -5q13 -75 96 -77q39 0 62 16.5t36 64.5q4 4 17 4q13 -1 17 -7z" />
<glyph unicode="&#x1eaf;" horiz-adv-x="515" d="M495 0h-204v81q-58 -65 -61 -65q-32 -27 -79 -27q-51 0 -85 29q-34 31 -34 90q0 75 61 115q44 27 127 42l71 16q3 144 -57 146q-61 3 -63 -53q-1 -6 1.5 -11.5t6 -10t7 -8.5t3.5 -7q6 -18 -23 -29q-13 -5 -24 -5q-26 0 -44 16t-18 42q2 60 68 89q45 21 97 21 q96 0 131 -44q34 -42 36 -166v-194q1 -34 36 -34h47v-33zM291 122v112q-14 -3 -36.5 -10t-53.5 -18q-44 -20 -46 -66q-5 -69 54 -69q20 0 42.5 14t39.5 37zM401 672q7 -138 -133 -138q-142 0 -131 137q5 5 16 5q12 1 20 -5q13 -75 96 -77q39 0 62 16.5t36 64.5q4 4 17 4 q13 -1 17 -7zM462 781q0 -28 -19 -40l-165 -101h-55l129 149q31 36 66 36q19 0 31.5 -12.5t12.5 -31.5z" />
<glyph unicode="&#x1eb0;" horiz-adv-x="798" d="M775 -3h-309v32h80l-67 197h-244l-36 -90q-19 -47 -19 -75q0 -11 5 -23q6 -9 64 -9v-32h-218v32q53 -2 73 11q25 16 55 96l217 572h88l235 -679h76v-32zM464 264l-100 294l-113 -294h213zM459 868h-46l-119 120q-15 15 -15 36q0 23 24 31q21 8 30 8q31 0 50 -40zM557 885 q7 -138 -133 -138q-142 0 -131 137q5 5 16 5q12 1 20 -5q13 -75 96 -77q39 0 62 16.5t36 64.5q4 4 17 4q13 -1 17 -7z" />
<glyph unicode="&#x1eb1;" horiz-adv-x="515" d="M495 0h-204v81q-58 -65 -61 -65q-32 -27 -79 -27q-51 0 -85 29q-34 31 -34 90q0 75 61 115q44 27 127 42l71 16q3 144 -57 146q-61 3 -63 -53q-1 -6 1.5 -11.5t6 -10t7 -8.5t3.5 -7q6 -18 -23 -29q-13 -5 -24 -5q-26 0 -44 16t-18 42q2 60 68 89q45 21 97 21 q96 0 131 -44q34 -42 36 -166v-194q1 -34 36 -34h47v-33zM291 122v112q-14 -3 -36.5 -10t-53.5 -18q-44 -20 -46 -66q-5 -69 54 -69q20 0 42.5 14t39.5 37zM384 676q7 -138 -133 -138q-142 0 -131 137q5 5 16 5q12 1 20 -5q13 -75 96 -77q39 0 62 16.5t36 64.5q4 4 17 4 q13 -1 17 -7zM295 633h-46l-119 120q-15 15 -15 36q0 23 24 31q21 8 30 8q31 0 50 -40z" />
<glyph unicode="&#x1eb2;" horiz-adv-x="798" d="M775 -3h-309v32h80l-67 197h-244l-36 -90q-19 -47 -19 -75q0 -11 5 -23q6 -9 64 -9v-32h-218v32q53 -2 73 11q25 16 55 96l217 572h88l235 -679h76v-32zM464 264l-100 294l-113 -294h213zM444 872q1 1 -2.5 -1.5l-10.5 -7.5q-11 5 -18 12.5t-7 17.5q0 8 7.5 20t19.5 28 q23 30 23 47q-1 33 -37 34q-29 -2 -41 -26l-20 15q23 48 82 52q36 0 61.5 -13.5t22.5 -50.5q-5 -34 -49 -63q-23 -15 -29 -24.5t-8 -16.5q-1 -5 0 -11.5t6 -11.5zM557 885q7 -138 -133 -138q-142 0 -131 137q5 5 16 5q12 1 20 -5q13 -75 96 -77q39 0 62 16.5t36 64.5 q4 4 17 4q13 -1 17 -7z" />
<glyph unicode="&#x1eb3;" horiz-adv-x="515" d="M495 0h-204v81q-58 -65 -61 -65q-32 -27 -79 -27q-51 0 -85 29q-34 31 -34 90q0 75 61 115q44 27 127 42l71 16q3 144 -57 146q-61 3 -63 -53q-1 -6 1.5 -11.5t6 -10t7 -8.5t3.5 -7q6 -18 -23 -29q-13 -5 -24 -5q-26 0 -44 16t-18 42q2 60 68 89q45 21 97 21 q96 0 131 -44q34 -42 36 -166v-194q1 -34 36 -34h47v-33zM291 122v112q-14 -3 -36.5 -10t-53.5 -18q-44 -20 -46 -66q-5 -69 54 -69q20 0 42.5 14t39.5 37zM393 667q7 -138 -133 -138q-142 0 -131 137q5 5 16 5q12 1 20 -5q13 -75 96 -77q39 0 62 16.5t36 64.5q4 4 17 4 q13 -1 17 -7zM276 632q1 1 -2.5 -1.5l-10.5 -7.5q-11 5 -18 12.5t-7 17.5q0 8 7.5 20t19.5 28q23 30 23 47q-1 33 -37 34q-29 -2 -41 -26l-20 15q23 48 82 52q36 0 61.5 -13.5t22.5 -50.5q-5 -34 -49 -63q-23 -15 -29 -24.5t-8 -16.5q-1 -5 0 -11.5t6 -11.5z" />
<glyph unicode="&#x1eb4;" horiz-adv-x="798" d="M775 -3h-309v32h80l-67 197h-244l-36 -90q-19 -47 -19 -75q0 -11 5 -23q6 -9 64 -9v-32h-218v32q53 -2 73 11q25 16 55 96l217 572h88l235 -679h76v-32zM464 264l-100 294l-113 -294h213zM592 1033q-1 -54 -19 -84q-23 -36 -73 -36q-29 0 -81 18q-51 19 -76 19 q-18 0 -34 -11t-19 -29h-32q7 114 90 114q29 0 83 -18q57 -17 82 -17q40 0 49 44h30zM557 885q7 -138 -133 -138q-142 0 -131 137q5 5 16 5q12 1 20 -5q13 -75 96 -77q39 0 62 16.5t36 64.5q4 4 17 4q13 -1 17 -7z" />
<glyph unicode="&#x1eb5;" horiz-adv-x="515" d="M495 0h-204v81q-58 -65 -61 -65q-32 -27 -79 -27q-51 0 -85 29q-34 31 -34 90q0 75 61 115q44 27 127 42l71 16q3 144 -57 146q-61 3 -63 -53q-1 -6 1.5 -11.5t6 -10t7 -8.5t3.5 -7q6 -18 -23 -29q-13 -5 -24 -5q-26 0 -44 16t-18 42q2 60 68 89q45 21 97 21 q96 0 131 -44q34 -42 36 -166v-194q1 -34 36 -34h47v-33zM291 122v112q-14 -3 -36.5 -10t-53.5 -18q-44 -20 -46 -66q-5 -69 54 -69q20 0 42.5 14t39.5 37zM383 671q7 -138 -133 -138q-142 0 -131 137q5 5 16 5q12 1 20 -5q13 -75 96 -77q39 0 62 16.5t36 64.5q4 4 17 4 q13 -1 17 -7zM420 838q-1 -54 -19 -84q-23 -36 -73 -36q-29 0 -81 18q-51 19 -76 19q-18 0 -34 -11t-19 -29h-32q7 114 90 114q29 0 83 -18q57 -17 82 -17q40 0 49 44h30z" />
<glyph unicode="&#x1eb6;" horiz-adv-x="798" d="M775 -3h-309v32h80l-67 197h-244l-36 -90q-19 -47 -19 -75q0 -11 5 -23q6 -9 64 -9v-32h-218v32q53 -2 73 11q25 16 55 96l217 572h88l235 -679h76v-32zM464 264l-100 294l-113 -294h213zM405 -193q0 -23 -15.5 -38.5t-38.5 -15.5t-38.5 15.5t-15.5 38.5q0 22 15.5 38 t38.5 16t38.5 -16t15.5 -38zM548 880q7 -138 -133 -138q-142 0 -131 137q5 5 16 5q12 1 20 -5q13 -75 96 -77q39 0 62 16.5t36 64.5q4 4 17 4q13 -1 17 -7z" />
<glyph unicode="&#x1eb7;" horiz-adv-x="515" d="M495 0h-204v81q-58 -65 -61 -65q-32 -27 -79 -27q-51 0 -85 29q-34 31 -34 90q0 75 61 115q44 27 127 42l71 16q3 144 -57 146q-61 3 -63 -53q-1 -6 1.5 -11.5t6 -10t7 -8.5t3.5 -7q6 -18 -23 -29q-13 -5 -24 -5q-26 0 -44 16t-18 42q2 60 68 89q45 21 97 21 q96 0 131 -44q34 -42 36 -166v-194q1 -34 36 -34h47v-33zM291 122v112q-14 -3 -36.5 -10t-53.5 -18q-44 -20 -46 -66q-5 -69 54 -69q20 0 42.5 14t39.5 37zM378 675q7 -138 -133 -138q-142 0 -131 137q5 5 16 5q12 1 20 -5q13 -75 96 -77q39 0 62 16.5t36 64.5q4 4 17 4 q13 -1 17 -7zM294 -184q0 -23 -15.5 -38.5t-38.5 -15.5t-38.5 15.5t-15.5 38.5q0 22 15.5 38t38.5 16t38.5 -16t15.5 -38z" />
<glyph unicode="&#x1eb8;" horiz-adv-x="731" d="M693 240l-12 -240h-630v31h94v628h-94v31h614l2 -202h-42q-5 40 -16 70t-32 50.5t-54 31t-81 10.5l-160 3v-283h118q43 0 62 25q24 31 24 93h37v-279h-37q0 60 -25 91t-61 31h-118v-293l181 2q28 0 67 15q41 15 60 34q61 56 65 151h38zM459 -191q0 -23 -15.5 -38.5 t-38.5 -15.5t-38.5 15.5t-15.5 38.5q0 22 15.5 38t38.5 16t38.5 -16t15.5 -38z" />
<glyph unicode="&#x1eb9;" horiz-adv-x="478" d="M445 227q0 2 -294 2q0 -75 41 -122q43 -52 120 -52q48 0 107 36l12 -16q-72 -89 -182 -90q-108 0 -166.5 60.5t-58.5 169.5q0 54 14 98t40 79q61 79 168 79q112 -2 158 -70q17 -26 27 -69t14 -105zM318 277q0 139 -85 139q-86 0 -86 -139q52 -2 171 0zM311 -191 q0 -23 -15.5 -38.5t-38.5 -15.5t-38.5 15.5t-15.5 38.5q0 22 15.5 38t38.5 16t38.5 -16t15.5 -38z" />
<glyph unicode="&#x1eba;" horiz-adv-x="731" d="M693 240l-12 -240h-630v31h94v628h-94v31h614l2 -202h-42q-5 40 -16 70t-32 50.5t-54 31t-81 10.5l-160 3v-283h118q43 0 62 25q24 31 24 93h37v-279h-37q0 60 -25 91t-61 31h-118v-293l181 2q28 0 67 15q41 15 60 34q61 56 65 151h38zM400 755q1 1 -2.5 -1.5l-10.5 -7.5 q-11 5 -18 12.5t-7 17.5q0 8 7.5 20t19.5 28q23 30 23 47q-1 33 -37 34q-29 -2 -41 -26l-20 15q23 48 82 52q36 0 61.5 -13.5t22.5 -50.5q-5 -34 -49 -63q-23 -15 -29 -24.5t-8 -16.5q-1 -5 0 -11.5t6 -11.5z" />
<glyph unicode="&#x1ebb;" horiz-adv-x="478" d="M445 227q0 2 -294 2q0 -75 41 -122q43 -52 120 -52q48 0 107 36l12 -16q-72 -89 -182 -90q-108 0 -166.5 60.5t-58.5 169.5q0 54 14 98t40 79q61 79 168 79q112 -2 158 -70q17 -26 27 -69t14 -105zM318 277q0 139 -85 139q-86 0 -86 -139q52 -2 171 0zM258 542 q1 1 -2.5 -1.5l-10.5 -7.5q-11 5 -18 12.5t-7 17.5q0 8 7.5 20t19.5 28q23 30 23 47q-1 33 -37 34q-29 -2 -41 -26l-20 15q23 48 82 52q36 0 61.5 -13.5t22.5 -50.5q-5 -34 -49 -63q-23 -15 -29 -24.5t-8 -16.5q-1 -5 0 -11.5t6 -11.5z" />
<glyph unicode="&#x1ebc;" horiz-adv-x="731" d="M693 240l-12 -240h-630v31h94v628h-94v31h614l2 -202h-42q-5 40 -16 70t-32 50.5t-54 31t-81 10.5l-160 3v-283h118q43 0 62 25q24 31 24 93h37v-279h-37q0 60 -25 91t-61 31h-118v-293l181 2q28 0 67 15q41 15 60 34q61 56 65 151h38zM537 870q-1 -54 -19 -84 q-23 -36 -73 -36q-29 0 -81 18q-51 19 -76 19q-18 0 -34 -11t-19 -29h-32q7 114 90 114q29 0 83 -18q57 -17 82 -17q40 0 49 44h30z" />
<glyph unicode="&#x1ebd;" horiz-adv-x="478" d="M445 227q0 2 -294 2q0 -75 41 -122q43 -52 120 -52q48 0 107 36l12 -16q-72 -89 -182 -90q-108 0 -166.5 60.5t-58.5 169.5q0 54 14 98t40 79q61 79 168 79q112 -2 158 -70q17 -26 27 -69t14 -105zM318 277q0 139 -85 139q-86 0 -86 -139q52 -2 171 0zM401 654 q-1 -54 -19 -84q-23 -36 -73 -36q-29 0 -81 18q-51 19 -76 19q-18 0 -34 -11t-19 -29h-32q7 114 90 114q29 0 83 -18q57 -17 82 -17q40 0 49 44h30z" />
<glyph unicode="&#x1ebe;" horiz-adv-x="731" d="M693 240l-12 -240h-630v31h94v628h-94v31h614l2 -202h-42q-5 40 -16 70t-32 50.5t-54 31t-81 10.5l-160 3v-283h118q43 0 62 25q24 31 24 93h37v-279h-37q0 60 -25 91t-61 31h-118v-293l181 2q28 0 67 15q41 15 60 34q61 56 65 151h38zM781 881q0 -28 -19 -40l-165 -101 h-55l129 149q31 36 66 36q19 0 31.5 -12.5t12.5 -31.5zM524 735h-57l-112 97l-113 -97h-55l122 175h92z" />
<glyph unicode="&#x1ebf;" horiz-adv-x="478" d="M445 227q0 2 -294 2q0 -75 41 -122q43 -52 120 -52q48 0 107 36l12 -16q-72 -89 -182 -90q-108 0 -166.5 60.5t-58.5 169.5q0 54 14 98t40 79q61 79 168 79q112 -2 158 -70q17 -26 27 -69t14 -105zM318 277q0 139 -85 139q-86 0 -86 -139q52 -2 171 0zM675 675 q0 -28 -19 -40l-165 -101h-55l129 149q31 36 66 36q19 0 31.5 -12.5t12.5 -31.5zM413 533h-57l-112 97l-113 -97h-55l122 175h92z" />
<glyph unicode="&#x1ec0;" horiz-adv-x="731" d="M693 240l-12 -240h-630v31h94v628h-94v31h614l2 -202h-42q-5 40 -16 70t-32 50.5t-54 31t-81 10.5l-160 3v-283h118q43 0 62 25q24 31 24 93h37v-279h-37q0 60 -25 91t-61 31h-118v-293l181 2q28 0 67 15q41 15 60 34q61 56 65 151h38zM652 738h-46l-119 120 q-15 15 -15 36q0 23 24 31q21 8 30 8q31 0 50 -40zM535 740h-57l-112 97l-113 -97h-55l122 175h92z" />
<glyph unicode="&#x1ec1;" horiz-adv-x="478" d="M445 227q0 2 -294 2q0 -75 41 -122q43 -52 120 -52q48 0 107 36l12 -16q-72 -89 -182 -90q-108 0 -166.5 60.5t-58.5 169.5q0 54 14 98t40 79q61 79 168 79q112 -2 158 -70q17 -26 27 -69t14 -105zM318 277q0 139 -85 139q-86 0 -86 -139q52 -2 171 0zM560 530h-46 l-119 120q-15 15 -15 36q0 23 24 31q21 8 30 8q31 0 50 -40zM423 529h-57l-112 97l-113 -97h-55l122 175h92z" />
<glyph unicode="&#x1ec2;" horiz-adv-x="731" d="M693 240l-12 -240h-630v31h94v628h-94v31h614l2 -202h-42q-5 40 -16 70t-32 50.5t-54 31t-81 10.5l-160 3v-283h118q43 0 62 25q24 31 24 93h37v-279h-37q0 60 -25 91t-61 31h-118v-293l181 2q28 0 67 15q41 15 60 34q61 56 65 151h38zM589 749q1 1 -2.5 -1.5l-10.5 -7.5 q-11 5 -18 12.5t-7 17.5q0 8 7.5 20t19.5 28q23 30 23 47q-1 33 -37 34q-29 -2 -41 -26l-20 15q23 48 82 52q36 0 61.5 -13.5t22.5 -50.5q-5 -34 -49 -63q-23 -15 -29 -24.5t-8 -16.5q-1 -5 0 -11.5t6 -11.5zM531 739h-57l-112 97l-113 -97h-55l122 175h92z" />
<glyph unicode="&#x1ec3;" horiz-adv-x="478" d="M445 227q0 2 -294 2q0 -75 41 -122q43 -52 120 -52q48 0 107 36l12 -16q-72 -89 -182 -90q-108 0 -166.5 60.5t-58.5 169.5q0 54 14 98t40 79q61 79 168 79q112 -2 158 -70q17 -26 27 -69t14 -105zM318 277q0 139 -85 139q-86 0 -86 -139q52 -2 171 0zM412 528h-57 l-112 97l-113 -97h-55l122 175h92zM470 544q1 1 -2.5 -1.5l-10.5 -7.5q-11 5 -18 12.5t-7 17.5q0 8 7.5 20t19.5 28q23 30 23 47q-1 33 -37 34q-29 -2 -41 -26l-20 15q23 48 82 52q36 0 61.5 -13.5t22.5 -50.5q-5 -34 -49 -63q-23 -15 -29 -24.5t-8 -16.5q-1 -5 0 -11.5 t6 -11.5z" />
<glyph unicode="&#x1ec4;" horiz-adv-x="731" d="M693 240l-12 -240h-630v31h94v628h-94v31h614l2 -202h-42q-5 40 -16 70t-32 50.5t-54 31t-81 10.5l-160 3v-283h118q43 0 62 25q24 31 24 93h37v-279h-37q0 60 -25 91t-61 31h-118v-293l181 2q28 0 67 15q41 15 60 34q61 56 65 151h38zM544 745h-57l-112 97l-113 -97h-55 l122 175h92zM546 1070q-1 -54 -19 -84q-23 -36 -73 -36q-29 0 -81 18q-51 19 -76 19q-18 0 -34 -11t-19 -29h-32q7 114 90 114q29 0 83 -18q57 -17 82 -17q40 0 49 44h30z" />
<glyph unicode="&#x1ec5;" horiz-adv-x="478" d="M445 227q0 2 -294 2q0 -75 41 -122q43 -52 120 -52q48 0 107 36l12 -16q-72 -89 -182 -90q-108 0 -166.5 60.5t-58.5 169.5q0 54 14 98t40 79q61 79 168 79q112 -2 158 -70q17 -26 27 -69t14 -105zM318 277q0 139 -85 139q-86 0 -86 -139q52 -2 171 0zM412 528h-57 l-112 97l-113 -97h-55l122 175h92zM412 858q-1 -54 -19 -84q-23 -36 -73 -36q-29 0 -81 18q-51 19 -76 19q-18 0 -34 -11t-19 -29h-32q7 114 90 114q29 0 83 -18q57 -17 82 -17q40 0 49 44h30z" />
<glyph unicode="&#x1ec6;" horiz-adv-x="731" d="M693 240l-12 -240h-630v31h94v628h-94v31h614l2 -202h-42q-5 40 -16 70t-32 50.5t-54 31t-81 10.5l-160 3v-283h118q43 0 62 25q24 31 24 93h37v-279h-37q0 60 -25 91t-61 31h-118v-293l181 2q28 0 67 15q41 15 60 34q61 56 65 151h38zM421 -190q0 -23 -15.5 -38.5 t-38.5 -15.5t-38.5 15.5t-15.5 38.5q0 22 15.5 38t38.5 16t38.5 -16t15.5 -38zM541 738h-57l-112 97l-113 -97h-55l122 175h92z" />
<glyph unicode="&#x1ec7;" horiz-adv-x="478" d="M445 227q0 2 -294 2q0 -75 41 -122q43 -52 120 -52q48 0 107 36l12 -16q-72 -89 -182 -90q-108 0 -166.5 60.5t-58.5 169.5q0 54 14 98t40 79q61 79 168 79q112 -2 158 -70q17 -26 27 -69t14 -105zM318 277q0 139 -85 139q-86 0 -86 -139q52 -2 171 0zM427 538h-57 l-112 97l-113 -97h-55l122 175h92zM303 -181q0 -23 -15.5 -38.5t-38.5 -15.5t-38.5 15.5t-15.5 38.5q0 22 15.5 38t38.5 16t38.5 -16t15.5 -38z" />
<glyph unicode="&#x1ec8;" horiz-adv-x="418" d="M373 0h-324v31h93v628h-93v31h324v-31h-92v-628h92v-31zM225 753q1 1 -2.5 -1.5l-10.5 -7.5q-11 5 -18 12.5t-7 17.5q0 8 7.5 20t19.5 28q23 30 23 47q-1 33 -37 34q-29 -2 -41 -26l-20 15q23 48 82 52q36 0 61.5 -13.5t22.5 -50.5q-5 -34 -49 -63q-23 -15 -29 -24.5 t-8 -16.5q-1 -5 0 -11.5t6 -11.5z" />
<glyph unicode="&#x1ec9;" horiz-adv-x="337" d="M315 0h-279v32h58q18 0 23 23v337q-1 35 -34 35h-47v32h202v-404q3 -23 23 -23h54v-32zM189 520q1 1 -2.5 -1.5l-10.5 -7.5q-11 5 -18 12.5t-7 17.5q0 8 7.5 20t19.5 28q23 30 23 47q-1 33 -37 34q-29 -2 -41 -26l-20 15q23 48 82 52q36 0 61.5 -13.5t22.5 -50.5 q-5 -34 -49 -63q-23 -15 -29 -24.5t-8 -16.5q-1 -5 0 -11.5t6 -11.5z" />
<glyph unicode="&#x1eca;" horiz-adv-x="418" d="M373 0h-324v31h93v628h-93v31h324v-31h-92v-628h92v-31zM263 -205q0 -23 -15.5 -38.5t-38.5 -15.5t-38.5 15.5t-15.5 38.5q0 22 15.5 38t38.5 16t38.5 -16t15.5 -38z" />
<glyph unicode="&#x1ecb;" horiz-adv-x="320" d="M241 628q0 -15 -6 -28t-16 -23t-24 -16t-29 -6t-28.5 6t-24 16t-16.5 23t-6 28q0 33 22 54.5t53 21.5q33 0 54 -21.5t21 -54.5zM307 0h-279v32h58q18 0 23 23v337q-1 35 -34 35h-47v32h202v-404q3 -23 23 -23h54v-32zM215 -209q0 -23 -15.5 -38.5t-38.5 -15.5t-38.5 15.5 t-15.5 38.5q0 22 15.5 38t38.5 16t38.5 -16t15.5 -38z" />
<glyph unicode="&#x1ecc;" horiz-adv-x="747" d="M692 339q0 -149 -94 -252q-93 -103 -224 -103q-130 0 -226 107t-95 254q1 160 96 264q93 97 225 97q143 0 230 -101q88 -100 88 -266zM540 336q0 161 -30 238q-38 99 -136 99q-95 0 -136 -95q-34 -78 -34 -237t34 -231q40 -87 137 -87q93 0 133 88q32 75 32 225z M417 -204q0 -23 -15.5 -38.5t-38.5 -15.5t-38.5 15.5t-15.5 38.5q0 22 15.5 38t38.5 16t38.5 -16t15.5 -38z" />
<glyph unicode="&#x1ecd;" horiz-adv-x="539" d="M509 239q0 -123 -64 -188.5t-188 -65.5q-112 0 -170 68q-53 63 -53 173q0 118 62.5 181.5t181.5 63.5q113 0 172 -60t59 -172zM373 198q0 225 -104 225q-99 0 -99 -173q0 -217 109 -217q94 0 94 165zM333 -200q0 -23 -15.5 -38.5t-38.5 -15.5t-38.5 15.5t-15.5 38.5 q0 22 15.5 38t38.5 16t38.5 -16t15.5 -38z" />
<glyph unicode="&#x1ece;" horiz-adv-x="747" d="M692 339q0 -149 -94 -252q-93 -103 -224 -103q-130 0 -226 107t-95 254q1 160 96 264q93 97 225 97q143 0 230 -101q88 -100 88 -266zM540 336q0 161 -30 238q-38 99 -136 99q-95 0 -136 -95q-34 -78 -34 -237t34 -231q40 -87 137 -87q93 0 133 88q32 75 32 225zM395 757 q1 1 -2.5 -1.5l-10.5 -7.5q-11 5 -18 12.5t-7 17.5q0 8 7.5 20t19.5 28q23 30 23 47q-1 33 -37 34q-29 -2 -41 -26l-20 15q23 48 82 52q36 0 61.5 -13.5t22.5 -50.5q-5 -34 -49 -63q-23 -15 -29 -24.5t-8 -16.5q-1 -5 0 -11.5t6 -11.5z" />
<glyph unicode="&#x1ecf;" horiz-adv-x="539" d="M509 239q0 -123 -64 -188.5t-188 -65.5q-112 0 -170 68q-53 63 -53 173q0 118 62.5 181.5t181.5 63.5q113 0 172 -60t59 -172zM373 198q0 225 -104 225q-99 0 -99 -173q0 -217 109 -217q94 0 94 165zM295 519q1 1 -2.5 -1.5l-10.5 -7.5q-11 5 -18 12.5t-7 17.5 q0 8 7.5 20t19.5 28q23 30 23 47q-1 33 -37 34q-29 -2 -41 -26l-20 15q23 48 82 52q36 0 61.5 -13.5t22.5 -50.5q-5 -34 -49 -63q-23 -15 -29 -24.5t-8 -16.5q-1 -5 0 -11.5t6 -11.5z" />
<glyph unicode="&#x1ed0;" horiz-adv-x="747" d="M692 339q0 -149 -94 -252q-93 -103 -224 -103q-130 0 -226 107t-95 254q1 160 96 264q93 97 225 97q143 0 230 -101q88 -100 88 -266zM540 336q0 161 -30 238q-38 99 -136 99q-95 0 -136 -95q-34 -78 -34 -237t34 -231q40 -87 137 -87q93 0 133 88q32 75 32 225zM791 866 q0 -28 -19 -40l-165 -101h-55l129 149q31 36 66 36q19 0 31.5 -12.5t12.5 -31.5zM542 722h-57l-112 97l-113 -97h-55l122 175h92z" />
<glyph unicode="&#x1ed1;" horiz-adv-x="539" d="M509 239q0 -123 -64 -188.5t-188 -65.5q-112 0 -170 68q-53 63 -53 173q0 118 62.5 181.5t181.5 63.5q113 0 172 -60t59 -172zM373 198q0 225 -104 225q-99 0 -99 -173q0 -217 109 -217q94 0 94 165zM695 677q0 -28 -19 -40l-165 -101h-55l129 149q31 36 66 36 q19 0 31.5 -12.5t12.5 -31.5zM440 531h-57l-112 97l-113 -97h-55l122 175h92z" />
<glyph unicode="&#x1ed2;" horiz-adv-x="747" d="M692 339q0 -149 -94 -252q-93 -103 -224 -103q-130 0 -226 107t-95 254q1 160 96 264q93 97 225 97q143 0 230 -101q88 -100 88 -266zM540 336q0 161 -30 238q-38 99 -136 99q-95 0 -136 -95q-34 -78 -34 -237t34 -231q40 -87 137 -87q93 0 133 88q32 75 32 225zM690 727 h-46l-119 120q-15 15 -15 36q0 23 24 31q21 8 30 8q31 0 50 -40zM546 724h-57l-112 97l-113 -97h-55l122 175h92z" />
<glyph unicode="&#x1ed3;" horiz-adv-x="539" d="M509 239q0 -123 -64 -188.5t-188 -65.5q-112 0 -170 68q-53 63 -53 173q0 118 62.5 181.5t181.5 63.5q113 0 172 -60t59 -172zM373 198q0 225 -104 225q-99 0 -99 -173q0 -217 109 -217q94 0 94 165zM547 523h-46l-119 120q-15 15 -15 36q0 23 24 31q21 8 30 8 q31 0 50 -40zM434 519h-57l-112 97l-113 -97h-55l122 175h92z" />
<glyph unicode="&#x1ed4;" horiz-adv-x="747" d="M692 339q0 -149 -94 -252q-93 -103 -224 -103q-130 0 -226 107t-95 254q1 160 96 264q93 97 225 97q143 0 230 -101q88 -100 88 -266zM540 336q0 161 -30 238q-38 99 -136 99q-95 0 -136 -95q-34 -78 -34 -237t34 -231q40 -87 137 -87q93 0 133 88q32 75 32 225zM618 735 q1 1 -2.5 -1.5l-10.5 -7.5q-11 5 -18 12.5t-7 17.5q0 8 7.5 20t19.5 28q23 30 23 47q-1 33 -37 34q-29 -2 -41 -26l-20 15q23 48 82 52q36 0 61.5 -13.5t22.5 -50.5q-5 -34 -49 -63q-23 -15 -29 -24.5t-8 -16.5q-1 -5 0 -11.5t6 -11.5zM555 724h-57l-112 97l-113 -97h-55 l122 175h92z" />
<glyph unicode="&#x1ed5;" horiz-adv-x="539" d="M509 239q0 -123 -64 -188.5t-188 -65.5q-112 0 -170 68q-53 63 -53 173q0 118 62.5 181.5t181.5 63.5q113 0 172 -60t59 -172zM373 198q0 225 -104 225q-99 0 -99 -173q0 -217 109 -217q94 0 94 165zM447 531h-57l-112 97l-113 -97h-55l122 175h92zM509 540 q1 1 -2.5 -1.5l-10.5 -7.5q-11 5 -18 12.5t-7 17.5q0 8 7.5 20t19.5 28q23 30 23 47q-1 33 -37 34q-29 -2 -41 -26l-20 15q23 48 82 52q36 0 61.5 -13.5t22.5 -50.5q-5 -34 -49 -63q-23 -15 -29 -24.5t-8 -16.5q-1 -5 0 -11.5t6 -11.5z" />
<glyph unicode="&#x1ed6;" horiz-adv-x="747" d="M692 339q0 -149 -94 -252q-93 -103 -224 -103q-130 0 -226 107t-95 254q1 160 96 264q93 97 225 97q143 0 230 -101q88 -100 88 -266zM540 336q0 161 -30 238q-38 99 -136 99q-95 0 -136 -95q-34 -78 -34 -237t34 -231q40 -87 137 -87q93 0 133 88q32 75 32 225zM553 725 h-57l-112 97l-113 -97h-55l122 175h92zM543 1049q-1 -54 -19 -84q-23 -36 -73 -36q-29 0 -81 18q-51 19 -76 19q-18 0 -34 -11t-19 -29h-32q7 114 90 114q29 0 83 -18q57 -17 82 -17q40 0 49 44h30z" />
<glyph unicode="&#x1ed7;" horiz-adv-x="539" d="M509 239q0 -123 -64 -188.5t-188 -65.5q-112 0 -170 68q-53 63 -53 173q0 118 62.5 181.5t181.5 63.5q113 0 172 -60t59 -172zM373 198q0 225 -104 225q-99 0 -99 -173q0 -217 109 -217q94 0 94 165zM440 535h-57l-112 97l-113 -97h-55l122 175h92zM444 864 q-1 -54 -19 -84q-23 -36 -73 -36q-29 0 -81 18q-51 19 -76 19q-18 0 -34 -11t-19 -29h-32q7 114 90 114q29 0 83 -18q57 -17 82 -17q40 0 49 44h30z" />
<glyph unicode="&#x1ed8;" horiz-adv-x="747" d="M692 339q0 -149 -94 -252q-93 -103 -224 -103q-130 0 -226 107t-95 254q1 160 96 264q93 97 225 97q143 0 230 -101q88 -100 88 -266zM540 336q0 161 -30 238q-38 99 -136 99q-95 0 -136 -95q-34 -78 -34 -237t34 -231q40 -87 137 -87q93 0 133 88q32 75 32 225z M432 -206q0 -23 -15.5 -38.5t-38.5 -15.5t-38.5 15.5t-15.5 38.5q0 22 15.5 38t38.5 16t38.5 -16t15.5 -38zM533 722h-57l-112 97l-113 -97h-55l122 175h92z" />
<glyph unicode="&#x1ed9;" horiz-adv-x="539" d="M509 239q0 -123 -64 -188.5t-188 -65.5q-112 0 -170 68q-53 63 -53 173q0 118 62.5 181.5t181.5 63.5q113 0 172 -60t59 -172zM373 198q0 225 -104 225q-99 0 -99 -173q0 -217 109 -217q94 0 94 165zM449 534h-57l-112 97l-113 -97h-55l122 175h92zM331 -204 q0 -23 -15.5 -38.5t-38.5 -15.5t-38.5 15.5t-15.5 38.5q0 22 15.5 38t38.5 16t38.5 -16t15.5 -38z" />
<glyph unicode="&#x1eda;" horiz-adv-x="744" d="M692 339q0 -149 -94 -252q-93 -103 -224 -103q-130 0 -226 107t-95 254q1 160 96 264q93 97 225 97q164 0 251 -128q68 12 68 45q0 18 -18 29.5t-37 21.5q-23 11 -23 32q0 15 11.5 26.5t27.5 11.5q10 0 18 -4q81 -34 76 -100q-4 -70 -106 -87q50 -91 50 -214zM540 336 q0 161 -30 238q-38 99 -136 99q-95 0 -136 -95q-34 -78 -34 -237t34 -231q40 -87 137 -87q93 0 133 88q32 75 32 225zM542 921q0 -21 -13 -34l-134 -136l-20 4l97 182q10 19 36 19q34 0 34 -35z" />
<glyph unicode="&#x1edb;" horiz-adv-x="586" d="M486 370q58 19 58 54q0 16 -44 39q-19 10 -19 28q0 17 12 29.5t27 12.5q7 0 15 -3q83 -41 79 -102q-2 -38 -30.5 -61.5t-83.5 -28.5q15 -44 15 -99q0 -123 -64 -188.5t-188 -65.5q-112 0 -170 68q-53 63 -53 173q0 118 62.5 181.5t181.5 63.5q147 0 202 -101zM379 198 q0 225 -104 225q-99 0 -99 -173q0 -217 109 -217q94 0 94 165zM482 666q0 -28 -19 -40l-165 -101h-55l129 149q31 36 66 36q19 0 31.5 -12.5t12.5 -31.5z" />
<glyph unicode="&#x1edc;" horiz-adv-x="747" d="M692 339q0 -149 -94 -252q-93 -103 -224 -103q-130 0 -226 107t-95 254q1 160 96 264q93 97 225 97q164 0 251 -128q68 12 68 45q0 18 -18 29.5t-37 21.5q-23 11 -23 32q0 15 11.5 26.5t27.5 11.5q10 0 18 -4q81 -34 76 -100q-4 -70 -106 -87q50 -91 50 -214zM540 336 q0 161 -30 238q-38 99 -136 99q-95 0 -136 -95q-34 -78 -34 -237t34 -231q40 -87 137 -87q93 0 133 88q32 75 32 225zM406 751h-25l-140 136q-13 13 -13 32q0 36 40 36q26 0 38 -20z" />
<glyph unicode="&#x1edd;" horiz-adv-x="565" d="M486 370q58 19 58 54q0 16 -44 39q-19 10 -19 28q0 17 12 29.5t27 12.5q7 0 15 -3q83 -41 79 -102q-2 -38 -30.5 -61.5t-83.5 -28.5q15 -44 15 -99q0 -123 -64 -188.5t-188 -65.5q-112 0 -170 68q-53 63 -53 173q0 118 62.5 181.5t181.5 63.5q147 0 202 -101zM379 198 q0 225 -104 225q-99 0 -99 -173q0 -217 109 -217q94 0 94 165zM335 511h-46l-119 120q-15 15 -15 36q0 23 24 31q21 8 30 8q31 0 50 -40z" />
<glyph unicode="&#x1ede;" horiz-adv-x="737" d="M692 339q0 -149 -94 -252q-93 -103 -224 -103q-130 0 -226 107t-95 254q1 160 96 264q93 97 225 97q164 0 251 -128q68 12 68 45q0 18 -18 29.5t-37 21.5q-23 11 -23 32q0 15 11.5 26.5t27.5 11.5q10 0 18 -4q81 -34 76 -100q-4 -70 -106 -87q50 -91 50 -214zM540 336 q0 161 -30 238q-38 99 -136 99q-95 0 -136 -95q-34 -78 -34 -237t34 -231q40 -87 137 -87q93 0 133 88q32 75 32 225zM398 759q1 1 -2.5 -1.5l-10.5 -7.5q-11 5 -18 12.5t-7 17.5q0 8 7.5 20t19.5 28q23 30 23 47q-1 33 -37 34q-29 -2 -41 -26l-20 15q23 48 82 52 q36 0 61.5 -13.5t22.5 -50.5q-5 -34 -49 -63q-23 -15 -29 -24.5t-8 -16.5q-1 -5 0 -11.5t6 -11.5z" />
<glyph unicode="&#x1edf;" horiz-adv-x="565" d="M486 370q58 19 58 54q0 16 -44 39q-19 10 -19 28q0 17 12 29.5t27 12.5q7 0 15 -3q83 -41 79 -102q-2 -38 -30.5 -61.5t-83.5 -28.5q15 -44 15 -99q0 -123 -64 -188.5t-188 -65.5q-112 0 -170 68q-53 63 -53 173q0 118 62.5 181.5t181.5 63.5q147 0 202 -101zM379 198 q0 225 -104 225q-99 0 -99 -173q0 -217 109 -217q94 0 94 165zM308 518q1 1 -2.5 -1.5l-10.5 -7.5q-11 5 -18 12.5t-7 17.5q0 8 7.5 20t19.5 28q23 30 23 47q-1 33 -37 34q-29 -2 -41 -26l-20 15q23 48 82 52q36 0 61.5 -13.5t22.5 -50.5q-5 -34 -49 -63q-23 -15 -29 -24.5 t-8 -16.5q-1 -5 0 -11.5t6 -11.5z" />
<glyph unicode="&#x1ee0;" horiz-adv-x="738" d="M692 339q0 -149 -94 -252q-93 -103 -224 -103q-130 0 -226 107t-95 254q1 160 96 264q93 97 225 97q164 0 251 -128q68 12 68 45q0 18 -18 29.5t-37 21.5q-23 11 -23 32q0 15 11.5 26.5t27.5 11.5q10 0 18 -4q81 -34 76 -100q-4 -70 -106 -87q50 -91 50 -214zM540 336 q0 161 -30 238q-38 99 -136 99q-95 0 -136 -95q-34 -78 -34 -237t34 -231q40 -87 137 -87q93 0 133 88q32 75 32 225zM565 871q-30 -126 -121 -126q-28 0 -79 24q-50 25 -78 25q-34 0 -47 -48h-40q2 38 27 77q34 48 92 48q27 0 77 -24q49 -24 74 -24q20 0 34 15q6 7 18 33 h43z" />
<glyph unicode="&#x1ee1;" horiz-adv-x="605" d="M486 370q58 19 58 54q0 16 -44 39q-19 10 -19 28q0 17 12 29.5t27 12.5q7 0 15 -3q83 -41 79 -102q-2 -38 -30.5 -61.5t-83.5 -28.5q15 -44 15 -99q0 -123 -64 -188.5t-188 -65.5q-112 0 -170 68q-53 63 -53 173q0 118 62.5 181.5t181.5 63.5q147 0 202 -101zM379 198 q0 225 -104 225q-99 0 -99 -173q0 -217 109 -217q94 0 94 165zM476 652q-30 -126 -121 -126q-28 0 -79 24q-50 25 -78 25q-34 0 -47 -48h-40q2 38 27 77q34 48 92 48q27 0 77 -24q49 -24 74 -24q20 0 34 15q6 7 18 33h43z" />
<glyph unicode="&#x1ee2;" horiz-adv-x="740" d="M692 339q0 -149 -94 -252q-93 -103 -224 -103q-130 0 -226 107t-95 254q1 160 96 264q93 97 225 97q164 0 251 -128q68 12 68 45q0 18 -18 29.5t-37 21.5q-23 11 -23 32q0 15 11.5 26.5t27.5 11.5q10 0 18 -4q81 -34 76 -100q-4 -70 -106 -87q50 -91 50 -214zM540 336 q0 161 -30 238q-38 99 -136 99q-95 0 -136 -95q-34 -78 -34 -237t34 -231q40 -87 137 -87q93 0 133 88q32 75 32 225zM424 -206q0 -23 -15.5 -38.5t-38.5 -15.5t-38.5 15.5t-15.5 38.5q0 22 15.5 38t38.5 16t38.5 -16t15.5 -38z" />
<glyph unicode="&#x1ee3;" horiz-adv-x="598" d="M486 370q58 19 58 54q0 16 -44 39q-19 10 -19 28q0 17 12 29.5t27 12.5q7 0 15 -3q83 -41 79 -102q-2 -38 -30.5 -61.5t-83.5 -28.5q15 -44 15 -99q0 -123 -64 -188.5t-188 -65.5q-112 0 -170 68q-53 63 -53 173q0 118 62.5 181.5t181.5 63.5q147 0 202 -101zM379 198 q0 225 -104 225q-99 0 -99 -173q0 -217 109 -217q94 0 94 165zM347 -204q0 -23 -15.5 -38.5t-38.5 -15.5t-38.5 15.5t-15.5 38.5q0 22 15.5 38t38.5 16t38.5 -16t15.5 -38z" />
<glyph unicode="&#x1ee4;" horiz-adv-x="807" d="M783 659q-59 0 -69 -10q-25 -25 -25 -76v-298q0 -155 -62 -223q-61 -66 -204 -68q-125 0 -211 70q-87 70 -87 169v436h-92v31h323v-31h-93v-414q-2 -221 190 -219q195 0 195 237v310q0 53 -28 77q-11 9 -67 9v31h230v-31zM492 -204q0 -23 -15.5 -38.5t-38.5 -15.5 t-38.5 15.5t-15.5 38.5q0 22 15.5 38t38.5 16t38.5 -16t15.5 -38z" />
<glyph unicode="&#x1ee5;" horiz-adv-x="626" d="M596 0h-203v67q-51 -83 -152 -82q-35 0 -62 9.5t-45.5 31t-28 57t-9.5 88.5l-1 232q-3 24 -23 24h-55v31h200v-271q0 -67 27 -91q23 -23 71 -24q24 0 48 26q20 20 30 43v262q-5 24 -24 24h-42v31l187 1v-392q3 -35 35 -35h47v-32zM385 -205q0 -23 -15.5 -38.5 t-38.5 -15.5t-38.5 15.5t-15.5 38.5q0 22 15.5 38t38.5 16t38.5 -16t15.5 -38z" />
<glyph unicode="&#x1ee6;" horiz-adv-x="807" d="M783 659q-59 0 -69 -10q-25 -25 -25 -76v-298q0 -155 -62 -223q-61 -66 -204 -68q-125 0 -211 70q-87 70 -87 169v436h-92v31h323v-31h-93v-414q-2 -221 190 -219q195 0 195 237v310q0 53 -28 77q-11 9 -67 9v31h230v-31zM467 739q1 1 -2.5 -1.5l-10.5 -7.5 q-11 5 -18 12.5t-7 17.5q0 8 7.5 20t19.5 28q23 30 23 47q-1 33 -37 34q-29 -2 -41 -26l-20 15q23 48 82 52q36 0 61.5 -13.5t22.5 -50.5q-5 -34 -49 -63q-23 -15 -29 -24.5t-8 -16.5q-1 -5 0 -11.5t6 -11.5z" />
<glyph unicode="&#x1ee7;" horiz-adv-x="626" d="M596 0h-203v67q-51 -83 -152 -82q-35 0 -62 9.5t-45.5 31t-28 57t-9.5 88.5l-1 232q-3 24 -23 24h-55v31h200v-271q0 -67 27 -91q23 -23 71 -24q24 0 48 26q20 20 30 43v262q-5 24 -24 24h-42v31l187 1v-392q3 -35 35 -35h47v-32zM317 520q1 1 -2.5 -1.5l-10.5 -7.5 q-11 5 -18 12.5t-7 17.5q0 8 7.5 20t19.5 28q23 30 23 47q-1 33 -37 34q-29 -2 -41 -26l-20 15q23 48 82 52q36 0 61.5 -13.5t22.5 -50.5q-5 -34 -49 -63q-23 -15 -29 -24.5t-8 -16.5q-1 -5 0 -11.5t6 -11.5z" />
<glyph unicode="&#x1ee8;" horiz-adv-x="818" d="M905 753q-2 -42 -36 -68t-86 -26q-59 0 -69 -10q-25 -25 -25 -76v-298q0 -156 -62 -224q-61 -67 -204 -67q-145 0 -221.5 62.5t-76.5 176.5v436h-92v31h323v-31h-93v-414q0 -115 41 -165q43 -54 149 -54q193 0 193 237v310q0 54 -26 77q-11 9 -67 9v31h142q80 0 114 8 q41 8 41 37q0 19 -17 31l-38 20q-22 12 -22 33q0 15 11 26t27 11q9 0 18 -3q81 -34 76 -100zM609 876q0 -21 -13 -34l-134 -136l-20 4l97 182q10 19 36 19q34 0 34 -35z" />
<glyph unicode="&#x1ee9;" horiz-adv-x="635" d="M514 67q3 -35 35 -35h47v-32h-203v67q-51 -83 -152 -82q-35 0 -62 9.5t-45.5 31t-28 57t-9.5 88.5l-1 232q-3 24 -23 24h-55v31h200v-271q0 -67 27 -91q23 -23 71 -24q24 0 48 26q20 20 30 43v262q-5 24 -24 24h-42v32h149q15 2 30 8t26.5 15.5t19 21t7.5 24.5 q0 14 -44 37q-17 11 -17 30q0 15 11 28t26 13q7 0 15 -3q83 -39 79 -103q-5 -75 -115 -86v-377zM476 666q0 -28 -19 -40l-165 -101h-55l129 149q31 36 66 36q19 0 31.5 -12.5t12.5 -31.5z" />
<glyph unicode="&#x1eea;" horiz-adv-x="828" d="M905 753q-2 -42 -36 -68t-86 -26q-59 0 -69 -10q-25 -25 -25 -76v-298q0 -156 -62 -224q-61 -67 -204 -67q-145 0 -221.5 62.5t-76.5 176.5v436h-92v31h323v-31h-93v-414q0 -115 41 -165q43 -54 149 -54q193 0 193 237v310q0 54 -26 77q-11 9 -67 9v31h142q80 0 114 8 q41 8 41 37q0 19 -17 31l-38 20q-22 12 -22 33q0 15 11 26t27 11q9 0 18 -3q81 -34 76 -100zM476 704h-25l-140 136q-13 13 -13 32q0 36 40 36q26 0 38 -20z" />
<glyph unicode="&#x1eeb;" horiz-adv-x="629" d="M514 67q3 -35 35 -35h47v-32h-203v67q-51 -83 -152 -82q-35 0 -62 9.5t-45.5 31t-28 57t-9.5 88.5l-1 232q-3 24 -23 24h-55v31h200v-271q0 -67 27 -91q23 -23 71 -24q24 0 48 26q20 20 30 43v262q-5 24 -24 24h-42v32h149q15 2 30 8t26.5 15.5t19 21t7.5 24.5 q0 14 -44 37q-17 11 -17 30q0 15 11 28t26 13q7 0 15 -3q83 -39 79 -103q-5 -75 -115 -86v-377zM376 511h-46l-119 120q-15 15 -15 36q0 23 24 31q21 8 30 8q31 0 50 -40z" />
<glyph unicode="&#x1eec;" horiz-adv-x="835" d="M905 753q-2 -42 -36 -68t-86 -26q-59 0 -69 -10q-25 -25 -25 -76v-298q0 -156 -62 -224q-61 -67 -204 -67q-145 0 -221.5 62.5t-76.5 176.5v436h-92v31h323v-31h-93v-414q0 -115 41 -165q43 -54 149 -54q193 0 193 237v310q0 54 -26 77q-11 9 -67 9v31h142q80 0 114 8 q41 8 41 37q0 19 -17 31l-38 20q-22 12 -22 33q0 15 11 26t27 11q9 0 18 -3q81 -34 76 -100zM477 715q1 1 -2.5 -1.5l-10.5 -7.5q-11 5 -18 12.5t-7 17.5q0 8 7.5 20t19.5 28q23 30 23 47q-1 33 -37 34q-29 -2 -41 -26l-20 15q23 48 82 52q36 0 61.5 -13.5t22.5 -50.5 q-5 -34 -49 -63q-23 -15 -29 -24.5t-8 -16.5q-1 -5 0 -11.5t6 -11.5z" />
<glyph unicode="&#x1eed;" horiz-adv-x="631" d="M514 67q3 -35 35 -35h47v-32h-203v67q-51 -83 -152 -82q-35 0 -62 9.5t-45.5 31t-28 57t-9.5 88.5l-1 232q-3 24 -23 24h-55v31h200v-271q0 -67 27 -91q23 -23 71 -24q24 0 48 26q20 20 30 43v262q-5 24 -24 24h-42v32h149q15 2 30 8t26.5 15.5t19 21t7.5 24.5 q0 14 -44 37q-17 11 -17 30q0 15 11 28t26 13q7 0 15 -3q83 -39 79 -103q-5 -75 -115 -86v-377zM295 520q1 1 -2.5 -1.5l-10.5 -7.5q-11 5 -18 12.5t-7 17.5q0 8 7.5 20t19.5 28q23 30 23 47q-1 33 -37 34q-29 -2 -41 -26l-20 15q23 48 82 52q36 0 61.5 -13.5t22.5 -50.5 q-5 -34 -49 -63q-23 -15 -29 -24.5t-8 -16.5q-1 -5 0 -11.5t6 -11.5z" />
<glyph unicode="&#x1eee;" horiz-adv-x="839" d="M905 753q-2 -42 -36 -68t-86 -26q-59 0 -69 -10q-25 -25 -25 -76v-298q0 -156 -62 -224q-61 -67 -204 -67q-145 0 -221.5 62.5t-76.5 176.5v436h-92v31h323v-31h-93v-414q0 -115 41 -165q43 -54 149 -54q193 0 193 237v310q0 54 -26 77q-11 9 -67 9v31h142q80 0 114 8 q41 8 41 37q0 19 -17 31l-38 20q-22 12 -22 33q0 15 11 26t27 11q9 0 18 -3q81 -34 76 -100zM627 870q-30 -126 -121 -126q-28 0 -79 24q-50 25 -78 25q-34 0 -47 -48h-40q2 38 27 77q34 48 92 48q27 0 77 -24q49 -24 74 -24q20 0 34 15q6 7 18 33h43z" />
<glyph unicode="&#x1eef;" horiz-adv-x="633" d="M514 67q3 -35 35 -35h47v-32h-203v67q-51 -83 -152 -82q-35 0 -62 9.5t-45.5 31t-28 57t-9.5 88.5l-1 232q-3 24 -23 24h-55v31h200v-271q0 -67 27 -91q23 -23 71 -24q24 0 48 26q20 20 30 43v262q-5 24 -24 24h-42v32h149q15 2 30 8t26.5 15.5t19 21t7.5 24.5 q0 14 -44 37q-17 11 -17 30q0 15 11 28t26 13q7 0 15 -3q83 -39 79 -103q-5 -75 -115 -86v-377zM473 651q-30 -126 -121 -126q-28 0 -79 24q-50 25 -78 25q-34 0 -47 -48h-40q2 38 27 77q34 48 92 48q27 0 77 -24q49 -24 74 -24q20 0 34 15q6 7 18 33h43z" />
<glyph unicode="&#x1ef0;" horiz-adv-x="843" d="M905 753q-2 -42 -36 -68t-86 -26q-59 0 -69 -10q-25 -25 -25 -76v-298q0 -156 -62 -224q-61 -67 -204 -67q-145 0 -221.5 62.5t-76.5 176.5v436h-92v31h323v-31h-93v-414q0 -115 41 -165q43 -54 149 -54q193 0 193 237v310q0 54 -26 77q-11 9 -67 9v31h142q80 0 114 8 q41 8 41 37q0 19 -17 31l-38 20q-22 12 -22 33q0 15 11 26t27 11q9 0 18 -3q81 -34 76 -100zM475 -211q0 -23 -15.5 -38.5t-38.5 -15.5t-38.5 15.5t-15.5 38.5q0 22 15.5 38t38.5 16t38.5 -16t15.5 -38z" />
<glyph unicode="&#x1ef1;" horiz-adv-x="629" d="M514 67q3 -35 35 -35h47v-32h-203v67q-51 -83 -152 -82q-35 0 -62 9.5t-45.5 31t-28 57t-9.5 88.5l-1 232q-3 24 -23 24h-55v31h200v-271q0 -67 27 -91q23 -23 71 -24q24 0 48 26q20 20 30 43v262q-5 24 -24 24h-42v32h149q15 2 30 8t26.5 15.5t19 21t7.5 24.5 q0 14 -44 37q-17 11 -17 30q0 15 11 28t26 13q7 0 15 -3q83 -39 79 -103q-5 -75 -115 -86v-377zM372 -208q0 -23 -15.5 -38.5t-38.5 -15.5t-38.5 15.5t-15.5 38.5q0 22 15.5 38t38.5 16t38.5 -16t15.5 -38z" />
<glyph unicode="&#x1ef2;" horiz-adv-x="730" d="M713 690v-37q-59 1 -73 -13q-22 -20 -49 -81l-146 -283v-243h92v-33h-322v30l92 1v242l-220 386h-78l2 31h305v-31h-75q48 -85 94 -168t92 -167l110 224q3 3 15 30q14 33 14 50q0 7 -5 12q-13 14 -18 16q-11 4 -51 3l1 31h220zM418 740h-47l-118 120q-16 15 -16 36 q0 24 23 32q18 7 31 7q31 0 50 -40z" />
<glyph unicode="&#x1ef3;" horiz-adv-x="575" d="M567 428h-26q-30 0 -46 -41l-170 -387q-16 -38 -28 -65t-20 -41q-20 -41 -36 -66.5t-29 -38.5q-48 -43 -106 -43q-21 0 -38 10q-23 11 -23 36q0 8 3 17q9 25 62 25q5 0 19 -4.5t22 -4.5q9 0 13 4q54 31 89 146l-174 433q-15 20 -34 20h-31v30h278v-30q-24 0 -38 0.5 t-21.5 -0.5t-10 -4.5t-2.5 -12.5q0 -7 1 -10q-1 2 24 -64t76 -206q17 40 44 104t63 152q7 14 7 25q0 16 -17 16h-49v30h198v-30zM352 539h-47l-118 120q-16 15 -16 36q0 24 23 32q18 7 31 7q31 0 50 -40z" />
<glyph unicode="&#x1ef4;" horiz-adv-x="730" d="M713 690v-37q-59 1 -73 -13q-22 -20 -49 -81l-146 -283v-243h92v-33h-322v30l92 1v242l-220 386h-78l2 31h305v-31h-75q48 -85 94 -168t92 -167l110 224q3 3 15 30q14 33 14 50q0 7 -5 12q-13 14 -18 16q-11 4 -51 3l1 31h220zM424 -209q0 -23 -15.5 -38.5t-38.5 -15.5 t-38.5 15.5t-15.5 38.5q0 22 15.5 38t38.5 16t38.5 -16t15.5 -38z" />
</font>
</defs>
</svg>
