<?xml version="1.0" standalone="no"?>
<!DOCTYPE svg PUBLIC "-//W3C//DTD SVG 1.1//EN" "http://www.w3.org/Graphics/SVG/1.1/DTD/svg11.dtd" >
<svg xmlns="http://www.w3.org/2000/svg">
<metadata></metadata>
<defs>
<font id="gfs_didotbold_italic" horiz-adv-x="555" >
<font-face units-per-em="1000" ascent="800" descent="-200" />
<missing-glyph horiz-adv-x="300" />
<glyph unicode="ff" horiz-adv-x="668" d="M452 546q-10 4 -16 27q-6 22 -12 30q-22 28 -57 28q-22 0 -44 -12q-28 -15 -46 -62q-5 -12 -12 -40.5t-17 -73.5h172l6 26t7 26q4 16 9 28.5t10 22.5zM503 668q19 -13 26 -34q52 44 110 67q18 7 54 7q62 0 97 -21q30 -20 30 -60q0 -27 -15 -48t-39 -21q-15 0 -31 9 q-5 4 -11 25q-6 22 -12 30q-23 27 -58 27q-20 0 -44 -11q-26 -14 -46 -62q-5 -15 -13 -48.5t-19 -87.5q28 1 58.5 2.5t64.5 5.5l5 -8q-4 -9 -7.5 -21.5t-8.5 -29.5h-123l-51 -221q-41 -172 -72 -245q-26 -60 -72 -112q-11 -14 -26.5 -26.5t-34.5 -25.5q-44 -30 -69 -30 q-27 0 -40 9q25 51 32 107l17 3q17 -44 51 -44q24 0 37 25q5 8 9.5 23t9.5 36q4 15 10.5 50t17.5 91l67 360h-171q-13 -58 -25.5 -116t-25.5 -116q-19 -80 -37.5 -138t-35.5 -96q-28 -61 -83 -121q-67 -73 -119 -73q-27 0 -40 9q25 51 32 107l17 3q17 -44 51 -44q36 0 56 84 q19 90 54 273q11 57 21 114l20 114h-91l5 25q39 12 100 35q3 11 8.5 29t13.5 41q17 48 77 95q56 45 118 68q18 7 53 7q63 0 98 -21z" />
<glyph unicode="fi" horiz-adv-x="552" d="M282 589q-13 -34 -32 -135q40 2 208 12q60 4 60 -42q0 -17 -11 -59l-54 -194q-19 -69 -19 -84q0 -20 11 -20q12 0 88 47l12 -28l-95 -65q-60 -36 -101 -36q-31 0 -31 46q0 22 7 49l59 239q10 39 10 52q0 32 -32 32h-123q-13 -60 -26 -119.5t-27 -119.5q-39 -166 -74 -241 q-28 -61 -83 -121q-67 -73 -119 -73q-27 0 -40 9q25 51 32 107l17 3q17 -44 51 -44q36 0 56 84q4 17 28.5 145t70.5 370h-91l5 25q39 12 100 35q7 28 12.5 48t10.5 34q17 48 77 98q58 49 118 71q18 7 54 7q62 0 97 -21q30 -20 30 -59q0 -28 -15 -49t-39 -21q-15 0 -31 9 q-5 4 -11 25q-6 22 -12 30q-22 28 -58 28q-22 0 -44 -12q-26 -14 -46 -62z" />
<glyph unicode="fl" horiz-adv-x="575" d="M249 454q14 1 39 2.5t63 5.5l5 -8q-4 -8 -7.5 -21t-8.5 -30h-101q-66 -353 -127 -480q-28 -61 -83 -121q-67 -73 -119 -73q-27 0 -40 9q25 51 32 107l17 3q17 -44 51 -44q36 0 56 84q4 17 28.5 145t70.5 370h-91l5 25q39 12 100 35q7 28 12.5 48t10.5 34q17 48 77 98 q58 49 118 71q18 7 54 7q55 0 88 -16q35 9 64 21l10 -9q-3 -11 -7.5 -27t-9.5 -38l-107 -482q-12 -54 -12 -92q0 -13 12 -13q18 0 53 26l30 23l14 -27q-77 -56 -106 -73q-52 -31 -91 -31q-30 0 -30 43q0 46 16 120l101 479q-17 38 -64 38q-22 0 -44 -12q-26 -14 -46 -62 q-11 -29 -33 -135z" />
<glyph unicode="ffi" horiz-adv-x="830" d="M452 546q-10 4 -16 27q-6 22 -12 30q-22 28 -57 28q-22 0 -44 -12q-28 -15 -46 -62q-5 -12 -12 -40.5t-17 -73.5l173 5q12 49 12 50q4 14 9 26t10 22zM470 168q-38 -165 -72 -245q-26 -60 -72 -112q-11 -14 -26.5 -26.5t-34.5 -25.5q-44 -30 -69 -30q-27 0 -40 9 q25 51 32 107l17 3q17 -44 51 -44q24 0 37 25q5 8 9.5 23t9.5 36q2 5 8.5 40t19.5 101l71 364l-175 -4q-13 -58 -25.5 -116t-25.5 -116q-19 -80 -37.5 -138t-35.5 -96q-28 -61 -83 -121q-67 -73 -119 -73q-27 0 -40 9q25 51 32 107l17 3q17 -44 51 -44q36 0 56 84 q19 90 54 273q11 57 21 114l20 114h-91l5 25q7 2 31.5 9.5t69.5 20.5q3 11 8.5 30t13.5 45q14 47 75 95q27 22 57 38.5t62 29.5q18 7 53 7q63 0 98 -21q19 -13 26 -34q52 44 110 67q18 7 54 7q62 0 97 -21q30 -20 30 -60q0 -27 -15 -48t-39 -21q-15 0 -31 9q-5 4 -11 25 q-6 22 -12 30q-23 27 -58 27q-20 0 -44 -11q-26 -14 -46 -62q-13 -33 -30 -125q40 2 208 15q60 4 60 -42q0 -17 -11 -59l-54 -194q-20 -72 -20 -84q0 -20 12 -20t88 47l12 -28q-48 -32 -71.5 -48t-24.5 -17q-59 -36 -100 -36q-31 0 -31 46q0 22 7 49l59 239q10 39 10 52 q0 34 -32 32l-124 -4z" />
<glyph unicode="ffl" horiz-adv-x="856" d="M858 717q-3 -11 -7.5 -27t-9.5 -38l-107 -482q-12 -54 -12 -92q0 -13 12 -13q18 0 53 26l30 23l14 -27q-39 -29 -65 -47t-40 -26q-52 -31 -92 -31q-30 0 -30 43q0 46 16 120l101 479q-17 38 -64 38q-22 0 -44 -12q-26 -14 -46 -62q-11 -29 -33 -135q14 1 39 2.5t63 5.5 l5 -8q-4 -8 -7.5 -21t-8.5 -30h-101q-66 -353 -127 -480q-28 -61 -83 -121q-66 -73 -119 -73q-27 0 -40 9q25 51 32 107l17 3q18 -44 51 -44q37 0 57 84q4 17 11 52t17 89l67 360h-171q-13 -58 -25.5 -116t-25.5 -116q-19 -80 -37.5 -138t-35.5 -96q-28 -61 -83 -121 q-67 -73 -119 -73q-27 0 -40 9q25 51 32 107l17 3q17 -44 51 -44q36 0 56 84q19 90 54 273q11 57 21 114l20 114h-91l5 25q39 12 100 35q3 11 8.5 29t13.5 41q17 48 77 95q56 45 118 68q18 7 53 7q63 0 98 -21q19 -13 26 -34q55 46 106 69q33 16 79 16q39 0 70 -14 q35 9 64 21zM452 546q-10 4 -16 27q-6 22 -12 30q-22 28 -57 28q-22 0 -44 -12q-28 -15 -46 -62q-5 -12 -12 -40.5t-17 -73.5h172l6 26t7 26q4 16 9 28.5t10 22.5z" />
<glyph unicode="&#xd;" horiz-adv-x="398" />
<glyph unicode=" "  horiz-adv-x="300" />
<glyph unicode="&#x09;" horiz-adv-x="300" />
<glyph unicode="&#xa0;" horiz-adv-x="300" />
<glyph unicode="!" horiz-adv-x="347" d="M359 571l-140 -387h-20l35 387q2 21 8 51t28 56q26 29 57 29q50 0 50 -58q0 -29 -18 -78zM166 -16q-24 0 -39.5 14t-15.5 36q0 15 6.5 29t18 24.5t26 17t29.5 6.5q23 0 38 -14.5t15 -35.5q0 -15 -6.5 -29t-17.5 -24.5t-25 -17t-29 -6.5z" />
<glyph unicode="&#x22;" horiz-adv-x="426" d="M483 672l-74 -205h-15l11 205q1 17 17 32t34 15q31 0 31 -30q0 -10 -4 -17zM303 670l-74 -205h-15l10 205q1 16 17 31.5t34 15.5q32 0 32 -31q0 -9 -4 -16z" />
<glyph unicode="#" horiz-adv-x="737" d="M230 166l-43 -166h-37l43 166h-88l23 84h87l54 206h-87l24 84h85l39 150h36l-39 -150h144l39 150h36l-39 -150h89l-23 -84h-88l-53 -206h87l-24 -84h-85l-43 -166h-36l42 166h-143zM449 456h-144l-53 -206h143z" />
<glyph unicode="$" horiz-adv-x="522" d="M593 703l-36 -169h-15q3 60 -30.5 97t-93.5 41l-65 -264q75 -49 105 -80q50 -53 50 -118q0 -21 -4 -40q-18 -85 -84 -134q-61 -46 -148 -52l-19 -90h-38l19 90q-78 0 -144 48q-20 -17 -33 -48h-18l43 190h16q-4 -156 143 -157l62 284q-76 58 -98 84q-42 49 -42 109 q0 23 6 49q17 76 81 119q59 40 137 41l14 68h38l-14 -68q16 0 33.5 -3.5t34 -9.5t30.5 -14t23 -17q22 12 33 44h14zM381 672q-31 0 -73 -27q-48 -31 -63 -77q-5 -15 -5 -26q0 -35 30 -69q5 -6 17 -18t32 -29zM427 144q3 12 3 23q0 37 -31 65q-16 13 -31 25.5t-31 25.5 l-58 -266q49 1 94 37q43 36 54 90z" />
<glyph unicode="%" horiz-adv-x="1011" d="M361 680q50 0 83.5 -10.5t62 -23.5t58 -23.5t71.5 -10.5q25 0 51.5 13t48.5 29.5t38 32.5t21 23h76l-548 -758h-89l448 613q-14 -5 -35 -10t-41 -5q-18 0 -42 5t-43 16q3 -14 3 -32q0 -52 -17.5 -96.5t-48.5 -77.5t-73.5 -51.5t-92.5 -18.5q-86 0 -129 42t-43 107 q0 51 20 94t53 74.5t76.5 49.5t91.5 18zM344 619q-28 0 -54 -12.5t-46.5 -35t-32.5 -54t-12 -68.5q0 -46 24.5 -70t77.5 -24q31 0 56.5 13t44.5 36t29.5 54.5t10.5 68.5q0 39 -25 65.5t-73 26.5zM815 308q47 0 72 -26.5t25 -65.5q0 -37 -10.5 -68.5t-29.5 -55t-45.5 -36.5 t-58.5 -13q-51 0 -75 26t-24 68q0 43 12 75t32.5 53.5t46.5 32t55 10.5zM829 369q-48 0 -91.5 -16.5t-76 -47t-52 -75t-19.5 -99.5q0 -36 13 -64t36 -46.5t53.5 -28t66.5 -9.5q45 0 87 16.5t75 47t52.5 73.5t19.5 96q0 29 -10 56.5t-30.5 49t-51.5 34.5t-72 13z" />
<glyph unicode="&#x26;" horiz-adv-x="833" d="M811 445q0 -112 -116 -133l-76 -14v-2q25 -5 42 -25.5t17 -48.5q0 -113 -130 -182q-108 -57 -230 -57q-104 0 -168 43q-76 51 -76 150q0 147 203 209v2q-42 5 -67.5 33.5t-25.5 70.5q0 72 93 143q80 61 158 61q73 0 117 -28q-20 -77 -21 -128h-30v60q-49 41 -104 41 q-51 0 -83 -33t-32 -84q0 -43 35 -72q31 -27 77 -27h5t8 1h13l-14 -57q-9 3 -27 3q-79 0 -131 -43q-57 -47 -57 -124q0 -82 60 -127q55 -41 138 -41q79 0 134 40q64 46 64 121q0 37 -23.5 59t-63.5 22q-53 0 -69 -64l-4 -15h-24l10 105q37 42 124 56l120 18q63 9 89.5 26.5 t26.5 51.5q0 31 -36 45l14 25q60 -26 60 -81z" />
<glyph unicode="'" horiz-adv-x="271" d="M264 634q-11 -50 -58 -82q-46 -31 -98 -31h-4l12 31q72 17 79 55q4 22 -15 22q-6 0 -19 -4.5t-21 -4.5q-35 0 -35 32q0 29 28 48q25 16 56 16q33 0 55 -17.5t22 -46.5q0 -5 -0.5 -9t-1.5 -9z" />
<glyph unicode="(" horiz-adv-x="382" d="M518 777q-224 -123 -284 -407q-23 -109 -23 -177q0 -167 124 -273l-20 -16q-196 135 -196 350q0 50 12 106q58 276 378 435z" />
<glyph unicode=")" horiz-adv-x="382" d="M398 331q-29 -134 -131 -248q-100 -112 -244 -179l-8 16q126 71 196 177q61 94 90 231q21 106 21 179q0 177 -124 270l18 18q53 -26 110 -101q84 -113 84 -256q0 -52 -12 -107z" />
<glyph unicode="*" horiz-adv-x="402" d="M501 599q0 -32 -32 -47q-5 -2 -16 -4.5t-29 -6.5q-38 -7 -93 -29q40 -22 79 -30q34 -7 40 -12q17 -11 17 -30q0 -14 -11 -27q-13 -19 -38 -19q-12 0 -21.5 5.5t-29.5 33.5q-23 34 -53 58q-3 -29 -3 -53q0 -28 4 -51q3 -23 2 -30q-4 -17 -19.5 -31t-31.5 -14q-38 2 -31 46 q2 7 22 46q22 40 34 86q-40 -24 -79 -57q-17 -14 -27.5 -23t-15.5 -11q-14 -6 -26 -6q-24 0 -28 18q-3 6 -3 13q0 28 32 45q9 4 48 12q43 9 93 30q-22 11 -42 18t-40 11q-17 4 -27.5 6.5t-14.5 4.5q-15 9 -15 31q0 19 15 32.5t35 13.5q11 0 22 -6q4 -2 11 -11t18 -23 q11 -17 25 -31t30 -27q3 25 3 48q0 11 -1 24t-3 28q-2 12 -2.5 20.5t0.5 13.5q4 19 19 32.5t32 13.5q30 0 30 -35q0 -17 -24 -69q-14 -31 -21.5 -49t-9.5 -23q42 24 75 54q17 16 27 24.5t15 10.5q13 6 25 6q34 0 34 -30z" />
<glyph unicode="+" horiz-adv-x="585" d="M330 221v-221h-74v221h-205v65h205v199h74v-199h204v-65h-204z" />
<glyph unicode="," horiz-adv-x="336" d="M117 -151l-7 10q106 58 120 118q5 23 -14 23q-5 0 -17.5 -4t-17.5 -4q-17 0 -28 14.5t-7 34.5q4 22 22 37t39 15q30 0 49.5 -21.5t19.5 -50.5q0 -49 -58 -104q-47 -46 -101 -68z" />
<glyph unicode="-" horiz-adv-x="389" d="M398 299l-15 -67h-289l15 67h289z" />
<glyph unicode="." horiz-adv-x="303" d="M164 -16q-23 0 -38.5 14t-15.5 36q0 15 6.5 29t18 24.5t25.5 17t29 6.5q24 0 39 -14.5t15 -35.5q0 -31 -24 -54t-55 -23z" />
<glyph unicode="/" horiz-adv-x="291" d="M457 713l-438 -826h-56l438 826h56z" />
<glyph unicode="0" horiz-adv-x="617" d="M616 472q-9 -166 -110 -317q-116 -171 -273 -171q-101 0 -147 70q-41 62 -35 166q7 165 106 314q112 169 271 169q100 0 150 -66q43 -59 38 -165zM486 500q9 173 -67 173q-94 0 -173 -211q-65 -171 -72 -297q-8 -152 64 -152q57 0 137 138q32 55 54 103t34 90 q19 67 23 156z" />
<glyph unicode="1" horiz-adv-x="653" d="M531 690l-173 -659h93l-8 -31h-332l9 31h94l138 515l-141 -164h-41l250 308h111z" />
<glyph unicode="2" horiz-adv-x="641" d="M584 545q-4 -96 -76 -184q-52 -63 -157 -139q-42 -29 -83 -59t-83 -59h182q63 0 92 101h42l-54 -205h-458l4 16q169 112 293 248q165 180 172 326q4 79 -68 79q-42 0 -91 -27q-58 -32 -59 -69q-2 -18 12 -35q13 -16 13 -28q-1 -22 -33 -37q-27 -11 -50 -11q-27 0 -47 11 q-23 13 -22 38q5 81 112 141q93 51 181 51q77 0 127 -39q56 -44 51 -119z" />
<glyph unicode="3" horiz-adv-x="636" d="M605 578q-4 -88 -78 -148q-68 -58 -159 -61q69 0 119 -35q56 -41 52 -107q-6 -116 -114 -183q-95 -60 -214 -60q-208 0 -202 122q1 42 34 71q33 30 75 30q22 0 40 -9q23 -13 22 -32q-2 -20 -24 -44q-21 -23 -23 -44q-2 -23 23 -43q25 -21 48 -21q74 0 136 80 q54 72 59 151q3 69 -70 93q-42 15 -130 13l9 34h11q251 -1 262 203q2 38 -15 61q-20 26 -56 26q-58 0 -79 -32q-15 -23 -18 -78q-2 -27 -32 -41q-24 -12 -54 -12q-62 0 -60 47q5 75 104 115q75 31 161 31q180 0 173 -127z" />
<glyph unicode="4" horiz-adv-x="610" d="M532 195l-10 -41h-93l-32 -123h92l-9 -31h-324l9 31h91l32 123h-250q2 8 4.5 17.5t5.5 20.5l321 451q42 59 85 59q41 0 40 -33q-1 -31 -178 -227q-103 -115 -157 -176.5t-61 -70.5h203l43 159l146 35l-51 -194h93z" />
<glyph unicode="5" horiz-adv-x="637" d="M603 683q-113 -102 -248 -102q-63 0 -118 27l-70 -221q73 70 189 70q84 0 135 -39q57 -43 52 -126q-6 -113 -102 -211q-96 -97 -209 -97q-86 0 -133 14q-78 26 -74 93q2 42 25.5 67.5t65.5 25.5q59 0 58 -42q0 -14 -15 -36t-16 -35q-3 -60 72 -60q77 0 135 103 q49 85 54 171q8 122 -100 122q-77 0 -157 -89h-43l116 381l48 12q62 -35 161 -35q98 0 157 36z" />
<glyph unicode="6" horiz-adv-x="620" d="M621 598q-3 -42 -35 -65t-74 -23q-46 0 -44 26q2 17 17 35q16 19 18 51q1 20 -10 35.5t-31 15.5q-80 0 -162 -118q-71 -101 -90 -193q25 32 81 53q54 20 97 20q71 0 123 -47q51 -46 48 -118q-8 -119 -102 -203q-95 -83 -215 -83q-212 0 -202 208q9 174 129 336 q132 178 297 178q55 0 102 -26q55 -31 53 -82zM424 271q6 121 -87 121q-69 0 -127 -88q-51 -78 -54 -152q-3 -44 14 -87q22 -52 61 -52q86 0 141 91q48 77 52 167z" />
<glyph unicode="7" horiz-adv-x="613" d="M618 690q-2 -8 -4.5 -19t-6.5 -25q-5 -17 -31.5 -63.5t-74.5 -123.5q-55 -88 -85.5 -139.5t-38.5 -66.5q-18 -38 -46.5 -94t-68.5 -130q-29 -45 -84 -45q-54 0 -51 43q0 9 182 263q101 140 154.5 215t60.5 86h-255q-38 0 -51 -12q-13 -11 -25 -51h-29l43 162h411z" />
<glyph unicode="8" horiz-adv-x="623" d="M603 563q-5 -72 -62 -121q-51 -42 -127 -56q135 -52 131 -158q-7 -118 -104 -185q-86 -59 -207 -59q-94 0 -145 20q-75 32 -71 111q5 88 69 146q61 57 149 70q-106 52 -102 149q4 103 101 166q86 56 192 56q74 0 123 -31q57 -38 53 -108zM498 583q5 86 -83 86 q-61 0 -108 -40q-48 -41 -51 -99q-3 -48 33 -78l75 -45q128 68 134 176zM420 186q2 54 -44 83l-44 22t-45 22q-61 -25 -106 -78q-50 -58 -53 -118q-3 -50 32 -77q32 -23 83 -23q61 0 117 53q55 54 60 116z" />
<glyph unicode="9" horiz-adv-x="619" d="M596 493q-11 -179 -125 -335q-127 -175 -296 -175q-56 0 -102 25q-56 32 -53 82q1 41 33 67q28 22 71 22q49 0 48 -36q0 -4 -16 -27q-15 -21 -17 -49q-3 -51 39 -51q79 0 162 131q35 55 57 106t32 99q-59 -99 -164 -99q-84 0 -137 44q-57 47 -53 129q8 123 102 202 q92 77 214 77q216 0 205 -212zM473 540q2 46 -13 85q-19 52 -59 52q-85 0 -140 -97q-46 -79 -51 -172q-6 -111 81 -111q71 0 128 89q50 78 54 154z" />
<glyph unicode=":" horiz-adv-x="373" d="M234 341q-23 0 -38.5 14t-15.5 36q0 15 6.5 28.5t18 24t25.5 17t29 6.5q24 0 39 -14t15 -35q0 -31 -24 -54t-55 -23zM165 -16q-24 0 -39.5 14t-15.5 36q0 15 6.5 29t18 24.5t26 17t29.5 6.5q23 0 38 -14.5t15 -35.5q0 -15 -6.5 -29t-17.5 -24.5t-25 -17t-29 -6.5z" />
<glyph unicode=";" horiz-adv-x="414" d="M276 342q-24 0 -39.5 14t-15.5 36q0 15 6.5 29t18 24.5t26 17t29.5 6.5q23 0 38 -14.5t15 -35.5q0 -15 -6.5 -29t-17.5 -24.5t-25 -17t-29 -6.5zM264 -39q-23 -44 -66 -78q-47 -37 -88 -37l6 24q63 18 101 83q11 20 11 35q0 5 -3 10q-17 -14 -32 -14q-23 0 -37.5 14 t-14.5 36q0 31 23 51.5t55 23.5q65 8 65 -69q0 -37 -20 -79z" />
<glyph unicode="&#x3c;" horiz-adv-x="590" d="M706 689l-13 -66l-558 -359l406 -350l-12 -57l-448 389l12 55z" />
<glyph unicode="=" horiz-adv-x="586" d="M51 313v65h484v-65h-484zM51 130v65h484v-65h-484z" />
<glyph unicode="&#x3e;" horiz-adv-x="590" d="M629 301l-7 -46l-620 -394l15 72l554 353l-405 345l13 58z" />
<glyph unicode="?" horiz-adv-x="541" d="M513 534q-19 -80 -138 -163q-27 -19 -47.5 -38.5t-36 -43t-26 -51t-18.5 -63.5h-39q16 95 21 110q13 51 48 95q8 10 25.5 30.5t45.5 51.5q34 40 48 68q22 44 22 78q0 65 -75 65q-50 0 -76 -25q-21 -21 -22 -41q-1 -14 3.5 -24.5t2.5 -23.5q-6 -35 -57 -42q-16 -3 -36 8 q-25 13 -25 42q0 66 80 107q64 31 137 33q71 1 119 -31q50 -35 50 -99q0 -21 -6 -43zM188 -15q-23 0 -37.5 14t-14.5 36q0 15 6.5 29t18 24.5t25.5 17t29 6.5q23 0 37.5 -14t14.5 -35q0 -15 -6.5 -29.5t-17.5 -25t-25.5 -17t-29.5 -6.5z" />
<glyph unicode="@" horiz-adv-x="833" d="M744 404q0 -111 -68 -185q-29 -32 -70 -55q-47 -27 -83 -27q-65 0 -71 82q-27 -37 -50 -55q-29 -21 -66 -21q-60 0 -94 40q-32 38 -32 100q0 82 62 150t143 68q70 0 81 -68h2l15 60h94l-74 -274q-4 -12 -4 -24q0 -25 21 -25q38 0 89 69q54 73 54 163q0 87 -66 152 q-74 71 -190 71q-129 0 -214 -82t-85 -209q0 -131 91 -212q87 -78 220 -78q139 0 226 129h64q-44 -85 -125 -135q-83 -50 -176 -50q-148 0 -251 95q-105 96 -105 244q0 150 100 251q100 103 249 103q134 0 226 -84q87 -83 87 -193zM478 402q0 26 -10 45q-14 24 -37 24 q-51 0 -91 -88q-35 -75 -35 -133q0 -78 50 -78q49 0 91 91q32 72 32 139z" />
<glyph unicode="A" horiz-adv-x="709" d="M688 31l-7 -31h-293l7 31h80l-25 198h-244l-56 -91q-36 -59 -36 -86q0 -5 2 -11q4 -10 62 -10l-7 -31h-218l7 31q53 -2 74 11q30 17 76 96l339 572h72l91 -679h76zM443 266l-39 294l-174 -294h213z" />
<glyph unicode="B" horiz-adv-x="758" d="M746 519q-13 -65 -71 -112q-53 -43 -121 -53q57 -1 101 -32q54 -38 54 -106q0 -17 -5 -42q-38 -174 -274 -174h-395l7 31h94l134 628h-94l6 31h396q84 0 128.5 -35t44.5 -96q0 -17 -5 -40zM602 520q2 10 3 19.5t1 18.5q0 49 -29 75t-71 26h-89l-63 -294h76q47 0 94 32 q61 42 78 123zM550 176q5 25 5 42q0 64 -46 95q-35 23 -85 23h-77l-64 -305h85q44 0 93 26q72 38 89 119z" />
<glyph unicode="C" horiz-adv-x="707" d="M764 639q-8 -17 -21.5 -55t-33.5 -98h-39l13 86q-51 69 -165 69q-121 0 -206 -78q-80 -76 -107 -198q-10 -44 -10 -87q0 -105 60 -165q63 -63 178 -63q104 0 202 51l9 -12l-32 -49q-101 -55 -242 -55q-150 0 -238 71q-90 72 -90 204q0 46 10 92q34 164 176 259 q128 86 298 86q130 0 235 -47z" />
<glyph unicode="D" horiz-adv-x="780" d="M780 334q-30 -140 -140 -238t-238 -101q-20 -1 -52 -0.5t-76 1.5q-107 3 -124 3q-37 1 -72 0.5t-68 -2.5l7 31h94l133 628h-94l10 32h202q18 1 65 -0.5t123 -3.5q112 -3 176.5 -69.5t64.5 -181.5q0 -44 -11 -99zM629 336q15 78 15 132q0 166 -148 182q-23 2 -51.5 2 t-62.5 -4l-130 -614q34 2 104 6q108 11 177.5 88t95.5 208z" />
<glyph unicode="E" horiz-adv-x="737" d="M771 690l-40 -203h-42q1 14 1.5 24t0.5 16q0 48 -24 80q-32 41 -127 43l-150 3l-59 -283h107q45 0 69 25q28 29 43 92h37l-60 -278h-36q12 60 -7 91t-54 31h-107l-63 -294l168 3q29 2 71 15q42 15 67 34q71 54 96 151h43l-64 -240h-630l7 31h93l134 628h-94l6 31h614z " />
<glyph unicode="F" horiz-adv-x="760" d="M800 690l-41 -203h-42q7 81 -23 121t-126 42l-159 3l-60 -283h117q44 0 68 25q30 33 44 92h37l-60 -278h-37q13 57 -5 89.5t-56 32.5h-117l-63 -300h94l-7 -31h-325l7 31h94l133 628h-94l7 31h614z" />
<glyph unicode="G" horiz-adv-x="707" d="M691 622q-8 -17 -22 -55t-33 -98h-39l13 86q-8 13 -15 26t-15 26q-20 30 -49 47q-37 19 -92 18q-95 -3 -157 -96q-51 -78 -84 -235q-22 -101 -22 -168q0 -154 127 -151t164 43l36 171h-110l9 41h286l-8 -37h-41l-42 -196q-56 -20 -86.5 -30.5t-37.5 -12.5 q-66 -17 -180 -17q-110 0 -182 79t-72 200q0 41 9 82q35 161 153 263q113 97 245 98q114 1 186 -33q13 -6 56 -40z" />
<glyph unicode="H" horiz-adv-x="800" d="M851 690l-5 -31h-94l-134 -628h94l-7 -31h-328l7 31h94l66 315h-250l-67 -315h94l-7 -31h-333l6 31h94l134 628h-94l6 31h334l-6 -31h-94l-59 -278h250l59 278h-93l5 31h328z" />
<glyph unicode="I" horiz-adv-x="477" d="M471 690l-5 -31h-94l-134 -628h94l-7 -31h-330l7 31h93l134 628h-94l6 31h330z" />
<glyph unicode="J" horiz-adv-x="390" d="M505 690l-7 -31h-93l-107 -502q-17 -83 -33 -126q-31 -83 -79 -134q-40 -44 -99 -76q-61 -34 -112 -34q-13 0 -30 5l19 89l12 6q7 -6 13.5 -12t13.5 -11q16 -12 35 -12q57 0 85 130l144 677h-93l7 31h324z" />
<glyph unicode="K" horiz-adv-x="800" d="M862 690l-5 -31q-66 0 -91 -14q-39 -23 -98 -78q-16 -16 -49.5 -47t-84.5 -79l143 -354q5 -15 11 -30.5t22 -21.5q8 -4 77 -4l-7 -31h-341l7 31q61 0 73 17q5 8 5 18t-5 23l-90 257q-33 -29 -66 -57.5t-66 -57.5l-43 -200h94l-7 -31h-330l7 31h93l134 628h-94l6 31h330 l-5 -31h-94l-78 -365l326 293q30 27 30 45q0 8 -4 15q-7 15 -61 12l5 31h256z" />
<glyph unicode="L" horiz-adv-x="680" d="M683 240l-63 -240h-630l7 31h94l133 628h-94l7 31h326l-7 -31h-95l-132 -622l182 3q28 0 70 15t67 34q72 56 96 151h39z" />
<glyph unicode="M" horiz-adv-x="914" d="M1000 690l-5 -31h-94l-134 -628h94l-7 -31h-332l6 31h94l130 591l-373 -611l-20 -1l-89 608l-106 -500q-10 -52 9 -77q7 -10 66 -10l-7 -31h-227l7 31q55 0 67 9q34 25 45 78l110 519q3 22 -24 22h-56l5 31h240l61 -467l291 467h249z" />
<glyph unicode="N" horiz-adv-x="735" d="M824 690l-5 -31q-60 0 -71 -10q-31 -25 -42 -76l-125 -589h-25l-286 653l-110 -519q-10 -52 10 -77q6 -10 66 -10l-7 -31h-225l7 31q55 0 67 9q34 25 45 78l109 519q4 22 -24 22h-56l6 31h248l193 -457l70 340q11 54 -11 77q-9 9 -64 9l5 31h225z" />
<glyph unicode="O" horiz-adv-x="750" d="M699 339q-32 -149 -144 -252t-244 -103q-110 0 -182 79t-72 200q0 40 9 82q35 161 153 263q113 98 245 98q58 0 104.5 -18t78 -51.5t48.5 -81.5t17 -108q0 -53 -13 -108zM551 336q25 115 25 186q0 150 -119 150q-176 0 -246 -331q-10 -49 -15 -89t-5 -72q0 -158 130 -158 q91 0 150 89q49 75 80 225z" />
<glyph unicode="P" horiz-adv-x="642" d="M726 495q-21 -101 -129 -152q-93 -44 -222 -44h-39l-57 -268h94l-7 -31h-333l7 31h94l141 628h-101l5 31h312q120 0 176 -29q65 -33 65 -111q0 -25 -6 -55zM589 493q6 34 6 60q0 106 -122 106h-60l-71 -332h41q74 0 127 36q63 43 79 130z" />
<glyph unicode="Q" horiz-adv-x="758" d="M703 -93l-4 -21q-8 -10 -16.5 -18.5l-16.5 -16.5q-42 -38 -87 -48q-37 -9 -86 9q-13 5 -36 15.5t-55 27.5q-50 26 -94 33q-50 7 -90 0q-50 -11 -97 -40l-5 27l60 51q58 43 122 53v5q-108 0 -180 81q-71 82 -71 200q0 39 9 80q34 161 151 263q113 98 255 98q116 0 181 -74 q62 -71 62 -189q0 -25 -3 -51t-8 -53q-29 -138 -138 -241q-108 -104 -235 -114l-1 -5q13 -1 33.5 -5t48.5 -11q19 -8 49 -20.5t73 -29.5q77 -31 100 -32q39 -4 79 26zM542 341q24 112 24 182q0 149 -112 149q-102 0 -164 -92q-25 -38 -45.5 -96.5t-37.5 -138.5 q-13 -57 -19 -100.5t-6 -75.5q0 -148 134 -148q157 0 226 320z" />
<glyph unicode="R" horiz-adv-x="747" d="M720 512q-17 -76 -91 -128q-64 -46 -130 -52l145 -278q10 -19 50 -24l-6 -30q-9 0 -54 3q-39 3 -51 3q-33 0 -81 -6q-5 8 -38.5 78.5t-96.5 204.5q-4 7 -11.5 18t-19.5 27h-22l-63 -297h93l-7 -31h-324l7 31h93l133 628h-93l7 31h350q106 0 162 -39q52 -36 52 -101 q0 -9 -1 -18.5t-3 -19.5zM590 514q2 13 3.5 24t1.5 22q0 99 -104 99h-107l-64 -303h86q65 0 118 44q52 43 66 114z" />
<glyph unicode="S" d="M517 653q-22 -75 -22 -147h-30v85q-53 50 -140 50q-52 0 -89 -31q-40 -31 -40 -79q0 -54 40 -85q13 -10 34.5 -21t53.5 -22q90 -35 118 -55q53 -41 53 -115q0 -48 -27 -100q-23 -43 -50 -67q-87 -81 -206 -81q-106 0 -162 40l21 166h27v-76q35 -74 153 -74q73 0 109 38 q29 32 29 80q0 53 -29 79q-20 17 -94 44q-81 30 -114 56q-48 40 -48 116q0 101 78 170q83 73 185 73q83 0 150 -44z" />
<glyph unicode="T" horiz-adv-x="685" d="M708 690l-40 -203h-42q3 24 3 39q0 50 -25 82q-25 34 -123 43l-32 3l-133 -623h94l-7 -31h-332l7 31h93l133 623l-34 -3q-101 -9 -141 -43q-50 -44 -72 -121h-42l44 203h649z" />
<glyph unicode="U" horiz-adv-x="755" d="M824 690l-7 -31q-60 0 -71 -10q-30 -24 -41 -77l-64 -297q-33 -156 -109 -223q-75 -66 -218 -68q-111 -1 -182 56q-70 58 -70 142q0 10 1 20t3 20l93 437h-93l7 31h324l-7 -31h-93l-88 -414q-9 -45 -9 -80q0 -139 153 -139q194 0 244 236l66 310q4 16 4 33q0 30 -15 45 q-9 9 -65 9l7 31h230z" />
<glyph unicode="V" horiz-adv-x="752" d="M774 690l-7 -31q-53 2 -74 -11q-30 -16 -77 -96l-335 -568h-92l-90 675h-76l7 31h309l-7 -31h-80l71 -529l253 422q37 61 37 86q0 5 -2 11q-4 10 -62 10l7 31h218z" />
<glyph unicode="W" horiz-adv-x="1047" d="M1046 690l-7 -31q-26 1 -44 -2.5t-30.5 -9t-20 -12t-11.5 -10.5q-21 -23 -45 -73l-270 -572h-62l-71 534l-332 -534h-40l-27 679h-75l7 31h307l-7 -31h-77l22 -433l285 464h62l71 -485l164 346q26 57 26 85q0 10 -4 14q-11 9 -58 9l7 31h230z" />
<glyph unicode="X" horiz-adv-x="809" d="M914 690l-5 -31q-53 0 -84 -16q-30 -15 -80 -59l-210 -184l195 -369h85l-7 -31h-341l7 31h83l-132 263q-28 -26 -79.5 -73t-127.5 -117q-30 -30 -30 -48q0 -6 4 -10q14 -14 25 -15h32l-7 -31h-239l7 31q46 0 87 23q14 8 34 22t45 34q115 109 231 216l-170 333h-71l5 31 h330l-6 -31h-89q29 -57 56.5 -113.5t55.5 -113.5l183 155q35 32 35 50q0 4 -2 8q-10 12 -24 13q-3 1 -36 1l6 31h234z" />
<glyph unicode="Y" horiz-adv-x="696" d="M733 690l-5 -31q-34 0 -83 -25q-31 -15 -77 -75l-205 -283l-51 -245h94l-7 -31h-324l7 31h94l53 257l-142 372h-81l4 31l311 -1l-6 -31h-75q26 -80 51 -159t50 -159l141 205q43 61 43 86q0 5 -3 8q-13 19 -64 19l6 31h269z" />
<glyph unicode="Z" horiz-adv-x="733" d="M756 690l-542 -653l211 3q28 0 70 15q43 15 68 34q66 52 94 151h44l-64 -240l-630 1l548 653l-157 -3q-107 -1 -147 -40q-32 -31 -48 -67q-1 -2 -5 -16.5t-11 -40.5h-47l45 202z" />
<glyph unicode="[" horiz-adv-x="326" d="M301 -194h-260v860h260v-37h-140v-786h140v-37z" />
<glyph unicode="\" horiz-adv-x="606" d="M534 0h-90l-372 720h90z" />
<glyph unicode="]" horiz-adv-x="326" d="M286 -194h-260v37h140v786h-140v37h260v-860z" />
<glyph unicode="^" horiz-adv-x="500" d="M450 244h-62l-138 311l-138 -311h-63l177 382h48z" />
<glyph unicode="_" horiz-adv-x="500" d="M500 -123h-500v50h500v-50z" />
<glyph unicode="`" horiz-adv-x="333" d="M322 518h-45l-123 82q-44 29 -44 59q0 14 14.5 27t30.5 13q30 0 63 -44z" />
<glyph unicode="a" d="M519 82q-108 -99 -176 -99q-30 0 -30 43q0 30 7 57l35 142l-2 2q-44 -84 -106 -152q-83 -92 -150 -92q-27 0 -41 26q-12 22 -12 51q0 59 24 148q25 95 57 133q8 9 25 24t43 36q58 46 85 58q23 10 67 10q39 0 99 -26l45 27l16 -12l-15 -43q-5 -14 -9 -29.5t-8 -32.5 l-45 -214q-10 -46 -10 -52q0 -20 14 -20q18 0 55 29l20 16zM377 395q-41 22 -77 22q-44 0 -63 -28q-29 -42 -57 -153q-24 -95 -24 -133t18 -38q21 0 54 35q73 76 120 185q20 48 29 110z" />
<glyph unicode="b" horiz-adv-x="537" d="M494 363q0 -214 -143 -315q-92 -65 -183 -65q-54 0 -86 25q-38 29 -38 84q0 19 9 73l80 478q-33 -8 -87 -18l7 38q69 10 118 21.5t80 24.5l10 -9q-2 -11 -5.5 -27t-8.5 -38l-66 -324l2 -2q41 65 97 108q68 52 142 52q37 0 57 -36q15 -29 15 -70zM380 329q0 21 -8 45 q-11 29 -30 29q-45 0 -97 -55q-46 -47 -70 -118q-21 -60 -21 -113q0 -88 72 -88q34 0 67 36q13 14 24 30.5t19 36.5q44 102 44 197z" />
<glyph unicode="c" horiz-adv-x="444" d="M436 445q-8 -20 -16.5 -55t-18.5 -86h-33l6 56q1 9 -4 14q-44 33 -90 33q-67 0 -99 -80q-35 -93 -35 -186q0 -39 20 -65t59 -26q63 0 166 70l10 -30q-75 -52 -113 -71q-71 -36 -127 -36q-63 0 -97 40q-32 38 -32 100q0 52 16 115q19 73 45 105q37 46 130 96q55 30 97 30 q48 0 116 -24z" />
<glyph unicode="d" d="M547 700q-3 -12 -6.5 -28.5t-7.5 -36.5l-104 -514q-5 -28 -5 -39q0 -17 14 -17q6 0 49 28l26 17l9 -28q-131 -99 -170 -99q-37 0 -37 43q0 21 7 48l38 156l-2 2q-34 -62 -71 -110t-77 -83q-65 -56 -103 -56q-69 0 -69 93q0 62 19 137q19 84 50 130q32 46 121 95 q55 31 100 31q33 0 68 -9l36 181q-25 -10 -101 -18l8 40q69 10 118 21.5t80 24.5zM384 401q-47 18 -82 18q-47 0 -64 -17q-35 -38 -62 -148q-24 -98 -24 -163q0 -26 26 -26q34 0 102 92q65 89 80 149z" />
<glyph unicode="e" horiz-adv-x="444" d="M418 385q0 -89 -107 -142q-54 -26 -164 -50q-2 -19 -3.5 -35.5t-1.5 -30.5q0 -80 77 -80q58 0 158 67l10 -28q-48 -30 -76 -47t-36 -22q-67 -34 -123 -34q-124 0 -124 125q0 59 25 138q19 61 37 89q24 39 69 70q23 16 45.5 28.5t45.5 20.5q37 15 73 15q42 0 68.5 -22 t26.5 -62zM324 370q0 51 -46 51q-79 0 -113 -144l-14 -58l41 12q55 16 90 48q42 39 42 91z" />
<glyph unicode="f" horiz-adv-x="333" d="M446 697q-8 -32 -15.5 -63t-12.5 -62l-15 -3q-38 56 -73 56q-33 0 -48 -39q-5 -14 -14 -52t-21 -101q28 1 58.5 2.5t64.5 5.5l5 -8q-4 -8 -7.5 -21t-8.5 -30h-123l-52 -214q-44 -181 -72 -245q-26 -60 -72 -112q-11 -14 -26.5 -26.5t-34.5 -25.5q-44 -30 -69 -30 q-27 0 -40 9q25 51 32 107l17 3q17 -44 51 -44q24 0 37 25q5 8 9.5 23t9.5 36q2 9 9 44t19 97l68 353h-91l5 25l50 16q40 13 50 19q4 28 23 82q13 28 48 57l56 49q27 24 91 63q19 12 43 12q20 0 49 -8z" />
<glyph unicode="g" horiz-adv-x="500" d="M529 440l-10 -50l-88 4q11 -30 11 -54q0 -132 -148 -187q-67 -25 -67 -50q0 -17 23 -34l85 -60q78 -56 78 -112q0 -83 -86 -130q-71 -38 -163 -38q-77 0 -135 23q-79 33 -79 101q0 62 69 106q42 28 123 53q-26 20 -26 49q0 19 4 20l89 54l-2 2q-153 -2 -153 122 q0 69 32 112q27 36 87 64q69 34 117 34t90 -20q36 -4 73 -3l71 3zM334 342q0 83 -68 83q-62 0 -87 -61q-22 -51 -22 -104q0 -88 74 -88q55 0 82 61q21 46 21 109zM309 -142q0 39 -64 82l-82 55l-28 -13q-96 -45 -96 -114q0 -51 46 -79q37 -24 93 -24q48 0 86 21q45 25 45 72 z" />
<glyph unicode="h" horiz-adv-x="556" d="M529 79q-141 -96 -186 -96q-30 0 -30 43q0 39 43 192q30 108 30 130q0 33 -22 33q-25 0 -65 -36q-51 -48 -98 -137q-18 -35 -36 -99q-17 -67 -20 -105q-64 -1 -106 -17l-10 11q21 34 68 274q19 99 34.5 190.5t28.5 176.5q-25 -10 -85 -18l8 40q40 7 65.5 12t36.5 7 q29 7 52.5 14t43.5 15l10 -9q-3 -11 -7.5 -27t-9.5 -38l-85 -383l2 -2q30 49 90 114q41 45 93 74q52 31 94 31q40 0 40 -44q0 -25 -11 -67q-5 -17 -10 -35t-10 -35l-38 -144q-8 -32 -8 -66q0 -13 12 -13q13 0 61 30l16 10z" />
<glyph unicode="i" horiz-adv-x="333" d="M326 639q0 -32 -18.5 -53.5t-49.5 -21.5q-55 0 -55 57q0 30 19 52t49 22q23 0 39 -16.5t16 -39.5zM307 84l-95 -65q-60 -36 -101 -36q-30 0 -30 43q0 26 6 52l59 241q2 6 4 15t4 22q0 14 -11 14q-22 0 -68 -34l-22 -16l-13 26l63 47q101 76 150 76q25 0 25 -37 q0 -34 -9 -67l-54 -196q-20 -75 -20 -91q0 -13 12 -13q13 0 61 30l27 17z" />
<glyph unicode="j" horiz-adv-x="333" d="M323 639q0 -32 -18.5 -53.5t-49.5 -21.5q-55 0 -55 57q0 30 19 52t49 22q23 0 39 -16.5t16 -39.5zM274 432q0 -30 -9 -67l-67 -274q-20 -85 -41.5 -145t-43.5 -96q-73 -121 -142 -121q-13 0 -35 5q4 17 6 37t4 42l14 3q19 -33 43 -33q30 0 47 78l86 408q14 68 14 87 q0 14 -11 14q-22 0 -68 -34l-22 -16l-13 26l63 47q101 76 150 76q25 0 25 -37z" />
<glyph unicode="k" horiz-adv-x="556" d="M528 460l-20 -70q-29 8 -48 8q-85 0 -147 -80l65 -173q30 -80 59 -80q14 0 46 20l27 17l10 -29l-44 -31q-85 -59 -122 -59q-20 0 -36 27q-11 21 -30 70l-57 155l-31 -34q-15 -16 -23 -37q-4 -13 -15 -68q-7 -32 -10 -55t-3 -37q-27 0 -105 -18l-10 9q20 42 66 277 q23 115 38.5 205.5t25.5 157.5q-30 -10 -87 -13l8 40q69 10 118.5 21.5t80.5 24.5l10 -9q-2 -4 -6 -20t-11 -45l-92 -406l2 -2q12 17 30.5 38.5t43.5 49.5q140 155 220 155q24 0 47 -9z" />
<glyph unicode="l" horiz-adv-x="333" d="M314 698q-3 -11 -7.5 -27t-9.5 -38l-103 -463q-13 -55 -13 -78q0 -27 13 -27q19 0 83 49l14 -27q-77 -56 -106 -73q-52 -31 -91 -31q-30 0 -30 55q0 34 16 108l102 486q-29 -8 -84 -12l8 40q70 12 102 18q28 6 52 13.5t44 15.5z" />
<glyph unicode="m" horiz-adv-x="833" d="M803 89q-51 -45 -102 -74q-56 -32 -84 -32q-40 0 -40 43q0 24 18 102q8 32 13.5 54.5t9.5 35.5q34 102 34 135q0 17 -18 17q-32 0 -94 -68q-57 -64 -87 -143.5t-34 -154.5q-62 -3 -104 -17l-10 11q29 84 57 202q27 112 27 144q0 26 -17 26q-32 0 -58 -26 q-97 -97 -134 -224q-8 -29 -14.5 -58t-10.5 -58q-62 -3 -104 -17l-10 11q29 82 57 202q26 110 26 151q0 19 -12 19q-16 0 -42 -20l-37 -28l-14 26l84 68q65 53 109 53q25 0 25 -30q0 -24 -19 -103l-27 -115l2 -2q30 70 113 155q95 95 157 95q39 0 39 -50q0 -26 -19 -92 l-30 -106l2 -2q32 73 102 146q35 36 83 67q58 37 98 37q37 0 37 -45q0 -35 -10 -71l-50 -184q-20 -75 -20 -91q0 -13 12 -13q14 0 60 32l24 17z" />
<glyph unicode="n" horiz-adv-x="556" d="M535 80q-22 -16 -44 -31.5t-44 -31.5q-55 -34 -92 -34q-36 0 -36 43q0 39 43 192q30 108 30 130t-21 22q-32 0 -90 -67q-72 -81 -98 -185q-20 -81 -24 -114q-64 -1 -106 -17l-10 11q17 51 32 101t26 101q27 118 27 151q0 19 -10 19q-16 0 -42 -17l-32 -22l-13 27l84 62 q65 49 100 49q29 0 29 -30q0 -37 -34 -157l-15 -54h2q37 72 99 134q49 47 92 74q54 33 86 33q40 0 40 -44q0 -21 -16 -81l-48 -184q-13 -48 -13 -80q0 -15 10 -15q15 0 46 22l29 20z" />
<glyph unicode="o" d="M502 308q0 -57 -23 -126q-22 -67 -60 -103q-101 -96 -218 -96q-82 0 -117.5 39.5t-35.5 121.5q0 56 24 127q22 67 60 102q102 96 218 96q152 0 152 -161zM388 332q0 38 -22 65.5t-58 27.5q-76 0 -116 -114q-30 -86 -30 -191q0 -39 21 -64q23 -29 59 -29q76 0 116 115 q30 85 30 190z" />
<glyph unicode="p" horiz-adv-x="556" d="M516 364q1 -32 -5 -67t-17 -73q-27 -85 -68 -126q-24 -24 -69 -57q-23 -16 -40.5 -27t-30.5 -16q-36 -15 -82 -15q-31 0 -55 7q-11 -45 -18 -74.5t-11 -45.5q-8 -37 -12.5 -67t-6.5 -53q-21 -4 -49 -9t-63 -12l-10 7q8 27 16 57.5t16 64.5l79 340q24 103 24 153 q0 19 -10 19q-16 0 -42 -17l-32 -22l-13 27l84 62q65 49 100 49q29 0 29 -30t-33 -178l2 -2q43 81 109 141q78 69 151 69q55 0 57 -105zM402 334q0 56 -28 57q-15 0 -33 -10t-38.5 -28.5t-41.5 -45.5t-40 -60q-14 -25 -26 -56.5t-20 -69.5l-14 -62q46 -27 96 -27q49 0 84 65 q14 26 40 108q21 67 21 129z" />
<glyph unicode="q" horiz-adv-x="537" d="M513 458q-19 -39 -41 -143l-92 -428q-24 -114 -20 -139q-29 -2 -61.5 -6.5t-70.5 -12.5l-9 18l15 12q13 10 28 76l81 352l-2 2q-54 -75 -111 -128q-84 -78 -146 -78q-28 0 -41 27q-11 22 -11 50q0 59 24 148q25 95 57 133q20 23 76 63q53 40 83 53q25 12 58 12 q68 0 118 -26l47 26zM382 396q-44 21 -81 21q-50 0 -71 -28q-28 -39 -56 -139q-28 -99 -28 -150q0 -35 24 -35q29 0 83 59q42 47 65 84q39 63 56 149z" />
<glyph unicode="r" horiz-adv-x="400" d="M397 463q-10 -43 -15 -77t-5 -60l-12 -6q-26 19 -50 19q-40 0 -70 -41q-7 -10 -17 -28.5t-24 -46.5q-32 -69 -55 -221q-77 -8 -108 -19l-11 12q20 60 27 92l24 107q26 118 26 157q0 19 -12 19q-13 0 -42 -20l-34 -24l-13 26l81 64q68 53 108 53q25 0 25 -30 q0 -8 -7.5 -45t-23.5 -104l-12 -52l7 4q68 137 90 167q43 60 98 60q13 0 25 -6z" />
<glyph unicode="s" horiz-adv-x="444" d="M420 438q-8 -53 -12.5 -82t-4.5 -34h-30l-6 48q-52 44 -109 44q-83 0 -83 -76q0 -44 76 -60l59 -13q43 -9 68 -34q30 -29 30 -68q0 -36 -17 -64q-14 -21 -46 -48q-82 -68 -171 -68q-48 0 -135 27q16 79 21 131h30v-47q20 -24 55 -40q36 -16 69 -16q94 0 94 73 q0 52 -68 66l-44 9q-114 22 -114 111q0 64 63 108q37 25 62.5 39.5t41.5 18.5q25 6 47 6q72 0 124 -31z" />
<glyph unicode="t" horiz-adv-x="393" d="M374 452l-14 -56q-18 2 -41 3.5t-51 1.5h-47l-51 -237q-9 -42 -9 -71t21 -29q28 0 57 21l56 40l13 -26l-77 -57q-80 -59 -129 -59q-58 0 -58 64q0 7 2.5 22.5t7.5 38.5l62 293h-109l7 27l115 32q8 45 12 75.5t4 46.5v16q15 2 29 5.5t28 8.5l66 24l10 -12q-5 -20 -13 -49 t-18 -67l-13 -56l134 5z" />
<glyph unicode="u" d="M528 88q-135 -105 -173 -105q-36 0 -36 43q0 24 16 81l30 108l-2 2q-50 -85 -114 -149q-82 -85 -146 -85q-21 0 -33 19q-10 14 -10 35q0 24 19 99q8 31 15.5 61t15.5 61q18 72 18 97q0 15 -16 15q-18 0 -34 -10l-36 -21l-13 26l79 54q74 50 116 50q27 0 27 -35 q0 -31 -29 -147l-35 -137q-10 -37 -10 -67q0 -12 18 -12q37 0 109 101q64 90 90 200q10 41 10 75q48 -2 110 18l9 -11q-20 -64 -39 -132.5t-37 -141.5q-20 -82 -20 -93q0 -13 14 -13q24 0 55 25l22 17z" />
<glyph unicode="v" horiz-adv-x="556" d="M513 371q0 -116 -93 -246q-100 -142 -213 -142q-60 0 -92 41q-28 35 -28 98q0 74 37 135q23 39 89 105l38 38l-2 2q-39 -10 -131 -10q-38 0 -43 -8l-28 -60h-28l41 132q34 6 74 5q17 -2 62 -3q40 -3 52 -3q45 0 62 14l14 -19q-127 -137 -127 -304q0 -100 68 -100 q71 0 125 112q46 95 46 175q0 56 -40 56q-23 0 -35 -12l-10 21q11 8 27.5 25t38.5 42q12 4 30 4q26 0 46 -32t20 -66z" />
<glyph unicode="w" horiz-adv-x="833" d="M802 371q0 -114 -95 -247q-104 -141 -213 -141q-46 0 -72 32q-23 29 -23 78q0 14 2 33t6 43l-2 2q-30 -65 -84 -121q-66 -67 -127 -67q-54 0 -81 45q-22 35 -22 94q0 64 35 125q29 49 95 115l38 38l-2 2q-39 -10 -131 -10q-38 0 -43 -8l-28 -60h-28l41 132q34 6 74 5 q17 -2 62 -3q40 -3 52 -3q45 0 62 14l14 -19q-127 -137 -127 -304q0 -100 48 -100q39 0 86 62q51 68 72 161l11 48l13 61q4 17 6 32.5t4 31.5q51 4 107 27l12 -9q-7 -23 -16 -58t-21 -83q-31 -143 -31 -191q0 -32 13 -54q15 -28 45 -28q67 0 123 114q48 97 48 173 q0 56 -40 56q-22 0 -38 -8l-12 23q47 33 71 61q12 4 30 4q26 0 46 -32t20 -66z" />
<glyph unicode="x" horiz-adv-x="500" d="M500 459q-14 -26 -23 -106l-21 -5l-9 28q-13 5 -21 5q-41 0 -92 -69l-38 -51l11 -64q18 -103 42 -124q9 -9 23 -9q11 0 46 24l30 21l16 -23q-19 -16 -37.5 -31t-37.5 -31q-55 -41 -83 -41q-42 0 -61 42q-12 22 -21 77l-10 58l-85 -114q-47 -63 -92 -63q-19 0 -45 14 q7 27 10.5 52.5t5.5 48.5l24 2l6 -31q15 -6 27 -6q46 0 89 61l52 73l-16 88q-18 99 -60 99q-17 0 -40 -16q-24 -18 -31 -33l-23 13q8 10 22.5 35t36.5 66q51 20 71 20q58 0 85 -40q19 -30 33 -107l4 -23l63 87q60 83 113 83q20 0 36 -10z" />
<glyph unicode="y" d="M541 453q-11 -25 -39.5 -118t-73.5 -257q-20 -73 -49 -133t-67 -108q-33 -42 -82 -73q-56 -35 -103 -35q-99 0 -106 97l62 40l18 -6q-7 -85 63 -85q93 0 150 229l39 157l-2 2q-37 -74 -100 -128q-61 -52 -102 -52q-26 0 -39 31q-10 23 -10 54q0 30 6 87l19 182 q3 33 -19 33q-32 0 -79 -41l-14 28l80 62q65 50 101 50q41 0 41 -60q0 -20 -1.5 -40.5t-3.5 -42.5l-19 -163q-2 -17 -3 -32t-1 -29q0 -35 16 -35q38 0 95 86q64 93 91 219q10 44 10 75q48 -2 110 18z" />
<glyph unicode="z" horiz-adv-x="500" d="M470 461l-14 -50l-324 -333l2 -2q55 21 93 21q24 0 49.5 -2.5t51.5 -7.5q43 -8 67 -5l28 58l28 -2q-22 -61 -35 -132q-5 -23 -54 -23q-61 0 -142 23q-54 16 -100 16q-42 0 -73 -27l-16 30l341 349l-2 2q-43 -20 -80 -20q-20 0 -60.5 3t-103.5 10l-23 -52l-29 3l45 139 q29 10 58 10q19 0 111 -23q28 -7 52 -10.5t45 -3.5q39 0 56 24l9 13z" />
<glyph unicode="{" horiz-adv-x="333" d="M334 718q-44 -13 -64 -37t-28 -72l-31 -180q-10 -55 -30 -82q-23 -31 -74 -40v-2q64 -15 64 -82q0 -10 -1.5 -23t-3.5 -29l-29 -168q-3 -20 -3 -34q0 -59 57 -72v-2h-74q-23 0 -47 21q-30 25 -30 63q0 22 7 60l28 159q4 20 4 39q0 52 -61 68v2q45 7 66 33q21 24 28 71 l31 180q13 78 57 105q39 24 66 24h68v-2z" />
<glyph unicode="|" horiz-adv-x="606" d="M347 0h-88v720h88v-720z" />
<glyph unicode="}" horiz-adv-x="333" d="M315 308q-45 -7 -65.5 -31.5t-28.5 -72.5l-31 -180q-14 -78 -57 -105q-39 -24 -66 -24h-68v2q44 13 64 37t28 72l31 180q10 55 30 82q23 31 74 40v2q-64 15 -64 82q0 10 1.5 23t3.5 29l29 168q3 19 3 34q0 58 -57 72v2h74q22 0 48 -21q29 -26 29 -63q0 -22 -7 -60 l-28 -159q-4 -20 -4 -39q0 -52 61 -68v-2z" />
<glyph unicode="~" horiz-adv-x="606" d="M555 284q-67 -115 -142 -115q-29 0 -91 25q-108 43 -122 43q-32 0 -58 -29q-4 -5 -13.5 -19t-23.5 -38l-54 63q66 122 146 122q42 0 117 -34t98 -34q42 0 89 78z" />
<glyph unicode="&#xa1;" horiz-adv-x="347" d="M238 580q-23 0 -38 14.5t-15 35.5q0 15 6.5 29t17.5 24.5t25 17t29 6.5q24 0 39.5 -14t15.5 -36q0 -15 -6.5 -29t-18 -24.5t-26 -17t-29.5 -6.5zM230 507l-35 -387q-2 -21 -8 -51t-28 -56q-26 -29 -57 -29q-50 0 -50 58q0 28 18 78l140 387h20z" />
<glyph unicode="&#xa2;" horiz-adv-x="414" d="M360 480q10 -9 10 -23q0 -15 -9 -26t-23 -11q-29 0 -39 31q-4 13 -23 21l-38 -322h1q48 -1 97 32q10 7 20 7q12 0 12 -11q0 -9 -10 -18q-50 -44 -124 -45l-2 -14l-13 -101q-32 -5 -33 0l15 117q-73 10 -120 65q-46 53 -46 133q0 82 58 140t141 58h14l1 9l10 86h33 l-11 -98q56 -9 79 -30zM245 485h-10q-51 -1 -86 -51q-34 -49 -33 -118q2 -132 90 -157z" />
<glyph unicode="&#xa3;" horiz-adv-x="602" d="M567 141q0 -130 -73 -151q-30 -8 -60 -8q-41 0 -127 20q-54 13 -96 20t-74 9q-11 -23 -39 -45q-17 -12 -38 -12q-34 0 -34 35q0 15 13.5 28t47.5 30q23 22 34 68q10 43 13 145l1 25h-58t-35 -1l1 43q0 -2 35 0h56v104q0 134 70 200q65 60 172 56q32 -1 59.5 -7t47.5 -16 t31 -24t10 -30q0 -14 -6 -26.5t-15.5 -22.5t-21 -15.5t-23.5 -5.5q-8 0 -11 1q-53 15 -49 45q0 3 4 7l8 8t7 9.5t3 11.5q-1 12 -16 21t-35 9q-13 0 -23 -3q-38 -10 -58 -52q-25 -56 -25 -132q0 -33 4 -56v-79h140t35 -1v-45q-29 2 -113 0q-17 1 -34 1h-34q-3 -95 -105 -237 q35 5 63 8t48 3q140 0 202 -3q41 -1 75 31q29 29 23 34z" />
<glyph unicode="&#xa4;" horiz-adv-x="500" d="M466 326q0 -77 -46 -132l45 -45q2 -2 -24 -25q-11 -10 -17 -15.5t-8 -7.5l-41 51q-55 -40 -125 -40t-125 40l-41 -51q-7 5 -13 11t-13 11q-25 24 -23 26l45 45q-46 55 -46 132t46 132l-45 45q1 1 7 6.5t17 16.5q26 24 25 25l41 -51q52 38 125 40q69 2 125 -40l41 51 q-1 -1 25 -26q6 -5 12 -11t12 -11l-45 -45q46 -55 46 -132zM410 325q0 68 -48 118t-111 50q-64 0 -112 -50q-47 -50 -47 -118q0 -70 47 -120q48 -48 112 -48q63 0 111 49t48 119z" />
<glyph unicode="&#xa5;" horiz-adv-x="696" d="M466 211l-7 -34h-117l-31 -146h94l-7 -31h-323l7 31h94l30 146h-124l7 34h124l14 70h-121l8 34h104l-131 345h-81l4 30h311l-6 -31h-75q26 -80 51 -159t50 -159l141 205q42 61 42 86q0 4 -2 8q-15 19 -64 19l6 31h269l-5 -31q-34 0 -83 -25q-31 -15 -77 -75l-177 -244 h100l-8 -34h-117l-4 -5l-13 -65h117z" />
<glyph unicode="&#xa6;" horiz-adv-x="239" d="M149 392h-59v294h59v-294zM149 -16h-59v294h59v-294z" />
<glyph unicode="&#xa7;" horiz-adv-x="522" d="M535 614q0 -31 -21 -50t-52 -19q-28 0 -28 24q0 6 3.5 13t8 14.5t8 15t3.5 15.5q0 23 -14 40.5t-37 17.5q-43 0 -75 -25q-36 -27 -36 -68q0 -35 53 -88q25 -24 49 -48t49 -48q53 -62 53 -121q0 -67 -49 -115q-48 -48 -115 -42q67 -71 67 -125q0 -71 -58 -117 q-53 -43 -127 -43q-45 0 -80 23q-40 25 -40 70q0 31 21 50t52 19q10 0 20 -7t10 -18q0 -5 -3.5 -11.5t-8 -13.5t-8 -13.5t-3.5 -12.5q0 -11 4 -22.5t11.5 -20.5t16.5 -15t20 -6q21 0 40.5 7.5t34.5 20.5t24 31t9 39q0 43 -53 93q-24 22 -48 43t-49 43q-53 56 -53 116 q0 73 49 121q50 48 122 41q-69 75 -69 127q0 70 55 116q52 42 124 42q45 0 80 -23q40 -25 40 -70zM442 241q0 41 -58 100q-58 61 -98 61q-35 0 -63 -28q-28 -27 -28 -62q0 -43 55 -101t96 -58q18 0 35.5 7t31 19t21.5 28t8 34z" />
<glyph unicode="&#xa8;" horiz-adv-x="365" d="M454 531q-24 0 -40.5 16t-16.5 38q0 30 25 52q26 23 54 23q23 0 40.5 -15.5t17.5 -37.5q0 -28 -26 -52t-54 -24zM182 531q-24 0 -41 16t-17 38q0 29 26 52t55 23q23 0 40 -15.5t17 -37.5q0 -28 -26 -52t-54 -24z" />
<glyph unicode="&#xa9;" horiz-adv-x="732" d="M721 337q0 -148 -105 -251q-103 -103 -251 -103q-146 0 -250 104t-104 249t104 251q103 105 249 105q148 0 252 -104q105 -104 105 -251zM678 337q0 128 -93 220q-91 91 -221 91q-127 0 -219 -92q-91 -91 -91 -220t91 -220t220 -91q130 0 221 91q92 92 92 221zM526 229 q-9 -23 -25 -40.5t-37.5 -30.5t-46.5 -19.5t-50 -6.5q-87 0 -140 56q-52 56 -52 145q0 92 55 147q55 57 148 57q63 0 138 -26v-104h-25q-2 104 -106 104q-69 0 -108 -51q-36 -47 -36 -118q0 -69 36 -121q40 -58 108 -58q85 0 121 75z" />
<glyph unicode="&#xaa;" horiz-adv-x="332" d="M307 311q-16 -47 -58 -49q-52 -1 -57 43q-41 -44 -99 -44q-14 0 -24 3q-46 10 -43 63q2 50 63 77q22 10 48 15.5t57 7.5q2 41 -4 65q-9 42 -39 41q-39 -1 -55 -40q-8 -18 -25 -18q-8 0 -13 4q-16 13 1 38q30 40 91 40q48 0 68 -17q28 -25 28 -94q0 -6 -0.5 -18t-1 -28.5 t-1 -36t-0.5 -39.5q0 -28 21 -28q19 0 30 26q3 8 8 8q6 0 6 -10q0 -6 -1 -9zM194 345v56q-20 -2 -36 -3q-40 -7 -62 -25t-22 -45q0 -37 41 -37q5 0 9.5 0.5t9.5 1.5q32 8 60 52z" />
<glyph unicode="&#xab;" horiz-adv-x="632" d="M635 371l-217 -177l139 -172l-24 -20l-215 198l303 200zM395 369l-213 -171l141 -176l-24 -20l-219 198l303 200z" />
<glyph unicode="&#xac;" horiz-adv-x="500" d="M467 50h-59v206h-375v49h434v-255z" />
<glyph unicode="&#xae;" horiz-adv-x="732" d="M721 337q0 -148 -105 -251q-103 -103 -251 -103q-146 0 -250 104t-104 249t104 251q103 105 249 105q148 0 252 -104q105 -104 105 -251zM678 337q0 128 -93 220q-91 91 -221 91q-127 0 -219 -92q-91 -91 -91 -220t91 -220t220 -91q130 0 221 91q92 92 92 221zM551 154 h-26q-47 0 -60 12q-17 14 -42 74q-7 17 -11 27.5t-6 14.5q-12 26 -23 37q-14 14 -63 14h-17v-163h47v-16h-148v16h46l-1 356h-46v16h152q67 0 102 -15q51 -23 51 -82q0 -44 -34 -72q-30 -24 -75 -30v-1q47 -6 85 -101q9 -22 16 -36t14.5 -21.5t17 -10.5t21.5 -3v-16z M450 440q0 84 -91 84h-56v-172h26q121 0 121 88z" />
<glyph unicode="&#xaf;" horiz-adv-x="333" d="M407 535h-308l15 66h307z" />
<glyph unicode="&#xb0;" horiz-adv-x="348" d="M308 511q0 -30 -10.5 -53.5t-28.5 -40.5t-42.5 -26t-52.5 -9q-57 0 -94 34q-40 36 -40 95q0 57 39 93t95 36t95 -36t39 -93zM252 511q0 42 -22 68t-56 26t-56 -26t-22 -68t22 -68t56 -26t56 26t22 68z" />
<glyph unicode="&#xb1;" horiz-adv-x="585" d="M330 304v-193h-74v193h-205v65h205v181h74v-181h204v-65h-204zM51 0v65h483v-65h-483z" />
<glyph unicode="&#xb2;" horiz-adv-x="339" d="M363 688q-16 -59 -88 -116q-29 -19 -57.5 -39t-57.5 -40h105q17 0 27.5 12.5t17.5 38.5h22l-21 -105h-237l2 9q10 7 26 20t39 32l90 91q21 24 35 49.5t22 53.5q4 15 6 26.5t2 21.5q0 44 -37 44q-29 0 -49.5 -16.5t-20.5 -35.5q-1 -9 4.5 -17t6.5 -15q0 -5 -8 -12.5 t-12 -8.5q-6 -1 -10.5 -1.5t-9.5 -0.5q-35 0 -37 23q-1 15 9 30.5t29 32.5q43 35 101 37q49 2 77 -20t28 -62q0 -17 -4 -32z" />
<glyph unicode="&#xb3;" horiz-adv-x="361" d="M372 704q-9 -31 -48 -50q-16 -9 -31 -13.5t-29 -5.5q29 0 55 -14q35 -20 35 -57q0 -15 -4 -28q-15 -47 -65 -74q-19 -10 -39 -14.5t-41 -5.5q-60 -1 -82 13q-33 15 -33 48q0 25 20 40t45 11q26 -8 20 -24q-3 -11 -11.5 -19t-10.5 -18q-3 -14 13 -27q19 -11 26 -10 q59 5 83 80q7 20 7 37q0 41 -56 51q-7 1 -18.5 1.5t-27.5 0.5l4 18h32.5t23.5 1.5t18 5t17 11.5q11 9 19.5 20.5t13.5 25.5q6 19 6 36q0 41 -35 45q-17 2 -32 -8.5t-19 -26.5q-2 -7 1 -12.5t2 -12.5q-6 -21 -43 -21q-29 0 -29 23q0 3 0.5 6t1.5 7q11 30 53 47q32 13 73 13 q92 0 92 -64q0 -18 -7 -36z" />
<glyph unicode="&#xb4;" horiz-adv-x="0" d="M298 720q16 -7 16 -23q0 -24 -26 -45l-145 -116h-39l107 156q25 36 54 36q9 0 33 -8z" />
<glyph unicode="&#xb5;" horiz-adv-x="630" d="M595 139q2 -44 -35 -98q-37 -58 -80 -58q-68 0 -60 114q-32 -39 -78 -72q-55 -40 -95 -40q-118 0 -143 124q-4 -36 -6 -63.5t-2 -46.5q0 -45 23 -102q24 -57 24 -75q0 -23 -30 -41q-29 -19 -54 -19q-60 0 -60 64q0 79 46 232q26 86 40.5 145.5t18.5 94.5q9 84 19 109 q22 58 80 58q68 0 68 -41q0 -13 -47 -134t-47 -189q0 -78 73 -78t111 114q13 54 26 106.5t27 106.5q34 115 107 115q52 0 52 -44q0 -50 -46 -148q-35 -77 -75 -138q1 -21 20 -33t41 -12q39 0 82 49z" />
<glyph unicode="&#xb6;" horiz-adv-x="556" d="M629 681l-7 -36l-64 -3q-24 -2 -30 -36l-126 -709q-3 -17 -3 -31q0 -35 67 -35h29l-3 -35q-207 3 -206 3t-206 -3l3 35h33q41 0 55 24q9 16 21 86l52 298q-95 8 -161 81q-69 76 -69 184q0 181 195 177q106 -3 210 -3zM314 642q-15 2 -28.5 3.5t-25.5 1.5 q-103 0 -103 -168q0 -84 30 -141q25 -49 64 -60zM457 634h-68l-140 -793h68z" />
<glyph unicode="&#xb7;" horiz-adv-x="294" d="M169 358q24 0 41 -17t17 -42q0 -24 -17 -41t-41 -17t-41.5 17t-17.5 41q0 25 17 42t42 17z" />
<glyph unicode="&#xb8;" horiz-adv-x="333" d="M270 -140q-11 -47 -64 -69q-39 -16 -93 -16q-42 0 -84 18l24 37q37 -9 63 -9q53 0 60 37q1 3 1 10q0 25 -35 25q-7 0 -15.5 -1t-18.5 -3l-8 8l64 96h41l-42 -64q27 6 44 6q66 0 66 -54q0 -11 -3 -21z" />
<glyph unicode="&#xb9;" horiz-adv-x="296" d="M308 800l-74 -345h49l-3 -16h-170l3 16h49l58 269l-69 -86h-20l122 162h55z" />
<glyph unicode="&#xba;" horiz-adv-x="371" d="M339 409q0 -65 -43 -107q-44 -42 -106 -42q-65 0 -107 42q-42 43 -42 107q0 61 43 104q44 44 106 44q61 0 105 -44t44 -104zM278 408q0 27 -6.5 50t-18 40t-27.5 26.5t-36 9.5t-36 -9.5t-28 -26.5t-18.5 -40t-6.5 -50q0 -54 23 -90t66 -36q42 0 65 34.5t23 91.5z" />
<glyph unicode="&#xbb;" horiz-adv-x="632" d="M671 200l-300 -198l-18 23l215 174l-136 179l21 22zM433 200l-299 -198l-19 22l215 175l-135 182l20 19z" />
<glyph unicode="&#xbc;" horiz-adv-x="690" d="M640 675l-441 -675h-86l443 675h84zM270 705l-83 -388h54l-3 -18h-189l3 18h54l65 302l-77 -96h-24l138 182h62zM678 114l-5 -24h-56l-18 -72h53l-5 -18h-189l6 18h53l18 72h-146q1 5 2 10.5t3 11.5l189 264q26 35 49 35q26 0 24 -20q0 -17 -104 -133q-60 -67 -92 -103 t-36 -41h119l25 93l85 20l-29 -113h54z" />
<glyph unicode="&#xbd;" horiz-adv-x="734" d="M716 280q-20 -68 -99 -129q-32 -23 -64.5 -46t-64.5 -46h119q23 0 30 13q12 14 20 46h25l-25 -119l-269 -1l1 9q12 8 30 23t43 35q43 42 69 67.5t34 35.5q46 55 66 120q10 31 10 57q0 48 -42 48q-33 0 -58 -21q-24 -20 -24 -38q0 -11 7.5 -20.5t7.5 -16.5q1 -8 -8.5 -16 t-17.5 -9q-11 -3 -22 -3q-39 0 -40 28q-1 34 44 70q51 42 114 43q57 2 88.5 -24t31.5 -69q0 -18 -6 -37zM622 675l-441 -675h-86l443 675h84zM270 705l-83 -388h54l-3 -18h-189l3 18h54l65 302l-77 -96h-24l138 182h62z" />
<glyph unicode="&#xbe;" horiz-adv-x="774" d="M724 675l-441 -675h-86l443 675h84zM762 114l-5 -24h-56l-18 -72h53l-5 -18h-189l6 18h53l18 72h-146q1 5 2 10.5t3 11.5l189 264q26 35 49 35q26 0 24 -20q0 -17 -104 -133q-60 -67 -92 -103t-36 -41h119l25 93l85 20l-29 -113h54zM395 636q-2 -52 -45 -86 q-41 -34 -91 -35q40 0 69 -19q31 -23 29 -62q-3 -67 -66 -106q-52 -34 -123 -34q-119 0 -115 70q1 24 19.5 41t42.5 17q11 0 23 -5q13 -8 12 -18q-1 -12 -13.5 -25.5t-13.5 -25.5q-1 -13 13.5 -24.5t27.5 -11.5q44 0 78 46q32 43 35 86q2 41 -40 54q-13 4 -32 6t-44 1l6 20 h6q145 -1 151 116q1 22 -9 36q-12 14 -32 14q-35 0 -45 -18q-10 -14 -11 -44q-1 -16 -19 -25q-13 -7 -30 -7q-36 0 -35 28q3 43 60 66q43 18 92 18q104 0 100 -73z" />
<glyph unicode="&#xbf;" horiz-adv-x="541" d="M353 580q-23 0 -37.5 14t-14.5 36q0 31 24 54t55 23q23 0 37.5 -14t14.5 -36q0 -15 -6.5 -29t-17.5 -24.5t-25.5 -17t-29.5 -6.5zM218 -15q-36 0 -67 8.5t-53.5 25t-35 40.5t-12.5 56q0 11 1.5 21.5t3.5 21.5q19 81 139 163q27 19 47.5 38.5t35.5 43t25.5 51t18.5 63.5 h40q-9 -48 -14 -75.5t-7 -34.5q-14 -52 -48 -95q-8 -10 -25.5 -30.5t-45.5 -51.5q-36 -40 -49 -68q-21 -45 -21 -78q0 -65 75 -65q48 0 76 26q19 18 21 41q2 14 -3 24.5t-2 23.5q4 34 56 42q19 2 37 -8q25 -13 25 -43q0 -66 -81 -106q-64 -33 -137 -34z" />
<glyph unicode="&#xc0;" horiz-adv-x="702" d="M688 31l-7 -31h-293l7 31h80l-25 198h-244l-56 -91q-36 -59 -36 -86q0 -5 2 -11q4 -10 62 -10l-7 -31h-218l7 31q53 -2 74 11q30 17 76 96l339 572h72l91 -679h76zM443 266l-39 294l-174 -294h213zM494 744h-45l-123 82q-44 29 -44 59q0 14 14.5 27t30.5 13q30 0 63 -44z " />
<glyph unicode="&#xc1;" horiz-adv-x="701" d="M688 31l-7 -31h-293l7 31h80l-25 198h-244l-56 -91q-36 -59 -36 -86q0 -5 2 -11q4 -10 62 -10l-7 -31h-218l7 31q53 -2 74 11q30 17 76 96l339 572h72l91 -679h76zM443 266l-39 294l-174 -294h213zM671 922q16 -7 16 -23q0 -24 -26 -45l-145 -116h-39l107 156 q25 36 54 36q9 0 33 -8z" />
<glyph unicode="&#xc2;" horiz-adv-x="703" d="M688 31l-7 -31h-293l7 31h80l-25 198h-244l-56 -91q-36 -59 -36 -86q0 -5 2 -11q4 -10 62 -10l-7 -31h-218l7 31q53 -2 74 11q30 17 76 96l339 572h72l91 -679h76zM443 266l-39 294l-174 -294h213zM657 744h-57l-92 98l-133 -98h-55l158 175h93z" />
<glyph unicode="&#xc3;" horiz-adv-x="702" d="M688 31l-7 -31h-293l7 31h80l-25 198h-244l-56 -91q-36 -59 -36 -86q0 -5 2 -11q4 -10 62 -10l-7 -31h-218l7 31q53 -2 74 11q30 17 76 96l339 572h72l91 -679h76zM443 266l-39 294l-174 -294h213zM683 860q-19 -96 -85 -115q-15 -4 -34 -4q-35 0 -90 21q-50 19 -67 16 q-42 -8 -55 -41h-33q24 81 72 105q17 10 42 10q27 0 89 -20q56 -17 76 -15q33 4 50 43h35z" />
<glyph unicode="&#xc4;" horiz-adv-x="710" d="M617 742q-24 0 -41 16t-17 38q0 30 25 52q26 23 55 23q23 0 40 -15.5t17 -37.5q0 -28 -26 -52t-53 -24zM345 742q-24 0 -41.5 16t-17.5 38q0 29 26 52t56 23q22 0 39 -15.5t17 -37.5q0 -28 -26 -52t-53 -24zM692 31l-7 -31h-293l7 31h80l-25 198h-244l-56 -91 q-37 -58 -37 -86q0 -7 3 -11q4 -10 62 -10l-7 -31h-218l7 31q53 -2 74 11q28 16 76 96l339 572h72l91 -679h76zM447 266l-39 294l-174 -294h213z" />
<glyph unicode="&#xc5;" horiz-adv-x="706" d="M688 31l-7 -31h-293l7 31h80l-25 198h-244l-56 -91q-36 -59 -36 -86q0 -5 2 -11q4 -10 62 -10l-7 -31h-218l7 31q53 -2 74 11q30 17 76 96l339 572h72l91 -679h76zM443 266l-39 294l-174 -294h213zM494 748q-35 0 -58 23t-23 57q0 47 38 83q38 37 86 37q35 0 58 -22.5 t23 -56.5q0 -47 -39 -84q-37 -37 -85 -37zM567 859q0 39 -41 39q-24 0 -43 -18t-19 -42q0 -40 41 -40q24 0 43 18.5t19 42.5z" />
<glyph unicode="&#xc6;" horiz-adv-x="1122" d="M1127 690l-41 -203h-42q7 81 -23 121t-126 42l-159 3l-60 -283h117q44 0 68 25q30 33 44 92h37l-60 -278h-37q13 57 -5 89.5t-56 32.5h-117l-62 -294l182 3q28 0 70 15t67 34q72 56 96 151h39l-63 -240h-636l7 31h94l42 198h-255l-102 -105q-35 -35 -39 -42 q-19 -24 -15 -43q1 -8 18 -9q-5 1 4.5 1h34.5l-7 -31h-225l7 31q17 2 37.5 6t43.5 11q11 7 31.5 26.5t51.5 51.5l499 533h-87l7 31h620zM579 589l-299 -323h231z" />
<glyph unicode="&#xc7;" horiz-adv-x="333" d="M461 -153q-11 -47 -64 -69q-39 -16 -93 -16q-42 0 -84 18l24 37q37 -9 63 -9q53 0 60 37q1 3 1 10q0 25 -35 25q-7 0 -15.5 -1t-18.5 -3l-8 8l64 96h41l-42 -64q27 6 44 6q66 0 66 -54q0 -11 -3 -21zM764 639q-8 -17 -21.5 -55t-33.5 -98h-39l13 86q-51 69 -165 69 q-121 0 -206 -78q-80 -76 -107 -198q-10 -44 -10 -87q0 -105 60 -165q63 -63 178 -63q104 0 202 51l9 -12l-32 -49q-101 -55 -242 -55q-150 0 -238 71q-90 72 -90 204q0 46 10 92q34 164 176 259q128 86 298 86q130 0 235 -47z" />
<glyph unicode="&#xc8;" horiz-adv-x="737" d="M771 690l-40 -203h-42q1 14 1.5 24t0.5 16q0 48 -24 80q-32 41 -127 43l-150 3l-59 -283h107q45 0 69 25q28 29 43 92h37l-60 -278h-36q12 60 -7 91t-54 31h-107l-63 -294l168 3q29 2 71 15q42 15 67 34q71 54 96 151h43l-64 -240h-630l7 31h93l134 628h-94l6 31h614z M512 741h-45l-123 82q-44 29 -44 59q0 14 14.5 27t30.5 13q30 0 63 -44z" />
<glyph unicode="&#xc9;" horiz-adv-x="737" d="M771 690l-40 -203h-42q1 14 1.5 24t0.5 16q0 48 -24 80q-32 41 -127 43l-150 3l-59 -283h107q45 0 69 25q28 29 43 92h37l-60 -278h-36q12 60 -7 91t-54 31h-107l-63 -294l168 3q29 2 71 15q42 15 67 34q71 54 96 151h43l-64 -240h-630l7 31h93l134 628h-94l6 31h614z M617 928q16 -7 16 -23q0 -24 -26 -45l-145 -116h-39l107 156q25 36 54 36q9 0 33 -8z" />
<glyph unicode="&#xca;" horiz-adv-x="737" d="M771 690l-40 -203h-42q1 14 1.5 24t0.5 16q0 48 -24 80q-32 41 -127 43l-150 3l-59 -283h107q45 0 69 25q28 29 43 92h37l-60 -278h-36q12 60 -7 91t-54 31h-107l-63 -294l168 3q29 2 71 15q42 15 67 34q71 54 96 151h43l-64 -240h-630l7 31h93l134 628h-94l6 31h614z M647 746h-57l-92 98l-133 -98h-55l158 175h93z" />
<glyph unicode="&#xcb;" horiz-adv-x="737" d="M771 690l-40 -203h-42q1 14 1.5 24t0.5 16q0 48 -24 80q-32 41 -127 43l-150 3l-59 -283h107q45 0 69 25q28 29 43 92h37l-60 -278h-36q12 60 -7 91t-54 31h-107l-63 -294l168 3q29 2 71 15q42 15 67 34q71 54 96 151h43l-64 -240h-630l7 31h93l134 628h-94l6 31h614z M637 745q-24 0 -40.5 16t-16.5 38q0 30 25 52q26 23 54 23q23 0 40.5 -15.5t17.5 -37.5q0 -28 -26 -52t-54 -24zM365 745q-24 0 -41 16t-17 38q0 29 26 52t55 23q23 0 40 -15.5t17 -37.5q0 -28 -26 -52t-54 -24z" />
<glyph unicode="&#xcc;" horiz-adv-x="477" d="M471 690l-5 -31h-94l-134 -628h94l-7 -31h-330l7 31h93l134 628h-94l6 31h330zM331 745h-45l-123 82q-44 29 -44 59q0 14 14.5 27t30.5 13q30 0 63 -44z" />
<glyph unicode="&#xcd;" horiz-adv-x="477" d="M471 690l-5 -31h-94l-134 -628h94l-7 -31h-330l7 31h93l134 628h-94l6 31h330zM495 925q16 -7 16 -23q0 -24 -26 -45l-145 -116h-39l107 156q25 36 54 36q9 0 33 -8z" />
<glyph unicode="&#xce;" horiz-adv-x="477" d="M471 690l-5 -31h-94l-134 -628h94l-7 -31h-330l7 31h93l134 628h-94l6 31h330zM488 744h-57l-92 98l-133 -98h-55l158 175h93z" />
<glyph unicode="&#xcf;" horiz-adv-x="477" d="M471 690l-5 -31h-94l-134 -628h94l-7 -31h-330l7 31h93l134 628h-94l6 31h330zM471 739q-24 0 -40.5 16t-16.5 38q0 30 25 52q26 23 54 23q23 0 40.5 -15.5t17.5 -37.5q0 -28 -26 -52t-54 -24zM199 739q-24 0 -41 16t-17 38q0 29 26 52t55 23q23 0 40 -15.5t17 -37.5 q0 -28 -26 -52t-54 -24z" />
<glyph unicode="&#xd0;" horiz-adv-x="780" d="M182 363l62 293h-94l10 32h202q18 1 65 -0.5t123 -3.5q112 -3 176.5 -69.5t64.5 -181.5q0 -44 -11 -99q-30 -140 -140 -238t-238 -101q-20 -1 -52 -0.5t-76 1.5q-107 3 -124 3q-37 1 -72 0.5t-68 -2.5l7 31h94l63 300h-91l8 35h91zM422 363l-7 -35h-101l-62 -294 q34 2 104 6q108 11 177.5 88t95.5 208q15 78 15 132q0 166 -148 182q-23 2 -51.5 2t-62.5 -4l-61 -285h101z" />
<glyph unicode="&#xd1;" horiz-adv-x="735" d="M715 865q-19 -97 -85 -115q-18 -5 -34 -5q-36 0 -90 22q-51 19 -67 16q-41 -7 -55 -41h-33q24 81 72 105q18 9 42 9q31 0 89 -19q56 -18 76 -15q34 4 50 43h35zM829 690l-5 -31q-60 0 -71 -10q-31 -25 -42 -76l-125 -589h-25l-286 653l-110 -519q-10 -52 10 -77 q7 -10 66 -10l-7 -31h-225l7 31q55 0 67 9q34 25 45 78l109 519q4 22 -24 22h-56l6 31h248l193 -457l70 340q11 54 -11 77q-8 9 -64 9l5 31h225z" />
<glyph unicode="&#xd2;" horiz-adv-x="750" d="M699 339q-32 -149 -144 -252t-244 -103q-110 0 -182 79t-72 200q0 40 9 82q35 161 153 263q113 98 245 98q58 0 104.5 -18t78 -51.5t48.5 -81.5t17 -108q0 -53 -13 -108zM551 336q25 115 25 186q0 150 -119 150q-176 0 -246 -331q-10 -49 -15 -89t-5 -72q0 -158 130 -158 q91 0 150 89q49 75 80 225zM497 740h-45l-123 82q-44 29 -44 59q0 14 14.5 27t30.5 13q30 0 63 -44z" />
<glyph unicode="&#xd3;" horiz-adv-x="750" d="M699 339q-32 -149 -144 -252t-244 -103q-110 0 -182 79t-72 200q0 40 9 82q35 161 153 263q113 98 245 98q58 0 104.5 -18t78 -51.5t48.5 -81.5t17 -108q0 -53 -13 -108zM551 336q25 115 25 186q0 150 -119 150q-176 0 -246 -331q-10 -49 -15 -89t-5 -72q0 -158 130 -158 q91 0 150 89q49 75 80 225zM639 928q16 -7 16 -23q0 -24 -26 -45l-145 -116h-39l107 156q25 36 54 36q9 0 33 -8z" />
<glyph unicode="&#xd4;" horiz-adv-x="750" d="M699 339q-32 -149 -144 -252t-244 -103q-110 0 -182 79t-72 200q0 40 9 82q35 161 153 263q113 98 245 98q58 0 104.5 -18t78 -51.5t48.5 -81.5t17 -108q0 -53 -13 -108zM551 336q25 115 25 186q0 150 -119 150q-176 0 -246 -331q-10 -49 -15 -89t-5 -72q0 -158 130 -158 q91 0 150 89q49 75 80 225zM649 741h-57l-92 98l-133 -98h-55l158 175h93z" />
<glyph unicode="&#xd5;" horiz-adv-x="750" d="M699 339q-32 -149 -144 -252t-244 -103q-110 0 -182 79t-72 200q0 40 9 82q35 161 153 263q113 98 245 98q58 0 104.5 -18t78 -51.5t48.5 -81.5t17 -108q0 -53 -13 -108zM551 336q25 115 25 186q0 150 -119 150q-176 0 -246 -331q-10 -49 -15 -89t-5 -72q0 -158 130 -158 q91 0 150 89q49 75 80 225zM656 864q-19 -96 -85 -115q-15 -4 -34 -4q-35 0 -90 21q-50 19 -67 16q-42 -8 -55 -41h-33q24 81 72 105q17 10 42 10q27 0 89 -20q56 -17 76 -15q33 4 50 43h35z" />
<glyph unicode="&#xd6;" horiz-adv-x="750" d="M596 746q-24 0 -40.5 16t-16.5 38q0 15 6.5 28.5t18 24t25.5 16.5t29 6q23 0 40 -15.5t17 -37.5q0 -28 -26 -52t-53 -24zM324 746q-24 0 -41 16t-17 38q0 30 25 52q26 23 56 23q22 0 39 -15.5t17 -37.5q0 -28 -26 -52t-53 -24zM680 343q-31 -147 -145 -252 q-112 -103 -243 -103q-111 0 -183 79q-71 80 -71 200q0 40 9 82q34 160 152 264q112 97 246 97q58 0 104 -18t77.5 -51.5t48.5 -81.5t17 -108q0 -51 -12 -108zM532 340q25 116 25 186q0 150 -119 150q-176 0 -246 -331q-21 -98 -21 -161q0 -158 131 -158q90 0 149 89 q49 75 81 225z" />
<glyph unicode="&#xd7;" horiz-adv-x="499" d="M444 114l-48 -47l-146 140l-147 -140l-48 47l146 141l-145 140l48 46l146 -138l145 138l48 -46l-144 -140z" />
<glyph unicode="&#xd8;" horiz-adv-x="772" d="M551 764l-281 -863h-54l281 863h54zM699 339q-32 -149 -144 -252t-244 -103q-110 0 -182 79t-72 200q0 40 9 82q35 161 153 263q113 98 245 98q58 0 104.5 -18t78 -51.5t48.5 -81.5t17 -108q0 -53 -13 -108zM551 336q25 115 25 186q0 150 -119 150q-176 0 -246 -331 q-10 -49 -15 -89t-5 -72q0 -158 130 -158q91 0 150 89q49 75 80 225z" />
<glyph unicode="&#xd9;" horiz-adv-x="755" d="M794 690l-7 -31q-60 0 -71 -10q-30 -24 -41 -77l-64 -297q-33 -156 -109 -223q-75 -66 -218 -68q-111 -1 -182 56q-70 58 -70 142q0 10 1 20t3 20l93 437h-93l7 31h324l-7 -31h-93l-88 -414q-9 -45 -9 -80q0 -139 153 -139q194 0 244 236l66 310q4 16 4 33q0 30 -15 45 q-9 9 -65 9l7 31h230zM499 743h-45l-123 82q-44 29 -44 59q0 14 14.5 27t30.5 13q30 0 63 -44z" />
<glyph unicode="&#xda;" horiz-adv-x="755" d="M794 690l-7 -31q-60 0 -71 -10q-30 -24 -41 -77l-64 -297q-33 -156 -109 -223q-75 -66 -218 -68q-111 -1 -182 56q-70 58 -70 142q0 10 1 20t3 20l93 437h-93l7 31h324l-7 -31h-93l-88 -414q-9 -45 -9 -80q0 -139 153 -139q194 0 244 236l66 310q4 16 4 33q0 30 -15 45 q-9 9 -65 9l7 31h230zM660 927q16 -7 16 -23q0 -24 -26 -45l-145 -116h-39l107 156q25 36 54 36q9 0 33 -8z" />
<glyph unicode="&#xdb;" horiz-adv-x="755" d="M824 690l-7 -31q-60 0 -71 -10q-30 -24 -41 -77l-64 -297q-33 -156 -109 -223q-75 -66 -218 -68q-111 -1 -182 56q-70 58 -70 142q0 10 1 20t3 20l93 437h-93l7 31h324l-7 -31h-93l-88 -414q-9 -45 -9 -80q0 -139 153 -139q194 0 244 236l66 310q4 16 4 33q0 30 -15 45 q-9 9 -65 9l7 31h230zM673 746h-57l-92 98l-133 -98h-55l158 175h93z" />
<glyph unicode="&#xdc;" horiz-adv-x="755" d="M733 742q-24 0 -40.5 16t-16.5 38q0 30 25 52q26 23 54 23q23 0 40 -15.5t17 -37.5q0 -28 -26 -52t-53 -24zM461 742q-24 0 -41 16t-17 38q0 29 26 52t55 23q22 0 39 -15.5t17 -37.5q0 -28 -26 -52t-53 -24zM930 690l-7 -31q-60 0 -71 -10q-30 -24 -41 -77l-64 -297 q-35 -156 -110 -223q-74 -66 -217 -68q-111 -1 -182 56q-70 58 -70 142q0 10 1 20t3 20l93 437h-93l7 31h324l-7 -31h-93l-88 -414q-10 -43 -10 -80q0 -139 154 -139q194 0 244 236l66 310q4 16 4 33q0 30 -15 45q-9 9 -65 9l7 31h230z" />
<glyph unicode="&#xdd;" horiz-adv-x="640" d="M733 690l-5 -31q-34 0 -83 -25q-31 -15 -77 -75l-205 -283l-51 -245h94l-7 -31h-324l7 31h94l53 257l-142 372h-81l4 31l311 -1l-6 -31h-75q26 -80 51 -159t50 -159l141 205q43 61 43 86q0 5 -3 8q-13 19 -64 19l6 31h269zM566 925q16 -7 16 -23q0 -24 -26 -45l-145 -116 h-39l107 156q25 36 54 36q9 0 33 -8z" />
<glyph unicode="&#xde;" horiz-adv-x="677" d="M658 408q-40 -160 -274 -190l-17 29q130 30 152 159q6 30 6 55q0 110 -127 110l-114 -540h93l-7 -31h-324l7 31h93l133 628h-93l7 31h324l-7 -31h-93l-12 -56h10q119 0 180 -29q70 -33 70 -110q0 -27 -7 -56z" />
<glyph unicode="&#xdf;" horiz-adv-x="556" d="M552 588q-16 -81 -92 -201q-41 27 -74 27q-38 0 -46 -32q-5 -28 32 -53q19 -13 38 -25l38 -24q42 -35 42 -82q0 -15 -4 -27q-16 -75 -63 -107q-71 -47 -75 -48q-43 -25 -80 -25q-49 0 -85 15l-2 -9q-123 3 -248 0l11 49l46 4q5 1 11.5 2.5t13.5 5.5q7 10 16 54l58 273 h-69l6 30l77 35l13 60q10 50 73 124q17 19 40 37t51 35q73 45 140 45q137 0 137 -118q0 -11 -1.5 -22t-3.5 -23zM473 592q0 94 -96 94q-61 0 -95 -37q-43 -47 -70 -173l-76 -359q-2 -13 -3.5 -23t-1.5 -18q0 -29 26 -29h20l39 85h45l-11 -52q24 -26 61 -26q12 0 25 5 t24 13.5t19 20t11 23.5q1 6 1.5 11.5t0.5 10.5q0 46 -67 85q-19 11 -32 20t-20 16q-25 24 -25 55q0 5 0.5 10.5t1.5 10.5q7 33 31 60q2 2 15 13.5t38 34.5q41 37 110 38q29 72 29 111z" />
<glyph unicode="&#xe0;" d="M519 82q-108 -99 -176 -99q-30 0 -30 43q0 30 7 57l35 142l-2 2q-44 -84 -106 -152q-83 -92 -150 -92q-27 0 -41 26q-12 22 -12 51q0 59 24 148q25 95 57 133q8 9 25 24t43 36q58 46 85 58q23 10 67 10q39 0 99 -26l45 27l16 -12l-15 -43q-5 -14 -9 -29.5t-8 -32.5 l-45 -214q-10 -46 -10 -52q0 -20 14 -20q18 0 55 29l20 16zM377 395q-41 22 -77 22q-44 0 -63 -28q-29 -42 -57 -153q-24 -95 -24 -133t18 -38q21 0 54 35q73 76 120 185q20 48 29 110zM455 528h-45l-123 82q-44 29 -44 59q0 14 14.5 27t30.5 13q30 0 63 -44z" />
<glyph unicode="&#xe1;" d="M538 707q16 -7 16 -22q0 -25 -26 -46l-145 -116h-39l107 156q25 37 54 37q10 0 33 -9zM519 82q-108 -99 -176 -99q-30 0 -30 43q0 30 7 57l35 142l-2 2q-44 -84 -106 -152q-83 -92 -150 -92q-27 0 -41 26q-12 22 -12 51q0 59 24 148q25 95 57 133q8 9 25 24t43 36 q58 46 85 58q23 10 67 10q39 0 99 -26l45 27l16 -12l-15 -43q-5 -14 -9 -29.5t-8 -32.5l-45 -214q-10 -46 -10 -52q0 -20 14 -20q18 0 55 29l20 16zM377 395q-41 22 -77 22q-44 0 -63 -28q-29 -42 -57 -153q-24 -95 -24 -133t18 -38q21 0 54 35q73 76 120 185q20 48 29 110z " />
<glyph unicode="&#xe2;" d="M543 526h-57l-92 98l-133 -98h-55l158 175h93zM519 82q-108 -99 -176 -99q-30 0 -30 43q0 30 7 57l35 142l-2 2q-44 -84 -106 -152q-83 -92 -150 -92q-27 0 -41 26q-12 22 -12 51q0 59 24 148q25 95 57 133q8 9 25 24t43 36q58 46 85 58q23 10 67 10q39 0 99 -26l45 27 l16 -12l-15 -43q-5 -14 -9 -29.5t-8 -32.5l-45 -214q-10 -46 -10 -52q0 -20 14 -20q18 0 55 29l20 16zM377 395q-41 22 -77 22q-44 0 -63 -28q-29 -42 -57 -153q-24 -95 -24 -133t18 -38q21 0 54 35q73 76 120 185q20 48 29 110z" />
<glyph unicode="&#xe3;" d="M519 82q-108 -99 -176 -99q-30 0 -30 43q0 30 7 57l35 142l-2 2q-44 -84 -106 -152q-83 -92 -150 -92q-27 0 -41 26q-12 22 -12 51q0 59 24 148q25 95 57 133q8 9 25 24t43 36q58 46 85 58q23 10 67 10q39 0 99 -26l45 27l16 -12l-15 -43q-5 -14 -9 -29.5t-8 -32.5 l-45 -214q-10 -46 -10 -52q0 -20 14 -20q18 0 55 29l20 16zM377 395q-41 22 -77 22q-44 0 -63 -28q-29 -42 -57 -153q-24 -95 -24 -133t18 -38q21 0 54 35q73 76 120 185q20 48 29 110zM553 652q-19 -96 -85 -115q-15 -4 -34 -4q-35 0 -90 21q-50 19 -67 16q-42 -8 -55 -41 h-33q24 81 72 105q17 10 42 10q27 0 89 -20q56 -17 76 -15q33 4 50 43h35z" />
<glyph unicode="&#xe4;" d="M513 532q-24 0 -40.5 16t-16.5 38q0 30 25 52q26 23 54 23q23 0 40 -15.5t17 -37.5q0 -28 -26 -52t-53 -24zM241 532q-24 0 -41 16t-17 38q0 29 26 52t55 23q22 0 39 -15.5t17 -37.5q0 -28 -26 -52t-53 -24zM519 82q-108 -99 -176 -99q-30 0 -30 43q0 30 7 57l35 142 l-2 2q-44 -84 -106 -152q-83 -92 -150 -92q-27 0 -41 26q-12 22 -12 51q0 59 24 148q25 95 57 133q8 9 25 24t43 36q58 46 85 58q23 10 67 10q39 0 99 -26l45 27l16 -12l-15 -43q-5 -14 -9 -29.5t-8 -32.5l-45 -214q-10 -46 -10 -52q0 -20 14 -20q18 0 55 29l20 16zM377 395 q-41 22 -77 22q-44 0 -63 -28q-29 -42 -57 -153q-24 -95 -24 -133t18 -38q21 0 54 35q73 76 120 185q20 48 29 110z" />
<glyph unicode="&#xe5;" d="M519 82q-108 -99 -176 -99q-30 0 -30 43q0 30 7 57l35 142l-2 2q-44 -84 -106 -152q-83 -92 -150 -92q-27 0 -41 26q-12 22 -12 51q0 59 24 148q25 95 57 133q8 9 25 24t43 36q58 46 85 58q23 10 67 10q39 0 99 -26l45 27l16 -12l-15 -43q-5 -14 -9 -29.5t-8 -32.5 l-45 -214q-10 -46 -10 -52q0 -20 14 -20q18 0 55 29l20 16zM377 395q-41 22 -77 22q-44 0 -63 -28q-29 -42 -57 -153q-24 -95 -24 -133t18 -38q21 0 54 35q73 76 120 185q20 48 29 110zM398 531q-36 0 -58.5 22.5t-22.5 56.5q0 46 38 84q37 37 85 37q36 0 58.5 -22.5 t22.5 -57.5q0 -45 -38 -83q-37 -37 -85 -37zM470 642q0 39 -40 39q-24 0 -43 -18.5t-19 -42.5q0 -39 40 -39q25 0 43.5 18.5t18.5 42.5z" />
<glyph unicode="&#xe6;" horiz-adv-x="730" d="M704 385q0 -89 -92 -125q-81 -32 -180 -42q-2 -15 -3 -37.5t-1 -53.5q0 -80 77 -80q58 0 158 67l10 -28q-48 -30 -76 -47t-36 -22q-67 -34 -123 -34q-97 0 -123 86q-29 -23 -48.5 -38t-29.5 -20q-46 -28 -94 -28q-106 0 -106 104q0 15 4 31t11 31t16.5 28.5t20.5 22.5 q60 51 163 51h80v44q0 113 -113 113q-6 0 -14 -1t-17 -2t-17 -2t-12 -1l-24 -67l-19 4l-7 74q71 56 153 56q112 0 140 -97q121 97 207 97q42 0 68.5 -22t26.5 -62zM610 368q0 53 -46 53q-54 0 -85 -63q-5 -8 -15.5 -35.5t-27.5 -74.5q75 3 122 36q24 17 40 47q12 22 12 37z M328 222h-44q-61 0 -101.5 -30t-40.5 -81q0 -55 60 -55q51 0 89 44q17 20 27 59q10 33 10 63z" />
<glyph unicode="&#xe7;" horiz-adv-x="444" d="M436 445q-8 -20 -16.5 -55t-18.5 -86h-33l6 56q1 9 -4 14q-44 33 -90 33q-67 0 -99 -80q-35 -93 -35 -186q0 -39 20 -65t59 -26q63 0 166 70l10 -30q-75 -52 -113 -71q-71 -36 -127 -36q-63 0 -97 40q-32 38 -32 100q0 52 16 115q19 73 45 105q37 46 130 96q55 30 97 30 q48 0 116 -24zM293 -130q0 -44 -42 -68q-35 -20 -83 -20q-55 0 -111 25l22 33q39 -17 65 -17q57 0 57 41q0 36 -44 36q-20 0 -33 -4l-13 12l68 97h44l-46 -67q13 3 28 3q35 0 61.5 -19t26.5 -52z" />
<glyph unicode="&#xe8;" horiz-adv-x="444" d="M418 385q0 -89 -107 -142q-54 -26 -164 -50q-2 -19 -3.5 -35.5t-1.5 -30.5q0 -80 77 -80q58 0 158 67l10 -28q-48 -30 -76 -47t-36 -22q-67 -34 -123 -34q-124 0 -124 125q0 59 25 138q19 61 37 89q24 39 69 70q23 16 45.5 28.5t45.5 20.5q37 15 73 15q42 0 68.5 -22 t26.5 -62zM324 370q0 51 -46 51q-79 0 -113 -144l-14 -58l41 12q55 16 90 48q42 39 42 91zM367 527h-45l-123 82q-44 29 -44 59q0 14 14.5 27t30.5 13q30 0 63 -44z" />
<glyph unicode="&#xe9;" horiz-adv-x="444" d="M438 707q16 -7 16 -22q0 -25 -26 -46l-145 -116h-39l107 156q25 37 54 37q10 0 33 -9zM418 385q0 -89 -107 -142q-54 -26 -164 -50q-2 -19 -3.5 -35.5t-1.5 -30.5q0 -80 77 -80q58 0 158 67l10 -28q-48 -30 -76 -47t-36 -22q-67 -34 -123 -34q-124 0 -124 125 q0 59 25 138q19 61 37 89q24 39 69 70q23 16 45.5 28.5t45.5 20.5q37 15 73 15q42 0 68.5 -22t26.5 -62zM324 370q0 51 -46 51q-79 0 -113 -144l-14 -58l41 12q55 16 90 48q42 39 42 91z" />
<glyph unicode="&#xea;" horiz-adv-x="444" d="M473 526h-57l-92 98l-133 -98h-55l158 175h93zM418 385q0 -89 -107 -142q-54 -26 -164 -50q-2 -19 -3.5 -35.5t-1.5 -30.5q0 -80 77 -80q58 0 158 67l10 -28q-48 -30 -76 -47t-36 -22q-67 -34 -123 -34q-124 0 -124 125q0 59 25 138q19 61 37 89q24 39 69 70 q23 16 45.5 28.5t45.5 20.5q15 5 73 5q95 0 95 -74zM324 370q0 51 -46 51q-79 0 -113 -144l-14 -58l41 12q55 16 90 48q42 39 42 91z" />
<glyph unicode="&#xeb;" horiz-adv-x="444" d="M463 532q-24 0 -40.5 16t-16.5 38q0 30 25 52q26 23 54 23q23 0 40 -15.5t17 -37.5q0 -28 -26 -52t-53 -24zM191 532q-24 0 -41 16t-17 38q0 29 26 52t55 23q22 0 39 -15.5t17 -37.5q0 -28 -26 -52t-53 -24zM418 385q0 -89 -107 -142q-54 -26 -164 -50q-2 -19 -3.5 -35.5 t-1.5 -30.5q0 -80 77 -80q58 0 158 67l10 -28q-48 -30 -76 -47t-36 -22q-67 -34 -123 -34q-124 0 -124 125q0 59 25 138q19 61 37 89q24 39 69 70q23 16 45.5 28.5t45.5 20.5q37 15 73 15q42 0 68.5 -22t26.5 -62zM324 370q0 51 -46 51q-79 0 -113 -144l-14 -58l41 12 q55 16 90 48q42 39 42 91z" />
<glyph unicode="&#xec;" horiz-adv-x="333" d="M293 84l-95 -65q-60 -36 -101 -36q-30 0 -30 43q0 26 6 52l59 241q2 6 4 15t4 22q0 14 -11 14q-22 0 -68 -34l-22 -16l-13 26l63 47q101 76 150 76q25 0 25 -37q0 -34 -9 -67l-54 -196q-20 -75 -20 -91q0 -13 12 -13q13 0 61 30l27 17zM267 528h-45l-123 82 q-44 29 -44 59q0 14 14.5 27t30.5 13q30 0 63 -44z" />
<glyph unicode="&#xed;" horiz-adv-x="333" d="M378 707q16 -7 16 -22q0 -25 -26 -46l-145 -116h-39l107 156q25 37 54 37q10 0 33 -9zM293 84l-95 -65q-60 -36 -101 -36q-30 0 -30 43q0 26 6 52l59 241q2 6 4 15t4 22q0 14 -11 14q-22 0 -68 -34l-22 -16l-13 26l63 47q101 76 150 76q25 0 25 -37q0 -34 -9 -67 l-54 -196q-20 -75 -20 -91q0 -13 12 -13q13 0 61 30l27 17z" />
<glyph unicode="&#xee;" horiz-adv-x="333" d="M383 526h-57l-92 98l-133 -98h-55l158 175h93zM293 84l-95 -65q-60 -36 -101 -36q-30 0 -30 43q0 26 6 52l59 241q2 6 4 15t4 22q0 14 -11 14q-22 0 -68 -34l-22 -16l-13 26l63 47q101 76 150 76q25 0 25 -37q0 -34 -9 -67l-54 -196q-20 -75 -20 -91q0 -13 12 -13 q13 0 61 30l27 17z" />
<glyph unicode="&#xef;" horiz-adv-x="333" d="M363 532q-24 0 -40.5 16t-16.5 38q0 30 25 52q26 23 54 23q23 0 40 -15.5t17 -37.5q0 -28 -26 -52t-53 -24zM91 532q-24 0 -41 16t-17 38q0 29 26 52t55 23q22 0 39 -15.5t17 -37.5q0 -28 -26 -52t-53 -24zM293 84l-95 -65q-60 -36 -101 -36q-30 0 -30 43q0 26 6 52 l59 241q2 6 4 15t4 22q0 14 -11 14q-22 0 -68 -34l-22 -16l-13 26l63 47q101 76 150 76q25 0 25 -37q0 -34 -9 -67l-54 -196q-20 -75 -20 -91q0 -13 12 -13q13 0 61 30l27 17z" />
<glyph unicode="&#xf0;" horiz-adv-x="525" d="M487 209q-22 -86 -68 -130q-101 -96 -218 -96q-82 0 -117.5 39.5t-35.5 121.5q0 56 24 127q22 67 60 102q102 96 218 96q8 0 15.5 -0.5t14.5 -1.5q-2 50 -35 101l-124 -58q-1 -1 -7 33l110 52q-52 63 -116 81q2 8 4 15t4 15q110 -13 183 -76l124 58q1 -1 9 -32l-108 -51 q84 -93 84 -246q0 -75 -21 -150zM388 332q0 38 -22 65.5t-58 27.5q-76 0 -116 -114q-30 -86 -30 -191q0 -39 21 -64q23 -29 59 -29q76 0 116 115q30 85 30 190z" />
<glyph unicode="&#xf1;" horiz-adv-x="556" d="M548 650q-19 -97 -85 -115q-18 -5 -34 -5q-36 0 -90 22q-51 19 -67 16q-41 -7 -55 -41h-33q24 81 72 105q18 9 42 9q31 0 89 -19q56 -18 76 -15q34 4 50 43h35zM521 80q-22 -16 -44 -31.5t-44 -31.5q-55 -34 -92 -34q-36 0 -36 43q0 39 43 192q30 108 30 130t-21 22 q-32 0 -90 -67q-72 -81 -98 -185q-20 -81 -24 -114q-64 -1 -106 -17l-10 11q17 51 32 101t26 101q27 118 27 151q0 19 -10 19q-16 0 -42 -17l-32 -22l-13 27l84 62q65 49 100 49q29 0 29 -30q0 -37 -34 -157l-15 -54h2q37 72 99 134q49 47 92 74q54 33 86 33q40 0 40 -44 q0 -21 -16 -81l-48 -184q-13 -48 -13 -80q0 -15 10 -15q15 0 46 22l29 20z" />
<glyph unicode="&#xf2;" d="M502 308q0 -57 -23 -126q-22 -67 -60 -103q-101 -96 -218 -96q-82 0 -117.5 39.5t-35.5 121.5q0 56 24 127q22 67 60 102q102 96 218 96q152 0 152 -161zM388 332q0 38 -22 65.5t-58 27.5q-76 0 -116 -114q-30 -86 -30 -191q0 -39 21 -64q23 -29 59 -29q76 0 116 115 q30 85 30 190zM364 528h-45l-123 82q-44 29 -44 59q0 14 14.5 27t30.5 13q30 0 63 -44z" />
<glyph unicode="&#xf3;" d="M502 308q0 -57 -23 -126q-22 -67 -60 -103q-101 -96 -218 -96q-82 0 -117.5 39.5t-35.5 121.5q0 56 24 127q22 67 60 102q102 96 218 96q152 0 152 -161zM388 332q0 38 -22 65.5t-58 27.5q-76 0 -116 -114q-30 -86 -30 -191q0 -39 21 -64q23 -29 59 -29q76 0 116 115 q30 85 30 190zM497 720q16 -7 16 -23q0 -24 -26 -45l-145 -116h-39l107 156q25 36 54 36q9 0 33 -8z" />
<glyph unicode="&#xf4;" d="M502 526h-57l-92 98l-133 -98h-55l158 175h93zM502 308q0 -57 -23 -126q-22 -67 -60 -103q-101 -96 -218 -96q-82 0 -117.5 39.5t-35.5 121.5q0 56 24 127q22 67 60 102q102 96 218 96q152 0 152 -161zM388 332q0 38 -22 65.5t-58 27.5q-76 0 -116 -114q-30 -86 -30 -191 q0 -39 21 -64q23 -29 59 -29q76 0 116 115q30 85 30 190z" />
<glyph unicode="&#xf5;" d="M502 308q0 -57 -23 -126q-22 -67 -60 -103q-101 -96 -218 -96q-82 0 -117.5 39.5t-35.5 121.5q0 56 24 127q22 67 60 102q102 96 218 96q152 0 152 -161zM388 332q0 38 -22 65.5t-58 27.5q-76 0 -116 -114q-30 -86 -30 -191q0 -39 21 -64q23 -29 59 -29q76 0 116 115 q30 85 30 190zM527 650q-19 -96 -85 -115q-15 -4 -34 -4q-35 0 -90 21q-50 19 -67 16q-42 -8 -55 -41h-33q24 81 72 105q17 10 42 10q27 0 89 -20q56 -17 76 -15q33 4 50 43h35z" />
<glyph unicode="&#xf6;" d="M500 532q-24 0 -41 16t-17 38q0 30 25 52q26 23 55 23q23 0 40 -15.5t17 -37.5q0 -28 -26 -52t-53 -24zM228 532q-24 0 -41 16t-17 38q0 30 25 52q26 23 56 23q22 0 39 -15.5t17 -37.5q0 -28 -26 -52t-53 -24zM489 308q0 -57 -23 -126q-22 -67 -60 -103 q-101 -96 -218 -96q-82 0 -117.5 39.5t-35.5 121.5q0 56 24 127q22 67 60 102q102 96 218 96q152 0 152 -161zM375 332q0 38 -22 65.5t-58 27.5q-77 0 -116 -114q-30 -86 -30 -191q0 -39 21 -64q23 -29 59 -29q76 0 116 115q30 85 30 190z" />
<glyph unicode="&#xf7;" horiz-adv-x="594" d="M355 444q0 -23 -17.5 -39.5t-40.5 -16.5q-22 0 -39 17t-17 39q0 23 17 40.5t39 17.5q23 0 40.5 -17.5t17.5 -40.5zM543 228h-494v55h494v-55zM355 67q0 -24 -17 -40.5t-41 -16.5q-22 0 -39 17t-17 40q0 22 17 39t39 17q23 0 40.5 -17t17.5 -39z" />
<glyph unicode="&#xf8;" horiz-adv-x="534" d="M446 499q24 -16 28 -19q-17 -23 -112 -158t-269 -384q-24 19 -26 22q71 100 165 234t214 305zM497 308q0 -57 -23 -126q-22 -67 -60 -103q-101 -96 -218 -96q-82 0 -117.5 39.5t-35.5 121.5q0 56 24 127q22 67 60 102q102 96 218 96q152 0 152 -161zM383 332 q0 38 -22 65.5t-58 27.5q-77 0 -116 -114q-30 -86 -30 -191q0 -39 21 -64q23 -29 59 -29q76 0 116 115q30 85 30 190z" />
<glyph unicode="&#xf9;" d="M528 88q-135 -105 -173 -105q-36 0 -36 43q0 24 16 81l30 108l-2 2q-50 -85 -114 -149q-82 -85 -146 -85q-21 0 -33 19q-10 14 -10 35q0 24 19 99q8 31 15.5 61t15.5 61q18 72 18 97q0 15 -16 15q-18 0 -34 -10l-36 -21l-13 26l79 54q74 50 116 50q27 0 27 -35 q0 -31 -29 -147l-35 -137q-10 -37 -10 -67q0 -12 18 -12q37 0 109 101q64 90 90 200q10 41 10 75q48 -2 110 18l9 -11q-20 -64 -39 -132.5t-37 -141.5q-20 -82 -20 -93q0 -13 14 -13q24 0 55 25l22 17zM373 531h-45l-123 82q-44 29 -44 59q0 14 14.5 27t30.5 13q30 0 63 -44 z" />
<glyph unicode="&#xfa;" d="M528 88q-135 -105 -173 -105q-36 0 -36 43q0 24 16 81l30 108l-2 2q-50 -85 -114 -149q-82 -85 -146 -85q-21 0 -33 19q-10 14 -10 35q0 24 19 99q8 31 15.5 61t15.5 61q18 72 18 97q0 15 -16 15q-18 0 -34 -10l-36 -21l-13 26l79 54q74 50 116 50q27 0 27 -35 q0 -31 -29 -147l-35 -137q-10 -37 -10 -67q0 -12 18 -12q37 0 109 101q64 90 90 200q10 41 10 75q48 -2 110 18l9 -11q-20 -64 -39 -132.5t-37 -141.5q-20 -82 -20 -93q0 -13 14 -13q24 0 55 25l22 17zM529 713q16 -7 16 -23q0 -24 -26 -45l-145 -116h-39l107 156 q25 36 54 36q9 0 33 -8z" />
<glyph unicode="&#xfb;" d="M528 526h-57l-92 98l-133 -98h-55l158 175h93zM521 88q-135 -105 -173 -105q-36 0 -36 43q0 24 16 81l30 108l-2 2q-50 -85 -114 -149q-82 -85 -146 -85q-21 0 -33 19q-10 14 -10 35q0 24 19 99q8 31 15.5 61t15.5 61q18 72 18 97q0 15 -16 15q-18 0 -34 -10l-36 -21 l-13 26l79 54q74 50 116 50q27 0 27 -35q0 -31 -29 -147l-35 -137q-10 -37 -10 -67q0 -12 18 -12q37 0 109 101q64 90 90 200q10 41 10 75q48 -2 110 18l9 -11q-20 -64 -39 -132.5t-37 -141.5q-20 -82 -20 -93q0 -13 14 -13q24 0 55 25l22 17z" />
<glyph unicode="&#xfc;" d="M463 532q-24 0 -40.5 16t-16.5 38q0 30 25 52q26 23 54 23q23 0 40 -15.5t17 -37.5q0 -28 -26 -52t-53 -24zM191 532q-24 0 -41 16t-17 38q0 29 26 52t55 23q22 0 39 -15.5t17 -37.5q0 -28 -26 -52t-53 -24zM521 88q-135 -105 -173 -105q-36 0 -36 43q0 24 16 81l30 108 l-2 2q-50 -85 -114 -149q-82 -85 -146 -85q-21 0 -33 19q-10 14 -10 35q0 24 19 99q8 31 15.5 61t15.5 61q18 72 18 97q0 15 -16 15q-18 0 -34 -10l-36 -21l-13 26l79 54q74 50 116 50q27 0 27 -35q0 -31 -29 -147l-35 -137q-10 -37 -10 -67q0 -12 18 -12q37 0 109 101 q64 90 90 200q10 41 10 75q48 -2 110 18l9 -11q-20 -64 -39 -132.5t-37 -141.5q-20 -82 -20 -93q0 -13 14 -13q24 0 55 25l22 17z" />
<glyph unicode="&#xfd;" d="M541 453q-11 -25 -39.5 -118t-73.5 -257q-20 -73 -49 -133t-67 -108q-33 -42 -82 -73q-56 -35 -103 -35q-99 0 -106 97l62 40l18 -6q-7 -85 63 -85q93 0 150 229l39 157l-2 2q-37 -74 -100 -128q-61 -52 -102 -52q-26 0 -39 31q-10 23 -10 54q0 30 6 87l19 182 q3 33 -19 33q-32 0 -79 -41l-14 28l80 62q65 50 101 50q41 0 41 -60q0 -20 -1.5 -40.5t-3.5 -42.5l-19 -163q-2 -17 -3 -32t-1 -29q0 -35 16 -35q38 0 95 86q64 93 91 219q10 44 10 75q48 -2 110 18zM515 720q16 -7 16 -23q0 -24 -26 -45l-145 -116h-39l107 156q25 36 54 36 q9 0 33 -8z" />
<glyph unicode="&#xfe;" horiz-adv-x="565" d="M530 364q1 -32 -5 -67t-17 -73q-27 -85 -68 -126q-24 -24 -69 -57q-23 -16 -40.5 -27t-30.5 -16q-36 -15 -82 -15q-31 0 -55 7q-11 -45 -18 -74.5t-11 -45.5q-8 -37 -12.5 -67t-6.5 -53q-21 -4 -49 -9t-63 -12l-10 7q8 27 16 57.5t16 64.5l79 340q4 17 10 49.5t12.5 71 t13 80.5t11.5 77.5t8.5 62t3.5 34.5q0 19 -10 19q-16 0 -42 -17l-32 -22l-13 27l84 62q65 49 100 49q29 0 29 -30q0 -5 -3.5 -29.5t-9 -61t-13 -80t-15 -86.5t-15 -80.5l-12.5 -62.5l2 -2q43 81 109 141q78 69 151 69q55 0 57 -105zM416 334q0 56 -28 57q-15 0 -33 -10 t-38.5 -28.5t-41.5 -45.5t-40 -60q-14 -25 -26 -56.5t-20 -69.5l-14 -62q46 -27 96 -27q49 0 84 65q14 26 40 108q21 67 21 129z" />
<glyph unicode="&#xff;" d="M541 453q-11 -25 -39.5 -118t-73.5 -257q-20 -73 -49 -133t-67 -108q-33 -42 -82 -73q-56 -35 -103 -35q-99 0 -106 97l62 40l18 -6q-7 -85 63 -85q93 0 150 229l39 157l-2 2q-37 -74 -100 -128q-61 -52 -102 -52q-26 0 -39 31q-10 23 -10 54q0 30 6 87l19 182 q3 33 -19 33q-32 0 -79 -41l-14 28l80 62q65 50 101 50q41 0 41 -60q0 -20 -1.5 -40.5t-3.5 -42.5l-19 -163q-2 -17 -3 -32t-1 -29q0 -35 16 -35q38 0 95 86q64 93 91 219q10 44 10 75q48 -2 110 18zM492 531q-24 0 -40.5 16t-16.5 38q0 30 25 52q26 23 54 23 q23 0 40.5 -15.5t17.5 -37.5q0 -28 -26 -52t-54 -24zM220 531q-24 0 -41 16t-17 38q0 29 26 52t55 23q23 0 40 -15.5t17 -37.5q0 -28 -26 -52t-54 -24z" />
<glyph unicode="&#x100;" horiz-adv-x="703" d="M688 31l-7 -31h-293l7 31h80l-25 198h-244l-56 -91q-36 -59 -36 -86q0 -5 2 -11q4 -10 62 -10l-7 -31h-218l7 31q53 -2 74 11q30 17 76 96l339 572h72l91 -679h76zM443 266l-39 294l-174 -294h213zM633 744h-308l15 66h307z" />
<glyph unicode="&#x101;" d="M519 82q-108 -99 -176 -99q-30 0 -30 43q0 30 7 57l35 142l-2 2q-44 -84 -106 -152q-83 -92 -150 -92q-27 0 -41 26q-12 22 -12 51q0 59 24 148q25 95 57 133q8 9 25 24t43 36q58 46 85 58q23 10 67 10q39 0 99 -26l45 27l16 -12l-15 -43q-5 -14 -9 -29.5t-8 -32.5 l-45 -214q-10 -46 -10 -52q0 -20 14 -20q18 0 55 29l20 16zM377 395q-41 22 -77 22q-44 0 -63 -28q-29 -42 -57 -153q-24 -95 -24 -133t18 -38q21 0 54 35q73 76 120 185q20 48 29 110zM522 528h-308l15 66h307z" />
<glyph unicode="&#x102;" horiz-adv-x="706" d="M688 31l-7 -31h-293l7 31h80l-25 198h-244l-56 -91q-36 -59 -36 -86q0 -5 2 -11q4 -10 62 -10l-7 -31h-218l7 31q53 -2 74 11q30 17 76 96l339 572h72l91 -679h76zM443 266l-39 294l-174 -294h213zM648 890q-11 -78 -49 -112t-114 -33q-107 2 -107 94q0 26 7 53q3 3 17 5 q13 1 19 -5q-1 -52 12 -68q15 -20 66 -18q35 2 56 15q28 18 57 72q7 4 21 3q13 -2 15 -6z" />
<glyph unicode="&#x103;" d="M519 82q-108 -99 -176 -99q-30 0 -30 43q0 30 7 57l35 142l-2 2q-44 -84 -106 -152q-83 -92 -150 -92q-27 0 -41 26q-12 22 -12 51q0 59 24 148q25 95 57 133q8 9 25 24t43 36q58 46 85 58q23 10 67 10q39 0 99 -26l45 27l16 -12l-15 -43q-5 -14 -9 -29.5t-8 -32.5 l-45 -214q-10 -46 -10 -52q0 -20 14 -20q18 0 55 29l20 16zM377 395q-41 22 -77 22q-44 0 -63 -28q-29 -42 -57 -153q-24 -95 -24 -133t18 -38q21 0 54 35q73 76 120 185q20 48 29 110zM523 677q-11 -78 -49 -112t-114 -33q-107 2 -107 94q0 26 7 53q3 3 17 5q13 1 19 -5 q-1 -52 12 -68q15 -20 66 -18q35 2 56 15q28 18 57 72q7 4 21 3q13 -2 15 -6z" />
<glyph unicode="&#x104;" horiz-adv-x="716" d="M698 31l-7 -31h-293l7 31h80l-25 198h-244l-56 -91q-36 -59 -36 -86q0 -5 2 -11q4 -10 62 -10l-7 -31h-218l7 31q53 -2 74 11q30 17 76 96l339 572h72l91 -679h76zM453 266l-39 294l-174 -294h213zM566 2q-68 -54 -68 -99q0 -12 8 -23q11 -14 40 -14q33 0 61 16l7 -19 q-56 -51 -117 -51q-30 0 -51 12q-26 15 -26 43q0 16 8.5 34t24 36t38 35t50.5 30h25z" />
<glyph unicode="&#x105;" d="M519 82q-108 -99 -176 -99q-30 0 -30 43q0 30 7 57l35 142l-2 2q-44 -84 -106 -152q-83 -92 -150 -92q-27 0 -41 26q-12 22 -12 51q0 59 24 148q25 95 57 133q8 9 25 24t43 36q58 46 85 58q23 10 67 10q39 0 99 -26l45 27l16 -12l-15 -43q-5 -14 -9 -29.5t-8 -32.5 l-45 -214q-10 -46 -10 -52q0 -20 14 -20q18 0 55 29l20 16zM377 395q-41 22 -77 22q-44 0 -63 -28q-29 -42 -57 -153q-24 -95 -24 -133t18 -38q21 0 54 35q73 76 120 185q20 48 29 110zM407 2q-68 -54 -68 -99q0 -12 8 -23q11 -14 40 -14q33 0 61 16l8 -19q-56 -51 -118 -51 q-30 0 -51 12q-26 15 -26 43q0 16 8.5 34t24 36t38 35t50.5 30h25z" />
<glyph unicode="&#x106;" horiz-adv-x="707" d="M764 639q-8 -17 -21.5 -55t-33.5 -98h-39l13 86q-51 69 -165 69q-121 0 -206 -78q-80 -76 -107 -198q-10 -44 -10 -87q0 -105 60 -165q63 -63 178 -63q104 0 202 51l9 -12l-32 -49q-101 -55 -242 -55q-150 0 -238 71q-90 72 -90 204q0 46 10 92q34 164 176 259 q128 86 298 86q130 0 235 -47zM630 924q16 -7 16 -23q0 -24 -26 -45l-145 -116h-39l107 156q25 36 54 36q9 0 33 -8z" />
<glyph unicode="&#x107;" horiz-adv-x="444" d="M436 445q-8 -20 -16.5 -55t-18.5 -86h-33l6 56q1 9 -4 14q-44 33 -90 33q-67 0 -99 -80q-35 -93 -35 -186q0 -39 20 -65t59 -26q63 0 166 70l10 -30q-75 -52 -113 -71q-71 -36 -127 -36q-63 0 -97 40q-32 38 -32 100q0 52 16 115q19 73 45 105q37 46 130 96q55 30 97 30 q48 0 116 -24zM412 709q16 -7 16 -23q0 -24 -26 -45l-145 -116h-39l107 156q25 36 54 36q9 0 33 -8z" />
<glyph unicode="&#x108;" horiz-adv-x="707" d="M764 639q-8 -17 -21.5 -55t-33.5 -98h-39l13 86q-51 69 -165 69q-121 0 -206 -78q-80 -76 -107 -198q-10 -44 -10 -87q0 -105 60 -165q63 -63 178 -63q104 0 202 51l9 -12l-32 -49q-101 -55 -242 -55q-150 0 -238 71q-90 72 -90 204q0 46 10 92q34 164 176 259 q128 86 298 86q130 0 235 -47zM706 743h-57l-92 98l-133 -98h-55l158 175h93z" />
<glyph unicode="&#x109;" horiz-adv-x="444" d="M436 445q-8 -20 -16.5 -55t-18.5 -86h-33l6 56q1 9 -4 14q-44 33 -90 33q-67 0 -99 -80q-35 -93 -35 -186q0 -39 20 -65t59 -26q63 0 166 70l10 -30q-75 -52 -113 -71q-71 -36 -127 -36q-63 0 -97 40q-32 38 -32 100q0 52 16 115q19 73 45 105q37 46 130 96q55 30 97 30 q48 0 116 -24zM486 529h-57l-92 98l-133 -98h-55l158 175h93z" />
<glyph unicode="&#x10a;" horiz-adv-x="707" d="M764 639q-8 -17 -21.5 -55t-33.5 -98h-39l13 86q-51 69 -165 69q-121 0 -206 -78q-80 -76 -107 -198q-10 -44 -10 -87q0 -105 60 -165q63 -63 178 -63q104 0 202 51l9 -12l-32 -49q-101 -55 -242 -55q-150 0 -238 71q-90 72 -90 204q0 46 10 92q34 164 176 259 q128 86 298 86q130 0 235 -47zM582 793q-10 -49 -56 -49q-38 0 -38 35q0 24 17 41.5t41 17.5q20 0 30 -13.5t6 -31.5z" />
<glyph unicode="&#x10b;" horiz-adv-x="444" d="M436 445q-8 -20 -16.5 -55t-18.5 -86h-33l6 56q1 9 -4 14q-44 33 -90 33q-67 0 -99 -80q-35 -93 -35 -186q0 -39 20 -65t59 -26q63 0 166 70l10 -30q-75 -52 -113 -71q-71 -36 -127 -36q-63 0 -97 40q-32 38 -32 100q0 52 16 115q19 73 45 105q37 46 130 96q55 30 97 30 q48 0 116 -24zM376 581q-10 -49 -56 -49q-38 0 -38 35q0 24 17 41.5t41 17.5q20 0 30 -13.5t6 -31.5z" />
<glyph unicode="&#x10c;" horiz-adv-x="707" d="M764 639q-8 -17 -21.5 -55t-33.5 -98h-39l13 86q-51 69 -165 69q-121 0 -206 -78q-80 -76 -107 -198q-10 -44 -10 -87q0 -105 60 -165q63 -63 178 -63q104 0 202 51l9 -12l-32 -49q-101 -55 -242 -55q-150 0 -238 71q-90 72 -90 204q0 46 10 92q34 164 176 259 q128 86 298 86q130 0 235 -47zM386 921h47l102 -111l123 111h65l-158 -175h-93z" />
<glyph unicode="&#x10d;" horiz-adv-x="444" d="M436 445q-8 -20 -16.5 -55t-18.5 -86h-33l6 56q1 9 -4 14q-44 33 -90 33q-67 0 -99 -80q-35 -93 -35 -186q0 -39 20 -65t59 -26q63 0 166 70l10 -30q-75 -52 -113 -71q-71 -36 -127 -36q-63 0 -97 40q-32 38 -32 100q0 52 16 115q19 73 45 105q37 46 130 96q55 30 97 30 q48 0 116 -24zM159 708h47l102 -111l123 111h65l-158 -175h-93z" />
<glyph unicode="&#x10e;" horiz-adv-x="780" d="M780 334q-30 -140 -140 -238t-238 -101q-20 -1 -52 -0.5t-76 1.5q-107 3 -124 3q-37 1 -72 0.5t-68 -2.5l7 31h94l133 628h-94l10 32h202q18 1 65 -0.5t123 -3.5q112 -3 176.5 -69.5t64.5 -181.5q0 -44 -11 -99zM629 336q15 78 15 132q0 166 -148 182q-23 2 -51.5 2 t-62.5 -4l-130 -614q34 2 104 6q108 11 177.5 88t95.5 208zM336 921h47l102 -111l123 111h65l-158 -175h-93z" />
<glyph unicode="&#x10f;" d="M533 700q-3 -12 -6.5 -28.5t-7.5 -36.5l-104 -514q-5 -28 -5 -39q0 -17 14 -17q6 0 49 28l26 17l9 -28q-131 -99 -170 -99q-37 0 -37 43q0 21 7 48l38 156l-2 2q-34 -62 -71 -110t-77 -83q-65 -56 -103 -56q-69 0 -69 93q0 62 19 137q19 84 50 130q32 46 121 95 q55 31 100 31q33 0 68 -9l36 181q-25 -10 -101 -18l8 40q69 10 118 21.5t80 24.5zM370 401q-47 18 -82 18q-47 0 -64 -17q-35 -38 -62 -148q-24 -98 -24 -163q0 -26 26 -26q34 0 102 92q65 89 80 149zM736 619q-9 -43 -58 -90q-51 -48 -93 -64l-6 22q15 5 31.5 17t35.5 29 q37 35 43 62q3 16 -12 16q5 0 -4 -1t-31 -3q-44 8 -44 39v1q0 32 22.5 53t54.5 21q64 0 64 -76q0 -13 -3 -26z" />
<glyph unicode="&#x110;" horiz-adv-x="801" d="M780 334q-30 -140 -140 -238t-238 -101q-20 -1 -52 -0.5t-76 1.5q-107 3 -124 3q-37 1 -72 0.5t-68 -2.5l7 31h94l63 300h-91l8 35h91l62 293h-94l10 32h202q18 1 65 -0.5t123 -3.5q112 -3 176.5 -69.5t64.5 -181.5q0 -44 -11 -99zM629 336q15 78 15 132q0 166 -148 182 q-23 2 -51.5 2t-62.5 -4l-61 -285h101l-7 -35h-101l-62 -294q34 2 104 6q108 11 177.5 88t95.5 208z" />
<glyph unicode="&#x111;" horiz-adv-x="562" d="M550 717q-3 -13 -6.5 -29t-7.5 -36l-16 -78h61l-8 -36h-60l-84 -417q-5 -28 -5 -39q0 -17 14 -17q6 0 49 28l26 17l9 -28q-131 -99 -170 -99q-37 0 -37 43q0 21 7 48l38 156l-2 2q-34 -62 -71 -110t-77 -83q-65 -56 -103 -56q-69 0 -69 93q0 62 19 137q19 84 50 130 q32 46 121 95q55 31 100 31q33 0 68 -9l15 78h-119l7 36h119l17 84q-25 -10 -101 -18l8 40q69 10 118 21.5t80 24.5zM384 401q-47 18 -82 18q-47 0 -64 -17q-35 -38 -62 -148q-24 -98 -24 -163q0 -26 26 -26q34 0 102 92q65 89 80 149z" />
<glyph unicode="&#x112;" horiz-adv-x="737" d="M771 690l-40 -203h-42q1 14 1.5 24t0.5 16q0 48 -24 80q-32 41 -127 43l-150 3l-59 -283h107q45 0 69 25q28 29 43 92h37l-60 -278h-36q12 60 -7 91t-54 31h-107l-63 -294l168 3q29 2 71 15q42 15 67 34q71 54 96 151h43l-64 -240h-630l7 31h93l134 628h-94l6 31h614z M640 746h-308l15 66h307z" />
<glyph unicode="&#x113;" horiz-adv-x="444" d="M418 385q0 -89 -107 -142q-54 -26 -164 -50q-2 -19 -3.5 -35.5t-1.5 -30.5q0 -80 77 -80q58 0 158 67l10 -28q-48 -30 -76 -47t-36 -22q-67 -34 -123 -34q-124 0 -124 125q0 59 25 138q19 61 37 89q24 39 69 70q23 16 45.5 28.5t45.5 20.5q37 15 73 15q42 0 68.5 -22 t26.5 -62zM324 370q0 51 -46 51q-79 0 -113 -144l-14 -58l41 12q55 16 90 48q42 39 42 91zM449 527h-308l15 66h307z" />
<glyph unicode="&#x114;" horiz-adv-x="737" d="M771 690l-40 -203h-42q1 14 1.5 24t0.5 16q0 48 -24 80q-32 41 -127 43l-150 3l-59 -283h107q45 0 69 25q28 29 43 92h37l-60 -278h-36q12 60 -7 91t-54 31h-107l-63 -294l168 3q29 2 71 15q42 15 67 34q71 54 96 151h43l-64 -240h-630l7 31h93l134 628h-94l6 31h614z M626 888q-11 -78 -49 -112t-114 -33q-107 2 -107 94q0 26 7 53q3 3 17 5q13 1 19 -5q-1 -52 12 -68q15 -20 66 -18q35 2 56 15q28 18 57 72q7 4 21 3q13 -2 15 -6z" />
<glyph unicode="&#x115;" horiz-adv-x="444" d="M418 385q0 -89 -107 -142q-54 -26 -164 -50q-2 -19 -3.5 -35.5t-1.5 -30.5q0 -80 77 -80q58 0 158 67l10 -28q-48 -30 -76 -47t-36 -22q-67 -34 -123 -34q-124 0 -124 125q0 59 25 138q19 61 37 89q24 39 69 70q23 16 45.5 28.5t45.5 20.5q37 15 73 15q42 0 68.5 -22 t26.5 -62zM324 370q0 51 -46 51q-79 0 -113 -144l-14 -58l41 12q55 16 90 48q42 39 42 91zM462 674q-11 -78 -49 -112t-114 -33q-107 2 -107 94q0 26 7 53q3 3 17 5q13 1 19 -5q-1 -52 12 -68q15 -20 66 -18q35 2 56 15q28 18 57 72q7 4 21 3q13 -2 15 -6z" />
<glyph unicode="&#x116;" horiz-adv-x="737" d="M747 690l-40 -203h-42q1 14 1.5 24t0.5 16q0 48 -24 80q-32 41 -127 43l-150 3l-59 -283h107q45 0 69 25q28 29 43 92h37l-60 -278h-36q12 60 -7 91t-54 31h-107l-63 -294l168 3q29 2 71 15q42 15 67 34q71 54 96 151h43l-64 -240h-630l7 31h93l134 628h-94l6 31h614z M508 793q-10 -49 -56 -49q-38 0 -38 35q0 24 17 41.5t41 17.5q20 0 30 -13.5t6 -31.5z" />
<glyph unicode="&#x117;" horiz-adv-x="444" d="M418 385q0 -89 -107 -142q-54 -26 -164 -50q-2 -19 -3.5 -35.5t-1.5 -30.5q0 -80 77 -80q58 0 158 67l10 -28q-48 -30 -76 -47t-36 -22q-67 -34 -123 -34q-124 0 -124 125q0 59 25 138q19 61 37 89q24 39 69 70q23 16 45.5 28.5t45.5 20.5q37 15 73 15q42 0 68.5 -22 t26.5 -62zM324 370q0 51 -46 51q-79 0 -113 -144l-14 -58l41 12q55 16 90 48q42 39 42 91zM367 583q-10 -49 -56 -49q-38 0 -38 35q0 24 17 41.5t41 17.5q20 0 30 -13.5t6 -31.5z" />
<glyph unicode="&#x118;" horiz-adv-x="737" d="M771 690l-40 -203h-42q1 14 1.5 24t0.5 16q0 48 -24 80q-32 41 -127 43l-150 3l-59 -283h107q45 0 69 25q28 29 43 92h37l-60 -278h-36q12 60 -7 91t-54 31h-107l-63 -294l168 3q29 2 71 15q42 15 67 34q71 54 96 151h43l-64 -240h-630l7 31h93l134 628h-94l6 31h614z M370 2q-69 -54 -69 -99q0 -12 8 -23q12 -14 41 -14q32 0 60 16l8 -19q-56 -51 -117 -51q-30 0 -52 12q-25 15 -25 43q0 16 8.5 34t24 36t38 35t49.5 30h26z" />
<glyph unicode="&#x119;" horiz-adv-x="444" d="M418 385q0 -89 -107 -142q-54 -26 -164 -50q-2 -19 -3.5 -35.5t-1.5 -30.5q0 -80 77 -80q58 0 158 67l10 -28q-48 -30 -76 -47t-36 -22q-67 -34 -123 -34q-124 0 -124 125q0 59 25 138q19 61 37 89q24 39 69 70q23 16 45.5 28.5t45.5 20.5q37 15 73 15q42 0 68.5 -22 t26.5 -62zM324 370q0 51 -46 51q-79 0 -113 -144l-14 -58l41 12q55 16 90 48q42 39 42 91zM187 2q-68 -54 -68 -99q0 -12 8 -23q11 -14 40 -14q33 0 61 16l8 -19q-56 -51 -118 -51q-30 0 -51 12q-26 15 -26 43q0 16 8.5 34t24 36t38 35t50.5 30h25z" />
<glyph unicode="&#x11a;" horiz-adv-x="737" d="M771 690l-40 -203h-42q1 14 1.5 24t0.5 16q0 48 -24 80q-32 41 -127 43l-150 3l-59 -283h107q45 0 69 25q28 29 43 92h37l-60 -278h-36q12 60 -7 91t-54 31h-107l-63 -294l168 3q29 2 71 15q42 15 67 34q71 54 96 151h43l-64 -240h-630l7 31h93l134 628h-94l6 31h614z M336 921h47l102 -111l123 111h65l-158 -175h-93z" />
<glyph unicode="&#x11b;" horiz-adv-x="444" d="M418 385q0 -89 -107 -142q-54 -26 -164 -50q-2 -19 -3.5 -35.5t-1.5 -30.5q0 -80 77 -80q58 0 158 67l10 -28q-48 -30 -76 -47t-36 -22q-67 -34 -123 -34q-124 0 -124 125q0 59 25 138q19 61 37 89q24 39 69 70q23 16 45.5 28.5t45.5 20.5q37 15 73 15q42 0 68.5 -22 t26.5 -62zM324 370q0 51 -46 51q-79 0 -113 -144l-14 -58l41 12q55 16 90 48q42 39 42 91zM180 701h47l102 -111l123 111h65l-158 -175h-93z" />
<glyph unicode="&#x11c;" horiz-adv-x="707" d="M691 622q-8 -17 -22 -55t-33 -98h-39l13 86q-8 13 -15 26t-15 26q-20 30 -49 47q-37 19 -92 18q-95 -3 -157 -96q-51 -78 -84 -235q-22 -101 -22 -168q0 -154 127 -151t164 43l36 171h-110l9 41h286l-8 -37h-41l-42 -196q-56 -20 -86.5 -30.5t-37.5 -12.5 q-66 -17 -180 -17q-110 0 -182 79t-72 200q0 41 9 82q35 161 153 263q113 97 245 98q114 1 186 -33q13 -6 56 -40zM629 744h-57l-92 98l-133 -98h-55l158 175h93z" />
<glyph unicode="&#x11d;" horiz-adv-x="500" d="M529 440l-10 -50l-88 4q11 -30 11 -54q0 -132 -148 -187q-67 -25 -67 -50q0 -17 23 -34l85 -60q78 -56 78 -112q0 -83 -86 -130q-71 -38 -163 -38q-77 0 -135 23q-79 33 -79 101q0 62 69 106q42 28 123 53q-26 20 -26 49q0 19 4 20l89 54l-2 2q-153 -2 -153 122 q0 69 32 112q27 36 87 64q69 34 117 34t90 -20q36 -4 73 -3l71 3zM334 342q0 83 -68 83q-62 0 -87 -61q-22 -51 -22 -104q0 -88 74 -88q55 0 82 61q21 46 21 109zM309 -142q0 39 -64 82l-82 55l-28 -13q-96 -45 -96 -114q0 -51 46 -79q37 -24 93 -24q48 0 86 21q45 25 45 72 zM451 527h-57l-92 98l-133 -98h-55l158 175h93z" />
<glyph unicode="&#x11e;" horiz-adv-x="707" d="M691 622q-8 -17 -22 -55t-33 -98h-39l13 86q-8 13 -15 26t-15 26q-20 30 -49 47q-37 19 -92 18q-95 -3 -157 -96q-51 -78 -84 -235q-22 -101 -22 -168q0 -154 127 -151t164 43l36 171h-110l9 41h286l-8 -37h-41l-42 -196q-56 -20 -86.5 -30.5t-37.5 -12.5 q-66 -17 -180 -17q-110 0 -182 79t-72 200q0 41 9 82q35 161 153 263q113 97 245 98q114 1 186 -33q13 -6 56 -40zM618 889q-11 -78 -49 -112t-114 -33q-107 2 -107 94q0 26 7 53q3 3 17 5q13 1 19 -5q-1 -52 12 -68q15 -20 66 -18q35 2 56 15q28 18 57 72q7 4 21 3 q13 -2 15 -6z" />
<glyph unicode="&#x11f;" horiz-adv-x="500" d="M529 440l-10 -50l-88 4q11 -30 11 -54q0 -132 -148 -187q-67 -25 -67 -50q0 -17 23 -34l85 -60q78 -56 78 -112q0 -83 -86 -130q-71 -38 -163 -38q-77 0 -135 23q-79 33 -79 101q0 62 69 106q42 28 123 53q-26 20 -26 49q0 19 4 20l89 54l-2 2q-153 -2 -153 122 q0 69 32 112q27 36 87 64q69 34 117 34t90 -20q36 -4 73 -3l71 3zM334 342q0 83 -68 83q-62 0 -87 -61q-22 -51 -22 -104q0 -88 74 -88q55 0 82 61q21 46 21 109zM309 -142q0 39 -64 82l-82 55l-28 -13q-96 -45 -96 -114q0 -51 46 -79q37 -24 93 -24q48 0 86 21q45 25 45 72 zM450 676q-11 -78 -49 -112t-114 -33q-107 2 -107 94q0 26 7 53q3 3 17 5q13 1 19 -5q-1 -52 12 -68q15 -20 66 -18q35 2 56 15q28 18 57 72q7 4 21 3q13 -2 15 -6z" />
<glyph unicode="&#x120;" horiz-adv-x="707" d="M691 622q-8 -17 -22 -55t-33 -98h-39l13 86q-8 13 -15 26t-15 26q-20 30 -49 47q-37 19 -92 18q-95 -3 -157 -96q-51 -78 -84 -235q-22 -101 -22 -168q0 -154 127 -151t164 43l36 171h-110l9 41h286l-8 -37h-41l-42 -196q-56 -20 -86.5 -30.5t-37.5 -12.5 q-66 -17 -180 -17q-110 0 -182 79t-72 200q0 41 9 82q35 161 153 263q113 97 245 98q114 1 186 -33q13 -6 56 -40zM532 795q-10 -49 -56 -49q-38 0 -38 35q0 24 17 41.5t41 17.5q20 0 30 -13.5t6 -31.5z" />
<glyph unicode="&#x121;" horiz-adv-x="500" d="M529 440l-10 -50l-88 4q11 -30 11 -54q0 -132 -148 -187q-67 -25 -67 -50q0 -17 23 -34l85 -60q78 -56 78 -112q0 -83 -86 -130q-71 -38 -163 -38q-77 0 -135 23q-79 33 -79 101q0 62 69 106q42 28 123 53q-26 20 -26 49q0 19 4 20l89 54l-2 2q-153 -2 -153 122 q0 69 32 112q27 36 87 64q69 34 117 34t90 -20q36 -4 73 -3l71 3zM334 342q0 83 -68 83q-62 0 -87 -61q-22 -51 -22 -104q0 -88 74 -88q55 0 82 61q21 46 21 109zM309 -142q0 39 -64 82l-82 55l-28 -13q-96 -45 -96 -114q0 -51 46 -79q37 -24 93 -24q48 0 86 21q45 25 45 72 zM336 580q-10 -49 -56 -49q-38 0 -38 35q0 24 17 41.5t41 17.5q20 0 30 -13.5t6 -31.5z" />
<glyph unicode="&#x122;" horiz-adv-x="707" d="M691 622q-8 -17 -22 -55t-33 -98h-39l13 86q-8 13 -15 26t-15 26q-20 30 -49 47q-37 19 -92 18q-95 -3 -157 -96q-51 -78 -84 -235q-22 -101 -22 -168q0 -154 127 -151t164 43l36 171h-110l9 41h286l-8 -37h-41l-42 -196q-56 -20 -86.5 -30.5t-37.5 -12.5 q-66 -17 -180 -17q-110 0 -182 79t-72 200q0 41 9 82q35 161 153 263q113 97 245 98q114 1 186 -33q13 -6 56 -40zM206 -315v20q88 13 99 63q3 16 -16 16q-54 1 -54 44q0 31 21.5 52t53.5 21q56 0 52 -64v-8t-1 -9q-16 -124 -155 -135z" />
<glyph unicode="&#x123;" horiz-adv-x="500" d="M529 440l-10 -50l-88 4q11 -30 11 -54q0 -132 -148 -187q-67 -25 -67 -50q0 -17 23 -34l85 -60q78 -56 78 -112q0 -83 -86 -130q-71 -38 -163 -38q-77 0 -135 23q-79 33 -79 101q0 62 69 106q42 28 123 53q-26 20 -26 49q0 19 4 20l89 54l-2 2q-153 -2 -153 122 q0 69 32 112q27 36 87 64q69 34 117 34t90 -20q36 -4 73 -3l71 3zM334 342q0 83 -68 83q-62 0 -87 -61q-22 -51 -22 -104q0 -88 74 -88q55 0 82 61q21 46 21 109zM309 -142q0 39 -64 82l-82 55l-28 -13q-96 -45 -96 -114q0 -51 46 -79q37 -24 93 -24q48 0 86 21q45 25 45 72 zM369 706q-78 -13 -88 -58q-3 -14 14 -14q49 -1 49 -39q0 -28 -19.5 -46.5t-47.5 -18.5q-49 0 -49 51q0 9 3 21q26 122 138 121v-17z" />
<glyph unicode="&#x124;" horiz-adv-x="800" d="M851 690l-5 -31h-94l-134 -628h94l-7 -31h-328l7 31h94l66 315h-250l-67 -315h94l-7 -31h-333l6 31h94l134 628h-94l6 31h334l-6 -31h-94l-59 -278h250l59 278h-93l5 31h328zM667 740h-57l-92 98l-133 -98h-55l158 175h93z" />
<glyph unicode="&#x125;" horiz-adv-x="556" d="M529 79q-141 -96 -186 -96q-30 0 -30 43q0 39 43 192q30 108 30 130q0 33 -22 33q-25 0 -65 -36q-51 -48 -98 -137q-18 -35 -36 -99q-17 -67 -20 -105q-64 -1 -106 -17l-10 11q21 34 68 274q19 99 34.5 190.5t28.5 176.5q-25 -10 -85 -18l8 40q40 7 65.5 12t36.5 7 q29 7 52.5 14t43.5 15l10 -9q-3 -11 -7.5 -27t-9.5 -38l-85 -383l2 -2q30 49 90 114q41 45 93 74q52 31 94 31q40 0 40 -44q0 -25 -11 -67q-5 -17 -10 -35t-10 -35l-38 -144q-8 -32 -8 -66q0 -13 12 -13q13 0 61 30l16 10zM385 746h-57l-92 98l-133 -98h-55l158 175h93z" />
<glyph unicode="&#x126;" horiz-adv-x="850" d="M851 690l-5 -31h-94l-27 -128h106l-7 -34h-107l-99 -466h94l-7 -31h-328l7 31h94l66 315h-250l-67 -315h94l-7 -31h-333l6 31h94l99 466h-89l7 34h90l27 128h-94l6 31h334l-6 -31h-94l-27 -128h250l27 128h-93l5 31h328zM577 497h-250l-25 -116h250z" />
<glyph unicode="&#x127;" horiz-adv-x="556" d="M529 79q-141 -96 -186 -96q-30 0 -30 43q0 39 43 192q30 108 30 130q0 33 -22 33q-25 0 -65 -36q-51 -48 -98 -137q-18 -35 -36 -99q-17 -67 -20 -105q-64 -1 -106 -17l-10 11q21 34 68 274q18 94 34.5 189.5t30.5 194.5q-25 -10 -85 -18l8 40q40 7 65.5 12t36.5 7 q29 7 52.5 14t43.5 15l10 -9q-3 -11 -7.5 -27t-9.5 -38l-87 -400l2 -2q30 49 90 114q41 45 93 74q52 31 94 31q40 0 40 -44q0 -25 -11 -67q-5 -17 -10 -35t-10 -35l-38 -144q-8 -32 -8 -66q0 -13 12 -13q13 0 61 30l16 10zM81 568h305l-7 -35h-305z" />
<glyph unicode="&#x128;" horiz-adv-x="477" d="M471 690l-5 -31h-94l-134 -628h94l-7 -31h-330l7 31h93l134 628h-94l6 31h330zM494 865q-19 -96 -85 -115q-15 -4 -34 -4q-35 0 -90 21q-50 19 -67 16q-42 -8 -55 -41h-33q24 81 72 105q17 10 42 10q27 0 89 -20q56 -17 76 -15q33 4 50 43h35z" />
<glyph unicode="&#x129;" horiz-adv-x="333" d="M307 84l-95 -65q-60 -36 -101 -36q-30 0 -30 43q0 26 6 52l59 241q2 6 4 15t4 22q0 14 -11 14q-22 0 -68 -34l-22 -16l-13 26l63 47q101 76 150 76q25 0 25 -37q0 -34 -9 -67l-54 -196q-20 -75 -20 -91q0 -13 12 -13q13 0 61 30l27 17zM414 650q-19 -96 -85 -115 q-15 -4 -34 -4q-35 0 -90 21q-50 19 -67 16q-42 -8 -55 -41h-33q24 81 72 105q17 10 42 10q27 0 89 -20q56 -17 76 -15q33 4 50 43h35z" />
<glyph unicode="&#x12a;" horiz-adv-x="477" d="M471 690l-5 -31h-94l-134 -628h94l-7 -31h-330l7 31h93l134 628h-94l6 31h330zM465 737h-308l15 66h307z" />
<glyph unicode="&#x12b;" horiz-adv-x="333" d="M307 84l-95 -65q-60 -36 -101 -36q-30 0 -30 43q0 26 6 52l59 241q2 6 4 15t4 22q0 14 -11 14q-22 0 -68 -34l-22 -16l-13 26l63 47q101 76 150 76q25 0 25 -37q0 -34 -9 -67l-54 -196q-20 -75 -20 -91q0 -13 12 -13q13 0 61 30l27 17zM354 530h-308l15 66h307z" />
<glyph unicode="&#x12c;" horiz-adv-x="477" d="M471 690l-5 -31h-94l-134 -628h94l-7 -31h-330l7 31h93l134 628h-94l6 31h330zM474 893q-11 -78 -49 -112t-114 -33q-107 2 -107 94q0 26 7 53q3 3 17 5q13 1 19 -5q-1 -52 12 -68q15 -20 66 -18q35 2 56 15q28 18 57 72q7 4 21 3q13 -2 15 -6z" />
<glyph unicode="&#x12d;" horiz-adv-x="333" d="M307 84l-95 -65q-60 -36 -101 -36q-30 0 -30 43q0 26 6 52l59 241q2 6 4 15t4 22q0 14 -11 14q-22 0 -68 -34l-22 -16l-13 26l63 47q101 76 150 76q25 0 25 -37q0 -34 -9 -67l-54 -196q-20 -75 -20 -91q0 -13 12 -13q13 0 61 30l27 17zM384 677q-11 -78 -49 -112 t-114 -33q-107 2 -107 94q0 26 7 53q3 3 17 5q13 1 19 -5q-1 -52 12 -68q15 -20 66 -18q35 2 56 15q28 18 57 72q7 4 21 3q13 -2 15 -6z" />
<glyph unicode="&#x12e;" horiz-adv-x="477" d="M471 690l-5 -31h-94l-134 -628h94l-7 -31h-330l7 31h93l134 628h-94l6 31h330zM178 2q-68 -54 -68 -99q0 -12 8 -23q11 -14 40 -14q33 0 61 16l8 -19q-56 -51 -118 -51q-30 0 -51 12q-26 15 -26 43q0 16 8.5 34t24 36t38 35t50.5 30h25z" />
<glyph unicode="&#x12f;" horiz-adv-x="333" d="M326 639q0 -32 -18.5 -53.5t-49.5 -21.5q-55 0 -55 57q0 30 19 52t49 22q23 0 39 -16.5t16 -39.5zM119 -120q11 -14 40 -14q33 0 61 16l8 -19q-56 -51 -118 -51q-30 0 -51 12q-26 15 -26 43q0 60 87 116h-9q-30 0 -30 43q0 26 6 52l59 241q2 6 4 15t4 22q0 14 -11 14 q-22 0 -68 -34l-22 -16l-13 26l63 47q101 76 150 76q25 0 25 -37q0 -34 -9 -67l-54 -196q-20 -75 -20 -91q0 -13 12 -13q13 0 61 30l27 17l12 -28q-28 -19 -56 -37t-56 -37q-85 -63 -85 -105q0 -15 9 -25z" />
<glyph unicode="&#x130;" horiz-adv-x="477" d="M471 690l-5 -31h-94l-134 -628h94l-7 -31h-330l7 31h93l134 628h-94l6 31h330zM377 794q-10 -49 -56 -49q-38 0 -38 35q0 24 17 41.5t41 17.5q20 0 30 -13.5t6 -31.5z" />
<glyph unicode="&#x131;" horiz-adv-x="333" d="M307 84l-95 -65q-60 -36 -101 -36q-30 0 -30 43q0 26 6 52l59 241q2 6 4 15t4 22q0 14 -11 14q-22 0 -68 -34l-22 -16l-13 26l63 47q101 76 150 76q25 0 25 -37q0 -34 -9 -67l-54 -196q-20 -75 -20 -91q0 -13 12 -13q13 0 61 30l27 17z" />
<glyph unicode="&#x132;" horiz-adv-x="826" d="M471 690l-5 -31h-94l-134 -628h94l-7 -31h-330l7 31h93l134 628h-94l6 31h330zM815 690l-7 -31h-93l-107 -502q-17 -83 -33 -126q-31 -83 -79 -134q-40 -44 -99 -76q-61 -34 -112 -34q-13 0 -30 5l19 89l12 6q7 -6 13.5 -12t13.5 -11q16 -12 35 -12q57 0 85 130l144 677 h-93l7 31h324z" />
<glyph unicode="&#x133;" horiz-adv-x="333" d="M326 639q0 -32 -18.5 -53.5t-49.5 -21.5q-55 0 -55 57q0 30 19 52t49 22q23 0 39 -16.5t16 -39.5zM307 84l-95 -65q-60 -36 -101 -36q-30 0 -30 43q0 26 6 52l59 241q2 6 4 15t4 22q0 14 -11 14q-22 0 -68 -34l-22 -16l-13 26l63 47q101 76 150 76q25 0 25 -37 q0 -34 -9 -67l-54 -196q-20 -75 -20 -91q0 -13 12 -13q13 0 61 30l27 17zM627 639q0 -32 -18.5 -53.5t-49.5 -21.5q-55 0 -55 57q0 30 19 52t49 22q23 0 39 -16.5t16 -39.5zM578 432q0 -30 -9 -67l-67 -274q-20 -85 -41.5 -145t-43.5 -96q-73 -121 -142 -121q-13 0 -35 5 q4 17 6 37t4 42l14 3q19 -33 43 -33q30 0 47 78l86 408q14 68 14 87q0 14 -11 14q-22 0 -68 -34l-22 -16l-13 26l63 47q101 76 150 76q25 0 25 -37z" />
<glyph unicode="&#x134;" horiz-adv-x="390" d="M445 690l-7 -31h-93l-107 -502q-17 -83 -33 -126q-31 -83 -79 -134q-40 -44 -99 -76q-61 -34 -112 -34q-13 0 -30 5l19 89l12 6q7 -6 13.5 -12t13.5 -11q16 -12 35 -12q57 0 85 130l144 677h-93l7 31h324zM447 749h-57l-92 98l-133 -98h-55l158 175h93z" />
<glyph unicode="&#x135;" horiz-adv-x="333" d="M274 432q0 -30 -9 -67l-67 -274q-20 -85 -41.5 -145t-43.5 -96q-73 -121 -142 -121q-13 0 -35 5q4 17 6 37t4 42l14 3q19 -33 43 -33q30 0 47 78l86 408q14 68 14 87q0 14 -11 14q-22 0 -68 -34l-22 -16l-13 26l63 47q101 76 150 76q25 0 25 -37zM383 529h-57l-92 98 l-133 -98h-55l158 175h93z" />
<glyph unicode="&#x136;" horiz-adv-x="800" d="M862 690l-5 -31q-66 0 -91 -14q-39 -23 -98 -78q-16 -16 -49.5 -47t-84.5 -79l143 -354q5 -15 11 -30.5t22 -21.5q8 -4 77 -4l-7 -31h-341l7 31q61 0 73 17q5 8 5 18t-5 23l-90 257q-33 -29 -66 -57.5t-66 -57.5l-43 -200h94l-7 -31h-330l7 31h93l134 628h-94l6 31h330 l-5 -31h-94l-78 -365l326 293q30 27 30 45q0 8 -4 15q-7 15 -61 12l5 31h256zM298 -303v20q88 13 99 63q3 16 -16 16q-54 1 -54 44q0 31 21.5 52t53.5 21q56 0 52 -64v-8t-1 -9q-16 -124 -155 -135z" />
<glyph unicode="&#x137;" horiz-adv-x="556" d="M528 460l-20 -70q-29 8 -48 8q-85 0 -147 -80l65 -173q30 -80 59 -80q14 0 46 20l27 17l10 -29l-44 -31q-85 -59 -122 -59q-20 0 -36 27q-11 21 -30 70l-57 155l-31 -34q-15 -16 -23 -37q-4 -13 -15 -68q-7 -32 -10 -55t-3 -37q-27 0 -105 -18l-10 9q20 42 66 277 q23 115 38.5 205.5t25.5 157.5q-30 -10 -87 -13l8 40q69 10 118.5 21.5t80.5 24.5l10 -9q-2 -4 -6 -20t-11 -45l-92 -406l2 -2q12 17 30.5 38.5t43.5 49.5q140 155 220 155q24 0 47 -9zM118 -313v20q88 13 99 63q3 16 -16 16q-54 1 -54 44q0 31 21.5 52t53.5 21q56 0 52 -64 v-8t-1 -9q-16 -124 -155 -135z" />
<glyph unicode="&#x139;" horiz-adv-x="680" d="M683 240l-63 -240h-630l7 31h94l133 628h-94l7 31h326l-7 -31h-95l-132 -622l182 3q28 0 70 15t67 34q72 56 96 151h39zM483 930q16 -7 16 -23q0 -24 -26 -45l-145 -116h-39l107 156q25 36 54 36q9 0 33 -8z" />
<glyph unicode="&#x13a;" horiz-adv-x="333" d="M300 698q-3 -11 -7.5 -27t-9.5 -38l-103 -463q-13 -55 -13 -78q0 -27 13 -27q19 0 83 49l14 -27q-77 -56 -106 -73q-52 -31 -91 -31q-30 0 -30 55q0 34 16 108l102 486q-29 -8 -84 -12l8 40q70 12 102 18q28 6 52 13.5t44 15.5zM398 924q16 -7 16 -23q0 -24 -26 -45 l-145 -116h-39l107 156q25 36 54 36q9 0 33 -8z" />
<glyph unicode="&#x13b;" horiz-adv-x="680" d="M683 240l-63 -240h-630l7 31h94l133 628h-94l7 31h326l-7 -31h-95l-132 -622l182 3q28 0 70 15t67 34q72 56 96 151h39zM226 -309v20q88 13 99 63q3 16 -16 16q-54 1 -54 44q0 31 21.5 52t53.5 21q56 0 52 -64v-8t-1 -9q-16 -124 -155 -135z" />
<glyph unicode="&#x13c;" horiz-adv-x="333" d="M314 698q-3 -11 -7.5 -27t-9.5 -38l-103 -463q-13 -55 -13 -78q0 -27 13 -27q19 0 83 49l14 -27q-77 -56 -106 -73q-52 -31 -91 -31q-30 0 -30 55q0 34 16 108l102 486q-29 -8 -84 -12l8 40q70 12 102 18q28 6 52 13.5t44 15.5zM17 -309v20q88 13 99 63q3 16 -16 16 q-54 1 -54 44q0 31 21.5 52t53.5 21q56 0 52 -64v-8t-1 -9q-16 -124 -155 -135z" />
<glyph unicode="&#x13d;" horiz-adv-x="680" d="M683 240l-63 -240h-630l7 31h94l133 628h-94l7 31h326l-7 -31h-95l-132 -622l182 3q28 0 70 15t67 34q72 56 96 151h39zM716 615q-9 -43 -58 -90q-51 -48 -93 -64l-6 22q15 5 31.5 17t35.5 29q37 35 43 62q3 16 -12 16q5 0 -4 -1t-31 -3q-44 8 -44 39v1q0 32 22.5 53 t54.5 21q64 0 64 -76q0 -13 -3 -26z" />
<glyph unicode="&#x13e;" horiz-adv-x="333" d="M314 698q-3 -11 -7.5 -27t-9.5 -38l-103 -463q-13 -55 -13 -78q0 -27 13 -27q19 0 83 49l14 -27q-77 -56 -106 -73q-52 -31 -91 -31q-30 0 -30 55q0 34 16 108l102 486q-29 -8 -84 -12l8 40q70 12 102 18q28 6 52 13.5t44 15.5zM536 619q-9 -43 -58 -90q-51 -48 -93 -64 l-6 22q15 5 31.5 17t35.5 29q37 35 43 62q3 16 -12 16q5 0 -4 -1t-31 -3q-44 8 -44 39v1q0 32 22.5 53t54.5 21q64 0 64 -76q0 -13 -3 -26z" />
<glyph unicode="&#x13f;" horiz-adv-x="680" d="M683 240l-63 -240h-630l7 31h94l133 628h-94l7 31h326l-7 -31h-95l-132 -622l182 3q28 0 70 15t67 34q72 56 96 151h39zM534 316q-23 0 -39 16t-16 39t16 39t39 16t39 -16t16 -39t-16 -39t-39 -16z" />
<glyph unicode="&#x140;" horiz-adv-x="333" d="M314 698q-3 -11 -7.5 -27t-9.5 -38l-103 -463q-13 -55 -13 -78q0 -27 13 -27q19 0 83 49l14 -27q-77 -56 -106 -73q-52 -31 -91 -31q-30 0 -30 55q0 34 16 108l102 486q-29 -8 -84 -12l8 40q70 12 102 18q28 6 52 13.5t44 15.5zM352 359q-10 -49 -56 -49q-38 0 -38 35 q0 24 17 41.5t41 17.5q20 0 30 -13.5t6 -31.5z" />
<glyph unicode="&#x141;" horiz-adv-x="686" d="M426 505q5 -8 9 -15t8 -15q-78 -48 -172 -104t-206 -122q0 -3 -10 11q-9 17 -8 18zM683 240l-63 -240h-630l7 31h94l133 628h-94l7 31h326l-7 -31h-95l-132 -622l182 3q28 0 70 15t67 34q72 56 96 151h39z" />
<glyph unicode="&#x142;" horiz-adv-x="333" d="M352 474l-298 -176l-17 30l295 175zM318 717q-3 -11 -7.5 -27t-9.5 -38l-107 -482q-12 -54 -12 -92q0 -13 12 -13q18 0 53 26l30 23l14 -27q-77 -56 -106 -73q-52 -31 -91 -31q-30 0 -30 43q0 46 16 120l106 505q-29 -8 -84 -12l8 40q70 12 102 18q28 6 52 13.5t44 15.5z " />
<glyph unicode="&#x143;" horiz-adv-x="735" d="M824 690l-5 -31q-60 0 -71 -10q-31 -25 -42 -76l-125 -589h-25l-286 653l-110 -519q-10 -52 10 -77q6 -10 66 -10l-7 -31h-225l7 31q55 0 67 9q34 25 45 78l109 519q4 22 -24 22h-56l6 31h248l193 -457l70 340q11 54 -11 77q-9 9 -64 9l5 31h225zM678 926q16 -7 16 -23 q0 -24 -26 -45l-145 -116h-39l107 156q25 36 54 36q9 0 33 -8z" />
<glyph unicode="&#x144;" horiz-adv-x="556" d="M535 80q-22 -16 -44 -31.5t-44 -31.5q-55 -34 -92 -34q-36 0 -36 43q0 39 43 192q30 108 30 130t-21 22q-32 0 -90 -67q-72 -81 -98 -185q-20 -81 -24 -114q-64 -1 -106 -17l-10 11q17 51 32 101t26 101q27 118 27 151q0 19 -10 19q-16 0 -42 -17l-32 -22l-13 27l84 62 q65 49 100 49q29 0 29 -30q0 -37 -34 -157l-15 -54h2q37 72 99 134q49 47 92 74q54 33 86 33q40 0 40 -44q0 -21 -16 -81l-48 -184q-13 -48 -13 -80q0 -15 10 -15q15 0 46 22l29 20zM514 715q16 -7 16 -23q0 -24 -26 -45l-145 -116h-39l107 156q25 36 54 36q9 0 33 -8z" />
<glyph unicode="&#x145;" horiz-adv-x="735" d="M824 690l-5 -31q-60 0 -71 -10q-31 -25 -42 -76l-125 -589h-25l-286 653l-110 -519q-10 -52 10 -77q6 -10 66 -10l-7 -31h-225l7 31q55 0 67 9q34 25 45 78l109 519q4 22 -24 22h-56l6 31h248l193 -457l70 340q11 54 -11 77q-9 9 -64 9l5 31h225zM252 -310v20 q88 13 99 63q3 16 -16 16q-54 1 -54 44q0 31 21.5 52t53.5 21q56 0 52 -64v-8t-1 -9q-16 -124 -155 -135z" />
<glyph unicode="&#x146;" horiz-adv-x="556" d="M535 80q-22 -16 -44 -31.5t-44 -31.5q-55 -34 -92 -34q-36 0 -36 43q0 39 43 192q30 108 30 130t-21 22q-32 0 -90 -67q-72 -81 -98 -185q-20 -81 -24 -114q-64 -1 -106 -17l-10 11q17 51 32 101t26 101q27 118 27 151q0 19 -10 19q-16 0 -42 -17l-32 -22l-13 27l84 62 q65 49 100 49q29 0 29 -30q0 -37 -34 -157l-15 -54h2q37 72 99 134q49 47 92 74q54 33 86 33q40 0 40 -44q0 -21 -16 -81l-48 -184q-13 -48 -13 -80q0 -15 10 -15q15 0 46 22l29 20zM126 -302v20q88 13 99 63q3 16 -16 16q-54 1 -54 44q0 31 21.5 52t53.5 21q56 0 52 -64v-8 t-1 -9q-16 -124 -155 -135z" />
<glyph unicode="&#x147;" horiz-adv-x="735" d="M824 690l-5 -31q-60 0 -71 -10q-31 -25 -42 -76l-125 -589h-25l-286 653l-110 -519q-10 -52 10 -77q6 -10 66 -10l-7 -31h-225l7 31q55 0 67 9q34 25 45 78l109 519q4 22 -24 22h-56l6 31h248l193 -457l70 340q11 54 -11 77q-9 9 -64 9l5 31h225zM366 921h47l102 -111 l123 111h65l-158 -175h-93z" />
<glyph unicode="&#x148;" horiz-adv-x="556" d="M535 80q-22 -16 -44 -31.5t-44 -31.5q-55 -34 -92 -34q-36 0 -36 43q0 39 43 192q30 108 30 130t-21 22q-32 0 -90 -67q-72 -81 -98 -185q-20 -81 -24 -114q-64 -1 -106 -17l-10 11q17 51 32 101t26 101q27 118 27 151q0 19 -10 19q-16 0 -42 -17l-32 -22l-13 27l84 62 q65 49 100 49q29 0 29 -30q0 -37 -34 -157l-15 -54h2q37 72 99 134q49 47 92 74q54 33 86 33q40 0 40 -44q0 -21 -16 -81l-48 -184q-13 -48 -13 -80q0 -15 10 -15q15 0 46 22l29 20zM206 704h47l102 -111l123 111h65l-158 -175h-93z" />
<glyph unicode="&#x149;" horiz-adv-x="556" d="M535 80q-22 -16 -44 -31.5t-44 -31.5q-55 -34 -92 -34q-36 0 -36 43q0 39 43 192q30 108 30 130t-21 22q-32 0 -90 -67q-72 -81 -98 -185q-20 -81 -24 -114q-64 -1 -106 -17l-10 11q17 51 32 101t26 101q27 118 27 151q0 19 -10 19q-16 0 -42 -17l-32 -22l-13 27l84 62 q65 49 100 49q29 0 29 -30q0 -37 -34 -157l-15 -54h2q37 72 99 134q49 47 92 74q54 33 86 33q40 0 40 -44q0 -21 -16 -81l-48 -184q-13 -48 -13 -80q0 -15 10 -15q15 0 46 22l29 20zM193 615q-9 -43 -58 -90q-51 -48 -93 -64l-6 22q15 5 31.5 17t35.5 29q37 35 43 62 q3 16 -12 16q5 0 -4 -1t-31 -3q-44 8 -44 39v1q0 32 22.5 53t54.5 21q64 0 64 -76q0 -13 -3 -26z" />
<glyph unicode="&#x14a;" horiz-adv-x="821" d="M824 690l-5 -31q-60 0 -71 -10q-31 -25 -42 -76l-125 -589q-4 -19 -7.5 -35t-7.5 -30q-19 -68 -43 -92q-46 -43 -97 -43q-33 0 -61 20l53 73q40 -18 56 -18q18 0 30 12q18 16 30 62l14 67l-278 637l-110 -519q-11 -50 10 -77q7 -10 66 -10l-7 -31h-225l7 31q55 0 67 9 q34 25 45 78l109 519q4 22 -24 22h-56l6 31h248l193 -457l70 340q11 54 -11 77q-9 9 -64 9l5 31h225z" />
<glyph unicode="&#x14b;" horiz-adv-x="528" d="M514 425q0 -21 -16 -81l-48 -184q-22 -75 -36.5 -125t-22.5 -75q-23 -74 -45 -110q-73 -121 -142 -121q-13 0 -35 5q4 17 6 37t4 42l14 3q19 -33 43 -33q30 0 47 78l79 357q30 108 30 130t-21 22q-32 0 -90 -67q-72 -81 -98 -185q-20 -81 -24 -114q-64 -1 -106 -17 l-10 11q17 51 32 101t26 101q27 118 27 151q0 19 -10 19q-16 0 -42 -17l-32 -22l-13 27l84 62q65 49 100 49q29 0 29 -30q0 -37 -34 -157l-15 -54h2q37 72 99 134q49 47 92 74q54 33 86 33q40 0 40 -44z" />
<glyph unicode="&#x14c;" horiz-adv-x="750" d="M699 339q-32 -149 -144 -252t-244 -103q-110 0 -182 79t-72 200q0 40 9 82q35 161 153 263q113 98 245 98q58 0 104.5 -18t78 -51.5t48.5 -81.5t17 -108q0 -53 -13 -108zM551 336q25 115 25 186q0 150 -119 150q-176 0 -246 -331q-10 -49 -15 -89t-5 -72q0 -158 130 -158 q91 0 150 89q49 75 80 225zM603 742h-308l15 66h307z" />
<glyph unicode="&#x14d;" d="M502 308q0 -57 -23 -126q-22 -67 -60 -103q-101 -96 -218 -96q-82 0 -117.5 39.5t-35.5 121.5q0 56 24 127q22 67 60 102q102 96 218 96q152 0 152 -161zM388 332q0 38 -22 65.5t-58 27.5q-76 0 -116 -114q-30 -86 -30 -191q0 -39 21 -64q23 -29 59 -29q76 0 116 115 q30 85 30 190zM465 526h-308l15 66h307z" />
<glyph unicode="&#x14e;" horiz-adv-x="750" d="M699 339q-32 -149 -144 -252t-244 -103q-110 0 -182 79t-72 200q0 40 9 82q35 161 153 263q113 98 245 98q58 0 104.5 -18t78 -51.5t48.5 -81.5t17 -108q0 -53 -13 -108zM551 336q25 115 25 186q0 150 -119 150q-176 0 -246 -331q-10 -49 -15 -89t-5 -72q0 -158 130 -158 q91 0 150 89q49 75 80 225zM622 890q-11 -78 -49 -112t-114 -33q-107 2 -107 94q0 26 7 53q3 3 17 5q13 1 19 -5q-1 -52 12 -68q15 -20 66 -18q35 2 56 15q28 18 57 72q7 4 21 3q13 -2 15 -6z" />
<glyph unicode="&#x14f;" d="M502 308q0 -57 -23 -126q-22 -67 -60 -103q-101 -96 -218 -96q-82 0 -117.5 39.5t-35.5 121.5q0 56 24 127q22 67 60 102q102 96 218 96q152 0 152 -161zM388 332q0 38 -22 65.5t-58 27.5q-76 0 -116 -114q-30 -86 -30 -191q0 -39 21 -64q23 -29 59 -29q76 0 116 115 q30 85 30 190zM513 676q-11 -78 -49 -112t-114 -33q-107 2 -107 94q0 26 7 53q3 3 17 5q13 1 19 -5q-1 -52 12 -68q15 -20 66 -18q35 2 56 15q28 18 57 72q7 4 21 3q13 -2 15 -6z" />
<glyph unicode="&#x150;" horiz-adv-x="750" d="M699 339q-32 -149 -144 -252t-244 -103q-110 0 -182 79t-72 200q0 40 9 82q35 161 153 263q113 98 245 98q58 0 104.5 -18t78 -51.5t48.5 -81.5t17 -108q0 -53 -13 -108zM551 336q25 115 25 186q0 150 -119 150q-176 0 -246 -331q-10 -49 -15 -89t-5 -72q0 -158 130 -158 q91 0 150 89q49 75 80 225zM690 935q0 -18 -12 -34l-124 -159l-27 7l94 202q9 19 36 19q33 0 33 -35zM543 935q0 -18 -13 -34l-124 -156l-27 4l94 202q9 19 37 19q33 0 33 -35z" />
<glyph unicode="&#x151;" d="M502 308q0 -57 -23 -126q-22 -67 -60 -103q-101 -96 -218 -96q-82 0 -117.5 39.5t-35.5 121.5q0 56 24 127q22 67 60 102q102 96 218 96q152 0 152 -161zM388 332q0 38 -22 65.5t-58 27.5q-76 0 -116 -114q-30 -86 -30 -191q0 -39 21 -64q23 -29 59 -29q76 0 116 115 q30 85 30 190zM526 718q0 -18 -12 -34l-124 -159l-27 7l94 202q9 19 36 19q33 0 33 -35zM379 718q0 -18 -13 -34l-124 -156l-27 4l94 202q9 19 37 19q33 0 33 -35z" />
<glyph unicode="&#x152;" horiz-adv-x="1019" d="M1103 690l-41 -203h-42q7 81 -23 121t-126 42l-159 3l-60 -283h117q44 0 68 25q30 33 44 92h37l-60 -278h-37q13 57 -5 89.5t-56 32.5h-117l-62 -294l182 3q28 0 70 15t67 34q72 56 96 151h39l-63 -240l-452 -1q-16 0 -43.5 -1.5t-67.5 -5.5q-42 -4 -67 -5.5t-35 -2.5 q-111 -3 -185 78q-74 82 -74 203q0 41 9 82q36 161 152 262q112 97 256 103q40 2 105 -10q73 -12 99 -12h434zM557 597q-7 19 -20 37q-30 38 -79 39q-101 5 -164 -90q-26 -38 -47.5 -97t-38.5 -139q-24 -111 -24 -175q0 -149 132 -149q77 0 134 72z" />
<glyph unicode="&#x153;" horiz-adv-x="778" d="M755 388q0 -148 -272 -193q-6 -24 -6 -63q0 -85 79 -85q45 0 98 33l58 37l13 -28q-151 -106 -235 -106q-34 0 -65 15q-36 19 -49 46q-97 -61 -171 -61q-84 0 -120.5 39.5t-36.5 121.5q0 38 12 94q13 57 32 90q37 65 127 109q67 32 121 32q111 0 147 -71q100 71 166 71 q45 0 71 -19q31 -21 31 -62zM661 378q0 18 -14 30.5t-32 12.5q-76 0 -113 -141l-15 -57l55 13q39 9 74 42q45 43 45 100zM388 310q0 115 -85 115q-50 0 -77 -40q-17 -23 -36 -83q-28 -84 -28 -164q0 -47 20 -76q23 -35 67 -35q74 0 112 113q27 81 27 170z" />
<glyph unicode="&#x154;" horiz-adv-x="754" d="M720 512q-17 -76 -91 -128q-64 -46 -130 -52l145 -278q10 -19 50 -24l-6 -30q-9 0 -54 3q-39 3 -51 3q-33 0 -81 -6q-5 8 -38.5 78.5t-96.5 204.5q-4 7 -11.5 18t-19.5 27h-22l-63 -297h93l-7 -31h-324l7 31h93l133 628h-93l7 31h350q106 0 162 -39q52 -36 52 -101 q0 -9 -1 -18.5t-3 -19.5zM590 514q2 13 3.5 24t1.5 22q0 99 -104 99h-107l-64 -303h86q65 0 118 44q52 43 66 114zM595 928q16 -7 16 -23q0 -24 -26 -45l-145 -116h-39l107 156q25 36 54 36q9 0 33 -8z" />
<glyph unicode="&#x155;" horiz-adv-x="400" d="M397 463q-10 -43 -15 -77t-5 -60l-12 -6q-26 19 -50 19q-40 0 -70 -41q-7 -10 -17 -28.5t-24 -46.5q-32 -69 -55 -221q-77 -8 -108 -19l-11 12q20 60 27 92l24 107q26 118 26 157q0 19 -12 19q-13 0 -42 -20l-34 -24l-13 26l81 64q68 53 108 53q25 0 25 -30 q0 -8 -7.5 -45t-23.5 -104l-12 -52l7 4q68 137 90 167q43 60 98 60q13 0 25 -6zM460 717q16 -7 16 -23q0 -24 -26 -45l-145 -116h-39l107 156q25 36 54 36q9 0 33 -8z" />
<glyph unicode="&#x156;" horiz-adv-x="747" d="M720 512q-17 -76 -91 -128q-64 -46 -130 -52l145 -278q10 -19 50 -24l-6 -30q-9 0 -54 3q-39 3 -51 3q-33 0 -81 -6q-5 8 -38.5 78.5t-96.5 204.5q-4 7 -11.5 18t-19.5 27h-22l-63 -297h93l-7 -31h-324l7 31h93l133 628h-93l7 31h350q106 0 162 -39q52 -36 52 -101 q0 -9 -1 -18.5t-3 -19.5zM590 514q2 13 3.5 24t1.5 22q0 99 -104 99h-107l-64 -303h86q65 0 118 44q52 43 66 114zM311 -306v20q88 13 99 63q3 16 -16 16q-54 1 -54 44q0 31 21.5 52t53.5 21q56 0 52 -64v-8t-1 -9q-16 -124 -155 -135z" />
<glyph unicode="&#x157;" horiz-adv-x="400" d="M397 463q-10 -43 -15 -77t-5 -60l-12 -6q-26 19 -50 19q-40 0 -70 -41q-7 -10 -17 -28.5t-24 -46.5q-32 -69 -55 -221q-77 -8 -108 -19l-11 12q20 60 27 92l24 107q26 118 26 157q0 19 -12 19q-13 0 -42 -20l-34 -24l-13 26l81 64q68 53 108 53q25 0 25 -30 q0 -8 -7.5 -45t-23.5 -104l-12 -52l7 4q68 137 90 167q43 60 98 60q13 0 25 -6zM-1 -295v20q88 13 99 63q3 16 -16 16q-54 1 -54 44q0 31 21.5 52t53.5 21q56 0 52 -64v-8t-1 -9q-16 -124 -155 -135z" />
<glyph unicode="&#x158;" horiz-adv-x="754" d="M720 512q-17 -76 -91 -128q-64 -46 -130 -52l145 -278q10 -19 50 -24l-6 -30q-9 0 -54 3q-39 3 -51 3q-33 0 -81 -6q-5 8 -38.5 78.5t-96.5 204.5q-4 7 -11.5 18t-19.5 27h-22l-63 -297h93l-7 -31h-324l7 31h93l133 628h-93l7 31h350q106 0 162 -39q52 -36 52 -101 q0 -9 -1 -18.5t-3 -19.5zM590 514q2 13 3.5 24t1.5 22q0 99 -104 99h-107l-64 -303h86q65 0 118 44q52 43 66 114zM316 921h47l102 -111l123 111h65l-158 -175h-93z" />
<glyph unicode="&#x159;" horiz-adv-x="400" d="M397 463q-10 -43 -15 -77t-5 -60l-12 -6q-26 19 -50 19q-40 0 -70 -41q-7 -10 -17 -28.5t-24 -46.5q-32 -69 -55 -221q-77 -8 -108 -19l-11 12q20 60 27 92l24 107q26 118 26 157q0 19 -12 19q-13 0 -42 -20l-34 -24l-13 26l81 64q68 53 108 53q25 0 25 -30 q0 -8 -7.5 -45t-23.5 -104l-12 -52l7 4q68 137 90 167q43 60 98 60q13 0 25 -6zM147 707h47l102 -111l123 111h65l-158 -175h-93z" />
<glyph unicode="&#x15a;" d="M517 653q-22 -75 -22 -147h-30v85q-53 50 -140 50q-52 0 -89 -31q-40 -31 -40 -79q0 -54 40 -85q13 -10 34.5 -21t53.5 -22q90 -35 118 -55q53 -41 53 -115q0 -48 -27 -100q-23 -43 -50 -67q-87 -81 -206 -81q-106 0 -162 40l21 166h27v-76q35 -74 153 -74q73 0 109 38 q29 32 29 80q0 53 -29 79q-20 17 -94 44q-81 30 -114 56q-48 40 -48 116q0 101 78 170q83 73 185 73q83 0 150 -44zM507 926q16 -7 16 -23q0 -24 -26 -45l-145 -116h-39l107 156q25 36 54 36q9 0 33 -8z" />
<glyph unicode="&#x15b;" horiz-adv-x="444" d="M420 438q-8 -53 -12.5 -82t-4.5 -34h-30l-6 48q-52 44 -109 44q-83 0 -83 -76q0 -44 76 -60l59 -13q43 -9 68 -34q30 -29 30 -68q0 -36 -17 -64q-14 -21 -46 -48q-82 -68 -171 -68q-48 0 -135 27q16 79 21 131h30v-47q20 -24 55 -40q36 -16 69 -16q94 0 94 73 q0 52 -68 66l-44 9q-114 22 -114 111q0 64 63 108q37 25 62.5 39.5t41.5 18.5q25 6 47 6q72 0 124 -31zM410 720q16 -7 16 -23q0 -24 -26 -45l-145 -116h-39l107 156q25 36 54 36q9 0 33 -8z" />
<glyph unicode="&#x15c;" d="M517 653q-22 -75 -22 -147h-30v85q-53 50 -140 50q-52 0 -89 -31q-40 -31 -40 -79q0 -54 40 -85q13 -10 34.5 -21t53.5 -22q90 -35 118 -55q53 -41 53 -115q0 -48 -27 -100q-23 -43 -50 -67q-87 -81 -206 -81q-106 0 -162 40l21 166h27v-76q35 -74 153 -74q73 0 109 38 q29 32 29 80q0 53 -29 79q-20 17 -94 44q-81 30 -114 56q-48 40 -48 116q0 101 78 170q83 73 185 73q83 0 150 -44zM540 740h-57l-92 98l-133 -98h-55l158 175h93z" />
<glyph unicode="&#x15d;" horiz-adv-x="444" d="M420 438q-8 -53 -12.5 -82t-4.5 -34h-30l-6 48q-52 44 -109 44q-83 0 -83 -76q0 -44 76 -60l59 -13q43 -9 68 -34q30 -29 30 -68q0 -36 -17 -64q-14 -21 -46 -48q-82 -68 -171 -68q-48 0 -135 27q16 79 21 131h30v-47q20 -24 55 -40q36 -16 69 -16q94 0 94 73 q0 52 -68 66l-44 9q-114 22 -114 111q0 64 63 108q37 25 62.5 39.5t41.5 18.5q25 6 47 6q72 0 124 -31zM453 531h-57l-92 98l-133 -98h-55l158 175h93z" />
<glyph unicode="&#x15e;" d="M517 653q-22 -75 -22 -147h-30v85q-53 50 -140 50q-52 0 -89 -31q-40 -31 -40 -79q0 -54 40 -85q13 -10 34.5 -21t53.5 -22q90 -35 118 -55q53 -41 53 -115q0 -48 -27 -100q-23 -43 -50 -67q-87 -81 -206 -81q-106 0 -162 40l21 166h27v-76q35 -74 153 -74q73 0 109 38 q29 32 29 80q0 53 -29 79q-20 17 -94 44q-81 30 -114 56q-48 40 -48 116q0 101 78 170q83 73 185 73q83 0 150 -44zM323 -140q-11 -47 -64 -69q-39 -16 -93 -16q-42 0 -84 18l24 37q37 -9 64 -9q52 0 59 37q1 3 1 10q0 25 -35 25q-7 0 -15.5 -1t-18.5 -3l-8 8l64 96h41 l-42 -64q27 6 44 6q66 0 66 -54q0 -11 -3 -21z" />
<glyph unicode="&#x15f;" horiz-adv-x="444" d="M420 438q-8 -53 -12.5 -82t-4.5 -34h-30l-6 48q-52 44 -109 44q-83 0 -83 -76q0 -44 76 -60l59 -13q43 -9 68 -34q30 -29 30 -68q0 -36 -17 -64q-14 -21 -46 -48q-82 -68 -171 -68q-48 0 -135 27q16 79 21 131h30v-47q20 -24 55 -40q36 -16 69 -16q94 0 94 73 q0 52 -68 66l-44 9q-114 22 -114 111q0 64 63 108q37 25 62.5 39.5t41.5 18.5q25 6 47 6q72 0 124 -31zM300 -140q-11 -47 -64 -69q-39 -16 -93 -16q-42 0 -84 18l24 37q37 -9 63 -9q53 0 60 37q1 3 1 10q0 25 -35 25q-7 0 -15.5 -1t-18.5 -3l-8 8l64 96h41l-42 -64 q27 6 44 6q66 0 66 -54q0 -11 -3 -21z" />
<glyph unicode="&#x160;" d="M517 653q-22 -75 -22 -147h-30v85q-53 50 -140 50q-52 0 -89 -31q-40 -31 -40 -79q0 -54 40 -85q13 -10 34.5 -21t53.5 -22q90 -35 118 -55q53 -41 53 -115q0 -48 -27 -100q-23 -43 -50 -67q-87 -81 -206 -81q-106 0 -162 40l21 166h27v-76q35 -74 153 -74q73 0 109 38 q29 32 29 80q0 53 -29 79q-20 17 -94 44q-81 30 -114 56q-48 40 -48 116q0 101 78 170q83 73 185 73q83 0 150 -44zM226 921h47l102 -111l123 111h65l-158 -175h-93z" />
<glyph unicode="&#x161;" horiz-adv-x="444" d="M420 438q-8 -53 -12.5 -82t-4.5 -34h-30l-6 48q-52 44 -109 44q-83 0 -83 -76q0 -44 76 -60l59 -13q43 -9 68 -34q30 -29 30 -68q0 -36 -17 -64q-14 -21 -46 -48q-82 -68 -171 -68q-48 0 -135 27q16 79 21 131h30v-47q20 -24 55 -40q36 -16 69 -16q94 0 94 73 q0 52 -68 66l-44 9q-114 22 -114 111q0 64 63 108q37 25 62.5 39.5t41.5 18.5q25 6 47 6q72 0 124 -31zM158 707h47l102 -111l123 111h65l-158 -175h-93z" />
<glyph unicode="&#x162;" horiz-adv-x="720" d="M708 690l-40 -203h-42q3 24 3 39q0 50 -25 82q-25 34 -123 43l-32 3l-133 -623h94l-7 -31h-332l7 31h93l133 623l-34 -3q-101 -9 -141 -43q-50 -44 -72 -121h-42l44 203h649zM127 -316v20q88 13 99 63q3 16 -16 16q-54 1 -54 44q0 31 21.5 52t53.5 21q56 0 52 -64v-8 t-1 -9q-16 -124 -155 -135z" />
<glyph unicode="&#x163;" horiz-adv-x="393" d="M374 452l-14 -56q-18 2 -41 3.5t-51 1.5h-47l-51 -237q-9 -42 -9 -71t21 -29q28 0 57 21l56 40l13 -26l-77 -57q-80 -59 -129 -59q-58 0 -58 64q0 7 2.5 22.5t7.5 38.5l62 293h-109l7 27l115 32q8 45 12 75.5t4 46.5v16q15 2 29 5.5t28 8.5l66 24l10 -12q-5 -20 -13 -49 t-18 -67l-13 -56l134 5zM-7 -302v20q88 13 99 63q3 16 -16 16q-54 1 -54 44q0 31 21.5 52t53.5 21q56 0 52 -64v-8t-1 -9q-16 -124 -155 -135z" />
<glyph unicode="&#x164;" horiz-adv-x="720" d="M708 690l-40 -203h-42q3 24 3 39q0 50 -25 82q-25 34 -123 43l-32 3l-133 -623h94l-7 -31h-332l7 31h93l133 623l-34 -3q-101 -9 -141 -43q-50 -44 -72 -121h-42l44 203h649zM266 921h47l102 -111l123 111h65l-158 -175h-93z" />
<glyph unicode="&#x165;" horiz-adv-x="393" d="M384 452l-14 -56q-18 2 -41 3.5t-51 1.5h-47l-51 -237q-9 -42 -9 -71t21 -29q28 0 57 21l56 40l13 -26l-77 -57q-80 -59 -129 -59q-58 0 -58 64q0 7 2.5 22.5t7.5 38.5l62 293h-109l7 27l115 32q8 45 12 75.5t4 46.5v16q15 2 29 5.5t28 8.5l66 24l10 -12q-5 -20 -13 -49 t-18 -67l-13 -56l134 5zM598 620q-9 -43 -58 -90q-51 -48 -93 -64l-6 22q15 5 31.5 17t35.5 29q37 35 43 62q3 16 -12 16q5 0 -4 -1t-31 -3q-44 8 -44 39v1q0 32 22.5 53t54.5 21q64 0 64 -76q0 -13 -3 -26z" />
<glyph unicode="&#x166;" horiz-adv-x="720" d="M708 690l-40 -203h-42q3 24 3 39q0 50 -25 82q-25 34 -123 43l-32 3l-41 -190h170l-9 -44h-170l-83 -389h94l-7 -31h-332l7 31h93l83 389h-167l9 44h167l41 190l-34 -3q-101 -9 -141 -43q-50 -44 -72 -121h-42l44 203h649z" />
<glyph unicode="&#x167;" horiz-adv-x="393" d="M374 452l-14 -56q-18 2 -41 3.5t-51 1.5h-47l-16 -73l142 2l-13 -61l-141 2l-23 -107q-9 -42 -9 -71t21 -29q28 0 57 21l56 40l13 -26l-77 -57q-80 -59 -129 -59q-58 0 -58 64q0 7 2.5 22.5t7.5 38.5l35 165l-85 1l7 27l91 31l14 69h-109l7 27l115 32q8 45 12 75.5 t4 46.5v16q15 2 29 5.5t28 8.5l66 24l10 -12q-5 -20 -13 -49t-18 -67l-13 -56l134 5z" />
<glyph unicode="&#x168;" horiz-adv-x="755" d="M824 690l-7 -31q-60 0 -71 -10q-30 -24 -41 -77l-64 -297q-33 -156 -109 -223q-75 -66 -218 -68q-111 -1 -182 56q-70 58 -70 142q0 10 1 20t3 20l93 437h-93l7 31h324l-7 -31h-93l-88 -414q-9 -45 -9 -80q0 -139 153 -139q194 0 244 236l66 310q4 16 4 33q0 30 -15 45 q-9 9 -65 9l7 31h230zM671 860q-19 -96 -85 -115q-15 -4 -34 -4q-35 0 -90 21q-50 19 -67 16q-42 -8 -55 -41h-33q24 81 72 105q17 10 42 10q27 0 89 -20q56 -17 76 -15q33 4 50 43h35z" />
<glyph unicode="&#x169;" d="M528 88q-135 -105 -173 -105q-36 0 -36 43q0 24 16 81l30 108l-2 2q-50 -85 -114 -149q-82 -85 -146 -85q-21 0 -33 19q-10 14 -10 35q0 24 19 99q8 31 15.5 61t15.5 61q18 72 18 97q0 15 -16 15q-18 0 -34 -10l-36 -21l-13 26l79 54q74 50 116 50q27 0 27 -35 q0 -31 -29 -147l-35 -137q-10 -37 -10 -67q0 -12 18 -12q37 0 109 101q64 90 90 200q10 41 10 75q48 -2 110 18l9 -11q-20 -64 -39 -132.5t-37 -141.5q-20 -82 -20 -93q0 -13 14 -13q24 0 55 25l22 17zM555 651q-19 -96 -85 -115q-15 -4 -34 -4q-35 0 -90 21q-50 19 -67 16 q-42 -8 -55 -41h-33q24 81 72 105q17 10 42 10q27 0 89 -20q56 -17 76 -15q33 4 50 43h35z" />
<glyph unicode="&#x16a;" horiz-adv-x="755" d="M824 690l-7 -31q-60 0 -71 -10q-30 -24 -41 -77l-64 -297q-33 -156 -109 -223q-75 -66 -218 -68q-111 -1 -182 56q-70 58 -70 142q0 10 1 20t3 20l93 437h-93l7 31h324l-7 -31h-93l-88 -414q-9 -45 -9 -80q0 -139 153 -139q194 0 244 236l66 310q4 16 4 33q0 30 -15 45 q-9 9 -65 9l7 31h230zM664 743h-308l15 66h307z" />
<glyph unicode="&#x16b;" d="M528 88q-135 -105 -173 -105q-36 0 -36 43q0 24 16 81l30 108l-2 2q-50 -85 -114 -149q-82 -85 -146 -85q-21 0 -33 19q-10 14 -10 35q0 24 19 99q8 31 15.5 61t15.5 61q18 72 18 97q0 15 -16 15q-18 0 -34 -10l-36 -21l-13 26l79 54q74 50 116 50q27 0 27 -35 q0 -31 -29 -147l-35 -137q-10 -37 -10 -67q0 -12 18 -12q37 0 109 101q64 90 90 200q10 41 10 75q48 -2 110 18l9 -11q-20 -64 -39 -132.5t-37 -141.5q-20 -82 -20 -93q0 -13 14 -13q24 0 55 25l22 17zM483 532h-308l15 66h307z" />
<glyph unicode="&#x16c;" horiz-adv-x="755" d="M824 690l-7 -31q-60 0 -71 -10q-30 -24 -41 -77l-64 -297q-33 -156 -109 -223q-75 -66 -218 -68q-111 -1 -182 56q-70 58 -70 142q0 10 1 20t3 20l93 437h-93l7 31h324l-7 -31h-93l-88 -414q-9 -45 -9 -80q0 -139 153 -139q194 0 244 236l66 310q4 16 4 33q0 30 -15 45 q-9 9 -65 9l7 31h230zM667 889q-11 -78 -49 -112t-114 -33q-107 2 -107 94q0 26 7 53q3 3 17 5q13 1 19 -5q-1 -52 12 -68q15 -20 66 -18q35 2 56 15q28 18 57 72q7 4 21 3q13 -2 15 -6z" />
<glyph unicode="&#x16d;" d="M528 88q-135 -105 -173 -105q-36 0 -36 43q0 24 16 81l30 108l-2 2q-50 -85 -114 -149q-82 -85 -146 -85q-21 0 -33 19q-10 14 -10 35q0 24 19 99q8 31 15.5 61t15.5 61q18 72 18 97q0 15 -16 15q-18 0 -34 -10l-36 -21l-13 26l79 54q74 50 116 50q27 0 27 -35 q0 -31 -29 -147l-35 -137q-10 -37 -10 -67q0 -12 18 -12q37 0 109 101q64 90 90 200q10 41 10 75q48 -2 110 18l9 -11q-20 -64 -39 -132.5t-37 -141.5q-20 -82 -20 -93q0 -13 14 -13q24 0 55 25l22 17zM495 676q-11 -78 -49 -112t-114 -33q-107 2 -107 94q0 26 7 53 q3 3 17 5q13 1 19 -5q-1 -52 12 -68q15 -20 66 -18q35 2 56 15q28 18 57 72q7 4 21 3q13 -2 15 -6z" />
<glyph unicode="&#x16e;" horiz-adv-x="755" d="M824 690l-7 -31q-60 0 -71 -10q-30 -24 -41 -77l-64 -297q-33 -156 -109 -223q-75 -66 -218 -68q-111 -1 -182 56q-70 58 -70 142q0 10 1 20t3 20l93 437h-93l7 31h324l-7 -31h-93l-88 -414q-9 -45 -9 -80q0 -139 153 -139q194 0 244 236l66 310q4 16 4 33q0 30 -15 45 q-9 9 -65 9l7 31h230zM503 744q-35 0 -58 23t-23 57q0 47 38 83q38 37 86 37q35 0 58 -22.5t23 -56.5q0 -47 -39 -84q-37 -37 -85 -37zM576 855q0 39 -41 39q-24 0 -43 -18t-19 -42q0 -40 41 -40q24 0 43 18.5t19 42.5z" />
<glyph unicode="&#x16f;" d="M528 88q-135 -105 -173 -105q-36 0 -36 43q0 24 16 81l30 108l-2 2q-50 -85 -114 -149q-82 -85 -146 -85q-21 0 -33 19q-10 14 -10 35q0 24 19 99q8 31 15.5 61t15.5 61q18 72 18 97q0 15 -16 15q-18 0 -34 -10l-36 -21l-13 26l79 54q74 50 116 50q27 0 27 -35 q0 -31 -29 -147l-35 -137q-10 -37 -10 -67q0 -12 18 -12q37 0 109 101q64 90 90 200q10 41 10 75q48 -2 110 18l9 -11q-20 -64 -39 -132.5t-37 -141.5q-20 -82 -20 -93q0 -13 14 -13q24 0 55 25l22 17zM339 536q-35 0 -58 23t-23 57q0 47 38 83q38 37 86 37q35 0 58 -22.5 t23 -56.5q0 -47 -39 -84q-37 -37 -85 -37zM412 647q0 39 -41 39q-24 0 -43 -18t-19 -42q0 -40 41 -40q24 0 43 18.5t19 42.5z" />
<glyph unicode="&#x170;" horiz-adv-x="755" d="M824 690l-7 -31q-60 0 -71 -10q-30 -24 -41 -77l-64 -297q-33 -156 -109 -223q-75 -66 -218 -68q-111 -1 -182 56q-70 58 -70 142q0 10 1 20t3 20l93 437h-93l7 31h324l-7 -31h-93l-88 -414q-9 -45 -9 -80q0 -139 153 -139q194 0 244 236l66 310q4 16 4 33q0 30 -15 45 q-9 9 -65 9l7 31h230zM724 929q0 -18 -12 -34l-124 -159l-27 7l94 202q9 19 36 19q33 0 33 -35zM577 929q0 -18 -13 -34l-124 -156l-27 4l94 202q9 19 37 19q33 0 33 -35z" />
<glyph unicode="&#x171;" d="M528 88q-135 -105 -173 -105q-36 0 -36 43q0 24 16 81l30 108l-2 2q-50 -85 -114 -149q-82 -85 -146 -85q-21 0 -33 19q-10 14 -10 35q0 24 19 99q8 31 15.5 61t15.5 61q18 72 18 97q0 15 -16 15q-18 0 -34 -10l-36 -21l-13 26l79 54q74 50 116 50q27 0 27 -35 q0 -31 -29 -147l-35 -137q-10 -37 -10 -67q0 -12 18 -12q37 0 109 101q64 90 90 200q10 41 10 75q48 -2 110 18l9 -11q-20 -64 -39 -132.5t-37 -141.5q-20 -82 -20 -93q0 -13 14 -13q24 0 55 25l22 17zM558 723q0 -18 -12 -34l-124 -159l-27 7l94 202q9 19 36 19 q33 0 33 -35zM411 723q0 -18 -13 -34l-124 -156l-27 4l94 202q9 19 37 19q33 0 33 -35z" />
<glyph unicode="&#x172;" horiz-adv-x="755" d="M824 690l-7 -31q-60 0 -71 -10q-30 -24 -41 -77l-64 -297q-33 -156 -109 -223q-75 -66 -218 -68q-111 -1 -182 56q-70 58 -70 142q0 10 1 20t3 20l93 437h-93l7 31h324l-7 -31h-93l-88 -414q-9 -45 -9 -80q0 -139 153 -139q194 0 244 236l66 310q4 16 4 33q0 30 -15 45 q-9 9 -65 9l7 31h230zM339 2q-68 -54 -68 -99q0 -12 8 -23q11 -14 40 -14q33 0 61 16l7 -19q-56 -51 -117 -51q-30 0 -51 12q-26 15 -26 43q0 16 8.5 34t24 36t38 35t50.5 30h25z" />
<glyph unicode="&#x173;" d="M528 88q-28 -19 -55.5 -38t-55.5 -38q-85 -66 -85 -107q0 -15 9 -25q11 -14 40 -14q33 0 61 16l8 -19q-56 -51 -118 -51q-30 0 -51 12q-26 15 -26 43q0 62 89 118q-25 7 -25 41q0 24 16 81l30 108l-2 2q-50 -85 -114 -149q-82 -85 -146 -85q-21 0 -33 19q-10 14 -10 35 q0 24 19 99q8 31 15.5 61t15.5 61q18 72 18 97q0 15 -16 15q-18 0 -34 -10l-36 -21l-13 26l79 54q74 50 116 50q27 0 27 -35q0 -31 -29 -147l-35 -137q-10 -37 -10 -67q0 -12 18 -12q37 0 109 101q64 90 90 200q10 41 10 75q48 -2 110 18l9 -11q-20 -64 -39 -132.5 t-37 -141.5q-20 -82 -20 -93q0 -13 14 -13q24 0 55 25l22 17z" />
<glyph unicode="&#x174;" horiz-adv-x="1028" d="M1046 690l-7 -31q-26 1 -44 -2.5t-30.5 -9t-20 -12t-11.5 -10.5q-21 -23 -45 -73l-270 -572h-62l-71 534l-332 -534h-40l-27 679h-75l7 31h307l-7 -31h-77l22 -433l285 464h62l71 -485l164 346q26 57 26 85q0 10 -4 14q-11 9 -58 9l7 31h230zM768 746h-57l-92 98 l-133 -98h-55l158 175h93z" />
<glyph unicode="&#x175;" horiz-adv-x="833" d="M802 371q0 -114 -95 -247q-104 -141 -213 -141q-46 0 -72 32q-23 29 -23 78q0 14 2 33t6 43l-2 2q-30 -65 -84 -121q-66 -67 -127 -67q-54 0 -81 45q-22 35 -22 94q0 64 35 125q29 49 95 115l38 38l-2 2q-39 -10 -131 -10q-38 0 -43 -8l-28 -60h-28l41 132q34 6 74 5 q17 -2 62 -3q40 -3 52 -3q45 0 62 14l14 -19q-127 -137 -127 -304q0 -100 48 -100q39 0 86 62q51 68 72 161l11 48l13 61q4 17 6 32.5t4 31.5q51 4 107 27l12 -9q-7 -23 -16 -58t-21 -83q-31 -143 -31 -191q0 -32 13 -54q15 -28 45 -28q67 0 123 114q48 97 48 173 q0 56 -40 56q-22 0 -38 -8l-12 23q47 33 71 61q12 4 30 4q26 0 46 -32t20 -66zM683 530h-57l-92 98l-133 -98h-55l158 175h93z" />
<glyph unicode="&#x176;" horiz-adv-x="640" d="M733 690l-5 -31q-34 0 -83 -25q-31 -15 -77 -75l-205 -283l-51 -245h94l-7 -31h-324l7 31h94l53 257l-142 372h-81l4 31l311 -1l-6 -31h-75q26 -80 51 -159t50 -159l141 205q43 61 43 86q0 5 -3 8q-13 19 -64 19l6 31h269zM555 740h-57l-92 98l-133 -98h-55l158 175h93z " />
<glyph unicode="&#x177;" d="M541 453q-11 -25 -39.5 -118t-73.5 -257q-20 -73 -49 -133t-67 -108q-33 -42 -82 -73q-56 -35 -103 -35q-99 0 -106 97l62 40l18 -6q-7 -85 63 -85q93 0 150 229l39 157l-2 2q-37 -74 -100 -128q-61 -52 -102 -52q-26 0 -39 31q-10 23 -10 54q0 30 6 87l19 182 q3 33 -19 33q-32 0 -79 -41l-14 28l80 62q65 50 101 50q41 0 41 -60q0 -20 -1.5 -40.5t-3.5 -42.5l-19 -163q-2 -17 -3 -32t-1 -29q0 -35 16 -35q38 0 95 86q64 93 91 219q10 44 10 75q48 -2 110 18zM507 531h-57l-92 98l-133 -98h-55l158 175h93z" />
<glyph unicode="&#x178;" horiz-adv-x="640" d="M708 690l-5 -31q-34 0 -83 -25q-31 -15 -77 -75l-205 -283l-51 -245h94l-7 -31h-324l7 31h94l53 257l-142 372h-81l4 31l311 -1l-6 -31h-75q26 -80 51 -159t50 -159l141 205q43 61 43 86q0 5 -3 8q-13 19 -64 19l6 31h269zM510 741q-24 0 -40.5 16t-16.5 38q0 30 25 52 q26 23 54 23q23 0 40.5 -15.5t17.5 -37.5q0 -28 -26 -52t-54 -24zM238 741q-24 0 -41 16t-17 38q0 29 26 52t55 23q23 0 40 -15.5t17 -37.5q0 -28 -26 -52t-54 -24z" />
<glyph unicode="&#x179;" horiz-adv-x="733" d="M756 690l-542 -653l211 3q28 0 70 15q43 15 68 34q66 52 94 151h44l-64 -240l-630 1l548 653l-157 -3q-107 -1 -147 -40q-32 -31 -48 -67q-1 -2 -5 -16.5t-11 -40.5h-47l45 202zM654 925q16 -7 16 -23q0 -24 -26 -45l-145 -116h-39l107 156q25 36 54 36q9 0 33 -8z" />
<glyph unicode="&#x17a;" horiz-adv-x="500" d="M470 461l-14 -50l-324 -333l2 -2q55 21 93 21q24 0 49.5 -2.5t51.5 -7.5q43 -8 67 -5l28 58l28 -2q-22 -61 -35 -132q-5 -23 -54 -23q-61 0 -142 23q-54 16 -100 16q-42 0 -73 -27l-16 30l341 349l-2 2q-43 -20 -80 -20q-20 0 -60.5 3t-103.5 10l-23 -52l-29 3l45 139 q29 10 58 10q19 0 111 -23q28 -7 52 -10.5t45 -3.5q39 0 56 24l9 13zM468 714q16 -7 16 -23q0 -24 -26 -45l-145 -116h-39l107 156q25 36 54 36q9 0 33 -8z" />
<glyph unicode="&#x17b;" horiz-adv-x="733" d="M756 690l-542 -653l211 3q28 0 70 15q43 15 68 34q66 52 94 151h44l-64 -240l-630 1l548 653l-157 -3q-107 -1 -147 -40q-32 -31 -48 -67q-1 -2 -5 -16.5t-11 -40.5h-47l45 202zM549 795q-10 -49 -56 -49q-38 0 -38 35q0 24 17 41.5t41 17.5q20 0 30 -13.5t6 -31.5z" />
<glyph unicode="&#x17c;" horiz-adv-x="500" d="M470 461l-14 -50l-324 -333l2 -2q55 21 93 21q24 0 49.5 -2.5t51.5 -7.5q43 -8 67 -5l28 58l28 -2q-22 -61 -35 -132q-5 -23 -54 -23q-61 0 -142 23q-54 16 -100 16q-42 0 -73 -27l-16 30l341 349l-2 2q-43 -20 -80 -20q-20 0 -60.5 3t-103.5 10l-23 -52l-29 3l45 139 q29 10 58 10q19 0 111 -23q28 -7 52 -10.5t45 -3.5q39 0 56 24l9 13zM376 580q-10 -49 -56 -49q-38 0 -38 35q0 24 17 41.5t41 17.5q20 0 30 -13.5t6 -31.5z" />
<glyph unicode="&#x17d;" horiz-adv-x="733" d="M756 690l-542 -653l211 3q28 0 70 15q43 15 68 34q66 52 94 151h44l-64 -240l-630 1l548 653l-157 -3q-107 -1 -147 -40q-32 -31 -48 -67q-1 -2 -5 -16.5t-11 -40.5h-47l45 202zM366 921h47l102 -111l123 111h65l-158 -175h-93z" />
<glyph unicode="&#x17e;" horiz-adv-x="500" d="M470 461l-14 -50l-324 -333l2 -2q55 21 93 21q24 0 49.5 -2.5t51.5 -7.5q43 -8 67 -5l28 58l28 -2q-22 -61 -35 -132q-5 -23 -54 -23q-61 0 -142 23q-54 16 -100 16q-42 0 -73 -27l-16 30l341 349l-2 2q-43 -20 -80 -20q-20 0 -60.5 3t-103.5 10l-23 -52l-29 3l45 139 q29 10 58 10q19 0 111 -23q28 -7 52 -10.5t45 -3.5q39 0 56 24l9 13zM190 705h47l102 -111l123 111h65l-158 -175h-93z" />
<glyph unicode="&#x17f;" horiz-adv-x="333" d="M449 718q-8 -32 -15.5 -63t-12.5 -62l-15 -3q-38 56 -73 56q-33 0 -48 -39q-11 -28 -25.5 -85t-32.5 -144q-11 -53 -21.5 -105t-21.5 -105q-40 -170 -72 -245q-26 -60 -72 -112q-11 -14 -26.5 -26.5t-34.5 -25.5q-44 -30 -69 -30q-27 0 -40 9q25 51 32 107l17 3 q17 -44 51 -44q24 0 37 25q5 8 9.5 23t9.5 36q3 13 10 48t18 93l71 374h-91l5 25l50 16q40 13 50 19q4 28 23 82q13 28 48 57l56 49q27 24 91 63q19 12 43 12q20 0 49 -8z" />
<glyph unicode="&#x192;" horiz-adv-x="500" d="M270 354l-43 -317q-5 -37 -9.5 -62t-7.5 -38q-7 -27 -18 -49.5t-25 -41.5q-63 -80 -139 -114q-34 -14 -63 -14q-4 0 -7 0.5t-7 1.5l-3 6q7 17 11.5 31t7.5 25l7 5q20 -7 44 -7q56 0 88 56q10 17 19 65.5t19 127.5l39 325h-44q-26 0 -66 -3l-7 4v33l7 6q17 -1 35 -1.5 t37 -0.5h43q7 63 9 72q7 45 20 69q26 48 104 105q62 47 115 47q30 0 58 -11l4 -7q-14 -39 -19 -65h-9q-35 28 -70 28q-76 0 -101 -88q-7 -25 -13.5 -62t-11.5 -88h50q19 0 43 0.5t53 1.5l8 -6v-31l-8 -6q-59 3 -94 3h-56z" />
<glyph unicode="&#x1a0;" horiz-adv-x="729" d="M678 339q-32 -149 -147 -252t-247 -103q-109 0 -181 79t-72 200q0 40 9 82q35 161 153 263q113 98 245 98q164 0 224 -128q69 12 77 45q4 17 -11 31q-16 10 -32.5 19.5t-16.5 26.5q0 16 14.5 30t32.5 14q10 0 17 -4q58 -28 58 -77q0 -11 -3 -23q-21 -71 -125 -88 q17 -49 17 -108q0 -50 -12 -105zM525 336q25 115 25 185q0 151 -119 151q-95 0 -157 -95q-49 -78 -84 -236q-22 -101 -22 -167q0 -152 126 -152q92 0 151 89q49 75 80 225z" />
<glyph unicode="&#x1a1;" horiz-adv-x="594" d="M675 428q-21 -77 -132 -87q7 -44 -5 -104q-26 -123 -104.5 -188.5t-202.5 -65.5q-181 0 -181 168q0 17 2 35.5t6 38.5q25 118 101 182t196 64q151 0 182 -103q59 18 67 56q4 16 -35 39q-13 7 -13 21q0 17 15 33t33 16q6 0 14 -3q60 -32 60 -81q0 -11 -3 -21zM393 196 q8 40 12.5 70.5t4.5 53.5q0 103 -74 103q-100 0 -137 -174q-14 -68 -14 -110q0 -108 78 -108q95 0 130 165z" />
<glyph unicode="&#x1af;" horiz-adv-x="772" d="M800 659q-60 0 -71 -10q-31 -26 -41 -77l-63 -297q-35 -157 -111 -224t-217 -67q-126 0 -190 46.5t-64 134.5q0 27 6 57l93 437h-93l7 31h324l-7 -31h-93l-88 -414q-5 -27 -8 -50t-3 -42q0 -66 35.5 -96.5t119.5 -30.5q192 0 243 236l65 310q12 55 -9 78q-8 9 -65 9l7 31 h142q85 0 114 7q44 9 50 38q4 19 -11 31l-33 20q-16 10 -16 26t14.5 30t32.5 14q9 0 17 -3q59 -29 59 -77q0 -52 -49 -86q-43 -31 -97 -31z" />
<glyph unicode="&#x1b0;" horiz-adv-x="550" d="M675 531q-20 -77 -156 -90q-36 -116 -72 -261q-2 -9 -5 -18t-6 -17q-8 -34 -8 -49q0 -22 13 -22q24 0 55 25l22 17l10 -28q-135 -105 -173 -105q-36 0 -36 43q0 24 46 189q-36 -68 -88 -127q-92 -105 -174 -105q-42 0 -42 55q0 24 18 98q8 31 15.5 61t15.5 61 q18 72 18 97q0 15 -16 15q-18 0 -34 -10l-36 -21l-13 26l79 54q74 50 116 50q27 0 27 -35q0 -31 -29 -147l-35 -137q-11 -46 -11 -54q0 -25 19 -25q37 0 109 101q64 90 90 200q10 41 10 75q43 5 74 11t51 12q69 21 76 57q3 16 -36 39q-13 7 -13 21q0 17 15.5 33t32.5 16 q8 0 14 -3q60 -32 60 -80q0 -12 -3 -22z" />
<glyph unicode="&#x1b7;" horiz-adv-x="585" d="M527 188q-16 -102 -117 -158q-83 -46 -193 -46q-206 0 -198 138q2 37 29.5 61t65.5 24q24 0 44 -12q23 -14 18 -37q-3 -16 -20 -36t-21 -35q-4 -25 21 -49q27 -24 53 -24q74 0 129 67q52 64 52 140q0 130 -191 130l8 35l254 205h-210q-25 0 -44 -15q-23 -18 -25 -48h-40 l35 162h425l-10 -46l-311 -244q250 0 250 -169q0 -10 -1 -21t-3 -22z" />
<glyph unicode="&#x1f4;" horiz-adv-x="707" d="M691 622q-8 -17 -22 -55t-33 -98h-39l13 86q-8 13 -15 26t-15 26q-20 30 -49 47q-37 19 -92 18q-95 -3 -157 -96q-51 -78 -84 -235q-22 -101 -22 -168q0 -154 127 -151t164 43l36 171h-110l9 41h286l-8 -37h-41l-42 -196q-56 -20 -86.5 -30.5t-37.5 -12.5 q-66 -17 -180 -17q-110 0 -182 79t-72 200q0 41 9 82q35 161 153 263q113 97 245 98q114 1 186 -33q13 -6 56 -40zM644 927q16 -7 16 -23q0 -24 -26 -45l-145 -116h-39l107 156q25 36 54 36q9 0 33 -8z" />
<glyph unicode="&#x1f5;" horiz-adv-x="500" d="M529 440l-10 -50l-88 4q11 -30 11 -54q0 -132 -148 -187q-67 -25 -67 -50q0 -17 23 -34l85 -60q78 -56 78 -112q0 -83 -86 -130q-71 -38 -163 -38q-77 0 -135 23q-79 33 -79 101q0 62 69 106q42 28 123 53q-26 20 -26 49q0 19 4 20l89 54l-2 2q-153 -2 -153 122 q0 69 32 112q27 36 87 64q69 34 117 34t90 -20q36 -4 73 -3l71 3zM334 342q0 83 -68 83q-62 0 -87 -61q-22 -51 -22 -104q0 -88 74 -88q55 0 82 61q21 46 21 109zM309 -142q0 39 -64 82l-82 55l-28 -13q-96 -45 -96 -114q0 -51 46 -79q37 -24 93 -24q48 0 86 21q45 25 45 72 zM448 713q16 -7 16 -23q0 -24 -26 -45l-145 -116h-39l107 156q25 36 54 36q9 0 33 -8z" />
<glyph unicode="&#x1fa;" horiz-adv-x="808" d="M773 31l-7 -31h-293l7 31h80l-25 198h-244l-56 -91q-36 -59 -36 -86q0 -5 2 -11q4 -10 62 -10l-7 -31h-218l7 31q53 -2 74 11q30 17 76 96l339 572h72l91 -679h76zM528 266l-39 294l-174 -294h213zM785 1155q16 -7 16 -23q0 -24 -26 -45l-145 -116h-39l107 156 q25 36 54 36q9 0 33 -8zM563 751q-35 0 -58 22.5t-23 56.5q0 46 38 84q38 37 86 37q35 0 58 -22.5t23 -57.5q0 -46 -39 -83q-37 -37 -85 -37zM636 862q0 39 -41 39q-24 0 -43 -18.5t-19 -42.5q0 -39 41 -39q24 0 43 18.5t19 42.5z" />
<glyph unicode="&#x1fb;" d="M519 82q-108 -99 -176 -99q-30 0 -30 43q0 30 7 57l35 142l-2 2q-44 -84 -106 -152q-83 -92 -150 -92q-27 0 -41 26q-12 22 -12 51q0 59 24 148q25 95 57 133q8 9 25 24t43 36q58 46 85 58q23 10 67 10q39 0 99 -26l45 27l16 -12l-15 -43q-5 -14 -9 -29.5t-8 -32.5 l-45 -214q-10 -46 -10 -52q0 -20 14 -20q18 0 55 29l20 16zM377 395q-41 22 -77 22q-44 0 -63 -28q-29 -42 -57 -153q-24 -95 -24 -133t18 -38q21 0 54 35q73 76 120 185q20 48 29 110zM382 525q-35 0 -58 23t-23 57q0 47 38 83q38 37 86 37q35 0 58 -22.5t23 -56.5 q0 -47 -39 -84q-37 -37 -85 -37zM455 636q0 39 -41 39q-24 0 -43 -18t-19 -42q0 -40 41 -40q24 0 43 18.5t19 42.5zM603 927q16 -7 16 -23q0 -24 -26 -45l-145 -116h-39l107 156q25 36 54 36q9 0 33 -8z" />
<glyph unicode="&#x1fc;" horiz-adv-x="1090" d="M1141 690l-41 -203h-42q7 81 -23 121t-126 42l-159 3l-60 -283h117q44 0 68 25q30 33 44 92h37l-60 -278h-37q13 57 -5 89.5t-56 32.5h-117l-62 -294l182 3q28 0 70 15t67 34q72 56 96 151h39l-63 -240h-636l7 31h94l42 198h-255l-102 -105q-35 -35 -39 -42 q-19 -24 -15 -43q1 -8 18 -9q-5 1 4.5 1h34.5l-7 -31h-225l7 31q17 2 37.5 6t43.5 11q11 7 31.5 26.5t51.5 51.5l499 533h-87l7 31h620zM593 589l-299 -323h231zM880 924q16 -7 16 -23q0 -24 -26 -45l-145 -116h-39l107 156q25 36 54 36q9 0 33 -8z" />
<glyph unicode="&#x1fd;" horiz-adv-x="730" d="M705 385q0 -89 -92 -125q-81 -32 -180 -42q-2 -15 -3 -37.5t-1 -53.5q0 -80 77 -80q58 0 158 67l10 -28q-48 -30 -76 -47t-36 -22q-67 -34 -123 -34q-97 0 -123 86q-29 -23 -48.5 -38t-29.5 -20q-46 -28 -94 -28q-106 0 -106 104q0 15 4 31t11 31t16.5 28.5t20.5 22.5 q60 51 163 51h80v44q0 113 -113 113q-6 0 -14 -1t-17 -2t-17 -2t-12 -1l-24 -67l-19 4l-7 74q71 56 153 56q112 0 140 -97q121 97 207 97q42 0 68.5 -22t26.5 -62zM611 368q0 53 -46 53q-54 0 -85 -63q-5 -8 -15.5 -35.5t-27.5 -74.5q75 3 122 36q24 17 40 47q12 22 12 37z M329 222h-44q-61 0 -101.5 -30t-40.5 -81q0 -55 60 -55q51 0 89 44q17 20 27 59q10 33 10 63zM634 712q16 -7 16 -23q0 -24 -26 -45l-145 -116h-39l107 156q25 36 54 36q9 0 33 -8z" />
<glyph unicode="&#x1fe;" horiz-adv-x="833" d="M551 764l-281 -863h-54l281 863h54zM699 339q-32 -149 -144 -252t-244 -103q-110 0 -182 79t-72 200q0 40 9 82q35 161 153 263q113 98 245 98q58 0 104.5 -18t78 -51.5t48.5 -81.5t17 -108q0 -53 -13 -108zM551 336q25 115 25 186q0 150 -119 150q-176 0 -246 -331 q-10 -49 -15 -89t-5 -72q0 -158 130 -158q91 0 150 89q49 75 80 225zM566 929q16 -7 16 -23q0 -24 -26 -45l-145 -116h-39l107 156q25 36 54 36q9 0 33 -8z" />
<glyph unicode="&#x1ff;" horiz-adv-x="534" d="M446 499q24 -16 28 -19q-17 -23 -112 -158t-269 -384q-24 19 -26 22q71 100 165 234t214 305zM497 308q0 -57 -23 -126q-22 -67 -60 -103q-101 -96 -218 -96q-82 0 -117.5 39.5t-35.5 121.5q0 56 24 127q22 67 60 102q102 96 218 96q152 0 152 -161zM383 332 q0 38 -22 65.5t-58 27.5q-77 0 -116 -114q-30 -86 -30 -191q0 -39 21 -64q23 -29 59 -29q76 0 116 115q30 85 30 190zM519 720q16 -7 16 -23q0 -24 -26 -45l-145 -116h-39l107 156q25 36 54 36q9 0 33 -8z" />
<glyph unicode="&#x218;" d="M517 653q-22 -75 -22 -147h-30v85q-53 50 -140 50q-52 0 -89 -31q-40 -31 -40 -79q0 -54 40 -85q13 -10 34.5 -21t53.5 -22q90 -35 118 -55q53 -41 53 -115q0 -48 -27 -100q-23 -43 -50 -67q-87 -81 -206 -81q-106 0 -162 40l21 166h27v-76q35 -74 153 -74q73 0 109 38 q29 32 29 80q0 53 -29 79q-20 17 -94 44q-81 30 -114 56q-48 40 -48 116q0 101 78 170q83 73 185 73q83 0 150 -44zM144 -317v20q88 13 99 63q3 16 -16 16q-54 1 -54 44q0 31 21.5 52t53.5 21q56 0 52 -64v-8t-1 -9q-16 -124 -155 -135z" />
<glyph unicode="&#x219;" horiz-adv-x="444" d="M420 438q-8 -53 -12.5 -82t-4.5 -34h-30l-6 48q-52 44 -109 44q-83 0 -83 -76q0 -44 76 -60l59 -13q43 -9 68 -34q30 -29 30 -68q0 -36 -17 -64q-14 -21 -46 -48q-82 -68 -171 -68q-48 0 -135 27q16 79 21 131h30v-47q20 -24 55 -40q36 -16 69 -16q94 0 94 73 q0 52 -68 66l-44 9q-114 22 -114 111q0 64 63 108q37 25 62.5 39.5t41.5 18.5q25 6 47 6q72 0 124 -31zM94 -305v20q88 13 99 63q3 16 -16 16q-54 1 -54 44q0 31 21.5 52t53.5 21q56 0 52 -64v-8t-1 -9q-16 -124 -155 -135z" />
<glyph unicode="&#x292;" horiz-adv-x="585" d="M532 -51q-25 -100 -132 -160q-94 -53 -200 -52q-200 5 -206 131l106 46l9 -6q-8 -21 -8 -36q0 -41 42 -66q34 -22 73 -20q69 5 123 56q54 52 59 124q10 147 -194 147l8 34l246 213h-200q-25 0 -44 -15q-23 -18 -25 -48h-40l35 162h433l-10 -46l-305 -253q120 0 182 -47 q55 -43 55 -114q0 -26 -7 -50z" />
<glyph unicode="&#x2c6;" horiz-adv-x="333" d="M348 531h-57l-92 98l-133 -98h-55l158 175h93z" />
<glyph unicode="&#x2c7;" horiz-adv-x="333" d="M152 707h47l102 -111l123 111h65l-158 -175h-93z" />
<glyph unicode="&#x2d8;" horiz-adv-x="360" d="M327 677q-11 -78 -49 -112t-114 -33q-107 2 -107 94q0 26 7 53q3 3 17 5q13 1 19 -5q-1 -52 12 -68q15 -20 66 -18q35 2 56 15q28 18 57 72q7 4 21 3q13 -2 15 -6z" />
<glyph unicode="&#x2d9;" horiz-adv-x="360" d="M235 584q-10 -49 -56 -49q-38 0 -38 35q0 24 17 41.5t41 17.5q20 0 30 -13.5t6 -31.5z" />
<glyph unicode="&#x2da;" horiz-adv-x="751" d="M308 533q-35 0 -58 23t-23 57q0 47 38 83q38 37 86 37q35 0 58 -22.5t23 -56.5q0 -47 -39 -84q-37 -37 -85 -37zM381 644q0 39 -41 39q-24 0 -43 -18t-19 -42q0 -40 41 -40q24 0 43 18.5t19 42.5z" />
<glyph unicode="&#x2db;" horiz-adv-x="254" d="M191 2q-68 -54 -68 -99q0 -12 8 -23q11 -14 40 -14q33 0 61 16l7 -19q-56 -51 -117 -51q-30 0 -51 12q-26 15 -26 43q0 16 8.5 34t24 36t38 35t50.5 30h25z" />
<glyph unicode="&#x2dc;" horiz-adv-x="341" d="M453 653q-19 -96 -85 -115q-15 -4 -34 -4q-35 0 -90 21q-50 19 -67 16q-42 -8 -55 -41h-33q24 81 72 105q17 10 42 10q27 0 89 -20q56 -17 76 -15q33 4 50 43h35z" />
<glyph unicode="&#x2dd;" horiz-adv-x="360" d="M373 723q0 -18 -12 -34l-124 -159l-27 7l94 202q9 19 36 19q33 0 33 -35zM226 723q0 -18 -13 -34l-124 -156l-27 4l94 202q9 19 37 19q33 0 33 -35z" />
<glyph unicode="&#x300;" horiz-adv-x="511" d="M297 465h-25l-139 136q-12 12 -12 31q0 37 39 37q26 0 37 -21z" />
<glyph unicode="&#x301;" horiz-adv-x="511" d="M407 635q0 -21 -12 -34l-133 -136l-21 4l97 182q10 19 36 19q33 0 33 -35z" />
<glyph unicode="&#x303;" horiz-adv-x="333" d="M333 626q-5 -104 -94 -104q-32 0 -86 19q-57 20 -83 20q-18 0 -34.5 -12t-18.5 -29h-17q1 43 24.5 70t65.5 27q29 0 88 -18q60 -17 88 -17q39 0 50 44h17z" />
<glyph unicode="&#x308;" horiz-adv-x="365" d="M564 608q-1 -28 -29 -52q-26 -24 -54 -24q-23 0 -39.5 16t-15.5 38q2 29 28 52t56 23q22 0 38.5 -15t15.5 -38zM292 608q-1 -26 -29 -52q-26 -24 -54 -24q-23 0 -40 16t-16 39q1 28 29 51t57 23q22 0 38 -15t15 -38z" />
<glyph unicode="&#x309;" horiz-adv-x="0" d="M9 526l-14 -7q-14 16 -10 31q3 16 32 47q27 27 27 49q0 26 -31 23q-14 -2 -27 -18l-22 17q10 21 34.5 34t49.5 13q54 0 54 -49q0 -5 -0.5 -10t-1.5 -10q-5 -24 -48 -57q-44 -33 -45 -43q2 -6 2 -20z" />
<glyph unicode="&#x312;" horiz-adv-x="333" d="M241 711q-78 -13 -88 -58q-3 -14 14 -14q49 -1 49 -39q0 -28 -19.5 -46.5t-47.5 -18.5q-49 0 -49 51q0 9 3 21q26 122 138 121v-17z" />
<glyph unicode="&#x313;" horiz-adv-x="169" d="M168 659q-3 -54 -58 -93q-52 -35 -106 -35h-4l13 31q28 4 52 18q30 18 31 43q2 17 -15 17q-7 0 -20 -5t-20 -5q-37 0 -35 33q1 28 31 47q25 15 56 15q34 0 54 -16q22 -19 21 -50z" />
<glyph unicode="&#x314;" horiz-adv-x="178" d="M177 679q-1 -20 -17.5 -35t-36.5 -15q-8 0 -20 5t-17 5q-11 0 -21.5 -11t-11.5 -23q-1 -28 62 -44l-5 -30q-113 14 -109 93q2 44 37 73q37 29 81 29q60 0 58 -47z" />
<glyph unicode="&#x323;" horiz-adv-x="0" d="M53 -165q0 -22 -15.5 -37.5t-37.5 -15.5t-37.5 15.5t-15.5 37.5t15.5 37.5t37.5 15.5q23 0 38 -15t15 -38z" />
<glyph unicode="&#x326;" horiz-adv-x="0" d="M-55 -250l-5 18q77 20 77 57q0 13 -17 15q-59 2 -59 53q0 23 16 36.5t39 13.5q30 0 46 -20.5t16 -50.5q0 -111 -113 -122z" />
<glyph unicode="&#x327;" horiz-adv-x="244" d="M241 -140q-11 -47 -64 -69q-39 -16 -93 -16q-42 0 -84 18l24 37q37 -9 63 -9q53 0 60 37q1 3 1 10q0 25 -35 25q-7 0 -15.5 -1t-18.5 -3l-8 8l64 96h41l-42 -64q27 6 44 6q66 0 66 -54q0 -11 -3 -21z" />
<glyph unicode="&#x328;" horiz-adv-x="194" d="M146 2q-68 -54 -68 -99q0 -12 8 -23q11 -14 40 -14q33 0 61 16l7 -19q-56 -51 -117 -51q-30 0 -51 12q-26 15 -26 43q0 16 8.5 34t24 36t38 35t50.5 30h25z" />
<glyph unicode="&#x342;" horiz-adv-x="364" d="M364 827q-5 -43 -35.5 -71.5t-72.5 -28.5q-30 0 -83 10q-27 5 -47 7.5t-34 2.5q-52 0 -62 -34h-30q15 55 43.5 78t83.5 23q26 0 76 -9q25 -4 43.5 -6t31.5 -2q43 0 54 30h32z" />
<glyph unicode="&#x343;" horiz-adv-x="169" d="M168 659q-3 -54 -58 -93q-52 -35 -106 -35h-4l13 31q28 4 52 18q30 18 31 43q2 17 -15 17q-7 0 -20 -5t-20 -5q-37 0 -35 33q1 28 31 47q25 15 56 15q34 0 54 -16q22 -19 21 -50z" />
<glyph unicode="&#x345;" horiz-adv-x="119" d="M119 -205q-31 -37 -71 -37q-48 0 -48 50q0 19 8 53l6 26t7 26h72q-3 -13 -6 -25l-6 -24q-4 -16 -6 -28t-2 -22q0 -19 16 -19q10 0 23 10z" />
<glyph unicode="&#x374;" horiz-adv-x="189" d="M178 635q0 -21 -13 -34l-133 -136l-21 4l97 182q10 19 37 19q33 0 33 -35z" />
<glyph unicode="&#x375;" horiz-adv-x="314" d="M110 -185q0 21 13 34l133 136l21 -4l-97 -182q-10 -19 -37 -19q-33 0 -33 35z" />
<glyph unicode="&#x37a;" horiz-adv-x="119" d="M119 -205q-31 -37 -71 -37q-48 0 -48 50q0 19 8 53l6 26t7 26h72q-3 -13 -6 -25l-6 -24q-4 -16 -6 -28t-2 -22q0 -19 16 -19q10 0 23 10z" />
<glyph unicode="&#x37e;" horiz-adv-x="409" d="M270 338q-23 0 -37 14t-14 36q0 31 23.5 54t54.5 23q23 0 37.5 -14t14.5 -36q0 -15 -6.5 -29t-17.5 -24.5t-25.5 -17t-29.5 -6.5zM267 -35q-11 -22 -28 -42t-40 -38q-50 -39 -89 -39l6 24q62 18 100 83q11 20 11 35q0 5 -3 10q-20 -14 -31 -14q-23 0 -37.5 14t-14.5 36 q0 31 24 52.5t56 25.5q66 7 66 -69q0 -36 -20 -78z" />
<glyph unicode="&#x384;" horiz-adv-x="0" d="M298 720q16 -7 16 -23q0 -24 -26 -45l-145 -116h-39l107 156q25 36 54 36q9 0 33 -8z" />
<glyph unicode="&#x385;" horiz-adv-x="343" d="M587 607q0 -29 -26 -53q-26 -23 -53 -23q-23 0 -40.5 15.5t-17.5 37.5q0 30 25 52q25 24 55 24q22 0 39.5 -15.5t17.5 -37.5zM463 690q0 -25 -26 -45l-145 -115h-39l107 155q25 37 55 37q16 0 32 -8.5t16 -23.5zM238 607q0 -28 -26 -52t-53 -24q-23 0 -41 15.5t-18 38.5 q0 29 26 52t56 23q22 0 39 -15.5t17 -37.5z" />
<glyph unicode="&#x386;" horiz-adv-x="715" d="M231 707q16 -7 16 -22q0 -25 -26 -46l-145 -116h-39l107 156q25 37 54 37q10 0 33 -9zM706 31l-7 -31h-293l7 31h80l-25 198h-244l-56 -91q-37 -58 -37 -86q0 -7 3 -11q4 -10 62 -10l-7 -31h-218l7 31q53 -2 74 11q28 16 76 96l339 572h72l91 -679h76zM461 266l-39 294 l-174 -294h213z" />
<glyph unicode="&#x387;" horiz-adv-x="297" d="M174 453q26 0 44.5 -18.5t18.5 -44.5t-18.5 -44.5t-44.5 -18.5q-27 0 -45.5 18t-18.5 45q0 26 18.5 44.5t45.5 18.5z" />
<glyph unicode="&#x388;" horiz-adv-x="924" d="M921 690l-40 -203h-42q1 14 1.5 24t0.5 16q0 48 -24 80q-32 41 -127 43l-150 3l-59 -283h107q45 0 69 25q28 29 43 92h37l-60 -278h-36q12 60 -7 91t-54 31h-107l-63 -294l168 3q29 2 71 15q42 15 67 34q71 54 96 151h43l-64 -240h-630l7 31h93l134 628h-94l6 31h614z M194 704q16 -7 16 -23q0 -24 -26 -45l-145 -116h-39l107 156q25 36 54 36q9 0 33 -8z" />
<glyph unicode="&#x389;" horiz-adv-x="986" d="M1029 690l-5 -31h-94l-134 -628h94l-7 -31h-328l7 31h94l66 315h-250l-67 -315h94l-7 -31h-333l6 31h94l134 628h-94l6 31h334l-6 -31h-94l-59 -278h250l59 278h-93l5 31h328zM194 707q16 -7 16 -23q0 -24 -26 -45l-145 -116h-39l107 156q25 36 54 36q9 0 33 -8z" />
<glyph unicode="&#x38a;" horiz-adv-x="607" d="M613 690l-5 -31h-94l-134 -628h94l-7 -31h-330l7 31h93l134 628h-94l6 31h330zM194 705q16 -7 16 -23q0 -24 -26 -45l-145 -116h-39l107 156q25 36 54 36q9 0 33 -8z" />
<glyph unicode="&#x38c;" horiz-adv-x="919" d="M854 339q-32 -149 -144 -252t-244 -103q-110 0 -182 79t-72 200q0 40 9 82q35 161 153 263q113 98 245 98q58 0 104.5 -18t78 -51.5t48.5 -81.5t17 -108q0 -53 -13 -108zM706 336q25 115 25 186q0 150 -119 150q-176 0 -246 -331q-10 -49 -15 -89t-5 -72q0 -158 130 -158 q91 0 150 89q49 75 80 225zM194 710q16 -7 16 -23q0 -24 -26 -45l-145 -116h-39l107 156q25 36 54 36q9 0 33 -8z" />
<glyph unicode="&#x38e;" horiz-adv-x="917" d="M922 636q-1 -36 -32 -67q-30 -30 -68 -30q-17 0 -28.5 10.5t-11.5 27.5q1 33 32 54q29 22 31 27q2 20 -27 20q-83 0 -160 -143q-28 -53 -55.5 -124t-53.5 -162q-14 -55 -28.5 -109t-28.5 -109h94l-9 -31h-329l9 31h89q17 60 34.5 119t34.5 119q41 152 41 239 q0 169 -180 177l5 25q285 3 285 -211q0 -45 -12 -100h3q44 144 110 223q77 92 173 89q86 -3 82 -75zM194 714q16 -7 16 -23q0 -24 -26 -45l-145 -116h-39l107 156q25 36 54 36q9 0 33 -8z" />
<glyph unicode="&#x38f;" horiz-adv-x="943" d="M917 474q-8 -127 -105 -227q-92 -95 -220 -129l-4 -13l140 -1q36 0 48 17q5 12 11 24t11 23h39l-45 -168h-273l35 127q95 54 156 166q56 104 62 218q8 158 -134 158q-125 0 -203 -128q-65 -107 -72 -242q-6 -112 74 -172l-34 -127h-279l44 168h38q-1 -6 -2 -15t-3 -22 q-2 -27 41 -27h152l4 13q-111 32 -149 86q-35 48 -31 137q8 156 143 262q128 101 287 101q113 0 189 -58q85 -64 80 -171zM194 710q16 -7 16 -23q0 -24 -26 -45l-145 -116h-39l107 156q25 36 54 36q9 0 33 -8z" />
<glyph unicode="&#x390;" horiz-adv-x="340" d="M282 97q0 -47 -36 -80q-35 -33 -83 -33q-94 0 -94 93q0 34 30 195q31 166 43 178q15 18 70 18q70 0 70 -18q0 -40 -77 -168q-76 -125 -76 -169q0 -30 39 -30q55 0 92 55q22 -3 22 -41zM507 607q0 -29 -26 -53q-26 -23 -53 -23q-23 0 -40.5 15.5t-17.5 37.5q0 30 25 52 q25 24 55 24q22 0 39.5 -15.5t17.5 -37.5zM383 690q0 -25 -26 -45l-145 -115h-39l107 155q25 37 55 37q16 0 32 -8.5t16 -23.5zM158 607q0 -28 -26 -52t-53 -24q-23 0 -41 15.5t-18 38.5q0 29 26 52t56 23q22 0 39 -15.5t17 -37.5z" />
<glyph unicode="&#x391;" horiz-adv-x="745" d="M723 31l-7 -31h-293l7 31h80l-25 198h-244l-56 -91q-36 -59 -36 -86q0 -5 2 -11q4 -10 62 -10l-7 -31h-218l7 31q53 -2 74 11q30 17 76 96l339 572h72l91 -679h76zM478 266l-39 294l-174 -294h213z" />
<glyph unicode="&#x392;" horiz-adv-x="770" d="M719 519q-13 -65 -71 -112q-53 -43 -121 -53q57 -1 101 -32q54 -38 54 -106q0 -17 -5 -42q-38 -174 -274 -174h-395l7 31h94l134 628h-94l6 31h396q84 0 128.5 -35t44.5 -96q0 -17 -5 -40zM575 520q2 10 3 19.5t1 18.5q0 49 -29 75t-71 26h-89l-63 -294h76q47 0 94 32 q61 42 78 123zM523 176q5 25 5 42q0 64 -46 95q-35 23 -85 23h-77l-64 -305h85q44 0 93 26q72 38 89 119z" />
<glyph unicode="&#x393;" horiz-adv-x="750" d="M794 690l-51 -203l-38 1q4 22 6 41q5 68 -48 98q-39 22 -117 27h-120l-165 -623h93l-9 -31h-337l8 31h94l167 628h-94l7 31h604z" />
<glyph unicode="&#x394;" horiz-adv-x="675" d="M607 0h-609l424 709h93zM456 95l-65 472l-294 -472h359z" />
<glyph unicode="&#x395;" horiz-adv-x="758" d="M766 690l-40 -203h-42q1 14 1.5 24t0.5 16q0 48 -24 80q-32 41 -127 43l-150 3l-59 -283h107q45 0 69 25q28 29 43 92h37l-60 -278h-36q12 60 -7 91t-54 31h-107l-63 -294l168 3q29 2 71 15q42 15 67 34q71 54 96 151h43l-64 -240h-630l7 31h93l134 628h-94l6 31h614z " />
<glyph unicode="&#x396;" horiz-adv-x="714" d="M750 690l-542 -653l211 3q28 0 70 15q43 15 68 34q66 52 94 151h44l-64 -240l-630 1l548 653l-157 -3q-107 -1 -147 -40q-32 -31 -48 -67q-1 -2 -5 -16.5t-11 -40.5h-47l45 202z" />
<glyph unicode="&#x397;" horiz-adv-x="840" d="M878 690l-5 -31h-94l-134 -628h94l-7 -31h-328l7 31h94l66 315h-250l-67 -315h94l-7 -31h-333l6 31h94l134 628h-94l6 31h334l-6 -31h-94l-59 -278h250l59 278h-93l5 31h328z" />
<glyph unicode="&#x398;" horiz-adv-x="735" d="M708 339q-32 -149 -144 -252t-244 -103q-110 0 -182 79t-72 200q0 40 9 82q35 161 153 263q113 98 245 98q58 0 104.5 -18t78 -51.5t48.5 -81.5t17 -108q0 -53 -13 -108zM560 336q25 115 25 186q0 150 -119 150q-176 0 -246 -331q-10 -49 -15 -89t-5 -72q0 -158 130 -158 q91 0 150 89q49 75 80 225zM521 474l-53 -248h-32l18 68h-149l-15 -68h-33l52 248h33l-13 -66h146l14 66h32z" />
<glyph unicode="&#x399;" horiz-adv-x="446" d="M484 690l-5 -31h-94l-134 -628h94l-7 -31h-330l7 31h93l134 628h-94l6 31h330z" />
<glyph unicode="&#x39a;" horiz-adv-x="829" d="M859 690l-5 -31q-66 0 -91 -14q-39 -23 -98 -78q-16 -16 -49.5 -47t-84.5 -79l143 -354q5 -15 11 -30.5t22 -21.5q8 -4 77 -4l-7 -31h-341l7 31q61 0 73 17q5 8 5 18t-5 23l-90 257q-33 -29 -66 -57.5t-66 -57.5l-43 -200h94l-7 -31h-330l7 31h93l134 628h-94l6 31h330 l-5 -31h-94l-78 -365l326 293q30 27 30 45q0 8 -4 15q-7 15 -61 12l5 31h256z" />
<glyph unicode="&#x39b;" horiz-adv-x="818" d="M750 31l-7 -31h-310l7 31h89l-71 529q-40 -61 -79 -121t-79 -121q-141 -225 -141 -265l2 -12q30 -10 62 -10l-7 -31h-218l7 31h14q52 -2 84 30q17 17 52 77l339 572h89l92 -679h75z" />
<glyph unicode="&#x39c;" horiz-adv-x="971" d="M1003 690l-5 -31h-94l-134 -628h94l-7 -31h-332l6 31h94l130 591l-373 -611l-20 -1l-89 608l-106 -500q-10 -52 9 -77q7 -10 66 -10l-7 -31h-227l7 31q55 0 67 9q34 25 45 78l110 519q3 22 -24 22h-56l5 31h240l61 -467l291 467h249z" />
<glyph unicode="&#x39d;" horiz-adv-x="797" d="M829 690l-5 -31q-60 0 -71 -10q-31 -25 -42 -76l-125 -589h-25l-286 653l-110 -519q-10 -52 10 -77q6 -10 66 -10l-7 -31h-225l7 31q55 0 67 9q34 25 45 78l109 519q4 22 -24 22h-56l6 31h248l193 -457l70 340q11 54 -11 77q-9 9 -64 9l5 31h225z" />
<glyph unicode="&#x39e;" horiz-adv-x="746" d="M761 690l-40 -162h-34q2 5 2.5 10.5t1.5 12.5q1 25 -12 34q-9 6 -37 6h-345q-70 0 -74 -63h-40l43 162h535zM603 465l-65 -242h-28q7 22 18 68q0 4 -7 4h-247q-20 -1 -40 -72h-29l64 242h30q-13 -39 -13 -57q0 -6 3 -6h259q9 0 26 63h29zM653 187l-50 -187h-585l50 187 h39q-5 -15 -7 -35q-2 -48 42 -48h386q65 0 86 83h39z" />
<glyph unicode="&#x39f;" horiz-adv-x="754" d="M680 339q-32 -149 -144 -252t-244 -103q-110 0 -182 79t-72 200q0 40 9 82q35 161 153 263q113 98 245 98q58 0 104.5 -18t78 -51.5t48.5 -81.5t17 -108q0 -53 -13 -108zM532 336q25 115 25 186q0 150 -119 150q-176 0 -246 -331q-10 -49 -15 -89t-5 -72q0 -158 130 -158 q91 0 150 89q49 75 80 225z" />
<glyph unicode="&#x3a0;" horiz-adv-x="854" d="M892 690l-7 -31h-92l-167 -628h92l-8 -31h-324l9 31h85l162 612h-232l-162 -612h92l-9 -31h-323l9 31h76l167 628h-77l7 31h702z" />
<glyph unicode="&#x3a1;" horiz-adv-x="684" d="M702 495q-21 -101 -129 -152q-93 -44 -222 -44h-39l-57 -268h94l-7 -31h-333l7 31h94l141 628h-101l5 31h312q120 0 176 -29q65 -33 65 -111q0 -25 -6 -55zM565 493q6 34 6 60q0 106 -122 106h-60l-71 -332h41q74 0 127 36q63 43 79 130z" />
<glyph unicode="&#x3a3;" horiz-adv-x="776" d="M774 691l-34 -203h-29q3 86 -28 123q-34 43 -121 43h-165l133 -262l-337 -287h237q92 0 131 19q62 29 98 117h43l-77 -240h-623l402 332l-193 359z" />
<glyph unicode="&#x3a4;" horiz-adv-x="719" d="M777 690l-40 -203h-42q3 24 3 39q0 50 -25 82q-25 34 -123 43l-32 3l-133 -623h94l-7 -31h-332l7 31h93l133 623l-34 -3q-101 -9 -141 -43q-50 -44 -72 -121h-42l44 203h649z" />
<glyph unicode="&#x3a5;" horiz-adv-x="716" d="M770 636q-1 -36 -32 -67q-30 -30 -68 -30q-17 0 -28.5 10.5t-11.5 27.5q1 33 32 54q29 22 31 27q2 20 -27 20q-83 0 -160 -143q-28 -53 -55.5 -124t-53.5 -162q-14 -55 -28.5 -109t-28.5 -109h94l-9 -31h-329l9 31h89q17 60 34.5 119t34.5 119q41 152 41 239 q0 169 -180 177l5 25q285 3 285 -211q0 -45 -12 -100h3q44 144 110 223q77 92 173 89q86 -3 82 -75z" />
<glyph unicode="&#x3a6;" horiz-adv-x="861" d="M820 361q-27 -125 -128 -193q-89 -61 -221 -65l-16 -72h94l-6 -31h-325l6 31h94l16 72q-130 4 -195 65q-73 67 -46 193q24 112 132 180q99 62 213 58l13 60h-94l6 31h325l-6 -31h-94l-13 -60q117 4 190 -58q79 -67 55 -180zM684 363q16 76 -11 137q-30 69 -104 71 l-93 -441q165 25 208 233zM339 130l93 441q-74 -2 -134 -71q-52 -60 -69 -137q-43 -207 110 -233z" />
<glyph unicode="&#x3a7;" horiz-adv-x="839" d="M891 690l-5 -31q-53 0 -84 -16q-30 -15 -80 -59l-210 -184l195 -369h85l-7 -31h-341l7 31h83l-132 263q-28 -26 -79.5 -73t-127.5 -117q-30 -30 -30 -48q0 -6 4 -10q14 -14 25 -15h32l-7 -31h-239l7 31q46 0 87 23q14 8 34 22t45 34q115 109 231 216l-170 333h-71l5 31 h330l-6 -31h-89q29 -57 56.5 -113.5t55.5 -113.5l183 155q35 32 35 50q0 4 -2 8q-10 12 -24 13q-3 1 -36 1l6 31h234z" />
<glyph unicode="&#x3a8;" horiz-adv-x="938" d="M988 630q-2 -36 -25 -64q-26 -32 -60 -32q-42 0 -40 38q2 24 19 43.5t40 27.5l2 9q1 21 -21 21q-62 0 -98 -113q-56 -171 -78 -206q-70 -109 -212 -103l-58 -220h93l-9 -31l-329 -3l9 34h85l58 222l-34 -2q-98 -5 -151 28q-65 40 -60 132q1 31 18 93q8 31 13 54t6 39 q2 34 -16 50.5t-52 13.5l9 34l38 1q63 3 104 -17q52 -25 49 -84q-1 -34 -21 -103t-21 -105q-3 -53 28 -78q28 -21 83 -21h17l99 371h-86l7 31h331l-8 -31h-94l-98 -371h14q115 -3 168 105q17 51 34 100.5t34 100.5q42 109 128 109q36 0 61 -17q26 -20 24 -56z" />
<glyph unicode="&#x3a9;" horiz-adv-x="858" d="M825 474q-8 -127 -105 -227q-92 -95 -220 -129l-4 -13l140 -1q36 0 48 17q5 12 11 24t11 23h39l-45 -168h-273l35 127q95 54 156 166q56 104 62 218q8 158 -134 158q-125 0 -203 -128q-65 -107 -72 -242q-6 -112 74 -172l-34 -127h-279l44 168h38q-1 -6 -2 -15t-3 -22 q-2 -27 41 -27h152l4 13q-111 32 -149 86q-35 48 -31 137q8 156 143 262q128 101 287 101q113 0 189 -58q85 -64 80 -171z" />
<glyph unicode="&#x3aa;" horiz-adv-x="490" d="M484 690l-5 -31h-94l-134 -628h94l-7 -31h-330l7 31h93l134 628h-94l6 31h330zM468 740q-24 0 -40.5 16t-16.5 38q0 30 25 52q26 23 54 23q23 0 40.5 -15.5t17.5 -37.5q0 -28 -26 -52t-54 -24zM196 740q-24 0 -41 16t-17 38q0 29 26 52t55 23q23 0 40 -15.5t17 -37.5 q0 -28 -26 -52t-54 -24z" />
<glyph unicode="&#x3ab;" horiz-adv-x="689" d="M742 613q-6 -28 -35 -51t-57 -23q-21 0 -33 14t-8 36q13 45 51 56q6 1 6 11q0 22 -28 22q-8 0 -18 -3q-83 -23 -155 -184q-38 -86 -69 -228l-50 -232h94l-7 -31h-329l7 31h89l49 232q32 154 32 216q0 67 -26 121q-40 79 -159 85l4 25q67 0 132 -14q84 -20 112 -56 q51 -68 51 -170q0 -34 -6 -71h3q22 99 86 192q76 108 156 118q7 1 13 1.5t12 0.5q85 0 85 -75q0 -5 -0.5 -11t-1.5 -12zM567 745q-24 0 -40.5 16t-16.5 38q0 15 6.5 28.5t18 24t25.5 16.5t29 6q23 0 40 -15.5t17 -37.5q0 -28 -26 -52t-53 -24zM295 745q-24 0 -41 16t-17 38 q0 30 25 52q26 23 56 23q22 0 39 -15.5t17 -37.5q0 -26 -26 -52q-26 -24 -53 -24z" />
<glyph unicode="&#x3ac;" horiz-adv-x="668" d="M557 690q0 -25 -26 -46l-145 -115h-39l107 155q26 38 55 38q16 0 32 -8.5t16 -23.5zM668 454l-189 -284q12 -82 71 -82q33 0 62 25v-5q0 -39 -29 -80q-32 -44 -68 -44q-67 0 -67 103q0 16 3 48q-43 -63 -103 -104q-70 -47 -136 -47q-75 0 -124 51q-50 52 -50 125 q0 118 90 213q91 94 209 94q108 0 108 -116q0 -22 -3 -44l78 147h148zM410 269q0 135 -68 135q-73 0 -134 -120q-54 -107 -54 -186q0 -77 58 -77q54 0 129 110q69 100 69 138z" />
<glyph unicode="&#x3ad;" horiz-adv-x="500" d="M498 691q0 -26 -27 -47l-145 -115h-39l108 155q26 38 55 38q16 0 30 -8q18 -9 18 -23zM482 417q0 -16 -32 -50q-32 -32 -48 -32q-93 31 -121 31q-45 0 -87 -16q-58 -21 -58 -57q0 -27 33 -27q17 0 50 13q37 14 57 14q19 0 34.5 -13.5t15.5 -31.5q0 -28 -30 -47 q-26 -18 -55 -18q-21 0 -51 12q-29 12 -37 12q-21 0 -38 -11q-20 -14 -20 -34q0 -36 48 -52q34 -12 78 -12q111 0 220 59q-2 -74 -84 -128q-76 -47 -152 -47q-175 0 -175 113q0 49 30 91q30 43 78 53q-51 18 -51 67q0 79 70 122q58 37 142 37q26 0 51.5 -2t50.5 -6 q81 -14 81 -40z" />
<glyph unicode="&#x3ae;" horiz-adv-x="564" d="M511 690q0 -25 -27 -46l-145 -115h-39l107 155q26 38 56 38q16 0 30 -8q18 -9 18 -24zM528 374q0 -59 -29 -158q-26 -87 -39.5 -133t-15.5 -53q-30 -119 -30 -230q0 -22 -30 -32q-24 -8 -49 -8q-70 0 -70 46q0 66 97 282q98 219 98 269q0 38 -36 38q-47 0 -101 -82 q-40 -63 -84 -170q-14 -35 -27.5 -71t-27.5 -71h-129q18 37 36 73t35 72q42 94 42 149q0 50 -44 50q-8 0 -21.5 -8.5t-22.5 -8.5q-16 0 -27 17q-9 13 -9 31q0 19 7.5 35.5t20.5 28.5t30.5 18.5t36.5 6.5q71 0 71 -85q0 -36 -14 -100q90 186 232 186q100 0 100 -92z" />
<glyph unicode="&#x3af;" horiz-adv-x="316" d="M376 671q0 -26 -27 -47l-145 -115h-39l108 155q26 38 55 38q16 0 30 -8q18 -9 18 -23zM261 97q0 -47 -36 -80q-35 -33 -82 -33q-95 0 -95 93q0 37 31 195q31 166 42 178q16 18 70 18q70 0 70 -18q0 -40 -77 -168q-76 -125 -76 -169q0 -30 39 -30q55 0 92 55q22 -3 22 -41 z" />
<glyph unicode="&#x3b0;" horiz-adv-x="613" d="M630 606q0 -29 -26 -53q-26 -23 -53 -23q-23 0 -40 15.5t-17 37.5q0 30 25 52q25 24 54 24q23 0 40 -15.5t17 -37.5zM491 683q0 -26 -27 -45l-145 -115h-39l107 155q35 50 55 50q7 0 16 -4t16 -10.5t12 -14.5t5 -16zM266 606q0 -29 -26 -53q-26 -23 -53 -23 q-23 0 -40.5 15.5t-17.5 38.5q0 29 26 52t55 23q22 0 39 -15.5t17 -37.5zM568 291q0 -135 -103 -223q-98 -84 -232 -84q-74 0 -124 41q-55 43 -55 116q0 52 35 128q36 75 36 106q0 6 -4 11.5t-9 10.5t-9 9.5t-4 7.5q0 23 40 39q32 13 61 13q63 0 63 -68q0 -53 -47 -152 q-47 -97 -47 -151q0 -33 17 -55t49 -22q76 0 146 130q63 117 63 201q0 27 -15 65q-15 37 -15 41t12 10q10 5 18 5q46 0 88 -69q36 -62 36 -110z" />
<glyph unicode="&#x3b1;" horiz-adv-x="668" d="M668 454l-189 -284q12 -82 71 -82q33 0 62 25v-5q0 -39 -29 -80q-32 -44 -68 -44q-67 0 -67 103q0 16 3 48q-43 -63 -103 -104q-70 -47 -136 -47q-75 0 -124 51q-50 52 -50 125q0 118 90 213q91 94 209 94q108 0 108 -116q0 -22 -3 -44l78 147h148zM410 269 q0 135 -68 135q-73 0 -134 -120q-54 -107 -54 -186q0 -77 58 -77q54 0 129 110q69 100 69 138z" />
<glyph unicode="&#x3b2;" horiz-adv-x="597" d="M589 580q0 -29 -8.5 -56.5t-24.5 -52.5t-37.5 -45.5t-46.5 -34.5q43 -22 69 -64.5t26 -91.5q0 -106 -81 -181q-81 -74 -190 -70q-48 1 -96 34q-45 31 -62 78q-25 -126 -24 -283q0 -17 -25 -27q-21 -8 -40 -8q-63 0 -63 37q0 17 27 97q17 48 25.5 73t9.5 29q2 7 14 77 t35 204q31 189 86 282q77 128 221 128q185 0 185 -125zM489 599q0 75 -68 75q-153 0 -268 -529q37 -85 118 -85q79 0 131 82q47 73 47 154q0 50 -21 74q-43 -29 -102 -29q-23 0 -39 12t-16 34q2 41 41 51q12 3 68 3q45 0 79 58q30 51 30 100z" />
<glyph unicode="&#x3b3;" horiz-adv-x="582" d="M606 423q0 -28 -13 -55l-93 -39q-20 -10 -41.5 -26.5t-43.5 -40.5q-56 -61 -85 -132q-23 -54 -33 -135q-5 -38 -9.5 -76t-9.5 -76q-11 -81 -81 -81q-58 0 -58 45q0 20 42 133q43 110 43 190q0 82 -20 142q-30 87 -96 87q-36 0 -75 -18q-2 57 38 91q37 34 93 34 q116 0 116 -215q0 -17 -3 -58.5t-8 -107.5q22 72 48 132t55 109q90 149 194 149q27 0 34 -13q6 -9 6 -39z" />
<glyph unicode="&#x3b4;" horiz-adv-x="615" d="M621 575q0 -21 -32 -50t-54 -36q-173 168 -244 168l-23 -7l-1 -9q0 -42 76 -99q65 -48 100 -75t42 -33q77 -74 77 -154q0 -134 -99 -218q-93 -78 -229 -78q-81 0 -135 48q-57 49 -57 130q0 113 83 191q82 79 197 79q45 0 90 -14q-29 22 -59 43t-59 42q-80 62 -80 106 q0 47 45 76q39 24 89 24q51 0 156 -46q117 -50 117 -88zM431 324q0 41 -12 62q-27 12 -53 12q-82 0 -145 -113q-54 -98 -54 -188q0 -82 63 -82q71 0 140 121q61 109 61 188z" />
<glyph unicode="&#x3b5;" horiz-adv-x="484" d="M482 417q0 -16 -32 -50q-32 -32 -48 -32q-93 31 -121 31q-45 0 -87 -16q-58 -21 -58 -57q0 -27 33 -27q17 0 50 13q37 14 57 14q19 0 34.5 -13.5t15.5 -31.5q0 -28 -30 -47q-26 -18 -55 -18q-21 0 -51 12q-29 12 -37 12q-21 0 -38 -11q-20 -14 -20 -34q0 -36 48 -52 q34 -12 78 -12q111 0 220 59q-2 -74 -84 -128q-76 -47 -152 -47q-175 0 -175 113q0 49 30 91q30 43 78 53q-51 18 -51 67q0 79 70 122q58 37 142 37q26 0 51.5 -2t50.5 -6q81 -14 81 -40z" />
<glyph unicode="&#x3b6;" horiz-adv-x="430" d="M523 651q-3 -33 -110 -101q-144 -89 -197 -141q-105 -102 -105 -223q0 -72 74 -87q33 -5 66 -9t67 -8q70 -19 65 -104q-5 -67 -66 -131t-137 -84q-11 -3 -22 -3q-27 0 -47 15t-20 43q0 63 69 69q26 2 50 -11q25 -13 40 -15q29 -2 44.5 17t15.5 45q0 42 -32 53 q-16 6 -63 5q-175 -1 -175 147q0 115 83 243q67 105 174 196q-33 -12 -76 -9q-102 5 -96 89q5 59 77 72q19 3 42 -3.5t35 -20.5q-37 -19 -37 -50q0 -8 1 -12q7 -37 81 -37q14 14 28.5 29t28.5 29q49 46 95 46q22 0 35.5 -13.5t11.5 -35.5z" />
<glyph unicode="&#x3b7;" horiz-adv-x="564" d="M528 374q0 -59 -29 -158q-26 -87 -39.5 -133t-15.5 -53q-30 -119 -30 -230q0 -22 -30 -32q-24 -8 -49 -8q-70 0 -70 46q0 66 97 282q98 219 98 269q0 38 -36 38q-47 0 -101 -82q-40 -63 -84 -170q-14 -35 -27.5 -71t-27.5 -71h-129q18 37 36 73t35 72q42 94 42 149 q0 50 -44 50q-8 0 -21.5 -8.5t-22.5 -8.5q-16 0 -27 17q-9 13 -9 31q0 19 7.5 35.5t20.5 28.5t30.5 18.5t36.5 6.5q71 0 71 -85q0 -36 -14 -100q90 186 232 186q100 0 100 -92z" />
<glyph unicode="&#x3b8;" horiz-adv-x="540" d="M537 480q0 -157 -78 -311q-93 -185 -235 -185q-89 0 -132 79q-35 65 -35 160q0 166 78 310q95 173 245 173q81 0 123 -76q34 -61 34 -150zM416 606q0 74 -40 74q-52 0 -101 -111q-31 -69 -52 -155l169 -1q24 151 24 193zM385 371h-174q-39 -156 -39 -249q0 -108 59 -108 q48 0 101 156q16 46 29 96t24 105z" />
<glyph unicode="&#x3b9;" horiz-adv-x="289" d="M261 97q0 -47 -36 -80q-35 -33 -83 -33q-94 0 -94 93q0 34 30 195q31 166 42 178q16 18 71 18q69 0 69 -18q0 -40 -77 -168q-76 -125 -76 -169q0 -30 39 -30q56 0 92 55q23 -3 23 -41z" />
<glyph unicode="&#x3ba;" horiz-adv-x="580" d="M578 418q0 -43 -57 -91q-17 -15 -93 -66q-22 -87 -22 -113q0 -45 40 -45q7 0 18.5 4.5t17.5 4.5q41 0 41 -54q0 -36 -38 -57q-32 -17 -71 -17q-69 0 -69 83q0 65 42 164q-23 -19 -46 -37l-46 -36q-58 -47 -85 -80q-8 -11 -16 -21t-16 -21q-20 -25 -40 -36 q-28 -16 -67 -16q-47 0 -47 33q0 57 145 151q22 66 22 109q0 65 -54 65q-6 0 -18 -4.5t-19 -4.5q-21 0 -21 33q0 40 31 68q31 30 71 30q85 0 85 -86q0 -67 -51 -173q23 18 45.5 36t45.5 36q28 23 48 43t33 37q20 28 34.5 45.5t22.5 25.5q38 35 81 35q53 0 53 -45z" />
<glyph unicode="&#x3bb;" horiz-adv-x="550" d="M532 70q0 -31 -27 -59q-25 -28 -57 -28q-107 0 -107 166q0 54 4.5 117t12.5 135q-69 -158 -91 -203q-27 -57 -52.5 -106.5t-50.5 -91.5h-162q27 38 72.5 104.5t111.5 163.5q160 235 160 247q0 84 -63 84q-7 0 -17.5 -1t-25.5 -3t-26 -3t-19 -1q-50 0 -50 47q0 32 23.5 52 t56.5 20q95 0 143 -96q36 -72 48 -207q2 -49 5 -97t5 -96q2 -17 3.5 -30.5t3.5 -21.5q8 -33 23 -45q6 -6 46 -18q30 -11 30 -29z" />
<glyph unicode="&#x3bc;" horiz-adv-x="630" d="M595 139q2 -44 -35 -98q-37 -58 -80 -58q-68 0 -60 114q-32 -39 -78 -72q-55 -40 -95 -40q-118 0 -143 124q-4 -36 -6 -63.5t-2 -46.5q0 -45 23 -102q24 -57 24 -75q0 -23 -30 -41q-29 -19 -54 -19q-60 0 -60 64q0 79 46 232q26 86 40.5 145.5t18.5 94.5q9 84 19 109 q22 58 80 58q68 0 68 -41q0 -13 -47 -134t-47 -189q0 -78 73 -78t111 114q13 54 26 106.5t27 106.5q34 115 107 115q52 0 52 -44q0 -50 -46 -148q-35 -77 -75 -138q1 -21 20 -33t41 -12q39 0 82 49z" />
<glyph unicode="&#x3bd;" horiz-adv-x="545" d="M515 338q0 -23 -8 -52q-25 -82 -104 -165q-67 -70 -155 -122q-43 -25 -46 -25h-49q13 57 19.5 100.5t6.5 75.5q0 92 -28 141q-13 24 -51 56q-28 22 -28 48q0 32 25 51t58 19q105 0 105 -154q0 -86 -43 -228q87 75 148 178q68 119 67 218q83 -48 83 -141z" />
<glyph unicode="&#x3be;" horiz-adv-x="460" d="M548 667q4 -56 -79 -79q-59 -15 -134 -11q-100 -51 -124 -142q-6 -24 -6 -43q0 -30 14 -50q60 60 160 60q66 0 64 -44q-1 -36 -50 -56q-17 -7 -38 -11t-44 -5q-8 -1 -20.5 0.5t-29.5 3.5q-36 6 -45 10q-94 -64 -86 -144q6 -61 70 -61q7 0 16 0.5t22 1.5q25 3 38 3 q158 0 157 -102q-1 -205 -191 -237q-24 -4 -49 12q-28 16 -26 41q4 69 39 69q9 0 20 -3q42 -12 85 -10q28 1 52 25q25 22 23 49q-3 40 -76 40q-7 0 -19.5 -0.5t-30.5 -1.5t-32 -1.5t-24 -0.5q-74 0 -111 24q-51 31 -54 112q-2 66 49 125q43 49 105 80q-67 31 -67 90 q0 46 60 102q48 43 102 69q-142 0 -142 70q0 34 37 56q31 19 66 19q43 0 58 -21q-28 -34 -28 -54q0 -36 28 -45q122 101 183 101q22 0 39 -12t19 -29z" />
<glyph unicode="&#x3bf;" horiz-adv-x="604" d="M572 284q0 -122 -99 -212q-98 -89 -220 -89q-45 0 -82.5 13.5t-64.5 38.5t-41.5 61t-14.5 81q0 128 92 214q89 82 220 82q90 0 148 -49q62 -53 62 -140zM437 363q0 79 -57 79q-84 0 -148 -133q-57 -116 -57 -208q0 -84 64 -84q76 0 141 137q57 120 57 209z" />
<glyph unicode="&#x3c0;" horiz-adv-x="703" d="M701 454l-25 -119h-178q-38 -122 -38 -166q0 -62 75 -62q55 0 85 36v-6q0 -46 -45 -98q-47 -56 -90 -56q-48 0 -74 28.5t-26 77.5q0 78 49 246h-126q-7 -32 -14 -65t-14 -65q-23 -95 -53 -151q-39 -73 -89 -73q-32 0 -52 21t-20 53q0 28 37 50q54 34 79 63q49 58 72 168 h-47q-20 0 -41 -5.5t-40.5 -15.5t-36.5 -23.5t-29 -29.5l-12 39q82 153 221 153h432z" />
<glyph unicode="&#x3c1;" horiz-adv-x="637" d="M603 290q0 -132 -100 -222q-96 -87 -228 -87q-63 0 -108.5 38.5t-60.5 99.5q-10 -46 -10 -86q0 -52 21 -91q7 -15 39 -54q21 -26 21 -46q0 -30 -36 -54q-35 -24 -67 -24q-50 0 -50 109q0 216 84 384q103 210 298 210q84 0 138 -45q59 -50 59 -132zM475 362q0 75 -59 75 q-82 0 -149 -133q-57 -114 -57 -207q0 -85 65 -85q72 0 140 141q60 124 60 209z" />
<glyph unicode="&#x3c2;" horiz-adv-x="507" d="M497 435q0 -59 -32 -82q-26 -17 -84 -17q-102 0 -184 -42q-102 -51 -102 -143q0 -52 99 -52q7 0 16.5 0.5t19 0.5t17 0.5t10.5 0.5q139 0 139 -114q0 -84 -61 -152q-65 -72 -145 -72q-83 0 -83 51q0 30 21 49.5t52 19.5q16 0 43 -13t43 -13q33 0 52 22.5t19 56.5 q0 46 -76 52q-128 10 -141 15q-76 24 -76 113q0 156 129 257q118 93 280 93q24 0 31 -4q13 -4 13 -27z" />
<glyph unicode="&#x3c3;" horiz-adv-x="636" d="M648 434q0 -22 -9 -47q-9 -29 -22 -42l-200 7q54 -9 88 -42q39 -38 39 -88q0 -105 -105 -175q-93 -63 -202 -63q-80 0 -132 48q-51 49 -51 129q0 125 98 211q92 82 221 82h270q5 -8 5 -20zM413 266q0 34 -14 59q-16 28 -50 28q-77 0 -138 -85q-55 -76 -55 -158 q0 -35 17 -63q19 -31 54 -31q63 0 126 95q60 88 60 155z" />
<glyph unicode="&#x3c4;" horiz-adv-x="507" d="M522 454l-25 -119h-193q-8 -22 -17 -44t-17 -44q-20 -57 -20 -89q0 -54 73 -54q54 0 84 37l1 -10q0 -49 -43 -98t-91 -49q-101 0 -101 101q0 51 26 127q11 31 23 62t23 62h-75q-78 0 -142 -67l-16 33q31 67 84 108q58 44 127 44h299z" />
<glyph unicode="&#x3c5;" horiz-adv-x="602" d="M568 291q0 -135 -103 -223q-98 -84 -232 -84q-73 0 -125 41q-54 43 -54 116q0 52 35 128q36 75 36 106q0 6 -4 11.5t-9 10.5t-9 9.5t-4 7.5q0 23 40 39q32 13 61 13q63 0 63 -68q0 -53 -47 -152q-47 -97 -47 -151q0 -33 17 -55t49 -22q76 0 146 130q63 117 63 201 q0 27 -15 65q-15 37 -15 41t12 10q10 5 17 5q47 0 88 -69q37 -61 37 -110z" />
<glyph unicode="&#x3c6;" horiz-adv-x="743" d="M714 315q0 -142 -114 -236q-106 -88 -250 -95q-4 -19 -4 -45q0 -8 0.5 -20t1.5 -28q3 -33 3 -51q0 -36 -24 -57t-61 -21q-65 0 -65 43q0 20 32 86q37 77 42 92q-96 1 -153 40q-68 45 -68 136q0 107 83 211q88 109 194 109q20 0 26.5 -3.5t6.5 -20.5q0 -47 -51 -89 q-88 -72 -94 -79q-51 -59 -51 -147q0 -54 31 -85.5t85 -30.5q9 46 18 91t19 90q26 123 65 181q55 82 148 82q75 0 125 -38q55 -42 55 -115zM567 327q0 78 -69 78q-48 0 -77 -74q-9 -25 -27 -115q-8 -32 -17.5 -80t-20.5 -112q92 14 155 114q56 91 56 189z" />
<glyph unicode="&#x3c7;" horiz-adv-x="580" d="M604 454l-264 -347l-2 -90q-5 -132 47 -132q13 0 32 10q20 10 32 10q47 0 47 -57q0 -40 -40 -65q-34 -22 -78 -22q-95 0 -95 127q0 17 4.5 59.5t12.5 110.5q-35 -48 -85.5 -118.5t-119.5 -166.5h-145q69 81 147 182t169 226q-6 72 -20 108q-24 61 -79 61q-10 0 -18.5 -4 t-15.5 -8.5t-13 -8t-11 -3.5q-18 0 -28.5 15t-10.5 34q0 45 27 68.5t73 23.5q89 0 115 -81q13 -38 17 -160q52 75 153 228h149z" />
<glyph unicode="&#x3c8;" horiz-adv-x="720" d="M690 327q0 -151 -99 -245q-98 -95 -248 -98q-1 -22 -1.5 -43t-1.5 -43q-3 -60 -17 -93q-19 -43 -63 -43q-56 0 -56 42q0 20 25 89q8 23 16.5 45.5t16.5 45.5q-99 8 -155.5 68.5t-56.5 157.5q0 86 37 161q47 95 121 95q67 0 67 -42q0 -1 -26 -45q-31 -52 -49 -98 q-26 -69 -26 -125q0 -116 100 -137q36 130 63 321q11 81 22.5 161t22.5 161q5 24 37 37q27 11 53 11q20 0 37 -9q22 -10 22 -29q0 -5 -86 -301q-90 -306 -99 -353q97 22 159 141q55 103 55 214q0 14 -6 43q-2 14 -3.5 25t-1.5 18q0 15 31 15q52 0 83 -49q27 -44 27 -98z" />
<glyph unicode="&#x3c9;" horiz-adv-x="779" d="M745 260q0 -122 -88 -201q-84 -75 -206 -75q-36 0 -63 27q-26 24 -33 61q-70 -88 -181 -88q-61 0 -100 59q-34 52 -34 116q0 99 73 199q78 107 173 107q51 0 51 -31q0 -19 -44 -63q-59 -56 -82 -90q-44 -65 -44 -139q0 -42 19 -68q21 -31 60 -31q27 0 50 17.5t31 43.5 q-11 31 -11 79q0 111 89 111q57 0 57 -44q0 -29 -22 -77q-21 -49 -43 -69l-1 -8q0 -10 5 -20t13 -17.5t18.5 -12.5t21.5 -5q70 0 115 86q38 71 38 148q0 49 -22 89q-14 27 -40 54q-21 22 -21 29q0 17 37 17q70 0 127 -66t57 -138z" />
<glyph unicode="&#x3ca;" horiz-adv-x="340" d="M440 603q0 -28 -26 -52t-53 -24q-23 0 -40.5 15.5t-17.5 38.5q0 30 25 52q26 23 55 23q22 0 39.5 -15.5t17.5 -37.5zM168 603q0 -28 -26 -52t-53 -24q-23 0 -41 15.5t-18 38.5q0 29 26 52t56 23q22 0 39 -15.5t17 -37.5zM281 97q0 -47 -36 -80q-35 -33 -82 -33 q-95 0 -95 93q0 34 30 195q31 166 43 178q15 18 70 18q70 0 70 -18q0 -40 -77 -168q-76 -125 -76 -169q0 -30 39 -30q55 0 92 55q22 -3 22 -41z" />
<glyph unicode="&#x3cb;" horiz-adv-x="590" d="M561 606q0 -28 -25 -52q-26 -24 -54 -24q-23 0 -40 16t-17 38q0 30 25 52q26 23 54 23q23 0 40 -15t17 -38zM289 606q0 -28 -26 -52t-53 -24q-23 0 -40.5 16t-17.5 39q0 28 26 51t55 23q23 0 39.5 -15t16.5 -38zM555 291q0 -135 -103 -223q-98 -84 -232 -84 q-74 0 -124 41q-55 43 -55 116q0 52 35 128q36 75 36 106q0 6 -4 11.5t-9 10.5t-9 9.5t-4 7.5q0 23 40 39q32 13 61 13q63 0 63 -68q0 -53 -47 -152q-47 -97 -47 -151q0 -33 17 -55t49 -22q76 0 146 130q63 117 63 201q0 27 -15 65q-15 37 -15 41t12 10q10 5 18 5 q46 0 88 -69q36 -62 36 -110z" />
<glyph unicode="&#x3cc;" horiz-adv-x="604" d="M572 284q0 -122 -99 -212q-98 -89 -220 -89q-45 0 -82.5 13.5t-64.5 38.5t-41.5 61t-14.5 81q0 128 92 214q89 82 220 82q90 0 148 -49q62 -53 62 -140zM437 363q0 79 -57 79q-84 0 -148 -133q-57 -116 -57 -208q0 -84 64 -84q76 0 141 137q57 120 57 209zM562 717 q16 -7 16 -23q0 -24 -26 -45l-145 -116h-39l107 156q25 36 54 36q9 0 33 -8z" />
<glyph unicode="&#x3cd;" horiz-adv-x="603" d="M541 690q0 -25 -26 -46l-145 -115h-39l108 155q25 37 55 37q17 0 30 -7q17 -11 17 -24zM568 291q0 -135 -103 -223q-98 -84 -232 -84q-74 0 -124 41q-55 43 -55 116q0 52 35 128q36 75 36 106q0 6 -4 11.5t-9 10.5t-9 9.5t-4 7.5q0 23 40 39q32 13 61 13q63 0 63 -68 q0 -53 -47 -152q-47 -97 -47 -151q0 -33 17 -55t49 -22q76 0 146 130q63 117 63 201q0 27 -15 65q-15 37 -15 41t12 10q10 5 18 5q46 0 88 -69q36 -62 36 -110z" />
<glyph unicode="&#x3ce;" horiz-adv-x="771" d="M639 690q0 -25 -26 -46l-145 -115h-39l107 155q26 38 55 38q16 0 32 -8.5t16 -23.5zM744 261q0 -123 -87 -202q-84 -75 -207 -75q-36 0 -63 27q-24 24 -33 61q-70 -88 -180 -88q-61 0 -100 59q-34 52 -34 116q0 98 72 199q78 107 173 107q52 0 52 -31q0 -21 -44 -63 q-30 -29 -50.5 -51t-31.5 -38q-44 -65 -44 -140q0 -42 19 -68q21 -31 60 -31q27 0 50 17.5t31 43.5q-12 31 -12 82q0 108 89 108q57 0 57 -44q0 -29 -22 -77q-21 -49 -43 -69v-8q-1 -19 18 -37t40 -18q70 0 115 86q38 71 38 147q0 49 -22 89q-14 27 -40 54q-22 23 -22 30 q0 17 37 17q71 0 127 -66q57 -65 57 -137z" />
<glyph unicode="&#x3d0;" horiz-adv-x="617" d="M569 198q-26 -101 -119 -160q-76 -49 -160 -52q-61 -3 -109 14.5t-81 51t-50.5 83t-17.5 111.5q0 86 34 185q44 134 154 211q95 67 201 67q74 0 122 -36q52 -39 52 -105q0 -18 -4 -34q-8 -41 -40 -81q-33 -40 -74 -63q43 -21 70 -62t27 -89q0 -19 -5 -41zM434 234 q9 55 9 76q0 36 -17 59q-41 -26 -100 -26q-21 0 -40 13t-19 34q0 12 6 24q13 27 42 27q5 0 28 -3q10 -1 17.5 -1.5t12.5 0.5q43 8 80 52q34 41 41 81q3 12 3 23q0 32 -18.5 52t-54.5 19q-65 -3 -141 -105q-63 -87 -112 -213q-46 -118 -42 -178q8 -113 118 -119q64 -4 121 57 q54 59 66 128z" />
<glyph unicode="&#x3d1;" horiz-adv-x="560" d="M535 393l-7 -32l47 -12l-7 -34l-48 13q-96 -336 -320 -344q-162 -5 -171 114q-3 43 21 175q1 5 1.5 9t0.5 8q0 18 -14 29t-14 21q0 6 1 9q3 15 42 28q34 12 51 12q61 0 61 -66q0 -9 -1.5 -19t-3.5 -21q-5 -22 -11 -43t-11 -43q-14 -65 -14 -101q0 -86 71 -81 q69 5 124 139q34 78 53 173l6 28q-256 22 -256 163q0 16 5 36q20 74 84 116q59 38 129 38q95 0 145 -72q45 -62 45 -161q0 -42 -9 -82zM400 397q18 115 18 172q0 104 -45 109q-50 5 -80 -35q-30 -39 -30 -94q0 -21 4 -38q13 -66 133 -114z" />
<glyph unicode="&#x3d5;" horiz-adv-x="640" d="M312 -10q-1 -26 -4.5 -68.5t-9.5 -101.5q-7 -55 -65 -55q-51 0 -51 37q0 8 3 16q4 15 12 36.5t20 50.5q11 26 18 47t11 36q-94 1 -154 55q-58 52 -58 133q0 114 104 204q96 83 214 93q2 8 5 22.5t6 34.5q1 40 9 57q10 24 38 24q30 0 30 -26q0 -16 -13 -55l-15 -57 q96 -8 151 -65q51 -54 51 -133q0 -113 -94 -198q-93 -86 -208 -87zM472 226q12 51 12 92q0 120 -81 120q-17 -60 -38.5 -162.5t-46.5 -249.5q51 4 93 58t61 142zM348 437q-55 0 -106 -62q-49 -61 -69 -157q-6 -30 -6 -59q0 -58 23 -95.5t65 -38.5q11 43 22 85t22 85 q14 58 26.5 118t22.5 124z" />
<glyph unicode="&#x3d6;" horiz-adv-x="925" d="M917 341h-112q19 -38 19 -82q0 -20 -4 -36q-24 -111 -100 -175q-74 -64 -181 -64q-85 0 -104 88q-70 -88 -182 -88q-67 0 -104 48q-35 44 -35 111q0 108 70 199h-17q-20 0 -41 -5.5t-40.5 -15.5t-37 -24t-29.5 -30l-12 40q37 69 93 109q62 44 129 44h713zM686 219 q5 28 5 50q0 40 -13 72l-345 1q-38 -36 -67 -98q-27 -60 -27 -111q0 -90 83 -90q25 0 50.5 17.5t34.5 43.5q-19 49 -4 121q16 73 82 73q22 0 37 -13t15 -33q0 -26 -27 -75q-30 -56 -33 -73q-5 -21 16 -42q23 -20 44 -20q57 0 101 63q34 49 48 114z" />
<glyph unicode="&#x3d8;" horiz-adv-x="718" d="M736 434q-12 -70 -42 -116.5t-81 -84.5q-35 -26 -75.5 -43t-88.5 -24l8 1l-23 -132h92l-6 -35h-320l6 35h93l23 133l15 -2q-45 8 -80 25t-60 43q-35 38 -50 85t-3 115q13 70 43 117t81 85q46 35 99 53t121 18q67 0 114.5 -18t81.5 -53q37 -38 50.5 -85t1.5 -117zM591 433 q10 57 7 98t-15 71h1q-16 34 -40 52t-62 18t-68.5 -18t-57.5 -52h1q-23 -30 -40 -69t-28 -97q-11 -59 -7 -98.5t16 -69.5h-1q15 -34 39 -52t62 -18t68.5 18t58.5 52h-1q23 30 39.5 69t27.5 96z" />
<glyph unicode="&#x3d9;" d="M233 -168q-2 -20 -15 -38q-16 -25 -44 -25q-39 0 -39 35q0 23 28 86q16 38 25.5 62.5t11.5 34.5q-81 8 -129 57t-48 127q0 25 6 52q22 108 109 179q85 72 196 72q45 0 82 -13t63.5 -37t40.5 -58t14 -76q0 -29 -7 -56q-20 -95 -104 -167q-84 -73 -179 -81 q-2 -32 -4.5 -70.5t-6.5 -83.5zM324 445q-64 0 -123 -107q-56 -103 -56 -203q0 -124 93 -122q55 0 112 113q56 110 56 208q0 111 -82 111z" />
<glyph unicode="&#x3da;" horiz-adv-x="713" d="M247 214q17 -28 36 -39t42 -11q18 0 36 6t44 24h133l-34 -194h-139l24 140q-25 -10 -48.5 -12.5t-40.5 -2.5q-48 0 -88 12t-66 41q-41 45 -52 100t0 115q13 75 48.5 136t86.5 98q47 35 105.5 49t130.5 14h352l-22 -124h-286q-21 0 -44.5 -0.5t-46.5 -3t-45 -8t-40 -15.5 q-42 -23 -65 -58.5t-34 -95.5q-8 -50 -6.5 -96t19.5 -75z" />
<glyph unicode="&#x3db;" horiz-adv-x="705" d="M575 469q84 0 129 27l-2 -11q-10 -63 -54.5 -101t-104.5 -45q-80 1 -129.5 1t-69.5 -2q-249 -19 -281 -167q-1 -5 -1.5 -9t-0.5 -8q0 -55 103 -55q6 0 15 0.5t18 0.5t17 0.5t12 0.5q140 0 140 -109q0 -20 -6 -45q-15 -71 -71 -126q-59 -58 -131 -58q-32 0 -53 10 q-29 14 -29 39q0 31 20.5 51t52.5 20q17 0 43 -13q27 -13 44 -13q55 0 67 57q3 10 3 20q0 46 -77 54q-131 12 -143 16q-77 26 -77 115q0 15 2 32t6 37q29 132 155 209q112 69 249 69q20 0 154 3z" />
<glyph unicode="&#x3dc;" horiz-adv-x="760" d="M762 467l-41 -203h-42q7 81 -23 121t-126 42l-159 3l-60 -283h240l-34 -161h-37q14 57 -4.5 89.5t-56.5 32.5h-117l-63 -300h94l-7 -31h-325l7 31h94l133 628h-94l7 31h614z" />
<glyph unicode="&#x3de;" d="M233 -168q-2 -20 -15 -38q-16 -25 -44 -25q-39 0 -39 35q0 23 28 86q16 38 25.5 62.5t11.5 34.5q-81 8 -129 57t-48 127q0 25 6 52q22 108 109 179q85 72 196 72q45 0 82 -13t63.5 -37t40.5 -58t14 -76q0 -29 -7 -56q-20 -95 -104 -167q-84 -73 -179 -81 q-2 -32 -4.5 -70.5t-6.5 -83.5zM324 445q-64 0 -123 -107q-56 -103 -56 -203q0 -124 93 -122q55 0 112 113q56 110 56 208q0 111 -82 111z" />
<glyph unicode="&#x3e0;" horiz-adv-x="754" d="M584 -83h-102l8 48q7 38 10 69t4 58t-1 53t-6 54l-255 -182l-30 47l274 197q-7 23 -14 43t-26 50l-284 -202l-31 47l280 201q-48 56 -129.5 85t-207.5 29l2 29q26 3 49.5 5t45.5 2q258 0 367 -166q108 -161 57 -402z" />
<glyph unicode="&#x48c;" horiz-adv-x="716" d="M706 174q-38 -174 -274 -174h-399l6 31h94l110 518h-65l9 39h65l21 102h141l-21 -102h88l-9 -39h-88l-38 -181q166 0 229 -15q136 -31 136 -136q0 -18 -5 -43zM551 176q6 25 6 46q0 74 -71 97q-42 15 -147 15l-65 -303h95q64 0 116 40t66 105z" />
<glyph unicode="&#x48d;" horiz-adv-x="503" d="M480 185q-20 -92 -104 -146q-77 -48 -175 -52q-26 -2 -68 6q-46 7 -65 20l-30 -21l-13 5q8 23 14.5 49.5t13.5 58.5l53 249h-48l9 42h48l12 58h124l-13 -58h97l-9 -42h-97l-21 -101l95 48q9 5 34 6q31 3 52 -1q41 -8 66 -31q28 -27 28 -66q0 -11 -3 -24zM340 147 q4 15 4 33q0 68 -64 68q-18 0 -45 -13q-29 -12 -35 -20l-33 -154q15 -34 56 -34q36 0 68 30q35 32 49 90z" />
<glyph unicode="&#x4d2;" horiz-adv-x="712" d="M688 31l-7 -31h-293l7 31h80l-25 198h-244l-56 -91q-36 -59 -36 -86q0 -5 2 -11q4 -10 62 -10l-7 -31h-218l7 31q53 -2 74 11q30 17 76 96l339 572h72l91 -679h76zM443 266l-39 294l-174 -294h213zM626 745q-24 0 -40.5 16t-16.5 38q0 30 25 52q26 23 54 23 q23 0 40.5 -15.5t17.5 -37.5q0 -28 -26 -52t-54 -24zM354 745q-24 0 -41 16t-17 38q0 29 26 52t55 23q23 0 40 -15.5t17 -37.5q0 -28 -26 -52t-54 -24z" />
<glyph unicode="&#x4d3;" d="M519 82q-108 -99 -176 -99q-30 0 -30 43q0 30 7 57l35 142l-2 2q-44 -84 -106 -152q-83 -92 -150 -92q-27 0 -41 26q-12 22 -12 51q0 59 24 148q25 95 57 133q8 9 25 24t43 36q58 46 85 58q23 10 67 10q39 0 99 -26l45 27l16 -12l-15 -43q-5 -14 -9 -29.5t-8 -32.5 l-45 -214q-10 -46 -10 -52q0 -20 14 -20q18 0 55 29l20 16zM377 395q-41 22 -77 22q-44 0 -63 -28q-29 -42 -57 -153q-24 -95 -24 -133t18 -38q21 0 54 35q73 76 120 185q20 48 29 110zM461 528q-24 0 -40.5 16t-16.5 38q0 30 25 52q26 23 54 23q23 0 40.5 -15.5t17.5 -37.5 q0 -28 -26 -52t-54 -24zM189 528q-24 0 -41 16t-17 38q0 29 26 52t55 23q23 0 40 -15.5t17 -37.5q0 -28 -26 -52t-54 -24z" />
<glyph unicode="&#x4d4;" horiz-adv-x="1090" d="M1127 690l-41 -203h-42q7 81 -23 121t-126 42l-159 3l-60 -283h117q44 0 68 25q30 33 44 92h37l-60 -278h-37q13 57 -5 89.5t-56 32.5h-117l-62 -294l182 3q28 0 70 15t67 34q72 56 96 151h39l-63 -240h-636l7 31h94l42 198h-255l-102 -105q-35 -35 -39 -42 q-19 -24 -15 -43q1 -8 18 -9q-5 1 4.5 1h34.5l-7 -31h-225l7 31q17 2 37.5 6t43.5 11q11 7 31.5 26.5t51.5 51.5l499 533h-87l7 31h620zM579 589l-299 -323h231z" />
<glyph unicode="&#x4e6;" horiz-adv-x="750" d="M699 339q-32 -149 -144 -252t-244 -103q-110 0 -182 79t-72 200q0 40 9 82q35 161 153 263q113 98 245 98q58 0 104.5 -18t78 -51.5t48.5 -81.5t17 -108q0 -53 -13 -108zM551 336q25 115 25 186q0 150 -119 150q-176 0 -246 -331q-10 -49 -15 -89t-5 -72q0 -158 130 -158 q91 0 150 89q49 75 80 225zM598 741q-24 0 -40.5 16t-16.5 38q0 30 25 52q26 23 54 23q23 0 40.5 -15.5t17.5 -37.5q0 -28 -26 -52t-54 -24zM326 741q-24 0 -41 16t-17 38q0 29 26 52t55 23q23 0 40 -15.5t17 -37.5q0 -28 -26 -52t-54 -24z" />
<glyph unicode="&#x4e7;" d="M502 308q0 -57 -23 -126q-22 -67 -60 -103q-101 -96 -218 -96q-82 0 -117.5 39.5t-35.5 121.5q0 56 24 127q22 67 60 102q102 96 218 96q152 0 152 -161zM388 332q0 38 -22 65.5t-58 27.5q-76 0 -116 -114q-30 -86 -30 -191q0 -39 21 -64q23 -29 59 -29q76 0 116 115 q30 85 30 190zM458 530q-24 0 -40.5 16t-16.5 38q0 30 25 52q26 23 54 23q23 0 40.5 -15.5t17.5 -37.5q0 -28 -26 -52t-54 -24zM186 530q-24 0 -41 16t-17 38q0 29 26 52t55 23q23 0 40 -15.5t17 -37.5q0 -28 -26 -52t-54 -24z" />
<glyph unicode="&#x1e80;" horiz-adv-x="1047" d="M1046 690l-7 -31q-26 1 -44 -2.5t-30.5 -9t-20 -12t-11.5 -10.5q-21 -23 -45 -73l-270 -572h-62l-71 534l-332 -534h-40l-27 679h-75l7 31h307l-7 -31h-77l22 -433l285 464h62l71 -485l164 346q26 57 26 85q0 10 -4 14q-11 9 -58 9l7 31h230zM608 747h-45l-123 82 q-44 29 -44 59q0 14 14.5 27t30.5 13q30 0 63 -44z" />
<glyph unicode="&#x1e81;" horiz-adv-x="833" d="M802 371q0 -114 -95 -247q-104 -141 -213 -141q-46 0 -72 32q-23 29 -23 78q0 14 2 33t6 43l-2 2q-30 -65 -84 -121q-66 -67 -127 -67q-54 0 -81 45q-22 35 -22 94q0 64 35 125q29 49 95 115l38 38l-2 2q-39 -10 -131 -10q-38 0 -43 -8l-28 -60h-28l41 132q34 6 74 5 q17 -2 62 -3q40 -3 52 -3q45 0 62 14l14 -19q-127 -137 -127 -304q0 -100 48 -100q39 0 86 62q51 68 72 161l11 48l13 61q4 17 6 32.5t4 31.5q51 4 107 27l12 -9q-7 -23 -16 -58t-21 -83q-31 -143 -31 -191q0 -32 13 -54q15 -28 45 -28q67 0 123 114q48 97 48 173 q0 56 -40 56q-22 0 -38 -8l-12 23q47 33 71 61q12 4 30 4q26 0 46 -32t20 -66zM330 719q22 9 33 9q29 0 54 -37l107 -156h-39l-145 116q-26 21 -26 46q0 16 16 22z" />
<glyph unicode="&#x1e82;" horiz-adv-x="1047" d="M1046 690l-7 -31q-26 1 -44 -2.5t-30.5 -9t-20 -12t-11.5 -10.5q-21 -23 -45 -73l-270 -572h-62l-71 534l-332 -534h-40l-27 679h-75l7 31h307l-7 -31h-77l22 -433l285 464h62l71 -485l164 346q26 57 26 85q0 10 -4 14q-11 9 -58 9l7 31h230zM772 930q16 -7 16 -23 q0 -24 -26 -45l-145 -116h-39l107 156q25 36 54 36q9 0 33 -8z" />
<glyph unicode="&#x1e83;" horiz-adv-x="833" d="M802 371q0 -114 -95 -247q-104 -141 -213 -141q-46 0 -72 32q-23 29 -23 78q0 14 2 33t6 43l-2 2q-30 -65 -84 -121q-66 -67 -127 -67q-54 0 -81 45q-22 35 -22 94q0 64 35 125q29 49 95 115l38 38l-2 2q-39 -10 -131 -10q-38 0 -43 -8l-28 -60h-28l41 132q34 6 74 5 q17 -2 62 -3q40 -3 52 -3q45 0 62 14l14 -19q-127 -137 -127 -304q0 -100 48 -100q39 0 86 62q51 68 72 161l11 48l13 61q4 17 6 32.5t4 31.5q51 4 107 27l12 -9q-7 -23 -16 -58t-21 -83q-31 -143 -31 -191q0 -32 13 -54q15 -28 45 -28q67 0 123 114q48 97 48 173 q0 56 -40 56q-22 0 -38 -8l-12 23q47 33 71 61q12 4 30 4q26 0 46 -32t20 -66zM678 715q16 -7 16 -23q0 -24 -26 -45l-145 -116h-39l107 156q25 36 54 36q9 0 33 -8z" />
<glyph unicode="&#x1e84;" horiz-adv-x="1047" d="M1046 690l-7 -31q-26 1 -44 -2.5t-30.5 -9t-20 -12t-11.5 -10.5q-21 -23 -45 -73l-270 -572h-62l-71 534l-332 -534h-40l-27 679h-75l7 31h307l-7 -31h-77l22 -433l285 464h62l71 -485l164 346q26 57 26 85q0 10 -4 14q-11 9 -58 9l7 31h230zM724 741q-24 0 -40.5 16 t-16.5 38q0 30 25 52q26 23 54 23q23 0 40.5 -15.5t17.5 -37.5q0 -28 -26 -52t-54 -24zM452 741q-24 0 -41 16t-17 38q0 29 26 52t55 23q23 0 40 -15.5t17 -37.5q0 -28 -26 -52t-54 -24z" />
<glyph unicode="&#x1e85;" horiz-adv-x="833" d="M802 371q0 -114 -95 -247q-104 -141 -213 -141q-46 0 -72 32q-23 29 -23 78q0 14 2 33t6 43l-2 2q-30 -65 -84 -121q-66 -67 -127 -67q-54 0 -81 45q-22 35 -22 94q0 64 35 125q29 49 95 115l38 38l-2 2q-39 -10 -131 -10q-38 0 -43 -8l-28 -60h-28l41 132q34 6 74 5 q17 -2 62 -3q40 -3 52 -3q45 0 62 14l14 -19q-127 -137 -127 -304q0 -100 48 -100q39 0 86 62q51 68 72 161l11 48l13 61q4 17 6 32.5t4 31.5q51 4 107 27l12 -9q-7 -23 -16 -58t-21 -83q-31 -143 -31 -191q0 -32 13 -54q15 -28 45 -28q67 0 123 114q48 97 48 173 q0 56 -40 56q-22 0 -38 -8l-12 23q47 33 71 61q12 4 30 4q26 0 46 -32t20 -66zM648 528q-24 0 -40.5 16t-16.5 38q0 30 25 52q26 23 54 23q23 0 40.5 -15.5t17.5 -37.5q0 -28 -26 -52t-54 -24zM376 528q-24 0 -41 16t-17 38q0 29 26 52t55 23q23 0 40 -15.5t17 -37.5 q0 -28 -26 -52t-54 -24z" />
<glyph unicode="&#x1ea0;" horiz-adv-x="808" d="M688 31l-7 -31h-293l7 31h80l-25 198h-244l-56 -91q-36 -59 -36 -86q0 -5 2 -11q4 -10 62 -10l-7 -31h-218l7 31q53 -2 74 11q30 17 76 96l339 572h72l91 -679h76zM443 266l-39 294l-174 -294h213zM325 -178q0 -22 -15.5 -37.5t-37.5 -15.5t-37.5 15.5t-15.5 37.5 t15.5 37.5t37.5 15.5q23 0 38 -15t15 -38z" />
<glyph unicode="&#x1ea1;" d="M519 82q-108 -99 -176 -99q-30 0 -30 43q0 30 7 57l35 142l-2 2q-44 -84 -106 -152q-83 -92 -150 -92q-27 0 -41 26q-12 22 -12 51q0 59 24 148q25 95 57 133q8 9 25 24t43 36q58 46 85 58q23 10 67 10q39 0 99 -26l45 27l16 -12l-15 -43q-5 -14 -9 -29.5t-8 -32.5 l-45 -214q-10 -46 -10 -52q0 -20 14 -20q18 0 55 29l20 16zM377 395q-41 22 -77 22q-44 0 -63 -28q-29 -42 -57 -153q-24 -95 -24 -133t18 -38q21 0 54 35q73 76 120 185q20 48 29 110zM266 -184q0 -22 -15.5 -37.5t-37.5 -15.5t-37.5 15.5t-15.5 37.5t15.5 37.5t37.5 15.5 q23 0 38 -15t15 -38z" />
<glyph unicode="&#x1ea2;" horiz-adv-x="808" d="M688 31l-7 -31h-293l7 31h80l-25 198h-244l-56 -91q-36 -59 -36 -86q0 -5 2 -11q4 -10 62 -10l-7 -31h-218l7 31q53 -2 74 11q30 17 76 96l339 572h72l91 -679h76zM443 266l-39 294l-174 -294h213zM496 746l-14 -7q-14 16 -10 31q3 16 32 47q27 27 27 49q0 26 -31 23 q-14 -2 -27 -18l-22 17q10 21 34.5 34t49.5 13q54 0 54 -49q0 -5 -0.5 -10t-1.5 -10q-5 -24 -48 -57q-44 -33 -45 -43q2 -6 2 -20z" />
<glyph unicode="&#x1ea3;" d="M519 82q-108 -99 -176 -99q-30 0 -30 43q0 30 7 57l35 142l-2 2q-44 -84 -106 -152q-83 -92 -150 -92q-27 0 -41 26q-12 22 -12 51q0 59 24 148q25 95 57 133q8 9 25 24t43 36q58 46 85 58q23 10 67 10q39 0 99 -26l45 27l16 -12l-15 -43q-5 -14 -9 -29.5t-8 -32.5 l-45 -214q-10 -46 -10 -52q0 -20 14 -20q18 0 55 29l20 16zM377 395q-41 22 -77 22q-44 0 -63 -28q-29 -42 -57 -153q-24 -95 -24 -133t18 -38q21 0 54 35q73 76 120 185q20 48 29 110zM376 538l-14 -7q-14 16 -10 31q3 16 32 47q27 27 27 49q0 26 -31 23q-14 -2 -27 -18 l-22 17q10 21 34.5 34t49.5 13q54 0 54 -49q0 -5 -0.5 -10t-1.5 -10q-5 -24 -48 -57q-44 -33 -45 -43q2 -6 2 -20z" />
<glyph unicode="&#x1ea4;" horiz-adv-x="808" d="M688 31l-7 -31h-293l7 31h80l-25 198h-244l-56 -91q-36 -59 -36 -86q0 -5 2 -11q4 -10 62 -10l-7 -31h-218l7 31q53 -2 74 11q30 17 76 96l339 572h72l91 -679h76zM443 266l-39 294l-174 -294h213zM874 905q16 -7 16 -23q0 -24 -26 -45l-145 -116h-39l107 156 q25 36 54 36q9 0 33 -8zM655 716h-57l-92 98l-133 -98h-55l158 175h93z" />
<glyph unicode="&#x1ea5;" d="M519 82q-108 -99 -176 -99q-30 0 -30 43q0 30 7 57l35 142l-2 2q-44 -84 -106 -152q-83 -92 -150 -92q-27 0 -41 26q-12 22 -12 51q0 59 24 148q25 95 57 133q8 9 25 24t43 36q58 46 85 58q23 10 67 10q39 0 99 -26l45 27l16 -12l-15 -43q-5 -14 -9 -29.5t-8 -32.5 l-45 -214q-10 -46 -10 -52q0 -20 14 -20q18 0 55 29l20 16zM377 395q-41 22 -77 22q-44 0 -63 -28q-29 -42 -57 -153q-24 -95 -24 -133t18 -38q21 0 54 35q73 76 120 185q20 48 29 110zM537 532h-57l-92 98l-133 -98h-55l158 175h93zM752 721q16 -7 16 -23q0 -24 -26 -45 l-145 -116h-39l107 156q25 36 54 36q9 0 33 -8z" />
<glyph unicode="&#x1ea6;" horiz-adv-x="808" d="M688 31l-7 -31h-293l7 31h80l-25 198h-244l-56 -91q-36 -59 -36 -86q0 -5 2 -11q4 -10 62 -10l-7 -31h-218l7 31q53 -2 74 11q30 17 76 96l339 572h72l91 -679h76zM443 266l-39 294l-174 -294h213zM774 717h-42q-8 19 -17 37t-18 37q-32 70 -30 84q1 18 22 31 q19 11 38 11q33 0 36 -42zM662 713h-57l-92 98l-133 -98h-55l158 175h93z" />
<glyph unicode="&#x1ea7;" d="M519 82q-108 -99 -176 -99q-30 0 -30 43q0 30 7 57l35 142l-2 2q-44 -84 -106 -152q-83 -92 -150 -92q-27 0 -41 26q-12 22 -12 51q0 59 24 148q25 95 57 133q8 9 25 24t43 36q58 46 85 58q23 10 67 10q39 0 99 -26l45 27l16 -12l-15 -43q-5 -14 -9 -29.5t-8 -32.5 l-45 -214q-10 -46 -10 -52q0 -20 14 -20q18 0 55 29l20 16zM377 395q-41 22 -77 22q-44 0 -63 -28q-29 -42 -57 -153q-24 -95 -24 -133t18 -38q21 0 54 35q73 76 120 185q20 48 29 110zM531 529h-57l-92 98l-133 -98h-55l158 175h93zM638 530h-42q-8 19 -17 37t-18 37 q-32 70 -30 84q1 18 22 31q19 11 38 11q33 0 36 -42z" />
<glyph unicode="&#x1ea8;" horiz-adv-x="808" d="M688 31l-7 -31h-293l7 31h80l-25 198h-244l-56 -91q-36 -59 -36 -86q0 -5 2 -11q4 -10 62 -10l-7 -31h-218l7 31q53 -2 74 11q30 17 76 96l339 572h72l91 -679h76zM443 266l-39 294l-174 -294h213zM713 724l-14 -7q-14 16 -10 31q3 16 32 47q27 27 27 49q0 26 -31 23 q-14 -2 -27 -18l-22 17q10 21 34.5 34t49.5 13q54 0 54 -49q0 -5 -0.5 -10t-1.5 -10q-5 -24 -48 -57q-44 -33 -45 -43q2 -6 2 -20zM653 719h-57l-92 98l-133 -98h-55l158 175h93z" />
<glyph unicode="&#x1ea9;" d="M519 82q-108 -99 -176 -99q-30 0 -30 43q0 30 7 57l35 142l-2 2q-44 -84 -106 -152q-83 -92 -150 -92q-27 0 -41 26q-12 22 -12 51q0 59 24 148q25 95 57 133q8 9 25 24t43 36q58 46 85 58q23 10 67 10q39 0 99 -26l45 27l16 -12l-15 -43q-5 -14 -9 -29.5t-8 -32.5 l-45 -214q-10 -46 -10 -52q0 -20 14 -20q18 0 55 29l20 16zM377 395q-41 22 -77 22q-44 0 -63 -28q-29 -42 -57 -153q-24 -95 -24 -133t18 -38q21 0 54 35q73 76 120 185q20 48 29 110zM510 531h-57l-92 98l-133 -98h-55l158 175h93zM564 536l-14 -7q-14 16 -10 31 q3 16 32 47q27 27 27 49q0 26 -31 23q-14 -2 -27 -18l-22 17q10 21 34.5 34t49.5 13q54 0 54 -49q0 -5 -0.5 -10t-1.5 -10q-5 -24 -48 -57q-44 -33 -45 -43q2 -6 2 -20z" />
<glyph unicode="&#x1eaa;" horiz-adv-x="808" d="M688 31l-7 -31h-293l7 31h80l-25 198h-244l-56 -91q-36 -59 -36 -86q0 -5 2 -11q4 -10 62 -10l-7 -31h-218l7 31q53 -2 74 11q30 17 76 96l339 572h72l91 -679h76zM443 266l-39 294l-174 -294h213zM659 719h-57l-92 98l-133 -98h-55l158 175h93zM730 1050 q-30 -119 -126 -119q-33 0 -81 19t-65 19q-47 0 -66 -42h-33q40 114 120 114q27 0 78 -17q53 -17 78 -17q39 0 60 43h35z" />
<glyph unicode="&#x1eab;" d="M519 82q-108 -99 -176 -99q-30 0 -30 43q0 30 7 57l35 142l-2 2q-44 -84 -106 -152q-83 -92 -150 -92q-27 0 -41 26q-12 22 -12 51q0 59 24 148q25 95 57 133q8 9 25 24t43 36q58 46 85 58q23 10 67 10q39 0 99 -26l45 27l16 -12l-15 -43q-5 -14 -9 -29.5t-8 -32.5 l-45 -214q-10 -46 -10 -52q0 -20 14 -20q18 0 55 29l20 16zM377 395q-41 22 -77 22q-44 0 -63 -28q-29 -42 -57 -153q-24 -95 -24 -133t18 -38q21 0 54 35q73 76 120 185q20 48 29 110zM541 530h-57l-92 98l-133 -98h-55l158 175h93zM612 882q-30 -119 -126 -119 q-33 0 -81 19t-65 19q-47 0 -66 -42h-33q40 114 120 114q27 0 78 -17q53 -17 78 -17q39 0 60 43h35z" />
<glyph unicode="&#x1eac;" horiz-adv-x="808" d="M688 31l-7 -31h-293l7 31h80l-25 198h-244l-56 -91q-36 -59 -36 -86q0 -5 2 -11q4 -10 62 -10l-7 -31h-218l7 31q53 -2 74 11q30 17 76 96l339 572h72l91 -679h76zM443 266l-39 294l-174 -294h213zM313 -189q0 -22 -15.5 -37.5t-37.5 -15.5t-37.5 15.5t-15.5 37.5 t15.5 37.5t37.5 15.5q23 0 38 -15t15 -38zM643 718h-57l-92 98l-133 -98h-55l158 175h93z" />
<glyph unicode="&#x1ead;" d="M519 82q-108 -99 -176 -99q-30 0 -30 43q0 30 7 57l35 142l-2 2q-44 -84 -106 -152q-83 -92 -150 -92q-27 0 -41 26q-12 22 -12 51q0 59 24 148q25 95 57 133q8 9 25 24t43 36q58 46 85 58q23 10 67 10q39 0 99 -26l45 27l16 -12l-15 -43q-5 -14 -9 -29.5t-8 -32.5 l-45 -214q-10 -46 -10 -52q0 -20 14 -20q18 0 55 29l20 16zM377 395q-41 22 -77 22q-44 0 -63 -28q-29 -42 -57 -153q-24 -95 -24 -133t18 -38q21 0 54 35q73 76 120 185q20 48 29 110zM556 531h-57l-92 98l-133 -98h-55l158 175h93zM272 -181q0 -22 -15.5 -37.5 t-37.5 -15.5t-37.5 15.5t-15.5 37.5t15.5 37.5t37.5 15.5q23 0 38 -15t15 -38z" />
<glyph unicode="&#x1eae;" horiz-adv-x="808" d="M688 31l-7 -31h-293l7 31h80l-25 198h-244l-56 -91q-36 -59 -36 -86q0 -5 2 -11q4 -10 62 -10l-7 -31h-218l7 31q53 -2 74 11q30 17 76 96l339 572h72l91 -679h76zM443 266l-39 294l-174 -294h213zM642 894q0 -53 -29 -97q-39 -58 -116 -58q-69 0 -109.5 42.5 t-40.5 112.5l2 3h26q19 -94 124 -94q97 0 115 94h26zM522 846h-42q-8 19 -17 37t-18 37q-32 70 -30 84q1 18 22 31q19 11 38 11q33 0 36 -42z" />
<glyph unicode="&#x1eaf;" d="M519 82q-108 -99 -176 -99q-30 0 -30 43q0 30 7 57l35 142l-2 2q-44 -84 -106 -152q-83 -92 -150 -92q-27 0 -41 26q-12 22 -12 51q0 59 24 148q25 95 57 133q8 9 25 24t43 36q58 46 85 58q23 10 67 10q39 0 99 -26l45 27l16 -12l-15 -43q-5 -14 -9 -29.5t-8 -32.5 l-45 -214q-10 -46 -10 -52q0 -20 14 -20q18 0 55 29l20 16zM377 395q-41 22 -77 22q-44 0 -63 -28q-29 -42 -57 -153q-24 -95 -24 -133t18 -38q21 0 54 35q73 76 120 185q20 48 29 110zM543 671q-11 -78 -49 -112t-114 -33q-107 2 -107 94q0 26 7 53q3 3 17 5q13 1 19 -5 q-1 -52 12 -68q15 -20 66 -18q35 2 56 15q28 18 57 72q7 4 21 3q13 -2 15 -6zM430 617h-42q-8 19 -17 37t-18 37q-32 70 -30 84q1 18 22 31q19 11 38 11q33 0 36 -42z" />
<glyph unicode="&#x1eb0;" horiz-adv-x="808" d="M688 31l-7 -31h-293l7 31h80l-25 198h-244l-56 -91q-36 -59 -36 -86q0 -5 2 -11q4 -10 62 -10l-7 -31h-218l7 31q53 -2 74 11q30 17 76 96l339 572h72l91 -679h76zM443 266l-39 294l-174 -294h213zM645 894q0 -53 -29 -97q-39 -58 -116 -58q-69 0 -109.5 42.5 t-40.5 112.5l2 3h26q19 -94 124 -94q97 0 115 94h26zM650 1024q16 -7 16 -23q0 -24 -26 -45l-145 -116h-39l107 156q25 36 54 36q9 0 33 -8z" />
<glyph unicode="&#x1eb1;" d="M519 82q-108 -99 -176 -99q-30 0 -30 43q0 30 7 57l35 142l-2 2q-44 -84 -106 -152q-83 -92 -150 -92q-27 0 -41 26q-12 22 -12 51q0 59 24 148q25 95 57 133q8 9 25 24t43 36q58 46 85 58q23 10 67 10q39 0 99 -26l45 27l16 -12l-15 -43q-5 -14 -9 -29.5t-8 -32.5 l-45 -214q-10 -46 -10 -52q0 -20 14 -20q18 0 55 29l20 16zM377 395q-41 22 -77 22q-44 0 -63 -28q-29 -42 -57 -153q-24 -95 -24 -133t18 -38q21 0 54 35q73 76 120 185q20 48 29 110zM514 676q-11 -78 -49 -112t-114 -33q-107 2 -107 94q0 26 7 53q3 3 17 5q13 1 19 -5 q-1 -52 12 -68q15 -20 66 -18q35 2 56 15q28 18 57 72q7 4 21 3q13 -2 15 -6zM519 803q16 -7 16 -23q0 -24 -26 -45l-145 -116h-39l107 156q25 36 54 36q9 0 33 -8z" />
<glyph unicode="&#x1eb2;" horiz-adv-x="808" d="M688 31l-7 -31h-293l7 31h80l-25 198h-244l-56 -91q-36 -59 -36 -86q0 -5 2 -11q4 -10 62 -10l-7 -31h-218l7 31q53 -2 74 11q30 17 76 96l339 572h72l91 -679h76zM443 266l-39 294l-174 -294h213zM639 894q0 -53 -29 -97q-39 -58 -116 -58q-69 0 -109.5 42.5 t-40.5 112.5l2 3h26q19 -94 124 -94q97 0 115 94h26zM497 864l-14 -7q-14 16 -10 31q3 16 32 47q27 27 27 49q0 26 -31 23q-14 -2 -27 -18l-22 17q10 21 34.5 34t49.5 13q54 0 54 -49q0 -5 -0.5 -10t-1.5 -10q-5 -24 -48 -57q-44 -33 -45 -43q2 -6 2 -20z" />
<glyph unicode="&#x1eb3;" d="M519 82q-108 -99 -176 -99q-30 0 -30 43q0 30 7 57l35 142l-2 2q-44 -84 -106 -152q-83 -92 -150 -92q-27 0 -41 26q-12 22 -12 51q0 59 24 148q25 95 57 133q8 9 25 24t43 36q58 46 85 58q23 10 67 10q39 0 99 -26l45 27l16 -12l-15 -43q-5 -14 -9 -29.5t-8 -32.5 l-45 -214q-10 -46 -10 -52q0 -20 14 -20q18 0 55 29l20 16zM377 395q-41 22 -77 22q-44 0 -63 -28q-29 -42 -57 -153q-24 -95 -24 -133t18 -38q21 0 54 35q73 76 120 185q20 48 29 110zM542 674q-11 -78 -49 -112t-114 -33q-107 2 -107 94q0 26 7 53q3 3 17 5q13 1 19 -5 q-1 -52 12 -68q15 -20 66 -18q35 2 56 15q28 18 57 72q7 4 21 3q13 -2 15 -6zM407 628l-14 -7q-14 16 -10 31q3 16 32 47q27 27 27 49q0 26 -31 23q-14 -2 -27 -18l-22 17q10 21 34.5 34t49.5 13q54 0 54 -49q0 -5 -0.5 -10t-1.5 -10q-5 -24 -48 -57q-44 -33 -45 -43 q2 -6 2 -20z" />
<glyph unicode="&#x1eb4;" horiz-adv-x="808" d="M688 31l-7 -31h-293l7 31h80l-25 198h-244l-56 -91q-36 -59 -36 -86q0 -5 2 -11q4 -10 62 -10l-7 -31h-218l7 31q53 -2 74 11q30 17 76 96l339 572h72l91 -679h76zM443 266l-39 294l-174 -294h213zM645 902q0 -53 -29 -97q-39 -58 -116 -58q-69 0 -109.5 42.5 t-40.5 112.5l2 3h26q19 -94 124 -94q97 0 115 94h26zM714 1050q-30 -119 -126 -119q-33 0 -81 19t-65 19q-47 0 -66 -42h-33q40 114 120 114q27 0 78 -17q53 -17 78 -17q39 0 60 43h35z" />
<glyph unicode="&#x1eb5;" d="M519 82q-108 -99 -176 -99q-30 0 -30 43q0 30 7 57l35 142l-2 2q-44 -84 -106 -152q-83 -92 -150 -92q-27 0 -41 26q-12 22 -12 51q0 59 24 148q25 95 57 133q8 9 25 24t43 36q58 46 85 58q23 10 67 10q39 0 99 -26l45 27l16 -12l-15 -43q-5 -14 -9 -29.5t-8 -32.5 l-45 -214q-10 -46 -10 -52q0 -20 14 -20q18 0 55 29l20 16zM377 395q-41 22 -77 22q-44 0 -63 -28q-29 -42 -57 -153q-24 -95 -24 -133t18 -38q21 0 54 35q73 76 120 185q20 48 29 110zM542 676q-11 -78 -49 -112t-114 -33q-107 2 -107 94q0 26 7 53q3 3 17 5q13 1 19 -5 q-1 -52 12 -68q15 -20 66 -18q35 2 56 15q28 18 57 72q7 4 21 3q13 -2 15 -6zM619 826q-30 -119 -126 -119q-33 0 -81 19t-65 19q-47 0 -66 -42h-33q40 114 120 114q27 0 78 -17q53 -17 78 -17q39 0 60 43h35z" />
<glyph unicode="&#x1eb6;" horiz-adv-x="808" d="M688 31l-7 -31h-293l7 31h80l-25 198h-244l-56 -91q-36 -59 -36 -86q0 -5 2 -11q4 -10 62 -10l-7 -31h-218l7 31q53 -2 74 11q30 17 76 96l339 572h72l91 -679h76zM443 266l-39 294l-174 -294h213zM646 902q0 -53 -29 -97q-39 -58 -116 -58q-69 0 -109.5 42.5 t-40.5 112.5l2 3h26q19 -94 124 -94q97 0 115 94h26zM326 -188q0 -22 -15.5 -37.5t-37.5 -15.5t-37.5 15.5t-15.5 37.5t15.5 37.5t37.5 15.5q23 0 38 -15t15 -38z" />
<glyph unicode="&#x1eb7;" d="M519 82q-108 -99 -176 -99q-30 0 -30 43q0 30 7 57l35 142l-2 2q-44 -84 -106 -152q-83 -92 -150 -92q-27 0 -41 26q-12 22 -12 51q0 59 24 148q25 95 57 133q8 9 25 24t43 36q58 46 85 58q23 10 67 10q39 0 99 -26l45 27l16 -12l-15 -43q-5 -14 -9 -29.5t-8 -32.5 l-45 -214q-10 -46 -10 -52q0 -20 14 -20q18 0 55 29l20 16zM377 395q-41 22 -77 22q-44 0 -63 -28q-29 -42 -57 -153q-24 -95 -24 -133t18 -38q21 0 54 35q73 76 120 185q20 48 29 110zM538 676q-11 -78 -49 -112t-114 -33q-107 2 -107 94q0 26 7 53q3 3 17 5q13 1 19 -5 q-1 -52 12 -68q15 -20 66 -18q35 2 56 15q28 18 57 72q7 4 21 3q13 -2 15 -6zM286 -191q0 -22 -15.5 -37.5t-37.5 -15.5t-37.5 15.5t-15.5 37.5t15.5 37.5t37.5 15.5q23 0 38 -15t15 -38z" />
<glyph unicode="&#x1eb8;" horiz-adv-x="737" d="M771 690l-40 -203h-42q1 14 1.5 24t0.5 16q0 48 -24 80q-32 41 -127 43l-150 3l-59 -283h107q45 0 69 25q28 29 43 92h37l-60 -278h-36q12 60 -7 91t-54 31h-107l-63 -294l168 3q29 2 71 15q42 15 67 34q71 54 96 151h43l-64 -240h-630l7 31h93l134 628h-94l6 31h614z M372 -184q0 -22 -15.5 -37.5t-37.5 -15.5t-37.5 15.5t-15.5 37.5t15.5 37.5t37.5 15.5q23 0 38 -15t15 -38z" />
<glyph unicode="&#x1eb9;" horiz-adv-x="444" d="M418 385q0 -89 -107 -142q-54 -26 -164 -50q-2 -19 -3.5 -35.5t-1.5 -30.5q0 -80 77 -80q58 0 158 67l10 -28q-48 -30 -76 -47t-36 -22q-67 -34 -123 -34q-124 0 -124 125q0 59 25 138q19 61 37 89q24 39 69 70q23 16 45.5 28.5t45.5 20.5q37 15 73 15q42 0 68.5 -22 t26.5 -62zM324 370q0 51 -46 51q-79 0 -113 -144l-14 -58l41 12q55 16 90 48q42 39 42 91zM249 -187q0 -22 -15.5 -37.5t-37.5 -15.5t-37.5 15.5t-15.5 37.5t15.5 37.5t37.5 15.5q23 0 38 -15t15 -38z" />
<glyph unicode="&#x1eba;" horiz-adv-x="737" d="M771 690l-40 -203h-42q1 14 1.5 24t0.5 16q0 48 -24 80q-32 41 -127 43l-150 3l-59 -283h107q45 0 69 25q28 29 43 92h37l-60 -278h-36q12 60 -7 91t-54 31h-107l-63 -294l168 3q29 2 71 15q42 15 67 34q71 54 96 151h43l-64 -240h-630l7 31h93l134 628h-94l6 31h614z M493 753l-14 -7q-14 16 -10 31q3 16 32 47q27 27 27 49q0 26 -31 23q-14 -2 -27 -18l-22 17q10 21 34.5 34t49.5 13q54 0 54 -49q0 -5 -0.5 -10t-1.5 -10q-5 -24 -48 -57q-44 -33 -45 -43q2 -6 2 -20z" />
<glyph unicode="&#x1ebb;" horiz-adv-x="444" d="M418 385q0 -89 -107 -142q-54 -26 -164 -50q-2 -19 -3.5 -35.5t-1.5 -30.5q0 -80 77 -80q58 0 158 67l10 -28q-48 -30 -76 -47t-36 -22q-67 -34 -123 -34q-124 0 -124 125q0 59 25 138q19 61 37 89q24 39 69 70q23 16 45.5 28.5t45.5 20.5q37 15 73 15q42 0 68.5 -22 t26.5 -62zM324 370q0 51 -46 51q-79 0 -113 -144l-14 -58l41 12q55 16 90 48q42 39 42 91zM318 538l-14 -7q-14 16 -10 31q3 16 32 47q27 27 27 49q0 26 -31 23q-14 -2 -27 -18l-22 17q10 21 34.5 34t49.5 13q54 0 54 -49q0 -5 -0.5 -10t-1.5 -10q-5 -24 -48 -57 q-44 -33 -45 -43q2 -6 2 -20z" />
<glyph unicode="&#x1ebc;" horiz-adv-x="737" d="M771 690l-40 -203h-42q1 14 1.5 24t0.5 16q0 48 -24 80q-32 41 -127 43l-150 3l-59 -283h107q45 0 69 25q28 29 43 92h37l-60 -278h-36q12 60 -7 91t-54 31h-107l-63 -294l168 3q29 2 71 15q42 15 67 34q71 54 96 151h43l-64 -240h-630l7 31h93l134 628h-94l6 31h614z M671 871q-30 -119 -126 -119q-33 0 -81 19t-65 19q-47 0 -66 -42h-33q40 114 120 114q27 0 78 -17q53 -17 78 -17q39 0 60 43h35z" />
<glyph unicode="&#x1ebd;" horiz-adv-x="444" d="M418 385q0 -89 -107 -142q-54 -26 -164 -50q-2 -19 -3.5 -35.5t-1.5 -30.5q0 -80 77 -80q58 0 158 67l10 -28q-48 -30 -76 -47t-36 -22q-67 -34 -123 -34q-124 0 -124 125q0 59 25 138q19 61 37 89q24 39 69 70q23 16 45.5 28.5t45.5 20.5q37 15 73 15q42 0 68.5 -22 t26.5 -62zM324 370q0 51 -46 51q-79 0 -113 -144l-14 -58l41 12q55 16 90 48q42 39 42 91zM498 649q-30 -119 -126 -119q-33 0 -81 19t-65 19q-47 0 -66 -42h-33q40 114 120 114q27 0 78 -17q53 -17 78 -17q39 0 60 43h35z" />
<glyph unicode="&#x1ebe;" horiz-adv-x="737" d="M771 690l-40 -203h-42q1 14 1.5 24t0.5 16q0 48 -24 80q-32 41 -127 43l-150 3l-59 -283h107q45 0 69 25q28 29 43 92h37l-60 -278h-36q12 60 -7 91t-54 31h-107l-63 -294l168 3q29 2 71 15q42 15 67 34q71 54 96 151h43l-64 -240h-630l7 31h93l134 628h-94l6 31h614z M635 718h-57l-92 98l-133 -98h-55l158 175h93zM737 718h-42q-8 19 -17 37t-18 37q-32 70 -30 84q1 18 22 31q19 11 38 11q33 0 36 -42z" />
<glyph unicode="&#x1ebf;" horiz-adv-x="444" d="M418 385q0 -89 -107 -142q-54 -26 -164 -50q-2 -19 -3.5 -35.5t-1.5 -30.5q0 -80 77 -80q58 0 158 67l10 -28q-48 -30 -76 -47t-36 -22q-67 -34 -123 -34q-124 0 -124 125q0 59 25 138q19 61 37 89q24 39 69 70q23 16 45.5 28.5t45.5 20.5q37 15 73 15q42 0 68.5 -22 t26.5 -62zM324 370q0 51 -46 51q-79 0 -113 -144l-14 -58l41 12q55 16 90 48q42 39 42 91zM431 530h-57l-92 98l-133 -98h-55l158 175h93zM529 535h-42q-8 19 -17 37t-18 37q-32 70 -30 84q1 18 22 31q19 11 38 11q33 0 36 -42z" />
<glyph unicode="&#x1ec0;" horiz-adv-x="737" d="M771 690l-40 -203h-42q1 14 1.5 24t0.5 16q0 48 -24 80q-32 41 -127 43l-150 3l-59 -283h107q45 0 69 25q28 29 43 92h37l-60 -278h-36q12 60 -7 91t-54 31h-107l-63 -294l168 3q29 2 71 15q42 15 67 34q71 54 96 151h43l-64 -240h-630l7 31h93l134 628h-94l6 31h614z M659 718h-57l-92 98l-133 -98h-55l158 175h93zM871 904q16 -7 16 -23q0 -24 -26 -45l-145 -116h-39l107 156q25 36 54 36q9 0 33 -8z" />
<glyph unicode="&#x1ec1;" horiz-adv-x="444" d="M418 385q0 -89 -107 -142q-54 -26 -164 -50q-2 -19 -3.5 -35.5t-1.5 -30.5q0 -80 77 -80q58 0 158 67l10 -28q-48 -30 -76 -47t-36 -22q-67 -34 -123 -34q-124 0 -124 125q0 59 25 138q19 61 37 89q24 39 69 70q23 16 45.5 28.5t45.5 20.5q37 15 73 15q42 0 68.5 -22 t26.5 -62zM324 370q0 51 -46 51q-79 0 -113 -144l-14 -58l41 12q55 16 90 48q42 39 42 91zM404 530h-57l-92 98l-133 -98h-55l158 175h93zM614 720q16 -7 16 -23q0 -24 -26 -45l-145 -116h-39l107 156q25 36 54 36q9 0 33 -8z" />
<glyph unicode="&#x1ec2;" horiz-adv-x="737" d="M771 690l-40 -203h-42q1 14 1.5 24t0.5 16q0 48 -24 80q-32 41 -127 43l-150 3l-59 -283h107q45 0 69 25q28 29 43 92h37l-60 -278h-36q12 60 -7 91t-54 31h-107l-63 -294l168 3q29 2 71 15q42 15 67 34q71 54 96 151h43l-64 -240h-630l7 31h93l134 628h-94l6 31h614z M724 726l-14 -7q-14 16 -10 31q3 16 32 47q27 27 27 49q0 26 -31 23q-14 -2 -27 -18l-22 17q10 21 34.5 34t49.5 13q54 0 54 -49q0 -5 -0.5 -10t-1.5 -10q-5 -24 -48 -57q-44 -33 -45 -43q2 -6 2 -20zM644 717h-57l-92 98l-133 -98h-55l158 175h93z" />
<glyph unicode="&#x1ec3;" horiz-adv-x="444" d="M418 385q0 -89 -107 -142q-54 -26 -164 -50q-2 -19 -3.5 -35.5t-1.5 -30.5q0 -80 77 -80q58 0 158 67l10 -28q-48 -30 -76 -47t-36 -22q-67 -34 -123 -34q-124 0 -124 125q0 59 25 138q19 61 37 89q24 39 69 70q23 16 45.5 28.5t45.5 20.5q37 15 73 15q42 0 68.5 -22 t26.5 -62zM324 370q0 51 -46 51q-79 0 -113 -144l-14 -58l41 12q55 16 90 48q42 39 42 91zM455 531h-57l-92 98l-133 -98h-55l158 175h93zM515 534l-14 -7q-14 16 -10 31q3 16 32 47q27 27 27 49q0 26 -31 23q-14 -2 -27 -18l-22 17q10 21 34.5 34t49.5 13q54 0 54 -49 q0 -5 -0.5 -10t-1.5 -10q-5 -24 -48 -57q-44 -33 -45 -43q2 -6 2 -20z" />
<glyph unicode="&#x1ec4;" horiz-adv-x="737" d="M771 690l-40 -203h-42q1 14 1.5 24t0.5 16q0 48 -24 80q-32 41 -127 43l-150 3l-59 -283h107q45 0 69 25q28 29 43 92h37l-60 -278h-36q12 60 -7 91t-54 31h-107l-63 -294l168 3q29 2 71 15q42 15 67 34q71 54 96 151h43l-64 -240h-630l7 31h93l134 628h-94l6 31h614z M664 719h-57l-92 98l-133 -98h-55l158 175h93zM747 1053q-30 -119 -126 -119q-33 0 -81 19t-65 19q-47 0 -66 -42h-33q40 114 120 114q27 0 78 -17q53 -17 78 -17q39 0 60 43h35z" />
<glyph unicode="&#x1ec5;" horiz-adv-x="444" d="M418 385q0 -89 -107 -142q-54 -26 -164 -50q-2 -19 -3.5 -35.5t-1.5 -30.5q0 -80 77 -80q58 0 158 67l10 -28q-48 -30 -76 -47t-36 -22q-67 -34 -123 -34q-124 0 -124 125q0 59 25 138q19 61 37 89q24 39 69 70q23 16 45.5 28.5t45.5 20.5q37 15 73 15q42 0 68.5 -22 t26.5 -62zM324 370q0 51 -46 51q-79 0 -113 -144l-14 -58l41 12q55 16 90 48q42 39 42 91zM417 531h-57l-92 98l-133 -98h-55l158 175h93zM476 863q-30 -119 -126 -119q-33 0 -81 19t-65 19q-47 0 -66 -42h-33q40 114 120 114q27 0 78 -17q53 -17 78 -17q39 0 60 43h35z" />
</font>
</defs>
</svg>
