<?xml version="1.0" standalone="no"?>
<!DOCTYPE svg PUBLIC "-//W3C//DTD SVG 1.1//EN" "http://www.w3.org/Graphics/SVG/1.1/DTD/svg11.dtd" >
<svg xmlns="http://www.w3.org/2000/svg">
<metadata></metadata>
<defs>
<font id="gfs_didotitalic" horiz-adv-x="430" >
<font-face units-per-em="1000" ascent="800" descent="-200" />
<missing-glyph horiz-adv-x="398" />
<glyph unicode="ff" horiz-adv-x="463" d="M594 698q-8 -23 -15.5 -42.5t-12.5 -36.5l-9 -4q-23 38 -69 38q-42 0 -66 -46q-11 -22 -22 -74l-21 -109q28 0 46 0.5t27 1.5q2 1 10 2.5t21 4.5l4 -7q-5 -12 -9 -25.5t-8 -28.5h-100q-17 -84 -41 -187.5t-55 -231.5q-35 -113 -97 -169q-58 -52 -107 -52q-21 0 -34 8 q4 7 12 39q5 16 7 25.5t3 13.5l14 4q20 -29 46 -29q56 0 86 88q14 40 37.5 162t56.5 329h-121q-17 -84 -41 -187.5t-55 -231.5q-35 -113 -97 -169q-58 -52 -107 -52q-21 0 -34 8q4 6 13 39q7 31 9 39l14 4q20 -29 46 -29q55 0 86 88q20 57 57 266q16 85 25 141t13 84h-79 l5 21q39 14 83 36l15 76q9 50 19 69q7 16 25 37q9 11 56 47t69 46q14 7 34 7q18 0 53 -9q43 -10 67 -28q26 24 40.5 30.5t32.5 6.5q45 0 68 -13zM357 608q-8 45 -62 45q-44 0 -66 -46q-13 -22 -22 -74l-21 -109h121l16 81q11 50 19 69q5 16 15 34z" />
<glyph unicode="fi" horiz-adv-x="512" d="M468 79q-23 -19 -47.5 -36.5t-52.5 -34.5q-29 -17 -46 -17q-34 0 -34 45q0 10 12 67l51 241q8 40 8 37q0 10 -6 17.5t-13 4.5q-63 -26 -163 -31q-17 -84 -41 -187.5t-55 -231.5q-35 -113 -97 -169q-58 -52 -107 -52q-21 0 -34 8q4 6 13 39q7 31 9 39l14 4q20 -29 46 -29 q55 0 86 88q20 57 57 266q16 85 25 141t13 84h-79l5 21q41 14 83 36l15 76q11 50 19 69q7 16 25 37q5 5 18 17t34 31q46 39 62 45q15 7 34 7q69 0 106 -20q32 -17 32 -43q0 -25 -13.5 -44t-34.5 -19q-11 0 -25 8q-3 1 -7 7t-8.5 13t-8.5 14t-7 10q-18 19 -41 19q-9 0 -31 -3 q-56 -9 -77 -120l-21 -109q51 1 96 6.5t87 16.5q9 2 28 12q16 9 25 9q25 0 10 -74l-59 -283q-2 -12 -3.5 -21.5t-1.5 -17.5q0 -20 12 -20q17 0 46 21l33 25z" />
<glyph unicode="fl" horiz-adv-x="529" d="M504 703l-119 -558q-5 -23 -7.5 -41t-2.5 -29q0 -21 16 -21q13 0 39 18l46 33l9 -21q-38 -29 -105 -75q-30 -18 -54 -18q-28 0 -28 39q0 17 12 74l82 387q21 99 21 132q0 15 -5.5 21t-32.5 8l-15 1l-6 -40h-10q-11 36 -54 36q-40 0 -61 -41q-11 -21 -22 -75l-21 -109 q27 0 45 0.5t28 1.5q2 1 10 2.5t21 4.5l4 -7q-5 -12 -9 -25.5t-8 -28.5h-100q-17 -84 -41 -187.5t-55 -231.5q-35 -113 -97 -169q-58 -52 -107 -52q-21 0 -34 8q4 6 13 39q7 31 9 39l14 4q20 -29 46 -29q55 0 86 88q20 57 57 266q16 85 25 141t13 84h-79l5 21q41 14 83 36 l15 76q11 50 19 69q7 16 25 37q9 11 56 47t69 46q14 7 38 7q13 0 35 -8l-7 -27q23 0 52 6q36 7 72 29z" />
<glyph unicode="ffi" horiz-adv-x="669" d="M655 648q0 -25 -13 -44t-34 -19q-12 0 -26 8q-7 3 -14 19q-5 9 -9.5 15l-7.5 10q-20 21 -42 21q-9 0 -29 -5q-57 -15 -76 -120l-21 -109q29 1 49.5 2t32.5 3q14 1 76 18q9 2 28 12q16 9 25 9q25 0 10 -74l-59 -283q-2 -12 -3.5 -21.5t-1.5 -17.5q0 -20 12 -20q17 0 46 21 l33 25l9 -19q-23 -19 -47.5 -36.5t-52.5 -34.5q-29 -17 -46 -17q-34 0 -34 45q0 10 12 67l51 241q8 40 8 37q0 10 -6 17.5t-13 4.5q-66 -28 -138 -31q-17 -84 -41 -187.5t-55 -231.5q-35 -113 -97 -169q-58 -52 -107 -52q-21 0 -34 8q4 7 12 39q5 16 7 25.5t3 13.5l14 4 q20 -29 46 -29q55 0 86 88q20 57 57 266q16 85 25 141t13 84h-126q-17 -84 -41 -187.5t-55 -231.5q-35 -113 -97 -169q-58 -52 -107 -52q-21 0 -34 8q4 6 13 39q7 31 9 39l14 4q20 -29 46 -29q55 0 86 88q20 57 57 266q16 85 25 141t13 84h-79l5 21q39 14 83 36l15 76 q9 50 19 69q7 16 25 37q5 5 18 17t36 29q50 38 71 47q14 7 34 7q64 0 117 -30q37 30 68 30q68 0 106 -20q31 -16 31 -43zM372 612q-11 41 -77 41q-44 0 -66 -46q-13 -22 -22 -74l-21 -109h125l16 81q9 50 19 69q4 9 10.5 18t14.5 19z" />
<glyph unicode="ffl" horiz-adv-x="669" d="M642 700l-124 -587q-6 -29 -6 -39q0 -20 12 -20q13 0 59 29l26 17l9 -18q-32 -23 -58.5 -41t-47.5 -31q-31 -19 -48 -19q-30 0 -30 39q0 26 32 148q7 25 17.5 73t24.5 121q-92 1 -135 0q-17 -84 -41 -187.5t-55 -231.5q-35 -113 -97 -169q-58 -52 -107 -52q-21 0 -34 8 q4 7 12 39q5 16 7 25.5t3 13.5l14 4q20 -29 46 -29q55 0 86 88q20 57 57 266q16 85 25 141t13 84h-125q-17 -84 -41 -187.5t-55 -231.5q-35 -113 -97 -169q-58 -52 -107 -52q-21 0 -34 8q4 6 13 39q7 31 9 39l14 4q20 -29 46 -29q55 0 86 88q20 57 57 266q16 85 25 141 t13 84h-79l5 21q39 14 83 36l15 76q9 50 19 69q4 8 10 17.5t15 19.5t54 45q49 37 71 48q14 7 34 7q32 0 114 -32q24 20 36 25q15 7 41 7q12 0 78 -23l29 23zM556 607q-10 18 -35 31q-26 15 -40 15q-54 0 -76 -120l-21 -109l136 -1zM369 610l-5 5q-23 38 -69 38 q-44 0 -66 -46q-13 -22 -22 -74l-21 -109h124l16 81q9 50 19 69q7 16 24 36z" />
<glyph unicode=" "  horiz-adv-x="398" />
<glyph unicode="&#x09;" horiz-adv-x="398" />
<glyph unicode="&#xa0;" horiz-adv-x="398" />
<glyph unicode="!" horiz-adv-x="450" d="M352 571l-140 -387h-13l26 387q1 8 2.5 21.5t5.5 30.5q6 31 28 55q26 29 57 29q52 0 52 -60q0 -18 -7 -39q-5 -17 -7.5 -26t-3.5 -11zM162 -16q-23 0 -37.5 14t-14.5 35q0 15 6.5 29.5t18 25t26 17t29.5 6.5q23 0 37.5 -14t14.5 -35q0 -15 -6.5 -29.5t-18 -25t-26 -17 t-29.5 -6.5z" />
<glyph unicode="&#x22;" horiz-adv-x="426" d="M493 670l-78 -205h-16l9 205q1 16 17 31.5t34 15.5q16 0 26 -11t10 -25q0 -5 -2 -11zM303 670l-78 -205h-16l9 205q0 8 5 16.5t12.5 15t16.5 11t18 4.5q35 0 35 -35q0 -4 -2 -12z" />
<glyph unicode="#" horiz-adv-x="522" d="M616 472l-10 -48h-121l-58 -153h116l-10 -48h-124l-81 -223h-48l82 223h-149l-84 -223h-47l83 223h-114l11 48h120l57 153h-114l10 48h121l81 218h47l-80 -218h152l79 218h47l-79 -218h113zM438 424h-151l-58 -153h152z" />
<glyph unicode="$" horiz-adv-x="485" d="M438 610q-17 -63 -24 -111h-23v69q-28 36 -92 41l-40 -249q76 -11 114 -39q48 -35 48 -106q0 -85 -72 -154q-68 -65 -150 -72l-14 -99h-40l20 98q-116 13 -150 41q10 49 21 141h25v-88q30 -36 112 -51l42 265q-145 28 -145 139q0 84 61 144q54 52 141 72l8 60h36l-9 -58 q79 0 129 -33zM266 609q-56 1 -94 -43q-37 -43 -37 -101q0 -78 92 -99zM349 185q0 48 -25 73q-22 22 -77 34l-41 -261q59 0 101 47q42 46 42 107z" />
<glyph unicode="%" horiz-adv-x="911" d="M349 683q37 0 62 -11t46.5 -23.5t45 -23.5t56.5 -11q112 0 197 100h53l-554 -763h-61l479 659q-31 -21 -57.5 -27.5t-62.5 -6.5q-16 0 -33.5 2.5t-32.5 10.5q6 -21 6 -44q0 -54 -22.5 -99.5t-57 -78t-76 -50.5t-79.5 -18q-29 0 -54 8.5t-43.5 25t-29.5 41.5t-11 58 q0 52 21 98t54.5 80t74 53.5t79.5 19.5zM435 542q0 20 -5 38.5t-16.5 32.5t-30 22.5t-44.5 8.5q-30 0 -59.5 -18t-52 -47t-36.5 -66t-14 -75q0 -46 22.5 -72t68.5 -26q30 0 57.5 13.5t49.5 37t37.5 55.5t20.5 70zM755 367q-39 0 -79.5 -19.5t-74 -53.5t-54.5 -80t-21 -98 q0 -33 11 -58t29.5 -41.5t43.5 -25t54 -8.5q38 0 79.5 18t76 50.5t57 78t22.5 100.5q0 27 -7.5 51.5t-25 43.5t-45 30.5t-66.5 11.5zM674 24q-46 0 -68.5 26t-22.5 72q0 38 14 75t36.5 66t52 47t59.5 18q26 0 44.5 -8.5t30 -23t16.5 -33t5 -38.5q0 -37 -12.5 -73t-35 -64.5 t-53 -46t-66.5 -17.5z" />
<glyph unicode="&#x26;" horiz-adv-x="755" d="M743 430q0 -53 -37 -84q-30 -27 -85 -35l-75 -10v-2q15 0 27.5 -7.5t21.5 -19t14.5 -26.5t5.5 -30q0 -67 -68 -130q-28 -25 -60 -45t-70 -34q-62 -24 -132 -24q-100 0 -164 41q-75 48 -75 144q0 86 62 139q46 40 140 71q-76 34 -76 100q0 58 61 116q52 49 114 69 q27 8 57 8q54 0 95 -24q-2 -6 -2 -8l-5 -22l-19 -85h-22v60q-44 31 -84 31q-26 0 -48.5 -8.5t-39.5 -24t-27 -37t-10 -47.5q0 -53 43 -80q38 -23 92 -20q-4 -8 -9 -19t-10 -27v-2h-35q-82 0 -137 -43q-60 -47 -60 -127q0 -79 64 -122q56 -38 139 -38q79 0 147 47 q71 50 71 118q0 38 -24 62t-62 24q-41 0 -57 -25q-4 -6 -9 -19.5t-10 -35.5l-22 2l8 96q22 25 58 36q8 2 23.5 5.5t39.5 7.5l107 18q110 20 110 75q0 22 -7.5 32.5t-29.5 21.5l21 15q50 -20 50 -78z" />
<glyph unicode="'" horiz-adv-x="296" d="M277 606q-14 -33 -54 -62q-39 -27 -72 -27l3 18q59 17 83 65q6 12 6 27q0 20 -14 26q-8 2 -10 2q-4 0 -17 -6.5t-29 -5.5q-33 1 -33 29q0 17 15 32.5t39 18.5q6 1 11.5 1.5t10.5 0.5q74 0 74 -64q0 -25 -13 -55z" />
<glyph unicode="(" horiz-adv-x="382" d="M515 777q-223 -123 -283 -407q-23 -110 -23 -179q0 -165 124 -271l-18 -16q-196 135 -196 350q0 50 12 106q58 276 378 435z" />
<glyph unicode=")" horiz-adv-x="382" d="M398 331q-29 -134 -131 -248q-100 -112 -244 -179l-6 16q222 124 282 408q11 55 17 101t6 84q0 172 -122 264l16 18q53 -26 110 -101q84 -113 84 -256q0 -52 -12 -107z" />
<glyph unicode="*" horiz-adv-x="402" d="M501 599q0 -32 -32 -47q-5 -2 -16 -4.5t-29 -6.5q-38 -7 -93 -29q40 -22 79 -30q34 -7 40 -12q17 -11 17 -30q0 -14 -11 -27q-13 -19 -38 -19q-12 0 -21.5 5.5t-29.5 32.5q-11 16 -24 30t-29 27q-3 -29 -3 -53q0 -26 4 -49q3 -23 2 -30q-4 -17 -19.5 -31t-31.5 -14 q-38 2 -31 46q1 6 21 45q21 39 33 85q-21 -13 -40.5 -26.5t-37.5 -29.5q-31 -28 -43 -34q-13 -5 -25 -5q-24 0 -28 18q-3 6 -3 13q0 28 32 45q9 5 46 12q43 9 91 30q-22 11 -41.5 18t-38.5 11q-17 4 -26.5 6.5t-13.5 4.5q-15 9 -15 31q0 19 15 32.5t35 13.5q11 0 22 -6 q8 -5 27 -34q20 -28 53 -55q2 15 3.5 29t1.5 27q0 9 -1 20t-3 25q-2 19 0 30q4 19 19 32.5t32 13.5q30 0 30 -35q0 -17 -24 -69q-14 -31 -21.5 -49t-9.5 -23q42 24 75 54q17 16 27 24.5t15 10.5q13 6 25 6q34 0 34 -30z" />
<glyph unicode="+" horiz-adv-x="624" d="M561 231h-229v-231h-67v231h-229v68h229v228h67v-228h229v-68z" />
<glyph unicode="," horiz-adv-x="374" d="M115 -151l-5 10q106 58 120 118q5 23 -16 23q-5 0 -17.5 -4t-17.5 -4q-17 0 -28 14.5t-7 34.5q4 22 22 37t39 15q30 0 49.5 -21.5t19.5 -50.5q0 -49 -58 -104q-47 -46 -101 -68z" />
<glyph unicode="-" horiz-adv-x="409" d="M369 299l-15 -67h-289l15 67h289z" />
<glyph unicode="." horiz-adv-x="342" d="M162 -16q-23 0 -37.5 14t-14.5 35q0 15 6.5 29.5t18 25t26 17t29.5 6.5q23 0 37.5 -14t14.5 -35q0 -15 -6.5 -29.5t-18 -25t-26 -17t-29.5 -6.5z" />
<glyph unicode="/" horiz-adv-x="407" d="M457 713l-440 -826h-54l440 826h54z" />
<glyph unicode="0" horiz-adv-x="564" d="M545 341q-30 -145 -108 -242q-91 -115 -211 -115q-83 0 -131 75q-45 70 -45 180q0 26 2.5 52t7.5 52q31 157 106 252q85 108 212 108q42 0 76 -17t57 -48t35.5 -75.5t12.5 -99.5t-14 -122zM445 343q23 98 23 178q0 158 -96 154q-85 -4 -155 -148q-46 -96 -62 -184 q-18 -99 -18 -171q0 -167 93 -159q79 7 149 149q46 91 66 181z" />
<glyph unicode="1" horiz-adv-x="564" d="M442 690l-139 -659h94l-7 -31h-279l7 31h93l112 530l-140 -179h-39l234 308h64z" />
<glyph unicode="2" horiz-adv-x="564" d="M493 462q-44 -121 -166 -223q-51 -38 -102 -77t-103 -77h210q38 0 53 20q21 26 32 79h29l-39 -184h-418l4 16q20 14 50 39l72 60q65 63 107.5 106t62.5 68q73 88 114 197q16 39 16 78q0 49 -25.5 79t-70.5 30q-67 0 -104 -34q-33 -29 -33 -66q0 -18 14 -35t14 -28 q1 -26 -40 -43q-14 -6 -27 -6q-23 0 -38 17t-15 42q3 78 64 130q69 58 185 53q38 -2 69 -14.5t53.5 -34.5t34.5 -51.5t12 -64.5q0 -37 -15 -76z" />
<glyph unicode="3" horiz-adv-x="564" d="M526 504q-29 -80 -106 -111q-66 -27 -120 -27q23 -4 39 -7.5t27 -6.5q46 -16 73 -43q41 -41 41 -102q0 -31 -10 -58q-34 -97 -150 -142q-61 -23 -151 -23q-70 0 -116 37q-45 37 -45 87q0 21 7 36q24 60 80 57q8 0 16 -4.5t14 -11.5t9 -15t1 -16q-6 -20 -23 -36 q-16 -15 -18 -35q-4 -55 89 -70q5 -1 10 -1.5t10 -0.5q54 0 97 32q60 46 76 128q2 14 3.5 25.5t1.5 22.5q0 38 -18 70q-31 54 -88 58q-13 1 -35.5 2t-55.5 2l8 34q73 -1 110 5q36 8 70 33q48 34 66 88q11 36 11 64q0 32 -13 57q-29 51 -90 48q-95 -4 -103 -75 q-2 -14 3.5 -24.5t3.5 -23.5q-6 -35 -57 -42q-14 -2 -29 10q-18 13 -18 39q0 16 7 31q43 108 200 108q87 0 137 -46q44 -41 44 -104q0 -23 -8 -49z" />
<glyph unicode="4" horiz-adv-x="564" d="M486 195l-8 -41h-94l-26 -123h93l-6 -31h-282l7 31h94l26 123h-252l8 38l289 453q39 61 74 61q14 0 28 -9q25 -16 25 -35q0 -24 -31 -59q-46 -53 -85.5 -98.5t-73.5 -85.5q-82 -96 -127.5 -151.5t-56.5 -72.5h210l35 159l100 35l-41 -194h94z" />
<glyph unicode="5" horiz-adv-x="564" d="M530 690q-38 -38 -105 -67q-69 -31 -136 -31q-47 0 -80 16l-62 -233q52 58 144 72q16 3 35 3q74 0 120 -37q60 -47 60 -141q0 -35 -11 -74q-27 -95 -102 -150q-89 -67 -192 -64q-94 1 -139 37q-38 32 -38 80q0 14 3 28q12 60 75 56q16 -1 27 -12.5t9 -28.5 q-2 -15 -15 -40q-12 -22 -10 -42q3 -29 36 -41q26 -9 56 -6q64 8 102 43q63 57 85 147q9 33 9 69q0 57 -19 85q-32 48 -95 48q-71 0 -157 -89h-31l96 381l28 11q62 -35 149 -35q90 0 146 37z" />
<glyph unicode="6" horiz-adv-x="564" d="M564 582q-4 -35 -18 -49t-47 -18q-25 -3 -41 7.5t-16 24.5q0 6 3 11q4 10 17 21q9 7 13 23q1 5 1 15q0 56 -59 56q-13 0 -26 -3q-88 -19 -163 -156q-65 -116 -84 -225q28 57 81 94q50 36 101 43q19 3 39 3q79 0 118.5 -46t39.5 -119q0 -30 -8 -67q-23 -93 -90 -144 q-93 -69 -209 -69q-177 0 -177 206q0 20 2 42.5t6 45.5q22 147 102 263q22 31 48 57.5t57 48.5q63 43 126 51q22 3 43 3q76 0 113 -37q33 -31 28 -82zM413 195q9 37 9 72q0 123 -103 123q-55 0 -110 -60q-56 -59 -72 -135q-7 -29 -7 -58q0 -60 31 -94q25 -27 64 -29 q60 -1 112 47q55 52 76 134z" />
<glyph unicode="7" horiz-adv-x="564" d="M569 690l-6 -33q-63 -107 -116.5 -207.5t-99.5 -196.5q-20 -46 -46 -102t-57 -122q-23 -47 -72 -47q-46 0 -46 43q0 17 8 33q14 24 73 104q34 48 60 85t44 65q43 66 88 139t93 155h-254q-43 0 -53 -16q-16 -27 -24 -62h-30l34 162h404z" />
<glyph unicode="8" horiz-adv-x="564" d="M540 530q-34 -121 -194 -153q49 -21 96 -68q62 -64 62 -129q0 -60 -26 -98.5t-68 -60t-95.5 -29.5t-108.5 -8q-36 0 -70.5 12t-60.5 34.5t-42 53.5t-16 69q0 80 70 135q64 51 146 55q-52 29 -77 63q-30 40 -30 96q0 96 77 152q67 49 168 49q81 0 131 -45q43 -40 43 -96 q0 -15 -5 -32zM470 566q0 42 -24 71q-28 34 -77 35q-68 2 -112 -36q-48 -38 -48 -104q0 -45 27 -76q34 -39 88 -67q60 27 99 69q47 52 47 108zM405 118q10 23 10 47q0 53 -60 100l-50 32t-51 33q-66 -16 -111 -64q-48 -51 -48 -117q0 -53 33 -92q36 -43 90 -43 q69 0 118.5 27.5t68.5 76.5z" />
<glyph unicode="9" horiz-adv-x="564" d="M539 408q-15 -132 -105 -263q-43 -62 -103 -105q-64 -46 -125 -53q-26 -3 -48 -3q-141 0 -138 113q1 65 67 73q24 3 40.5 -7.5t16.5 -24.5q0 -6 -3 -10q-6 -11 -18 -21q-8 -8 -12 -24q-2 -10 -2 -15q0 -55 59 -55q12 0 27 3q81 18 162 158q62 108 82 221q-26 -57 -78 -94 q-48 -33 -101 -42q-18 -3 -38 -3q-40 0 -70 12.5t-49.5 34.5t-29.5 52t-10 66q0 30 8 68q21 91 94 152t205 61q82 0 129 -65q43 -61 43 -168q0 -30 -3 -61zM448 490q4 16 5.5 30.5t1.5 28.5q0 62 -31 94q-25 27 -64 29q-69 2 -116.5 -45t-70.5 -137q-9 -38 -9 -71 q0 -123 103 -123q53 0 109 59q55 58 72 135z" />
<glyph unicode=":" horiz-adv-x="413" d="M234 338q-23 0 -37 14t-14 36q0 31 24 54t55 23q23 0 37 -14t14 -36q0 -15 -6.5 -29t-17.5 -24.5t-25.5 -17t-29.5 -6.5zM162 -16q-23 0 -37.5 14t-14.5 35q0 15 6.5 29.5t18 25t26 17t29.5 6.5q23 0 37.5 -14t14.5 -35q0 -15 -6.5 -29.5t-18 -25t-26 -17t-29.5 -6.5z " />
<glyph unicode=";" horiz-adv-x="449" d="M270 338q-23 0 -37 14t-14 36q0 31 23.5 54t54.5 23q23 0 37.5 -14t14.5 -36q0 -15 -6.5 -29t-17.5 -24.5t-25.5 -17t-29.5 -6.5zM267 -35q-11 -22 -28 -42t-40 -38q-50 -39 -89 -39l6 24q62 18 100 83q11 20 11 35q0 5 -3 10q-20 -14 -31 -14q-23 0 -37.5 14t-14.5 36 q0 31 24 52.5t56 25.5q66 7 66 -69q0 -36 -20 -78z" />
<glyph unicode="&#x3c;" horiz-adv-x="590" d="M706 689l-13 -66l-555 -350l406 -350l-15 -66l-448 389l12 55z" />
<glyph unicode="=" horiz-adv-x="607" d="M571 339h-535v61h535v-61zM571 137h-535v61h535v-61z" />
<glyph unicode="&#x3e;" horiz-adv-x="590" d="M629 301l-12 -55l-615 -389l15 66l554 350l-405 350l13 66z" />
<glyph unicode="?" horiz-adv-x="567" d="M476 530q-26 -73 -140 -163q-100 -79 -126 -196h-16q8 45 13 72.5t7 37.5q14 52 48 95q8 11 25.5 31t45.5 51q36 40 49 68q21 45 21 80q0 68 -75 68q-84 0 -102 -69q-2 -10 -2 -12q0 -6 5 -15t3 -21q-6 -35 -57 -42q-17 -2 -30 6q-19 10 -19 37q0 14 4 26q12 45 63 79 q59 40 142 40q69 0 109 -28q43 -31 43 -86q0 -26 -11 -59zM163 -16q-23 0 -38 14t-15 35q0 15 6.5 29.5t18 25t26 17t29.5 6.5q23 0 37.5 -14t14.5 -35q0 -15 -6.5 -29.5t-17.5 -25t-25.5 -17t-29.5 -6.5z" />
<glyph unicode="@" horiz-adv-x="812" d="M770 404q0 -119 -70 -190q-31 -32 -70 -54q-47 -26 -83 -26q-33 0 -53 26q-17 22 -18 57h-2q-15 -20 -27.5 -33.5t-22.5 -21.5q-28 -22 -66 -22q-56 0 -94 44q-35 41 -35 98q0 77 57 145q64 75 151 75q71 0 85 -78h2l19 70h72l-74 -274q-4 -13 -4 -25q0 -35 32 -35 q39 0 93 60q69 76 69 184q0 100 -86 171q-83 66 -186 66q-134 0 -225 -87q-90 -86 -90 -220q0 -136 92 -222t229 -86q162 0 255 145h46q-43 -84 -127 -137q-84 -51 -179 -51q-150 0 -253 96q-107 98 -107 248t101 254q102 104 252 104q125 0 219 -77q98 -81 98 -204z M507 404q0 28 -13 50q-16 25 -43 25q-60 0 -107 -83q-41 -73 -41 -138q0 -39 15 -64q16 -31 51 -31q60 0 103 94q35 78 35 147z" />
<glyph unicode="A" horiz-adv-x="682" d="M670 31l-7 -31h-260l7 31h87l-27 198h-249l-56 -91q-36 -59 -36 -86q0 -5 2 -11q4 -10 62 -10l-7 -31h-224l7 31q53 -2 74 11q28 16 76 96l344 572h40l92 -679h75zM465 266l-43 312l-178 -312h221z" />
<glyph unicode="B" horiz-adv-x="710" d="M694 519q-13 -65 -76 -112q-56 -42 -127 -53q60 -2 106 -33q60 -39 60 -108q0 -17 -5 -39q-39 -174 -286 -174h-358l7 31h94l134 628h-94l6 31h360q85 0 134 -36t49 -99q0 -19 -4 -36zM584 520q5 28 5 47q0 92 -98 92h-148l-63 -293h132q48 0 94 32q61 40 78 122z M532 176q5 25 5 43q0 63 -46 94q-35 23 -85 23h-132l-64 -305h140q59 0 103 26q62 36 79 119z" />
<glyph unicode="C" horiz-adv-x="655" d="M679 666q-34 -76 -49 -148h-30l15 70q4 19 -15 43q-17 20 -39 29q-55 21 -101 18q-197 -14 -265 -331q-15 -71 -15 -130q0 -91 34 -142.5t98 -52.5q82 -2 150 27q53 22 124 81l8 -14l-36 -45q-14 -9 -27.5 -18t-27.5 -18q-19 -11 -38 -19.5t-39 -14.5q-53 -15 -117 -15 q-107 0 -174 76t-67 196q0 45 10 89q35 163 147 263q106 97 237 97q82 0 141 -14q23 -6 76 -27z" />
<glyph unicode="D" horiz-adv-x="759" d="M733 337q-30 -140 -144 -242q-115 -101 -234 -97q-55 2 -106.5 2.5t-100.5 1.5q-37 1 -72 0.5t-68 -2.5l7 31h94l133 628h-94l7 31q81 -4 160 -3q72 2 188 0q117 -1 179.5 -66t62.5 -180q0 -49 -12 -104zM627 339q8 43 12.5 78t4.5 64q0 167 -147 178q-86 6 -162 -3 l-132 -625q67 -6 116 -6q14 0 24.5 0.5t18.5 1.5q106 15 173 99q67 80 92 213z" />
<glyph unicode="E" horiz-adv-x="721" d="M729 690l-40 -203h-30q3 28 3 46q0 50 -23 81q-31 41 -127 43l-172 2l-61 -290h123q44 0 68 25q29 29 44 93h31l-59 -278h-31q11 66 -5 93q-20 33 -56 33h-123l-64 -304l188 3q29 0 71 15q43 15 68 34q66 52 97 157h32l-64 -240h-593l6 31h94l134 628h-94l6 31h577z" />
<glyph unicode="F" horiz-adv-x="691" d="M723 690l-41 -203h-30q3 28 3 46q0 50 -23 81q-31 41 -127 43l-172 2l-62 -290h123q45 0 71 26t42 92h31l-60 -278h-31q15 60 -4 93t-56 33h-123l-64 -304h94l-7 -31h-281l7 31h94l133 628h-94l7 31h570z" />
<glyph unicode="G" horiz-adv-x="685" d="M677 664q-34 -76 -49 -148h-30l15 70q4 19 -16 42q-16 19 -38 30q-43 22 -101 18q-197 -14 -264 -331q-15 -71 -15 -131q0 -91 33 -140q35 -53 98 -54q52 -2 114 21q57 21 66 37q7 12 13 40l26 121h-114l6 30h234l-6 -31h-35l-44 -205q-28 -8 -56 -16.5t-56 -16.5 q-60 -16 -151 -16q-106 0 -174 77q-67 76 -67 195q0 46 10 89q34 161 147 262q105 96 237 98q81 1 141 -14q25 -7 76 -27z" />
<glyph unicode="H" horiz-adv-x="807" d="M845 690l-5 -31h-94l-134 -628h94l-7 -31h-288l7 31h94l66 315h-307l-67 -315h94l-7 -31h-283l7 31h93l134 628h-94l6 31h283l-5 -31h-94l-59 -278h307l59 278h-93l5 31h288z" />
<glyph unicode="I" horiz-adv-x="404" d="M442 690l-6 -31h-94l-133 -628h93l-6 -31h-288l6 31h94l134 628h-94l6 31h288z" />
<glyph unicode="J" horiz-adv-x="383" d="M438 690l-7 -31h-94l-116 -545q-8 -37 -15 -63.5t-14 -42.5q-25 -67 -80 -120q-80 -78 -155 -78q-7 0 -17 2l11 74l12 6q25 -18 65 -18q24 0 42 32q7 13 13.5 32.5t11.5 45.5l143 675h-94l7 31h287z" />
<glyph unicode="K" horiz-adv-x="783" d="M813 690l-6 -31q-48 0 -91 -24q-36 -20 -99 -77q-15 -14 -47.5 -43.5t-83.5 -75.5l144 -352q5 -15 11.5 -30.5t21.5 -21.5q9 -4 77 -4l-7 -31h-297l6 31q44 0 61 6q4 2 7.5 4.5t5.5 6.5q11 15 0 41l-110 280q-40 -37 -80 -73.5t-80 -73.5l-41 -191h93l-6 -31h-284l7 31 h94l133 628h-93l5 31h285l-6 -31h-93l-79 -370l332 298q29 26 29 44q0 9 -4 16q-6 15 -61 12l5 31h251z" />
<glyph unicode="L" horiz-adv-x="640" d="M622 240l-63 -240h-551l7 31h94l133 628h-94l7 31h282l-7 -31h-95l-133 -628l153 3q27 1 71 15q44 15 67 34q71 56 97 157h32z" />
<glyph unicode="M" horiz-adv-x="923" d="M955 690l-5 -31h-94l-134 -628h94l-7 -31h-288l7 31h94l125 591l-373 -611l-11 -1l-92 608l-106 -500q-10 -52 9 -77q7 -10 66 -10l-7 -31h-225l7 31q55 0 67 9q34 25 45 78l110 519q3 22 -24 22h-56l5 31h198l72 -516l313 516h210z" />
<glyph unicode="N" horiz-adv-x="783" d="M815 690l-6 -31q-59 0 -70 -10q-32 -26 -43 -76l-128 -590h-23l-274 654l-110 -519q-10 -52 10 -77q7 -10 66 -10l-7 -31h-222l7 31q56 0 68 9q32 23 44 78l110 519q4 22 -24 22h-56l6 31h197l215 -515l84 398q3 16 3 30q0 30 -15 47q-8 9 -64 9l6 31h226z" />
<glyph unicode="O" horiz-adv-x="712" d="M683 339q-37 -169 -143 -264q-100 -91 -236 -91q-109 0 -173 78q-65 79 -65 200q0 20 2 40.5t6 42.5q30 164 143 265q106 96 240 96q115 0 178 -67t63 -184q0 -55 -15 -116zM572 341q18 85 18 150q0 184 -139 184q-195 0 -265 -330q-10 -45 -14.5 -82.5t-4.5 -69.5 q0 -175 146 -175q94 0 165 93q62 84 94 230z" />
<glyph unicode="P" horiz-adv-x="663" d="M683 495q-23 -111 -114 -157q-77 -39 -216 -39h-86l-57 -268h94l-7 -31h-288l7 31h93l134 628h-94l6 31h313q108 0 165 -42q54 -41 54 -112q0 -21 -4 -41zM576 495q5 28 5 49q0 115 -131 115h-106l-71 -332h87q81 0 137 39q64 43 79 129z" />
<glyph unicode="Q" horiz-adv-x="712" d="M683 338q-32 -137 -114 -234q-100 -117 -232 -121l33 -16.5t44 -22.5q72 -32 127 -32q13 0 25.5 1.5t26.5 3.5q-4 -22 -34 -47q-28 -23 -55 -25q-56 -2 -97 21q-17 10 -41.5 24t-58.5 31q-32 12 -61 12q-24 0 -52 -16q-13 -7 -25 -13.5t-25 -13.5q7 39 45 68q35 26 71 29 h1q-91 15 -143 90q-52 74 -52 185q0 20 2 40.5t6 41.5q30 165 143 266q107 95 240 95q115 0 178 -66t63 -184q0 -56 -15 -117zM572 340q18 85 18 150q0 184 -139 184q-195 0 -265 -330q-19 -86 -19 -152q0 -175 146 -175q95 0 165 94q62 85 94 229z" />
<glyph unicode="R" horiz-adv-x="673" d="M673 512q-16 -77 -86 -127q-63 -45 -154 -53l146 -278q9 -21 57 -26l-6 -29q-75 3 -70 3q-6 0 -13 -0.5t-15 -1.5q-20 -3 -29 -3q-5 8 -12 21t-17 31l-109 234q-7 15 -31 45h-68l-62 -297h94l-7 -31h-283l7 31h94l133 628h-94l7 31h308q106 0 162 -39q52 -36 52 -101 q0 -9 -1 -18.5t-3 -19.5zM570 514q4 17 4 37q0 108 -130 108h-107l-65 -303h87q182 0 211 158z" />
<glyph unicode="S" horiz-adv-x="510" d="M490 655q-20 -62 -24 -131h-30v74q-34 43 -109 43q-65 0 -109 -40q-44 -41 -44 -103q0 -97 93 -116l63 -13q139 -28 139 -138q0 -106 -90 -178q-82 -67 -192 -67q-83 0 -147 36q8 38 13.5 75.5t9.5 72.5h29v-96q55 -42 136 -42q72 0 118 43q47 44 47 115q0 81 -79 100 l-92 22q-64 15 -91 51.5t-27 102.5q0 92 84 160q79 62 173 62q70 0 129 -33z" />
<glyph unicode="T" horiz-adv-x="677" d="M735 690l-40 -203h-30q3 30 3 44q0 51 -24 83q-28 38 -127 43l-44 2l-134 -628h94l-7 -31h-288l7 31h94l133 628l-47 -2q-92 -5 -138 -43q-49 -42 -73 -127h-30l45 203h606z" />
<glyph unicode="U" horiz-adv-x="776" d="M842 690l-6 -31q-60 0 -71 -10q-32 -26 -42 -77l-63 -297q-36 -168 -107 -232q-71 -63 -219 -62q-104 2 -162 58q-52 52 -52 131q0 25 4 45l95 444h-93l6 31h286l-6 -31h-94l-98 -442q-8 -40 -8 -68q0 -135 160 -135q91 0 149 47q66 55 93 183l69 328q12 54 -10 78 q-9 9 -65 9l6 31h228z" />
<glyph unicode="V" horiz-adv-x="718" d="M803 689l-6 -31q-54 2 -74 -11q-32 -20 -77 -96l-338 -572h-33l-92 679h-75l6 31h253l-6 -31h-80l70 -529l255 422q36 58 36 87q0 4 -2 10q-4 10 -62 10l6 31h219z" />
<glyph unicode="W" horiz-adv-x="1043" d="M1128 690l-7 -31q-53 2 -74 -11q-20 -13 -31 -24q-10 -11 -21.5 -28.5t-24.5 -43.5l-288 -572h-40l-69 546l-328 -546h-35l-27 679h-75l7 31h259l-7 -31h-76l9 -510l324 541h31l68 -530l194 392q34 67 34 87t-62 20l7 31h232z" />
<glyph unicode="X" horiz-adv-x="765" d="M817 690l-5 -31q-34 0 -83 -25q-31 -16 -77 -60l-190 -193l185 -350h71l-7 -31h-267l6 31h83l-142 276q0 1 -199 -202q-34 -31 -34 -49q0 -5 4 -9q14 -14 29 -15q2 -1 34 -1l-7 -31h-238l3 34q55 0 87 16q29 14 79 60l224 228l-160 321h-81l5 31h268l-6 -31h-75 q31 -61 61.5 -122t61.5 -122l165 167q32 32 32 49q0 4 -3 9q-15 19 -64 19l6 31h234z" />
<glyph unicode="Y" horiz-adv-x="687" d="M775 690l-5 -31q-34 0 -83 -25q-31 -15 -77 -75l-205 -283l-51 -245h94l-7 -31h-282l7 31h94l49 241l-138 387h-81l5 31h268l-6 -31h-75q28 -85 55 -168t55 -168l163 225q46 61 46 84q0 4 -2 8q-15 19 -64 19l6 31h234z" />
<glyph unicode="Z" horiz-adv-x="662" d="M698 690l-546 -659l218 3q29 0 71 15t67 34q64 49 93 157h37l-64 -240h-573l544 659l-175 -2q-107 -2 -147 -40q-34 -31 -51 -70q-4 -8 -8.5 -23t-10.5 -37h-31l46 204z" />
<glyph unicode="[" horiz-adv-x="323" d="M316 684l-85 -7q-15 -2 -21 -30q-11 -57 -25 -138.5t-30 -189.5q-8 -55 -20 -136.5t-28 -191.5q-2 -14 -3 -22.5t-1 -12.5q0 -18 27 -19l77 -7l-5 -27q-7 0 -19 0.5t-29 1.5q-13 1 -22.5 1h-17.5q1 0 -95 -3l-2 5q1 4 11 60.5t30 165.5q15 84 30.5 183t31.5 216 q8 57 13 100t9 74l7 4q29 -1 50 -1.5t34 -0.5q14 0 35 0.5t48 1.5v-27z" />
<glyph unicode="\" horiz-adv-x="588" d="M498 0h-59l-360 711h58z" />
<glyph unicode="]" horiz-adv-x="323" d="M306 706q-1 -4 -11 -60.5t-30 -165.5q-15 -84 -30.5 -183t-31.5 -216q-8 -57 -13 -100t-9 -74l-7 -4q-29 1 -50 1.5t-34 0.5q-14 0 -35 -0.5t-48 -1.5v27l85 7q15 1 21 30q11 57 25 138.5t30 189.5q8 55 20 136.5t28 191.5q2 14 3 22.5t1 12.5q0 17 -27 19l-77 7l5 27 q7 0 19 -0.5t29 -1.5q13 -1 22.5 -1h17.5q-1 0 95 3z" />
<glyph unicode="^" horiz-adv-x="500" d="M450 244h-62l-138 311l-138 -311h-63l177 382h48z" />
<glyph unicode="_" horiz-adv-x="485" d="M485 -121h-485v48h485v-48z" />
<glyph unicode="`" horiz-adv-x="323" d="M242 502l-39 -2l-180 99q-29 15 -33 39q-2 11 10 19.5t27 8.5q13 0 35 -17z" />
<glyph unicode="a" d="M411 79q-107 -91 -140 -91q-25 0 -25 32q0 25 6 52l26 116l-3 1q-78 -116 -145 -165q-53 -38 -76 -38q-33 0 -33 82q0 73 38 187q39 117 80 146q55 40 83 52t65 12q33 0 78 -19l32 18l10 -9l-89 -368q-8 -33 13 -33q15 0 34.5 15t38.5 31zM326 399q-54 18 -81 18 q-44 0 -66 -24q-16 -18 -36 -68q-52 -137 -52 -225q0 -46 18 -46q41 0 127 114q63 84 90 231z" />
<glyph unicode="b" horiz-adv-x="449" d="M420 356q0 -88 -43 -177q-45 -95 -114 -141q-71 -49 -126 -49q-41 0 -72 21q-37 24 -29 59l110 588q-25 -10 -89 -11l3 24q44 4 79 12q38 9 76 29l12 -11l-81 -382q111 150 220 150q23 0 34 -14q20 -26 20 -98zM350 337q0 74 -38 74q-11 0 -25 -4.5t-29 -13t-30 -19.5 t-27 -24q-53 -56 -81 -165q-12 -47 -12 -88q0 -62 70 -62q84 0 132 121q40 99 40 181z" />
<glyph unicode="c" horiz-adv-x="395" d="M376 441q-13 -33 -23 -124h-22v58q0 18 -25 30q-20 12 -51 12t-56 -11q-51 -23 -80 -111q-22 -66 -22 -144q0 -115 86 -115q42 0 137 63l15 10l7 -20l-48 -40q-77 -63 -151 -63q-120 0 -120 143q0 79 29 157q30 78 76 107q35 23 57.5 37t33.5 19q33 16 65 16q60 0 92 -24 z" />
<glyph unicode="d" horiz-adv-x="485" d="M471 696l-122 -569q-8 -40 -8 -52q0 -22 14 -22q11 0 37 17l43 30l9 -19l-78 -58q-50 -36 -70 -36q-28 0 -28 32q0 40 15 99l20 78l-4 1q-61 -97 -124 -152q-66 -60 -114 -60q-43 0 -43 103q0 69 21 146q33 113 102 166q27 20 43.5 31.5t23.5 15.5q29 17 64 17 q39 0 78 -14l32 199q-23 -10 -81 -7l3 24q43 3 78 12q38 9 77 29zM341 394q-41 22 -103 22q-37 0 -58 -15q-37 -25 -66 -130q-26 -98 -26 -174q0 -44 27 -44q28 0 89 56q97 91 125 227z" />
<glyph unicode="e" horiz-adv-x="380" d="M368 389q0 -92 -121 -143q-23 -11 -66 -24l-80 -19q-4 -20 -6 -40.5t-2 -41.5q0 -91 78 -91q52 0 129 56l23 17l8 -19q-121 -100 -193 -100q-118 0 -118 124q0 60 30 159q24 79 72 117q101 79 161 79q36 0 60.5 -19.5t24.5 -54.5zM296 371q0 51 -49 51q-20 0 -45 -12 q-55 -25 -87 -149l-9 -36q31 7 57.5 15t48.5 19q16 7 31.5 19.5t27 27.5t18.5 31.5t7 33.5z" />
<glyph unicode="f" horiz-adv-x="270" d="M401 698q-8 -23 -15.5 -42.5t-12.5 -36.5l-9 -4q-23 38 -69 38q-42 0 -66 -46q-11 -22 -22 -74l-21 -109q27 0 45 0.5t28 1.5q2 1 10 2.5t21 4.5l4 -7q-5 -12 -9 -25.5t-8 -28.5h-100q-17 -84 -41 -187.5t-55 -231.5q-35 -113 -97 -169q-58 -52 -107 -52q-21 0 -34 8 q4 6 13 39q7 31 9 39l14 4q20 -29 46 -29q55 0 86 88q20 57 57 266q16 85 25 141t13 84h-79l5 21q41 14 83 36l15 76q11 50 19 69q7 16 25 37q9 11 56 47t69 46q14 7 34 7q45 0 68 -13z" />
<glyph unicode="g" horiz-adv-x="485" d="M476 414l-9 -43q-42 -6 -81 -2q2 -13 3 -21.5t1 -12.5q0 -83 -66 -141q-50 -44 -98 -52q-26 -38 -26 -44q0 -27 45 -64l58 -48q62 -51 62 -103q0 -37 -28 -71q-13 -15 -28 -27t-34 -20q-72 -33 -141 -33q-67 0 -115 23q-62 29 -62 90q0 117 191 173q-20 17 -20 32 q0 22 26 46l38 35l-2 2q-5 -1 -11 -1h-11q-56 0 -87 28q-35 30 -35 88q0 110 83 169q72 51 130 51q37 0 66 -13q37 -16 49 -44q67 0 99 9zM320 328q0 107 -86 107q-51 0 -85 -43t-34 -109q0 -120 92 -120q55 0 87 57q26 47 26 108zM301 -149q0 43 -63 93l-74 57 q-61 -15 -99 -47q-46 -39 -46 -96q0 -48 47 -77q37 -22 91 -22q48 0 91 22q53 26 53 70z" />
<glyph unicode="h" horiz-adv-x="485" d="M457 82q-32 -23 -58.5 -41t-47.5 -31q-31 -19 -48 -19q-30 0 -30 39q0 27 12 74l50 190q14 54 14 87q0 21 -21 21q-31 0 -91 -57q-59 -56 -93 -116q-38 -69 -61 -222l-67 -16l-6 11q34 101 85 374l53 281q-25 -10 -89 -11l3 24q44 4 80 12.5t75 28.5l12 -11l-93 -433 l4 -2q13 17 34 41.5t50 56.5q49 45 99 75q49 30 76 30q31 0 31 -34q0 -27 -11 -73l-62 -248q-7 -27 -7 -39q0 -20 13 -20q15 0 59 29l25 17z" />
<glyph unicode="i" horiz-adv-x="270" d="M256 649q0 -30 -14.5 -49t-37.5 -19q-39 0 -39 42q0 12 4.5 23t12.5 20t18 14.5t21 5.5q15 0 25 -11t10 -26zM234 77q-69 -51 -106 -72q-32 -19 -48 -19q-31 0 -31 39q0 29 13 74l64 233q8 30 8 42q0 23 -18 23q-6 0 -49 -28l-27 -17l-7 19l27 20q97 72 128 72 q26 0 26 -27q0 -11 -5 -34l-75 -294q-7 -27 -7 -39q0 -20 13 -20q15 0 59 29l25 17z" />
<glyph unicode="j" horiz-adv-x="270" d="M257 654q0 -30 -14.5 -49t-37.5 -19q-39 0 -39 42q0 12 4.5 23t12.5 20t18 14.5t21 5.5q15 0 25 -11t10 -26zM215 407l-73 -339q-11 -51 -21 -91.5t-19 -71.5q-16 -55 -50 -109q-40 -64 -78 -64q-29 0 -42 7l8 55q30 -18 52 -18q28 0 45 84l96 477q8 43 8 42q0 23 -18 23 q-6 0 -49 -28l-27 -17l-7 19l27 20q97 72 128 72q25 0 25 -26q0 -10 -5 -35z" />
<glyph unicode="k" horiz-adv-x="435" d="M430 455l-17 -61q-18 5 -35 5q-61 0 -152 -83l-14 -13q48 -153 93 -234q14 -23 25 -23q13 0 29 10l41 23l8 -18l-44 -31q-61 -43 -78 -43q-16 0 -36 35q-32 58 -87 225q-50 -50 -65 -123l-23 -120l-65 -17l-8 10q15 58 34.5 143t44.5 199l59 314q-22 -9 -89 -11l3 24 q44 3 79 12q38 9 76 29l12 -11l-103 -470l2 -2q166 240 260 240q24 0 50 -9z" />
<glyph unicode="l" horiz-adv-x="270" d="M243 700l-124 -587q-6 -29 -6 -39q0 -20 12 -20q15 0 59 29l26 17l9 -18q-32 -23 -58.5 -41t-47.5 -31q-31 -19 -48 -19q-30 0 -30 39q0 26 32 148q63 237 96 479q-25 -10 -89 -11l3 24q43 4 78 12q20 5 39 12t38 17z" />
<glyph unicode="m" horiz-adv-x="755" d="M718 77q-32 -23 -58 -41t-48 -31q-31 -19 -48 -19q-31 0 -31 39q0 35 13 74q31 93 60 228q16 70 -5 70q-36 0 -116 -74q-83 -80 -110 -218l-20 -104l-67 -15l-5 11q27 112 72 330q13 70 -5 70q-41 0 -111 -73q-69 -72 -104 -224l-22 -99l-65 -15l-3 11q15 51 31 117.5 t33 150.5q15 73 15 109q0 23 -17 23q-6 0 -50 -28l-27 -17l-7 19l27 20q97 72 128 72q24 0 24 -32q0 -16 -6 -40l-30 -122l2 -2q45 59 65 83q34 37 80 68q67 45 102 45q26 0 26 -32q0 -14 -6 -39l-29 -126l2 -2q62 88 161 154q70 45 102 45q27 0 27 -30q0 -13 -7 -37 l-73 -288q-7 -27 -7 -39q0 -20 13 -20q16 0 59 29l25 17z" />
<glyph unicode="n" horiz-adv-x="540" d="M510 78q-69 -51 -106 -72q-32 -19 -49 -19q-30 0 -30 39q0 23 13 74l50 205q11 47 11 70t-16 23q-24 0 -67 -30q-79 -55 -131 -162q-37 -74 -55 -202q-13 -2 -30 -6.5t-38 -10.5l-6 11q15 51 31 117.5t33 150.5q15 73 15 109q0 23 -17 23q-7 0 -50 -28l-27 -17l-7 19 l27 20q97 72 128 72q24 0 24 -32q0 -16 -6 -40l-35 -149h4q36 52 68 89t61 60q88 72 143 72q32 0 32 -34q0 -14 -3 -32t-8 -41l-59 -248q-7 -27 -7 -39q0 -20 12 -20q16 0 60 29l25 17z" />
<glyph unicode="o" d="M410 315q0 -60 -23 -127t-60 -113q-15 -19 -35 -35.5t-43 -28.5t-47 -18.5t-47 -6.5q-128 0 -128 156q0 100 39 177.5t117 117.5q53 28 98 28q64 0 99 -44q30 -39 30 -106zM336 304q0 124 -90 124q-37 0 -59 -17q-39 -31 -65 -123q-21 -77 -21 -141q0 -124 91 -124 q42 0 71 32q36 42 55 117q18 67 18 132z" />
<glyph unicode="p" horiz-adv-x="485" d="M451 342q0 -50 -22 -116q-23 -68 -51 -111q-42 -63 -140 -111q-42 -21 -68 -21q-11 0 -58 14l-41 -254q-22 -4 -39.5 -8t-31.5 -9l-7 6q17 75 31 142.5t24 127.5l45 262q8 47 12 74t4 35q0 21 -18 21q-6 0 -49 -26l-27 -17l-7 19l27 20q97 72 128 72q22 0 22 -32 q0 -8 -1.5 -17.5t-3.5 -22.5l-21 -109l2 -2q33 64 99 119q73 64 135 64q56 0 56 -120zM381 340q0 65 -33 65q-31 0 -53 -13q-59 -35 -102 -103q-41 -65 -54 -135l-18 -103q32 -22 83 -22q80 0 134 122q43 98 43 189z" />
<glyph unicode="q" horiz-adv-x="449" d="M421 458q-5 -15 -11.5 -43.5t-14.5 -71.5l-72 -382q-24 -127 -30 -214q-17 -2 -38 -6.5t-45 -10.5l-9 14q18 18 26 55l73 395l-2 2q-22 -41 -66 -91q-23 -26 -46.5 -46.5t-46.5 -36.5q-52 -35 -81 -35q-33 0 -33 88q0 66 23 156q21 80 40 109q20 33 81 80q61 46 105 46 q47 0 101 -24l32 22zM342 392q-60 26 -92 26q-54 0 -72 -23q-35 -44 -60 -138q-23 -87 -23 -146q0 -56 21 -56q29 0 76 44q60 57 85 97q34 54 45 104z" />
<glyph unicode="r" horiz-adv-x="377" d="M372 462q-11 -63 -15 -108h-14q-12 18 -36 18q-28 0 -79 -63q-57 -70 -83 -187l-25 -116q-43 -8 -65 -15l-9 7q20 64 38 141t33 168l2 12q4 23 5.5 37.5t1.5 22.5q0 21 -17 21q-9 0 -50 -26l-27 -17l-7 19l27 20q97 72 128 72q24 0 24 -32q0 -16 -6 -40 q-8 -34 -15.5 -68.5t-13.5 -69.5l2 -2q15 35 71 115q17 24 28.5 39.5t17.5 22.5q33 35 65 35q7 0 19 -6z" />
<glyph unicode="s" horiz-adv-x="377" d="M350 437q-7 -34 -12 -61t-7 -48h-22v53q-11 20 -40 33q-27 11 -51 11q-41 0 -69 -25q-31 -25 -31 -65q0 -34 23 -51q13 -9 53 -17l42 -8q103 -19 103 -92t-70 -125q-75 -57 -141 -57q-53 0 -104 27q15 62 21 128h24v-82q37 -34 90 -34q51 0 83 27.5t32 78.5 q0 31 -13.5 44t-44.5 19l-61 12q-94 18 -94 98q0 50 35 85q76 76 155 76q49 0 99 -27z" />
<glyph unicode="t" horiz-adv-x="323" d="M301 427l-11 -49h-104q-22 -109 -34 -175t-16 -90q-2 -14 -3 -24t-1 -15q0 -20 13 -20q16 0 59 29l43 30l10 -17q-34 -27 -66.5 -53t-55.5 -37q-32 -15 -51 -15q-30 0 -30 39q0 10 13 74l54 274h-81l2 13q31 8 85 36l24 165q41 14 76 35l11 -15q-11 -31 -22 -78t-22 -113 q53 0 107 6z" />
<glyph unicode="u" horiz-adv-x="540" d="M513 76q-69 -51 -106 -72q-32 -19 -49 -19q-30 0 -30 39q0 28 13 74l31 115l-4 1q-16 -26 -41 -58.5t-60 -70.5q-93 -102 -153 -102q-11 0 -22 10t-11 26q0 33 4 50l55 262q8 40 8 42q0 21 -18 21q-8 0 -49 -26l-27 -17l-7 19l27 20q97 72 128 72q23 0 23 -33 q0 -14 -5 -39l-56 -263q-6 -29 -6 -52q0 -24 12 -24q20 0 42 16q23 16 46 39t47 52q51 61 71 115q13 34 21.5 64.5t13.5 58.5l9 49l66 17l7 -9q-26 -97 -46 -183.5t-35 -162.5q-6 -30 -6 -39q0 -17 13 -17q21 0 59 26l25 17z" />
<glyph unicode="v" horiz-adv-x="485" d="M463 372q0 -34 -19 -100q-26 -89 -96 -177q-85 -106 -165 -106q-52 0 -82 39q-27 36 -27 90q0 139 146 291l-1 2q-16 -2 -32.5 -3.5t-33.5 -0.5q-8 0 -17 0.5t-20 1.5q-46 3 -58 -27l-16 -41h-22q18 79 37 115q18 9 43 6q52 -6 115 -6q29 0 52 12l9 -18 q-132 -158 -132 -306q0 -106 80 -106q44 0 90 55q39 47 63 115q24 70 24 131q0 62 -42 62q-16 0 -26 -9l-11 18l49 46q10 12 32 12q31 0 47 -34q13 -26 13 -62z" />
<glyph unicode="w" horiz-adv-x="700" d="M678 372q0 -36 -18 -100q-26 -89 -97 -178q-86 -105 -164 -105q-33 0 -52 28.5t-19 73.5q0 32 10 82l-2 2q-95 -186 -180 -186q-45 0 -68 47q-18 34 -18 86q0 86 59 175q22 28 43.5 55t43.5 55l3 4q-16 -2 -32.5 -3.5t-33.5 -0.5q-8 0 -17 0.5t-20 1.5q-46 3 -58 -27 l-16 -41h-22q18 79 37 115q18 9 43 6q52 -6 115 -6q29 0 52 12l9 -18q-88 -97 -122 -209q-13 -40 -13 -116q0 -32 12 -57q16 -30 45 -30q54 0 124 154q19 43 33 110l28 144l72 22l7 -8l-51 -179q-20 -72 -20 -155q0 -36 13.5 -62t34.5 -26q45 0 91 55q39 46 62 115 q24 70 24 131q0 62 -42 62q-14 0 -26 -9l-11 18l49 46q13 12 32 12q31 0 47 -34q13 -26 13 -62z" />
<glyph unicode="x" horiz-adv-x="485" d="M471 455l-14 -83l-14 -3q-4 24 -37 22q-39 -5 -97 -86l-33 -47l17 -98q6 -35 18 -68q17 -44 45 -44q21 0 73 44l9 -18l-48 -43q-50 -45 -82 -45q-52 0 -71 121l-11 67l-74 -114q-48 -74 -101 -74q-19 0 -40 12q5 32 8 53t3 31l20 3l10 -27q4 -9 31 -9q36 0 98 96l39 61 l-10 60q-23 135 -71 135q-25 0 -66 -47l-17 10l57 80q15 21 55 21q51 0 74 -44q13 -26 21 -87l6 -47l36 53q19 28 33.5 47t24.5 30q43 48 79 48q16 0 29 -10z" />
<glyph unicode="y" horiz-adv-x="485" d="M475 453l-136 -427q-19 -59 -43 -107.5t-55 -86.5q-84 -106 -168 -106q-33 0 -57 22t-24 56q0 10 1 15l47 33l9 -3q-1 -5 -1 -9v-9q0 -29 17 -46.5t43 -17.5q65 0 112 96q28 57 54 147l45 157l-2 2q-31 -49 -82 -106q-71 -80 -102 -80q-19 0 -33 20q-11 17 -11 39v29.5 t1 19.5l17 236q5 65 -21 65q-4 0 -26 -13l-46 -28l-11 17l79 55q55 39 73 39q25 0 25 -69q0 -17 -1.5 -38.5t-3.5 -48.5l-15 -188q-5 -59 19 -59q15 0 45 26t57 66q56 83 78 164l34 128q32 3 72 19z" />
<glyph unicode="z" d="M418 459l-6 -31l-325 -367l2 -2q39 19 86 19q37 0 101 -16q27 -7 46 -7q30 0 39 25l22 58h21q-8 -31 -15 -65.5t-14 -73.5q-33 -10 -47 -10q-36 0 -89 13q-49 11 -81 17t-49 6q-52 0 -87 -31l-9 26l338 384l-2 1q-34 -19 -87 -19q-31 0 -75 10q-47 11 -82 0l-29 -57h-20 l31 119q30 10 60 10q22 0 77 -16q72 -20 129 -20q20 0 33 13l23 23z" />
<glyph unicode="{" horiz-adv-x="323" d="M309 711q-48 -12 -69.5 -38.5t-30.5 -77.5l-30 -167q-10 -55 -28 -80q-23 -31 -71 -41v-2q62 -17 62 -76q0 -21 -6 -52l-27 -158q-4 -19 -4 -37q0 -65 65 -79q-71 0 -100 17q-32 20 -32 70q0 23 6 55l26 151l3.5 24.5t1.5 18.5q0 49 -60 67q46 12 66 38q19 22 27 70 l28 167q13 78 57 107q37 23 116 23z" />
<glyph unicode="|" horiz-adv-x="588" d="M321 0h-54v711h54v-711z" />
<glyph unicode="}" horiz-adv-x="323" d="M308 308q-46 -12 -65.5 -36t-27.5 -72l-28 -167q-13 -78 -57 -107q-37 -23 -116 -23q48 12 70 40q21 26 30 76l30 167q10 55 28 80q23 31 71 41v2q-62 17 -62 76q0 20 6 52l27 158q4 19 4 37q0 65 -65 79q71 0 100 -17q32 -20 32 -70q0 -24 -6 -55l-26 -151l-3.5 -24.5 t-1.5 -18.5q0 -49 60 -67z" />
<glyph unicode="~" horiz-adv-x="588" d="M538 290q-55 -106 -136 -106q-29 0 -131 43q-59 25 -85 25q-33 0 -62 -29q-16 -18 -41 -60l-34 39q16 26 29.5 45.5t25.5 30.5q37 36 83 36q37 0 115 -35q75 -34 101 -34q31 0 60 28q13 11 23 25t18 31z" />
<glyph unicode="&#xa1;" horiz-adv-x="449" d="M128 -93l140 387h13l-26 -387q-1 -8 -2.5 -21.5t-5.5 -30.5q-6 -31 -28 -55q-26 -29 -57 -29q-52 0 -52 60q0 18 7 39q5 17 7.5 26t3.5 11zM318 494q22 0 36.5 -13.5t14.5 -35.5q0 -15 -6.5 -29.5t-17.5 -25t-25.5 -17t-29.5 -6.5q-23 0 -37.5 14t-14.5 36q0 15 6.5 29 t18 24.5t26 17t29.5 6.5z" />
<glyph unicode="&#xa2;" horiz-adv-x="500" d="M332 476q21 3 43 3q59 0 74 -36l-24 -86l-9 -4q-10 88 -82 88h-8l-71 -403q44 0 134 45l-3 -27l-107 -52q-14 -7 -32 -12l-18 -104h-32l17 98h-10t-12 -1q-56 0 -87 45q-27 39 -27 98q0 61 17 129q19 76 55 115q50 53 109 79q12 5 21.5 9.5t17.5 6.5l19 106h32zM293 438 q-55 -12 -92 -64q-25 -35 -40 -105q-12 -59 -12 -112q0 -102 74 -117z" />
<glyph unicode="&#xa3;" horiz-adv-x="500" d="M193 395q6 36 9 55.5t4 23.5q4 23 9 42t10 36q26 79 112 119q75 36 129 36q57 0 107 -34q-8 -21 -18 -52.5t-22 -74.5l-14 2q0 127 -98 127q-47 0 -83 -44q-30 -37 -40 -89q-5 -22 -8.5 -43t-7.5 -41l-11 -63h78.5t63.5 1l-6 -31q-69 3 -140 3q-5 -34 -13 -64.5 t-18 -56.5q-37 -97 -136 -185l5 -6q72 31 103 31q18 0 34.5 -1t30.5 -3l45 -7q25 -4 45 -6t37 -2q37 0 55 34q8 16 21 67l21 2l-24 -164q-33 -16 -71 -16q-51 0 -131 19l-78 18q-40 8 -58 8q-23 0 -67 -14q-31 -40 -46 -40q-8 0 -31 17l8 23q22 8 43 20.5t41 28.5 q65 52 106 297q-78 0 -115 -3l4 31q23 -1 51.5 -1h63.5z" />
<glyph unicode="&#xa4;" horiz-adv-x="500" d="M466 326q0 -77 -46 -132l45 -45q2 -2 -24 -25q-11 -10 -17 -15.5t-8 -7.5l-41 51q-55 -40 -125 -40t-125 40l-41 -51q-7 5 -13 11t-13 11q-25 24 -23 26l45 45q-46 55 -46 132t46 132l-45 45q1 1 7 6.5t17 16.5q26 24 25 25l41 -51q52 38 125 40q69 2 125 -40l41 51 q-1 -1 25 -26q6 -5 12 -11t12 -11l-45 -45q46 -55 46 -132zM410 325q0 68 -48 118t-111 50q-64 0 -112 -50q-47 -50 -47 -118q0 -70 47 -120q48 -48 112 -48q63 0 111 49t48 119z" />
<glyph unicode="&#xa5;" horiz-adv-x="667" d="M407 276l-23 -133q-9 -47 -9 -70t8.5 -32t31.5 -11l55 -4l-5 -26q-12 0 -30 0.5t-43 1.5q-24 1 -42 1.5t-30 0.5q-13 0 -31.5 -0.5t-43.5 -1.5t-43.5 -1.5t-31.5 -0.5l5 26q77 0 94 20q19 20 38 141q5 32 8.5 54.5t5.5 34.5h-181l6 31h180l1 8l-36 124h-123l6 32h107 l-42 146q-14 43 -38 47q-14 3 -30 3l5 26l61 -2q17 -1 30.5 -1.5t23.5 -0.5q29 0 58 1t58 3l-4 -26q-42 -5 -43 -6q-25 -6 -30 -26q-1 -5 -1.5 -9.5t-0.5 -7.5q0 -7 1.5 -14.5l3.5 -17.5l33 -115h113q14 21 33 52.5t42 74.5q13 27 13 42q0 27 -34 27h-26v26q66 -3 102 -3 q60 0 93 3l-3 -26q-38 0 -55 -16q-19 -18 -56 -69q-11 -16 -21.5 -32t-21.5 -32l-31 -47h113l-6 -32h-129q-32 -50 -78 -123l-1 -9h186l-6 -31h-186zM375 439l26 -88q5 8 12.5 18t15.5 24l30 46h-84z" />
<glyph unicode="&#xa6;" horiz-adv-x="239" d="M149 392h-59v294h59v-294zM149 -16h-59v294h59v-294z" />
<glyph unicode="&#xa7;" horiz-adv-x="459" d="M451 606q-3 -28 -22.5 -44.5t-47.5 -16.5q-33 0 -33 28q0 5 3 10.5t13 18.5q6 8 7 19q3 20 -9 40q-14 24 -42 24q-20 0 -38.5 -7t-33 -19t-23 -28.5t-8.5 -36.5q0 -36 31 -66l103 -102q70 -69 70 -139q0 -15 -3 -28q-6 -31 -21.5 -56t-37.5 -42t-49 -25.5t-57 -5.5 q17 -18 28.5 -32t17.5 -24q20 -34 20 -69q0 -18 -4 -34q-15 -69 -91 -108q-47 -18 -89 -18q-27 0 -50 8t-39.5 21.5t-24.5 32t-5 39.5q3 28 22.5 44.5t47.5 16.5q32 0 32 -27q0 -6 -3 -11t-14 -19q-5 -6 -6 -19q-2 -20 14 -41q17 -23 37 -23q37 0 68 21t39 58q1 5 1.5 9.5 t0.5 9.5q0 44 -53 92q-24 22 -48 43t-49 43q-53 56 -53 117q0 20 4 36q13 64 59.5 98t107.5 28q-69 75 -69 127q0 13 3 30q13 61 66 96q49 32 110 32q27 0 50 -8t39 -21.5t24 -32t5 -39.5zM360 241q0 37 -53 93q-65 68 -104 68q-35 0 -63 -27t-28 -62q0 -40 49 -92 q63 -68 103 -68q18 0 35.5 7t31 19t21.5 28t8 34z" />
<glyph unicode="&#xa8;" horiz-adv-x="377" d="M392 577q-4 -19 -22.5 -34t-36.5 -15q-19 0 -30.5 15t-7.5 34t21.5 33.5t36.5 14.5t31 -14.5t8 -33.5zM198 577q-4 -19 -22.5 -34t-36.5 -15q-19 0 -30.5 15t-7.5 34t21.5 33.5t36.5 14.5t31 -14.5t8 -33.5z" />
<glyph unicode="&#xa9;" horiz-adv-x="754" d="M732 337q0 -148 -105 -251q-103 -103 -251 -103q-146 0 -250 104t-104 249t104 251q103 105 249 105q148 0 252 -104q105 -104 105 -251zM689 337q0 128 -93 220q-91 91 -221 91q-127 0 -219 -92q-91 -91 -91 -220t91 -220t220 -91q130 0 221 91q92 92 92 221zM537 229 q-9 -23 -25 -40.5t-37.5 -30.5t-46.5 -19.5t-50 -6.5q-87 0 -140 56q-52 56 -52 145q0 92 55 147q55 57 148 57q63 0 138 -26v-104h-25q-2 104 -106 104q-69 0 -108 -51q-36 -47 -36 -118q0 -69 36 -121q40 -58 108 -58q85 0 121 75z" />
<glyph unicode="&#xaa;" horiz-adv-x="332" d="M291 319q-68 -56 -86 -56q-16 0 -16 20q0 17 4 32l16 71l-2 1q-48 -71 -89 -102q-32 -23 -47 -23q-20 0 -20 50q0 44 23 116q24 72 49 89q55 40 91 40q19 0 49 -12l19 11l6 -5l-54 -227q-5 -20 8 -20q11 0 45 28zM239 516q-36 11 -50 11q-28 0 -41 -15q-12 -12 -22 -41 q-32 -87 -32 -139q0 -28 11 -28q26 0 78 70q40 54 56 142z" />
<glyph unicode="&#xab;" horiz-adv-x="632" d="M632 378l-207 -179l132 -177l-24 -20l-215 198l303 200zM394 378l-207 -179l132 -177l-24 -20l-215 198l303 200z" />
<glyph unicode="&#xac;" horiz-adv-x="500" d="M467 50h-59v206h-375v49h434v-255z" />
<glyph unicode="&#xae;" horiz-adv-x="769" d="M574 154h-26q-47 0 -60 12q-17 14 -42 74q-7 17 -11 27.5t-6 14.5q-12 26 -23 37q-14 14 -63 14h-17v-163h47v-16h-148v16h46l-1 356h-46v16h152q67 0 102 -15q51 -23 51 -82q0 -44 -34 -72q-30 -24 -75 -30v-1q47 -6 85 -101q9 -22 16 -36t14.5 -21.5t17 -10.5t21.5 -3 v-16zM473 440q0 84 -91 84h-56v-172h26q121 0 121 88zM66 340q0 -86 42 -161q43 -78 117 -120q76 -43 160 -43q130 0 225 94q93 93 93 230q0 110 -63 194q-61 82 -155 114q-49 17 -100 17q-87 0 -163 -45q-74 -43 -115 -120q-41 -79 -41 -160zM22 340q0 70 27 139t78 117 q110 107 258 107q117 0 212 -69q72 -52 111 -129t39 -165q0 -151 -106 -256q-110 -107 -256 -107q-98 0 -184 50q-86 49 -132 135q-47 88 -47 178z" />
<glyph unicode="&#xaf;" horiz-adv-x="333" d="M318 529h-308l11 51h308z" />
<glyph unicode="&#xb0;" horiz-adv-x="348" d="M308 511q0 -30 -10.5 -53.5t-28.5 -40.5t-42.5 -26t-52.5 -9q-57 0 -94 34q-40 36 -40 95q0 57 39 93t95 36t95 -36t39 -93zM252 511q0 42 -22 68t-56 26t-56 -26t-22 -68t22 -68t56 -26t56 26t22 68z" />
<glyph unicode="&#xb1;" horiz-adv-x="500" d="M443 239h-163v-155h-59v155h-163v49h163v148h59v-148h163v-49zM443 0h-385v49h385v-49z" />
<glyph unicode="&#xb2;" horiz-adv-x="307" d="M330 633q-17 -60 -81 -115l-54 -42t-53 -41h101q19 0 28 11.5t15 38.5h13l-19 -93h-206l1 8q10 8 25.5 20.5t36.5 30.5q73 70 88 88q39 45 56 100q6 19 6 36q0 54 -48 54q-14 0 -26 -5t-22 -12.5t-15.5 -16.5t-5.5 -16q0 -9 7 -17t7 -15q0 -16 -19 -20q-9 -3 -17 -3 q-26 0 -26 24q-1 30 34 61q40 35 93 35q40 0 63 -21t23 -56q0 -14 -5 -34z" />
<glyph unicode="&#xb3;" horiz-adv-x="337" d="M348 643q-12 -32 -48 -51q-27 -14 -58 -16q29 0 55 -14q34 -19 34 -57q0 -15 -4 -28q-14 -48 -70 -74q-43 -22 -86 -20q-38 2 -59.5 19t-21.5 40q0 12 4 21q14 32 40 28q8 0 15 -7.5t5 -14.5q-3 -11 -10.5 -18.5t-9.5 -17.5q-4 -16 11.5 -26t36.5 -8q68 8 92 78 q7 20 7 37q0 40 -57 51q-7 1 -18 1.5t-28 0.5l5 17q35 -1 55 2q51 13 67 61q7 21 7 38q0 43 -53 43q-41 0 -51 -34q-2 -7 1 -12.5t2 -11.5q-5 -20 -28 -21q-25 -1 -25 21q0 32 39 53q14 8 30.5 13t35.5 7q38 4 65 -13.5t27 -51.5q0 -17 -7 -35z" />
<glyph unicode="&#xb4;" horiz-adv-x="170" d="M336 684q0 -32 -27 -51l-189 -133h-32l180 186q20 19 46 19q22 0 22 -21z" />
<glyph unicode="&#xb5;" horiz-adv-x="594" d="M559 114q2 -37 -25 -80q-30 -50 -71 -50q-65 0 -65 90v10t1 10q-86 -110 -170 -110q-54 0 -88 35t-40 90q-39 -117 -39 -173q0 -18 3 -34q5 -19 18 -46q14 -29 16 -49q1 -45 -38 -45q-10 0 -20 3q-42 10 -42 61q0 26 10 73q11 50 51 182q17 53 28.5 108t18.5 115 q12 105 38 139q16 22 54 22q34 0 34 -27q0 -16 -14 -52q-23 -54 -44.5 -106.5t-29.5 -100.5q-4 -21 -5.5 -36.5t-1.5 -26.5q0 -72 59 -78q85 -9 153 92q25 38 44 84t32 101q5 25 11 49t11 48q18 53 49 53q43 0 43 -29q0 -10 -6 -38q-17 -75 -44.5 -142t-65.5 -127 q1 -57 37 -65q19 -4 47 9.5t51 40.5z" />
<glyph unicode="&#xb6;" horiz-adv-x="606" d="M585 679l-6 -32h-77q-2 -4 -7.5 -25t-15.5 -59l-128 -590q-2 -12 -5 -30.5t-5 -43.5h77l-6 -26h-382l6 26h77q4 12 8.5 30.5t11.5 43.5l79 365q-74 0 -132 40q-68 47 -68 120q0 87 75 140q67 46 159 42q48 -2 91.5 -3.5t83.5 -1.5q46 0 86.5 1t77.5 3zM276 641 q-44 6 -88 -23q-53 -35 -68 -107q-3 -14 -3 -26q0 -43 29 -73t74 -37zM418 641h-67l-143 -668q-2 -12 -5 -30.5t-5 -43.5h58q4 12 8.5 30.5t11.5 43.5z" />
<glyph unicode="&#xb7;" horiz-adv-x="294" d="M169 358q24 0 41 -17t17 -42q0 -24 -17 -41t-41 -17t-41.5 17t-17.5 41q0 25 17 42t42 17z" />
<glyph unicode="&#xb8;" horiz-adv-x="323" d="M196 -128q0 -45 -42 -66q-32 -16 -82 -16q-30 0 -81 20l17 28q44 -14 68 -14q50 0 50 45q0 16 -13.5 26t-30.5 10q-7 0 -34 -6l-8 8l59 93h37l-43 -62q8 1 13.5 1.5t7.5 0.5q82 0 82 -68z" />
<glyph unicode="&#xb9;" horiz-adv-x="261" d="M273 734l-70 -328h47l-3 -17h-137l3 17h47l56 265l-71 -92h-16l117 155h27z" />
<glyph unicode="&#xba;" horiz-adv-x="371" d="M426 409q-14 -65 -66 -107q-53 -42 -115 -42q-55 0 -88 31.5t-33 82.5q0 19 4 35q13 60 66 104t114 44q54 0 87.5 -33t33.5 -84q0 -15 -3 -31zM365 408q5 23 5 40q0 86 -67 86q-38 0 -71 -37q-34 -37 -44 -89q-5 -25 -5 -43q0 -83 67 -83q42 0 72.5 34t42.5 92z" />
<glyph unicode="&#xbb;" horiz-adv-x="632" d="M671 200l-300 -198l-14 20l206 177l-131 179l21 22zM433 200l-299 -198l-15 20l207 177l-132 179l21 22z" />
<glyph unicode="&#xbc;" horiz-adv-x="755" d="M239 665l-70 -328h47l-3 -17h-137l3 17h47l56 265l-71 -92h-16l117 155h27zM650 686l-553 -686h-55l555 686h53zM593 156l-4 -20h-46l-13 -61h46l-3 -15h-139l3 15h47l13 61h-125l4 19l143 223q19 30 36 30q9 0 17.5 -6.5t8.5 -15.5q0 -11 -15 -29q-38 -45 -80 -94.5 t-89 -106.5h104l17 78l49 18l-20 -96h46z" />
<glyph unicode="&#xbd;" horiz-adv-x="734" d="M620 686l-553 -686h-55l555 686h53zM199 664l-70 -328h47l-3 -17h-137l3 17h47l56 265l-71 -92h-16l117 155h27zM658 299q-17 -60 -81 -115l-54 -42t-53 -41h101q19 0 28 11.5t15 38.5h13l-19 -93h-206l1 8q10 8 25.5 20.5t36.5 30.5q73 69 88 88q39 45 56 100q6 19 6 36 q0 54 -48 54q-14 0 -26 -5t-22 -12.5t-15.5 -16.5t-5.5 -16q0 -9 7 -17.5t7 -14.5q0 -16 -19 -20q-9 -3 -17 -3q-26 0 -26 24q0 31 34 61q40 35 93 35q40 0 63 -21t23 -56q0 -14 -5 -34z" />
<glyph unicode="&#xbe;" horiz-adv-x="755" d="M354 581q-12 -33 -49 -52q-29 -15 -57 -15q28 0 54 -15q35 -20 35 -56q0 -15 -4 -28q-15 -48 -70 -75q-44 -21 -86 -19q-39 1 -60.5 18t-21.5 41q0 9 5 21q13 31 40 28q7 0 14 -7.5t6 -14.5q-3 -11 -11 -18.5t-9 -17.5q-5 -16 11 -26.5t37 -7.5q68 8 92 78q7 20 7 36 q0 41 -57 52q-7 1 -18 1.5t-28 0.5l5 17q35 -1 55 2q51 12 67 61q7 20 7 37q0 44 -53 44q-42 0 -51 -34q-2 -8 1 -13.5t2 -10.5q-5 -20 -28 -21q-25 -3 -25 21q0 32 38 53q29 15 67 20q38 4 64.5 -13.5t26.5 -51.5q0 -17 -6 -35zM714 686l-553 -686h-55l555 686h53zM641 156 l-4 -20h-46l-13 -61h46l-3 -15h-139l3 15h47l13 61h-125l4 19l143 223q19 30 36 30q9 0 17.5 -6.5t8.5 -15.5q0 -11 -15 -29q-38 -45 -80 -94.5t-89 -106.5h103l18 78l49 18l-20 -96h46z" />
<glyph unicode="&#xbf;" horiz-adv-x="567" d="M121 -64q26 72 140 163q100 79 126 196h16q-8 -45 -13 -72.5t-7 -37.5q-14 -52 -48 -95q-8 -11 -25.5 -31t-45.5 -51q-36 -40 -49 -68q-21 -45 -21 -79q0 -69 75 -69q84 0 102 69q2 10 2 12q0 6 -5 15t-3 21q6 34 57 42q16 1 30 -6q19 -10 19 -37q0 -13 -4 -26 q-12 -44 -63 -78q-61 -41 -142 -41q-69 0 -110.5 29.5t-41.5 84.5q0 26 11 59zM434 482q23 0 38 -13.5t15 -35.5q0 -15 -6.5 -29.5t-18 -25t-26 -17t-29.5 -6.5q-23 0 -37.5 14t-14.5 35q0 15 6.5 29.5t17.5 25t25.5 17t29.5 6.5z" />
<glyph unicode="&#xc0;" horiz-adv-x="696" d="M690 31l-7 -31h-260l7 31h87l-27 198h-249l-56 -91q-36 -59 -36 -86q0 -5 2 -11q4 -10 62 -10l-7 -31h-224l7 31q53 -2 74 11q28 16 76 96l344 572h40l92 -679h75zM485 266l-43 312l-178 -312h221zM518 721l-39 -2l-180 99q-29 15 -33 39q-2 11 10 19.5t27 8.5 q13 0 35 -17z" />
<glyph unicode="&#xc1;" horiz-adv-x="696" d="M682 31l-7 -31h-260l7 31h87l-27 198h-249l-56 -91q-36 -59 -36 -86q0 -5 2 -11q4 -10 62 -10l-7 -31h-224l7 31q53 -2 74 11q28 16 76 96l344 572h40l92 -679h75zM477 266l-43 312l-178 -312h221zM728 930q0 -32 -27 -51l-189 -133h-32l180 186q20 19 46 19q22 0 22 -21 z" />
<glyph unicode="&#xc2;" horiz-adv-x="696" d="M694 31l-7 -31h-260l7 31h87l-27 198h-249l-56 -91q-36 -59 -36 -86q0 -5 2 -11q4 -10 62 -10l-7 -31h-224l7 31q53 -2 74 11q28 16 76 96l344 572h40l92 -679h75zM489 266l-43 312l-178 -312h221zM630 741h-34l-80 101l-133 -101h-38l153 164h47z" />
<glyph unicode="&#xc3;" horiz-adv-x="696" d="M690 31l-7 -31h-260l7 31h87l-27 198h-249l-56 -91q-36 -59 -36 -86q0 -5 2 -11q4 -10 62 -10l-7 -31h-224l7 31q53 -2 74 11q28 16 76 96l344 572h40l92 -679h75zM485 266l-43 312l-178 -312h221zM672 845q-37 -100 -119 -100q-22 0 -55 15l-34 15q-29 13 -42 13 q-33 0 -61 -43h-28q45 95 110 95q25 0 58 -14l53 -23q16 -7 34 -4q23 3 57 46h27z" />
<glyph unicode="&#xc4;" horiz-adv-x="696" d="M651 793q-4 -19 -22.5 -34t-36.5 -15q-19 0 -30.5 15t-7.5 34t21.5 33.5t36.5 14.5t31 -14.5t8 -33.5zM457 793q-4 -19 -22.5 -34t-36.5 -15q-19 0 -30.5 15t-7.5 34t21.5 33.5t36.5 14.5t31 -14.5t8 -33.5zM684 31l-7 -31h-260l7 31h87l-27 198h-249l-56 -91 q-36 -59 -36 -86q0 -5 2 -11q4 -10 62 -10l-7 -31h-224l7 31q53 -2 74 11q28 16 76 96l344 572h40l92 -679h75zM479 266l-43 312l-178 -312h221z" />
<glyph unicode="&#xc5;" horiz-adv-x="696" d="M674 31l-7 -31h-260l7 31h87l-27 198h-249l-56 -91q-36 -59 -36 -86q0 -5 2 -11q4 -10 62 -10l-7 -31h-224l7 31q53 -2 74 11q28 16 76 96l344 572h40l92 -679h75zM469 266l-43 312l-178 -312h221zM482 741q-38 1 -60 21t-22 53q0 5 0.5 10.5t1.5 10.5q20 95 121 95 q37 0 59 -24t22 -56q0 -49 -36 -80q-36 -32 -86 -30zM567 850q0 22 -14.5 36.5t-36.5 13.5q-15 0 -29.5 -6.5t-25.5 -17.5t-18 -25t-7 -29q0 -22 15.5 -36.5t36.5 -14.5q33 0 56 23t23 56z" />
<glyph unicode="&#xc6;" horiz-adv-x="1200" d="M1184 690l-41 -203h-30q3 28 3 46q0 50 -23 81q-31 41 -127 43l-172 2l-62 -290h119q45 0 71 26t42 92h35l-60 -278h-35q15 60 -4 93t-56 33h-119l-64 -304l188 3q27 0 71 15t67 34q71 56 97 157h32l-63 -240h-588l7 31h94l42 198h-255l-96 -105l-39 -42q-19 -24 -15 -43 q1 -8 18 -9q-5 1 4.5 1h34.5l-7 -31l-224 -1l7 31q17 2 37.5 6t43.5 11q11 7 31.5 26.5t51.5 51.5l499 533h-94l7 31zM684 589l-299 -323h231z" />
<glyph unicode="&#xc7;" horiz-adv-x="695" d="M631 666q-34 -76 -49 -148h-30l15 70q4 19 -15 43q-17 20 -39 29q-55 21 -101 18q-197 -14 -265 -331q-15 -71 -15 -130q0 -91 34 -142.5t98 -52.5q82 -2 150 27q53 22 124 81l8 -14l-36 -45q-14 -9 -27.5 -18t-27.5 -18q-19 -11 -38 -19.5t-39 -14.5q-53 -15 -117 -15 q-107 0 -174 76t-67 196q0 45 10 89q35 163 147 263q106 97 237 97q82 0 141 -14q23 -6 76 -27zM388 -141q0 -45 -42 -66q-32 -16 -82 -16q-30 0 -81 20l17 28q44 -14 68 -14q50 0 50 45q0 16 -13.5 26t-30.5 10q-7 0 -34 -6l-8 8l59 93h37l-43 -62q8 1 13.5 1.5t7.5 0.5 q82 0 82 -68z" />
<glyph unicode="&#xc8;" horiz-adv-x="651" d="M628 690l-40 -203h-30q3 28 3 46q0 50 -23 81q-31 41 -127 43l-172 2l-61 -290h123q44 0 68 25q29 29 44 93h31l-59 -278h-31q11 66 -5 93q-20 33 -56 33h-123l-64 -304l188 3q29 0 71 15q43 15 68 34q66 52 97 157h32l-64 -240h-593l6 31h94l134 628h-94l6 31h577z M495 715l-39 -2l-180 99q-29 15 -33 39q-2 11 10 19.5t27 8.5q13 0 35 -17z" />
<glyph unicode="&#xc9;" horiz-adv-x="639" d="M628 690l-40 -203h-30q3 28 3 46q0 50 -23 81q-31 41 -127 43l-172 2l-61 -290h123q44 0 68 25q29 29 44 93h31l-59 -278h-31q11 66 -5 93q-20 33 -56 33h-123l-64 -304l188 3q29 0 71 15q43 15 68 34q66 52 97 157h32l-64 -240h-593l6 31h94l134 628h-94l6 31h577z M639 923q0 -32 -27 -51l-189 -133h-32l180 186q20 19 46 19q22 0 22 -21z" />
<glyph unicode="&#xca;" horiz-adv-x="639" d="M628 690l-40 -203h-30q3 28 3 46q0 50 -23 81q-31 41 -127 43l-172 2l-61 -290h123q44 0 68 25q29 29 44 93h31l-59 -278h-31q11 66 -5 93q-20 33 -56 33h-123l-64 -304l188 3q29 0 71 15q43 15 68 34q66 52 97 157h32l-64 -240h-593l6 31h94l134 628h-94l6 31h577z M568 742h-34l-80 101l-133 -101h-38l153 164h47z" />
<glyph unicode="&#xcb;" horiz-adv-x="639" d="M636 690l-40 -203h-30q3 28 3 46q0 50 -23 81q-31 41 -127 43l-172 2l-61 -290h123q44 0 68 25q29 29 44 93h31l-59 -278h-31q11 66 -5 93q-20 33 -56 33h-123l-64 -304l188 3q29 0 71 15q43 15 68 34q66 52 97 157h32l-64 -240h-593l6 31h94l134 628h-94l6 31h577z M620 791q-4 -19 -22.5 -34t-36.5 -15q-19 0 -30.5 15t-7.5 34t21.5 33.5t36.5 14.5t31 -14.5t8 -33.5zM426 791q-4 -19 -22.5 -34t-36.5 -15q-19 0 -30.5 15t-7.5 34t21.5 33.5t36.5 14.5t31 -14.5t8 -33.5z" />
<glyph unicode="&#xcc;" horiz-adv-x="340" d="M347 690l-6 -31h-94l-133 -628h93l-6 -31h-288l6 31h94l134 628h-94l6 31h288zM325 750l-39 -2l-180 99q-29 15 -33 39q-2 11 10 19.5t27 8.5q13 0 35 -17z" />
<glyph unicode="&#xcd;" horiz-adv-x="354" d="M347 690l-6 -31h-94l-133 -628h93l-6 -31h-288l6 31h94l134 628h-94l6 31h288zM543 926q0 -32 -27 -51l-189 -133h-32l180 186q20 19 46 19q22 0 22 -21z" />
<glyph unicode="&#xce;" horiz-adv-x="354" d="M347 690l-6 -31h-94l-133 -628h93l-6 -31h-288l6 31h94l134 628h-94l6 31h288zM441 745h-34l-80 101l-133 -101h-38l153 164h47z" />
<glyph unicode="&#xcf;" horiz-adv-x="354" d="M353 690l-6 -31h-94l-133 -628h93l-6 -31h-288l6 31h94l134 628h-94l6 31h288zM371 790q-4 -19 -22.5 -34t-37.5 -15q-18 0 -29.5 15t-7.5 34t21.5 33.5t36.5 14.5t31 -14.5t8 -33.5zM177 790q-4 -19 -22.5 -34t-37.5 -15q-18 0 -29.5 15t-7.5 34t21.5 33.5t36.5 14.5 t31 -14.5t8 -33.5z" />
<glyph unicode="&#xd0;" horiz-adv-x="886" d="M259 363l63 296h-94l7 31q81 -4 160 -3q72 2 188 0q117 -1 179.5 -66t62.5 -180q0 -49 -12 -104q-30 -140 -144 -242q-115 -101 -234 -97q-55 2 -106.5 2.5t-100.5 1.5q-37 1 -72 0.5t-68 -2.5l7 31h94l63 297h-109l8 35h108zM482 363l-7 -35h-129l-63 -297q67 -6 116 -6 q14 0 24.5 0.5t18.5 1.5q106 15 173 99q67 80 92 213q8 43 12.5 78t4.5 64q0 167 -147 178q-84 6 -162 -3l-62 -293h129z" />
<glyph unicode="&#xd1;" horiz-adv-x="713" d="M723 690l-6 -31q-59 0 -70 -10q-32 -26 -43 -76l-128 -590h-23l-274 654l-110 -519q-10 -52 10 -77q7 -10 66 -10l-7 -31h-222l7 31q56 0 68 9q32 23 44 78l110 519q4 22 -24 22h-56l6 31h197l215 -515l84 398q3 16 3 30q0 30 -15 47q-8 9 -64 9l6 31h226zM662 842 q-37 -100 -119 -100q-22 0 -55 15l-34 15q-29 13 -42 13q-33 0 -61 -43h-28q45 95 110 95q25 0 58 -14l53 -23q16 -7 34 -4q23 3 57 46h27z" />
<glyph unicode="&#xd2;" horiz-adv-x="702" d="M628 339q-37 -169 -143 -264q-100 -91 -236 -91q-109 0 -173 78q-65 79 -65 200q0 20 2 40.5t6 42.5q30 164 143 265q106 96 240 96q115 0 178 -67t63 -184q0 -55 -15 -116zM517 341q18 85 18 150q0 184 -139 184q-195 0 -265 -330q-10 -45 -14.5 -82.5t-4.5 -69.5 q0 -175 146 -175q94 0 165 93q62 84 94 230zM448 745l-39 -2l-180 99q-29 15 -33 39q-2 11 10 19.5t27 8.5q13 0 35 -17z" />
<glyph unicode="&#xd3;" horiz-adv-x="702" d="M628 339q-37 -169 -143 -264q-100 -91 -236 -91q-109 0 -173 78q-65 79 -65 200q0 20 2 40.5t6 42.5q30 164 143 265q106 96 240 96q115 0 178 -67t63 -184q0 -55 -15 -116zM517 341q18 85 18 150q0 184 -139 184q-195 0 -265 -330q-10 -45 -14.5 -82.5t-4.5 -69.5 q0 -175 146 -175q94 0 165 93q62 84 94 230zM649 927q0 -32 -27 -51l-189 -133h-32l180 186q20 19 46 19q22 0 22 -21z" />
<glyph unicode="&#xd4;" horiz-adv-x="702" d="M628 339q-37 -169 -143 -264q-100 -91 -236 -91q-109 0 -173 78q-65 79 -65 200q0 20 2 40.5t6 42.5q30 164 143 265q106 96 240 96q115 0 178 -67t63 -184q0 -55 -15 -116zM517 341q18 85 18 150q0 184 -139 184q-195 0 -265 -330q-10 -45 -14.5 -82.5t-4.5 -69.5 q0 -175 146 -175q94 0 165 93q62 84 94 230zM567 739h-34l-80 101l-133 -101h-38l153 164h47z" />
<glyph unicode="&#xd5;" horiz-adv-x="702" d="M657 341q-39 -170 -144 -264q-100 -91 -236 -91q-109 0 -173 78q-65 79 -65 200q0 20 2 40.5t6 42.5q30 164 143 265q106 96 241 96q115 0 177.5 -66.5t62.5 -184.5q0 -52 -14 -116zM545 343q18 85 18 150q0 184 -139 184q-195 0 -265 -330q-10 -45 -14.5 -82.5 t-4.5 -69.5q0 -175 146 -175q94 0 165 93q62 84 94 230zM604 841q-37 -100 -118 -100q-22 0 -56 15l-34 15q-27 13 -42 13q-32 0 -60 -43h-28q44 95 109 95q25 0 58 -14l53 -23q15 -7 35 -4q22 5 56 46h27z" />
<glyph unicode="&#xd6;" horiz-adv-x="702" d="M657 341q-39 -170 -144 -264q-100 -91 -236 -91q-109 0 -173 78q-65 79 -65 200q0 20 2 40.5t6 42.5q30 164 143 265q106 96 241 96q115 0 177.5 -66.5t62.5 -184.5q0 -52 -14 -116zM545 343q18 85 18 150q0 184 -139 184q-195 0 -265 -330q-10 -45 -14.5 -82.5 t-4.5 -69.5q0 -175 146 -175q94 0 165 93q62 84 94 230zM584 790q-4 -18 -22 -33.5t-37 -15.5t-30.5 15t-7.5 34q5 20 22.5 34t36.5 14t31 -14t7 -34zM390 790q-4 -18 -22 -33.5t-37 -15.5t-30.5 15t-7.5 34q5 20 22.5 34t36.5 14t31 -14t7 -34z" />
<glyph unicode="&#xd7;" horiz-adv-x="500" d="M440 164l-39 -39l-151 145l-150 -145l-40 39l150 145l-150 145l40 38l150 -145l151 145l39 -38l-150 -145z" />
<glyph unicode="&#xd8;" horiz-adv-x="711" d="M521 764l-281 -863h-54l281 863h54zM628 339q-37 -169 -143 -264q-100 -91 -236 -91q-109 0 -173 78q-65 79 -65 200q0 20 2 40.5t6 42.5q30 164 143 265q106 96 240 96q115 0 178 -67t63 -184q0 -55 -15 -116zM517 341q18 85 18 150q0 184 -139 184q-195 0 -265 -330 q-10 -45 -14.5 -82.5t-4.5 -69.5q0 -175 146 -175q94 0 165 93q62 84 94 230z" />
<glyph unicode="&#xd9;" horiz-adv-x="725" d="M752 690l-6 -31q-60 0 -71 -10q-32 -26 -42 -77l-63 -297q-36 -168 -107 -232q-71 -63 -219 -62q-104 2 -162 58q-52 52 -52 131q0 25 4 45l95 444h-93l6 31h286l-6 -31h-94l-98 -442q-8 -40 -8 -68q0 -135 160 -135q91 0 149 47q66 55 93 183l69 328q12 54 -10 78 q-9 9 -65 9l6 31h228zM452 743l-39 -2l-180 99q-29 15 -33 39q-2 11 10 19.5t27 8.5q13 0 35 -17z" />
<glyph unicode="&#xda;" horiz-adv-x="725" d="M752 690l-6 -31q-60 0 -71 -10q-32 -26 -42 -77l-63 -297q-36 -168 -107 -232q-71 -63 -219 -62q-104 2 -162 58q-52 52 -52 131q0 25 4 45l95 444h-93l6 31h286l-6 -31h-94l-98 -442q-8 -40 -8 -68q0 -135 160 -135q91 0 149 47q66 55 93 183l69 328q12 54 -10 78 q-9 9 -65 9l6 31h228zM639 922q0 -32 -27 -51l-189 -133h-32l180 186q20 19 46 19q22 0 22 -21z" />
<glyph unicode="&#xdb;" horiz-adv-x="725" d="M752 690l-6 -31q-60 0 -71 -10q-32 -26 -42 -77l-63 -297q-36 -168 -107 -232q-71 -63 -219 -62q-104 2 -162 58q-52 52 -52 131q0 25 4 45l95 444h-93l6 31h286l-6 -31h-94l-98 -442q-8 -40 -8 -68q0 -135 160 -135q91 0 149 47q66 55 93 183l69 328q12 54 -10 78 q-9 9 -65 9l6 31h228zM573 738h-34l-80 101l-133 -101h-38l153 164h47z" />
<glyph unicode="&#xdc;" horiz-adv-x="725" d="M752 690l-6 -31q-60 0 -71 -10q-32 -26 -42 -77l-63 -297q-36 -168 -107 -232q-71 -63 -219 -62q-104 2 -162 58q-52 52 -52 131q0 25 4 45l95 444h-93l6 31h286l-6 -31h-94l-98 -442q-8 -40 -8 -68q0 -135 160 -135q91 0 149 47q66 55 93 183l69 328q12 54 -10 78 q-9 9 -65 9l6 31h228zM584 789q-4 -19 -22.5 -34t-36.5 -15q-19 0 -30.5 15t-7.5 34t21.5 33.5t36.5 14.5t31 -14.5t8 -33.5zM390 789q-4 -19 -22.5 -34t-36.5 -15q-19 0 -30.5 15t-7.5 34t21.5 33.5t36.5 14.5t31 -14.5t8 -33.5z" />
<glyph unicode="&#xdd;" horiz-adv-x="642" d="M697 690l-5 -31q-34 0 -83 -25q-31 -15 -77 -75l-205 -283l-51 -245h94l-7 -31h-282l7 31h94l49 241l-138 387h-81l5 31h268l-6 -31h-75q28 -85 55 -168t55 -168l163 225q46 61 46 84q0 4 -2 8q-15 19 -64 19l6 31h234zM587 930q0 -32 -27 -51l-189 -133h-32l180 186 q20 19 46 19q22 0 22 -21z" />
<glyph unicode="&#xde;" horiz-adv-x="619" d="M439 690l-6 -31h-94l-27 -126h86q108 0 165 -42q54 -41 54 -112q0 -21 -4 -41q-23 -111 -114 -157q-77 -39 -216 -39h-15l6 28h16q81 0 137 39q64 43 79 129q5 28 5 49q0 115 -131 115h-74l-100 -471h93l-6 -31h-288l6 31h94l134 628h-94l6 31h288z" />
<glyph unicode="&#xdf;" horiz-adv-x="469" d="M407 471q-43 -58 -50 -70q-9 -18 -9 -37q0 -33 44 -98q45 -65 45 -106q0 -55 -60 -115q-59 -60 -116 -60q-32 0 -75 21q15 56 21 106h19v-56q34 -28 66 -28q21 0 41 12q39 23 39 67q0 40 -34 105q-49 92 -49 117q0 5 2 15q9 25 63 99q48 63 53 107q4 44 -32 88 q-21 25 -69 25q-14 0 -21 -3q-58 -25 -78 -127q-14 -73 -27.5 -146t-27.5 -146q-17 -85 -35 -156.5t-36 -131.5q-35 -113 -97 -169q-58 -52 -107 -52q-21 0 -34 8q4 6 13 39q7 31 9 39l14 4q20 -29 46 -29q55 0 86 88q20 57 57 266q16 85 25 141t13 84h-79l5 21q41 14 83 36 l15 76q11 50 19 69q7 16 25 37q5 5 18 17t34 31q45 38 61 45q5 2 14 4t21 3q60 5 99 -23q44 -32 44 -86q0 -24 -9 -51q-10 -29 -49 -80z" />
<glyph unicode="&#xe0;" d="M411 76q-107 -91 -140 -91q-25 0 -25 32q0 25 6 52l26 116l-3 1q-78 -116 -145 -165q-53 -38 -76 -38q-33 0 -33 82q0 73 38 187q39 117 80 146q55 40 83 52t65 12q33 0 78 -19l32 18l10 -9l-89 -368q-8 -33 13 -33q15 0 34.5 15t38.5 31zM326 396q-54 18 -81 18 q-44 0 -66 -24q-16 -18 -36 -68q-52 -137 -52 -225q0 -46 18 -46q41 0 127 114q63 84 90 231zM377 502l-39 -2l-180 99q-29 15 -33 39q-2 11 10 19.5t27 8.5q13 0 35 -17z" />
<glyph unicode="&#xe1;" d="M414 76q-107 -91 -140 -91q-25 0 -25 32q0 25 6 52l26 116l-3 1q-78 -116 -145 -165q-53 -38 -76 -38q-33 0 -33 82q0 73 38 187q39 117 80 146q55 40 83 52t65 12q33 0 78 -19l32 18l10 -9l-89 -368q-8 -33 13 -33q15 0 34.5 15t38.5 31zM329 396q-54 18 -81 18 q-44 0 -66 -24q-16 -18 -36 -68q-52 -137 -52 -225q0 -46 18 -46q41 0 127 114q63 84 90 231zM522 682q0 -32 -27 -51l-189 -133h-32l180 186q20 19 46 19q22 0 22 -21z" />
<glyph unicode="&#xe2;" d="M418 530h-34l-80 101l-133 -101h-38l153 164h47zM418 77q-107 -91 -140 -91q-25 0 -25 32q0 25 6 52l26 116l-3 1q-78 -116 -145 -165q-53 -38 -76 -38q-33 0 -33 82q0 73 38 187q39 117 80 146q55 40 83 52t65 12q33 0 78 -19l32 18l10 -9l-89 -368q-8 -33 13 -33 q15 0 34.5 15.5t38.5 30.5zM333 397q-54 18 -81 18q-44 0 -66 -24q-16 -18 -36 -68q-52 -137 -52 -225q0 -46 18 -46q41 0 127 114q63 84 90 231z" />
<glyph unicode="&#xe3;" d="M413 77q-107 -91 -140 -91q-25 0 -25 32q0 25 6 52l26 116l-3 1q-78 -116 -145 -165q-53 -38 -76 -38q-33 0 -33 82q0 73 38 187q39 117 80 146q55 40 83 52t65 12q33 0 78 -19l32 18l10 -9l-89 -368q-8 -33 13 -33q15 0 34.5 15t38.5 31zM328 397q-54 18 -81 18 q-44 0 -66 -24q-16 -18 -36 -68q-52 -137 -52 -225q0 -46 18 -46q41 0 127 114q63 84 90 231zM446 634q-37 -100 -119 -100q-22 0 -55 15l-34 15q-29 13 -42 13q-33 0 -61 -43h-28q45 95 110 95q25 0 58 -14l53 -23q16 -7 34 -4q23 3 57 46h27z" />
<glyph unicode="&#xe4;" d="M441 579q-4 -18 -22.5 -33.5t-36.5 -15.5q-19 0 -30.5 15.5t-7.5 33.5q4 20 21.5 34t36.5 14t31 -14t8 -34zM247 579q-4 -18 -22.5 -33.5t-36.5 -15.5q-19 0 -30.5 15.5t-7.5 33.5q4 20 21.5 34t36.5 14t31 -14t8 -34zM417 78q-107 -91 -140 -91q-25 0 -25 32q0 26 6 52 l26 116l-3 1q-78 -116 -145 -165q-53 -38 -76 -38q-33 0 -33 82q0 73 38 187q39 117 80 146q55 40 83 52t65 12q33 0 78 -19l32 18l10 -9l-89 -368q-8 -33 13 -33q15 0 34.5 15.5t38.5 30.5zM332 398q-54 18 -81 18q-44 0 -66 -24q-16 -18 -36 -68q-52 -137 -52 -225 q0 -46 18 -46q41 0 127 114q63 85 90 231z" />
<glyph unicode="&#xe5;" d="M418 73q-107 -91 -140 -91q-25 0 -25 32q0 25 6 52l26 116l-3 1q-78 -116 -145 -165q-53 -38 -76 -38q-33 0 -33 82q0 73 38 187q39 117 80 146q55 40 83 52t65 12q33 0 78 -19l32 18l10 -9l-89 -368q-8 -33 13 -33q15 0 34.5 15t38.5 31zM333 393q-54 18 -81 18 q-44 0 -66 -24q-16 -18 -36 -68q-52 -137 -52 -225q0 -46 18 -46q41 0 127 114q63 84 90 231zM305 528q-38 1 -60 21t-22 53q0 5 0.5 10.5t1.5 10.5q20 95 121 95q37 0 59 -24t22 -56q0 -49 -36 -80q-36 -32 -86 -30zM390 637q0 22 -14.5 36.5t-36.5 13.5q-15 0 -29.5 -6.5 t-26 -17.5t-18 -25t-6.5 -29q0 -22 15.5 -36.5t36.5 -14.5q33 0 56 23t23 56z" />
<glyph unicode="&#xe6;" horiz-adv-x="625" d="M618 390q0 -39 -31 -76q-27 -32 -67 -51q-72 -35 -167 -40q-13 -65 -13 -96q0 -42 21.5 -67t61.5 -25q32 0 70 22q2 1 18 11t45 29l20 13l6 -22q-31 -25 -53 -41.5t-36 -24.5q-56 -33 -105 -33q-92 0 -114 90q-90 -90 -163 -90q-96 0 -96 99q0 156 209 156h65q6 16 6 60 q0 54 -27 85.5t-79 31.5q-28 0 -52 -9q-5 -1 -10 -13l-20 -57l-17 5l-6 66l63 40q31 15 73 15q96 0 134 -92q110 92 178 92q38 0 62 -20t24 -58zM547 378q0 49 -54 49q-58 0 -98 -63q-36 -56 -39 -117q36 2 67 10t57 22q67 36 67 99zM288 221h-37q-165 0 -165 -123 q0 -63 68 -63q47 0 84 49q31 38 43 91q2 11 3.5 22t3.5 24z" />
<glyph unicode="&#xe7;" horiz-adv-x="395" d="M383 441q-13 -33 -23 -124h-22v58q0 18 -25 30q-20 12 -51 12t-56 -11q-51 -23 -80 -111q-22 -66 -22 -144q0 -115 86 -115q42 0 137 63l15 10l7 -20l-48 -40q-77 -63 -151 -63q-120 0 -120 143q0 79 29 157q30 78 76 107q35 23 57.5 37t33.5 19q33 16 65 16q60 0 92 -24 zM233 -138q0 -45 -42 -66q-32 -16 -82 -16q-30 0 -81 20l17 28q44 -14 68 -14q50 0 50 45q0 16 -13.5 26t-30.5 10q-7 0 -34 -6l-8 8l59 93h37l-43 -62q8 1 13.5 1.5t7.5 0.5q82 0 82 -68z" />
<glyph unicode="&#xe8;" horiz-adv-x="380" d="M368 389q0 -92 -121 -143q-23 -11 -66 -24l-80 -19q-4 -20 -6 -40.5t-2 -41.5q0 -91 78 -91q52 0 129 56l23 17l8 -19q-121 -100 -193 -100q-118 0 -118 124q0 60 30 159q24 79 72 117q101 79 161 79q36 0 60.5 -19.5t24.5 -54.5zM296 371q0 51 -49 51q-20 0 -45 -12 q-55 -25 -87 -149l-9 -36q31 7 57.5 15t48.5 19q16 7 31.5 19.5t27 27.5t18.5 31.5t7 33.5zM315 497l-39 -2l-180 99q-29 15 -33 39q-2 11 10 19.5t27 8.5q13 0 35 -17z" />
<glyph unicode="&#xe9;" horiz-adv-x="380" d="M368 389q0 -92 -121 -143q-23 -11 -66 -24l-80 -19q-4 -20 -6 -40.5t-2 -41.5q0 -91 78 -91q52 0 129 56l23 17l8 -19q-121 -100 -193 -100q-118 0 -118 124q0 60 30 159q24 79 72 117q101 79 161 79q36 0 60.5 -19.5t24.5 -54.5zM296 371q0 51 -49 51q-20 0 -45 -12 q-55 -25 -87 -149l-9 -36q31 7 57.5 15t48.5 19q16 7 31.5 19.5t27 27.5t18.5 31.5t7 33.5zM417 684q0 -32 -27 -51l-189 -133h-32l180 186q20 19 46 19q22 0 22 -21z" />
<glyph unicode="&#xea;" horiz-adv-x="380" d="M387 530h-34l-80 101l-133 -101h-38l153 164h47zM363 394q0 -92 -121 -143q-23 -9 -66 -24l-80 -19q-4 -20 -6 -40.5t-2 -41.5q0 -91 78 -91q52 0 129 56l23 17l8 -19q-121 -100 -193 -100q-118 0 -118 124q0 60 30 159q24 79 72 117q101 79 161 79q36 0 60.5 -19.5 t24.5 -54.5zM291 376q0 51 -49 51q-20 0 -45 -12q-55 -25 -87 -149l-9 -36q31 7 57.5 15t48.5 19q33 16 57 45q27 33 27 67z" />
<glyph unicode="&#xeb;" horiz-adv-x="380" d="M392 577q-4 -19 -22.5 -34t-36.5 -15q-19 0 -30.5 15t-7.5 34t21.5 33.5t36.5 14.5t31 -14.5t8 -33.5zM198 577q-4 -19 -22.5 -34t-36.5 -15q-19 0 -30.5 15t-7.5 34t21.5 33.5t36.5 14.5t31 -14.5t8 -33.5zM363 394q0 -92 -121 -143q-23 -9 -66 -24l-80 -19 q-4 -20 -6 -40.5t-2 -41.5q0 -91 78 -91q52 0 129 56l23 17l8 -19q-121 -100 -193 -100q-118 0 -118 124q0 60 30 159q24 79 72 117q101 79 161 79q36 0 60.5 -19.5t24.5 -54.5zM291 376q0 51 -49 51q-20 0 -45 -12q-55 -25 -87 -149l-9 -36q31 7 57.5 15t48.5 19 q33 16 57 45q27 33 27 67z" />
<glyph unicode="&#xec;" horiz-adv-x="270" d="M213 502h-33l-157 98q-28 16 -28 38q0 11 12 19.5t26 8.5t31 -17zM234 82q-69 -51 -106 -72q-32 -19 -48 -19q-31 0 -31 39q0 29 13 74l64 233q8 30 8 42q0 23 -18 23q-6 0 -49 -28l-27 -17l-7 19l27 20q97 72 128 72q26 0 26 -27q0 -11 -5 -34l-75 -294q-7 -25 -7 -39 q0 -20 13 -20q15 0 59 29l25 17z" />
<glyph unicode="&#xed;" horiz-adv-x="270" d="M360 685q0 -26 -21 -44l-161 -136l-22 4l136 182q18 19 42 19q26 0 26 -25zM234 82q-69 -51 -106 -72q-32 -19 -48 -19q-31 0 -31 39q0 29 13 74l64 233q8 30 8 42q0 23 -18 23q-6 0 -49 -28l-27 -17l-7 19l27 20q97 72 128 72q26 0 26 -27q0 -11 -5 -34l-75 -294 q-7 -25 -7 -39q0 -20 13 -20q15 0 59 29l25 17z" />
<glyph unicode="&#xee;" horiz-adv-x="270" d="M309 530h-34l-80 101l-133 -101h-38l153 164h47zM234 82q-69 -51 -106 -72q-32 -19 -48 -19q-31 0 -31 39q0 29 13 74l64 233q8 30 8 42q0 23 -18 23q-6 0 -49 -28l-27 -17l-7 19l27 20q97 72 128 72q26 0 26 -27q0 -11 -5 -34l-75 -294q-7 -25 -7 -39q0 -20 13 -20 q15 0 59 29l25 17z" />
<glyph unicode="&#xef;" horiz-adv-x="270" d="M334 575q-4 -19 -22.5 -34t-36.5 -15q-19 0 -30.5 15t-7.5 34t21.5 33.5t36.5 14.5t31 -14.5t8 -33.5zM140 575q-4 -19 -22.5 -34t-36.5 -15q-19 0 -30.5 15t-7.5 34t21.5 33.5t36.5 14.5t31 -14.5t8 -33.5zM234 82q-69 -51 -106 -72q-32 -19 -48 -19q-31 0 -31 39 q0 29 13 74l64 233q8 30 8 42q0 23 -18 23q-6 0 -49 -28l-27 -17l-7 19l27 20q97 72 128 72q26 0 26 -27q0 -11 -5 -34l-75 -294q-7 -25 -7 -39q0 -20 13 -20q15 0 59 29l25 17z" />
<glyph unicode="&#xf0;" horiz-adv-x="409" d="M314 564l-132 -64l-11 28l124 63q-41 54 -100 75l18 43q76 -33 128 -99l129 64l13 -28l-126 -61q14 -22 21 -40q38 -99 38 -192q0 -88 -33 -173q-47 -128 -129 -170q-42 -20 -90 -20q-128 0 -128 157q0 77 32 158q38 86 97 126q54 36 109 36q40 0 71 -19q0 51 -31 116z M110 149q0 -82 43 -109q19 -13 46 -13q51 0 90 57q20 30 33 76q24 75 24 150q0 119 -87 119q-59 0 -99 -60q-50 -76 -50 -220z" />
<glyph unicode="&#xf1;" horiz-adv-x="540" d="M502 634q-16 -100 -97 -100q-22 0 -59 15l-37 15q-30 13 -45 13q-32 0 -51 -43h-28q25 100 95 100q25 0 61 -14l58 -23q16 -7 35 -4q18 3 41 41h27zM513 82q-69 -51 -106 -72q-32 -19 -49 -19q-30 0 -30 39q0 23 13 74l50 205q11 47 11 70t-16 23q-24 0 -67 -30 q-79 -55 -131 -162q-37 -74 -55 -202q-13 -2 -30 -6.5t-38 -10.5l-6 11q15 51 31 117.5t33 150.5q15 73 15 109q0 23 -17 23q-7 0 -50 -28l-27 -17l-7 19l27 20q97 72 128 72q24 0 24 -32q0 -16 -6 -40l-35 -149h4q36 52 68 89t61 60q88 72 143 72q32 0 32 -34q0 -14 -3 -32 t-8 -41l-59 -248q-7 -27 -7 -39q0 -20 12 -20q16 0 60 29l25 17z" />
<glyph unicode="&#xf2;" d="M410 315q0 -60 -23 -127t-60 -113q-15 -19 -35 -35.5t-43 -28.5t-47 -18.5t-47 -6.5q-128 0 -128 156q0 100 39 177.5t117 117.5q53 28 98 28q64 0 99 -44q30 -39 30 -106zM336 304q0 124 -90 124q-37 0 -59 -17q-39 -31 -65 -123q-21 -77 -21 -141q0 -124 91 -124 q42 0 71 32q36 42 55 117q18 67 18 132zM309 503l-39 -2l-180 99q-29 15 -33 39q-2 11 10 19.5t27 8.5q13 0 35 -17z" />
<glyph unicode="&#xf3;" d="M410 315q0 -60 -23 -127t-60 -113q-15 -19 -35 -35.5t-43 -28.5t-47 -18.5t-47 -6.5q-128 0 -128 156q0 100 39 177.5t117 117.5q53 28 98 28q64 0 99 -44q30 -39 30 -106zM336 304q0 124 -90 124q-37 0 -59 -17q-39 -31 -65 -123q-21 -77 -21 -141q0 -124 91 -124 q42 0 71 32q36 42 55 117q18 67 18 132zM486 682q0 -32 -27 -51l-189 -133h-32l180 186q20 19 46 19q22 0 22 -21z" />
<glyph unicode="&#xf4;" d="M403 530h-34l-80 101l-133 -101h-38l153 164h47zM413 318q0 -60 -23 -127t-60 -113q-15 -19 -35 -35.5t-43 -28.5t-47 -18.5t-47 -6.5q-128 0 -128 156q0 100 39 177.5t117 117.5q53 28 98 28q65 0 99 -43q30 -41 30 -107zM339 307q0 124 -90 124q-37 0 -59 -17 q-39 -31 -65 -123q-21 -77 -21 -141q0 -124 91 -124q42 0 71 32q36 42 55 117q18 67 18 132z" />
<glyph unicode="&#xf5;" d="M410 315q0 -60 -23 -127t-60 -113q-15 -19 -35 -35.5t-43 -28.5t-47 -18.5t-47 -6.5q-128 0 -128 156q0 100 39 177.5t117 117.5q53 28 98 28q64 0 99 -44q30 -39 30 -106zM336 304q0 124 -90 124q-37 0 -59 -17q-39 -31 -65 -123q-21 -77 -21 -141q0 -124 91 -124 q42 0 71 32q36 42 55 117q18 67 18 132zM430 637q-37 -100 -119 -100q-22 0 -55 15l-34 15q-29 13 -42 13q-33 0 -61 -43h-28q45 95 110 95q25 0 58 -14l53 -23q16 -7 34 -4q23 3 57 46h27z" />
<glyph unicode="&#xf6;" d="M437 581q-4 -19 -22.5 -34t-36.5 -15q-19 0 -30.5 15t-7.5 34t21.5 33.5t36.5 14.5t31 -14.5t8 -33.5zM243 581q-4 -19 -22.5 -34t-36.5 -15q-19 0 -30.5 15t-7.5 34t21.5 33.5t36.5 14.5t31 -14.5t8 -33.5zM413 318q0 -60 -23 -127t-60 -113q-15 -19 -35 -35.5 t-43 -28.5t-47 -18.5t-47 -6.5q-128 0 -128 156q0 100 39 177.5t117 117.5q53 28 98 28q65 0 99 -43q30 -41 30 -107zM339 307q0 124 -90 124q-37 0 -59 -17q-39 -31 -65 -123q-21 -77 -21 -141q0 -124 91 -124q42 0 71 32q36 42 55 117q18 67 18 132z" />
<glyph unicode="&#xf7;" horiz-adv-x="588" d="M342 440q0 -48 -48 -48q-49 0 -49 48q0 49 49 49q48 0 48 -49zM538 217h-489v55h489v-55zM342 48q0 -48 -48 -48q-49 0 -49 48q0 49 49 49q48 0 48 -49z" />
<glyph unicode="&#xf8;" horiz-adv-x="440" d="M418 188q0 -87 -58 -142q-58 -56 -141 -56q-52 0 -95 22l-38 -53q-24 19 -26 22q8 12 17 24t18 25q-74 57 -74 158q0 82 58 140t140 58q55 0 104 -29l28 41q24 -16 28 -19l-29 -42q68 -59 68 -149zM296 319q-31 37 -77 37q-52 0 -85 -50t-33 -118q0 -67 26 -113 q28 41 70 101.5t99 142.5zM337 188q0 56 -21 100l-168 -241q28 -27 71 -27q55 0 86.5 45t31.5 123z" />
<glyph unicode="&#xf9;" horiz-adv-x="540" d="M506 76q-69 -51 -106 -72q-32 -19 -49 -19q-30 0 -30 39q0 28 13 74l31 115l-4 1q-16 -26 -41 -58.5t-60 -70.5q-93 -102 -153 -102q-11 0 -22 10t-11 26q0 33 4 50l55 262q8 40 8 42q0 21 -18 21q-8 0 -49 -26l-27 -17l-7 19l27 20q97 72 128 72q23 0 23 -33 q0 -14 -5 -39l-56 -263q-6 -29 -6 -52q0 -24 12 -24q20 0 42 16q23 16 46 39t47 52q51 61 71 115q13 34 21.5 64.5t13.5 58.5l9 49l66 17l7 -9q-26 -97 -46 -183.5t-35 -162.5q-6 -30 -6 -39q0 -17 13 -17q21 0 59 26l25 17zM360 498l-39 -2l-180 99q-29 15 -33 39 q-2 11 10 19.5t27 8.5q13 0 35 -17z" />
<glyph unicode="&#xfa;" horiz-adv-x="540" d="M513 76q-69 -51 -106 -72q-32 -19 -49 -19q-30 0 -30 39q0 28 13 74l31 115l-4 1q-16 -26 -41 -58.5t-60 -70.5q-93 -102 -153 -102q-11 0 -22 10t-11 26q0 33 4 50l55 262q8 40 8 42q0 21 -18 21q-8 0 -49 -26l-27 -17l-7 19l27 20q97 72 128 72q23 0 23 -33 q0 -14 -5 -39l-56 -263q-6 -29 -6 -52q0 -24 12 -24q20 0 42 16q23 16 46 39t47 52q51 61 71 115q13 34 21.5 64.5t13.5 58.5l9 49l66 17l7 -9q-26 -97 -46 -183.5t-35 -162.5q-6 -30 -6 -39q0 -17 13 -17q21 0 59 26l25 17zM555 682q0 -32 -27 -51l-189 -133h-32l180 186 q20 19 46 19q22 0 22 -21z" />
<glyph unicode="&#xfb;" horiz-adv-x="540" d="M454 533h-34l-80 101l-133 -101h-38l153 164h47zM497 82q-69 -51 -106 -72q-32 -19 -49 -19q-30 0 -30 39q0 28 13 74l31 115l-4 1q-16 -26 -41 -58.5t-60 -70.5q-93 -102 -153 -102q-11 0 -22 10t-11 26q0 33 4 50l55 262q8 40 8 42q0 21 -18 21q-8 0 -49 -26l-27 -17 l-7 19l27 20q97 72 128 72q23 0 23 -33q0 -14 -5 -39l-56 -263q-6 -29 -6 -52q0 -24 12 -24q20 0 42 16q23 16 46 39t47 52q51 61 71 115q13 34 21.5 64.5t13.5 58.5l9 49l66 17l7 -9q-26 -97 -46 -183.5t-35 -162.5q-6 -30 -6 -39q0 -17 13 -17q21 0 59 26l25 17z" />
<glyph unicode="&#xfc;" horiz-adv-x="540" d="M477 580q-4 -19 -22.5 -34t-36.5 -15q-19 0 -30.5 15t-7.5 34t21.5 33.5t36.5 14.5t31 -14.5t8 -33.5zM283 580q-4 -19 -22.5 -34t-36.5 -15q-19 0 -30.5 15t-7.5 34t21.5 33.5t36.5 14.5t31 -14.5t8 -33.5zM497 82q-69 -51 -106 -72q-32 -19 -49 -19q-30 0 -30 39 q0 28 13 74l31 115l-4 1q-16 -26 -41 -58.5t-60 -70.5q-93 -102 -153 -102q-11 0 -22 10t-11 26q0 33 4 50l55 262q8 40 8 42q0 21 -18 21q-8 0 -49 -26l-27 -17l-7 19l27 20q97 72 128 72q23 0 23 -33q0 -14 -5 -39l-56 -263q-6 -29 -6 -52q0 -24 12 -24q20 0 42 16 q23 16 46 39t47 52q51 61 71 115q13 34 21.5 64.5t13.5 58.5l9 49l66 17l7 -9q-26 -97 -46 -183.5t-35 -162.5q-6 -30 -6 -39q0 -17 13 -17q21 0 59 26l25 17z" />
<glyph unicode="&#xfd;" horiz-adv-x="485" d="M475 453l-136 -427q-19 -59 -43 -107.5t-55 -86.5q-84 -106 -168 -106q-33 0 -57 22t-24 56q0 10 1 15l47 33l9 -3q-1 -5 -1 -9v-9q0 -29 17 -46.5t43 -17.5q65 0 112 96q28 57 54 147l45 157l-2 2q-31 -49 -82 -106q-71 -80 -102 -80q-19 0 -33 20q-11 17 -11 39v29.5 t1 19.5l17 236q5 65 -21 65q-4 0 -26 -13l-46 -28l-11 17l79 55q55 39 73 39q25 0 25 -69q0 -17 -1.5 -38.5t-3.5 -48.5l-15 -188q-5 -59 19 -59q15 0 45 26t57 66q56 83 78 164l34 128q32 3 72 19zM504 682q0 -32 -27 -51l-189 -133h-32l180 186q20 19 46 19q22 0 22 -21z " />
<glyph unicode="&#xfe;" horiz-adv-x="485" d="M451 342q0 -50 -22 -116q-23 -68 -51 -111q-42 -63 -140 -111q-42 -21 -68 -21q-11 0 -58 14l-41 -254q-22 -4 -39.5 -8t-31.5 -9l-7 6q19 83 45.5 212t61.5 308q22 113 40.5 213.5t32.5 191.5q-25 -10 -89 -11l3 24q43 4 78 12q20 5 39 12t38 17l11 -11l-92 -421 q33 64 99 119q73 64 135 64q56 0 56 -120zM381 340q0 65 -33 65q-31 0 -53 -13q-59 -35 -102 -103q-41 -65 -54 -135l-18 -103q32 -22 83 -22q80 0 134 122q43 98 43 189z" />
<glyph unicode="&#xff;" horiz-adv-x="485" d="M475 453l-136 -427q-19 -59 -43 -107.5t-55 -86.5q-84 -106 -168 -106q-33 0 -57 22t-24 56q0 10 1 15l47 33l9 -3q-1 -5 -1 -9v-9q0 -29 17 -46.5t43 -17.5q65 0 112 96q28 57 54 147l45 157l-2 2q-31 -49 -82 -106q-71 -80 -102 -80q-19 0 -33 20q-11 17 -11 39v29.5 t1 19.5l17 236q5 65 -21 65q-4 0 -26 -13l-46 -28l-11 17l79 55q55 39 73 39q25 0 25 -69q0 -17 -1.5 -38.5t-3.5 -48.5l-15 -188q-5 -59 19 -59q15 0 45 26t57 66q56 83 78 164l34 128q32 3 72 19zM444 575q-4 -19 -22.5 -34t-36.5 -15q-19 0 -30.5 15t-7.5 34t21.5 33.5 t36.5 14.5t31 -14.5t8 -33.5zM250 575q-4 -19 -22.5 -34t-36.5 -15q-19 0 -30.5 15t-7.5 34t21.5 33.5t36.5 14.5t31 -14.5t8 -33.5z" />
<glyph unicode="&#x100;" horiz-adv-x="696" d="M690 31l-7 -31h-260l7 31h87l-27 198h-249l-56 -91q-36 -59 -36 -86q0 -5 2 -11q4 -10 62 -10l-7 -31h-224l7 31q53 -2 74 11q28 16 76 96l344 572h40l92 -679h75zM485 266l-43 312l-178 -312h221zM658 745h-308l11 51h308z" />
<glyph unicode="&#x101;" d="M411 79q-107 -91 -140 -91q-25 0 -25 32q0 25 6 52l26 116l-3 1q-78 -116 -145 -165q-53 -38 -76 -38q-33 0 -33 82q0 73 38 187q39 117 80 146q55 40 83 52t65 12q33 0 78 -19l32 18l10 -9l-89 -368q-8 -33 13 -33q15 0 34.5 15t38.5 31zM326 399q-54 18 -81 18 q-44 0 -66 -24q-16 -18 -36 -68q-52 -137 -52 -225q0 -46 18 -46q41 0 127 114q63 84 90 231zM438 530h-308l11 51h308z" />
<glyph unicode="&#x102;" horiz-adv-x="696" d="M683 31l-7 -31h-260l7 31h87l-27 198h-249l-56 -91q-36 -59 -36 -86q0 -5 2 -11q4 -10 62 -10l-7 -31h-224l7 31q53 -2 74 11q28 16 76 96l344 572h40l92 -679h75zM478 266l-43 312l-178 -312h221zM665 878q-10 -69 -47.5 -101.5t-112.5 -32.5q-48 2 -76 25 q-32 26 -32 73q0 19 4 36q4 4 10 4t9 -4q1 -78 96 -80q85 0 130 80q4 4 10 4t9 -4z" />
<glyph unicode="&#x103;" d="M418 79q-107 -91 -140 -91q-25 0 -25 32q0 25 6 52l26 116l-3 1q-78 -116 -145 -165q-53 -38 -76 -38q-33 0 -33 82q0 73 38 187q39 117 80 146q55 40 83 52t65 12q33 0 78 -19l32 18l10 -9l-89 -368q-8 -33 13 -33q15 0 34.5 15t38.5 31zM333 399q-54 18 -81 18 q-44 0 -66 -24q-16 -18 -36 -68q-52 -137 -52 -225q0 -46 18 -46q41 0 127 114q63 84 90 231zM464 663q-10 -69 -47.5 -101.5t-112.5 -32.5q-48 2 -76 25q-32 26 -32 73q0 19 4 36q4 4 10 4t9 -4q1 -78 96 -80q85 0 130 80q4 4 10 4t9 -4z" />
<glyph unicode="&#x104;" horiz-adv-x="696" d="M674 31l-7 -31h-260l7 31h87l-27 198h-249l-56 -91q-36 -59 -36 -86q0 -5 2 -11q4 -10 62 -10l-7 -31h-224l7 31q53 -2 74 11q28 16 76 96l344 572h40l92 -679h75zM610 -103q-11 -23 -44 -50q-34 -28 -66 -28q-20 0 -33 12q-20 18 -20 43q0 49 78 130h34q-53 -56 -53 -97 q0 -36 33 -36q32 0 58 33zM469 266l-43 312l-178 -312h221z" />
<glyph unicode="&#x105;" d="M350 -103q-11 -23 -44 -50q-34 -28 -66 -28q-20 0 -33 12q-20 18 -20 43q0 46 68 119q-9 7 -9 27q0 25 6 52l26 116l-3 1q-78 -116 -145 -165q-53 -38 -76 -38q-33 0 -33 82q0 73 38 187q39 117 80 146q55 40 83 52t65 12q33 0 78 -19l32 18l10 -9l-89 -368 q-8 -33 13 -33q15 0 34.5 15t38.5 31l7 -21q-83 -70 -122 -86q-43 -50 -43 -86t33 -36q32 0 58 33zM326 399q-54 18 -81 18q-44 0 -66 -24q-16 -18 -36 -68q-52 -137 -52 -225q0 -46 18 -46q41 0 127 114q63 84 90 231z" />
<glyph unicode="&#x106;" horiz-adv-x="696" d="M639 664q-34 -76 -49 -148h-30l15 70q4 19 -15 43q-17 20 -39 29q-55 21 -101 18q-197 -14 -265 -331q-15 -71 -15 -130q0 -91 34 -142.5t98 -52.5q82 -2 150 27q53 22 124 81l8 -14l-36 -45q-14 -9 -27.5 -18t-27.5 -18q-19 -11 -38 -19.5t-39 -14.5q-53 -15 -117 -15 q-107 0 -174 76t-67 196q0 45 10 89q35 163 147 263q106 97 237 97q82 0 141 -14q23 -6 76 -27zM670 927q0 -32 -27 -51l-189 -133h-32l180 186q20 19 46 19q22 0 22 -21z" />
<glyph unicode="&#x107;" horiz-adv-x="395" d="M376 441q-13 -33 -23 -124h-22v58q0 18 -25 30q-20 12 -51 12t-56 -11q-51 -23 -80 -111q-22 -66 -22 -144q0 -115 86 -115q42 0 137 63l15 10l7 -20l-48 -40q-77 -63 -151 -63q-120 0 -120 143q0 79 29 157q30 78 76 107q35 23 57.5 37t33.5 19q33 16 65 16q60 0 92 -24 zM445 680q0 -32 -27 -51l-189 -133h-32l180 186q20 19 46 19q22 0 22 -21z" />
<glyph unicode="&#x108;" horiz-adv-x="696" d="M639 659q-34 -76 -49 -148h-30l15 70q4 19 -15 43q-17 20 -39 29q-55 21 -101 18q-197 -14 -265 -331q-15 -71 -15 -130q0 -91 34 -142.5t98 -52.5q82 -2 150 27q53 22 124 81l8 -14l-36 -45q-14 -9 -27.5 -18t-27.5 -18q-19 -11 -38 -19.5t-39 -14.5q-53 -15 -117 -15 q-107 0 -174 76t-67 196q0 45 10 89q35 163 147 263q106 97 237 97q82 0 141 -14q23 -6 76 -27zM601 736h-34l-80 101l-133 -101h-38l153 164h47z" />
<glyph unicode="&#x109;" horiz-adv-x="395" d="M376 441q-13 -33 -23 -124h-22v58q0 18 -25 30q-20 12 -51 12t-56 -11q-51 -23 -80 -111q-22 -66 -22 -144q0 -115 86 -115q42 0 137 63l15 10l7 -20l-48 -40q-77 -63 -151 -63q-120 0 -120 143q0 79 29 157q30 78 76 107q35 23 57.5 37t33.5 19q33 16 65 16q60 0 92 -24 zM374 528h-34l-80 101l-133 -101h-38l153 164h47z" />
<glyph unicode="&#x10a;" horiz-adv-x="695" d="M639 666q-34 -76 -49 -148h-30l15 70q4 19 -15 43q-17 20 -39 29q-55 21 -101 18q-197 -14 -265 -331q-15 -71 -15 -130q0 -91 34 -142.5t98 -52.5q82 -2 150 27q53 22 124 81l8 -14l-36 -45q-14 -9 -27.5 -18t-27.5 -18q-19 -11 -38 -19.5t-39 -14.5q-53 -15 -117 -15 q-107 0 -174 76t-67 196q0 45 10 89q35 163 147 263q106 97 237 97q82 0 141 -14q23 -6 76 -27zM525 786q-10 -49 -57 -49q-38 0 -38 34q0 25 17 42.5t41 17.5q20 0 30 -14t7 -31z" />
<glyph unicode="&#x10b;" horiz-adv-x="380" d="M376 441q-13 -33 -23 -124h-22v58q0 18 -25 30q-20 12 -51 12t-56 -11q-51 -23 -80 -111q-22 -66 -22 -144q0 -115 86 -115q42 0 137 63l15 10l7 -20l-48 -40q-77 -63 -151 -63q-120 0 -120 143q0 79 29 157q30 78 76 107q35 23 57.5 37t33.5 19q33 16 65 16q60 0 92 -24 zM329 576q-10 -49 -57 -49q-38 0 -38 34q0 25 17 42.5t41 17.5q20 0 30 -14t7 -31z" />
<glyph unicode="&#x10c;" horiz-adv-x="696" d="M622 666q-34 -76 -49 -148h-30l15 70q4 19 -15 43q-17 20 -39 29q-55 21 -101 18q-197 -14 -265 -331q-15 -71 -15 -130q0 -91 34 -142.5t98 -52.5q82 -2 150 27q53 22 124 81l8 -14l-36 -45q-14 -9 -27.5 -18t-27.5 -18q-19 -11 -38 -19.5t-39 -14.5q-53 -15 -117 -15 q-107 0 -174 76t-67 196q0 45 10 89q35 163 147 263q106 97 237 97q82 0 141 -14q23 -6 76 -27zM488 746l-49 -1l-87 164h34l82 -107l141 108l48 -1z" />
<glyph unicode="&#x10d;" horiz-adv-x="395" d="M376 441q-13 -33 -23 -124h-22v58q0 18 -25 30q-20 12 -51 12t-56 -11q-51 -23 -80 -111q-22 -66 -22 -144q0 -115 86 -115q42 0 137 63l15 10l7 -20l-48 -40q-77 -63 -151 -63q-120 0 -120 143q0 79 29 157q30 78 76 107q35 23 57.5 37t33.5 19q33 16 65 16q60 0 92 -24 zM317 530l-49 -1l-87 164h34l82 -107l141 108l48 -1z" />
<glyph unicode="&#x10e;" horiz-adv-x="725" d="M641 337q-30 -140 -144 -242q-115 -101 -234 -97q-55 2 -106.5 2.5t-100.5 1.5q-37 1 -72 0.5t-68 -2.5l7 31h94l133 628h-94l7 31q81 -4 160 -3q72 2 188 0q117 -1 179.5 -66t62.5 -180q0 -49 -12 -104zM535 339q8 43 12.5 78t4.5 64q0 167 -147 178q-86 6 -162 -3 l-132 -625q67 -6 116 -6q14 0 24.5 0.5t18.5 1.5q106 15 173 99q67 80 92 213zM376 750l-49 -1l-87 164h34l82 -107l141 108l48 -1z" />
<glyph unicode="&#x10f;" horiz-adv-x="485" d="M471 696l-122 -569q-8 -40 -8 -52q0 -22 14 -22q11 0 37 17l43 30l9 -19l-78 -58q-50 -36 -70 -36q-28 0 -28 32q0 40 15 99l20 78l-4 1q-61 -97 -124 -152q-66 -60 -114 -60q-43 0 -43 103q0 69 21 146q33 113 102 166q27 20 43.5 31.5t23.5 15.5q29 17 64 17 q39 0 78 -14l32 199q-23 -10 -81 -7l3 24q43 3 78 12q38 9 77 29zM341 394q-41 22 -103 22q-37 0 -58 -15q-37 -25 -66 -130q-26 -98 -26 -174q0 -44 27 -44q28 0 89 56q97 91 125 227zM664 586q-14 -33 -54 -62q-39 -27 -72 -27l3 18q59 17 83 65q6 12 6 27q0 20 -14 26 q-8 2 -10 2q-4 0 -17 -6.5t-29 -5.5q-33 1 -33 29q0 17 15 32.5t39 18.5q6 1 11.5 1.5t10.5 0.5q74 0 74 -64q0 -25 -13 -55z" />
<glyph unicode="&#x110;" horiz-adv-x="780" d="M79 363l63 296h-94l7 31q81 -4 160 -3q72 2 188 0q117 -1 179.5 -66t62.5 -180q0 -49 -12 -104q-30 -140 -144 -242q-115 -101 -234 -97q-55 2 -106.5 2.5t-100.5 1.5q-37 1 -72 0.5t-68 -2.5l7 31h94l63 297h-109l8 35h108zM302 363l-7 -35h-129l-63 -297q67 -6 116 -6 q14 0 24.5 0.5t18.5 1.5q106 15 173 99q67 80 92 213q8 43 12.5 78t4.5 64q0 167 -147 178q-84 6 -162 -3l-62 -293h129z" />
<glyph unicode="&#x111;" horiz-adv-x="500" d="M377 553h-146l8 33h144q7 38 7 52q0 20 -16 23q-8 1 -63 3l2 19q94 12 155 45l12 -10q-11 -41 -27 -132h86l-8 -33h-85l-57 -273q-25 -114 -33 -172q-1 -7 -1.5 -13t-0.5 -13q0 -23 14 -23q8 0 25 9q33 20 56 40l9 -18q-76 -68 -132 -92q-14 -7 -23 -7q-24 0 -24 43 q0 28 34 171l-3 1q-80 -138 -191 -199q-32 -17 -52 -17q-24 0 -36 40q-9 28 -9 59q0 134 61 250q44 83 142 126q27 11 56 11q24 0 80 -12zM352 408q-47 24 -95 24q-62 0 -87 -34q-29 -38 -59 -160q-17 -73 -17 -132q0 -47 22 -47q14 0 27 7q76 37 134 125q14 21 25 43.5 t19 46.5q5 17 13 48t18 79z" />
<glyph unicode="&#x112;" horiz-adv-x="661" d="M628 690l-40 -203h-30q3 28 3 46q0 50 -23 81q-31 41 -127 43l-172 2l-61 -290h123q44 0 68 25q29 29 44 93h31l-59 -278h-31q11 66 -5 93q-20 33 -56 33h-123l-64 -304l188 3q29 0 71 15q43 15 68 34q66 52 97 157h32l-64 -240h-593l6 31h94l134 628h-94l6 31h577z M534 741h-308l11 51h308z" />
<glyph unicode="&#x113;" horiz-adv-x="380" d="M368 389q0 -92 -121 -143q-23 -11 -66 -24l-80 -19q-4 -20 -6 -40.5t-2 -41.5q0 -91 78 -91q52 0 129 56l23 17l8 -19q-121 -100 -193 -100q-118 0 -118 124q0 60 30 159q24 79 72 117q101 79 161 79q36 0 60.5 -19.5t24.5 -54.5zM296 371q0 51 -49 51q-20 0 -45 -12 q-55 -25 -87 -149l-9 -36q31 7 57.5 15t48.5 19q16 7 31.5 19.5t27 27.5t18.5 31.5t7 33.5zM419 526h-308l11 51h308z" />
<glyph unicode="&#x114;" horiz-adv-x="633" d="M628 690l-40 -203h-30q3 28 3 46q0 50 -23 81q-31 41 -127 43l-172 2l-61 -290h123q44 0 68 25q29 29 44 93h31l-59 -278h-31q11 66 -5 93q-20 33 -56 33h-123l-64 -304l188 3q29 0 71 15q43 15 68 34q66 52 97 157h32l-64 -240h-593l6 31h94l134 628h-94l6 31h577z M512 876q-10 -69 -47.5 -101.5t-112.5 -32.5q-48 2 -76 25q-32 26 -32 73q0 19 4 36q4 4 10 4t9 -4q1 -78 96 -80q85 0 130 80q4 4 10 4t9 -4z" />
<glyph unicode="&#x115;" horiz-adv-x="380" d="M368 389q0 -92 -121 -143q-23 -11 -66 -24l-80 -19q-4 -20 -6 -40.5t-2 -41.5q0 -91 78 -91q52 0 129 56l23 17l8 -19q-121 -100 -193 -100q-118 0 -118 124q0 60 30 159q24 79 72 117q101 79 161 79q36 0 60.5 -19.5t24.5 -54.5zM296 371q0 51 -49 51q-20 0 -45 -12 q-55 -25 -87 -149l-9 -36q31 7 57.5 15t48.5 19q16 7 31.5 19.5t27 27.5t18.5 31.5t7 33.5zM444 665q-10 -69 -47.5 -101.5t-112.5 -32.5q-48 2 -76 25q-32 26 -32 73q0 19 4 36q4 4 10 4t9 -4q1 -78 96 -80q85 0 130 80q4 4 10 4t9 -4z" />
<glyph unicode="&#x116;" horiz-adv-x="730" d="M628 690l-40 -203h-30q3 28 3 46q0 50 -23 81q-31 41 -127 43l-172 2l-61 -290h123q44 0 68 25q29 29 44 93h31l-59 -278h-31q11 66 -5 93q-20 33 -56 33h-123l-64 -304l188 3q29 0 71 15q43 15 68 34q66 52 97 157h32l-64 -240h-593l6 31h94l134 628h-94l6 31h577z M452 791q-10 -49 -57 -49q-38 0 -38 34q0 25 17 42.5t41 17.5q20 0 30 -14t7 -31z" />
<glyph unicode="&#x117;" horiz-adv-x="380" d="M368 389q0 -92 -121 -143q-23 -11 -66 -24l-80 -19q-4 -20 -6 -40.5t-2 -41.5q0 -91 78 -91q52 0 129 56l23 17l8 -19q-121 -100 -193 -100q-118 0 -118 124q0 60 30 159q24 79 72 117q101 79 161 79q36 0 60.5 -19.5t24.5 -54.5zM296 371q0 51 -49 51q-20 0 -45 -12 q-55 -25 -87 -149l-9 -36q31 7 57.5 15t48.5 19q16 7 31.5 19.5t27 27.5t18.5 31.5t7 33.5zM335 578q-10 -49 -57 -49q-38 0 -38 34q0 25 17 42.5t41 17.5q20 0 30 -14t7 -31z" />
<glyph unicode="&#x118;" horiz-adv-x="661" d="M310 -103q-13 -25 -44 -50q-35 -28 -66 -28q-20 0 -33 12q-20 18 -20 43q0 47 74 126h-293l6 31h94l134 628h-94l6 31h577l-40 -203h-30q3 28 3 46q0 50 -23 81q-31 41 -127 43l-172 2l-61 -290h123q44 0 68 25q29 29 44 93h31l-59 -278h-31q11 66 -5 93q-20 33 -56 33 h-123l-64 -304l188 3q29 0 71 15q43 15 68 34q66 52 97 157h32l-64 -240h-266q-49 -53 -49 -93q0 -36 33 -36q32 0 58 33z" />
<glyph unicode="&#x119;" horiz-adv-x="380" d="M296 371q0 51 -49 51q-20 0 -45 -12q-55 -25 -87 -149l-9 -36q31 7 57.5 15t48.5 19q16 7 31.5 19.5t27 27.5t18.5 31.5t7 33.5zM218 -103q-12 -25 -43 -50q-35 -28 -66 -28q-20 0 -33 12q-21 18 -21 43q0 44 61 111q-96 10 -96 123q0 60 30 159q24 79 72 117 q101 79 161 79q36 0 60.5 -19.5t24.5 -54.5q0 -92 -121 -143q-23 -11 -66 -24l-80 -19q-4 -20 -6 -40.5t-2 -41.5q0 -91 78 -91q52 0 129 56l23 17l8 -19q-112 -93 -180 -100q-36 -47 -36 -77q0 -36 32 -36t59 33z" />
<glyph unicode="&#x11a;" horiz-adv-x="647" d="M628 690l-40 -203h-30q3 28 3 46q0 50 -23 81q-31 41 -127 43l-172 2l-61 -290h123q44 0 68 25q29 29 44 93h31l-59 -278h-31q11 66 -5 93q-20 33 -56 33h-123l-64 -304l188 3q29 0 71 15q43 15 68 34q66 52 97 157h32l-64 -240h-593l6 31h94l134 628h-94l6 31h577z M390 745l-49 -1l-87 164h34l82 -107l141 108l48 -1z" />
<glyph unicode="&#x11b;" horiz-adv-x="380" d="M368 389q0 -92 -121 -143q-23 -11 -66 -24l-80 -19q-4 -20 -6 -40.5t-2 -41.5q0 -91 78 -91q52 0 129 56l23 17l8 -19q-121 -100 -193 -100q-118 0 -118 124q0 60 30 159q24 79 72 117q101 79 161 79q36 0 60.5 -19.5t24.5 -54.5zM296 371q0 51 -49 51q-20 0 -45 -12 q-55 -25 -87 -149l-9 -36q31 7 57.5 15t48.5 19q16 7 31.5 19.5t27 27.5t18.5 31.5t7 33.5zM290 534l-49 -1l-87 164h34l82 -107l141 108l48 -1z" />
<glyph unicode="&#x11c;" horiz-adv-x="700" d="M629 664q-34 -76 -49 -148h-30l15 70q4 19 -16 42q-16 19 -38 30q-43 22 -101 18q-197 -14 -264 -331q-15 -71 -15 -131q0 -91 33 -140q35 -53 98 -54q52 -2 114 21q57 21 66 37q7 12 13 40l26 121h-114l6 30h234l-6 -31h-35l-44 -205q-28 -8 -56 -16.5t-56 -16.5 q-60 -16 -151 -16q-106 0 -174 77q-67 76 -67 195q0 46 10 89q34 161 147 262q105 96 237 98q81 1 141 -14q25 -7 76 -27zM608 746h-34l-80 101l-133 -101h-38l153 164h47z" />
<glyph unicode="&#x11d;" horiz-adv-x="485" d="M476 414l-9 -43q-42 -6 -81 -2q2 -13 3 -21.5t1 -12.5q0 -83 -66 -141q-50 -44 -98 -52q-26 -38 -26 -44q0 -27 45 -64l58 -48q62 -51 62 -103q0 -37 -28 -71q-13 -15 -28 -27t-34 -20q-72 -33 -141 -33q-67 0 -115 23q-62 29 -62 90q0 117 191 173q-20 17 -20 32 q0 22 26 46l38 35l-2 2q-5 -1 -11 -1h-11q-56 0 -87 28q-35 30 -35 88q0 110 83 169q72 51 130 51q37 0 66 -13q37 -16 49 -44q67 0 99 9zM320 328q0 107 -86 107q-51 0 -85 -43t-34 -109q0 -120 92 -120q55 0 87 57q26 47 26 108zM301 -149q0 43 -63 93l-74 57 q-61 -15 -99 -47q-46 -39 -46 -96q0 -48 47 -77q37 -22 91 -22q48 0 91 22q53 26 53 70zM389 532h-34l-80 101l-133 -101h-38l153 164h47z" />
<glyph unicode="&#x11e;" horiz-adv-x="700" d="M619 664q-34 -76 -49 -148h-30l15 70q4 19 -16 42q-16 19 -38 30q-43 22 -101 18q-197 -14 -264 -331q-15 -71 -15 -131q0 -91 33 -140q35 -53 98 -54q52 -2 114 21q57 21 66 37q7 12 13 40l26 121h-114l6 30h234l-6 -31h-35l-44 -205q-28 -8 -56 -16.5t-56 -16.5 q-60 -16 -151 -16q-106 0 -174 77q-67 76 -67 195q0 46 10 89q34 161 147 262q105 96 237 98q81 1 141 -14q25 -7 76 -27zM581 876q-10 -69 -47.5 -101.5t-112.5 -32.5q-48 2 -76 25q-32 26 -32 73q0 19 4 36q4 4 10 4t9 -4q1 -78 96 -80q85 0 130 80q4 4 10 4t9 -4z" />
<glyph unicode="&#x11f;" horiz-adv-x="485" d="M476 414l-9 -43q-42 -6 -81 -2q2 -13 3 -21.5t1 -12.5q0 -83 -66 -141q-50 -44 -98 -52q-26 -38 -26 -44q0 -27 45 -64l58 -48q62 -51 62 -103q0 -37 -28 -71q-13 -15 -28 -27t-34 -20q-72 -33 -141 -33q-67 0 -115 23q-62 29 -62 90q0 117 191 173q-20 17 -20 32 q0 22 26 46l38 35l-2 2q-5 -1 -11 -1h-11q-56 0 -87 28q-35 30 -35 88q0 110 83 169q72 51 130 51q37 0 66 -13q37 -16 49 -44q67 0 99 9zM320 328q0 107 -86 107q-51 0 -85 -43t-34 -109q0 -120 92 -120q55 0 87 57q26 47 26 108zM301 -149q0 43 -63 93l-74 57 q-61 -15 -99 -47q-46 -39 -46 -96q0 -48 47 -77q37 -22 91 -22q48 0 91 22q53 26 53 70zM420 665q-10 -69 -47.5 -101.5t-112.5 -32.5q-48 2 -76 25q-32 26 -32 73q0 19 4 36q4 4 10 4t9 -4q1 -78 96 -80q85 0 130 80q4 4 10 4t9 -4z" />
<glyph unicode="&#x120;" horiz-adv-x="700" d="M629 664q-34 -76 -49 -148h-30l15 70q4 19 -16 42q-16 19 -38 30q-43 22 -101 18q-197 -14 -264 -331q-15 -71 -15 -131q0 -91 33 -140q35 -53 98 -54q52 -2 114 21q57 21 66 37q7 12 13 40l26 121h-114l6 30h234l-6 -31h-35l-44 -205q-28 -8 -56 -16.5t-56 -16.5 q-60 -16 -151 -16q-107 0 -174 76t-67 196q0 46 10 89q34 161 147 262q105 96 237 98q81 1 141 -14q25 -7 76 -27zM481 789q-10 -49 -57 -49q-38 0 -38 34q0 25 17 42.5t41 17.5q20 0 30 -14t7 -31z" />
<glyph unicode="&#x121;" horiz-adv-x="485" d="M476 414l-9 -43q-42 -6 -81 -2q2 -13 3 -21.5t1 -12.5q0 -83 -66 -141q-50 -44 -98 -52q-26 -38 -26 -44q0 -27 45 -64l58 -48q62 -51 62 -103q0 -37 -28 -71q-13 -15 -28 -27t-34 -20q-72 -33 -141 -33q-67 0 -115 23q-62 29 -62 90q0 117 191 173q-20 17 -20 32 q0 22 26 46l38 35l-2 2q-5 -1 -11 -1h-11q-56 0 -87 28q-35 30 -35 88q0 110 83 169q72 51 130 51q37 0 66 -13q37 -16 49 -44q67 0 99 9zM320 328q0 107 -86 107q-51 0 -85 -43t-34 -109q0 -120 92 -120q55 0 87 57q26 47 26 108zM301 -149q0 43 -63 93l-74 57 q-61 -15 -99 -47q-46 -39 -46 -96q0 -48 47 -77q37 -22 91 -22q48 0 91 22q53 26 53 70zM317 581q-10 -49 -57 -49q-38 0 -38 34q0 25 17 42.5t41 17.5q20 0 30 -14t7 -31z" />
<glyph unicode="&#x122;" horiz-adv-x="700" d="M629 664q-34 -76 -49 -148h-30l15 70q4 19 -16 42q-16 19 -38 30q-43 22 -101 18q-197 -14 -264 -331q-15 -71 -15 -131q0 -91 33 -140q35 -53 98 -54q52 -2 114 21q57 21 66 37q7 12 13 40l26 121h-114l6 30h234l-6 -31h-35l-44 -205q-28 -8 -56 -16.5t-56 -16.5 q-60 -16 -151 -16q-106 0 -174 77q-67 76 -67 195q0 46 10 89q34 161 147 262q105 96 237 98q81 1 141 -14q25 -7 76 -27zM218 -286l-6 22q85 13 96 60q4 19 -13 19q-54 1 -54 44q0 31 21.5 52t53.5 21q54 0 54 -56q0 -12 -3 -25q-27 -126 -149 -137z" />
<glyph unicode="&#x123;" horiz-adv-x="485" d="M476 414l-9 -43q-42 -6 -81 -2q2 -13 3 -21.5t1 -12.5q0 -83 -66 -141q-50 -44 -98 -52q-26 -38 -26 -44q0 -27 45 -64l58 -48q62 -51 62 -103q0 -37 -28 -71q-13 -15 -28 -27t-34 -20q-72 -33 -141 -33q-67 0 -115 23q-62 29 -62 90q0 117 191 173q-20 17 -20 32 q0 22 26 46l38 35l-2 2q-5 -1 -11 -1h-11q-56 0 -87 28q-35 30 -35 88q0 110 83 169q72 51 130 51q37 0 66 -13q37 -16 49 -44q67 0 99 9zM320 328q0 107 -86 107q-51 0 -85 -43t-34 -109q0 -120 92 -120q55 0 87 57q26 47 26 108zM301 -149q0 43 -63 93l-74 57 q-61 -15 -99 -47q-46 -39 -46 -96q0 -48 47 -77q37 -22 91 -22q48 0 91 22q53 26 53 70zM353 703q-82 -14 -89 -52q-3 -14 14 -14q49 -1 49 -39q0 -28 -19.5 -46.5t-47.5 -18.5q-49 0 -49 51q0 9 3 21q22 110 138 121z" />
<glyph unicode="&#x124;" horiz-adv-x="747" d="M753 690l-5 -31h-94l-134 -628h94l-7 -31h-288l7 31h94l66 315h-307l-67 -315h94l-7 -31h-283l7 31h93l134 628h-94l6 31h283l-5 -31h-94l-59 -278h307l59 278h-93l5 31h288zM571 745h-34l-80 101l-133 -101h-38l153 164h47z" />
<glyph unicode="&#x125;" horiz-adv-x="485" d="M458 75q-32 -23 -58.5 -41t-47.5 -31q-31 -19 -48 -19q-30 0 -30 39q0 27 12 74l50 190q14 54 14 87q0 21 -21 21q-31 0 -91 -57q-59 -56 -93 -116q-38 -69 -61 -222l-67 -16l-6 11q34 101 85 374l53 281q-25 -10 -89 -11l3 24q44 4 80 12.5t75 28.5l12 -11l-93 -433 l4 -2q13 17 34 41.5t50 56.5q49 45 99 75q49 30 76 30q31 0 31 -34q0 -27 -11 -73l-62 -248q-7 -27 -7 -39q0 -20 13 -20q15 0 59 29l25 17zM315 719h-34l-80 101l-133 -101h-38l153 164h47z" />
<glyph unicode="&#x126;" horiz-adv-x="747" d="M511 487h-307l-22 -106h307zM28 487l16 43h73l28 129h-94l6 31h283l-5 -31h-94l-27 -129h307l27 129h-93l5 31h288l-5 -31h-94l-28 -129h88l-16 -43h-81l-97 -456h94l-7 -31h-288l7 31h94l66 315h-307l-67 -315h94l-7 -31h-283l7 31h93l97 456h-80z" />
<glyph unicode="&#x127;" horiz-adv-x="485" d="M457 82q-32 -23 -58.5 -41t-47.5 -31q-31 -19 -48 -19q-30 0 -30 39q0 27 12 74l50 190q14 54 14 87q0 21 -21 21q-31 0 -91 -57q-59 -56 -93 -116q-38 -69 -61 -222l-67 -16l-6 11q34 101 85 374l30 159h-66l6 34h66l17 88q-25 -10 -89 -11l3 24q44 4 80 12.5t75 28.5 l12 -11l-28 -131h117l-6 -34h-118l-58 -268l4 -2q13 17 34 41.5t50 56.5q49 45 99 75q49 30 76 30q31 0 31 -34q0 -27 -11 -73l-62 -248q-7 -27 -7 -39q0 -20 13 -20q15 0 59 29l25 17z" />
<glyph unicode="&#x128;" horiz-adv-x="343" d="M347 690l-6 -31h-94l-133 -628h93l-6 -31h-288l6 31h94l134 628h-94l6 31h288zM390 846q-37 -100 -119 -100q-22 0 -55 15l-34 15q-29 13 -42 13q-33 0 -61 -43h-28q45 95 110 95q25 0 58 -14l53 -23q16 -7 34 -4q23 3 57 46h27z" />
<glyph unicode="&#x129;" horiz-adv-x="270" d="M234 77q-69 -51 -106 -72q-32 -19 -48 -19q-31 0 -31 39q0 29 13 74l64 233q8 30 8 42q0 23 -18 23q-6 0 -49 -28l-27 -17l-7 19l27 20q97 72 128 72q26 0 26 -27q0 -11 -5 -34l-75 -294q-7 -27 -7 -39q0 -20 13 -20q15 0 59 29l25 17zM349 628q-37 -100 -119 -100 q-22 0 -55 15l-34 15q-29 13 -42 13q-33 0 -61 -43h-28q45 95 110 95q25 0 58 -14l53 -23q16 -7 34 -4q23 3 57 46h27z" />
<glyph unicode="&#x12a;" horiz-adv-x="357" d="M347 690l-6 -31h-94l-133 -628h93l-6 -31h-288l6 31h94l134 628h-94l6 31h288zM366 744h-308l11 51h308z" />
<glyph unicode="&#x12b;" horiz-adv-x="270" d="M234 77q-69 -51 -106 -72q-32 -19 -48 -19q-31 0 -31 39q0 29 13 74l64 233q8 30 8 42q0 23 -18 23q-6 0 -49 -28l-27 -17l-7 19l27 20q97 72 128 72q26 0 26 -27q0 -11 -5 -34l-75 -294q-7 -27 -7 -39q0 -20 13 -20q15 0 59 29l25 17zM337 528h-308l11 51h308z" />
<glyph unicode="&#x12c;" horiz-adv-x="357" d="M347 690l-6 -31h-94l-133 -628h93l-6 -31h-288l6 31h94l134 628h-94l6 31h288zM383 879q-10 -69 -47.5 -101.5t-112.5 -32.5q-48 2 -76 25q-32 26 -32 73q0 19 4 36q4 4 10 4t9 -4q1 -78 96 -80q85 0 130 80q4 4 10 4t9 -4z" />
<glyph unicode="&#x12d;" horiz-adv-x="270" d="M234 77q-69 -51 -106 -72q-32 -19 -48 -19q-31 0 -31 39q0 29 13 74l64 233q8 30 8 42q0 23 -18 23q-6 0 -49 -28l-27 -17l-7 19l27 20q97 72 128 72q26 0 26 -27q0 -11 -5 -34l-75 -294q-7 -27 -7 -39q0 -20 13 -20q15 0 59 29l25 17zM335 664q-10 -69 -47.5 -101.5 t-112.5 -32.5q-48 2 -76 25q-32 26 -32 73q0 19 4 36q4 4 10 4t9 -4q1 -78 96 -80q85 0 130 80q4 4 10 4t9 -4z" />
<glyph unicode="&#x12e;" horiz-adv-x="343" d="M171 -132q-11 -12 -26 -23.5t-32 -20.5t-35.5 -14t-35.5 -5q-38 0 -57 24q-17 19 -17 44q0 65 72 127h-132l6 31h94l134 628h-94l6 31h288l-6 -31h-94l-133 -628h93l-6 -31h-123q-47 -71 -47 -109q0 -35 42 -35q35 0 88 32q6 2 7 2q11 0 11 -13q0 -5 -3 -9z" />
<glyph unicode="&#x12f;" horiz-adv-x="270" d="M234 77q-20 -18 -43 -34.5t-51 -30.5q-57 -80 -57 -122q0 -34 42 -34q35 0 88 32q6 2 7 2q11 0 11 -13q0 -5 -3 -9q-11 -12 -26 -23.5t-32 -20.5t-35.5 -14t-35.5 -5q-38 0 -57 24q-17 19 -17 44q0 54 57 113h-2q-31 -1 -31 39q0 29 13 74l64 233q8 30 8 42q0 23 -18 23 q-13 0 -74 -46l-9 20q125 92 155 92q26 0 26 -27q0 -11 -5 -34l-75 -294q-7 -27 -7 -39q0 -20 13 -20q15 0 59 29l25 17z" />
<glyph unicode="&#x130;" horiz-adv-x="440" d="M347 690l-6 -31h-94l-133 -628h93l-6 -31h-288l6 31h94l134 628h-94l6 31h288zM279 786q-10 -49 -57 -49q-38 0 -38 34q0 25 17 42.5t41 17.5q20 0 30 -14t7 -31z" />
<glyph unicode="&#x131;" horiz-adv-x="270" d="M234 77q-69 -51 -106 -72q-32 -19 -48 -19q-31 0 -31 39q0 29 13 74l64 233q8 30 8 42q0 23 -18 23q-6 0 -49 -28l-27 -17l-7 19l27 20q97 72 128 72q26 0 26 -27q0 -11 -5 -34l-75 -294q-7 -27 -7 -39q0 -20 13 -20q15 0 59 29l25 17z" />
<glyph unicode="&#x132;" horiz-adv-x="769" d="M436 690l-6 -31h-94l-133 -628h93l-6 -31h-288l6 31h94l134 628h-94l6 31h288zM777 690l-7 -31h-94l-116 -545q-8 -37 -15 -63.5t-14 -42.5q-25 -67 -80 -120q-80 -78 -155 -78q-7 0 -17 2l11 74l12 6q25 -18 65 -18q24 0 42 32q7 13 13.5 32.5t11.5 45.5l143 675h-94 l7 31h287z" />
<glyph unicode="&#x133;" horiz-adv-x="454" d="M256 649q0 -30 -14.5 -49t-37.5 -19q-39 0 -39 42q0 12 4.5 23t12.5 20t18 14.5t21 5.5q15 0 25 -11t10 -26zM234 77q-69 -51 -106 -72q-32 -19 -48 -19q-31 0 -31 39q0 29 13 74l64 233q8 30 8 42q0 23 -18 23q-6 0 -49 -28l-27 -17l-7 19l27 20q97 72 128 72 q26 0 26 -27q0 -11 -5 -34l-75 -294q-7 -27 -7 -39q0 -20 13 -20q15 0 59 29l25 17zM484 654q0 -30 -14.5 -49t-37.5 -19q-39 0 -39 42q0 12 4.5 23t12.5 20t18 14.5t21 5.5q15 0 25 -11t10 -26zM442 407l-73 -339q-11 -51 -21 -91.5t-19 -71.5q-16 -55 -50 -109 q-40 -64 -78 -64q-29 0 -42 7l8 55q30 -18 52 -18q28 0 45 84l96 477q8 43 8 42q0 23 -18 23q-6 0 -49 -28l-27 -17l-7 19l27 20q97 72 128 72q25 0 25 -26q0 -10 -5 -35z" />
<glyph unicode="&#x134;" horiz-adv-x="358" d="M356 685l-7 -31h-94l-116 -545q-8 -37 -15 -63.5t-14 -42.5q-25 -67 -80 -120q-80 -78 -155 -78q-7 0 -17 2l11 74l12 6q25 -18 65 -18q24 0 42 32q7 13 13.5 32.5t11.5 45.5l143 675h-94l7 31h287zM365 746h-34l-80 101l-133 -101h-38l153 164h47z" />
<glyph unicode="&#x135;" horiz-adv-x="270" d="M215 407l-73 -339q-11 -51 -21 -91.5t-19 -71.5q-16 -55 -50 -109q-40 -64 -78 -64q-29 0 -42 7l8 55q30 -18 52 -18q28 0 45 84l96 477q8 43 8 42q0 23 -18 23q-6 0 -49 -28l-27 -17l-7 19l27 20q97 72 128 72q25 0 25 -26q0 -10 -5 -35zM310 532h-34l-80 101l-133 -101 h-38l153 164h47z" />
<glyph unicode="&#x136;" horiz-adv-x="763" d="M717 690l-6 -31q-48 0 -91 -24q-36 -20 -99 -77q-15 -14 -47.5 -43.5t-83.5 -75.5l144 -352q5 -15 11.5 -30.5t21.5 -21.5q9 -4 77 -4l-7 -31h-297l6 31q44 0 61 6q4 2 7.5 4.5t5.5 6.5q11 15 0 41l-110 280q-40 -37 -80 -73.5t-80 -73.5l-41 -191h93l-6 -31h-284l7 31 h94l133 628h-93l5 31h285l-6 -31h-93l-79 -370l332 298q29 26 29 44q0 9 -4 16q-6 15 -61 12l5 31h251zM154 -286l-6 22q85 13 96 60q4 19 -13 19q-54 1 -54 44q0 31 21.5 52t53.5 21q54 0 54 -56q0 -12 -3 -25q-27 -126 -149 -137z" />
<glyph unicode="&#x137;" horiz-adv-x="435" d="M430 455l-17 -61q-18 5 -35 5q-61 0 -152 -83l-14 -13q48 -153 93 -234q14 -23 25 -23q13 0 29 10l41 23l8 -18l-44 -31q-61 -43 -78 -43q-16 0 -36 35q-32 58 -87 225q-50 -50 -65 -123l-23 -120l-65 -17l-8 10q15 58 34.5 143t44.5 199l59 314q-22 -9 -89 -11l3 24 q44 3 79 12q38 9 76 29l12 -11l-103 -470l2 -2q166 240 260 240q24 0 50 -9zM89 -290l-6 22q85 13 96 60q4 19 -13 19q-54 1 -54 44q0 31 21.5 52t53.5 21q54 0 54 -56q0 -12 -3 -25q-27 -126 -149 -137z" />
<glyph unicode="&#x139;" horiz-adv-x="538" d="M532 240l-63 -240h-551l7 31h94l133 628h-94l7 31h282l-7 -31h-95l-133 -628l153 3q27 1 71 15q44 15 67 34q71 56 97 157h32zM461 933q0 -32 -27 -51l-189 -133h-32l180 186q20 19 46 19q22 0 22 -21z" />
<glyph unicode="&#x13a;" horiz-adv-x="270" d="M235 695l-124 -587q-6 -29 -6 -39q0 -20 12 -20q15 0 59 29l26 17l9 -18q-32 -23 -58.5 -41t-47.5 -31q-31 -19 -48 -19q-30 0 -30 39q0 26 32 148q63 237 96 479q-25 -10 -89 -11l3 24q43 4 78 12q20 5 39 12t38 17zM406 904q0 -32 -27 -51l-189 -133h-32l180 186 q20 19 46 19q22 0 22 -21z" />
<glyph unicode="&#x13b;" horiz-adv-x="628" d="M532 240l-63 -240h-551l7 31h94l133 628h-94l7 31h282l-7 -31h-95l-133 -628l153 3q27 1 71 15q44 15 67 34q71 56 97 157h32zM210 -290l-6 22q85 13 96 60q4 19 -13 19q-54 1 -54 44q0 31 21.5 52t53.5 21q54 0 54 -56q0 -12 -3 -25q-27 -126 -149 -137z" />
<glyph unicode="&#x13c;" horiz-adv-x="270" d="M243 700l-124 -587q-6 -29 -6 -39q0 -20 12 -20q15 0 59 29l26 17l9 -18q-32 -23 -58.5 -41t-47.5 -31q-31 -19 -48 -19q-30 0 -30 39q0 26 32 148q63 237 96 479q-25 -10 -89 -11l3 24q43 4 78 12q20 5 39 12t38 17zM-9 -287l-6 22q85 13 96 60q4 19 -13 19 q-54 1 -54 44q0 31 21.5 52t53.5 21q54 0 54 -56q0 -12 -3 -25q-27 -126 -149 -137z" />
<glyph unicode="&#x13d;" horiz-adv-x="611" d="M532 240l-63 -240h-551l7 31h94l133 628h-94l7 31h282l-7 -31h-95l-133 -628l153 3q27 1 71 15q44 15 67 34q71 56 97 157h32zM471 484l-6 22q85 13 96 60q4 19 -13 19q-54 1 -54 44q0 31 21.5 52t53.5 21q54 0 54 -56q0 -12 -3 -25q-27 -126 -149 -137z" />
<glyph unicode="&#x13e;" horiz-adv-x="270" d="M243 700l-124 -587q-6 -29 -6 -39q0 -20 12 -20q15 0 59 29l26 17l9 -18q-32 -23 -58.5 -41t-47.5 -31q-31 -19 -48 -19q-30 0 -30 39q0 26 32 148q63 237 96 479q-25 -10 -89 -11l3 24q43 4 78 12q20 5 39 12t38 17zM291 484l-6 22q85 13 96 60q4 19 -13 19 q-54 1 -54 44q0 31 21.5 52t53.5 21q54 0 54 -56q0 -12 -3 -25q-27 -126 -149 -137z" />
<glyph unicode="&#x13f;" horiz-adv-x="628" d="M532 240l-63 -240h-551l7 31h94l133 628h-94l7 31h282l-7 -31h-95l-133 -628l153 3q27 1 71 15q44 15 67 34q71 56 97 157h32zM555 440q-44 0 -44 43q0 30 25 51q19 16 43 16q44 0 44 -43q0 -30 -25 -51q-19 -16 -43 -16z" />
<glyph unicode="&#x140;" horiz-adv-x="270" d="M243 700l-124 -587q-6 -29 -6 -39q0 -20 12 -20q15 0 59 29l26 17l9 -18q-32 -23 -58.5 -41t-47.5 -31q-31 -19 -48 -19q-30 0 -30 39q0 26 32 148q63 237 96 479q-25 -10 -89 -11l3 24q43 4 78 12q20 5 39 12t38 17zM347 357q-10 -49 -57 -49q-38 0 -38 34q0 25 17 42.5 t41 17.5q20 0 30 -14t7 -31z" />
<glyph unicode="&#x141;" horiz-adv-x="667" d="M593 240l-63 -240h-551l7 31h94l60 286l-114 -68q0 -3 -10 11q-9 17 -8 18l142 85l63 296h-94l7 31h282l-7 -31h-95l-50 -232l131 78q5 -8 9 -15t8 -15l-157 -95l-74 -349l153 3q28 1 70 15q43 15 68 34q71 56 97 157h32z" />
<glyph unicode="&#x142;" horiz-adv-x="291" d="M243 700l-57 -269l101 59l6 -1l14 -25l-1 -5l-130 -74l-57 -272q-6 -29 -6 -39q0 -20 12 -20q15 0 59 29l26 17l9 -18q-32 -23 -58.5 -41t-47.5 -31q-31 -19 -48 -19q-30 0 -30 39q0 26 32 148q7 24 16 65t21 100l-95 -55l-6 2l-12 23l1 6l122 70q20 99 32 165.5 t17 102.5q-25 -10 -89 -11l3 24q43 4 78 12q20 5 39 12t38 17z" />
<glyph unicode="&#x143;" horiz-adv-x="770" d="M723 690l-6 -31q-59 0 -70 -10q-32 -26 -43 -76l-128 -590h-23l-274 654l-110 -519q-10 -52 10 -77q7 -10 66 -10l-7 -31h-222l7 31q56 0 68 9q32 23 44 78l110 519q4 22 -24 22h-56l6 31h197l215 -515l84 398q3 16 3 30q0 30 -15 47q-8 9 -64 9l6 31h226zM639 924 q0 -32 -27 -51l-189 -133h-32l180 186q20 19 46 19q22 0 22 -21z" />
<glyph unicode="&#x144;" horiz-adv-x="540" d="M510 78q-69 -51 -106 -72q-32 -19 -49 -19q-30 0 -30 39q0 23 13 74l50 205q11 47 11 70t-16 23q-24 0 -67 -30q-79 -55 -131 -162q-37 -74 -55 -202q-13 -2 -30 -6.5t-38 -10.5l-6 11q15 51 31 117.5t33 150.5q15 73 15 109q0 23 -17 23q-7 0 -50 -28l-27 -17l-7 19 l27 20q97 72 128 72q24 0 24 -32q0 -16 -6 -40l-35 -149h4q36 52 68 89t61 60q88 72 143 72q32 0 32 -34q0 -14 -3 -32t-8 -41l-59 -248q-7 -27 -7 -39q0 -20 12 -20q16 0 60 29l25 17zM528 683q0 -32 -27 -51l-189 -133h-32l180 186q20 19 46 19q22 0 22 -21z" />
<glyph unicode="&#x145;" horiz-adv-x="770" d="M723 690l-6 -31q-59 0 -70 -10q-32 -26 -43 -76l-128 -590h-23l-274 654l-110 -519q-10 -52 10 -77q7 -10 66 -10l-7 -31h-222l7 31q56 0 68 9q32 23 44 78l110 519q4 22 -24 22h-56l6 31h197l215 -515l84 398q3 16 3 30q0 30 -15 47q-8 9 -64 9l6 31h226zM181 -283 l-6 22q85 13 96 60q4 19 -13 19q-54 1 -54 44q0 31 21.5 52t53.5 21q54 0 54 -56q0 -12 -3 -25q-27 -126 -149 -137z" />
<glyph unicode="&#x146;" horiz-adv-x="540" d="M510 78q-69 -51 -106 -72q-32 -19 -49 -19q-30 0 -30 39q0 23 13 74l50 205q11 47 11 70t-16 23q-24 0 -67 -30q-79 -55 -131 -162q-37 -74 -55 -202q-13 -2 -30 -6.5t-38 -10.5l-6 11q15 51 31 117.5t33 150.5q15 73 15 109q0 23 -17 23q-7 0 -50 -28l-27 -17l-7 19 l27 20q97 72 128 72q24 0 24 -32q0 -16 -6 -40l-35 -149h4q36 52 68 89t61 60q88 72 143 72q32 0 32 -34q0 -14 -3 -32t-8 -41l-59 -248q-7 -27 -7 -39q0 -20 12 -20q16 0 60 29l25 17zM143 -282l-1 17q82 20 89 58q3 14 -13 14q-50 2 -50 39q0 28 20 46.5t47 18.5 q49 0 49 -51q0 -5 -0.5 -10t-1.5 -11q-24 -111 -139 -121z" />
<glyph unicode="&#x147;" horiz-adv-x="770" d="M723 690l-6 -31q-59 0 -70 -10q-32 -26 -43 -76l-128 -590h-23l-274 654l-110 -519q-10 -52 10 -77q7 -10 66 -10l-7 -31h-222l7 31q56 0 68 9q32 23 44 78l110 519q4 22 -24 22h-56l6 31h197l215 -515l84 398q3 16 3 30q0 30 -15 47q-8 9 -64 9l6 31h226zM490 745 l-49 -1l-87 164h34l82 -107l141 108l48 -1z" />
<glyph unicode="&#x148;" horiz-adv-x="540" d="M510 78q-69 -51 -106 -72q-32 -19 -49 -19q-30 0 -30 39q0 23 13 74l50 205q11 47 11 70t-16 23q-24 0 -67 -30q-79 -55 -131 -162q-37 -74 -55 -202q-13 -2 -30 -6.5t-38 -10.5l-6 11q15 51 31 117.5t33 150.5q15 73 15 109q0 23 -17 23q-7 0 -50 -28l-27 -17l-7 19 l27 20q97 72 128 72q24 0 24 -32q0 -16 -6 -40l-35 -149h4q36 52 68 89t61 60q88 72 143 72q32 0 32 -34q0 -14 -3 -32t-8 -41l-59 -248q-7 -27 -7 -39q0 -20 12 -20q16 0 60 29l25 17zM333 531l-49 -1l-87 164h34l82 -107l141 108l48 -1z" />
<glyph unicode="&#x149;" horiz-adv-x="540" d="M510 78q-69 -51 -106 -72q-32 -19 -49 -19q-30 0 -30 39q0 23 13 74l50 205q11 47 11 70t-16 23q-24 0 -67 -30q-79 -55 -131 -162q-37 -74 -55 -202q-13 -2 -30 -6.5t-38 -10.5l-6 11q15 51 31 117.5t33 150.5q15 73 15 109q0 23 -17 23q-7 0 -50 -28l-27 -17l-7 19 l27 20q97 72 128 72q24 0 24 -32q0 -16 -6 -40l-35 -149h4q36 52 68 89t61 60q88 72 143 72q32 0 32 -34q0 -14 -3 -32t-8 -41l-59 -248q-7 -27 -7 -39q0 -20 12 -20q16 0 60 29l25 17zM223 587q-14 -33 -54 -62q-39 -27 -72 -27l3 18q59 17 83 65q6 12 6 27q0 20 -14 26 q-8 2 -10 2q-4 0 -17 -6.5t-29 -5.5q-33 1 -33 29q0 17 15 32.5t39 18.5q6 1 11.5 1.5t10.5 0.5q74 0 74 -64q0 -25 -13 -55z" />
<glyph unicode="&#x14a;" horiz-adv-x="770" d="M801 690l-6 -31q-59 0 -70 -10q-33 -27 -43 -76l-124 -589q-4 -19 -8 -35t-9 -30q-20 -68 -44 -92q-46 -43 -97 -43q-33 0 -61 20q-10 7 -10 19q0 14 12 26.5t27 12.5q4 0 12 -2.5t17 -5t17.5 -5t14.5 -2.5q26 0 49 24q23 23 46 129l-267 637l-110 -519q-10 -52 10 -77 q7 -10 66 -10l-7 -31h-222l7 31q56 0 68 9q32 23 44 78l110 519q4 22 -24 22h-56l6 31h197l215 -515l84 398q3 16 3 30q0 30 -15 47q-8 9 -64 9l6 31h226z" />
<glyph unicode="&#x14b;" horiz-adv-x="499" d="M480 430q0 -6 -15 -78t-46 -212l-60 -252q-18 -84 -149 -82q-13 0 -13 8q0 15 19 14q8 1 15 2t13 3q30 11 36 35q23 84 39.5 150.5t27.5 117.5q26 117 39 176.5t13 62.5q0 23 -16 23q-24 0 -67 -30q-79 -55 -131 -162q-37 -74 -55 -202q-13 -2 -30 -6.5t-38 -10.5l-6 11 q15 51 31 117.5t33 150.5q15 73 15 109q0 23 -17 23q-7 0 -50 -28l-27 -17l-7 19l27 20q97 72 128 72q24 0 24 -32q0 -16 -6 -40l-35 -149h4q36 52 68 89t61 60q88 72 143 72q32 0 32 -34z" />
<glyph unicode="&#x14c;" horiz-adv-x="702" d="M628 339q-37 -169 -143 -264q-100 -91 -236 -91q-109 0 -173 78q-65 79 -65 200q0 20 2 40.5t6 42.5q30 164 143 265q106 96 240 96q115 0 178 -67t63 -184q0 -55 -15 -116zM517 341q18 85 18 150q0 184 -139 184q-195 0 -265 -330q-10 -45 -14.5 -82.5t-4.5 -69.5 q0 -175 146 -175q94 0 165 93q62 84 94 230zM584 742h-308l11 51h308z" />
<glyph unicode="&#x14d;" d="M410 315q0 -60 -23 -127t-60 -113q-15 -19 -35 -35.5t-43 -28.5t-47 -18.5t-47 -6.5q-128 0 -128 156q0 100 39 177.5t117 117.5q53 28 98 28q64 0 99 -44q30 -39 30 -106zM336 304q0 124 -90 124q-37 0 -59 -17q-39 -31 -65 -123q-21 -77 -21 -141q0 -124 91 -124 q42 0 71 32q36 42 55 117q18 67 18 132zM433 528h-308l11 51h308z" />
<glyph unicode="&#x14e;" horiz-adv-x="702" d="M620 339q-37 -169 -143 -264q-100 -91 -236 -91q-109 0 -173 78q-65 79 -65 200q0 20 2 40.5t6 42.5q30 164 143 265q106 96 240 96q115 0 178 -67t63 -184q0 -55 -15 -116zM509 341q18 85 18 150q0 184 -139 184q-195 0 -265 -330q-10 -45 -14.5 -82.5t-4.5 -69.5 q0 -175 146 -175q94 0 165 93q62 84 94 230zM581 877q-10 -69 -47.5 -101.5t-112.5 -32.5q-48 2 -76 25q-32 26 -32 73q0 19 4 36q4 4 10 4t9 -4q1 -78 96 -80q85 0 130 80q4 4 10 4t9 -4z" />
<glyph unicode="&#x14f;" d="M410 315q0 -60 -23 -127t-60 -113q-15 -19 -35 -35.5t-43 -28.5t-47 -18.5t-47 -6.5q-128 0 -128 156q0 100 39 177.5t117 117.5q53 28 98 28q64 0 99 -44q30 -39 30 -106zM336 304q0 124 -90 124q-37 0 -59 -17q-39 -31 -65 -123q-21 -77 -21 -141q0 -124 91 -124 q42 0 71 32q36 42 55 117q18 67 18 132zM445 665q-10 -69 -47.5 -101.5t-112.5 -32.5q-48 2 -76 25q-32 26 -32 73q0 19 4 36q4 4 10 4t9 -4q1 -78 96 -80q85 0 130 80q4 4 10 4t9 -4z" />
<glyph unicode="&#x150;" horiz-adv-x="702" d="M628 339q-37 -169 -143 -264q-100 -91 -236 -91q-109 0 -173 78q-65 79 -65 200q0 20 2 40.5t6 42.5q30 164 143 265q106 96 240 96q115 0 178 -67t63 -184q0 -55 -15 -116zM517 341q18 85 18 150q0 184 -139 184q-195 0 -265 -330q-10 -45 -14.5 -82.5t-4.5 -69.5 q0 -175 146 -175q94 0 165 93q62 84 94 230zM652 929q0 -18 -13 -34l-123 -158l-27 6l93 202q9 19 37 19q33 0 33 -35zM505 929q0 -18 -13 -34l-124 -156l-27 4l94 202q9 19 37 19q33 0 33 -35z" />
<glyph unicode="&#x151;" d="M410 315q0 -60 -23 -127t-60 -113q-15 -19 -35 -35.5t-43 -28.5t-47 -18.5t-47 -6.5q-128 0 -128 156q0 100 39 177.5t117 117.5q53 28 98 28q64 0 99 -44q30 -39 30 -106zM336 304q0 124 -90 124q-37 0 -59 -17q-39 -31 -65 -123q-21 -77 -21 -141q0 -124 91 -124 q42 0 71 32q36 42 55 117q18 67 18 132zM498 692q0 -18 -13 -34l-123 -158l-27 6l93 202q9 19 37 19q33 0 33 -35zM351 692q0 -18 -13 -34l-124 -156l-27 4l94 202q9 19 37 19q33 0 33 -35z" />
<glyph unicode="&#x152;" horiz-adv-x="1063" d="M1034 690l-41 -203h-30q3 28 3 46q0 50 -23 81q-31 41 -127 43l-172 2l-62 -290h123q45 0 71 26t42 92h31l-60 -278h-31q15 60 -4 93t-56 33h-123l-64 -304l188 3q27 0 71 15t67 34q71 56 97 157h32l-63 -240l-398 -2q-31 0 -113 -6q-81 -6 -101 -6q-107 -2 -174 74 q-66 76 -66 196q0 47 10 91q36 161 145 261q106 96 238 100q24 1 99 -9q76 -9 105 -9h386zM548 651q-36 28 -110 26q-107 -3 -173 -95q-57 -80 -90 -235q-20 -97 -20 -160q0 -169 141 -169q57 0 124 29z" />
<glyph unicode="&#x153;" horiz-adv-x="649" d="M634 389q0 -73 -88 -122q-56 -32 -174 -63q-4 -27 -6 -48t-2 -35q0 -86 79 -86q52 0 130 57l22 16l5 -23q-117 -96 -189 -96q-95 0 -110 80q-75 -80 -156 -80q-129 0 -129 159q0 141 84 236q75 84 166 84q86 0 122 -84q29 20 48.5 33.5t30.5 20.5q51 30 87 30t58 -21.5 t22 -57.5zM563 374q0 53 -45 53q-52 0 -92 -52q-30 -38 -50 -148q56 12 107 38q80 41 80 109zM322 314q0 117 -94 117q-74 0 -113 -122q-25 -76 -25 -166q0 -117 92 -117q53 0 83 48q25 40 42 116q15 67 15 124z" />
<glyph unicode="&#x154;" horiz-adv-x="725" d="M581 512q-16 -77 -86 -127q-63 -45 -154 -53l146 -278q9 -21 57 -26l-6 -29q-75 3 -70 3q-6 0 -13 -0.5t-15 -1.5q-20 -3 -29 -3q-5 8 -12 21t-17 31l-109 234q-7 15 -31 45h-68l-62 -297h94l-7 -31h-283l7 31h94l133 628h-94l7 31h308q106 0 162 -39q52 -36 52 -101 q0 -9 -1 -18.5t-3 -19.5zM478 514q4 17 4 37q0 108 -130 108h-107l-65 -303h87q182 0 211 158zM560 931q0 -32 -27 -51l-189 -133h-32l180 186q20 19 46 19q22 0 22 -21z" />
<glyph unicode="&#x155;" horiz-adv-x="377" d="M372 462q-11 -63 -15 -108h-14q-12 18 -36 18q-28 0 -79 -63q-57 -70 -83 -187l-25 -116q-43 -8 -65 -15l-9 7q20 64 38 141t33 168l2 12q4 23 5.5 37.5t1.5 22.5q0 21 -17 21q-9 0 -50 -26l-27 -17l-7 19l27 20q97 72 128 72q24 0 24 -32q0 -16 -6 -40 q-8 -34 -15.5 -68.5t-13.5 -69.5l2 -2q15 35 71 115q17 24 28.5 39.5t17.5 22.5q33 35 65 35q7 0 19 -6zM483 683q0 -32 -27 -51l-189 -133h-32l180 186q20 19 46 19q22 0 22 -21z" />
<glyph unicode="&#x156;" horiz-adv-x="725" d="M581 512q-16 -77 -86 -127q-63 -45 -154 -53l146 -278q9 -21 57 -26l-6 -29q-75 3 -70 3q-6 0 -13 -0.5t-15 -1.5q-20 -3 -29 -3q-5 8 -12 21t-17 31l-109 234q-7 15 -31 45h-68l-62 -297h94l-7 -31h-283l7 31h94l133 628h-94l7 31h308q106 0 162 -39q52 -36 52 -101 q0 -9 -1 -18.5t-3 -19.5zM478 514q4 17 4 37q0 108 -130 108h-107l-65 -303h87q182 0 211 158zM178 -291l-6 22q85 13 96 60q4 19 -13 19q-54 1 -54 44q0 31 21.5 52t53.5 21q54 0 54 -56q0 -12 -3 -25q-27 -126 -149 -137z" />
<glyph unicode="&#x157;" horiz-adv-x="377" d="M372 462q-11 -63 -15 -108h-14q-12 18 -36 18q-28 0 -79 -63q-57 -70 -83 -187l-25 -116q-43 -8 -65 -15l-9 7q20 64 38 141t33 168l2 12q4 23 5.5 37.5t1.5 22.5q0 21 -17 21q-9 0 -50 -26l-27 -17l-7 19l27 20q97 72 128 72q24 0 24 -32q0 -16 -6 -40 q-8 -34 -15.5 -68.5t-13.5 -69.5l2 -2q15 35 71 115q17 24 28.5 39.5t17.5 22.5q33 35 65 35q7 0 19 -6zM-5 -283l-6 22q85 13 96 60q4 19 -13 19q-54 1 -54 44q0 31 21.5 52t53.5 21q54 0 54 -56q0 -12 -3 -25q-27 -126 -149 -137z" />
<glyph unicode="&#x158;" horiz-adv-x="725" d="M581 512q-16 -77 -86 -127q-63 -45 -154 -53l146 -278q9 -21 57 -26l-6 -29q-75 3 -70 3q-6 0 -13 -0.5t-15 -1.5q-20 -3 -29 -3q-5 8 -12 21t-17 31l-109 234q-7 15 -31 45h-68l-62 -297h94l-7 -31h-283l7 31h94l133 628h-94l7 31h308q106 0 162 -39q52 -36 52 -101 q0 -9 -1 -18.5t-3 -19.5zM478 514q4 17 4 37q0 108 -130 108h-107l-65 -303h87q182 0 211 158zM433 745l-49 -1l-87 164h34l82 -107l141 108l48 -1z" />
<glyph unicode="&#x159;" horiz-adv-x="377" d="M372 462q-11 -63 -15 -108h-14q-12 18 -36 18q-28 0 -79 -63q-57 -70 -83 -187l-25 -116q-43 -8 -65 -15l-9 7q20 64 38 141t33 168l2 12q4 23 5.5 37.5t1.5 22.5q0 21 -17 21q-9 0 -50 -26l-27 -17l-7 19l27 20q97 72 128 72q24 0 24 -32q0 -16 -6 -40 q-8 -34 -15.5 -68.5t-13.5 -69.5l2 -2q15 35 71 115q17 24 28.5 39.5t17.5 22.5q33 35 65 35q7 0 19 -6zM290 531l-49 -1l-87 164h34l82 -107l141 108l48 -1z" />
<glyph unicode="&#x15a;" horiz-adv-x="535" d="M435 655q-20 -62 -24 -131h-30v74q-34 43 -109 43q-65 0 -109 -40q-44 -41 -44 -103q0 -97 93 -116l63 -13q139 -28 139 -138q0 -106 -90 -178q-82 -67 -192 -67q-83 0 -147 36q8 38 13.5 75.5t9.5 72.5h29v-96q55 -42 136 -42q72 0 118 43q47 44 47 115q0 81 -79 100 l-92 22q-64 15 -91 51.5t-27 102.5q0 92 84 160q79 62 173 62q70 0 129 -33zM496 926q0 -32 -27 -51l-189 -133h-32l180 186q20 19 46 19q22 0 22 -21z" />
<glyph unicode="&#x15b;" horiz-adv-x="377" d="M350 437q-7 -34 -12 -61t-7 -48h-22v53q-11 20 -40 33q-27 11 -51 11q-41 0 -69 -25q-31 -25 -31 -65q0 -34 23 -51q13 -9 53 -17l42 -8q103 -19 103 -92t-70 -125q-75 -57 -141 -57q-53 0 -104 27q15 62 21 128h24v-82q37 -34 90 -34q51 0 83 27.5t32 78.5 q0 31 -13.5 44t-44.5 19l-61 12q-94 18 -94 98q0 50 35 85q76 76 155 76q49 0 99 -27zM401 684q0 -32 -27 -51l-189 -133h-32l180 186q20 19 46 19q22 0 22 -21z" />
<glyph unicode="&#x15c;" horiz-adv-x="497" d="M435 655q-20 -62 -24 -131h-30v74q-34 43 -109 43q-65 0 -109 -40q-44 -41 -44 -103q0 -97 93 -116l63 -13q139 -28 139 -138q0 -106 -90 -178q-82 -67 -192 -67q-83 0 -147 36q8 38 13.5 75.5t9.5 72.5h29v-96q55 -42 136 -42q72 0 118 43q47 44 47 115q0 81 -79 100 l-92 22q-64 15 -91 51.5t-27 102.5q0 92 84 160q79 62 173 62q70 0 129 -33zM465 746h-34l-80 101l-133 -101h-38l153 164h47z" />
<glyph unicode="&#x15d;" horiz-adv-x="377" d="M350 437q-7 -34 -12 -61t-7 -48h-22v53q-11 20 -40 33q-27 11 -51 11q-41 0 -69 -25q-31 -25 -31 -65q0 -34 23 -51q13 -9 53 -17l42 -8q103 -19 103 -92t-70 -125q-75 -57 -141 -57q-53 0 -104 27q15 62 21 128h24v-82q37 -34 90 -34q51 0 83 27.5t32 78.5 q0 31 -13.5 44t-44.5 19l-61 12q-94 18 -94 98q0 50 35 85q76 76 155 76q49 0 99 -27zM348 528h-34l-80 101l-133 -101h-38l153 164h47z" />
<glyph unicode="&#x15e;" horiz-adv-x="535" d="M491 655q-20 -62 -24 -131h-30v74q-34 43 -109 43q-66 0 -109 -40q-44 -41 -44 -103q0 -97 93 -116l63 -13q139 -28 139 -138q0 -106 -90 -178q-83 -67 -192 -67q-83 0 -147 36q8 38 13.5 75.5t9.5 72.5h29v-96q55 -42 136 -42q72 0 118 43q47 44 47 115q0 81 -79 100 l-92 22q-64 15 -91 51.5t-27 102.5q0 92 83 160q79 62 174 62q70 0 129 -33zM248 -139q0 -45 -43 -66q-31 -16 -81 -16q-30 0 -81 20l17 28q44 -14 68 -14q50 0 50 45q0 16 -13.5 26t-30.5 10q-7 0 -34 -6l-8 8l59 93h37l-43 -62q8 1 13.5 1.5t7.5 0.5q82 0 82 -68z" />
<glyph unicode="&#x15f;" horiz-adv-x="377" d="M350 437q-7 -34 -12 -61t-7 -48h-22v53q-11 20 -40 33q-27 11 -51 11q-41 0 -69 -25q-31 -25 -31 -65q0 -34 23 -51q13 -9 53 -17l42 -8q103 -19 103 -92t-70 -125q-75 -57 -141 -57q-53 0 -104 27q15 62 21 128h24v-82q37 -34 90 -34q51 0 83 27.5t32 78.5 q0 31 -13.5 44t-44.5 19l-61 12q-94 18 -94 98q0 50 35 85q76 76 155 76q49 0 99 -27zM205 -137q0 -45 -43 -66q-31 -16 -81 -16q-30 0 -81 20l17 28q44 -14 68 -14q50 0 50 45q0 16 -13.5 26t-30.5 10q-7 0 -34 -6l-8 8l59 93h37l-43 -62q8 1 13.5 1.5t7.5 0.5q82 0 82 -68 z" />
<glyph unicode="&#x160;" horiz-adv-x="510" d="M435 655q-20 -62 -24 -131h-30v74q-34 43 -109 43q-65 0 -109 -40q-44 -41 -44 -103q0 -97 93 -116l63 -13q139 -28 139 -138q0 -106 -90 -178q-82 -67 -192 -67q-83 0 -147 36q8 38 13.5 75.5t9.5 72.5h29v-96q55 -42 136 -42q72 0 118 43q47 44 47 115q0 81 -79 100 l-92 22q-64 15 -91 51.5t-27 102.5q0 92 84 160q79 62 173 62q70 0 129 -33zM326 750l-49 -1l-87 164h34l82 -107l141 108l48 -1z" />
<glyph unicode="&#x161;" horiz-adv-x="377" d="M350 437q-7 -34 -12 -61t-7 -48h-22v53q-11 20 -40 33q-27 11 -51 11q-41 0 -69 -25q-31 -25 -31 -65q0 -34 23 -51q13 -9 53 -17l42 -8q103 -19 103 -92t-70 -125q-75 -57 -141 -57q-53 0 -104 27q15 62 21 128h24v-82q37 -34 90 -34q51 0 83 27.5t32 78.5 q0 31 -13.5 44t-44.5 19l-61 12q-94 18 -94 98q0 50 35 85q76 76 155 76q49 0 99 -27zM279 532l-49 -1l-87 164h34l82 -107l141 108l48 -1z" />
<glyph unicode="&#x162;" horiz-adv-x="656" d="M656 690l-40 -203h-30q3 30 3 44q0 51 -24 83q-28 38 -127 43l-44 2l-134 -628h94l-7 -31h-288l7 31h94l133 628l-47 -2q-92 -5 -138 -43q-49 -42 -73 -127h-30l45 203h606zM98 -283l-6 22q85 13 96 60q4 19 -13 19q-54 1 -54 44q0 31 21.5 52t53.5 21q54 0 54 -56 q0 -12 -3 -25q-27 -126 -149 -137z" />
<glyph unicode="&#x163;" horiz-adv-x="323" d="M301 427l-11 -49h-104q-22 -109 -34 -175t-16 -90q-2 -14 -3 -24t-1 -15q0 -20 13 -20q16 0 59 29l43 30l10 -17q-34 -27 -66.5 -53t-55.5 -37q-32 -15 -51 -15q-30 0 -30 39q0 10 13 74l54 274h-81l2 13q31 8 85 36l24 165q41 14 76 35l11 -15q-11 -31 -22 -78t-22 -113 q53 0 107 6zM9 -290l-6 22q85 13 96 60q4 19 -13 19q-54 1 -54 44q0 31 21.5 52t53.5 21q54 0 54 -56q0 -12 -3 -25q-27 -126 -149 -137z" />
<glyph unicode="&#x164;" horiz-adv-x="656" d="M656 690l-40 -203h-30q3 30 3 44q0 51 -24 83q-28 38 -127 43l-44 2l-134 -628h94l-7 -31h-288l7 31h94l133 628l-47 -2q-92 -5 -138 -43q-49 -42 -73 -127h-30l45 203h606zM396 745l-49 -1l-87 164h34l82 -107l141 108l48 -1z" />
<glyph unicode="&#x165;" horiz-adv-x="323" d="M301 427l-11 -49h-104q-22 -109 -34 -175t-16 -90q-2 -14 -3 -24t-1 -15q0 -20 13 -20q16 0 59 29l43 30l10 -17q-34 -27 -66.5 -53t-55.5 -37q-32 -15 -51 -15q-30 0 -30 39q0 10 13 74l54 274h-81l2 13q31 8 85 36l24 165q41 14 76 35l11 -15q-11 -31 -22 -78t-22 -113 q53 0 107 6zM509 604q-9 -43 -58 -90q-51 -48 -93 -64l-6 22q15 5 31.5 17t35.5 29q37 35 43 62q3 16 -11 16q-6 0 -19 -2t-17 -2q-44 8 -44 39v1q0 32 22.5 53t54.5 21q64 0 64 -76q0 -13 -3 -26z" />
<glyph unicode="&#x166;" horiz-adv-x="656" d="M670 690l-40 -203h-30q3 30 3 44q0 51 -24 83q-28 38 -127 43l-44 2l-42 -196h174l-8 -37h-174l-84 -395h94l-7 -31h-288l7 31h94l84 395h-184l8 37h183l42 196l-47 -2q-92 -5 -138 -43q-49 -42 -73 -127h-30l45 203h606z" />
<glyph unicode="&#x167;" horiz-adv-x="323" d="M26 320h84l11 58h-81l2 13q31 8 85 36l24 165q41 14 76 35l11 -15q-11 -31 -22 -78t-22 -113q53 0 107 6l-11 -49h-104l-12 -58h108l-8 -36h-107q-13 -67 -21 -109.5t-10 -61.5q-2 -14 -3 -24t-1 -15q0 -20 13 -20q16 0 59 29l43 30l10 -17q-34 -27 -66.5 -53t-55.5 -37 q-32 -15 -51 -15q-30 0 -30 39q0 10 13 74l35 180h-84z" />
<glyph unicode="&#x168;" horiz-adv-x="725" d="M752 690l-6 -31q-60 0 -71 -10q-32 -26 -42 -77l-63 -297q-36 -168 -107 -232q-71 -63 -219 -62q-104 2 -162 58q-52 52 -52 131q0 25 4 45l95 444h-93l6 31h286l-6 -31h-94l-98 -442q-8 -40 -8 -68q0 -135 160 -135q91 0 149 47q66 55 93 183l69 328q12 54 -10 78 q-9 9 -65 9l6 31h228zM601 842q-37 -100 -119 -100q-22 0 -55 15l-34 15q-29 13 -42 13q-33 0 -61 -43h-28q45 95 110 95q25 0 58 -14l53 -23q16 -7 34 -4q23 3 57 46h27z" />
<glyph unicode="&#x169;" horiz-adv-x="540" d="M499 76q-69 -51 -106 -72q-32 -19 -49 -19q-30 0 -30 39q0 28 13 74l31 115l-4 1q-16 -26 -41 -58.5t-60 -70.5q-93 -102 -153 -102q-11 0 -22 10t-11 26q0 33 4 50l55 262q8 40 8 42q0 21 -18 21q-8 0 -49 -26l-27 -17l-7 19l27 20q97 72 128 72q23 0 23 -33 q0 -14 -5 -39l-56 -263q-6 -29 -6 -52q0 -24 12 -24q20 0 42 16q23 16 46 39t47 52q51 61 71 115q13 34 21.5 64.5t13.5 58.5l9 49l66 17l7 -9q-26 -97 -46 -183.5t-35 -162.5q-6 -30 -6 -39q0 -17 13 -17q21 0 59 26l25 17zM504 624q-37 -100 -119 -100q-22 0 -55 15 l-34 15q-29 13 -42 13q-33 0 -61 -43h-28q45 95 110 95q25 0 58 -14l53 -23q16 -7 34 -4q23 3 57 46h27z" />
<glyph unicode="&#x16a;" horiz-adv-x="725" d="M752 690l-6 -31q-60 0 -71 -10q-32 -26 -42 -77l-63 -297q-36 -168 -107 -232q-71 -63 -219 -62q-104 2 -162 58q-52 52 -52 131q0 25 4 45l95 444h-93l6 31h286l-6 -31h-94l-98 -442q-8 -40 -8 -68q0 -135 160 -135q91 0 149 47q66 55 93 183l69 328q12 54 -10 78 q-9 9 -65 9l6 31h228zM593 740h-308l11 51h308z" />
<glyph unicode="&#x16b;" horiz-adv-x="540" d="M513 76q-69 -51 -106 -72q-32 -19 -49 -19q-30 0 -30 39q0 28 13 74l31 115l-4 1q-16 -26 -41 -58.5t-60 -70.5q-93 -102 -153 -102q-11 0 -22 10t-11 26q0 33 4 50l55 262q8 40 8 42q0 21 -18 21q-8 0 -49 -26l-27 -17l-7 19l27 20q97 72 128 72q23 0 23 -33 q0 -14 -5 -39l-56 -263q-6 -29 -6 -52q0 -24 12 -24q20 0 42 16q23 16 46 39t47 52q51 61 71 115q13 34 21.5 64.5t13.5 58.5l9 49l66 17l7 -9q-26 -97 -46 -183.5t-35 -162.5q-6 -30 -6 -39q0 -17 13 -17q21 0 59 26l25 17zM489 527h-308l11 51h308z" />
<glyph unicode="&#x16c;" horiz-adv-x="725" d="M752 690l-6 -31q-60 0 -71 -10q-32 -26 -42 -77l-63 -297q-36 -168 -107 -232q-71 -63 -219 -62q-104 2 -162 58q-52 52 -52 131q0 25 4 45l95 444h-93l6 31h286l-6 -31h-94l-98 -442q-8 -40 -8 -68q0 -135 160 -135q91 0 149 47q66 55 93 183l69 328q12 54 -10 78 q-9 9 -65 9l6 31h228zM593 877q-10 -69 -47.5 -101.5t-112.5 -32.5q-48 2 -76 25q-32 26 -32 73q0 19 4 36q4 4 10 4t9 -4q1 -78 96 -80q85 0 130 80q4 4 10 4t9 -4z" />
<glyph unicode="&#x16d;" horiz-adv-x="540" d="M513 76q-69 -51 -106 -72q-32 -19 -49 -19q-30 0 -30 39q0 28 13 74l31 115l-4 1q-16 -26 -41 -58.5t-60 -70.5q-93 -102 -153 -102q-11 0 -22 10t-11 26q0 33 4 50l55 262q8 40 8 42q0 21 -18 21q-8 0 -49 -26l-27 -17l-7 19l27 20q97 72 128 72q23 0 23 -33 q0 -14 -5 -39l-56 -263q-6 -29 -6 -52q0 -24 12 -24q20 0 42 16q23 16 46 39t47 52q51 61 71 115q13 34 21.5 64.5t13.5 58.5l9 49l66 17l7 -9q-26 -97 -46 -183.5t-35 -162.5q-6 -30 -6 -39q0 -17 13 -17q21 0 59 26l25 17zM493 664q-10 -69 -47.5 -101.5t-112.5 -32.5 q-48 2 -76 25q-32 26 -32 73q0 19 4 36q4 4 10 4t9 -4q1 -78 96 -80q85 0 130 80q4 4 10 4t9 -4z" />
<glyph unicode="&#x16e;" horiz-adv-x="725" d="M752 690l-6 -31q-60 0 -71 -10q-32 -26 -42 -77l-63 -297q-36 -168 -107 -232q-71 -63 -219 -62q-104 2 -162 58q-52 52 -52 131q0 25 4 45l95 444h-93l6 31h286l-6 -31h-94l-98 -442q-8 -40 -8 -68q0 -135 160 -135q91 0 149 47q66 55 93 183l69 328q12 54 -10 78 q-9 9 -65 9l6 31h228zM434 748q-38 1 -60 21t-22 53q0 5 0.5 10.5t1.5 10.5q20 95 121 95q37 0 59 -24t22 -56q0 -49 -36 -80q-36 -32 -86 -30zM519 857q0 22 -14.5 36.5t-36.5 13.5q-15 0 -29.5 -6.5t-26 -17.5t-18 -25t-6.5 -29q0 -22 15.5 -36.5t36.5 -14.5q33 0 56 23 t23 56z" />
<glyph unicode="&#x16f;" horiz-adv-x="540" d="M499 76q-69 -51 -106 -72q-32 -19 -49 -19q-30 0 -30 39q0 28 13 74l31 115l-4 1q-16 -26 -41 -58.5t-60 -70.5q-93 -102 -153 -102q-11 0 -22 10t-11 26q0 33 4 50l55 262q8 40 8 42q0 21 -18 21q-8 0 -49 -26l-27 -17l-7 19l27 20q97 72 128 72q23 0 23 -33 q0 -14 -5 -39l-56 -263q-6 -29 -6 -52q0 -24 12 -24q20 0 42 16q23 16 46 39t47 52q51 61 71 115q13 34 21.5 64.5t13.5 58.5l9 49l66 17l7 -9q-26 -97 -46 -183.5t-35 -162.5q-6 -30 -6 -39q0 -17 13 -17q21 0 59 26l25 17zM323 530q-38 1 -60 21t-22 53q0 5 0.5 10.5 t1.5 10.5q20 95 121 95q37 0 59 -24t22 -56q0 -49 -36 -80q-36 -32 -86 -30zM408 639q0 22 -14.5 36.5t-36.5 13.5q-15 0 -29.5 -6.5t-26 -17.5t-18 -25t-6.5 -29q0 -22 15.5 -36.5t36.5 -14.5q33 0 56 23t23 56z" />
<glyph unicode="&#x170;" horiz-adv-x="725" d="M752 690l-6 -31q-60 0 -71 -10q-32 -26 -42 -77l-63 -297q-36 -168 -107 -232q-71 -63 -219 -62q-104 2 -162 58q-52 52 -52 131q0 25 4 45l95 444h-93l6 31h286l-6 -31h-94l-98 -442q-8 -40 -8 -68q0 -135 160 -135q91 0 149 47q66 55 93 183l69 328q12 54 -10 78 q-9 9 -65 9l6 31h228zM646 927q0 -18 -13 -34l-123 -158l-27 6l93 202q9 19 37 19q33 0 33 -35zM499 927q0 -18 -13 -34l-124 -156l-27 4l94 202q9 19 37 19q33 0 33 -35z" />
<glyph unicode="&#x171;" horiz-adv-x="540" d="M513 76q-69 -51 -106 -72q-32 -19 -49 -19q-30 0 -30 39q0 28 13 74l31 115l-4 1q-16 -26 -41 -58.5t-60 -70.5q-93 -102 -153 -102q-11 0 -22 10t-11 26q0 33 4 50l55 262q8 40 8 42q0 21 -18 21q-8 0 -49 -26l-27 -17l-7 19l27 20q97 72 128 72q23 0 23 -33 q0 -14 -5 -39l-56 -263q-6 -29 -6 -52q0 -24 12 -24q20 0 42 16q23 16 46 39t47 52q51 61 71 115q13 34 21.5 64.5t13.5 58.5l9 49l66 17l7 -9q-26 -97 -46 -183.5t-35 -162.5q-6 -30 -6 -39q0 -17 13 -17q21 0 59 26l25 17zM547 692q0 -18 -13 -34l-123 -158l-27 6l93 202 q9 19 37 19q33 0 33 -35zM400 692q0 -18 -13 -34l-124 -156l-27 4l94 202q9 19 37 19q33 0 33 -35z" />
<glyph unicode="&#x172;" horiz-adv-x="725" d="M330 -103q-11 -23 -44 -50q-34 -28 -66 -28q-20 0 -33 12q-20 18 -20 43q0 43 57 108q-93 6 -146 62q-48 51 -48 126q0 25 4 45l95 444h-93l6 31h286l-6 -31h-94l-98 -442q-8 -40 -8 -68q0 -135 160 -135q91 0 149 47q66 55 93 183l69 328q12 54 -10 78q-9 9 -65 9l6 31 h228l-6 -31q-60 0 -71 -10q-32 -26 -42 -77l-63 -297q-34 -163 -103 -229q-68 -64 -207 -65q-34 -43 -34 -74q0 -36 33 -36q32 0 58 33z" />
<glyph unicode="&#x173;" horiz-adv-x="540" d="M440 -103q-11 -23 -44 -50q-34 -28 -66 -28q-20 0 -33 12q-20 18 -20 43q0 45 65 116q-14 9 -14 34q0 28 13 74l31 115l-4 1q-16 -26 -41 -58.5t-60 -70.5q-93 -102 -153 -102q-11 0 -22 10t-11 26q0 33 4 50l55 262q8 40 8 42q0 21 -18 21q-8 0 -49 -26l-27 -17l-7 19 l27 20q97 72 128 72q23 0 23 -33q0 -14 -5 -39l-56 -263q-6 -29 -6 -52q0 -24 12 -24q20 0 42 16q23 16 46 39t47 52q51 61 71 115q13 34 21.5 64.5t13.5 58.5l9 49l66 17l7 -9q-26 -97 -46 -183.5t-35 -162.5q-6 -30 -6 -39q0 -17 13 -17q21 0 59 26l25 17l10 -18 q-69 -51 -106 -72q-21 -11 -31 -15q-40 -49 -40 -82q0 -36 33 -36q32 0 58 33z" />
<glyph unicode="&#x174;" horiz-adv-x="1043" d="M1036 690l-7 -31q-53 2 -74 -11q-20 -13 -31 -24q-10 -11 -21.5 -28.5t-24.5 -43.5l-288 -572h-40l-69 546l-328 -546h-35l-27 679h-75l7 31h259l-7 -31h-76l9 -510l324 541h31l68 -530l194 392q34 67 34 87t-62 20l7 31h232zM683 740h-34l-80 101l-133 -101h-38l153 164 h47z" />
<glyph unicode="&#x175;" horiz-adv-x="700" d="M678 372q0 -36 -18 -100q-26 -89 -97 -178q-86 -105 -164 -105q-33 0 -52 28.5t-19 73.5q0 32 10 82l-2 2q-95 -186 -180 -186q-45 0 -68 47q-18 34 -18 86q0 86 59 175q22 28 43.5 55t43.5 55l3 4q-16 -2 -32.5 -3.5t-33.5 -0.5q-8 0 -17 0.5t-20 1.5q-46 3 -58 -27 l-16 -41h-22q18 79 37 115q18 9 43 6q52 -6 115 -6q29 0 52 12l9 -18q-88 -97 -122 -209q-13 -40 -13 -116q0 -32 12 -57q16 -30 45 -30q54 0 124 154q19 43 33 110l28 144l72 22l7 -8l-51 -179q-20 -72 -20 -155q0 -36 13.5 -62t34.5 -26q45 0 91 55q39 46 62 115 q24 70 24 131q0 62 -42 62q-14 0 -26 -9l-11 18l49 46q13 12 32 12q31 0 47 -34q13 -26 13 -62zM563 528h-34l-80 101l-133 -101h-38l153 164h47z" />
<glyph unicode="&#x176;" horiz-adv-x="640" d="M697 690l-5 -31q-34 0 -83 -25q-31 -15 -77 -75l-205 -283l-51 -245h94l-7 -31h-282l7 31h94l49 241l-138 387h-81l5 31h268l-6 -31h-75q28 -85 55 -168t55 -168l163 225q46 61 46 84q0 4 -2 8q-15 19 -64 19l6 31h234zM514 746h-34l-80 101l-133 -101h-38l153 164h47z " />
<glyph unicode="&#x177;" horiz-adv-x="485" d="M475 453l-136 -427q-19 -59 -43 -107.5t-55 -86.5q-84 -106 -168 -106q-33 0 -57 22t-24 56q0 10 1 15l47 33l9 -3q-1 -5 -1 -9v-9q0 -29 17 -46.5t43 -17.5q65 0 112 96q28 57 54 147l45 157l-2 2q-31 -49 -82 -106q-71 -80 -102 -80q-19 0 -33 20q-11 17 -11 39v29.5 t1 19.5l17 236q5 65 -21 65q-4 0 -26 -13l-46 -28l-11 17l79 55q55 39 73 39q25 0 25 -69q0 -17 -1.5 -38.5t-3.5 -48.5l-15 -188q-5 -59 19 -59q15 0 45 26t57 66q56 83 78 164l34 128q32 3 72 19zM424 524h-34l-80 101l-133 -101h-38l153 164h47z" />
<glyph unicode="&#x178;" horiz-adv-x="640" d="M697 690l-5 -31q-34 0 -83 -25q-31 -15 -77 -75l-205 -283l-51 -245h94l-7 -31h-282l7 31h94l49 241l-138 387h-81l5 31h268l-6 -31h-75q28 -85 55 -168t55 -168l163 225q46 61 46 84q0 4 -2 8q-15 19 -64 19l6 31h234zM532 790q-4 -19 -22.5 -34t-36.5 -15 q-19 0 -30.5 15t-7.5 34t21.5 33.5t36.5 14.5t31 -14.5t8 -33.5zM338 790q-4 -19 -22.5 -34t-36.5 -15q-19 0 -30.5 15t-7.5 34t21.5 33.5t36.5 14.5t31 -14.5t8 -33.5z" />
<glyph unicode="&#x179;" horiz-adv-x="660" d="M645 690l-546 -659l218 3q29 0 71 15t67 34q64 49 93 157h37l-64 -240h-573l544 659l-175 -2q-107 -2 -147 -40q-34 -31 -51 -70q-4 -8 -8.5 -23t-10.5 -37h-31l46 204zM606 928q0 -32 -27 -51l-189 -133h-32l180 186q20 19 46 19q22 0 22 -21z" />
<glyph unicode="&#x17a;" d="M418 459l-6 -31l-325 -367l2 -2q39 19 86 19q37 0 101 -16q27 -7 46 -7q30 0 39 25l22 58h21q-8 -31 -15 -65.5t-14 -73.5q-33 -10 -47 -10q-36 0 -89 13q-49 11 -81 17t-49 6q-52 0 -87 -31l-9 26l338 384l-2 1q-34 -19 -87 -19q-31 0 -75 10q-47 11 -82 0l-29 -57h-20 l31 119q30 10 60 10q22 0 77 -16q72 -20 129 -20q20 0 33 13l23 23zM493 685q0 -32 -27 -51l-189 -133h-32l180 186q20 19 46 19q22 0 22 -21z" />
<glyph unicode="&#x17b;" horiz-adv-x="660" d="M645 690l-546 -659l218 3q29 0 71 15t67 34q64 49 93 157h37l-64 -240h-573l544 659l-175 -2q-107 -2 -147 -40q-34 -31 -51 -70q-4 -8 -8.5 -23t-10.5 -37h-31l46 204zM457 786q-10 -49 -57 -49q-38 0 -38 34q0 25 17 42.5t41 17.5q20 0 30 -14t7 -31z" />
<glyph unicode="&#x17c;" d="M418 459l-6 -31l-325 -367l2 -2q39 19 86 19q37 0 101 -16q27 -7 46 -7q30 0 39 25l22 58h21q-8 -31 -15 -65.5t-14 -73.5q-33 -10 -47 -10q-36 0 -89 13q-49 11 -81 17t-49 6q-52 0 -87 -31l-9 26l338 384l-2 1q-34 -19 -87 -19q-31 0 -75 10q-47 11 -82 0l-29 -57h-20 l31 119q30 10 60 10q22 0 77 -16q72 -20 129 -20q20 0 33 13l23 23zM348 578q-10 -49 -57 -49q-38 0 -38 34q0 25 17 42.5t41 17.5q20 0 30 -14t7 -31z" />
<glyph unicode="&#x17d;" horiz-adv-x="660" d="M645 690l-546 -659l218 3q29 0 71 15t67 34q64 49 93 157h37l-64 -240h-573l544 659l-175 -2q-107 -2 -147 -40q-34 -31 -51 -70q-4 -8 -8.5 -23t-10.5 -37h-31l46 204zM460 745l-49 -1l-87 164h34l82 -107l141 108l48 -1z" />
<glyph unicode="&#x17e;" d="M418 459l-6 -31l-325 -367l2 -2q39 19 86 19q37 0 101 -16q27 -7 46 -7q30 0 39 25l22 58h21q-8 -31 -15 -65.5t-14 -73.5q-33 -10 -47 -10q-36 0 -89 13q-49 11 -81 17t-49 6q-52 0 -87 -31l-9 26l338 384l-2 1q-34 -19 -87 -19q-31 0 -75 10q-47 11 -82 0l-29 -57h-20 l31 119q30 10 60 10q22 0 77 -16q72 -20 129 -20q20 0 33 13l23 23zM307 533l-49 -1l-87 164h34l82 -107l141 108l48 -1z" />
<glyph unicode="&#x17f;" horiz-adv-x="270" d="M81 -47q-35 -113 -97 -169q-58 -52 -107 -52q-21 0 -34 8q4 6 13 39q7 31 9 39l14 4q20 -29 46 -29q55 0 86 88q20 57 57 266q16 85 25 141t13 84h-79l5 21q41 14 83 36q4 17 7 35l6 36q11 53 21 74q7 16 25 37q9 11 56 47t69 46q14 7 34 7q45 0 68 -13 q-8 -23 -15.5 -42.5t-12.5 -36.5l-9 -4q-23 38 -69 38q-42 0 -66 -46q-13 -25 -22 -74l-30 -161q-17 -84 -41 -187.5t-55 -231.5z" />
<glyph unicode="&#x192;" horiz-adv-x="500" d="M270 354l-43 -317q-5 -37 -9.5 -62t-7.5 -38q-7 -27 -18 -49.5t-25 -41.5q-63 -80 -139 -114q-34 -14 -63 -14q-4 0 -7 0.5t-7 1.5l-3 6q7 17 11.5 31t7.5 25l7 5q20 -7 44 -7q56 0 88 56q10 17 19 65.5t19 127.5l39 325h-44q-26 0 -66 -3l-7 4v33l7 6q17 -1 35 -1.5 t37 -0.5h43q7 63 9 72q7 45 20 69q26 48 104 105q62 47 115 47q30 0 58 -11l4 -7q-14 -39 -19 -65h-9q-35 28 -70 28q-76 0 -101 -88q-7 -25 -13.5 -62t-11.5 -88h50q19 0 43 0.5t53 1.5l8 -6v-31l-8 -6q-59 3 -94 3h-56z" />
<glyph unicode="&#x1a0;" horiz-adv-x="772" d="M657 339q-39 -170 -144 -264q-100 -91 -236 -91q-109 0 -173 78q-65 79 -65 200q0 20 2 40.5t6 42.5q30 164 143 265q106 96 241 96q161 0 217 -128q90 20 94 57q3 25 -44 51q-13 7 -13 21q0 13 10 24.5t24 11.5q6 0 12 -3q56 -26 56 -80q0 -5 -0.5 -10t-1.5 -10 q-6 -38 -48 -61q-26 -14 -79 -27q13 -42 13 -97q0 -52 -14 -116zM545 341q18 85 18 150q0 184 -139 184q-195 0 -265 -330q-10 -45 -14.5 -82.5t-4.5 -69.5q0 -175 147 -175q93 0 164 93q64 84 94 230z" />
<glyph unicode="&#x1a1;" horiz-adv-x="520" d="M410 315q0 -60 -23 -127t-60 -113q-15 -19 -35 -35.5t-43 -28.5t-47 -18.5t-47 -6.5q-128 0 -128 156q0 100 39 177.5t117 117.5q53 28 98 28q99 0 123 -95q83 19 88 56q3 26 -44 52q-13 6 -13 21q0 13 10 24t24 11q4 0 12 -2q56 -26 56 -81v-10t-1 -10q-8 -39 -49 -61 q-24 -14 -79 -27q1 -7 1.5 -13.5t0.5 -14.5zM336 304q0 124 -90 124q-37 0 -59 -17q-39 -31 -65 -123q-21 -77 -21 -141q0 -124 91 -124q42 0 71 32q36 42 55 117q18 67 18 132z" />
<glyph unicode="&#x1af;" horiz-adv-x="725" d="M830 746q-12 -79 -155 -97q-18 -1 -29 -27q-2 -6 -5.5 -18.5t-7.5 -31.5l-63 -297q-36 -168 -107 -232q-71 -63 -219 -62q-104 2 -162 58q-52 52 -52 131q0 25 4 45l95 444h-93l6 31h286l-6 -31h-94l-98 -442q-8 -40 -8 -68q0 -135 160 -135q91 0 149 47q66 55 93 183 l69 328q12 54 -10 78q-9 9 -65 9l6 31h116q7 -1 15 -1h17q105 0 115 52q4 25 -44 51q-13 7 -13 21q0 13 10 24.5t24 11.5q6 0 12 -3q56 -26 56 -80q0 -5 -0.5 -10t-1.5 -10z" />
<glyph unicode="&#x1b0;" horiz-adv-x="560" d="M513 76q-69 -51 -106 -72q-32 -19 -49 -19q-30 0 -30 39q0 28 13 74l31 115l-4 1q-16 -26 -41 -58.5t-60 -70.5q-93 -102 -153 -102q-11 0 -22 10t-11 26q0 33 4 50l55 262q8 40 8 42q0 21 -18 21q-8 0 -49 -26l-27 -17l-7 19l27 20q97 72 128 72q23 0 23 -33 q0 -14 -5 -39l-56 -263q-6 -29 -6 -52q0 -24 12 -24q20 0 42 16q23 16 46 39t47 52q51 61 71 115q13 34 21.5 64.5t13.5 58.5l9 49l66 17l1 -1q80 19 85 55q3 26 -44 52q-13 6 -13 21q0 13 10 24t24 11q4 0 12 -2q56 -26 56 -81v-10t-1 -10q-8 -39 -49 -61q-26 -14 -79 -27 q-24 -94 -43 -175.5t-33 -150.5q-6 -30 -6 -39q0 -17 13 -17q21 0 59 26l25 17z" />
<glyph unicode="&#x1b7;" horiz-adv-x="495" d="M143 360l260 246h-232q-42 0 -52 -15q-20 -32 -24 -63h-29l36 162h393v-41l-263 -248q81 0 136 -40q66 -47 66 -130q0 -106 -90 -178q-82 -67 -192 -67q-83 0 -147 36q8 38 13.5 75.5t9.5 72.5h29v-96q55 -42 136 -42q72 0 118 43q47 44 47 115t-54 109q-47 31 -117 33 h-42z" />
<glyph unicode="&#x1f4;" horiz-adv-x="700" d="M629 664q-34 -76 -49 -148h-30l15 70q4 19 -16 42q-16 19 -38 30q-43 22 -101 18q-197 -14 -264 -331q-15 -71 -15 -131q0 -91 33 -140q35 -53 98 -54q52 -2 114 21q57 21 66 37q7 12 13 40l26 121h-114l6 30h234l-6 -31h-35l-44 -205q-28 -8 -56 -16.5t-56 -16.5 q-60 -16 -151 -16q-106 0 -174 77q-67 76 -67 195q0 46 10 89q34 161 147 262q105 96 237 98q81 1 141 -14q25 -7 76 -27zM694 924q0 -32 -27 -51l-189 -133h-32l180 186q20 19 46 19q22 0 22 -21z" />
<glyph unicode="&#x1f5;" horiz-adv-x="485" d="M476 414l-9 -43q-42 -6 -81 -2q2 -13 3 -21.5t1 -12.5q0 -83 -66 -141q-50 -44 -98 -52q-26 -38 -26 -44q0 -27 45 -64l58 -48q62 -51 62 -103q0 -37 -28 -71q-13 -15 -28 -27t-34 -20q-72 -33 -141 -33q-67 0 -115 23q-62 29 -62 90q0 117 191 173q-20 17 -20 32 q0 22 26 46l38 35l-2 2q-5 -1 -11 -1h-11q-56 0 -87 28q-35 30 -35 88q0 110 83 169q72 51 130 51q37 0 66 -13q37 -16 49 -44q67 0 99 9zM320 328q0 107 -86 107q-51 0 -85 -43t-34 -109q0 -120 92 -120q55 0 87 57q26 47 26 108zM301 -149q0 43 -63 93l-74 57 q-61 -15 -99 -47q-46 -39 -46 -96q0 -48 47 -77q37 -22 91 -22q48 0 91 22q53 26 53 70zM475 684q0 -32 -27 -51l-189 -133h-32l180 186q20 19 46 19q22 0 22 -21z" />
<glyph unicode="&#x1fa;" horiz-adv-x="696" d="M674 31l-7 -31h-260l7 31h87l-27 198h-249l-56 -91q-36 -59 -36 -86q0 -5 2 -11q4 -10 62 -10l-7 -31h-224l7 31q53 -2 74 11q28 16 76 96l344 572h40l92 -679h75zM469 266l-43 312l-178 -312h221zM751 1127q0 -32 -27 -51l-189 -133h-32l180 186q22 19 46 19 q22 0 22 -21zM484 739q-38 1 -60 21t-22 53q0 5 0.5 10.5t1.5 10.5q20 95 120 95q37 0 59 -24.5t22 -55.5q0 -24 -10 -44.5t-26.5 -35t-38.5 -22.5t-46 -8zM569 847q0 23 -14.5 37t-37.5 14q-15 0 -29.5 -6.5t-25.5 -17.5t-18 -25t-7 -29q0 -23 15.5 -37.5t37.5 -14.5 q32 0 55.5 23.5t23.5 55.5z" />
<glyph unicode="&#x1fb;" d="M411 79q-107 -91 -140 -91q-25 0 -25 32q0 25 6 52l26 116l-3 1q-78 -116 -145 -165q-53 -38 -76 -38q-33 0 -33 82q0 73 38 187q39 117 80 146q55 40 83 52t65 12q33 0 78 -19l32 18l10 -9l-89 -368q-8 -33 13 -33q15 0 34.5 15t38.5 31zM326 399q-54 18 -81 18 q-44 0 -66 -24q-16 -18 -36 -68q-52 -137 -52 -225q0 -46 18 -46q41 0 127 114q63 84 90 231zM292 526q-38 1 -60 21t-22 53q0 5 0.5 10.5t1.5 10.5q20 95 121 95q37 0 59 -24t22 -56q0 -49 -36 -80q-36 -32 -86 -30zM377 635q0 22 -14.5 36.5t-36.5 13.5q-15 0 -29.5 -6.5 t-26 -17.5t-18 -25t-6.5 -29q0 -22 15.5 -36.5t36.5 -14.5q33 0 56 23t23 56zM572 926q0 -32 -27 -51l-189 -133h-32l180 186q20 19 46 19q22 0 22 -21z" />
<glyph unicode="&#x1fc;" horiz-adv-x="1200" d="M1182 690l-41 -203h-30q3 28 3 46q0 50 -23 81q-31 41 -127 43l-172 2l-62 -290h119q45 0 71 26t42 92h35l-60 -278h-35q15 60 -4 93t-56 33h-119l-64 -304l188 3q27 0 71 15t67 34q71 56 97 157h32l-63 -240h-588l7 31h94l42 198h-255l-96 -105l-39 -42q-19 -24 -15 -43 q1 -8 18 -9q-5 1 4.5 1h34.5l-7 -31l-224 -1l7 31q17 2 37.5 6t43.5 11q11 7 31.5 26.5t51.5 51.5l499 533h-94l7 31zM682 589l-299 -323h231zM1055 904q0 -32 -27 -51l-189 -133h-32l180 186q20 19 46 19q22 0 22 -21z" />
<glyph unicode="&#x1fd;" horiz-adv-x="625" d="M618 390q0 -39 -31 -76q-27 -32 -67 -51q-72 -35 -167 -40q-13 -65 -13 -96q0 -42 21.5 -67t61.5 -25q32 0 70 22q2 1 18 11t45 29l20 13l6 -22q-31 -25 -53 -41.5t-36 -24.5q-56 -33 -105 -33q-92 0 -114 90q-90 -90 -163 -90q-96 0 -96 99q0 156 209 156h65q6 16 6 60 q0 54 -27 85.5t-79 31.5q-28 0 -52 -9q-5 -1 -10 -13l-20 -57l-17 5l-6 66l63 40q31 15 73 15q96 0 134 -92q110 92 178 92q38 0 62 -20t24 -58zM547 378q0 49 -54 49q-58 0 -98 -63q-36 -56 -39 -117q36 2 67 10t57 22q67 36 67 99zM288 221h-37q-165 0 -165 -123 q0 -63 68 -63q47 0 84 49q31 38 43 91q2 11 3.5 22t3.5 24zM604 682q0 -32 -27 -51l-189 -133h-32l180 186q20 19 46 19q22 0 22 -21z" />
<glyph unicode="&#x1fe;" horiz-adv-x="833" d="M521 764l-281 -863h-54l281 863h54zM628 339q-37 -169 -143 -264q-100 -91 -236 -91q-109 0 -173 78q-65 79 -65 200q0 20 2 40.5t6 42.5q30 164 143 265q106 96 240 96q115 0 178 -67t63 -184q0 -55 -15 -116zM517 341q18 85 18 150q0 184 -139 184q-195 0 -265 -330 q-10 -45 -14.5 -82.5t-4.5 -69.5q0 -175 146 -175q94 0 165 93q62 84 94 230zM619 925q0 -32 -27 -51l-189 -133h-32l180 186q20 19 46 19q22 0 22 -21z" />
<glyph unicode="&#x1ff;" horiz-adv-x="443" d="M418 188q0 -87 -58 -142q-58 -56 -141 -56q-52 0 -95 22l-38 -53q-24 19 -26 22q8 12 17 24t18 25q-74 57 -74 158q0 82 58 140t140 58q55 0 104 -29l28 41q24 -16 28 -19l-29 -42q68 -59 68 -149zM296 319q-31 37 -77 37q-52 0 -85 -50t-33 -118q0 -67 26 -113 q28 41 70 101.5t99 142.5zM337 188q0 56 -21 100l-168 -241q28 -27 71 -27q55 0 86.5 45t31.5 123zM457 685q0 -32 -27 -51l-189 -133h-32l180 186q20 19 46 19q22 0 22 -21z" />
<glyph unicode="&#x218;" horiz-adv-x="535" d="M435 655q-20 -62 -24 -131h-30v74q-34 43 -109 43q-65 0 -109 -40q-44 -41 -44 -103q0 -97 93 -116l63 -13q139 -28 139 -138q0 -106 -90 -178q-82 -67 -192 -67q-83 0 -147 36q8 38 13.5 75.5t9.5 72.5h29v-96q55 -42 136 -42q72 0 118 43q47 44 47 115q0 81 -79 100 l-92 22q-64 15 -91 51.5t-27 102.5q0 92 84 160q79 62 173 62q70 0 129 -33zM68 -287l-6 22q85 13 96 60q4 19 -13 19q-54 1 -54 44q0 31 21.5 52t53.5 21q54 0 54 -56q0 -12 -3 -25q-27 -126 -149 -137z" />
<glyph unicode="&#x219;" horiz-adv-x="377" d="M350 437q-7 -34 -12 -61t-7 -48h-22v53q-11 20 -40 33q-27 11 -51 11q-41 0 -69 -25q-31 -25 -31 -65q0 -34 23 -51q13 -9 53 -17l42 -8q103 -19 103 -92t-70 -125q-75 -57 -141 -57q-53 0 -104 27q15 62 21 128h24v-82q37 -34 90 -34q51 0 83 27.5t32 78.5 q0 31 -13.5 44t-44.5 19l-61 12q-94 18 -94 98q0 50 35 85q76 76 155 76q49 0 99 -27zM82 -250l-5 18q77 20 77 57q0 13 -17 15q-59 2 -59 53q0 23 16 36.5t39 13.5q30 0 46 -20.5t16 -50.5q0 -111 -113 -122z" />
<glyph unicode="&#x292;" horiz-adv-x="424" d="M418 459l-6 -31l-191 -218q6 0 21 2.5t21 2.5q65 0 99 -43q30 -41 30 -107q0 -60 -23 -127t-60 -113q-15 -19 -35 -35.5t-43 -28.5t-47 -18.5t-47 -6.5q-54 2 -94 31q-41 30 -35 70l47 33l9 -3q-6 -35 24 -65q28 -26 60 -30q5 -1 10 -1h10q47 0 77 34q37 40 56 117 q17 70 17 132q0 122 -90 124q-36 1 -89 -53l-7 26l219 253l-2 1q-34 -19 -87 -19q-31 0 -75 10q-47 11 -82 0l-29 -57h-20l31 119q30 10 60 10q22 0 77 -16q72 -20 129 -20q20 0 33 13l23 23z" />
<glyph unicode="&#x2c6;" horiz-adv-x="323" d="M315 530h-34l-80 101l-133 -101h-38l153 164h47z" />
<glyph unicode="&#x2c7;" horiz-adv-x="470" d="M416 692l-48 1l-141 -108l-82 107h-34l87 -164l49 1z" />
<glyph unicode="&#x2d8;" horiz-adv-x="360" d="M327 663q-10 -69 -47.5 -101.5t-112.5 -32.5q-48 2 -76 25q-32 26 -32 73q0 19 4 36q4 4 10 4t9 -4q1 -78 96 -80q85 0 130 80q4 4 10 4t9 -4z" />
<glyph unicode="&#x2d9;" horiz-adv-x="360" d="M230 582q-10 -49 -57 -49q-38 0 -38 34q0 25 17 42.5t41 17.5q20 0 30 -14t7 -31z" />
<glyph unicode="&#x2da;" horiz-adv-x="360" d="M157 530q-38 1 -60 21t-22 53q0 5 0.5 10.5t1.5 10.5q20 95 121 95q37 0 59 -24t22 -56q0 -49 -36 -80q-36 -32 -86 -30zM242 639q0 22 -14.5 36.5t-36.5 13.5q-15 0 -29.5 -6.5t-26 -17.5t-18 -25t-6.5 -29q0 -22 15.5 -36.5t36.5 -14.5q33 0 56 23t23 56z" />
<glyph unicode="&#x2db;" horiz-adv-x="360" d="M267 -173q-35 -48 -91 -48q-42 0 -64 25q-19 20 -19 53q0 75 109 163h38q-83 -78 -83 -136q0 -56 55 -56q26 0 46 15q9 -3 9 -16z" />
<glyph unicode="&#x2dc;" horiz-adv-x="323" d="M389 619q-37 -100 -119 -100q-22 0 -55 15l-34 15q-29 13 -42 13q-33 0 -61 -43h-28q45 95 110 95q25 0 58 -14l53 -23q16 -7 34 -4q23 3 57 46h27z" />
<glyph unicode="&#x2dd;" horiz-adv-x="360" d="M337 650q0 -18 -13 -34l-123 -158l-27 6l93 202q9 19 37 19q33 0 33 -35zM190 650q0 -18 -13 -34l-124 -156l-27 4l94 202q9 19 37 19q33 0 33 -35z" />
<glyph unicode="&#x300;" horiz-adv-x="200" d="M188 465h-25l-139 136q-12 12 -12 31q0 37 39 37q26 0 37 -21z" />
<glyph unicode="&#x301;" horiz-adv-x="190" d="M178 635q0 -21 -12 -34l-133 -136l-21 4l97 182q10 19 36 19q33 0 33 -35z" />
<glyph unicode="&#x303;" horiz-adv-x="363" d="M351 619q-37 -100 -119 -100q-22 0 -55 15l-34 15q-29 13 -42 13q-33 0 -61 -43h-28q45 95 110 95q25 0 58 -14l53 -23q16 -7 34 -4q23 3 57 46h27z" />
<glyph unicode="&#x308;" horiz-adv-x="317" d="M304 577q-4 -19 -22.5 -34t-36.5 -15q-19 0 -30.5 15t-7.5 34t21.5 33.5t36.5 14.5t31 -14.5t8 -33.5zM110 577q-4 -19 -22.5 -34t-36.5 -15q-19 0 -30.5 15t-7.5 34t21.5 33.5t36.5 14.5t31 -14.5t8 -33.5z" />
<glyph unicode="&#x309;" horiz-adv-x="165" d="M60 528l-10 -7q-20 7 -16 29q5 17 37 48q33 31 33 52q0 29 -36 25q-18 -3 -34 -23q-23 14 -21 16q10 20 36 34q22 13 48 13q56 0 56 -47q0 -10 -1 -15q-4 -23 -50 -61q-45 -37 -46 -46q-2 -10 4 -18z" />
<glyph unicode="&#x312;" horiz-adv-x="166" d="M154 705q-82 -14 -89 -52q-3 -14 14 -14q49 -1 49 -39q0 -28 -19.5 -46.5t-47.5 -18.5q-49 0 -49 51q0 9 3 21q22 110 138 121z" />
<glyph unicode="&#x313;" horiz-adv-x="173" d="M94 554q-14 -11 -34 -19t-37 -8l3 18q59 16 82 65q6 13 6 27q0 20 -14 26q-6 2 -9 2q-4 0 -17 -6.5t-30 -5.5q-32 2 -32 29q0 26 24 39.5t52 13.5q73 0 73 -63q0 -40 -19.5 -69t-47.5 -49z" />
<glyph unicode="&#x314;" horiz-adv-x="193" d="M142 736q39 -2 39 -34q0 -38 -44 -43q-15 -2 -28 3.5t-16 5.5q-6 0 -14 -5q-11 -6 -16 -16.5t-5.5 -23t4 -25t12.5 -22.5q18 -23 45 -27l-1 -18q-34 -3 -68 20q-21 14 -29.5 32.5t-8.5 41.5q0 26 10 47t27.5 35.5t41.5 22t51 6.5z" />
<glyph unicode="&#x323;" horiz-adv-x="130" d="M118 -165q0 -22 -15.5 -37.5t-37.5 -15.5t-37.5 15.5t-15.5 37.5t15.5 37.5t37.5 15.5q23 0 38 -15t15 -38z" />
<glyph unicode="&#x326;" horiz-adv-x="142" d="M17 -250l-5 18q77 20 77 57q0 13 -17 15q-59 2 -59 53q0 23 16 36.5t39 13.5q30 0 46 -20.5t16 -50.5q0 -111 -113 -122z" />
<glyph unicode="&#x327;" horiz-adv-x="229" d="M217 -128q0 -45 -42 -66q-32 -16 -82 -16q-30 0 -81 20l17 28q44 -14 68 -14q50 0 50 45q0 16 -13.5 26t-30.5 10q-7 0 -34 -6l-8 8l59 93h37l-43 -62q8 1 13.5 1.5t7.5 0.5q82 0 82 -68z" />
<glyph unicode="&#x328;" horiz-adv-x="198" d="M186 -173q-35 -48 -91 -48q-42 0 -64 25q-19 20 -19 53q0 75 109 163h38q-83 -78 -83 -136q0 -56 55 -56q26 0 46 15q9 -3 9 -16z" />
<glyph unicode="&#x342;" horiz-adv-x="381" d="M369 811q-2 -26 -20.5 -50t-46.5 -30q-15 -3 -37 -3q-16 0 -42.5 2.5t-63.5 7.5q-65 9 -81 6q-39 -7 -47 -33h-19q16 84 118 84q31 0 90 -9q29 -4 47.5 -6t26.5 -1q46 1 55 30z" />
<glyph unicode="&#x343;" horiz-adv-x="173" d="M94 554q-14 -11 -34 -19t-37 -8l3 18q59 16 82 65q6 13 6 27q0 20 -14 26q-6 2 -9 2q-4 0 -17 -6.5t-30 -5.5q-32 2 -32 29q0 26 24 39.5t52 13.5q73 0 73 -63q0 -40 -19.5 -69t-47.5 -49z" />
<glyph unicode="&#x345;" horiz-adv-x="140" d="M128 -202q-30 -37 -71 -37q-45 0 -45 45q0 11 3 28l17 82h70l-18 -84q-4 -22 3 -28q4 -6 11 -6q10 0 23 10z" />
<glyph unicode="&#x374;" horiz-adv-x="191" d="M179 635q0 -21 -13 -34l-133 -136l-21 4l97 182q10 19 37 19q33 0 33 -35z" />
<glyph unicode="&#x375;" horiz-adv-x="191" d="M12 -185q0 21 13 34l133 136l21 -4l-97 -182q-10 -19 -37 -19q-33 0 -33 35z" />
<glyph unicode="&#x37a;" horiz-adv-x="140" d="M128 -202q-30 -37 -71 -37q-45 0 -45 45q0 11 3 28l17 82h70l-18 -84q-4 -22 3 -28q4 -6 11 -6q10 0 23 10z" />
<glyph unicode="&#x37e;" horiz-adv-x="449" d="M270 338q-23 0 -37 14t-14 36q0 31 23.5 54t54.5 23q23 0 37.5 -14t14.5 -36q0 -15 -6.5 -29t-17.5 -24.5t-25.5 -17t-29.5 -6.5zM267 -35q-11 -22 -28 -42t-40 -38q-50 -39 -89 -39l6 24q62 18 100 83q11 20 11 35q0 5 -3 10q-20 -14 -31 -14q-23 0 -37.5 14t-14.5 36 q0 31 24 52.5t56 25.5q66 7 66 -69q0 -36 -20 -78z" />
<glyph unicode="&#x384;" horiz-adv-x="272" d="M260 684q0 -32 -27 -51l-189 -133h-32l180 186q20 19 46 19q22 0 22 -21z" />
<glyph unicode="&#x385;" horiz-adv-x="393" d="M324 540q-36 0 -36 37q0 21 17.5 38.5t38.5 17.5q37 0 37 -37q0 -21 -18 -38.5t-39 -17.5zM307 701q0 -26 -21 -44l-161 -136l-22 4l136 182q18 19 42 19q26 0 26 -25zM50 543q-16 0 -27 11t-11 27q0 21 18 38t39 17q16 0 27 -10.5t11 -26.5q0 -10 -5 -20t-13 -18 t-18.5 -13t-20.5 -5z" />
<glyph unicode="&#x386;" horiz-adv-x="742" d="M353 695q0 -26 -21 -44l-161 -136l-22 4l136 182q13 19 41 19q27 0 27 -25zM720 31l-7 -31h-260l7 31h87l-27 198h-249l-56 -91q-36 -59 -36 -86q0 -5 2 -11q4 -10 62 -10l-7 -31h-224l7 31q53 -2 74 11q28 16 76 96l344 572h40l92 -679h75zM515 266l-43 312l-178 -312 h221z" />
<glyph unicode="&#x387;" horiz-adv-x="337" d="M174 453q26 0 44.5 -18.5t18.5 -44.5t-18.5 -44.5t-44.5 -18.5q-27 0 -45.5 18t-18.5 45q0 26 18.5 44.5t45.5 18.5z" />
<glyph unicode="&#x388;" horiz-adv-x="865" d="M873 690l-40 -203h-30q3 28 3 46q0 50 -23 81q-31 41 -127 43l-172 2l-61 -290h123q44 0 68 25q29 29 44 93h31l-59 -278h-31q11 66 -5 93q-20 33 -56 33h-123l-64 -304l188 3q29 0 71 15q43 15 68 34q66 52 97 157h32l-64 -240h-593l6 31h94l134 628h-94l6 31h577z M216 695q0 -26 -21 -44l-161 -136l-22 4l136 182q18 19 42 19q26 0 26 -25z" />
<glyph unicode="&#x389;" horiz-adv-x="951" d="M989 690l-5 -31h-94l-134 -628h94l-7 -31h-288l7 31h94l66 315h-307l-67 -315h94l-7 -31h-283l7 31h93l134 628h-94l6 31h283l-5 -31h-94l-59 -278h307l59 278h-93l5 31h288zM216 695q0 -26 -21 -44l-161 -136l-22 4l136 182q18 19 42 19q26 0 26 -25z" />
<glyph unicode="&#x38a;" horiz-adv-x="538" d="M576 690l-6 -31h-94l-133 -628h93l-6 -31h-288l6 31h94l134 628h-94l6 31h288zM216 695q0 -26 -21 -44l-161 -136l-22 4l136 182q18 19 42 19q26 0 26 -25z" />
<glyph unicode="&#x38c;" horiz-adv-x="852" d="M776 269q-31 -129 -127 -216q-95 -86 -210 -86q-30 0 -58 6q-91 19 -156 103q-69 91 -69 214q0 26 3.5 52.5t10.5 54.5q36 147 116.5 222.5t198.5 75.5q17 0 35.5 -1.5t37.5 -5.5q115 -21 176 -106q57 -78 57 -194q0 -58 -15 -119zM216 696q0 -26 -22 -45l-161 -136 l-21 4l136 182q13 19 41 19q27 0 27 -24zM664 293q10 42 15 78.5t5 70.5q0 185 -134 211q-18 3 -35 3q-88 0 -154 -88q-55 -73 -84 -193q-22 -89 -22 -160q0 -174 135 -204q17 -4 37 -4q86 0 151 89q56 76 86 197z" />
<glyph unicode="&#x38e;" horiz-adv-x="814" d="M867 613q-17 -74 -80 -74q-44 0 -44 41q0 46 37 62q8 5 8 16q0 20 -24 20q-8 0 -18 -3q-79 -22 -152 -184q-20 -46 -38 -102.5t-32 -125.5l-49 -232h94l-7 -31h-286l7 31h94l49 232q14 66 21 116.5t7 86.5q0 74 -29 134q-39 79 -159 85l6 25q134 -1 195 -70 q61 -67 54 -239h3q14 51 36.5 98.5t51.5 92.5q74 108 146 117q6 1 12 1h11q88 0 88 -74q0 -5 -0.5 -11t-1.5 -12zM216 695q0 -26 -21 -44l-161 -136l-22 4l136 182q18 19 42 19q26 0 26 -25z" />
<glyph unicode="&#x38f;" horiz-adv-x="871" d="M843 403q-23 -143 -146 -235q-33 -25 -153 -71l-4 -14h156q39 0 51 22l15 42h26l-31 -147h-267l22 106q71 37 121 96q73 85 96 201q6 31 6 65q0 82 -38 138q-44 63 -126 66q-120 5 -196 -85q-62 -73 -83 -184q-11 -58 -11 -102q0 -151 108 -194l-23 -107h-264l31 147h27 q0 -6 -1.5 -18.5t-1.5 -17.5q0 -28 44 -28h149l7 15q-53 22 -114 84q-61 61 -61 174q0 11 1 23t3 24q19 138 120 219q106 87 272 81q127 -5 200 -79q69 -71 69 -174q0 -11 -1 -23t-3 -24zM216 695q0 -26 -21 -44l-161 -136l-22 4l136 182q18 19 42 19q26 0 26 -25z" />
<glyph unicode="&#x390;" horiz-adv-x="261" d="M324 540q-36 0 -36 37q0 21 17.5 38.5t38.5 17.5q37 0 37 -37q0 -21 -18 -38.5t-39 -17.5zM307 701q0 -26 -21 -44l-161 -136l-22 4l136 182q18 19 42 19q26 0 26 -25zM50 543q-16 0 -27 11t-11 27q0 21 18 38t39 17q16 0 27 -10.5t11 -26.5q0 -10 -5 -20t-13 -18 t-18.5 -13t-20.5 -5zM211 433q-3 -32 -59 -150q-64 -135 -78 -185q-9 -33 14 -44q7 -4 18 -4q24 0 48.5 22t38.5 62q26 -5 26 -60q0 -27 -9 -40q-37 -55 -90 -50q-81 7 -81 99q0 35 14 99q22 117 57 258q10 25 55 25q49 0 46 -32z" />
<glyph unicode="&#x391;" horiz-adv-x="696" d="M674 31l-7 -31h-260l7 31h87l-27 198h-249l-56 -91q-36 -59 -36 -86q0 -5 2 -11q4 -10 62 -10l-7 -31h-224l7 31q53 -2 74 11q28 16 76 96l344 572h40l92 -679h75zM469 266l-43 312l-178 -312h221z" />
<glyph unicode="&#x392;" horiz-adv-x="744" d="M694 519q-13 -65 -76 -112q-56 -42 -127 -53q60 -2 106 -33q60 -39 60 -108q0 -17 -5 -39q-39 -174 -286 -174h-358l7 31h94l134 628h-94l6 31h360q85 0 134 -36t49 -99q0 -19 -4 -36zM584 520q5 28 5 47q0 92 -98 92h-148l-63 -293h132q48 0 94 32q61 40 78 122z M532 176q5 25 5 43q0 63 -46 94q-35 23 -85 23h-132l-64 -305h140q59 0 103 26q62 36 79 119z" />
<glyph unicode="&#x393;" horiz-adv-x="665" d="M709 690l-40 -203h-30q3 28 3 46q0 50 -23 81q-31 41 -127 43l-149 2l-134 -628h94l-7 -31h-288l7 31h94l134 628h-94l6 31h554z" />
<glyph unicode="&#x394;" horiz-adv-x="623" d="M555 0h-557l424 709h40zM448 81l-62 487l-293 -487h355z" />
<glyph unicode="&#x395;" horiz-adv-x="721" d="M729 690l-40 -203h-30q3 28 3 46q0 50 -23 81q-31 41 -127 43l-172 2l-61 -290h123q44 0 68 25q29 29 44 93h31l-59 -278h-31q11 66 -5 93q-20 33 -56 33h-123l-64 -304l188 3q29 0 71 15q43 15 68 34q66 52 97 157h32l-64 -240h-593l6 31h94l134 628h-94l6 31h577z" />
<glyph unicode="&#x396;" horiz-adv-x="662" d="M698 690l-546 -659l218 3q29 0 71 15t67 34q64 49 93 157h37l-64 -240h-573l544 659l-175 -2q-107 -2 -147 -40q-34 -31 -51 -70q-4 -8 -8.5 -23t-10.5 -37h-31l46 204z" />
<glyph unicode="&#x397;" horiz-adv-x="807" d="M845 690l-5 -31h-94l-134 -628h94l-7 -31h-288l7 31h94l66 315h-307l-67 -315h94l-7 -31h-283l7 31h93l134 628h-94l6 31h283l-5 -31h-94l-59 -278h307l59 278h-93l5 31h288z" />
<glyph unicode="&#x398;" horiz-adv-x="731" d="M702 324q-41 -155 -137 -245q-105 -98 -247 -94q-112 5 -182 82t-70 203q0 48 12 101q36 162 144 252q101 85 236 79q118 -5 189 -78q70 -71 70 -190q0 -52 -15 -110zM585 325q29 95 29 166q0 174 -159 180q-96 4 -176 -106q-73 -98 -95 -225q-12 -63 -12 -116 q0 -200 156 -204q88 -3 163 104q28 40 51.5 90t42.5 111zM520 472l-49 -216h-27l14 68h-148l-15 -68h-31l46 216h31l-14 -66h149l13 66h31z" />
<glyph unicode="&#x399;" horiz-adv-x="404" d="M442 690l-6 -31h-94l-133 -628h93l-6 -31h-288l6 31h94l134 628h-94l6 31h288z" />
<glyph unicode="&#x39a;" horiz-adv-x="783" d="M813 690l-6 -31q-48 0 -91 -24q-36 -20 -99 -77q-15 -14 -47.5 -43.5t-83.5 -75.5l144 -352q5 -15 11.5 -30.5t21.5 -21.5q9 -4 77 -4l-7 -31h-297l6 31q44 0 61 6q4 2 7.5 4.5t5.5 6.5q11 15 0 41l-110 280q-40 -37 -80 -73.5t-80 -73.5l-41 -191h93l-6 -31h-284l7 31 h94l133 628h-93l5 31h285l-6 -31h-93l-79 -370l332 298q29 26 29 44q0 9 -4 16q-6 15 -61 12l5 31h251z" />
<glyph unicode="&#x39b;" horiz-adv-x="774" d="M706 31l-7 -31h-260l7 31h87l-75 547l-257 -440q-36 -62 -36 -87q0 -4 2 -10q4 -10 62 -10l-7 -31h-224l7 31q53 -2 74 11q28 16 76 96l344 572h40l92 -679h75z" />
<glyph unicode="&#x39c;" horiz-adv-x="923" d="M955 690l-5 -31h-94l-134 -628h94l-7 -31h-288l7 31h94l125 591l-373 -611l-11 -1l-92 608l-106 -500q-10 -52 9 -77q7 -10 66 -10l-7 -31h-225l7 31q55 0 67 9q34 25 45 78l110 519q3 22 -24 22h-56l5 31h198l72 -516l313 516h210z" />
<glyph unicode="&#x39d;" horiz-adv-x="784" d="M816 690l-6 -31q-59 0 -70 -10q-32 -26 -43 -76l-128 -590h-23l-274 654l-110 -519q-10 -52 10 -77q7 -10 66 -10l-7 -31h-222l7 31q56 0 68 9q32 23 44 78l110 519q4 22 -24 22h-56l6 31h197l215 -515l84 398q3 16 3 30q0 30 -15 47q-8 9 -64 9l6 31h226z" />
<glyph unicode="&#x39e;" horiz-adv-x="715" d="M730 690l-32 -162h-27q9 38 2 61q-3 17 -47 17h-366q-42 0 -52 -15q-20 -32 -24 -63h-29l36 162h539zM578 465l-52 -242h-28l16 74q1 9 -9 9h-257q-8 0 -12 -9l-16 -74h-27l53 242h27l-14 -63q-1 -10 7 -10h257q10 -1 14 9l14 64h27zM643 187l-40 -187h-585l40 187h28 q-8 -32 -8 -54q0 -17 4 -26q7 -19 40 -19h409q36 0 53 21q20 26 32 78h27z" />
<glyph unicode="&#x39f;" horiz-adv-x="734" d="M658 285q-33 -131 -128 -217q-94 -85 -210 -85q-29 0 -57 6q-92 20 -156 103q-69 91 -69 214q0 26 3.5 52.5t10.5 54.5q36 147 116.5 222.5t198.5 75.5q17 0 35.5 -1.5t37.5 -5.5q115 -21 176 -106q57 -78 57 -194q0 -58 -15 -119zM546 309q20 83 20 149q0 185 -134 211 q-18 3 -35 3q-88 0 -154 -88q-55 -73 -84 -193q-22 -89 -22 -160q0 -174 135 -204q17 -4 37 -4q85 0 151 89q54 73 86 197z" />
<glyph unicode="&#x3a0;" horiz-adv-x="790" d="M828 690l-6 -31h-93l-133 -628h92l-7 -31h-286l6 31h94l132 618h-290l-131 -618h93l-7 -31h-284l7 31h94l134 628h-94l6 31h673z" />
<glyph unicode="&#x3a1;" horiz-adv-x="663" d="M683 495q-23 -111 -114 -157q-77 -39 -216 -39h-86l-57 -268h94l-7 -31h-288l7 31h93l134 628h-94l6 31h313q108 0 165 -42q54 -41 54 -112q0 -21 -4 -41zM576 495q5 28 5 49q0 115 -131 115h-106l-71 -332h87q81 0 137 39q64 43 79 129z" />
<glyph unicode="&#x3a3;" horiz-adv-x="723" d="M721 690l-31 -203h-30q0 102 -28 131q-39 41 -127 41h-211l179 -288l-326 -293h242q102 0 149 33t82 129h34l-65 -240h-587l366 329l-216 361h569z" />
<glyph unicode="&#x3a4;" horiz-adv-x="677" d="M735 690l-40 -203h-30q3 30 3 44q0 51 -24 83q-28 38 -127 43l-44 2l-134 -628h94l-7 -31h-288l7 31h94l133 628l-47 -2q-92 -5 -138 -43q-49 -42 -73 -127h-30l45 203h606z" />
<glyph unicode="&#x3a5;" horiz-adv-x="644" d="M697 613q-17 -74 -80 -74q-44 0 -44 41q0 46 37 62q8 5 8 16q0 20 -24 20q-8 0 -18 -3q-79 -22 -152 -184q-20 -46 -38 -102.5t-32 -125.5l-49 -232h94l-7 -31h-286l7 31h94l49 232q14 66 21 116.5t7 86.5q0 74 -29 134q-39 79 -159 85l6 25q134 -1 195 -70 q61 -67 54 -239h3q14 51 36.5 98.5t51.5 92.5q74 108 146 117q6 1 12 1h11q88 0 88 -74q0 -5 -0.5 -11t-1.5 -12z" />
<glyph unicode="&#x3a6;" horiz-adv-x="753" d="M734 361q-18 -138 -113 -200q-76 -49 -225 -59l-15 -71h94l-7 -31h-285l7 31h94l15 71q-99 5 -160 49q-73 52 -73 148q0 31 9 69q24 101 110 164q90 66 218 66l15 61h-94l6 31h284l-6 -31h-93l-14 -60q95 4 165 -56t70 -153q0 -7 -0.5 -14t-1.5 -15zM631 360 q4 17 5.5 33.5t1.5 31.5q0 135 -143 146l-93 -440q184 12 229 229zM397 570q-180 -8 -225 -208q-10 -43 -10 -82q0 -149 142 -149z" />
<glyph unicode="&#x3a7;" horiz-adv-x="766" d="M818 690l-5 -31q-34 0 -83 -25q-31 -16 -77 -60l-190 -193l185 -350h71l-7 -31h-268l6 31h83l-142 276q0 1 -199 -202q-34 -31 -34 -49q0 -5 4 -9q14 -14 29 -15q2 -1 34 -1l-7 -31h-238l3 34q55 0 87 16q29 14 79 60l224 228l-160 321h-81l5 31h268l-6 -31h-75 q32 -61 62.5 -122t61.5 -122l165 167q32 32 32 49q0 4 -3 9q-15 19 -64 19l6 31h234z" />
<glyph unicode="&#x3a8;" horiz-adv-x="859" d="M837 534q-22 0 -35.5 13.5t-9.5 35.5q7 22 13 31q13 21 37 31q2 8 2 12q0 19 -22 16q-69 -9 -92 -110q-29 -133 -54 -188q-24 -52 -72 -85q-65 -44 -157 -39l-47 -220h94l-7 -31h-280l7 31h94l47 222q-33 -5 -81 0q-51 4 -75 17q-74 41 -74 130q0 17 3 46q2 20 8.5 48.5 t17.5 64.5q9 28 9 50q0 68 -75 61l5 26q10 1 19.5 1.5t17.5 0.5q123 0 123 -94q0 -10 -1.5 -21t-3.5 -23q-34 -157 -34 -192q0 -20 4 -29q21 -58 142 -57l82 377h-94l6 31h280l-6 -31h-94l-80 -376q131 -5 184 100q29 58 55 191q7 44 41 82q38 45 90 47q41 2 65 -21 q21 -20 21 -54t-19 -62q-23 -32 -54 -32z" />
<glyph unicode="&#x3a9;" horiz-adv-x="809" d="M773 403q-23 -143 -146 -235q-33 -25 -153 -71l-4 -14h156q39 0 51 22l15 42h26l-31 -147h-267l22 106q71 37 121 96q73 85 96 201q6 31 6 65q0 82 -38 138q-44 63 -126 66q-120 5 -196 -85q-62 -73 -83 -184q-11 -58 -11 -102q0 -151 108 -194l-23 -107h-264l31 147h27 q0 -6 -1.5 -18.5t-1.5 -17.5q0 -28 44 -28h149l7 15q-53 22 -114 84q-61 61 -61 174q0 11 1 23t3 24q19 138 120 219q106 87 272 81q127 -5 200 -79q69 -71 69 -174q0 -11 -1 -23t-3 -24z" />
<glyph unicode="&#x3aa;" horiz-adv-x="426" d="M464 786q0 -18 -14 -32.5t-32 -14.5q-19 0 -32.5 14.5t-13.5 32.5q0 19 13.5 32.5t32.5 13.5q18 0 32 -13.5t14 -32.5zM276 786q0 -18 -14 -32.5t-32 -14.5q-19 0 -32.5 14.5t-13.5 32.5q0 19 13.5 32.5t32.5 13.5q18 0 32 -13.5t14 -32.5zM442 690l-6 -31h-94l-133 -628 h93l-6 -31h-288l6 31h94l134 628h-94l6 31h288z" />
<glyph unicode="&#x3ab;" horiz-adv-x="644" d="M697 613q-17 -74 -80 -74q-44 0 -44 41q0 46 37 62q8 5 8 16q0 20 -24 20q-8 0 -18 -3q-79 -22 -152 -184q-20 -46 -38 -102.5t-32 -125.5l-49 -232h94l-7 -31h-286l7 31h94l49 232q27 130 27 203q0 77 -28 134q-40 79 -159 85l6 25q134 -1 195 -70q61 -67 54 -239h3 q14 51 36.5 98.5t51.5 92.5q74 108 146 117q6 1 12 1h11q88 0 88 -74q0 -5 -0.5 -11t-1.5 -12zM568 799q0 -18 -13.5 -32.5t-32.5 -14.5q-18 0 -32 14t-14 33t14 32.5t32 13.5q19 0 32.5 -14t13.5 -32zM350 799q0 -18 -13.5 -32.5t-32.5 -14.5q-18 0 -32 14t-14 33t14 32.5 t32 13.5q19 0 32.5 -14t13.5 -32z" />
<glyph unicode="&#x3ac;" horiz-adv-x="649" d="M543 715q0 -26 -21 -44l-161 -136l-22 4l136 182q18 19 43 19t25 -25zM648 454l-191 -280q4 -73 55 -99q7 -4 16 -4q33 0 70 43q3 -36 -24 -80q-30 -50 -72 -50q-39 0 -55 51q-10 31 -13 110q-102 -161 -248 -161q-54 0 -97 37q-51 43 -51 120q0 58 28 124q34 84 96 138 q77 68 171 62q79 -4 102 -74q11 -34 2 -106l101 169q113 -2 110 0zM410 249q9 69 -7 104q-19 46 -80 46q-47 0 -83 -30q-57 -49 -94 -128q-13 -27 -20.5 -57t-11.5 -62q-2 -22 1.5 -41.5t11.5 -34t19.5 -23t26.5 -8.5q99 0 195 163z" />
<glyph unicode="&#x3ad;" horiz-adv-x="478" d="M502 705q0 -26 -21 -44l-161 -136l-22 4l136 182q18 19 42 19q26 0 26 -25zM476 409q-3 -17 -25 -42q-23 -26 -33 -20q-63 31 -120 32q-144 4 -165 -66q-2 -8 -2 -13q0 -40 45 -44q22 7 44 13.5t52 4.5q46 -3 46 -30q0 -6 -1 -9q-5 -19 -27 -29q-10 -5 -19.5 -7.5 t-20.5 -3.5q-38 -2 -80 21q-20 1 -51 -22q-28 -22 -33 -43q-1 -5 -1.5 -9t-0.5 -8q0 -70 131 -65q128 5 219 59q-3 -48 -86 -105q-56 -38 -155 -41q-163 3 -163 112q0 19 6 42q19 70 101 103q-49 22 -49 74q0 5 0.5 11t1.5 11q13 60 68 95t140 35q54 0 113 -14 q69 -17 65 -42z" />
<glyph unicode="&#x3ae;" horiz-adv-x="528" d="M477 715q0 -26 -21 -44l-162 -136l-21 4l136 182q13 19 41 19q27 0 27 -25zM459 194q-21 -65 -34.5 -109t-20.5 -69q-24 -95 -24 -161q0 -31 4 -54q3 -16 -14 -27.5t-38 -11.5q-46 0 -46 44q0 78 61 228q17 42 33 84.5t33 87.5q34 89 34 133q0 56 -50 58q-63 2 -113 -74 q-16 -23 -35 -64t-42 -100l-63 -159h-89q14 29 37 83t55 133q14 67 14 96q0 58 -53 53q-10 -1 -21.5 -10.5t-17.5 -7.5q-25 7 -25 38q0 14 6 31q18 49 69 49q69 0 69 -103q0 -35 -9 -98q82 201 215 201q98 0 98 -107q0 -64 -33 -164z" />
<glyph unicode="&#x3af;" horiz-adv-x="265" d="M385 705q0 -26 -21 -44l-162 -136l-21 4l136 182q13 19 41 19q27 0 27 -25zM220 433q-3 -33 -60 -150q-63 -131 -78 -185q-9 -33 14 -44q7 -4 19 -4q24 0 48 22t38 62q27 -5 27 -59q0 -28 -10 -41q-37 -55 -90 -50q-80 8 -80 97q0 36 14 101q22 117 57 258q10 25 55 25 q49 0 46 -32z" />
<glyph unicode="&#x3b0;" horiz-adv-x="583" d="M554 602q-4 -19 -21 -33t-35 -14q-37 0 -37 37q0 21 17.5 38.5t38.5 17.5q18 0 29.5 -14t7.5 -32zM475 712q0 -25 -21 -43l-161 -136l-22 3l136 182q15 20 41 20q27 0 27 -26zM230 555q-37 0 -37 37q0 22 17.5 39t39.5 17q16 0 26.5 -10.5t10.5 -25.5q0 -21 -18 -39 t-39 -18zM530 221q-27 -108 -109 -172q-83 -65 -185 -65q-73 0 -125 46q-57 49 -57 124q0 10 1 20t3 20q5 25 14.5 51.5t23.5 55.5q22 43 20 74q-1 13 -16 23t-12 28q3 10 33 23q30 15 50 15q42 0 42 -53q0 -48 -49 -153q-33 -71 -33 -127q0 -47 25 -79q28 -37 72 -37 q23 0 48.5 11.5t50 32.5t47.5 51t41 68q34 72 34 142q0 79 -42 127q-4 4 -4 9q0 14 18 14q46 0 84 -75q33 -65 33 -115q0 -27 -8 -59z" />
<glyph unicode="&#x3b1;" horiz-adv-x="649" d="M648 454l-191 -280q4 -73 55 -99q7 -4 16 -4q33 0 70 43q3 -36 -24 -80q-32 -50 -72 -50t-55 51q-10 31 -13 110q-102 -161 -248 -161q-54 0 -97 37q-51 43 -51 120q0 58 28 124q34 83 95 138q77 68 172 62q79 -4 102 -74q11 -34 2 -106l101 169q111 -1 110 0zM410 249 q9 69 -7 104q-19 46 -81 46q-46 0 -82 -30q-56 -47 -94 -128q-13 -27 -20.5 -57t-11.5 -62q-5 -44 12 -75.5t47 -31.5q99 0 195 163z" />
<glyph unicode="&#x3b2;" horiz-adv-x="564" d="M553 557q-22 -107 -106 -159q39 -20 61.5 -60t22.5 -89q0 -32 -10 -62q-68 -203 -265 -203q-91 0 -150 107q-9 -53 -21 -139q-4 -51 -5.5 -91t-1.5 -69q-11 -16 -52 -14q-40 1 -40 33q0 21 23 102q8 25 15.5 50t15.5 51q2 7 14 61.5t35 157.5q7 44 14 87t15 88 q26 141 60 187q43 57 91 83q49 25 130 25q63 0 106 -25q51 -32 51 -90q0 -15 -3 -31zM486 557q7 20 7 40q0 37 -23 58q-26 23 -71 18q-139 -16 -220 -273q-39 -125 -66 -273q46 -90 126 -90q87 0 161 96q52 67 52 149q0 65 -33 101q-56 -33 -125 -33q-19 0 -28 16 q-8 14 -5 28q12 51 50 51q10 0 17 -0.5t12 -1.5q8 -2 13.5 -3t8.5 -2q33 9 64 34q42 35 60 85z" />
<glyph unicode="&#x3b3;" horiz-adv-x="557" d="M573 389q-20 -8 -39 -15l-38 -14q-48 -22 -103 -80q-88 -94 -130 -222q-10 -29 -16 -61.5t-10 -68.5q-2 -25 -4 -49.5t-4 -49.5q-6 -46 -27 -59q-16 -11 -44 -8q-35 3 -35 29q0 19 13 48q25 58 40.5 96t20.5 56q26 81 26 160q0 92 -24 154q-30 74 -87 74q-28 0 -45 -8 t-34 -17q-1 39 24 70q31 36 84 41q122 9 122 -221q0 -53 -6 -131q36 121 111 228q96 138 189 123q24 -5 24 -50q0 -20 -8 -25z" />
<glyph unicode="&#x3b4;" horiz-adv-x="556" d="M561 570q0 -10 -4 -20.5t-11.5 -20t-17.5 -17t-21 -10.5q-17 16 -45.5 40l-66.5 56q-98 74 -151 74q-17 0 -28.5 -9.5t-11.5 -23.5q0 -22 26 -48q8 -8 71 -54q37 -27 62 -46t38 -30q20 -17 40.5 -38.5t40.5 -46.5q41 -50 41 -134q0 -27 -6 -45q-36 -113 -123 -168 q-76 -49 -169 -45q-75 3 -128 54q-55 54 -55 136q0 37 12 76q26 82 96 128q64 42 144 42q40 0 76 -12q-14 16 -36 35t-51 42q-38 30 -59.5 46.5t-25.5 20.5q-31 28 -31 63q0 39 35 71q28 25 77 25q64 0 143 -41q19 -10 39.5 -22.5t43.5 -28.5q54 -37 56 -49zM414 186 q21 52 21 97q0 58 -32 93q-24 10 -55 10q-67 0 -126 -44q-66 -49 -85 -129q-12 -50 -12 -86q0 -83 64 -108q15 -5 30 -5q50 0 104 45q60 51 91 127z" />
<glyph unicode="&#x3b5;" horiz-adv-x="479" d="M476 409q-3 -17 -25 -42q-23 -26 -33 -20q-63 31 -120 32q-144 4 -165 -66q-2 -8 -2 -13q0 -40 45 -44q22 7 44 13.5t52 4.5q46 -3 46 -30q0 -6 -1 -9q-5 -19 -27 -29q-10 -5 -19.5 -7.5t-20.5 -3.5q-38 -2 -80 21q-20 1 -50 -22q-29 -23 -34 -43q-1 -5 -1.5 -9t-0.5 -8 q0 -70 131 -65q128 5 219 59q-3 -48 -86 -105q-56 -38 -155 -41q-163 3 -163 112q0 19 6 42q19 70 101 103q-49 22 -49 74q0 5 0.5 11t1.5 11q13 60 68 95t140 35q54 0 113 -14q69 -17 65 -42z" />
<glyph unicode="&#x3b6;" horiz-adv-x="437" d="M530 651q-4 -20 -53 -49l-24 -12t-25 -13q-153 -88 -223 -174q-69 -84 -95 -219q-1 -5 -1.5 -9t-0.5 -9q0 -29 14 -55q15 -28 40.5 -36t58.5 -8q6 0 14.5 0.5t17.5 0.5t17.5 0.5t13.5 0.5q43 0 72 -17q30 -17 30 -77q0 -44 -24 -84q-61 -102 -160 -125q-14 -3 -27 -3 q-62 0 -54 53q5 32 47 39q11 2 37 -6q27 -9 41 -8q28 1 52 19q32 22 34 65q1 55 -63 57h-36t-37 1q-25 1 -42.5 2.5t-28.5 5.5q-85 28 -85 129q0 46 16 101q24 82 108 190q34 45 69.5 83t73.5 71q-31 -7 -65 -7q-8 0 -16 0.5t-15 1.5q-79 12 -79 85q0 47 53 68q22 9 49 -8 q6 -5 6 -11q0 -3 -2 -10t-5 -15t-5 -16t-2 -13q0 -38 57 -48q31 -6 58 6q65 59 79 70q40 31 68 31q9 0 17.5 -5t14.5 -12t9 -15.5t1 -15.5z" />
<glyph unicode="&#x3b7;" horiz-adv-x="528" d="M459 194q-21 -65 -34.5 -109t-20.5 -69q-24 -95 -24 -161q0 -31 4 -54q3 -16 -14 -27.5t-38 -11.5q-46 0 -46 44q0 78 61 228q17 42 33 84.5t33 87.5q34 89 34 133q0 56 -50 58q-63 2 -113 -74q-16 -23 -35 -64t-42 -100l-63 -159h-89q14 29 37 83t55 133q14 67 14 96 q0 58 -53 53q-10 -1 -21.5 -10.5t-17.5 -7.5q-25 7 -25 38q0 14 6 31q18 49 69 49q69 0 69 -103q0 -35 -9 -98q82 201 215 201q98 0 98 -107q0 -64 -33 -164z" />
<glyph unicode="&#x3b8;" horiz-adv-x="507" d="M497 390q-25 -153 -91 -266q-83 -140 -198 -140q-151 0 -151 200q0 88 32 210q33 120 92 204q78 108 180 108q75 0 113 -72q30 -60 30 -155q0 -23 -1.5 -45t-5.5 -44zM406 411q18 120 18 165q0 107 -69 107q-50 0 -98 -86q-20 -35 -37.5 -81t-32.5 -103q217 0 219 -2z M400 377h-224l-5 -17.5t-7 -26.5q-31 -146 -31 -208q0 -117 79 -117q54 0 110 116q22 46 38.5 98t29.5 111q2 8 4 19t6 25z" />
<glyph unicode="&#x3b9;" horiz-adv-x="256" d="M220 433q-3 -33 -60 -150q-63 -131 -78 -185q-9 -33 14 -44q7 -4 19 -4q24 0 48 22t38 62q27 -5 27 -59q0 -28 -10 -41q-37 -55 -90 -50q-80 8 -80 97q0 36 14 101q22 117 57 258q10 25 55 25q49 0 46 -32z" />
<glyph unicode="&#x3ba;" horiz-adv-x="551" d="M380 254q-7 -41 -10 -69.5t-3 -45.5q0 -56 30 -65q11 -3 31 11q21 15 36 11q19 -5 29 -32q9 -24 6 -34q-5 -11 -15 -20t-23 -16t-28 -10.5t-30 -3.5q-78 0 -78 107q0 62 25 147q-34 -28 -79 -66.5t-102 -89.5q-8 -16 -19 -31t-25 -29q-34 -34 -65 -34q-36 0 -36 42 q0 31 59 78q22 15 43 30t43 31q26 81 26 132q0 59 -32 70q-11 3 -18 3q-9 0 -19.5 -6t-16.5 -6q-22 0 -22 30q0 14 7 25q32 50 75 50q72 0 72 -94q0 -60 -37 -177q35 29 82 70t106 95q12 31 48 66q43 42 77 42q32 0 32 -36q0 -41 -67 -99q-26 -19 -51 -38t-51 -38z" />
<glyph unicode="&#x3bb;" horiz-adv-x="524" d="M504 62q6 -15 -16 -45q-23 -33 -52 -33q-74 0 -74 120v23q1 7 1 10v4t4 68t12 202l-267 -411h-110l373 509q3 60 -21.5 92t-69.5 26q-69 -9 -89 3q-11 8 -11 26q0 26 28 41q23 13 51 13q70 0 103 -40q26 -33 38 -101q2 -15 4 -61t3 -124q2 -84 2.5 -129t1.5 -52 q6 -75 32 -104q7 -8 32 -19q20 -9 25 -18z" />
<glyph unicode="&#x3bc;" horiz-adv-x="594" d="M559 114q2 -37 -25 -80q-30 -50 -71 -50q-65 0 -65 90v10t1 10q-86 -110 -170 -110q-54 0 -88 35t-40 90q-39 -117 -39 -173q0 -18 3 -34q5 -19 18 -46q14 -29 16 -49q1 -45 -38 -45q-10 0 -20 3q-42 10 -42 61q0 26 10 73q11 50 51 182q17 53 28.5 108t18.5 115 q12 105 38 139q16 22 54 22q34 0 34 -27q0 -16 -14 -52q-23 -54 -44.5 -106.5t-29.5 -100.5q-4 -21 -5.5 -36.5t-1.5 -26.5q0 -72 59 -78q85 -9 153 92q25 38 44 84t32 101q5 25 11 49t11 48q18 53 49 53q43 0 43 -29q0 -10 -6 -38q-17 -75 -44.5 -142t-65.5 -127 q1 -57 37 -65q19 -4 47 9.5t51 40.5z" />
<glyph unicode="&#x3bd;" horiz-adv-x="488" d="M439 285q-65 -188 -319 -311h-19q20 54 30 102.5t11 94.5q0 17 -2 37.5t-6 45.5q-10 58 -27 82q-35 52 -35 84q0 12 4 19q16 33 43 30q78 -8 78 -167q0 -148 -30 -230q97 64 172 184q88 139 85 245q34 -31 34 -104q0 -58 -19 -112z" />
<glyph unicode="&#x3be;" horiz-adv-x="477" d="M564 659q-23 -78 -248 -86q-101 -56 -129 -150q-3 -11 -3 -24q0 -36 22 -55q91 54 174 54q66 0 66 -32q0 -3 -0.5 -6t-1.5 -7q-11 -32 -56 -48q-42 -14 -96 -14q-55 0 -85 13q-42 -25 -72 -67t-34 -87q-5 -41 30 -63q27 -18 67 -21q8 -1 23 -0.5t37 2.5q51 3 71 3 q30 0 50 -5q24 -8 42 -30q20 -28 20 -63q0 -34 -20 -72q-66 -120 -189 -135q-4 -1 -8 -1h-8q-54 0 -48 51q3 20 21 32.5t35 10.5q22 -7 68 -18q22 -2 50 14q30 15 39 36q12 27 12 46q0 33 -47 47q-10 2 -24 2q-10 0 -26 -1t-39 -3t-37.5 -3t-20.5 -1q-83 2 -124 41 q-37 34 -37 92q0 21 4 38q18 84 133 176q-53 30 -53 78q0 85 148 176q-49 -4 -90 16q-39 19 -39 55q0 45 59 68q9 4 29 2q19 -1 26 -6t7 -12q0 -5 -8 -26q-8 -19 -8 -29q0 -19 8 -29q10 -11 45 -13q140 99 209 98q58 -1 58 -33q0 -3 -2 -11z" />
<glyph unicode="&#x3bf;" horiz-adv-x="569" d="M529 226q-21 -99 -105 -172q-82 -73 -172 -73q-91 0 -149 60q-53 56 -53 134q0 25 6 48q27 112 102 178q72 63 170 69q97 6 150 -34q59 -44 59 -135q0 -32 -8 -75zM407 162q44 82 44 162q0 91 -60 108q-15 4 -32 4q-107 0 -191 -166q-36 -71 -36 -138q0 -95 68 -116 q12 -4 27 -4q48 0 95.5 40.5t84.5 109.5z" />
<glyph unicode="&#x3c0;" horiz-adv-x="658" d="M656 454l-26 -87h-149q-11 -37 -21.5 -84.5t-18.5 -105.5q-1 -5 -1.5 -11t-0.5 -11q0 -30 13 -50q16 -24 43 -24q47 0 85 45q4 -33 -34 -87q-40 -55 -80 -55q-83 0 -83 100q0 11 1 22.5t3 24.5q17 106 54 236h-161q-9 -43 -23 -99t-33 -125q-33 -89 -48 -114 q-26 -45 -63 -45q-17 0 -33 18q-16 17 -16 30q0 15 32 45q45 43 76 91q48 75 72 200h-46q-50 0 -84 -21q-8 -5 -57 -45l-9 16q12 36 51 74q35 34 59 45q36 17 80 17h418z" />
<glyph unicode="&#x3c1;" horiz-adv-x="580" d="M537 208q-26 -104 -105 -165q-80 -60 -183 -59q-61 2 -106 38q-51 42 -63 112q-4 -28 -6 -54t-2 -49q0 -69 18 -120q11 -29 34 -64q18 -29 18 -41q0 -5 -2 -13q-11 -30 -51 -30q-7 0 -17 2q-48 13 -48 137q0 130 39 279q76 291 288 291q74 0 130 -44q65 -53 65 -147 q0 -34 -9 -73zM420 159q46 85 46 171q0 89 -59 104q-13 4 -30 4q-57 0 -112 -52q-48 -45 -86 -119q-30 -60 -30 -128q0 -100 68 -118q15 -4 31 -4q96 0 172 142z" />
<glyph unicode="&#x3c2;" horiz-adv-x="506" d="M477 465q19 0 19 -26q0 -23 -14 -46t-30 -22q-139 6 -238 -38q-51 -22 -89 -72q-40 -52 -40 -106q0 -36 26 -57.5t63 -25.5q22 -1 43 -1t43 -1q58 -3 93 -23.5t35 -76.5q0 -33 -15 -72q-19 -48 -63.5 -84t-98.5 -48q-14 -3 -27 -3q-62 0 -54 53q5 32 47 39q11 2 37 -6 q27 -9 42 -8q26 1 52 19q31 22 33 65q1 27 -16.5 43.5t-46.5 17.5q-32 1 -49.5 1.5t-22.5 0.5q-51 3 -70 10q-92 32 -92 119q0 11 1.5 23.5t3.5 28.5q19 137 143 229q89 67 285 67z" />
<glyph unicode="&#x3c3;" horiz-adv-x="595" d="M601 454q6 -8 6 -22q0 -36 -24 -55h-160q40 -10 67 -52q27 -41 27 -90q0 -23 -6 -42q-30 -99 -117 -158q-75 -51 -154 -51q-84 0 -135 54q-51 55 -51 137q0 27 6 56q25 115 115 172q79 51 201 51h225zM401 162q34 67 34 127q0 75 -51 92q-80 1 -117 -14q-50 -21 -96 -94 q-40 -61 -40 -131q0 -46 18 -79t46 -42q17 -5 31 -5q100 0 175 146z" />
<glyph unicode="&#x3c4;" horiz-adv-x="484" d="M499 454l-24 -85h-179q-20 -58 -34 -106.5t-22 -86.5q-3 -17 -3 -31q0 -56 41 -62q51 -7 101 43q3 -34 -37 -86q-40 -54 -78 -56q-89 -3 -89 92q0 12 1.5 25.5t3.5 28.5q4 22 11.5 50.5t20.5 65.5q19 58 29.5 90t12.5 38l-78 -3q-90 -3 -155 -58q-2 -2 -9 16q1 6 67 69 q31 30 59 42q33 14 78 14h283z" />
<glyph unicode="&#x3c5;" horiz-adv-x="572" d="M530 221q-27 -108 -109 -172q-83 -65 -185 -65q-73 0 -125 46q-57 49 -57 124q0 10 1 20t3 20q5 25 14.5 51.5t23.5 55.5q22 43 20 74q-1 13 -16 23t-12 28q3 10 33 23q30 15 50 15q42 0 42 -53q0 -48 -49 -153q-33 -71 -33 -127q0 -47 25 -79q28 -37 72 -37 q23 0 48.5 11.5t50 32.5t47.5 51t41 68q34 72 34 142q0 79 -42 127q-4 4 -4 9q0 14 18 14q46 0 84 -75q33 -65 33 -115q0 -27 -8 -59z" />
<glyph unicode="&#x3c6;" horiz-adv-x="699" d="M659 227q-32 -114 -120.5 -175.5t-221.5 -68.5q-5 -26 -7.5 -51.5t-3.5 -50.5q-2 -23 -3.5 -39t-3.5 -27q-6 -28 -14 -39q-14 -15 -40 -15q-43 0 -43 31q0 8 3 22q2 13 8 29.5t14 37.5q11 28 19.5 53t15.5 48q-102 9 -155 58.5t-53 133.5q0 37 10 76q26 102 109 170 q70 60 128 60q27 0 27 -18q0 -16 -11 -43q-11 -26 -18 -27q-61 -17 -105 -64q-58 -61 -62 -151q-4 -88 35 -125q32 -29 106 -34l53 232q19 87 48 134q41 66 112 80q13 3 28 3q62 0 106 -43q50 -48 50 -125q0 -33 -11 -72zM574 254q13 36 13 72q0 48 -23 76t-55 28 q-61 0 -98 -72q-26 -48 -45 -142q-16 -66 -42 -200q97 10 159 74q54 54 91 164z" />
<glyph unicode="&#x3c7;" horiz-adv-x="529" d="M553 454q-42 -57 -104.5 -142.5t-149.5 -202.5q-3 -84 10 -155q19 -112 49 -112q13 0 24 14q13 15 26 16q26 5 41 -14q12 -17 8 -36q-6 -27 -33 -43.5t-60 -16.5q-53 0 -77 63q-5 12 -19 87q0 3 3 159q-35 -47 -89.5 -121t-129.5 -177h-102q43 51 118 149t184 247 q-2 22 -6 49t-10 61q-31 97 -76 97q-24 0 -33 -10q-10 -13 -19 -15q-11 -3 -20.5 7.5t-9.5 26.5q0 18 7.5 32.5t19.5 25t28 16.5t34 6q44 0 68 -45q17 -33 33 -115q5 -21 9 -106q118 166 177 255h99z" />
<glyph unicode="&#x3c8;" horiz-adv-x="689" d="M658 320q-4 -165 -119 -260q-98 -78 -222 -77q-4 -32 -7.5 -73.5t-8.5 -94.5q-4 -52 -58 -52q-39 0 -39 28q0 11 4 24q7 18 21.5 60t36.5 108q-216 30 -216 223q0 45 14 101q18 67 60 115q34 40 59 42q17 1 31.5 -10t14.5 -26q0 -4 -2 -10q-4 -11 -13.5 -26t-23.5 -35 t-25 -40t-18 -42q-12 -38 -12 -80q0 -71 31 -118q36 -56 107 -62q4 16 8 33.5t9 37.5q32 151 50.5 239t23.5 116q13 66 20 121t9 100q1 48 65 48q39 0 39 -28q0 -11 -4 -20q-94 -273 -156 -577q-4 -16 -7.5 -33t-7.5 -37q103 7 184 131q78 120 78 258q0 26 -3 50 q-2 16 3 25.5t20 7.5q23 -3 39 -55q16 -51 15 -112z" />
<glyph unicode="&#x3c9;" horiz-adv-x="716" d="M677 214q-22 -102 -85.5 -159t-153.5 -57q-92 0 -111 87q-72 -88 -149 -88q-30 0 -55.5 11.5t-44 32.5t-28.5 50.5t-10 65.5q0 35 11 77q16 68 53 120q38 52 82 84q46 33 76 31q16 -2 23 -20q8 -20 5 -25q-3 -6 -10.5 -13.5t-17 -16t-20.5 -17.5t-20 -17q-46 -45 -66 -77 q-28 -46 -36 -109q-1 -7 -1.5 -14t-0.5 -14q0 -46 19 -75t52 -29q42 0 77 23q33 22 43 48q-2 40 1.5 72t11.5 56q9 26 18.5 33t38.5 7q39 0 39 -32q0 -6 -2 -16q-23 -86 -63 -123q-2 -35 21 -54q19 -18 48 -18q55 0 102 47q39 40 58 98q24 72 8 158q-11 59 -57 104 q-3 3 -3 8q0 18 18 18q8 0 15 -4q39 -10 86 -85q33 -53 33 -121q0 -22 -5 -47z" />
<glyph unicode="&#x3ca;" horiz-adv-x="268" d="M220 433q-3 -33 -60 -150q-63 -131 -78 -185q-9 -33 14 -44q7 -4 19 -4q24 0 48 22t38 62q27 -5 27 -59q0 -28 -10 -41q-37 -55 -90 -50q-80 8 -80 97q0 36 14 101q22 117 57 258q10 25 55 25q49 0 46 -32zM347 577q-4 -19 -22.5 -34t-36.5 -15q-19 0 -30.5 15t-7.5 34 t21.5 33.5t36.5 14.5t31 -14.5t8 -33.5zM153 577q-4 -19 -22.5 -34t-36.5 -15q-19 0 -30.5 15t-7.5 34t21.5 33.5t36.5 14.5t31 -14.5t8 -33.5z" />
<glyph unicode="&#x3cb;" horiz-adv-x="572" d="M530 221q-27 -108 -109 -172q-83 -65 -185 -65q-73 0 -125 46q-57 49 -57 124q0 10 1 20t3 20q5 25 14.5 51.5t23.5 55.5q22 43 20 74q-1 13 -16 23t-12 28q3 10 33 23q30 15 50 15q42 0 42 -53q0 -48 -49 -153q-33 -71 -33 -127q0 -47 25 -79q28 -37 72 -37 q23 0 48.5 11.5t50 32.5t47.5 51t41 68q34 72 34 142q0 79 -42 127q-4 4 -4 9q0 14 18 14q46 0 84 -75q33 -65 33 -115q0 -27 -8 -59zM443 577q-4 -19 -22.5 -34t-36.5 -15q-19 0 -30.5 15t-7.5 34t21.5 33.5t36.5 14.5t31 -14.5t8 -33.5zM249 577q-4 -19 -22.5 -34 t-36.5 -15q-19 0 -30.5 15t-7.5 34t21.5 33.5t36.5 14.5t31 -14.5t8 -33.5z" />
<glyph unicode="&#x3cc;" horiz-adv-x="572" d="M584 716q0 -26 -22 -45l-161 -136l-21 4l136 182q13 19 41 19q27 0 27 -24zM529 229q-21 -99 -105 -172q-82 -73 -172 -73q-91 0 -148 60q-54 55 -54 134q0 24 6 48q28 112 102 178q72 63 170 69q97 6 150 -34q59 -44 59 -135q0 -32 -8 -75zM407 165q44 82 44 162 q0 91 -60 108q-15 4 -32 4q-107 0 -191 -166q-36 -71 -36 -138q0 -95 68 -116q12 -4 28 -4q46 0 94 40.5t85 109.5z" />
<glyph unicode="&#x3cd;" horiz-adv-x="572" d="M506 715q0 -26 -21 -44l-161 -136l-22 4l136 182q18 19 42 19q26 0 26 -25zM530 221q-27 -108 -109 -172q-83 -65 -185 -65q-73 0 -125 46q-57 49 -57 124q0 10 1 20t3 20q5 25 14.5 51.5t23.5 55.5q22 43 20 74q-1 13 -16 23t-12 28q3 10 33 23q30 15 50 15q42 0 42 -53 q0 -48 -49 -153q-33 -71 -33 -127q0 -47 25 -79q28 -37 72 -37q23 0 48.5 11.5t50 32.5t47.5 51t41 68q34 72 34 142q0 79 -42 127q-4 4 -4 9q0 14 18 14q46 0 84 -75q33 -65 33 -115q0 -27 -8 -59z" />
<glyph unicode="&#x3ce;" horiz-adv-x="727" d="M607 705q0 -26 -21 -44l-161 -136l-22 4l136 182q18 19 42 19q26 0 26 -25zM677 214q-22 -102 -85.5 -159t-153.5 -57q-92 0 -111 87q-72 -88 -149 -88q-30 0 -55.5 11.5t-44 32.5t-28.5 50.5t-10 65.5q0 105 65 197q36 51 81 84q46 33 76 31q16 -2 23 -20q8 -20 5 -25 q-7 -12 -29 -31l-39 -33q-89 -83 -102 -186q-1 -8 -1.5 -15t-0.5 -14q0 -46 19 -74.5t52 -28.5q42 0 77 23q33 22 43 48q-2 40 1.5 72t11.5 56q9 26 19 33t39 7q38 0 38 -32q0 -4 -0.5 -7.5t-1.5 -8.5q-23 -86 -63 -123q-2 -35 21 -54q19 -18 48 -18q55 0 102 47 q39 40 58 98q24 72 8 158q-11 59 -57 104q-2 2 -2 8q0 18 18 18q8 0 15 -4q39 -12 85 -85q33 -53 33 -121q0 -22 -5 -47z" />
<glyph unicode="&#x3d0;" horiz-adv-x="513" d="M379 701q144 7 144 -106q0 -16 -3 -34q-11 -61 -75 -116q-56 -49 -111 -61q64 -8 101 -51q35 -43 35 -100q0 -22 -4 -39q-22 -91 -101 -150q-74 -54 -156 -53q-79 0 -119 61q-36 54 -36 147q0 63 16 130q33 148 117 255q90 112 192 117zM383 192q3 19 3 38q0 28 -7 52.5 t-20 42.5t-31.5 28.5t-40.5 10.5h-26q12 23 9 41h21q51 0 97 49q42 46 54 105q5 25 5 41q0 72 -76 66q-69 -5 -139 -126q-68 -117 -96 -267q-13 -62 -13 -113q0 -137 91 -138q52 0 101 46q55 52 68 124z" />
<glyph unicode="&#x3d1;" horiz-adv-x="531" d="M527 301l-35 -39q-8 10 -33 36q-34 -120 -95 -204q-77 -104 -167 -104q-155 0 -144 168q1 7 4.5 25.5t11.5 49.5q13 55 13 81q0 28 -16 28h-16q-12 0 -12 9q0 17 32 26q7 2 13 2.5t12 1.5q33 1 47.5 -9.5t14.5 -40.5t-15 -90q-19 -75 -19 -123q0 -98 80 -96q64 1 125 130 q43 94 60 177l2 10q-11 6 -42 21q-19 5 -46 14t-63 20q-89 33 -89 122q0 48 27 92q60 97 172 97q74 0 109 -69q29 -56 29 -150q0 -66 -14 -133l-2 -8q29 -22 56 -44zM405 408q7 37 10 69t3 58q0 138 -80 141q-35 1 -68 -32q-38 -38 -48 -97q-3 -14 -3 -28q0 -79 116 -114 q13 -5 29 -12.5t36 -15.5z" />
<glyph unicode="&#x3d5;" horiz-adv-x="538" d="M264 20q54 0 95 45t57 123q6 27 6 53q0 51 -23 83t-65 32zM214 20q22 106 72 336q-51 0 -95 -50q-45 -51 -58 -118q-7 -29 -7 -59q0 -109 88 -109zM501 189q-18 -86 -89 -142t-154 -56q-4 -19 -6.5 -37t-3.5 -35q-1 -13 -1.5 -25t-1.5 -25q-6 -63 -52 -63q-33 0 -33 30 q0 12 6 32q13 29 42 122q-36 0 -66 11.5t-51.5 31.5t-33.5 48.5t-12 62.5q0 20 5 45q18 81 89 139t154 58h48q71 0 118 -45q47 -44 47 -112q0 -18 -5 -40z" />
<glyph unicode="&#x3d6;" horiz-adv-x="671" d="M632 185q-15 -73 -81 -131q-71 -65 -153 -65q-8 0 -15.5 0.5t-15.5 1.5q-39 8 -61 43q-15 -14 -28 -20q-35 -21 -66 -24q-83 -8 -130 46q-42 46 -42 113q0 11 1.5 21t3.5 20q18 71 76 126q65 61 147 71q9 1 9 -6q0 -10 -15 -17q-102 -57 -132 -178q-7 -27 -7 -57 q0 -51 22 -80q26 -35 76 -30q12 1 24 10t22.5 22.5t18 31t10.5 35.5q4 22 6 60q1 43 6 81q11 71 63 71q33 0 33 -33q0 -16 -6 -35q-11 -30 -24.5 -66t-27.5 -78q-3 -17 -3 -31q0 -59 43 -66q4 -1 8 -1h8q48 0 88 46q38 44 54 101q12 46 12 82q0 70 -49 113q-9 7 -9 15 q0 10 16 9q62 -9 95 -56q28 -40 28 -100q0 -20 -5 -45z" />
<glyph unicode="&#x3d8;" horiz-adv-x="718" d="M721 435q-13 -72 -41.5 -118t-76.5 -83q-37 -28 -77 -45t-86 -23l-24 -135h93l-5 -31h-286l5 31h94l24 136q-83 14 -132 67q-35 37 -48 83t0 118q13 73 42 119t77 83q45 35 96 52.5t113 17.5t107 -17.5t78 -52.5q35 -37 47.5 -83.5t-0.5 -118.5zM611 434q10 57 6.5 97.5 t-16.5 72.5q-17 35 -44.5 53.5t-72.5 18.5t-79.5 -18.5t-63.5 -53.5q-23 -32 -41 -71t-28 -96q-11 -59 -7 -98.5t17 -71.5q16 -35 44 -53.5t73 -18.5t79.5 18.5t63.5 53.5q23 32 41 71t28 96z" />
<glyph unicode="&#x3d9;" horiz-adv-x="440" d="M458 188q-18 -79 -80 -135q-62 -55 -139 -62q-4 -19 -6.5 -37t-3.5 -35q-1 -13 -1.5 -25t-1.5 -25q-8 -63 -49 -63q-30 0 -30 27q0 14 7 35q13 29 42 122q-57 0 -99 45q-41 46 -41 112q0 18 5 41q16 81 87 140q70 58 153 58q71 0 116 -45q45 -44 45 -111q0 -23 -4 -42z M377 188q6 27 6 53q0 51 -23 83t-66 32q-51 0 -95 -50q-45 -51 -58 -118q-7 -29 -7 -59q0 -109 89 -109q55 0 96 45t58 123z" />
<glyph unicode="&#x3da;" horiz-adv-x="713" d="M194 203q16 -20 42.5 -34.5t69.5 -14.5q23 0 51.5 7t59.5 30h99l-33 -191h-99l27 157q-32 -20 -61.5 -25.5t-48.5 -5.5q-45 0 -78.5 14.5t-53.5 37.5q-40 44 -49 98t2 117q14 77 48 138t82 96q47 35 97 48.5t117 13.5h336l-15 -85h-316q-23 0 -48 -0.5t-49.5 -3t-48 -8 t-41.5 -15.5q-46 -25 -73.5 -73.5t-38.5 -108.5q-4 -24 -7 -49.5t-1.5 -50.5t8.5 -48.5t22 -43.5z" />
<glyph unicode="&#x3db;" horiz-adv-x="669" d="M437 367q-58 0 -107.5 -10.5t-91.5 -28.5q-108 -47 -126 -150q-14 -76 73 -95q42 -5 82.5 -11t82.5 -12q85 -25 70 -115q-12 -68 -69 -122q-56 -53 -129 -59q-13 -1 -24 2t-19 9.5t-11.5 17t-1.5 23.5q3 18 19 29t34 11q6 0 14.5 -2t17.5 -5t17.5 -5t14.5 -2 q32 0 58.5 17.5t31.5 49.5q12 67 -76 76q-145 17 -163 25q-82 39 -58 176q26 141 155 214q110 62 258 61l154 -1q17 0 19 -12.5t-2 -34.5q-3 -19 -9.5 -32.5t-22.5 -13.5h-191z" />
<glyph unicode="&#x3dc;" horiz-adv-x="743" d="M751 462l-41 -203h-30q3 28 3 45q0 50 -23 82q-32 41 -127 43l-172 2l-62 -290h123h48.5t25.5 -1t18 -1h26l-34 -158h-31q14 60 -4.5 93t-55.5 33h-123l-66 -312h94l-7 -31h-281l7 31h94l135 636h-94l7 31h570z" />
<glyph unicode="&#x3de;" horiz-adv-x="758" d="M701 0h-279l6 31h94l66 314h-400l66 313h-94l5 31h276l-5 -31h-93l-59 -278l401 -1l-72 -348h93z" />
<glyph unicode="&#x3df;" horiz-adv-x="595" d="M265 -271q-36 0 -50.5 24t-7.5 52q5 17 39.5 72t94.5 151l-301 -30q-17 -1 -13 29q3 16 12 29q111 137 227 283.5t247 308.5q26 32 48 50.5t47 18.5q20 0 31 -13.5t7 -34.5q-2 -13 -7.5 -24.5t-18.5 -25.5q-5 -5 -39 -38t-97 -97t-155 -162t-212 -233l256 25q39 4 33 -31 q-1 -7 -6 -16q-11 -23 -31 -51t-43 -63q-27 -43 -40.5 -70t-15.5 -40q-5 -25 14 -25q5 0 8.5 2t8 4.5t11 4.5t17.5 2q32 0 27 -34q-6 -33 -32.5 -50.5t-58.5 -17.5z" />
<glyph unicode="&#x3e0;" horiz-adv-x="926" d="M69 -235q-18 7 -15 27q2 11 13 26t29 38l426 521q-96 -1 -185 -43q-41 -21 -78.5 -49.5t-74.5 -63.5q-71 -69 -86 -77q-11 -5 -20.5 -8.5t-17.5 -3.5q-22 0 -18 22q2 12 10 26q16 30 47.5 64t82.5 70q60 42 119 68.5t121 37.5q78 15 149 15q66 0 118.5 -14.5t97.5 -39.5 q35 -20 60 -49.5t39 -64.5t18 -73.5t-3 -76.5q-9 -50 -32 -102t-57 -99t-77 -85t-91 -60q-41 -18 -76 -18q-40 0 -60.5 23t-14.5 59q2 7 4 17.5t10 25.5q7 14 15 21.5t13 7.5q2 0 7.5 -9.5t17.5 -27.5q10 -17 34.5 -25t62.5 -3q39 5 74.5 34t64 69t48 83t25.5 75 q7 42 -0.5 82t-26 73.5t-48 57.5t-65.5 33q-53 -75 -90.5 -136t-43.5 -99q-2 -11 -0.5 -19.5t5.5 -13.5t9.5 -7.5t10.5 -2.5q17 0 33 8.5t33 8.5t28 -5.5t9 -19.5q-3 -19 -15.5 -33t-29.5 -23.5t-35.5 -14t-33.5 -4.5q-19 0 -38 4q-54 12 -43 71q6 40 42 98l36 60 q46 75 95 139q-38 12 -73 16t-61 4q-128 -177 -227.5 -309t-167.5 -225q-36 -50 -50 -64q-21 -21 -36 -21q-8 0 -17 4z" />
<glyph unicode="&#x3e1;" horiz-adv-x="706" d="M663 -23l-17 -73h-58l11 54q24 112 24 210q0 32 -2.5 61.5t-7.5 56.5l-337 -236l-14 23l343 239q-12 54 -65 137l-351 -243l-14 23l348 241q-106 136 -394 136l2 18q21 2 43.5 3.5t47.5 1.5q227 0 350 -129q116 -122 116 -328q0 -95 -25 -195z" />
<glyph unicode="&#x3f0;" horiz-adv-x="481" d="M354 -12q-67 1 -67 95q0 55 19 113l-50 -38l-50 -38q-82 -62 -86 -72q-8 -17 -13 -26.5t-7 -11.5q-17 -20 -45 -20q-15 0 -24 13.5t-6 29.5q4 23 38 49q14 10 27.5 19.5t27.5 19.5q24 103 24 142q0 82 -58 81q-18 0 -18 13q0 12 19.5 19t55.5 8q64 0 64 -63 q0 -33 -20 -93q-8 -20 -15 -39.5t-14 -39.5q45 32 91.5 67.5t97.5 75.5q40 55 44 59q30 33 62 33q28 0 28 -32q0 -34 -53 -73q-20 -14 -40.5 -27.5t-40.5 -27.5q-9 -32 -9 -66q0 -56 23 -91q28 -41 78 -39q21 1 21 -13q0 -12 -23.5 -20t-80.5 -7z" />
<glyph unicode="&#x48c;" horiz-adv-x="608" d="M609 174q-35 -174 -286 -174h-328l7 31h94l113 521h-65l7 31h65l23 106h100l-24 -106h80l-7 -31h-80l-41 -186h102q91 0 159 -36q84 -44 84 -124q0 -16 -3 -32zM489 176q4 20 4 41q0 65 -49 96q-40 23 -98 23h-85l-64 -305h110q59 0 103 26q62 36 79 119z" />
<glyph unicode="&#x48d;" horiz-adv-x="375" d="M244 309q-53 0 -98 -63q-17 -25 -29.5 -52.5t-20.5 -58.5q-10 -39 -10 -63q0 -55 47 -55q77 0 120 121q22 59 22 111q0 60 -31 60zM41 462h57l12 61l69 8l-15 -69h75l-5 -25h-75q-42 -175 -38 -182q88 118 162 111q36 -3 55 -36q17 -29 17 -65q0 -65 -39 -138 q-38 -72 -94 -110q-49 -34 -113 -34q-45 2 -94 62q5 23 25 120.5t54 271.5h-57z" />
<glyph unicode="&#x4d2;" horiz-adv-x="696" d="M674 31l-7 -31h-260l7 31h87l-27 198h-249l-56 -91q-36 -59 -36 -86q0 -5 2 -11q4 -10 62 -10l-7 -31h-224l7 31q53 -2 74 11q28 16 76 96l344 572h40l92 -679h75zM469 266l-43 312l-178 -312h221zM645 791q-4 -19 -22.5 -34t-36.5 -15q-19 0 -30.5 15t-7.5 34t21.5 33.5 t36.5 14.5t31 -14.5t8 -33.5zM451 791q-4 -19 -22.5 -34t-36.5 -15q-19 0 -30.5 15t-7.5 34t21.5 33.5t36.5 14.5t31 -14.5t8 -33.5z" />
<glyph unicode="&#x4d3;" d="M411 79q-107 -91 -140 -91q-25 0 -25 32q0 25 6 52l26 116l-3 1q-78 -116 -145 -165q-53 -38 -76 -38q-33 0 -33 82q0 73 38 187q39 117 80 146q55 40 83 52t65 12q33 0 78 -19l32 18l10 -9l-89 -368q-8 -33 13 -33q15 0 34.5 15t38.5 31zM326 399q-54 18 -81 18 q-44 0 -66 -24q-16 -18 -36 -68q-52 -137 -52 -225q0 -46 18 -46q41 0 127 114q63 84 90 231zM429 576q-4 -19 -22.5 -34t-36.5 -15q-19 0 -30.5 15t-7.5 34t21.5 33.5t36.5 14.5t31 -14.5t8 -33.5zM235 576q-4 -19 -22.5 -34t-36.5 -15q-19 0 -30.5 15t-7.5 34t21.5 33.5 t36.5 14.5t31 -14.5t8 -33.5z" />
<glyph unicode="&#x4e6;" horiz-adv-x="700" d="M628 339q-37 -169 -143 -264q-100 -91 -236 -91q-109 0 -173 78q-65 79 -65 200q0 20 2 40.5t6 42.5q30 164 143 265q106 96 240 96q115 0 178 -67t63 -184q0 -55 -15 -116zM517 341q18 85 18 150q0 184 -139 184q-195 0 -265 -330q-10 -45 -14.5 -82.5t-4.5 -69.5 q0 -175 146 -175q94 0 165 93q62 84 94 230zM575 789q-4 -19 -22.5 -34t-36.5 -15q-19 0 -30.5 15t-7.5 34t21.5 33.5t36.5 14.5t31 -14.5t8 -33.5zM381 789q-4 -19 -22.5 -34t-36.5 -15q-19 0 -30.5 15t-7.5 34t21.5 33.5t36.5 14.5t31 -14.5t8 -33.5z" />
<glyph unicode="&#x4e7;" d="M410 315q0 -60 -23 -127t-60 -113q-15 -19 -35 -35.5t-43 -28.5t-47 -18.5t-47 -6.5q-128 0 -128 156q0 100 39 177.5t117 117.5q53 28 98 28q64 0 99 -44q30 -39 30 -106zM336 304q0 124 -90 124q-37 0 -59 -17q-39 -31 -65 -123q-21 -77 -21 -141q0 -124 91 -124 q42 0 71 32q36 42 55 117q18 67 18 132zM405 584q-4 -19 -22.5 -34t-36.5 -15q-19 0 -30.5 15t-7.5 34t21.5 33.5t36.5 14.5t31 -14.5t8 -33.5zM211 584q-4 -19 -22.5 -34t-36.5 -15q-19 0 -30.5 15t-7.5 34t21.5 33.5t36.5 14.5t31 -14.5t8 -33.5z" />
<glyph unicode="&#x1e80;" horiz-adv-x="977" d="M1036 690l-7 -31q-53 2 -74 -11q-20 -13 -31 -24q-10 -11 -21.5 -28.5t-24.5 -43.5l-288 -572h-40l-69 546l-328 -546h-35l-27 679h-75l7 31h259l-7 -31h-76l9 -510l324 541h31l68 -530l194 392q34 67 34 87t-62 20l7 31h232zM579 743l-39 -2l-180 99q-29 15 -33 39 q-2 11 10 19.5t27 8.5q13 0 35 -17z" />
<glyph unicode="&#x1e81;" horiz-adv-x="700" d="M678 372q0 -36 -18 -100q-26 -89 -97 -178q-86 -105 -164 -105q-33 0 -52 28.5t-19 73.5q0 32 10 82l-2 2q-95 -186 -180 -186q-45 0 -68 47q-18 34 -18 86q0 86 59 175q22 28 43.5 55t43.5 55l3 4q-16 -2 -32.5 -3.5t-33.5 -0.5q-8 0 -17 0.5t-20 1.5q-46 3 -58 -27 l-16 -41h-22q18 79 37 115q18 9 43 6q52 -6 115 -6q29 0 52 12l9 -18q-88 -97 -122 -209q-13 -40 -13 -116q0 -32 12 -57q16 -30 45 -30q54 0 124 154q19 43 33 110l28 144l72 22l7 -8l-51 -179q-20 -72 -20 -155q0 -36 13.5 -62t34.5 -26q45 0 91 55q39 46 62 115 q24 70 24 131q0 62 -42 62q-14 0 -26 -9l-11 18l49 46q13 12 32 12q31 0 47 -34q13 -26 13 -62zM464 502l-39 -2l-180 99q-29 15 -33 39q-2 11 10 19.5t27 8.5q13 0 35 -17z" />
<glyph unicode="&#x1e82;" horiz-adv-x="980" d="M1036 690l-7 -31q-53 2 -74 -11q-20 -13 -31 -24q-10 -11 -21.5 -28.5t-24.5 -43.5l-288 -572h-40l-69 546l-328 -546h-35l-27 679h-75l7 31h259l-7 -31h-76l9 -510l324 541h31l68 -530l194 392q34 67 34 87t-62 20l7 31h232zM785 923q0 -32 -27 -51l-189 -133h-32 l180 186q20 19 46 19q22 0 22 -21z" />
<glyph unicode="&#x1e83;" horiz-adv-x="700" d="M678 372q0 -36 -18 -100q-26 -89 -97 -178q-86 -105 -164 -105q-33 0 -52 28.5t-19 73.5q0 32 10 82l-2 2q-95 -186 -180 -186q-45 0 -68 47q-18 34 -18 86q0 86 59 175q22 28 43.5 55t43.5 55l3 4q-16 -2 -32.5 -3.5t-33.5 -0.5q-8 0 -17 0.5t-20 1.5q-46 3 -58 -27 l-16 -41h-22q18 79 37 115q18 9 43 6q52 -6 115 -6q29 0 52 12l9 -18q-88 -97 -122 -209q-13 -40 -13 -116q0 -32 12 -57q16 -30 45 -30q54 0 124 154q19 43 33 110l28 144l72 22l7 -8l-51 -179q-20 -72 -20 -155q0 -36 13.5 -62t34.5 -26q45 0 91 55q39 46 62 115 q24 70 24 131q0 62 -42 62q-14 0 -26 -9l-11 18l49 46q13 12 32 12q31 0 47 -34q13 -26 13 -62zM648 684q0 -32 -27 -51l-189 -133h-32l180 186q20 19 46 19q22 0 22 -21z" />
<glyph unicode="&#x1e84;" horiz-adv-x="985" d="M1036 690l-7 -31q-53 2 -74 -11q-20 -13 -31 -24q-10 -11 -21.5 -28.5t-24.5 -43.5l-288 -572h-40l-69 546l-328 -546h-35l-27 679h-75l7 31h259l-7 -31h-76l9 -510l324 541h31l68 -530l194 392q34 67 34 87t-62 20l7 31h232zM700 791q-4 -19 -22.5 -34t-36.5 -15 q-19 0 -30.5 15t-7.5 34t21.5 33.5t36.5 14.5t31 -14.5t8 -33.5zM506 791q-4 -19 -22.5 -34t-36.5 -15q-19 0 -30.5 15t-7.5 34t21.5 33.5t36.5 14.5t31 -14.5t8 -33.5z" />
<glyph unicode="&#x1e85;" horiz-adv-x="700" d="M678 372q0 -36 -18 -100q-26 -89 -97 -178q-86 -105 -164 -105q-33 0 -52 28.5t-19 73.5q0 32 10 82l-2 2q-95 -186 -180 -186q-45 0 -68 47q-18 34 -18 86q0 86 59 175q22 28 43.5 55t43.5 55l3 4q-16 -2 -32.5 -3.5t-33.5 -0.5q-8 0 -17 0.5t-20 1.5q-46 3 -58 -27 l-16 -41h-22q18 79 37 115q18 9 43 6q52 -6 115 -6q29 0 52 12l9 -18q-88 -97 -122 -209q-13 -40 -13 -116q0 -32 12 -57q16 -30 45 -30q54 0 124 154q19 43 33 110l28 144l72 22l7 -8l-51 -179q-20 -72 -20 -155q0 -36 13.5 -62t34.5 -26q45 0 91 55q39 46 62 115 q24 70 24 131q0 62 -42 62q-14 0 -26 -9l-11 18l49 46q13 12 32 12q31 0 47 -34q13 -26 13 -62zM588 579q-4 -19 -22.5 -34t-36.5 -15q-19 0 -30.5 15t-7.5 34t21.5 33.5t36.5 14.5t31 -14.5t8 -33.5zM394 579q-4 -19 -22.5 -34t-36.5 -15q-19 0 -30.5 15t-7.5 34t21.5 33.5 t36.5 14.5t31 -14.5t8 -33.5z" />
<glyph unicode="&#x1ea0;" horiz-adv-x="696" d="M674 31l-7 -31h-260l7 31h87l-27 198h-249l-56 -91q-36 -59 -36 -86q0 -5 2 -11q4 -10 62 -10l-7 -31h-224l7 31q53 -2 74 11q28 16 76 96l344 572h40l92 -679h75zM469 266l-43 312l-178 -312h221zM352 -181q0 -22 -15.5 -37.5t-37.5 -15.5t-37.5 15.5t-15.5 37.5 t15.5 37.5t37.5 15.5q23 0 38 -15t15 -38z" />
<glyph unicode="&#x1ea1;" d="M411 79q-107 -91 -140 -91q-25 0 -25 32q0 25 6 52l26 116l-3 1q-78 -116 -145 -165q-53 -38 -76 -38q-33 0 -33 82q0 73 38 187q39 117 80 146q55 40 83 52t65 12q33 0 78 -19l32 18l10 -9l-89 -368q-8 -33 13 -33q15 0 34.5 15t38.5 31zM326 399q-54 18 -81 18 q-44 0 -66 -24q-16 -18 -36 -68q-52 -137 -52 -225q0 -46 18 -46q41 0 127 114q63 84 90 231zM252 -181q0 -22 -15.5 -37.5t-37.5 -15.5t-37.5 15.5t-15.5 37.5t15.5 37.5t37.5 15.5q23 0 38 -15t15 -38z" />
<glyph unicode="&#x1ea2;" horiz-adv-x="696" d="M674 31l-7 -31h-260l7 31h87l-27 198h-249l-56 -91q-36 -59 -36 -86q0 -5 2 -11q4 -10 62 -10l-7 -31h-224l7 31q53 -2 74 11q28 16 76 96l344 572h40l92 -679h75zM469 266l-43 312l-178 -312h221zM505 748l-10 -7q-20 7 -16 29q5 17 37 48q33 31 33 52q0 29 -36 25 q-18 -3 -34 -23q-23 14 -21 16q10 20 36 34q22 13 48 13q56 0 56 -47q0 -10 -1 -15q-4 -23 -50 -61q-45 -37 -46 -46q-2 -10 4 -18z" />
<glyph unicode="&#x1ea3;" d="M418 79q-107 -91 -140 -91q-25 0 -25 32q0 25 6 52l26 116l-3 1q-78 -116 -145 -165q-53 -38 -76 -38q-33 0 -33 82q0 73 38 187q39 117 80 146q55 40 83 52t65 12q33 0 78 -19l32 18l10 -9l-89 -368q-8 -33 13 -33q15 0 34.5 15t38.5 31zM333 399q-54 18 -81 18 q-44 0 -66 -24q-16 -18 -36 -68q-52 -137 -52 -225q0 -46 18 -46q41 0 127 114q63 84 90 231zM315 537l-10 -7q-20 7 -16 29q5 17 37 48q33 31 33 52q0 29 -36 25q-18 -3 -34 -23q-23 14 -21 16q10 20 36 34q22 13 48 13q56 0 56 -47q0 -10 -1 -15q-4 -23 -50 -61 q-45 -37 -46 -46q-2 -10 4 -18z" />
<glyph unicode="&#x1ea4;" horiz-adv-x="696" d="M674 31l-7 -31h-260l7 31h87l-27 198h-249l-56 -91q-36 -59 -36 -86q0 -5 2 -11q4 -10 62 -10l-7 -31h-224l7 31q53 -2 74 11q28 16 76 96l344 572h40l92 -679h75zM469 266l-43 312l-178 -312h221zM826 920q0 -26 -21 -44l-161 -136l-22 4l136 181q15 20 41 20 q27 0 27 -25zM617 747h-34l-80 101l-133 -101h-38l153 164h47z" />
<glyph unicode="&#x1ea5;" d="M411 79q-107 -91 -140 -91q-25 0 -25 32q0 25 6 52l26 116l-3 1q-78 -116 -145 -165q-53 -38 -76 -38q-33 0 -33 82q0 73 38 187q39 117 80 146q55 40 83 52t65 12q33 0 78 -19l32 18l10 -9l-89 -368q-8 -33 13 -33q15 0 34.5 15t38.5 31zM326 399q-54 18 -81 18 q-44 0 -66 -24q-16 -18 -36 -68q-52 -137 -52 -225q0 -46 18 -46q41 0 127 114q63 84 90 231zM413 529h-34l-80 101l-133 -101h-38l153 164h47zM637 710q0 -26 -21 -44l-161 -136l-22 4l136 181q15 20 41 20q27 0 27 -25z" />
<glyph unicode="&#x1ea6;" horiz-adv-x="696" d="M674 31l-7 -31h-260l7 31h87l-27 198h-249l-56 -91q-36 -59 -36 -86q0 -5 2 -11q4 -10 62 -10l-7 -31h-224l7 31q53 -2 74 11q28 16 76 96l344 572h40l92 -679h75zM469 266l-43 312l-178 -312h221zM722 745h-25l-110 136q-7 8 -7 22q0 23 21 37q13 9 27 9q25 0 33 -21z M611 748h-34l-80 101l-133 -101h-38l153 164h47z" />
<glyph unicode="&#x1ea7;" d="M411 79q-107 -91 -140 -91q-25 0 -25 32q0 25 6 52l26 116l-3 1q-78 -116 -145 -165q-53 -38 -76 -38q-33 0 -33 82q0 73 38 187q39 117 80 146q55 40 83 52t65 12q33 0 78 -19l32 18l10 -9l-89 -368q-8 -33 13 -33q15 0 34.5 15t38.5 31zM326 399q-54 18 -81 18 q-44 0 -66 -24q-16 -18 -36 -68q-52 -137 -52 -225q0 -46 18 -46q41 0 127 114q63 84 90 231zM406 527h-34l-80 101l-133 -101h-38l153 164h47zM520 527h-25l-110 136q-7 8 -7 22q0 23 21 37q13 9 27 9q25 0 33 -21z" />
<glyph unicode="&#x1ea8;" horiz-adv-x="696" d="M674 31l-7 -31h-260l7 31h87l-27 198h-249l-56 -91q-36 -59 -36 -86q0 -5 2 -11q4 -10 62 -10l-7 -31h-224l7 31q53 -2 74 11q28 16 76 96l344 572h40l92 -679h75zM469 266l-43 312l-178 -312h221zM656 747l-10 -7q-20 7 -16 29q5 17 37 48q33 31 33 52q0 29 -36 25 q-18 -3 -34 -23q-23 14 -21 16q10 20 36 34q22 13 48 13q56 0 56 -47q0 -10 -1 -15q-4 -23 -50 -61q-45 -37 -46 -46q-2 -10 4 -18zM611 743h-34l-80 101l-133 -101h-38l153 164h47z" />
<glyph unicode="&#x1ea9;" d="M411 79q-107 -91 -140 -91q-25 0 -25 32q0 25 6 52l26 116l-3 1q-78 -116 -145 -165q-53 -38 -76 -38q-33 0 -33 82q0 73 38 187q39 117 80 146q55 40 83 52t65 12q33 0 78 -19l32 18l10 -9l-89 -368q-8 -33 13 -33q15 0 34.5 15t38.5 31zM326 399q-54 18 -81 18 q-44 0 -66 -24q-16 -18 -36 -68q-52 -137 -52 -225q0 -46 18 -46q41 0 127 114q63 84 90 231zM418 528h-34l-80 101l-133 -101h-38l153 164h47zM469 540l-10 -7q-20 7 -16 29q5 17 37 48q33 31 33 52q0 29 -36 25q-18 -3 -34 -23q-23 14 -21 16q10 20 36 34q22 13 48 13 q56 0 56 -47q0 -10 -1 -15q-4 -23 -50 -61q-45 -37 -46 -46q-2 -10 4 -18z" />
<glyph unicode="&#x1eaa;" horiz-adv-x="696" d="M674 31l-7 -31h-260l7 31h87l-27 198h-249l-56 -91q-36 -59 -36 -86q0 -5 2 -11q4 -10 62 -10l-7 -31h-224l7 31q53 -2 74 11q28 16 76 96l344 572h40l92 -679h75zM469 266l-43 312l-178 -312h221zM674 1041q-5 -104 -94 -104q-32 0 -86 19q-57 20 -83 20 q-18 0 -34.5 -12t-18.5 -29h-17q1 43 24.5 70t65.5 27q29 0 88 -18q60 -17 88 -17q39 0 50 44h17zM614 747h-34l-80 101l-133 -101h-38l153 164h47z" />
<glyph unicode="&#x1eab;" d="M411 79q-107 -91 -140 -91q-25 0 -25 32q0 25 6 52l26 116l-3 1q-78 -116 -145 -165q-53 -38 -76 -38q-33 0 -33 82q0 73 38 187q39 117 80 146q55 40 83 52t65 12q33 0 78 -19l32 18l10 -9l-89 -368q-8 -33 13 -33q15 0 34.5 15t38.5 31zM326 399q-54 18 -81 18 q-44 0 -66 -24q-16 -18 -36 -68q-52 -137 -52 -225q0 -46 18 -46q41 0 127 114q63 84 90 231zM407 530h-34l-80 101l-133 -101h-38l153 164h47zM471 849q-5 -104 -94 -104q-32 0 -86 19q-57 20 -83 20q-18 0 -34.5 -12t-18.5 -29h-17q1 43 24.5 70t65.5 27q29 0 88 -18 q60 -17 88 -17q39 0 50 44h17z" />
<glyph unicode="&#x1eac;" horiz-adv-x="696" d="M699 31l-7 -31h-260l7 31h87l-27 198h-249l-56 -91q-36 -59 -36 -86q0 -5 2 -11q4 -10 62 -10l-7 -31h-224l7 31q53 -2 74 11q28 16 76 96l344 572h40l92 -679h75zM494 266l-43 312l-178 -312h221zM381 -212q0 -22 -15.5 -37.5t-37.5 -15.5t-37.5 15.5t-15.5 37.5 t15.5 37.5t37.5 15.5q23 0 38 -15t15 -38zM657 740h-34l-80 101l-133 -101h-38l153 164h47z" />
<glyph unicode="&#x1ead;" d="M411 79q-107 -91 -140 -91q-25 0 -25 32q0 25 6 52l26 116l-3 1q-78 -116 -145 -165q-53 -38 -76 -38q-33 0 -33 82q0 73 38 187q39 117 80 146q55 40 83 52t65 12q33 0 78 -19l32 18l10 -9l-89 -368q-8 -33 13 -33q15 0 34.5 15t38.5 31zM326 399q-54 18 -81 18 q-44 0 -66 -24q-16 -18 -36 -68q-52 -137 -52 -225q0 -46 18 -46q41 0 127 114q63 84 90 231zM440 537h-34l-80 101l-133 -101h-38l153 164h47zM244 -212q0 -22 -15.5 -37.5t-37.5 -15.5t-37.5 15.5t-15.5 37.5t15.5 37.5t37.5 15.5q23 0 38 -15t15 -38z" />
<glyph unicode="&#x1eae;" horiz-adv-x="696" d="M683 31l-7 -31h-260l7 31h87l-27 198h-249l-56 -91q-36 -59 -36 -86q0 -5 2 -11q4 -10 62 -10l-7 -31h-224l7 31q53 -2 74 11q28 16 76 96l344 572h40l92 -679h75zM478 266l-43 312l-178 -312h221zM698 1015q0 -26 -21 -44l-161 -136l-22 4l136 181q15 20 41 20 q27 0 27 -25zM657 881q-10 -69 -47.5 -101.5t-112.5 -32.5q-48 2 -76 25q-32 26 -32 73q0 19 4 36q4 4 10 4t9 -4q1 -78 96 -80q85 0 130 80q4 4 10 4t9 -4z" />
<glyph unicode="&#x1eaf;" d="M411 79q-107 -91 -140 -91q-25 0 -25 32q0 25 6 52l26 116l-3 1q-78 -116 -145 -165q-53 -38 -76 -38q-33 0 -33 82q0 73 38 187q39 117 80 146q55 40 83 52t65 12q33 0 78 -19l32 18l10 -9l-89 -368q-8 -33 13 -33q15 0 34.5 15t38.5 31zM326 399q-54 18 -81 18 q-44 0 -66 -24q-16 -18 -36 -68q-52 -137 -52 -225q0 -46 18 -46q41 0 127 114q63 84 90 231zM466 667q-10 -69 -47.5 -101.5t-112.5 -32.5q-48 2 -76 25q-32 26 -32 73q0 19 4 36q4 4 10 4t9 -4q1 -78 96 -80q85 0 130 80q4 4 10 4t9 -4zM506 800q0 -26 -21 -44l-161 -136 l-22 4l136 181q15 20 41 20q27 0 27 -25z" />
<glyph unicode="&#x1eb0;" horiz-adv-x="696" d="M701 31l-7 -31h-260l7 31h87l-27 198h-249l-56 -91q-36 -59 -36 -86q0 -5 2 -11q4 -10 62 -10l-7 -31h-224l7 31q53 -2 74 11q28 16 76 96l344 572h40l92 -679h75zM496 266l-43 312l-178 -312h221zM543 826h-25l-139 136q-12 12 -12 31q0 37 39 37q26 0 37 -21zM667 876 q-10 -69 -47.5 -101.5t-112.5 -32.5q-48 2 -76 25q-32 26 -32 73q0 19 4 36q4 4 10 4t9 -4q1 -78 96 -80q85 0 130 80q4 4 10 4t9 -4z" />
<glyph unicode="&#x1eb1;" d="M411 79q-107 -91 -140 -91q-25 0 -25 32q0 25 6 52l26 116l-3 1q-78 -116 -145 -165q-53 -38 -76 -38q-33 0 -33 82q0 73 38 187q39 117 80 146q55 40 83 52t65 12q33 0 78 -19l32 18l10 -9l-89 -368q-8 -33 13 -33q15 0 34.5 15t38.5 31zM326 399q-54 18 -81 18 q-44 0 -66 -24q-16 -18 -36 -68q-52 -137 -52 -225q0 -46 18 -46q41 0 127 114q63 84 90 231zM454 662q-10 -69 -47.5 -101.5t-112.5 -32.5q-48 2 -76 25q-32 26 -32 73q0 19 4 36q4 4 10 4t9 -4q1 -78 96 -80q85 0 130 80q4 4 10 4t9 -4zM343 615h-25l-139 136 q-12 12 -12 31q0 37 39 37q26 0 37 -21z" />
<glyph unicode="&#x1eb2;" horiz-adv-x="696" d="M674 31l-7 -31h-260l7 31h87l-27 198h-249l-56 -91q-36 -59 -36 -86q0 -5 2 -11q4 -10 62 -10l-7 -31h-224l7 31q53 -2 74 11q28 16 76 96l344 572h40l92 -679h75zM469 266l-43 312l-178 -312h221zM515 838l-10 -7q-20 7 -16 29q5 17 37 48q33 31 33 52q0 29 -36 25 q-18 -3 -34 -23q-23 14 -21 16q10 20 36 34q22 13 48 13q56 0 56 -47q0 -10 -1 -15q-4 -23 -50 -61q-45 -37 -46 -46q-2 -10 4 -18zM644 879q-10 -69 -47.5 -101.5t-112.5 -32.5q-48 2 -76 25q-32 26 -32 73q0 19 4 36q4 4 10 4t9 -4q1 -78 96 -80q85 0 130 80q4 4 10 4 t9 -4z" />
<glyph unicode="&#x1eb3;" d="M411 79q-107 -91 -140 -91q-25 0 -25 32q0 25 6 52l26 116l-3 1q-78 -116 -145 -165q-53 -38 -76 -38q-33 0 -33 82q0 73 38 187q39 117 80 146q55 40 83 52t65 12q33 0 78 -19l32 18l10 -9l-89 -368q-8 -33 13 -33q15 0 34.5 15t38.5 31zM326 399q-54 18 -81 18 q-44 0 -66 -24q-16 -18 -36 -68q-52 -137 -52 -225q0 -46 18 -46q41 0 127 114q63 84 90 231zM478 665q-10 -69 -47.5 -101.5t-112.5 -32.5q-48 2 -76 25q-32 26 -32 73q0 19 4 36q4 4 10 4t9 -4q1 -78 96 -80q85 0 130 80q4 4 10 4t9 -4zM336 618l-10 -7q-20 7 -16 29 q5 17 37 48q33 31 33 52q0 29 -36 25q-18 -3 -34 -23q-23 14 -21 16q10 20 36 34q22 13 48 13q56 0 56 -47q0 -10 -1 -15q-4 -23 -50 -61q-45 -37 -46 -46q-2 -10 4 -18z" />
<glyph unicode="&#x1eb4;" horiz-adv-x="696" d="M674 31l-7 -31h-260l7 31h87l-27 198h-249l-56 -91q-36 -59 -36 -86q0 -5 2 -11q4 -10 62 -10l-7 -31h-224l7 31q53 -2 74 11q28 16 76 96l344 572h40l92 -679h75zM469 266l-43 312l-178 -312h221zM705 1001q-23 -83 -80 -99q-18 -5 -35 -5q-36 0 -97 21q-58 20 -72 17 q-43 -7 -54 -40h-17q16 64 67 88q18 9 44 9q33 0 96 -19q61 -18 81 -15q34 4 50 43h17zM646 878q-10 -69 -47.5 -101.5t-112.5 -32.5q-48 2 -76 25q-32 26 -32 73q0 19 4 36q4 4 10 4t9 -4q1 -78 96 -80q85 0 130 80q4 4 10 4t9 -4z" />
<glyph unicode="&#x1eb5;" d="M411 79q-107 -91 -140 -91q-25 0 -25 32q0 25 6 52l26 116l-3 1q-78 -116 -145 -165q-53 -38 -76 -38q-33 0 -33 82q0 73 38 187q39 117 80 146q55 40 83 52t65 12q33 0 78 -19l32 18l10 -9l-89 -368q-8 -33 13 -33q15 0 34.5 15t38.5 31zM326 399q-54 18 -81 18 q-44 0 -66 -24q-16 -18 -36 -68q-52 -137 -52 -225q0 -46 18 -46q41 0 127 114q63 84 90 231zM453 667q-10 -69 -47.5 -101.5t-112.5 -32.5q-48 2 -76 25q-32 26 -32 73q0 19 4 36q4 4 10 4t9 -4q1 -78 96 -80q85 0 130 80q4 4 10 4t9 -4zM524 819q-23 -83 -80 -99 q-18 -5 -35 -5q-36 0 -97 21q-58 20 -72 17q-43 -7 -54 -40h-17q16 64 67 88q18 9 44 9q33 0 96 -19q61 -18 81 -15q34 4 50 43h17z" />
<glyph unicode="&#x1eb6;" horiz-adv-x="696" d="M699 31l-7 -31h-260l7 31h87l-27 198h-249l-56 -91q-36 -59 -36 -86q0 -5 2 -11q4 -10 62 -10l-7 -31h-224l7 31q53 -2 74 11q28 16 76 96l344 572h40l92 -679h75zM494 266l-43 312l-178 -312h221zM377 -209q0 -22 -15.5 -37.5t-37.5 -15.5t-37.5 15.5t-15.5 37.5 t15.5 37.5t37.5 15.5q23 0 38 -15t15 -38zM672 879q-10 -69 -47.5 -101.5t-112.5 -32.5q-48 2 -76 25q-32 26 -32 73q0 19 4 36q4 4 10 4t9 -4q1 -78 96 -80q85 0 130 80q4 4 10 4t9 -4z" />
<glyph unicode="&#x1eb7;" d="M411 79q-107 -91 -140 -91q-25 0 -25 32q0 25 6 52l26 116l-3 1q-78 -116 -145 -165q-53 -38 -76 -38q-33 0 -33 82q0 73 38 187q39 117 80 146q55 40 83 52t65 12q33 0 78 -19l32 18l10 -9l-89 -368q-8 -33 13 -33q15 0 34.5 15t38.5 31zM326 399q-54 18 -81 18 q-44 0 -66 -24q-16 -18 -36 -68q-52 -137 -52 -225q0 -46 18 -46q41 0 127 114q63 84 90 231zM486 666q-10 -69 -47.5 -101.5t-112.5 -32.5q-48 2 -76 25q-32 26 -32 73q0 19 4 36q4 4 10 4t9 -4q1 -78 96 -80q85 0 130 80q4 4 10 4t9 -4zM196 -213q0 -22 -15.5 -37.5 t-37.5 -15.5t-37.5 15.5t-15.5 37.5t15.5 37.5t37.5 15.5q23 0 38 -15t15 -38z" />
<glyph unicode="&#x1eb8;" horiz-adv-x="730" d="M628 690l-40 -203h-30q3 28 3 46q0 50 -23 81q-31 41 -127 43l-172 2l-61 -290h123q44 0 68 25q29 29 44 93h31l-59 -278h-31q11 66 -5 93q-20 33 -56 33h-123l-64 -304l188 3q29 0 71 15q43 15 68 34q66 52 97 157h32l-64 -240h-593l6 31h94l134 628h-94l6 31h577z M287 -212q0 -22 -15.5 -37.5t-37.5 -15.5t-37.5 15.5t-15.5 37.5t15.5 37.5t37.5 15.5q23 0 38 -15t15 -38z" />
<glyph unicode="&#x1eb9;" horiz-adv-x="380" d="M368 389q0 -92 -121 -143q-23 -11 -66 -24l-80 -19q-4 -20 -6 -40.5t-2 -41.5q0 -91 78 -91q52 0 129 56l23 17l8 -19q-121 -100 -193 -100q-118 0 -118 124q0 60 30 159q24 79 72 117q101 79 161 79q36 0 60.5 -19.5t24.5 -54.5zM296 371q0 51 -49 51q-20 0 -45 -12 q-55 -25 -87 -149l-9 -36q31 7 57.5 15t48.5 19q16 7 31.5 19.5t27 27.5t18.5 31.5t7 33.5zM172 -212q0 -22 -15.5 -37.5t-37.5 -15.5t-37.5 15.5t-15.5 37.5t15.5 37.5t37.5 15.5q23 0 38 -15t15 -38z" />
<glyph unicode="&#x1eba;" horiz-adv-x="730" d="M628 690l-40 -203h-30q3 28 3 46q0 50 -23 81q-31 41 -127 43l-172 2l-61 -290h123q44 0 68 25q29 29 44 93h31l-59 -278h-31q11 66 -5 93q-20 33 -56 33h-123l-64 -304l188 3q29 0 71 15q43 15 68 34q66 52 97 157h32l-64 -240h-593l6 31h94l134 628h-94l6 31h577z M476 750l-10 -7q-20 7 -16 29q5 17 37 48q33 31 33 52q0 29 -36 25q-18 -3 -34 -23q-23 14 -21 16q10 20 36 34q22 13 48 13q56 0 56 -47q0 -10 -1 -15q-4 -23 -50 -61q-45 -37 -46 -46q-2 -10 4 -18z" />
<glyph unicode="&#x1ebb;" horiz-adv-x="380" d="M368 389q0 -92 -121 -143q-23 -11 -66 -24l-80 -19q-4 -20 -6 -40.5t-2 -41.5q0 -91 78 -91q52 0 129 56l23 17l8 -19q-121 -100 -193 -100q-118 0 -118 124q0 60 30 159q24 79 72 117q101 79 161 79q36 0 60.5 -19.5t24.5 -54.5zM296 371q0 51 -49 51q-20 0 -45 -12 q-55 -25 -87 -149l-9 -36q31 7 57.5 15t48.5 19q16 7 31.5 19.5t27 27.5t18.5 31.5t7 33.5zM266 537l-10 -7q-20 7 -16 29q5 17 37 48q33 31 33 52q0 29 -36 25q-18 -3 -34 -23q-23 14 -21 16q10 20 36 34q22 13 48 13q56 0 56 -47q0 -10 -1 -15q-4 -23 -50 -61 q-45 -37 -46 -46q-2 -10 4 -18z" />
<glyph unicode="&#x1ebc;" horiz-adv-x="730" d="M628 690l-40 -203h-30q3 28 3 46q0 50 -23 81q-31 41 -127 43l-172 2l-61 -290h123q44 0 68 25q29 29 44 93h31l-59 -278h-31q11 66 -5 93q-20 33 -56 33h-123l-64 -304l188 3q29 0 71 15q43 15 68 34q66 52 97 157h32l-64 -240h-593l6 31h94l134 628h-94l6 31h577z M641 846q-37 -100 -119 -100q-22 0 -55 15l-34 15q-29 13 -42 13q-33 0 -61 -43h-28q45 95 110 95q25 0 58 -14l53 -23q16 -7 34 -4q23 3 57 46h27z" />
<glyph unicode="&#x1ebd;" horiz-adv-x="380" d="M368 389q0 -92 -121 -143q-23 -11 -66 -24l-80 -19q-4 -20 -6 -40.5t-2 -41.5q0 -91 78 -91q52 0 129 56l23 17l8 -19q-121 -100 -193 -100q-118 0 -118 124q0 60 30 159q24 79 72 117q101 79 161 79q36 0 60.5 -19.5t24.5 -54.5zM296 371q0 51 -49 51q-20 0 -45 -12 q-55 -25 -87 -149l-9 -36q31 7 57.5 15t48.5 19q16 7 31.5 19.5t27 27.5t18.5 31.5t7 33.5zM434 636q-23 -83 -80 -99q-18 -5 -35 -5q-36 0 -97 21q-58 20 -72 17q-43 -7 -54 -40h-17q16 64 67 88q18 9 44 9q33 0 96 -19q61 -18 81 -15q34 4 50 43h17z" />
<glyph unicode="&#x1ebe;" horiz-adv-x="730" d="M628 690l-40 -203h-30q3 28 3 46q0 50 -23 81q-31 41 -127 43l-172 2l-61 -290h123q44 0 68 25q29 29 44 93h31l-59 -278h-31q11 66 -5 93q-20 33 -56 33h-123l-64 -304l188 3q29 0 71 15q43 15 68 34q66 52 97 157h32l-64 -240h-593l6 31h94l134 628h-94l6 31h577z M787 920q0 -26 -21 -44l-161 -136l-22 4l136 181q15 20 41 20q27 0 27 -25zM569 744h-34l-80 101l-133 -101h-38l153 164h47z" />
<glyph unicode="&#x1ebf;" horiz-adv-x="380" d="M368 389q0 -92 -121 -143q-23 -11 -66 -24l-80 -19q-4 -20 -6 -40.5t-2 -41.5q0 -91 78 -91q52 0 129 56l23 17l8 -19q-121 -100 -193 -100q-118 0 -118 124q0 60 30 159q24 79 72 117q101 79 161 79q36 0 60.5 -19.5t24.5 -54.5zM296 371q0 51 -49 51q-20 0 -45 -12 q-55 -25 -87 -149l-9 -36q31 7 57.5 15t48.5 19q16 7 31.5 19.5t27 27.5t18.5 31.5t7 33.5zM406 529h-34l-80 101l-133 -101h-38l153 164h47zM640 710q0 -26 -21 -44l-161 -136l-22 4l136 181q15 20 41 20q27 0 27 -25z" />
</font>
</defs>
</svg>
